M48
; DRILL file {KiCad (5.1.6-0)} date Sunday, March 05, 2023 at 10:37:36 AM
; FORMAT={-:-/ absolute / metric / decimal}
; #@! TF.CreationDate,2023-03-05T10:37:36+01:00
; #@! TF.GenerationSoftware,Kicad,Pcbnew,(5.1.6-0)
FMAT,2
METRIC
T1C0.400
T2C0.800
T3C1.000
T4C3.000
%
G90
G05
T1
X26.035Y-43.878
X26.416Y-64.072
X26.86Y-43.053
X27.622Y-42.291
X31.813Y-79.883
X33.147Y-57.658
X34.227Y-37.274
X36.068Y-64.262
X37.274Y-30.48
X38.576Y-42.577
X41.656Y-57.721
X43.18Y-79.819
X46.228Y-67.373
X47.307Y-42.164
X48.133Y-64.198
T2
X28.384Y-46.99
X28.384Y-49.53
X28.384Y-52.07
X28.384Y-54.61
X28.384Y-57.15
X28.384Y-59.69
X30.924Y-44.45
X30.924Y-46.99
X30.924Y-49.53
X30.924Y-52.07
X30.924Y-54.61
X30.924Y-57.15
X30.924Y-59.69
X30.924Y-62.23
X33.465Y-44.45
X33.465Y-46.99
X33.465Y-59.69
X33.465Y-62.23
X36.005Y-44.45
X36.005Y-46.99
X36.005Y-59.69
X36.005Y-62.23
X38.544Y-44.45
X38.544Y-46.99
X38.544Y-59.69
X38.544Y-62.23
X41.084Y-44.45
X41.084Y-46.99
X41.084Y-59.69
X41.084Y-62.23
X43.624Y-44.45
X43.624Y-46.99
X43.624Y-49.53
X43.624Y-52.07
X43.624Y-54.61
X43.624Y-57.15
X43.624Y-59.69
X43.624Y-62.23
X46.164Y-46.99
X46.164Y-49.53
X46.164Y-52.07
X46.164Y-54.61
X46.164Y-57.15
X46.164Y-59.69
X29.654Y-30.48
X29.654Y-33.02
X29.654Y-35.56
X29.654Y-38.1
X29.654Y-40.64
X29.654Y-43.18
X29.654Y-45.72
X29.654Y-48.26
X29.654Y-50.8
X29.654Y-53.34
X29.654Y-55.88
X29.654Y-58.42
X29.654Y-60.96
X29.654Y-63.5
X29.654Y-66.04
X29.654Y-68.58
X29.654Y-71.12
X29.654Y-73.66
X29.654Y-76.2
X29.654Y-78.74
X44.895Y-30.48
X44.895Y-33.02
X44.895Y-35.56
X44.895Y-38.1
X44.895Y-40.64
X44.895Y-43.18
X44.895Y-45.72
X44.895Y-48.26
X44.895Y-50.8
X44.895Y-53.34
X44.895Y-55.88
X44.895Y-58.42
X44.895Y-60.96
X44.895Y-63.5
X44.895Y-66.04
X44.895Y-68.58
X44.895Y-71.12
X44.895Y-73.66
X44.895Y-76.2
X44.895Y-78.74
T3
X33.02Y-39.179
X35.56Y-39.179
X38.1Y-39.179
X40.64Y-39.179
T4
X34.671Y-55.816
X34.671Y-50.673
X39.941Y-50.673
X40.069Y-55.816
T0
M30
