G04 #@! TF.GenerationSoftware,KiCad,Pcbnew,(5.1.6-0)*
G04 #@! TF.CreationDate,2023-03-06T07:47:12+01:00*
G04 #@! TF.ProjectId,CIAAdapter,43494141-6461-4707-9465-722e6b696361,rev?*
G04 #@! TF.SameCoordinates,Original*
G04 #@! TF.FileFunction,Legend,Bot*
G04 #@! TF.FilePolarity,Positive*
%FSLAX46Y46*%
G04 Gerber Fmt 4.6, Leading zero omitted, Abs format (unit mm)*
G04 Created by KiCad (PCBNEW (5.1.6-0)) date 2023-03-06 07:47:12*
%MOMM*%
%LPD*%
G01*
G04 APERTURE LIST*
%ADD10C,0.150000*%
G04 APERTURE END LIST*
D10*
X32488642Y-64255023D02*
X32536261Y-64207404D01*
X32583880Y-64064547D01*
X32583880Y-63969309D01*
X32536261Y-63826452D01*
X32441023Y-63731214D01*
X32345785Y-63683595D01*
X32155309Y-63635976D01*
X32012452Y-63635976D01*
X31821976Y-63683595D01*
X31726738Y-63731214D01*
X31631500Y-63826452D01*
X31583880Y-63969309D01*
X31583880Y-64064547D01*
X31631500Y-64207404D01*
X31679119Y-64255023D01*
X32583880Y-64683595D02*
X31583880Y-64683595D01*
X32298166Y-65112166D02*
X32298166Y-65588357D01*
X32583880Y-65016928D02*
X31583880Y-65350261D01*
X32583880Y-65683595D01*
X32583880Y-66778833D02*
X31583880Y-66778833D01*
X31583880Y-67159785D01*
X31631500Y-67255023D01*
X31679119Y-67302642D01*
X31774357Y-67350261D01*
X31917214Y-67350261D01*
X32012452Y-67302642D01*
X32060071Y-67255023D01*
X32107690Y-67159785D01*
X32107690Y-66778833D01*
X32583880Y-68255023D02*
X32583880Y-67778833D01*
X31583880Y-67778833D01*
X32488642Y-69159785D02*
X32536261Y-69112166D01*
X32583880Y-68969309D01*
X32583880Y-68874071D01*
X32536261Y-68731214D01*
X32441023Y-68635976D01*
X32345785Y-68588357D01*
X32155309Y-68540738D01*
X32012452Y-68540738D01*
X31821976Y-68588357D01*
X31726738Y-68635976D01*
X31631500Y-68731214D01*
X31583880Y-68874071D01*
X31583880Y-68969309D01*
X31631500Y-69112166D01*
X31679119Y-69159785D01*
X32488642Y-70159785D02*
X32536261Y-70112166D01*
X32583880Y-69969309D01*
X32583880Y-69874071D01*
X32536261Y-69731214D01*
X32441023Y-69635976D01*
X32345785Y-69588357D01*
X32155309Y-69540738D01*
X32012452Y-69540738D01*
X31821976Y-69588357D01*
X31726738Y-69635976D01*
X31631500Y-69731214D01*
X31583880Y-69874071D01*
X31583880Y-69969309D01*
X31631500Y-70112166D01*
X31679119Y-70159785D01*
X32202928Y-70588357D02*
X32202928Y-71350261D01*
X32583880Y-71826452D02*
X31583880Y-71826452D01*
X31583880Y-72064547D01*
X31631500Y-72207404D01*
X31726738Y-72302642D01*
X31821976Y-72350261D01*
X32012452Y-72397880D01*
X32155309Y-72397880D01*
X32345785Y-72350261D01*
X32441023Y-72302642D01*
X32536261Y-72207404D01*
X32583880Y-72064547D01*
X32583880Y-71826452D01*
X32583880Y-72826452D02*
X31583880Y-72826452D01*
X32583880Y-73302642D02*
X31583880Y-73302642D01*
X31583880Y-73683595D01*
X31631500Y-73778833D01*
X31679119Y-73826452D01*
X31774357Y-73874071D01*
X31917214Y-73874071D01*
X32012452Y-73826452D01*
X32060071Y-73778833D01*
X32107690Y-73683595D01*
X32107690Y-73302642D01*
X32298166Y-75016928D02*
X32298166Y-75493119D01*
X32583880Y-74921690D02*
X31583880Y-75255023D01*
X32583880Y-75588357D01*
X32583880Y-76350261D02*
X31583880Y-76350261D01*
X32536261Y-76350261D02*
X32583880Y-76255023D01*
X32583880Y-76064547D01*
X32536261Y-75969309D01*
X32488642Y-75921690D01*
X32393404Y-75874071D01*
X32107690Y-75874071D01*
X32012452Y-75921690D01*
X31964833Y-75969309D01*
X31917214Y-76064547D01*
X31917214Y-76255023D01*
X31964833Y-76350261D01*
X32583880Y-77255023D02*
X32060071Y-77255023D01*
X31964833Y-77207404D01*
X31917214Y-77112166D01*
X31917214Y-76921690D01*
X31964833Y-76826452D01*
X32536261Y-77255023D02*
X32583880Y-77159785D01*
X32583880Y-76921690D01*
X32536261Y-76826452D01*
X32441023Y-76778833D01*
X32345785Y-76778833D01*
X32250547Y-76826452D01*
X32202928Y-76921690D01*
X32202928Y-77159785D01*
X32155309Y-77255023D01*
X31917214Y-77731214D02*
X32917214Y-77731214D01*
X31964833Y-77731214D02*
X31917214Y-77826452D01*
X31917214Y-78016928D01*
X31964833Y-78112166D01*
X32012452Y-78159785D01*
X32107690Y-78207404D01*
X32393404Y-78207404D01*
X32488642Y-78159785D01*
X32536261Y-78112166D01*
X32583880Y-78016928D01*
X32583880Y-77826452D01*
X32536261Y-77731214D01*
X31917214Y-78493119D02*
X31917214Y-78874071D01*
X31583880Y-78635976D02*
X32441023Y-78635976D01*
X32536261Y-78683595D01*
X32583880Y-78778833D01*
X32583880Y-78874071D01*
X32536261Y-79588357D02*
X32583880Y-79493119D01*
X32583880Y-79302642D01*
X32536261Y-79207404D01*
X32441023Y-79159785D01*
X32060071Y-79159785D01*
X31964833Y-79207404D01*
X31917214Y-79302642D01*
X31917214Y-79493119D01*
X31964833Y-79588357D01*
X32060071Y-79635976D01*
X32155309Y-79635976D01*
X32250547Y-79159785D01*
X32583880Y-80064547D02*
X31917214Y-80064547D01*
X32107690Y-80064547D02*
X32012452Y-80112166D01*
X31964833Y-80159785D01*
X31917214Y-80255023D01*
X31917214Y-80350261D01*
X34138642Y-68088357D02*
X34186261Y-68040738D01*
X34233880Y-67897880D01*
X34233880Y-67802642D01*
X34186261Y-67659785D01*
X34091023Y-67564547D01*
X33995785Y-67516928D01*
X33805309Y-67469309D01*
X33662452Y-67469309D01*
X33471976Y-67516928D01*
X33376738Y-67564547D01*
X33281500Y-67659785D01*
X33233880Y-67802642D01*
X33233880Y-67897880D01*
X33281500Y-68040738D01*
X33329119Y-68088357D01*
X34186261Y-68469309D02*
X34233880Y-68612166D01*
X34233880Y-68850261D01*
X34186261Y-68945500D01*
X34138642Y-68993119D01*
X34043404Y-69040738D01*
X33948166Y-69040738D01*
X33852928Y-68993119D01*
X33805309Y-68945500D01*
X33757690Y-68850261D01*
X33710071Y-68659785D01*
X33662452Y-68564547D01*
X33614833Y-68516928D01*
X33519595Y-68469309D01*
X33424357Y-68469309D01*
X33329119Y-68516928D01*
X33281500Y-68564547D01*
X33233880Y-68659785D01*
X33233880Y-68897880D01*
X33281500Y-69040738D01*
X33281500Y-69993119D02*
X33233880Y-69897880D01*
X33233880Y-69755023D01*
X33281500Y-69612166D01*
X33376738Y-69516928D01*
X33471976Y-69469309D01*
X33662452Y-69421690D01*
X33805309Y-69421690D01*
X33995785Y-69469309D01*
X34091023Y-69516928D01*
X34186261Y-69612166D01*
X34233880Y-69755023D01*
X34233880Y-69850261D01*
X34186261Y-69993119D01*
X34138642Y-70040738D01*
X33805309Y-70040738D01*
X33805309Y-69850261D01*
X33662452Y-71374071D02*
X33614833Y-71278833D01*
X33567214Y-71231214D01*
X33471976Y-71183595D01*
X33424357Y-71183595D01*
X33329119Y-71231214D01*
X33281500Y-71278833D01*
X33233880Y-71374071D01*
X33233880Y-71564547D01*
X33281500Y-71659785D01*
X33329119Y-71707404D01*
X33424357Y-71755023D01*
X33471976Y-71755023D01*
X33567214Y-71707404D01*
X33614833Y-71659785D01*
X33662452Y-71564547D01*
X33662452Y-71374071D01*
X33710071Y-71278833D01*
X33757690Y-71231214D01*
X33852928Y-71183595D01*
X34043404Y-71183595D01*
X34138642Y-71231214D01*
X34186261Y-71278833D01*
X34233880Y-71374071D01*
X34233880Y-71564547D01*
X34186261Y-71659785D01*
X34138642Y-71707404D01*
X34043404Y-71755023D01*
X33852928Y-71755023D01*
X33757690Y-71707404D01*
X33710071Y-71659785D01*
X33662452Y-71564547D01*
X33233880Y-72659785D02*
X33233880Y-72183595D01*
X33710071Y-72135976D01*
X33662452Y-72183595D01*
X33614833Y-72278833D01*
X33614833Y-72516928D01*
X33662452Y-72612166D01*
X33710071Y-72659785D01*
X33805309Y-72707404D01*
X34043404Y-72707404D01*
X34138642Y-72659785D01*
X34186261Y-72612166D01*
X34233880Y-72516928D01*
X34233880Y-72278833D01*
X34186261Y-72183595D01*
X34138642Y-72135976D01*
X33329119Y-73088357D02*
X33281500Y-73135976D01*
X33233880Y-73231214D01*
X33233880Y-73469309D01*
X33281500Y-73564547D01*
X33329119Y-73612166D01*
X33424357Y-73659785D01*
X33519595Y-73659785D01*
X33662452Y-73612166D01*
X34233880Y-73040738D01*
X34233880Y-73659785D01*
X33233880Y-74278833D02*
X33233880Y-74374071D01*
X33281500Y-74469309D01*
X33329119Y-74516928D01*
X33424357Y-74564547D01*
X33614833Y-74612166D01*
X33852928Y-74612166D01*
X34043404Y-74564547D01*
X34138642Y-74516928D01*
X34186261Y-74469309D01*
X34233880Y-74374071D01*
X34233880Y-74278833D01*
X34186261Y-74183595D01*
X34138642Y-74135976D01*
X34043404Y-74088357D01*
X33852928Y-74040738D01*
X33614833Y-74040738D01*
X33424357Y-74088357D01*
X33329119Y-74135976D01*
X33281500Y-74183595D01*
X33233880Y-74278833D01*
X34233880Y-75040738D02*
X33233880Y-75040738D01*
X33233880Y-75421690D01*
X33281500Y-75516928D01*
X33329119Y-75564547D01*
X33424357Y-75612166D01*
X33567214Y-75612166D01*
X33662452Y-75564547D01*
X33710071Y-75516928D01*
X33757690Y-75421690D01*
X33757690Y-75040738D01*
X34233880Y-76516928D02*
X34233880Y-76040738D01*
X33233880Y-76040738D01*
X39378476Y-31180619D02*
X39330857Y-31085380D01*
X39330857Y-30894904D01*
X39378476Y-30799666D01*
X39473714Y-30704428D01*
X39568952Y-30656809D01*
X39759428Y-30656809D01*
X39854666Y-30704428D01*
X39949904Y-30799666D01*
X39997523Y-30894904D01*
X39997523Y-31085380D01*
X39949904Y-31180619D01*
X38997523Y-30990142D02*
X39045142Y-30752047D01*
X39188000Y-30513952D01*
X39426095Y-30371095D01*
X39664190Y-30323476D01*
X39902285Y-30371095D01*
X40140380Y-30513952D01*
X40283238Y-30752047D01*
X40330857Y-30990142D01*
X40283238Y-31228238D01*
X40140380Y-31466333D01*
X39902285Y-31609190D01*
X39664190Y-31656809D01*
X39426095Y-31609190D01*
X39188000Y-31466333D01*
X39045142Y-31228238D01*
X38997523Y-30990142D01*
X39235619Y-32799666D02*
X39188000Y-32847285D01*
X39140380Y-32942523D01*
X39140380Y-33180619D01*
X39188000Y-33275857D01*
X39235619Y-33323476D01*
X39330857Y-33371095D01*
X39426095Y-33371095D01*
X39568952Y-33323476D01*
X40140380Y-32752047D01*
X40140380Y-33371095D01*
X39140380Y-33990142D02*
X39140380Y-34085380D01*
X39188000Y-34180619D01*
X39235619Y-34228238D01*
X39330857Y-34275857D01*
X39521333Y-34323476D01*
X39759428Y-34323476D01*
X39949904Y-34275857D01*
X40045142Y-34228238D01*
X40092761Y-34180619D01*
X40140380Y-34085380D01*
X40140380Y-33990142D01*
X40092761Y-33894904D01*
X40045142Y-33847285D01*
X39949904Y-33799666D01*
X39759428Y-33752047D01*
X39521333Y-33752047D01*
X39330857Y-33799666D01*
X39235619Y-33847285D01*
X39188000Y-33894904D01*
X39140380Y-33990142D01*
X40140380Y-35275857D02*
X40140380Y-34704428D01*
X40140380Y-34990142D02*
X39140380Y-34990142D01*
X39283238Y-34894904D01*
X39378476Y-34799666D01*
X39426095Y-34704428D01*
X40140380Y-35752047D02*
X40140380Y-35942523D01*
X40092761Y-36037761D01*
X40045142Y-36085380D01*
X39902285Y-36180619D01*
X39711809Y-36228238D01*
X39330857Y-36228238D01*
X39235619Y-36180619D01*
X39188000Y-36133000D01*
X39140380Y-36037761D01*
X39140380Y-35847285D01*
X39188000Y-35752047D01*
X39235619Y-35704428D01*
X39330857Y-35656809D01*
X39568952Y-35656809D01*
X39664190Y-35704428D01*
X39711809Y-35752047D01*
X39759428Y-35847285D01*
X39759428Y-36037761D01*
X39711809Y-36133000D01*
X39664190Y-36180619D01*
X39568952Y-36228238D01*
X39759428Y-36656809D02*
X39759428Y-37418714D01*
X39235619Y-37847285D02*
X39188000Y-37894904D01*
X39140380Y-37990142D01*
X39140380Y-38228238D01*
X39188000Y-38323476D01*
X39235619Y-38371095D01*
X39330857Y-38418714D01*
X39426095Y-38418714D01*
X39568952Y-38371095D01*
X40140380Y-37799666D01*
X40140380Y-38418714D01*
X39140380Y-39037761D02*
X39140380Y-39133000D01*
X39188000Y-39228238D01*
X39235619Y-39275857D01*
X39330857Y-39323476D01*
X39521333Y-39371095D01*
X39759428Y-39371095D01*
X39949904Y-39323476D01*
X40045142Y-39275857D01*
X40092761Y-39228238D01*
X40140380Y-39133000D01*
X40140380Y-39037761D01*
X40092761Y-38942523D01*
X40045142Y-38894904D01*
X39949904Y-38847285D01*
X39759428Y-38799666D01*
X39521333Y-38799666D01*
X39330857Y-38847285D01*
X39235619Y-38894904D01*
X39188000Y-38942523D01*
X39140380Y-39037761D01*
X39235619Y-39752047D02*
X39188000Y-39799666D01*
X39140380Y-39894904D01*
X39140380Y-40133000D01*
X39188000Y-40228238D01*
X39235619Y-40275857D01*
X39330857Y-40323476D01*
X39426095Y-40323476D01*
X39568952Y-40275857D01*
X40140380Y-39704428D01*
X40140380Y-40323476D01*
X39140380Y-40656809D02*
X39140380Y-41275857D01*
X39521333Y-40942523D01*
X39521333Y-41085380D01*
X39568952Y-41180619D01*
X39616571Y-41228238D01*
X39711809Y-41275857D01*
X39949904Y-41275857D01*
X40045142Y-41228238D01*
X40092761Y-41180619D01*
X40140380Y-41085380D01*
X40140380Y-40799666D01*
X40092761Y-40704428D01*
X40045142Y-40656809D01*
X41790380Y-30371095D02*
X40790380Y-30371095D01*
X41266571Y-30371095D02*
X41266571Y-30942523D01*
X41790380Y-30942523D02*
X40790380Y-30942523D01*
X41695142Y-31418714D02*
X41742761Y-31466333D01*
X41790380Y-31418714D01*
X41742761Y-31371095D01*
X41695142Y-31418714D01*
X41790380Y-31418714D01*
X41790380Y-32466333D02*
X41314190Y-32133000D01*
X41790380Y-31894904D02*
X40790380Y-31894904D01*
X40790380Y-32275857D01*
X40838000Y-32371095D01*
X40885619Y-32418714D01*
X40980857Y-32466333D01*
X41123714Y-32466333D01*
X41218952Y-32418714D01*
X41266571Y-32371095D01*
X41314190Y-32275857D01*
X41314190Y-31894904D01*
X41790380Y-32894904D02*
X41123714Y-32894904D01*
X40790380Y-32894904D02*
X40838000Y-32847285D01*
X40885619Y-32894904D01*
X40838000Y-32942523D01*
X40790380Y-32894904D01*
X40885619Y-32894904D01*
X41742761Y-33799666D02*
X41790380Y-33704428D01*
X41790380Y-33513952D01*
X41742761Y-33418714D01*
X41695142Y-33371095D01*
X41599904Y-33323476D01*
X41314190Y-33323476D01*
X41218952Y-33371095D01*
X41171333Y-33418714D01*
X41123714Y-33513952D01*
X41123714Y-33704428D01*
X41171333Y-33799666D01*
X41790380Y-34228238D02*
X40790380Y-34228238D01*
X41790380Y-34656809D02*
X41266571Y-34656809D01*
X41171333Y-34609190D01*
X41123714Y-34513952D01*
X41123714Y-34371095D01*
X41171333Y-34275857D01*
X41218952Y-34228238D01*
X41123714Y-34990142D02*
X41123714Y-35371095D01*
X40790380Y-35133000D02*
X41647523Y-35133000D01*
X41742761Y-35180619D01*
X41790380Y-35275857D01*
X41790380Y-35371095D01*
X41742761Y-36085380D02*
X41790380Y-35990142D01*
X41790380Y-35799666D01*
X41742761Y-35704428D01*
X41647523Y-35656809D01*
X41266571Y-35656809D01*
X41171333Y-35704428D01*
X41123714Y-35799666D01*
X41123714Y-35990142D01*
X41171333Y-36085380D01*
X41266571Y-36132999D01*
X41361809Y-36132999D01*
X41457047Y-35656809D01*
X41790380Y-36561571D02*
X41123714Y-36561571D01*
X41314190Y-36561571D02*
X41218952Y-36609190D01*
X41171333Y-36656809D01*
X41123714Y-36752047D01*
X41123714Y-36847285D01*
M02*
