M48
; DRILL file {KiCad (5.1.6-0)} date Saturday, March 04, 2023 at 09:47:05 AM
; FORMAT={-:-/ absolute / metric / decimal}
; #@! TF.CreationDate,2023-03-04T09:47:05+01:00
; #@! TF.GenerationSoftware,Kicad,Pcbnew,(5.1.6-0)
FMAT,2
METRIC
T1C0.400
T2C1.000
%
G90
G05
T1
X55.753Y-55.245
X56.261Y-54.199
X61.976Y-55.372
X69.469Y-52.324
X72.263Y-52.324
X72.263Y-57.785
X74.676Y-55.372
X82.169Y-52.324
X84.836Y-52.324
X84.836Y-57.785
X87.376Y-55.372
X94.869Y-52.324
T2
X44.196Y-60.452
X46.736Y-60.452
X49.276Y-60.452
X51.816Y-60.452
X54.356Y-60.452
X56.896Y-60.452
X59.436Y-60.452
X61.976Y-60.452
X64.516Y-60.452
X67.056Y-60.452
X69.596Y-60.452
X72.136Y-60.452
X74.676Y-60.452
X77.216Y-60.452
X79.756Y-60.452
X82.296Y-60.452
X84.836Y-60.452
X87.376Y-60.452
X89.916Y-60.452
X92.456Y-60.452
X94.996Y-60.452
X97.536Y-60.452
T0
M30
