G04 #@! TF.GenerationSoftware,KiCad,Pcbnew,(5.1.6-0)*
G04 #@! TF.CreationDate,2023-03-04T09:46:59+01:00*
G04 #@! TF.ProjectId,Vidiot,56696469-6f74-42e6-9b69-6361645f7063,rev?*
G04 #@! TF.SameCoordinates,Original*
G04 #@! TF.FileFunction,Soldermask,Top*
G04 #@! TF.FilePolarity,Negative*
%FSLAX46Y46*%
G04 Gerber Fmt 4.6, Leading zero omitted, Abs format (unit mm)*
G04 Created by KiCad (PCBNEW (5.1.6-0)) date 2023-03-04 09:46:59*
%MOMM*%
%LPD*%
G01*
G04 APERTURE LIST*
%ADD10C,0.100000*%
G04 APERTURE END LIST*
D10*
G36*
X98437000Y-61353000D02*
G01*
X96635000Y-61353000D01*
X96635000Y-59551000D01*
X98437000Y-59551000D01*
X98437000Y-61353000D01*
G37*
G36*
X95109512Y-59555927D02*
G01*
X95258812Y-59585624D01*
X95422784Y-59653544D01*
X95570354Y-59752147D01*
X95695853Y-59877646D01*
X95794456Y-60025216D01*
X95862376Y-60189188D01*
X95897000Y-60363259D01*
X95897000Y-60540741D01*
X95862376Y-60714812D01*
X95794456Y-60878784D01*
X95695853Y-61026354D01*
X95570354Y-61151853D01*
X95422784Y-61250456D01*
X95258812Y-61318376D01*
X95109512Y-61348073D01*
X95084742Y-61353000D01*
X94907258Y-61353000D01*
X94882488Y-61348073D01*
X94733188Y-61318376D01*
X94569216Y-61250456D01*
X94421646Y-61151853D01*
X94296147Y-61026354D01*
X94197544Y-60878784D01*
X94129624Y-60714812D01*
X94095000Y-60540741D01*
X94095000Y-60363259D01*
X94129624Y-60189188D01*
X94197544Y-60025216D01*
X94296147Y-59877646D01*
X94421646Y-59752147D01*
X94569216Y-59653544D01*
X94733188Y-59585624D01*
X94882488Y-59555927D01*
X94907258Y-59551000D01*
X95084742Y-59551000D01*
X95109512Y-59555927D01*
G37*
G36*
X92569512Y-59555927D02*
G01*
X92718812Y-59585624D01*
X92882784Y-59653544D01*
X93030354Y-59752147D01*
X93155853Y-59877646D01*
X93254456Y-60025216D01*
X93322376Y-60189188D01*
X93357000Y-60363259D01*
X93357000Y-60540741D01*
X93322376Y-60714812D01*
X93254456Y-60878784D01*
X93155853Y-61026354D01*
X93030354Y-61151853D01*
X92882784Y-61250456D01*
X92718812Y-61318376D01*
X92569512Y-61348073D01*
X92544742Y-61353000D01*
X92367258Y-61353000D01*
X92342488Y-61348073D01*
X92193188Y-61318376D01*
X92029216Y-61250456D01*
X91881646Y-61151853D01*
X91756147Y-61026354D01*
X91657544Y-60878784D01*
X91589624Y-60714812D01*
X91555000Y-60540741D01*
X91555000Y-60363259D01*
X91589624Y-60189188D01*
X91657544Y-60025216D01*
X91756147Y-59877646D01*
X91881646Y-59752147D01*
X92029216Y-59653544D01*
X92193188Y-59585624D01*
X92342488Y-59555927D01*
X92367258Y-59551000D01*
X92544742Y-59551000D01*
X92569512Y-59555927D01*
G37*
G36*
X90029512Y-59555927D02*
G01*
X90178812Y-59585624D01*
X90342784Y-59653544D01*
X90490354Y-59752147D01*
X90615853Y-59877646D01*
X90714456Y-60025216D01*
X90782376Y-60189188D01*
X90817000Y-60363259D01*
X90817000Y-60540741D01*
X90782376Y-60714812D01*
X90714456Y-60878784D01*
X90615853Y-61026354D01*
X90490354Y-61151853D01*
X90342784Y-61250456D01*
X90178812Y-61318376D01*
X90029512Y-61348073D01*
X90004742Y-61353000D01*
X89827258Y-61353000D01*
X89802488Y-61348073D01*
X89653188Y-61318376D01*
X89489216Y-61250456D01*
X89341646Y-61151853D01*
X89216147Y-61026354D01*
X89117544Y-60878784D01*
X89049624Y-60714812D01*
X89015000Y-60540741D01*
X89015000Y-60363259D01*
X89049624Y-60189188D01*
X89117544Y-60025216D01*
X89216147Y-59877646D01*
X89341646Y-59752147D01*
X89489216Y-59653544D01*
X89653188Y-59585624D01*
X89802488Y-59555927D01*
X89827258Y-59551000D01*
X90004742Y-59551000D01*
X90029512Y-59555927D01*
G37*
G36*
X87489512Y-59555927D02*
G01*
X87638812Y-59585624D01*
X87802784Y-59653544D01*
X87950354Y-59752147D01*
X88075853Y-59877646D01*
X88174456Y-60025216D01*
X88242376Y-60189188D01*
X88277000Y-60363259D01*
X88277000Y-60540741D01*
X88242376Y-60714812D01*
X88174456Y-60878784D01*
X88075853Y-61026354D01*
X87950354Y-61151853D01*
X87802784Y-61250456D01*
X87638812Y-61318376D01*
X87489512Y-61348073D01*
X87464742Y-61353000D01*
X87287258Y-61353000D01*
X87262488Y-61348073D01*
X87113188Y-61318376D01*
X86949216Y-61250456D01*
X86801646Y-61151853D01*
X86676147Y-61026354D01*
X86577544Y-60878784D01*
X86509624Y-60714812D01*
X86475000Y-60540741D01*
X86475000Y-60363259D01*
X86509624Y-60189188D01*
X86577544Y-60025216D01*
X86676147Y-59877646D01*
X86801646Y-59752147D01*
X86949216Y-59653544D01*
X87113188Y-59585624D01*
X87262488Y-59555927D01*
X87287258Y-59551000D01*
X87464742Y-59551000D01*
X87489512Y-59555927D01*
G37*
G36*
X84949512Y-59555927D02*
G01*
X85098812Y-59585624D01*
X85262784Y-59653544D01*
X85410354Y-59752147D01*
X85535853Y-59877646D01*
X85634456Y-60025216D01*
X85702376Y-60189188D01*
X85737000Y-60363259D01*
X85737000Y-60540741D01*
X85702376Y-60714812D01*
X85634456Y-60878784D01*
X85535853Y-61026354D01*
X85410354Y-61151853D01*
X85262784Y-61250456D01*
X85098812Y-61318376D01*
X84949512Y-61348073D01*
X84924742Y-61353000D01*
X84747258Y-61353000D01*
X84722488Y-61348073D01*
X84573188Y-61318376D01*
X84409216Y-61250456D01*
X84261646Y-61151853D01*
X84136147Y-61026354D01*
X84037544Y-60878784D01*
X83969624Y-60714812D01*
X83935000Y-60540741D01*
X83935000Y-60363259D01*
X83969624Y-60189188D01*
X84037544Y-60025216D01*
X84136147Y-59877646D01*
X84261646Y-59752147D01*
X84409216Y-59653544D01*
X84573188Y-59585624D01*
X84722488Y-59555927D01*
X84747258Y-59551000D01*
X84924742Y-59551000D01*
X84949512Y-59555927D01*
G37*
G36*
X82409512Y-59555927D02*
G01*
X82558812Y-59585624D01*
X82722784Y-59653544D01*
X82870354Y-59752147D01*
X82995853Y-59877646D01*
X83094456Y-60025216D01*
X83162376Y-60189188D01*
X83197000Y-60363259D01*
X83197000Y-60540741D01*
X83162376Y-60714812D01*
X83094456Y-60878784D01*
X82995853Y-61026354D01*
X82870354Y-61151853D01*
X82722784Y-61250456D01*
X82558812Y-61318376D01*
X82409512Y-61348073D01*
X82384742Y-61353000D01*
X82207258Y-61353000D01*
X82182488Y-61348073D01*
X82033188Y-61318376D01*
X81869216Y-61250456D01*
X81721646Y-61151853D01*
X81596147Y-61026354D01*
X81497544Y-60878784D01*
X81429624Y-60714812D01*
X81395000Y-60540741D01*
X81395000Y-60363259D01*
X81429624Y-60189188D01*
X81497544Y-60025216D01*
X81596147Y-59877646D01*
X81721646Y-59752147D01*
X81869216Y-59653544D01*
X82033188Y-59585624D01*
X82182488Y-59555927D01*
X82207258Y-59551000D01*
X82384742Y-59551000D01*
X82409512Y-59555927D01*
G37*
G36*
X79869512Y-59555927D02*
G01*
X80018812Y-59585624D01*
X80182784Y-59653544D01*
X80330354Y-59752147D01*
X80455853Y-59877646D01*
X80554456Y-60025216D01*
X80622376Y-60189188D01*
X80657000Y-60363259D01*
X80657000Y-60540741D01*
X80622376Y-60714812D01*
X80554456Y-60878784D01*
X80455853Y-61026354D01*
X80330354Y-61151853D01*
X80182784Y-61250456D01*
X80018812Y-61318376D01*
X79869512Y-61348073D01*
X79844742Y-61353000D01*
X79667258Y-61353000D01*
X79642488Y-61348073D01*
X79493188Y-61318376D01*
X79329216Y-61250456D01*
X79181646Y-61151853D01*
X79056147Y-61026354D01*
X78957544Y-60878784D01*
X78889624Y-60714812D01*
X78855000Y-60540741D01*
X78855000Y-60363259D01*
X78889624Y-60189188D01*
X78957544Y-60025216D01*
X79056147Y-59877646D01*
X79181646Y-59752147D01*
X79329216Y-59653544D01*
X79493188Y-59585624D01*
X79642488Y-59555927D01*
X79667258Y-59551000D01*
X79844742Y-59551000D01*
X79869512Y-59555927D01*
G37*
G36*
X77329512Y-59555927D02*
G01*
X77478812Y-59585624D01*
X77642784Y-59653544D01*
X77790354Y-59752147D01*
X77915853Y-59877646D01*
X78014456Y-60025216D01*
X78082376Y-60189188D01*
X78117000Y-60363259D01*
X78117000Y-60540741D01*
X78082376Y-60714812D01*
X78014456Y-60878784D01*
X77915853Y-61026354D01*
X77790354Y-61151853D01*
X77642784Y-61250456D01*
X77478812Y-61318376D01*
X77329512Y-61348073D01*
X77304742Y-61353000D01*
X77127258Y-61353000D01*
X77102488Y-61348073D01*
X76953188Y-61318376D01*
X76789216Y-61250456D01*
X76641646Y-61151853D01*
X76516147Y-61026354D01*
X76417544Y-60878784D01*
X76349624Y-60714812D01*
X76315000Y-60540741D01*
X76315000Y-60363259D01*
X76349624Y-60189188D01*
X76417544Y-60025216D01*
X76516147Y-59877646D01*
X76641646Y-59752147D01*
X76789216Y-59653544D01*
X76953188Y-59585624D01*
X77102488Y-59555927D01*
X77127258Y-59551000D01*
X77304742Y-59551000D01*
X77329512Y-59555927D01*
G37*
G36*
X74789512Y-59555927D02*
G01*
X74938812Y-59585624D01*
X75102784Y-59653544D01*
X75250354Y-59752147D01*
X75375853Y-59877646D01*
X75474456Y-60025216D01*
X75542376Y-60189188D01*
X75577000Y-60363259D01*
X75577000Y-60540741D01*
X75542376Y-60714812D01*
X75474456Y-60878784D01*
X75375853Y-61026354D01*
X75250354Y-61151853D01*
X75102784Y-61250456D01*
X74938812Y-61318376D01*
X74789512Y-61348073D01*
X74764742Y-61353000D01*
X74587258Y-61353000D01*
X74562488Y-61348073D01*
X74413188Y-61318376D01*
X74249216Y-61250456D01*
X74101646Y-61151853D01*
X73976147Y-61026354D01*
X73877544Y-60878784D01*
X73809624Y-60714812D01*
X73775000Y-60540741D01*
X73775000Y-60363259D01*
X73809624Y-60189188D01*
X73877544Y-60025216D01*
X73976147Y-59877646D01*
X74101646Y-59752147D01*
X74249216Y-59653544D01*
X74413188Y-59585624D01*
X74562488Y-59555927D01*
X74587258Y-59551000D01*
X74764742Y-59551000D01*
X74789512Y-59555927D01*
G37*
G36*
X72249512Y-59555927D02*
G01*
X72398812Y-59585624D01*
X72562784Y-59653544D01*
X72710354Y-59752147D01*
X72835853Y-59877646D01*
X72934456Y-60025216D01*
X73002376Y-60189188D01*
X73037000Y-60363259D01*
X73037000Y-60540741D01*
X73002376Y-60714812D01*
X72934456Y-60878784D01*
X72835853Y-61026354D01*
X72710354Y-61151853D01*
X72562784Y-61250456D01*
X72398812Y-61318376D01*
X72249512Y-61348073D01*
X72224742Y-61353000D01*
X72047258Y-61353000D01*
X72022488Y-61348073D01*
X71873188Y-61318376D01*
X71709216Y-61250456D01*
X71561646Y-61151853D01*
X71436147Y-61026354D01*
X71337544Y-60878784D01*
X71269624Y-60714812D01*
X71235000Y-60540741D01*
X71235000Y-60363259D01*
X71269624Y-60189188D01*
X71337544Y-60025216D01*
X71436147Y-59877646D01*
X71561646Y-59752147D01*
X71709216Y-59653544D01*
X71873188Y-59585624D01*
X72022488Y-59555927D01*
X72047258Y-59551000D01*
X72224742Y-59551000D01*
X72249512Y-59555927D01*
G37*
G36*
X69709512Y-59555927D02*
G01*
X69858812Y-59585624D01*
X70022784Y-59653544D01*
X70170354Y-59752147D01*
X70295853Y-59877646D01*
X70394456Y-60025216D01*
X70462376Y-60189188D01*
X70497000Y-60363259D01*
X70497000Y-60540741D01*
X70462376Y-60714812D01*
X70394456Y-60878784D01*
X70295853Y-61026354D01*
X70170354Y-61151853D01*
X70022784Y-61250456D01*
X69858812Y-61318376D01*
X69709512Y-61348073D01*
X69684742Y-61353000D01*
X69507258Y-61353000D01*
X69482488Y-61348073D01*
X69333188Y-61318376D01*
X69169216Y-61250456D01*
X69021646Y-61151853D01*
X68896147Y-61026354D01*
X68797544Y-60878784D01*
X68729624Y-60714812D01*
X68695000Y-60540741D01*
X68695000Y-60363259D01*
X68729624Y-60189188D01*
X68797544Y-60025216D01*
X68896147Y-59877646D01*
X69021646Y-59752147D01*
X69169216Y-59653544D01*
X69333188Y-59585624D01*
X69482488Y-59555927D01*
X69507258Y-59551000D01*
X69684742Y-59551000D01*
X69709512Y-59555927D01*
G37*
G36*
X67169512Y-59555927D02*
G01*
X67318812Y-59585624D01*
X67482784Y-59653544D01*
X67630354Y-59752147D01*
X67755853Y-59877646D01*
X67854456Y-60025216D01*
X67922376Y-60189188D01*
X67957000Y-60363259D01*
X67957000Y-60540741D01*
X67922376Y-60714812D01*
X67854456Y-60878784D01*
X67755853Y-61026354D01*
X67630354Y-61151853D01*
X67482784Y-61250456D01*
X67318812Y-61318376D01*
X67169512Y-61348073D01*
X67144742Y-61353000D01*
X66967258Y-61353000D01*
X66942488Y-61348073D01*
X66793188Y-61318376D01*
X66629216Y-61250456D01*
X66481646Y-61151853D01*
X66356147Y-61026354D01*
X66257544Y-60878784D01*
X66189624Y-60714812D01*
X66155000Y-60540741D01*
X66155000Y-60363259D01*
X66189624Y-60189188D01*
X66257544Y-60025216D01*
X66356147Y-59877646D01*
X66481646Y-59752147D01*
X66629216Y-59653544D01*
X66793188Y-59585624D01*
X66942488Y-59555927D01*
X66967258Y-59551000D01*
X67144742Y-59551000D01*
X67169512Y-59555927D01*
G37*
G36*
X64629512Y-59555927D02*
G01*
X64778812Y-59585624D01*
X64942784Y-59653544D01*
X65090354Y-59752147D01*
X65215853Y-59877646D01*
X65314456Y-60025216D01*
X65382376Y-60189188D01*
X65417000Y-60363259D01*
X65417000Y-60540741D01*
X65382376Y-60714812D01*
X65314456Y-60878784D01*
X65215853Y-61026354D01*
X65090354Y-61151853D01*
X64942784Y-61250456D01*
X64778812Y-61318376D01*
X64629512Y-61348073D01*
X64604742Y-61353000D01*
X64427258Y-61353000D01*
X64402488Y-61348073D01*
X64253188Y-61318376D01*
X64089216Y-61250456D01*
X63941646Y-61151853D01*
X63816147Y-61026354D01*
X63717544Y-60878784D01*
X63649624Y-60714812D01*
X63615000Y-60540741D01*
X63615000Y-60363259D01*
X63649624Y-60189188D01*
X63717544Y-60025216D01*
X63816147Y-59877646D01*
X63941646Y-59752147D01*
X64089216Y-59653544D01*
X64253188Y-59585624D01*
X64402488Y-59555927D01*
X64427258Y-59551000D01*
X64604742Y-59551000D01*
X64629512Y-59555927D01*
G37*
G36*
X62089512Y-59555927D02*
G01*
X62238812Y-59585624D01*
X62402784Y-59653544D01*
X62550354Y-59752147D01*
X62675853Y-59877646D01*
X62774456Y-60025216D01*
X62842376Y-60189188D01*
X62877000Y-60363259D01*
X62877000Y-60540741D01*
X62842376Y-60714812D01*
X62774456Y-60878784D01*
X62675853Y-61026354D01*
X62550354Y-61151853D01*
X62402784Y-61250456D01*
X62238812Y-61318376D01*
X62089512Y-61348073D01*
X62064742Y-61353000D01*
X61887258Y-61353000D01*
X61862488Y-61348073D01*
X61713188Y-61318376D01*
X61549216Y-61250456D01*
X61401646Y-61151853D01*
X61276147Y-61026354D01*
X61177544Y-60878784D01*
X61109624Y-60714812D01*
X61075000Y-60540741D01*
X61075000Y-60363259D01*
X61109624Y-60189188D01*
X61177544Y-60025216D01*
X61276147Y-59877646D01*
X61401646Y-59752147D01*
X61549216Y-59653544D01*
X61713188Y-59585624D01*
X61862488Y-59555927D01*
X61887258Y-59551000D01*
X62064742Y-59551000D01*
X62089512Y-59555927D01*
G37*
G36*
X59549512Y-59555927D02*
G01*
X59698812Y-59585624D01*
X59862784Y-59653544D01*
X60010354Y-59752147D01*
X60135853Y-59877646D01*
X60234456Y-60025216D01*
X60302376Y-60189188D01*
X60337000Y-60363259D01*
X60337000Y-60540741D01*
X60302376Y-60714812D01*
X60234456Y-60878784D01*
X60135853Y-61026354D01*
X60010354Y-61151853D01*
X59862784Y-61250456D01*
X59698812Y-61318376D01*
X59549512Y-61348073D01*
X59524742Y-61353000D01*
X59347258Y-61353000D01*
X59322488Y-61348073D01*
X59173188Y-61318376D01*
X59009216Y-61250456D01*
X58861646Y-61151853D01*
X58736147Y-61026354D01*
X58637544Y-60878784D01*
X58569624Y-60714812D01*
X58535000Y-60540741D01*
X58535000Y-60363259D01*
X58569624Y-60189188D01*
X58637544Y-60025216D01*
X58736147Y-59877646D01*
X58861646Y-59752147D01*
X59009216Y-59653544D01*
X59173188Y-59585624D01*
X59322488Y-59555927D01*
X59347258Y-59551000D01*
X59524742Y-59551000D01*
X59549512Y-59555927D01*
G37*
G36*
X57009512Y-59555927D02*
G01*
X57158812Y-59585624D01*
X57322784Y-59653544D01*
X57470354Y-59752147D01*
X57595853Y-59877646D01*
X57694456Y-60025216D01*
X57762376Y-60189188D01*
X57797000Y-60363259D01*
X57797000Y-60540741D01*
X57762376Y-60714812D01*
X57694456Y-60878784D01*
X57595853Y-61026354D01*
X57470354Y-61151853D01*
X57322784Y-61250456D01*
X57158812Y-61318376D01*
X57009512Y-61348073D01*
X56984742Y-61353000D01*
X56807258Y-61353000D01*
X56782488Y-61348073D01*
X56633188Y-61318376D01*
X56469216Y-61250456D01*
X56321646Y-61151853D01*
X56196147Y-61026354D01*
X56097544Y-60878784D01*
X56029624Y-60714812D01*
X55995000Y-60540741D01*
X55995000Y-60363259D01*
X56029624Y-60189188D01*
X56097544Y-60025216D01*
X56196147Y-59877646D01*
X56321646Y-59752147D01*
X56469216Y-59653544D01*
X56633188Y-59585624D01*
X56782488Y-59555927D01*
X56807258Y-59551000D01*
X56984742Y-59551000D01*
X57009512Y-59555927D01*
G37*
G36*
X54469512Y-59555927D02*
G01*
X54618812Y-59585624D01*
X54782784Y-59653544D01*
X54930354Y-59752147D01*
X55055853Y-59877646D01*
X55154456Y-60025216D01*
X55222376Y-60189188D01*
X55257000Y-60363259D01*
X55257000Y-60540741D01*
X55222376Y-60714812D01*
X55154456Y-60878784D01*
X55055853Y-61026354D01*
X54930354Y-61151853D01*
X54782784Y-61250456D01*
X54618812Y-61318376D01*
X54469512Y-61348073D01*
X54444742Y-61353000D01*
X54267258Y-61353000D01*
X54242488Y-61348073D01*
X54093188Y-61318376D01*
X53929216Y-61250456D01*
X53781646Y-61151853D01*
X53656147Y-61026354D01*
X53557544Y-60878784D01*
X53489624Y-60714812D01*
X53455000Y-60540741D01*
X53455000Y-60363259D01*
X53489624Y-60189188D01*
X53557544Y-60025216D01*
X53656147Y-59877646D01*
X53781646Y-59752147D01*
X53929216Y-59653544D01*
X54093188Y-59585624D01*
X54242488Y-59555927D01*
X54267258Y-59551000D01*
X54444742Y-59551000D01*
X54469512Y-59555927D01*
G37*
G36*
X51929512Y-59555927D02*
G01*
X52078812Y-59585624D01*
X52242784Y-59653544D01*
X52390354Y-59752147D01*
X52515853Y-59877646D01*
X52614456Y-60025216D01*
X52682376Y-60189188D01*
X52717000Y-60363259D01*
X52717000Y-60540741D01*
X52682376Y-60714812D01*
X52614456Y-60878784D01*
X52515853Y-61026354D01*
X52390354Y-61151853D01*
X52242784Y-61250456D01*
X52078812Y-61318376D01*
X51929512Y-61348073D01*
X51904742Y-61353000D01*
X51727258Y-61353000D01*
X51702488Y-61348073D01*
X51553188Y-61318376D01*
X51389216Y-61250456D01*
X51241646Y-61151853D01*
X51116147Y-61026354D01*
X51017544Y-60878784D01*
X50949624Y-60714812D01*
X50915000Y-60540741D01*
X50915000Y-60363259D01*
X50949624Y-60189188D01*
X51017544Y-60025216D01*
X51116147Y-59877646D01*
X51241646Y-59752147D01*
X51389216Y-59653544D01*
X51553188Y-59585624D01*
X51702488Y-59555927D01*
X51727258Y-59551000D01*
X51904742Y-59551000D01*
X51929512Y-59555927D01*
G37*
G36*
X49389512Y-59555927D02*
G01*
X49538812Y-59585624D01*
X49702784Y-59653544D01*
X49850354Y-59752147D01*
X49975853Y-59877646D01*
X50074456Y-60025216D01*
X50142376Y-60189188D01*
X50177000Y-60363259D01*
X50177000Y-60540741D01*
X50142376Y-60714812D01*
X50074456Y-60878784D01*
X49975853Y-61026354D01*
X49850354Y-61151853D01*
X49702784Y-61250456D01*
X49538812Y-61318376D01*
X49389512Y-61348073D01*
X49364742Y-61353000D01*
X49187258Y-61353000D01*
X49162488Y-61348073D01*
X49013188Y-61318376D01*
X48849216Y-61250456D01*
X48701646Y-61151853D01*
X48576147Y-61026354D01*
X48477544Y-60878784D01*
X48409624Y-60714812D01*
X48375000Y-60540741D01*
X48375000Y-60363259D01*
X48409624Y-60189188D01*
X48477544Y-60025216D01*
X48576147Y-59877646D01*
X48701646Y-59752147D01*
X48849216Y-59653544D01*
X49013188Y-59585624D01*
X49162488Y-59555927D01*
X49187258Y-59551000D01*
X49364742Y-59551000D01*
X49389512Y-59555927D01*
G37*
G36*
X46849512Y-59555927D02*
G01*
X46998812Y-59585624D01*
X47162784Y-59653544D01*
X47310354Y-59752147D01*
X47435853Y-59877646D01*
X47534456Y-60025216D01*
X47602376Y-60189188D01*
X47637000Y-60363259D01*
X47637000Y-60540741D01*
X47602376Y-60714812D01*
X47534456Y-60878784D01*
X47435853Y-61026354D01*
X47310354Y-61151853D01*
X47162784Y-61250456D01*
X46998812Y-61318376D01*
X46849512Y-61348073D01*
X46824742Y-61353000D01*
X46647258Y-61353000D01*
X46622488Y-61348073D01*
X46473188Y-61318376D01*
X46309216Y-61250456D01*
X46161646Y-61151853D01*
X46036147Y-61026354D01*
X45937544Y-60878784D01*
X45869624Y-60714812D01*
X45835000Y-60540741D01*
X45835000Y-60363259D01*
X45869624Y-60189188D01*
X45937544Y-60025216D01*
X46036147Y-59877646D01*
X46161646Y-59752147D01*
X46309216Y-59653544D01*
X46473188Y-59585624D01*
X46622488Y-59555927D01*
X46647258Y-59551000D01*
X46824742Y-59551000D01*
X46849512Y-59555927D01*
G37*
G36*
X44309512Y-59555927D02*
G01*
X44458812Y-59585624D01*
X44622784Y-59653544D01*
X44770354Y-59752147D01*
X44895853Y-59877646D01*
X44994456Y-60025216D01*
X45062376Y-60189188D01*
X45097000Y-60363259D01*
X45097000Y-60540741D01*
X45062376Y-60714812D01*
X44994456Y-60878784D01*
X44895853Y-61026354D01*
X44770354Y-61151853D01*
X44622784Y-61250456D01*
X44458812Y-61318376D01*
X44309512Y-61348073D01*
X44284742Y-61353000D01*
X44107258Y-61353000D01*
X44082488Y-61348073D01*
X43933188Y-61318376D01*
X43769216Y-61250456D01*
X43621646Y-61151853D01*
X43496147Y-61026354D01*
X43397544Y-60878784D01*
X43329624Y-60714812D01*
X43295000Y-60540741D01*
X43295000Y-60363259D01*
X43329624Y-60189188D01*
X43397544Y-60025216D01*
X43496147Y-59877646D01*
X43621646Y-59752147D01*
X43769216Y-59653544D01*
X43933188Y-59585624D01*
X44082488Y-59555927D01*
X44107258Y-59551000D01*
X44284742Y-59551000D01*
X44309512Y-59555927D01*
G37*
G36*
X56331000Y-58397000D02*
G01*
X55429000Y-58397000D01*
X55429000Y-57395000D01*
X56331000Y-57395000D01*
X56331000Y-58397000D01*
G37*
G36*
X44433499Y-57213445D02*
G01*
X44470995Y-57224820D01*
X44505554Y-57243292D01*
X44535847Y-57268153D01*
X44560708Y-57298446D01*
X44579180Y-57333005D01*
X44590555Y-57370501D01*
X44595000Y-57415638D01*
X44595000Y-58154362D01*
X44590555Y-58199499D01*
X44579180Y-58236995D01*
X44560708Y-58271554D01*
X44535847Y-58301847D01*
X44505554Y-58326708D01*
X44470995Y-58345180D01*
X44433499Y-58356555D01*
X44388362Y-58361000D01*
X43749638Y-58361000D01*
X43704501Y-58356555D01*
X43667005Y-58345180D01*
X43632446Y-58326708D01*
X43602153Y-58301847D01*
X43577292Y-58271554D01*
X43558820Y-58236995D01*
X43547445Y-58199499D01*
X43543000Y-58154362D01*
X43543000Y-57415638D01*
X43547445Y-57370501D01*
X43558820Y-57333005D01*
X43577292Y-57298446D01*
X43602153Y-57268153D01*
X43632446Y-57243292D01*
X43667005Y-57224820D01*
X43704501Y-57213445D01*
X43749638Y-57209000D01*
X44388362Y-57209000D01*
X44433499Y-57213445D01*
G37*
G36*
X51418499Y-57213445D02*
G01*
X51455995Y-57224820D01*
X51490554Y-57243292D01*
X51520847Y-57268153D01*
X51545708Y-57298446D01*
X51564180Y-57333005D01*
X51575555Y-57370501D01*
X51580000Y-57415638D01*
X51580000Y-58154362D01*
X51575555Y-58199499D01*
X51564180Y-58236995D01*
X51545708Y-58271554D01*
X51520847Y-58301847D01*
X51490554Y-58326708D01*
X51455995Y-58345180D01*
X51418499Y-58356555D01*
X51373362Y-58361000D01*
X50734638Y-58361000D01*
X50689501Y-58356555D01*
X50652005Y-58345180D01*
X50617446Y-58326708D01*
X50587153Y-58301847D01*
X50562292Y-58271554D01*
X50543820Y-58236995D01*
X50532445Y-58199499D01*
X50528000Y-58154362D01*
X50528000Y-57415638D01*
X50532445Y-57370501D01*
X50543820Y-57333005D01*
X50562292Y-57298446D01*
X50587153Y-57268153D01*
X50617446Y-57243292D01*
X50652005Y-57224820D01*
X50689501Y-57213445D01*
X50734638Y-57209000D01*
X51373362Y-57209000D01*
X51418499Y-57213445D01*
G37*
G36*
X49640499Y-57213445D02*
G01*
X49677995Y-57224820D01*
X49712554Y-57243292D01*
X49742847Y-57268153D01*
X49767708Y-57298446D01*
X49786180Y-57333005D01*
X49797555Y-57370501D01*
X49802000Y-57415638D01*
X49802000Y-58154362D01*
X49797555Y-58199499D01*
X49786180Y-58236995D01*
X49767708Y-58271554D01*
X49742847Y-58301847D01*
X49712554Y-58326708D01*
X49677995Y-58345180D01*
X49640499Y-58356555D01*
X49595362Y-58361000D01*
X48956638Y-58361000D01*
X48911501Y-58356555D01*
X48874005Y-58345180D01*
X48839446Y-58326708D01*
X48809153Y-58301847D01*
X48784292Y-58271554D01*
X48765820Y-58236995D01*
X48754445Y-58199499D01*
X48750000Y-58154362D01*
X48750000Y-57415638D01*
X48754445Y-57370501D01*
X48765820Y-57333005D01*
X48784292Y-57298446D01*
X48809153Y-57268153D01*
X48839446Y-57243292D01*
X48874005Y-57224820D01*
X48911501Y-57213445D01*
X48956638Y-57209000D01*
X49595362Y-57209000D01*
X49640499Y-57213445D01*
G37*
G36*
X94090499Y-57213445D02*
G01*
X94127995Y-57224820D01*
X94162554Y-57243292D01*
X94192847Y-57268153D01*
X94217708Y-57298446D01*
X94236180Y-57333005D01*
X94247555Y-57370501D01*
X94252000Y-57415638D01*
X94252000Y-58154362D01*
X94247555Y-58199499D01*
X94236180Y-58236995D01*
X94217708Y-58271554D01*
X94192847Y-58301847D01*
X94162554Y-58326708D01*
X94127995Y-58345180D01*
X94090499Y-58356555D01*
X94045362Y-58361000D01*
X93406638Y-58361000D01*
X93361501Y-58356555D01*
X93324005Y-58345180D01*
X93289446Y-58326708D01*
X93259153Y-58301847D01*
X93234292Y-58271554D01*
X93215820Y-58236995D01*
X93204445Y-58199499D01*
X93200000Y-58154362D01*
X93200000Y-57415638D01*
X93204445Y-57370501D01*
X93215820Y-57333005D01*
X93234292Y-57298446D01*
X93259153Y-57268153D01*
X93289446Y-57243292D01*
X93324005Y-57224820D01*
X93361501Y-57213445D01*
X93406638Y-57209000D01*
X94045362Y-57209000D01*
X94090499Y-57213445D01*
G37*
G36*
X59038499Y-57213445D02*
G01*
X59075995Y-57224820D01*
X59110554Y-57243292D01*
X59140847Y-57268153D01*
X59165708Y-57298446D01*
X59184180Y-57333005D01*
X59195555Y-57370501D01*
X59200000Y-57415638D01*
X59200000Y-58154362D01*
X59195555Y-58199499D01*
X59184180Y-58236995D01*
X59165708Y-58271554D01*
X59140847Y-58301847D01*
X59110554Y-58326708D01*
X59075995Y-58345180D01*
X59038499Y-58356555D01*
X58993362Y-58361000D01*
X58354638Y-58361000D01*
X58309501Y-58356555D01*
X58272005Y-58345180D01*
X58237446Y-58326708D01*
X58207153Y-58301847D01*
X58182292Y-58271554D01*
X58163820Y-58236995D01*
X58152445Y-58199499D01*
X58148000Y-58154362D01*
X58148000Y-57415638D01*
X58152445Y-57370501D01*
X58163820Y-57333005D01*
X58182292Y-57298446D01*
X58207153Y-57268153D01*
X58237446Y-57243292D01*
X58272005Y-57224820D01*
X58309501Y-57213445D01*
X58354638Y-57209000D01*
X58993362Y-57209000D01*
X59038499Y-57213445D01*
G37*
G36*
X61197499Y-57213445D02*
G01*
X61234995Y-57224820D01*
X61269554Y-57243292D01*
X61299847Y-57268153D01*
X61324708Y-57298446D01*
X61343180Y-57333005D01*
X61354555Y-57370501D01*
X61359000Y-57415638D01*
X61359000Y-58154362D01*
X61354555Y-58199499D01*
X61343180Y-58236995D01*
X61324708Y-58271554D01*
X61299847Y-58301847D01*
X61269554Y-58326708D01*
X61234995Y-58345180D01*
X61197499Y-58356555D01*
X61152362Y-58361000D01*
X60513638Y-58361000D01*
X60468501Y-58356555D01*
X60431005Y-58345180D01*
X60396446Y-58326708D01*
X60366153Y-58301847D01*
X60341292Y-58271554D01*
X60322820Y-58236995D01*
X60311445Y-58199499D01*
X60307000Y-58154362D01*
X60307000Y-57415638D01*
X60311445Y-57370501D01*
X60322820Y-57333005D01*
X60341292Y-57298446D01*
X60366153Y-57268153D01*
X60396446Y-57243292D01*
X60431005Y-57224820D01*
X60468501Y-57213445D01*
X60513638Y-57209000D01*
X61152362Y-57209000D01*
X61197499Y-57213445D01*
G37*
G36*
X63610499Y-57213445D02*
G01*
X63647995Y-57224820D01*
X63682554Y-57243292D01*
X63712847Y-57268153D01*
X63737708Y-57298446D01*
X63756180Y-57333005D01*
X63767555Y-57370501D01*
X63772000Y-57415638D01*
X63772000Y-58154362D01*
X63767555Y-58199499D01*
X63756180Y-58236995D01*
X63737708Y-58271554D01*
X63712847Y-58301847D01*
X63682554Y-58326708D01*
X63647995Y-58345180D01*
X63610499Y-58356555D01*
X63565362Y-58361000D01*
X62926638Y-58361000D01*
X62881501Y-58356555D01*
X62844005Y-58345180D01*
X62809446Y-58326708D01*
X62779153Y-58301847D01*
X62754292Y-58271554D01*
X62735820Y-58236995D01*
X62724445Y-58199499D01*
X62720000Y-58154362D01*
X62720000Y-57415638D01*
X62724445Y-57370501D01*
X62735820Y-57333005D01*
X62754292Y-57298446D01*
X62779153Y-57268153D01*
X62809446Y-57243292D01*
X62844005Y-57224820D01*
X62881501Y-57213445D01*
X62926638Y-57209000D01*
X63565362Y-57209000D01*
X63610499Y-57213445D01*
G37*
G36*
X73770499Y-57213445D02*
G01*
X73807995Y-57224820D01*
X73842554Y-57243292D01*
X73872847Y-57268153D01*
X73897708Y-57298446D01*
X73916180Y-57333005D01*
X73927555Y-57370501D01*
X73932000Y-57415638D01*
X73932000Y-58154362D01*
X73927555Y-58199499D01*
X73916180Y-58236995D01*
X73897708Y-58271554D01*
X73872847Y-58301847D01*
X73842554Y-58326708D01*
X73807995Y-58345180D01*
X73770499Y-58356555D01*
X73725362Y-58361000D01*
X73086638Y-58361000D01*
X73041501Y-58356555D01*
X73004005Y-58345180D01*
X72969446Y-58326708D01*
X72939153Y-58301847D01*
X72914292Y-58271554D01*
X72895820Y-58236995D01*
X72884445Y-58199499D01*
X72880000Y-58154362D01*
X72880000Y-57415638D01*
X72884445Y-57370501D01*
X72895820Y-57333005D01*
X72914292Y-57298446D01*
X72939153Y-57268153D01*
X72969446Y-57243292D01*
X73004005Y-57224820D01*
X73041501Y-57213445D01*
X73086638Y-57209000D01*
X73725362Y-57209000D01*
X73770499Y-57213445D01*
G37*
G36*
X76310499Y-57213445D02*
G01*
X76347995Y-57224820D01*
X76382554Y-57243292D01*
X76412847Y-57268153D01*
X76437708Y-57298446D01*
X76456180Y-57333005D01*
X76467555Y-57370501D01*
X76472000Y-57415638D01*
X76472000Y-58154362D01*
X76467555Y-58199499D01*
X76456180Y-58236995D01*
X76437708Y-58271554D01*
X76412847Y-58301847D01*
X76382554Y-58326708D01*
X76347995Y-58345180D01*
X76310499Y-58356555D01*
X76265362Y-58361000D01*
X75626638Y-58361000D01*
X75581501Y-58356555D01*
X75544005Y-58345180D01*
X75509446Y-58326708D01*
X75479153Y-58301847D01*
X75454292Y-58271554D01*
X75435820Y-58236995D01*
X75424445Y-58199499D01*
X75420000Y-58154362D01*
X75420000Y-57415638D01*
X75424445Y-57370501D01*
X75435820Y-57333005D01*
X75454292Y-57298446D01*
X75479153Y-57268153D01*
X75509446Y-57243292D01*
X75544005Y-57224820D01*
X75581501Y-57213445D01*
X75626638Y-57209000D01*
X76265362Y-57209000D01*
X76310499Y-57213445D01*
G37*
G36*
X78850499Y-57213445D02*
G01*
X78887995Y-57224820D01*
X78922554Y-57243292D01*
X78952847Y-57268153D01*
X78977708Y-57298446D01*
X78996180Y-57333005D01*
X79007555Y-57370501D01*
X79012000Y-57415638D01*
X79012000Y-58154362D01*
X79007555Y-58199499D01*
X78996180Y-58236995D01*
X78977708Y-58271554D01*
X78952847Y-58301847D01*
X78922554Y-58326708D01*
X78887995Y-58345180D01*
X78850499Y-58356555D01*
X78805362Y-58361000D01*
X78166638Y-58361000D01*
X78121501Y-58356555D01*
X78084005Y-58345180D01*
X78049446Y-58326708D01*
X78019153Y-58301847D01*
X77994292Y-58271554D01*
X77975820Y-58236995D01*
X77964445Y-58199499D01*
X77960000Y-58154362D01*
X77960000Y-57415638D01*
X77964445Y-57370501D01*
X77975820Y-57333005D01*
X77994292Y-57298446D01*
X78019153Y-57268153D01*
X78049446Y-57243292D01*
X78084005Y-57224820D01*
X78121501Y-57213445D01*
X78166638Y-57209000D01*
X78805362Y-57209000D01*
X78850499Y-57213445D01*
G37*
G36*
X81390499Y-57213445D02*
G01*
X81427995Y-57224820D01*
X81462554Y-57243292D01*
X81492847Y-57268153D01*
X81517708Y-57298446D01*
X81536180Y-57333005D01*
X81547555Y-57370501D01*
X81552000Y-57415638D01*
X81552000Y-58154362D01*
X81547555Y-58199499D01*
X81536180Y-58236995D01*
X81517708Y-58271554D01*
X81492847Y-58301847D01*
X81462554Y-58326708D01*
X81427995Y-58345180D01*
X81390499Y-58356555D01*
X81345362Y-58361000D01*
X80706638Y-58361000D01*
X80661501Y-58356555D01*
X80624005Y-58345180D01*
X80589446Y-58326708D01*
X80559153Y-58301847D01*
X80534292Y-58271554D01*
X80515820Y-58236995D01*
X80504445Y-58199499D01*
X80500000Y-58154362D01*
X80500000Y-57415638D01*
X80504445Y-57370501D01*
X80515820Y-57333005D01*
X80534292Y-57298446D01*
X80559153Y-57268153D01*
X80589446Y-57243292D01*
X80624005Y-57224820D01*
X80661501Y-57213445D01*
X80706638Y-57209000D01*
X81345362Y-57209000D01*
X81390499Y-57213445D01*
G37*
G36*
X83930499Y-57213445D02*
G01*
X83967995Y-57224820D01*
X84002554Y-57243292D01*
X84032847Y-57268153D01*
X84057708Y-57298446D01*
X84076180Y-57333005D01*
X84087555Y-57370501D01*
X84092000Y-57415638D01*
X84092000Y-58154362D01*
X84087555Y-58199499D01*
X84076180Y-58236995D01*
X84057708Y-58271554D01*
X84032847Y-58301847D01*
X84002554Y-58326708D01*
X83967995Y-58345180D01*
X83930499Y-58356555D01*
X83885362Y-58361000D01*
X83246638Y-58361000D01*
X83201501Y-58356555D01*
X83164005Y-58345180D01*
X83129446Y-58326708D01*
X83099153Y-58301847D01*
X83074292Y-58271554D01*
X83055820Y-58236995D01*
X83044445Y-58199499D01*
X83040000Y-58154362D01*
X83040000Y-57415638D01*
X83044445Y-57370501D01*
X83055820Y-57333005D01*
X83074292Y-57298446D01*
X83099153Y-57268153D01*
X83129446Y-57243292D01*
X83164005Y-57224820D01*
X83201501Y-57213445D01*
X83246638Y-57209000D01*
X83885362Y-57209000D01*
X83930499Y-57213445D01*
G37*
G36*
X86470499Y-57213445D02*
G01*
X86507995Y-57224820D01*
X86542554Y-57243292D01*
X86572847Y-57268153D01*
X86597708Y-57298446D01*
X86616180Y-57333005D01*
X86627555Y-57370501D01*
X86632000Y-57415638D01*
X86632000Y-58154362D01*
X86627555Y-58199499D01*
X86616180Y-58236995D01*
X86597708Y-58271554D01*
X86572847Y-58301847D01*
X86542554Y-58326708D01*
X86507995Y-58345180D01*
X86470499Y-58356555D01*
X86425362Y-58361000D01*
X85786638Y-58361000D01*
X85741501Y-58356555D01*
X85704005Y-58345180D01*
X85669446Y-58326708D01*
X85639153Y-58301847D01*
X85614292Y-58271554D01*
X85595820Y-58236995D01*
X85584445Y-58199499D01*
X85580000Y-58154362D01*
X85580000Y-57415638D01*
X85584445Y-57370501D01*
X85595820Y-57333005D01*
X85614292Y-57298446D01*
X85639153Y-57268153D01*
X85669446Y-57243292D01*
X85704005Y-57224820D01*
X85741501Y-57213445D01*
X85786638Y-57209000D01*
X86425362Y-57209000D01*
X86470499Y-57213445D01*
G37*
G36*
X89010499Y-57213445D02*
G01*
X89047995Y-57224820D01*
X89082554Y-57243292D01*
X89112847Y-57268153D01*
X89137708Y-57298446D01*
X89156180Y-57333005D01*
X89167555Y-57370501D01*
X89172000Y-57415638D01*
X89172000Y-58154362D01*
X89167555Y-58199499D01*
X89156180Y-58236995D01*
X89137708Y-58271554D01*
X89112847Y-58301847D01*
X89082554Y-58326708D01*
X89047995Y-58345180D01*
X89010499Y-58356555D01*
X88965362Y-58361000D01*
X88326638Y-58361000D01*
X88281501Y-58356555D01*
X88244005Y-58345180D01*
X88209446Y-58326708D01*
X88179153Y-58301847D01*
X88154292Y-58271554D01*
X88135820Y-58236995D01*
X88124445Y-58199499D01*
X88120000Y-58154362D01*
X88120000Y-57415638D01*
X88124445Y-57370501D01*
X88135820Y-57333005D01*
X88154292Y-57298446D01*
X88179153Y-57268153D01*
X88209446Y-57243292D01*
X88244005Y-57224820D01*
X88281501Y-57213445D01*
X88326638Y-57209000D01*
X88965362Y-57209000D01*
X89010499Y-57213445D01*
G37*
G36*
X91550499Y-57213445D02*
G01*
X91587995Y-57224820D01*
X91622554Y-57243292D01*
X91652847Y-57268153D01*
X91677708Y-57298446D01*
X91696180Y-57333005D01*
X91707555Y-57370501D01*
X91712000Y-57415638D01*
X91712000Y-58154362D01*
X91707555Y-58199499D01*
X91696180Y-58236995D01*
X91677708Y-58271554D01*
X91652847Y-58301847D01*
X91622554Y-58326708D01*
X91587995Y-58345180D01*
X91550499Y-58356555D01*
X91505362Y-58361000D01*
X90866638Y-58361000D01*
X90821501Y-58356555D01*
X90784005Y-58345180D01*
X90749446Y-58326708D01*
X90719153Y-58301847D01*
X90694292Y-58271554D01*
X90675820Y-58236995D01*
X90664445Y-58199499D01*
X90660000Y-58154362D01*
X90660000Y-57415638D01*
X90664445Y-57370501D01*
X90675820Y-57333005D01*
X90694292Y-57298446D01*
X90719153Y-57268153D01*
X90749446Y-57243292D01*
X90784005Y-57224820D01*
X90821501Y-57213445D01*
X90866638Y-57209000D01*
X91505362Y-57209000D01*
X91550499Y-57213445D01*
G37*
G36*
X47989499Y-57213445D02*
G01*
X48026995Y-57224820D01*
X48061554Y-57243292D01*
X48091847Y-57268153D01*
X48116708Y-57298446D01*
X48135180Y-57333005D01*
X48146555Y-57370501D01*
X48151000Y-57415638D01*
X48151000Y-58154362D01*
X48146555Y-58199499D01*
X48135180Y-58236995D01*
X48116708Y-58271554D01*
X48091847Y-58301847D01*
X48061554Y-58326708D01*
X48026995Y-58345180D01*
X47989499Y-58356555D01*
X47944362Y-58361000D01*
X47305638Y-58361000D01*
X47260501Y-58356555D01*
X47223005Y-58345180D01*
X47188446Y-58326708D01*
X47158153Y-58301847D01*
X47133292Y-58271554D01*
X47114820Y-58236995D01*
X47103445Y-58199499D01*
X47099000Y-58154362D01*
X47099000Y-57415638D01*
X47103445Y-57370501D01*
X47114820Y-57333005D01*
X47133292Y-57298446D01*
X47158153Y-57268153D01*
X47188446Y-57243292D01*
X47223005Y-57224820D01*
X47260501Y-57213445D01*
X47305638Y-57209000D01*
X47944362Y-57209000D01*
X47989499Y-57213445D01*
G37*
G36*
X96630499Y-57213445D02*
G01*
X96667995Y-57224820D01*
X96702554Y-57243292D01*
X96732847Y-57268153D01*
X96757708Y-57298446D01*
X96776180Y-57333005D01*
X96787555Y-57370501D01*
X96792000Y-57415638D01*
X96792000Y-58154362D01*
X96787555Y-58199499D01*
X96776180Y-58236995D01*
X96757708Y-58271554D01*
X96732847Y-58301847D01*
X96702554Y-58326708D01*
X96667995Y-58345180D01*
X96630499Y-58356555D01*
X96585362Y-58361000D01*
X95946638Y-58361000D01*
X95901501Y-58356555D01*
X95864005Y-58345180D01*
X95829446Y-58326708D01*
X95799153Y-58301847D01*
X95774292Y-58271554D01*
X95755820Y-58236995D01*
X95744445Y-58199499D01*
X95740000Y-58154362D01*
X95740000Y-57415638D01*
X95744445Y-57370501D01*
X95755820Y-57333005D01*
X95774292Y-57298446D01*
X95799153Y-57268153D01*
X95829446Y-57243292D01*
X95864005Y-57224820D01*
X95901501Y-57213445D01*
X95946638Y-57209000D01*
X96585362Y-57209000D01*
X96630499Y-57213445D01*
G37*
G36*
X53450499Y-57199445D02*
G01*
X53487995Y-57210820D01*
X53522554Y-57229292D01*
X53552847Y-57254153D01*
X53577708Y-57284446D01*
X53596180Y-57319005D01*
X53607555Y-57356501D01*
X53612000Y-57401638D01*
X53612000Y-58140362D01*
X53607555Y-58185499D01*
X53596180Y-58222995D01*
X53577708Y-58257554D01*
X53552847Y-58287847D01*
X53522554Y-58312708D01*
X53487995Y-58331180D01*
X53450499Y-58342555D01*
X53405362Y-58347000D01*
X52766638Y-58347000D01*
X52721501Y-58342555D01*
X52684005Y-58331180D01*
X52649446Y-58312708D01*
X52619153Y-58287847D01*
X52594292Y-58257554D01*
X52575820Y-58222995D01*
X52564445Y-58185499D01*
X52560000Y-58140362D01*
X52560000Y-57401638D01*
X52564445Y-57356501D01*
X52575820Y-57319005D01*
X52594292Y-57284446D01*
X52619153Y-57254153D01*
X52649446Y-57229292D01*
X52684005Y-57210820D01*
X52721501Y-57199445D01*
X52766638Y-57195000D01*
X53405362Y-57195000D01*
X53450499Y-57199445D01*
G37*
G36*
X46211499Y-57199445D02*
G01*
X46248995Y-57210820D01*
X46283554Y-57229292D01*
X46313847Y-57254153D01*
X46338708Y-57284446D01*
X46357180Y-57319005D01*
X46368555Y-57356501D01*
X46373000Y-57401638D01*
X46373000Y-58140362D01*
X46368555Y-58185499D01*
X46357180Y-58222995D01*
X46338708Y-58257554D01*
X46313847Y-58287847D01*
X46283554Y-58312708D01*
X46248995Y-58331180D01*
X46211499Y-58342555D01*
X46166362Y-58347000D01*
X45527638Y-58347000D01*
X45482501Y-58342555D01*
X45445005Y-58331180D01*
X45410446Y-58312708D01*
X45380153Y-58287847D01*
X45355292Y-58257554D01*
X45336820Y-58222995D01*
X45325445Y-58185499D01*
X45321000Y-58140362D01*
X45321000Y-57401638D01*
X45325445Y-57356501D01*
X45336820Y-57319005D01*
X45355292Y-57284446D01*
X45380153Y-57254153D01*
X45410446Y-57229292D01*
X45445005Y-57210820D01*
X45482501Y-57199445D01*
X45527638Y-57195000D01*
X46166362Y-57195000D01*
X46211499Y-57199445D01*
G37*
G36*
X66150499Y-57185445D02*
G01*
X66187995Y-57196820D01*
X66222554Y-57215292D01*
X66252847Y-57240153D01*
X66277708Y-57270446D01*
X66296180Y-57305005D01*
X66307555Y-57342501D01*
X66312000Y-57387638D01*
X66312000Y-58126362D01*
X66307555Y-58171499D01*
X66296180Y-58208995D01*
X66277708Y-58243554D01*
X66252847Y-58273847D01*
X66222554Y-58298708D01*
X66187995Y-58317180D01*
X66150499Y-58328555D01*
X66105362Y-58333000D01*
X65466638Y-58333000D01*
X65421501Y-58328555D01*
X65384005Y-58317180D01*
X65349446Y-58298708D01*
X65319153Y-58273847D01*
X65294292Y-58243554D01*
X65275820Y-58208995D01*
X65264445Y-58171499D01*
X65260000Y-58126362D01*
X65260000Y-57387638D01*
X65264445Y-57342501D01*
X65275820Y-57305005D01*
X65294292Y-57270446D01*
X65319153Y-57240153D01*
X65349446Y-57215292D01*
X65384005Y-57196820D01*
X65421501Y-57185445D01*
X65466638Y-57181000D01*
X66105362Y-57181000D01*
X66150499Y-57185445D01*
G37*
G36*
X71230499Y-57185445D02*
G01*
X71267995Y-57196820D01*
X71302554Y-57215292D01*
X71332847Y-57240153D01*
X71357708Y-57270446D01*
X71376180Y-57305005D01*
X71387555Y-57342501D01*
X71392000Y-57387638D01*
X71392000Y-58126362D01*
X71387555Y-58171499D01*
X71376180Y-58208995D01*
X71357708Y-58243554D01*
X71332847Y-58273847D01*
X71302554Y-58298708D01*
X71267995Y-58317180D01*
X71230499Y-58328555D01*
X71185362Y-58333000D01*
X70546638Y-58333000D01*
X70501501Y-58328555D01*
X70464005Y-58317180D01*
X70429446Y-58298708D01*
X70399153Y-58273847D01*
X70374292Y-58243554D01*
X70355820Y-58208995D01*
X70344445Y-58171499D01*
X70340000Y-58126362D01*
X70340000Y-57387638D01*
X70344445Y-57342501D01*
X70355820Y-57305005D01*
X70374292Y-57270446D01*
X70399153Y-57240153D01*
X70429446Y-57215292D01*
X70464005Y-57196820D01*
X70501501Y-57185445D01*
X70546638Y-57181000D01*
X71185362Y-57181000D01*
X71230499Y-57185445D01*
G37*
G36*
X68690499Y-57185445D02*
G01*
X68727995Y-57196820D01*
X68762554Y-57215292D01*
X68792847Y-57240153D01*
X68817708Y-57270446D01*
X68836180Y-57305005D01*
X68847555Y-57342501D01*
X68852000Y-57387638D01*
X68852000Y-58126362D01*
X68847555Y-58171499D01*
X68836180Y-58208995D01*
X68817708Y-58243554D01*
X68792847Y-58273847D01*
X68762554Y-58298708D01*
X68727995Y-58317180D01*
X68690499Y-58328555D01*
X68645362Y-58333000D01*
X68006638Y-58333000D01*
X67961501Y-58328555D01*
X67924005Y-58317180D01*
X67889446Y-58298708D01*
X67859153Y-58273847D01*
X67834292Y-58243554D01*
X67815820Y-58208995D01*
X67804445Y-58171499D01*
X67800000Y-58126362D01*
X67800000Y-57387638D01*
X67804445Y-57342501D01*
X67815820Y-57305005D01*
X67834292Y-57270446D01*
X67859153Y-57240153D01*
X67889446Y-57215292D01*
X67924005Y-57196820D01*
X67961501Y-57185445D01*
X68006638Y-57181000D01*
X68645362Y-57181000D01*
X68690499Y-57185445D01*
G37*
G36*
X89010499Y-55463445D02*
G01*
X89047995Y-55474820D01*
X89082554Y-55493292D01*
X89112847Y-55518153D01*
X89137708Y-55548446D01*
X89156180Y-55583005D01*
X89167555Y-55620501D01*
X89172000Y-55665638D01*
X89172000Y-56404362D01*
X89167555Y-56449499D01*
X89156180Y-56486995D01*
X89137708Y-56521554D01*
X89112847Y-56551847D01*
X89082554Y-56576708D01*
X89047995Y-56595180D01*
X89010499Y-56606555D01*
X88965362Y-56611000D01*
X88326638Y-56611000D01*
X88281501Y-56606555D01*
X88244005Y-56595180D01*
X88209446Y-56576708D01*
X88179153Y-56551847D01*
X88154292Y-56521554D01*
X88135820Y-56486995D01*
X88124445Y-56449499D01*
X88120000Y-56404362D01*
X88120000Y-55665638D01*
X88124445Y-55620501D01*
X88135820Y-55583005D01*
X88154292Y-55548446D01*
X88179153Y-55518153D01*
X88209446Y-55493292D01*
X88244005Y-55474820D01*
X88281501Y-55463445D01*
X88326638Y-55459000D01*
X88965362Y-55459000D01*
X89010499Y-55463445D01*
G37*
G36*
X49640499Y-55463445D02*
G01*
X49677995Y-55474820D01*
X49712554Y-55493292D01*
X49742847Y-55518153D01*
X49767708Y-55548446D01*
X49786180Y-55583005D01*
X49797555Y-55620501D01*
X49802000Y-55665638D01*
X49802000Y-56404362D01*
X49797555Y-56449499D01*
X49786180Y-56486995D01*
X49767708Y-56521554D01*
X49742847Y-56551847D01*
X49712554Y-56576708D01*
X49677995Y-56595180D01*
X49640499Y-56606555D01*
X49595362Y-56611000D01*
X48956638Y-56611000D01*
X48911501Y-56606555D01*
X48874005Y-56595180D01*
X48839446Y-56576708D01*
X48809153Y-56551847D01*
X48784292Y-56521554D01*
X48765820Y-56486995D01*
X48754445Y-56449499D01*
X48750000Y-56404362D01*
X48750000Y-55665638D01*
X48754445Y-55620501D01*
X48765820Y-55583005D01*
X48784292Y-55548446D01*
X48809153Y-55518153D01*
X48839446Y-55493292D01*
X48874005Y-55474820D01*
X48911501Y-55463445D01*
X48956638Y-55459000D01*
X49595362Y-55459000D01*
X49640499Y-55463445D01*
G37*
G36*
X86470499Y-55463445D02*
G01*
X86507995Y-55474820D01*
X86542554Y-55493292D01*
X86572847Y-55518153D01*
X86597708Y-55548446D01*
X86616180Y-55583005D01*
X86627555Y-55620501D01*
X86632000Y-55665638D01*
X86632000Y-56404362D01*
X86627555Y-56449499D01*
X86616180Y-56486995D01*
X86597708Y-56521554D01*
X86572847Y-56551847D01*
X86542554Y-56576708D01*
X86507995Y-56595180D01*
X86470499Y-56606555D01*
X86425362Y-56611000D01*
X85786638Y-56611000D01*
X85741501Y-56606555D01*
X85704005Y-56595180D01*
X85669446Y-56576708D01*
X85639153Y-56551847D01*
X85614292Y-56521554D01*
X85595820Y-56486995D01*
X85584445Y-56449499D01*
X85580000Y-56404362D01*
X85580000Y-55665638D01*
X85584445Y-55620501D01*
X85595820Y-55583005D01*
X85614292Y-55548446D01*
X85639153Y-55518153D01*
X85669446Y-55493292D01*
X85704005Y-55474820D01*
X85741501Y-55463445D01*
X85786638Y-55459000D01*
X86425362Y-55459000D01*
X86470499Y-55463445D01*
G37*
G36*
X51418499Y-55463445D02*
G01*
X51455995Y-55474820D01*
X51490554Y-55493292D01*
X51520847Y-55518153D01*
X51545708Y-55548446D01*
X51564180Y-55583005D01*
X51575555Y-55620501D01*
X51580000Y-55665638D01*
X51580000Y-56404362D01*
X51575555Y-56449499D01*
X51564180Y-56486995D01*
X51545708Y-56521554D01*
X51520847Y-56551847D01*
X51490554Y-56576708D01*
X51455995Y-56595180D01*
X51418499Y-56606555D01*
X51373362Y-56611000D01*
X50734638Y-56611000D01*
X50689501Y-56606555D01*
X50652005Y-56595180D01*
X50617446Y-56576708D01*
X50587153Y-56551847D01*
X50562292Y-56521554D01*
X50543820Y-56486995D01*
X50532445Y-56449499D01*
X50528000Y-56404362D01*
X50528000Y-55665638D01*
X50532445Y-55620501D01*
X50543820Y-55583005D01*
X50562292Y-55548446D01*
X50587153Y-55518153D01*
X50617446Y-55493292D01*
X50652005Y-55474820D01*
X50689501Y-55463445D01*
X50734638Y-55459000D01*
X51373362Y-55459000D01*
X51418499Y-55463445D01*
G37*
G36*
X83930499Y-55463445D02*
G01*
X83967995Y-55474820D01*
X84002554Y-55493292D01*
X84032847Y-55518153D01*
X84057708Y-55548446D01*
X84076180Y-55583005D01*
X84087555Y-55620501D01*
X84092000Y-55665638D01*
X84092000Y-56404362D01*
X84087555Y-56449499D01*
X84076180Y-56486995D01*
X84057708Y-56521554D01*
X84032847Y-56551847D01*
X84002554Y-56576708D01*
X83967995Y-56595180D01*
X83930499Y-56606555D01*
X83885362Y-56611000D01*
X83246638Y-56611000D01*
X83201501Y-56606555D01*
X83164005Y-56595180D01*
X83129446Y-56576708D01*
X83099153Y-56551847D01*
X83074292Y-56521554D01*
X83055820Y-56486995D01*
X83044445Y-56449499D01*
X83040000Y-56404362D01*
X83040000Y-55665638D01*
X83044445Y-55620501D01*
X83055820Y-55583005D01*
X83074292Y-55548446D01*
X83099153Y-55518153D01*
X83129446Y-55493292D01*
X83164005Y-55474820D01*
X83201501Y-55463445D01*
X83246638Y-55459000D01*
X83885362Y-55459000D01*
X83930499Y-55463445D01*
G37*
G36*
X59038499Y-55463445D02*
G01*
X59075995Y-55474820D01*
X59110554Y-55493292D01*
X59140847Y-55518153D01*
X59165708Y-55548446D01*
X59184180Y-55583005D01*
X59195555Y-55620501D01*
X59200000Y-55665638D01*
X59200000Y-56404362D01*
X59195555Y-56449499D01*
X59184180Y-56486995D01*
X59165708Y-56521554D01*
X59140847Y-56551847D01*
X59110554Y-56576708D01*
X59075995Y-56595180D01*
X59038499Y-56606555D01*
X58993362Y-56611000D01*
X58354638Y-56611000D01*
X58309501Y-56606555D01*
X58272005Y-56595180D01*
X58237446Y-56576708D01*
X58207153Y-56551847D01*
X58182292Y-56521554D01*
X58163820Y-56486995D01*
X58152445Y-56449499D01*
X58148000Y-56404362D01*
X58148000Y-55665638D01*
X58152445Y-55620501D01*
X58163820Y-55583005D01*
X58182292Y-55548446D01*
X58207153Y-55518153D01*
X58237446Y-55493292D01*
X58272005Y-55474820D01*
X58309501Y-55463445D01*
X58354638Y-55459000D01*
X58993362Y-55459000D01*
X59038499Y-55463445D01*
G37*
G36*
X81390499Y-55463445D02*
G01*
X81427995Y-55474820D01*
X81462554Y-55493292D01*
X81492847Y-55518153D01*
X81517708Y-55548446D01*
X81536180Y-55583005D01*
X81547555Y-55620501D01*
X81552000Y-55665638D01*
X81552000Y-56404362D01*
X81547555Y-56449499D01*
X81536180Y-56486995D01*
X81517708Y-56521554D01*
X81492847Y-56551847D01*
X81462554Y-56576708D01*
X81427995Y-56595180D01*
X81390499Y-56606555D01*
X81345362Y-56611000D01*
X80706638Y-56611000D01*
X80661501Y-56606555D01*
X80624005Y-56595180D01*
X80589446Y-56576708D01*
X80559153Y-56551847D01*
X80534292Y-56521554D01*
X80515820Y-56486995D01*
X80504445Y-56449499D01*
X80500000Y-56404362D01*
X80500000Y-55665638D01*
X80504445Y-55620501D01*
X80515820Y-55583005D01*
X80534292Y-55548446D01*
X80559153Y-55518153D01*
X80589446Y-55493292D01*
X80624005Y-55474820D01*
X80661501Y-55463445D01*
X80706638Y-55459000D01*
X81345362Y-55459000D01*
X81390499Y-55463445D01*
G37*
G36*
X61197499Y-55463445D02*
G01*
X61234995Y-55474820D01*
X61269554Y-55493292D01*
X61299847Y-55518153D01*
X61324708Y-55548446D01*
X61343180Y-55583005D01*
X61354555Y-55620501D01*
X61359000Y-55665638D01*
X61359000Y-56404362D01*
X61354555Y-56449499D01*
X61343180Y-56486995D01*
X61324708Y-56521554D01*
X61299847Y-56551847D01*
X61269554Y-56576708D01*
X61234995Y-56595180D01*
X61197499Y-56606555D01*
X61152362Y-56611000D01*
X60513638Y-56611000D01*
X60468501Y-56606555D01*
X60431005Y-56595180D01*
X60396446Y-56576708D01*
X60366153Y-56551847D01*
X60341292Y-56521554D01*
X60322820Y-56486995D01*
X60311445Y-56449499D01*
X60307000Y-56404362D01*
X60307000Y-55665638D01*
X60311445Y-55620501D01*
X60322820Y-55583005D01*
X60341292Y-55548446D01*
X60366153Y-55518153D01*
X60396446Y-55493292D01*
X60431005Y-55474820D01*
X60468501Y-55463445D01*
X60513638Y-55459000D01*
X61152362Y-55459000D01*
X61197499Y-55463445D01*
G37*
G36*
X78850499Y-55463445D02*
G01*
X78887995Y-55474820D01*
X78922554Y-55493292D01*
X78952847Y-55518153D01*
X78977708Y-55548446D01*
X78996180Y-55583005D01*
X79007555Y-55620501D01*
X79012000Y-55665638D01*
X79012000Y-56404362D01*
X79007555Y-56449499D01*
X78996180Y-56486995D01*
X78977708Y-56521554D01*
X78952847Y-56551847D01*
X78922554Y-56576708D01*
X78887995Y-56595180D01*
X78850499Y-56606555D01*
X78805362Y-56611000D01*
X78166638Y-56611000D01*
X78121501Y-56606555D01*
X78084005Y-56595180D01*
X78049446Y-56576708D01*
X78019153Y-56551847D01*
X77994292Y-56521554D01*
X77975820Y-56486995D01*
X77964445Y-56449499D01*
X77960000Y-56404362D01*
X77960000Y-55665638D01*
X77964445Y-55620501D01*
X77975820Y-55583005D01*
X77994292Y-55548446D01*
X78019153Y-55518153D01*
X78049446Y-55493292D01*
X78084005Y-55474820D01*
X78121501Y-55463445D01*
X78166638Y-55459000D01*
X78805362Y-55459000D01*
X78850499Y-55463445D01*
G37*
G36*
X63610499Y-55463445D02*
G01*
X63647995Y-55474820D01*
X63682554Y-55493292D01*
X63712847Y-55518153D01*
X63737708Y-55548446D01*
X63756180Y-55583005D01*
X63767555Y-55620501D01*
X63772000Y-55665638D01*
X63772000Y-56404362D01*
X63767555Y-56449499D01*
X63756180Y-56486995D01*
X63737708Y-56521554D01*
X63712847Y-56551847D01*
X63682554Y-56576708D01*
X63647995Y-56595180D01*
X63610499Y-56606555D01*
X63565362Y-56611000D01*
X62926638Y-56611000D01*
X62881501Y-56606555D01*
X62844005Y-56595180D01*
X62809446Y-56576708D01*
X62779153Y-56551847D01*
X62754292Y-56521554D01*
X62735820Y-56486995D01*
X62724445Y-56449499D01*
X62720000Y-56404362D01*
X62720000Y-55665638D01*
X62724445Y-55620501D01*
X62735820Y-55583005D01*
X62754292Y-55548446D01*
X62779153Y-55518153D01*
X62809446Y-55493292D01*
X62844005Y-55474820D01*
X62881501Y-55463445D01*
X62926638Y-55459000D01*
X63565362Y-55459000D01*
X63610499Y-55463445D01*
G37*
G36*
X76310499Y-55463445D02*
G01*
X76347995Y-55474820D01*
X76382554Y-55493292D01*
X76412847Y-55518153D01*
X76437708Y-55548446D01*
X76456180Y-55583005D01*
X76467555Y-55620501D01*
X76472000Y-55665638D01*
X76472000Y-56404362D01*
X76467555Y-56449499D01*
X76456180Y-56486995D01*
X76437708Y-56521554D01*
X76412847Y-56551847D01*
X76382554Y-56576708D01*
X76347995Y-56595180D01*
X76310499Y-56606555D01*
X76265362Y-56611000D01*
X75626638Y-56611000D01*
X75581501Y-56606555D01*
X75544005Y-56595180D01*
X75509446Y-56576708D01*
X75479153Y-56551847D01*
X75454292Y-56521554D01*
X75435820Y-56486995D01*
X75424445Y-56449499D01*
X75420000Y-56404362D01*
X75420000Y-55665638D01*
X75424445Y-55620501D01*
X75435820Y-55583005D01*
X75454292Y-55548446D01*
X75479153Y-55518153D01*
X75509446Y-55493292D01*
X75544005Y-55474820D01*
X75581501Y-55463445D01*
X75626638Y-55459000D01*
X76265362Y-55459000D01*
X76310499Y-55463445D01*
G37*
G36*
X73770499Y-55463445D02*
G01*
X73807995Y-55474820D01*
X73842554Y-55493292D01*
X73872847Y-55518153D01*
X73897708Y-55548446D01*
X73916180Y-55583005D01*
X73927555Y-55620501D01*
X73932000Y-55665638D01*
X73932000Y-56404362D01*
X73927555Y-56449499D01*
X73916180Y-56486995D01*
X73897708Y-56521554D01*
X73872847Y-56551847D01*
X73842554Y-56576708D01*
X73807995Y-56595180D01*
X73770499Y-56606555D01*
X73725362Y-56611000D01*
X73086638Y-56611000D01*
X73041501Y-56606555D01*
X73004005Y-56595180D01*
X72969446Y-56576708D01*
X72939153Y-56551847D01*
X72914292Y-56521554D01*
X72895820Y-56486995D01*
X72884445Y-56449499D01*
X72880000Y-56404362D01*
X72880000Y-55665638D01*
X72884445Y-55620501D01*
X72895820Y-55583005D01*
X72914292Y-55548446D01*
X72939153Y-55518153D01*
X72969446Y-55493292D01*
X73004005Y-55474820D01*
X73041501Y-55463445D01*
X73086638Y-55459000D01*
X73725362Y-55459000D01*
X73770499Y-55463445D01*
G37*
G36*
X47989499Y-55463445D02*
G01*
X48026995Y-55474820D01*
X48061554Y-55493292D01*
X48091847Y-55518153D01*
X48116708Y-55548446D01*
X48135180Y-55583005D01*
X48146555Y-55620501D01*
X48151000Y-55665638D01*
X48151000Y-56404362D01*
X48146555Y-56449499D01*
X48135180Y-56486995D01*
X48116708Y-56521554D01*
X48091847Y-56551847D01*
X48061554Y-56576708D01*
X48026995Y-56595180D01*
X47989499Y-56606555D01*
X47944362Y-56611000D01*
X47305638Y-56611000D01*
X47260501Y-56606555D01*
X47223005Y-56595180D01*
X47188446Y-56576708D01*
X47158153Y-56551847D01*
X47133292Y-56521554D01*
X47114820Y-56486995D01*
X47103445Y-56449499D01*
X47099000Y-56404362D01*
X47099000Y-55665638D01*
X47103445Y-55620501D01*
X47114820Y-55583005D01*
X47133292Y-55548446D01*
X47158153Y-55518153D01*
X47188446Y-55493292D01*
X47223005Y-55474820D01*
X47260501Y-55463445D01*
X47305638Y-55459000D01*
X47944362Y-55459000D01*
X47989499Y-55463445D01*
G37*
G36*
X91550499Y-55463445D02*
G01*
X91587995Y-55474820D01*
X91622554Y-55493292D01*
X91652847Y-55518153D01*
X91677708Y-55548446D01*
X91696180Y-55583005D01*
X91707555Y-55620501D01*
X91712000Y-55665638D01*
X91712000Y-56404362D01*
X91707555Y-56449499D01*
X91696180Y-56486995D01*
X91677708Y-56521554D01*
X91652847Y-56551847D01*
X91622554Y-56576708D01*
X91587995Y-56595180D01*
X91550499Y-56606555D01*
X91505362Y-56611000D01*
X90866638Y-56611000D01*
X90821501Y-56606555D01*
X90784005Y-56595180D01*
X90749446Y-56576708D01*
X90719153Y-56551847D01*
X90694292Y-56521554D01*
X90675820Y-56486995D01*
X90664445Y-56449499D01*
X90660000Y-56404362D01*
X90660000Y-55665638D01*
X90664445Y-55620501D01*
X90675820Y-55583005D01*
X90694292Y-55548446D01*
X90719153Y-55518153D01*
X90749446Y-55493292D01*
X90784005Y-55474820D01*
X90821501Y-55463445D01*
X90866638Y-55459000D01*
X91505362Y-55459000D01*
X91550499Y-55463445D01*
G37*
G36*
X44433499Y-55463445D02*
G01*
X44470995Y-55474820D01*
X44505554Y-55493292D01*
X44535847Y-55518153D01*
X44560708Y-55548446D01*
X44579180Y-55583005D01*
X44590555Y-55620501D01*
X44595000Y-55665638D01*
X44595000Y-56404362D01*
X44590555Y-56449499D01*
X44579180Y-56486995D01*
X44560708Y-56521554D01*
X44535847Y-56551847D01*
X44505554Y-56576708D01*
X44470995Y-56595180D01*
X44433499Y-56606555D01*
X44388362Y-56611000D01*
X43749638Y-56611000D01*
X43704501Y-56606555D01*
X43667005Y-56595180D01*
X43632446Y-56576708D01*
X43602153Y-56551847D01*
X43577292Y-56521554D01*
X43558820Y-56486995D01*
X43547445Y-56449499D01*
X43543000Y-56404362D01*
X43543000Y-55665638D01*
X43547445Y-55620501D01*
X43558820Y-55583005D01*
X43577292Y-55548446D01*
X43602153Y-55518153D01*
X43632446Y-55493292D01*
X43667005Y-55474820D01*
X43704501Y-55463445D01*
X43749638Y-55459000D01*
X44388362Y-55459000D01*
X44433499Y-55463445D01*
G37*
G36*
X94090499Y-55463445D02*
G01*
X94127995Y-55474820D01*
X94162554Y-55493292D01*
X94192847Y-55518153D01*
X94217708Y-55548446D01*
X94236180Y-55583005D01*
X94247555Y-55620501D01*
X94252000Y-55665638D01*
X94252000Y-56404362D01*
X94247555Y-56449499D01*
X94236180Y-56486995D01*
X94217708Y-56521554D01*
X94192847Y-56551847D01*
X94162554Y-56576708D01*
X94127995Y-56595180D01*
X94090499Y-56606555D01*
X94045362Y-56611000D01*
X93406638Y-56611000D01*
X93361501Y-56606555D01*
X93324005Y-56595180D01*
X93289446Y-56576708D01*
X93259153Y-56551847D01*
X93234292Y-56521554D01*
X93215820Y-56486995D01*
X93204445Y-56449499D01*
X93200000Y-56404362D01*
X93200000Y-55665638D01*
X93204445Y-55620501D01*
X93215820Y-55583005D01*
X93234292Y-55548446D01*
X93259153Y-55518153D01*
X93289446Y-55493292D01*
X93324005Y-55474820D01*
X93361501Y-55463445D01*
X93406638Y-55459000D01*
X94045362Y-55459000D01*
X94090499Y-55463445D01*
G37*
G36*
X96630499Y-55463445D02*
G01*
X96667995Y-55474820D01*
X96702554Y-55493292D01*
X96732847Y-55518153D01*
X96757708Y-55548446D01*
X96776180Y-55583005D01*
X96787555Y-55620501D01*
X96792000Y-55665638D01*
X96792000Y-56404362D01*
X96787555Y-56449499D01*
X96776180Y-56486995D01*
X96757708Y-56521554D01*
X96732847Y-56551847D01*
X96702554Y-56576708D01*
X96667995Y-56595180D01*
X96630499Y-56606555D01*
X96585362Y-56611000D01*
X95946638Y-56611000D01*
X95901501Y-56606555D01*
X95864005Y-56595180D01*
X95829446Y-56576708D01*
X95799153Y-56551847D01*
X95774292Y-56521554D01*
X95755820Y-56486995D01*
X95744445Y-56449499D01*
X95740000Y-56404362D01*
X95740000Y-55665638D01*
X95744445Y-55620501D01*
X95755820Y-55583005D01*
X95774292Y-55548446D01*
X95799153Y-55518153D01*
X95829446Y-55493292D01*
X95864005Y-55474820D01*
X95901501Y-55463445D01*
X95946638Y-55459000D01*
X96585362Y-55459000D01*
X96630499Y-55463445D01*
G37*
G36*
X46211499Y-55449445D02*
G01*
X46248995Y-55460820D01*
X46283554Y-55479292D01*
X46313847Y-55504153D01*
X46338708Y-55534446D01*
X46357180Y-55569005D01*
X46368555Y-55606501D01*
X46373000Y-55651638D01*
X46373000Y-56390362D01*
X46368555Y-56435499D01*
X46357180Y-56472995D01*
X46338708Y-56507554D01*
X46313847Y-56537847D01*
X46283554Y-56562708D01*
X46248995Y-56581180D01*
X46211499Y-56592555D01*
X46166362Y-56597000D01*
X45527638Y-56597000D01*
X45482501Y-56592555D01*
X45445005Y-56581180D01*
X45410446Y-56562708D01*
X45380153Y-56537847D01*
X45355292Y-56507554D01*
X45336820Y-56472995D01*
X45325445Y-56435499D01*
X45321000Y-56390362D01*
X45321000Y-55651638D01*
X45325445Y-55606501D01*
X45336820Y-55569005D01*
X45355292Y-55534446D01*
X45380153Y-55504153D01*
X45410446Y-55479292D01*
X45445005Y-55460820D01*
X45482501Y-55449445D01*
X45527638Y-55445000D01*
X46166362Y-55445000D01*
X46211499Y-55449445D01*
G37*
G36*
X53450499Y-55449445D02*
G01*
X53487995Y-55460820D01*
X53522554Y-55479292D01*
X53552847Y-55504153D01*
X53577708Y-55534446D01*
X53596180Y-55569005D01*
X53607555Y-55606501D01*
X53612000Y-55651638D01*
X53612000Y-56390362D01*
X53607555Y-56435499D01*
X53596180Y-56472995D01*
X53577708Y-56507554D01*
X53552847Y-56537847D01*
X53522554Y-56562708D01*
X53487995Y-56581180D01*
X53450499Y-56592555D01*
X53405362Y-56597000D01*
X52766638Y-56597000D01*
X52721501Y-56592555D01*
X52684005Y-56581180D01*
X52649446Y-56562708D01*
X52619153Y-56537847D01*
X52594292Y-56507554D01*
X52575820Y-56472995D01*
X52564445Y-56435499D01*
X52560000Y-56390362D01*
X52560000Y-55651638D01*
X52564445Y-55606501D01*
X52575820Y-55569005D01*
X52594292Y-55534446D01*
X52619153Y-55504153D01*
X52649446Y-55479292D01*
X52684005Y-55460820D01*
X52721501Y-55449445D01*
X52766638Y-55445000D01*
X53405362Y-55445000D01*
X53450499Y-55449445D01*
G37*
G36*
X71230499Y-55435445D02*
G01*
X71267995Y-55446820D01*
X71302554Y-55465292D01*
X71332847Y-55490153D01*
X71357708Y-55520446D01*
X71376180Y-55555005D01*
X71387555Y-55592501D01*
X71392000Y-55637638D01*
X71392000Y-56376362D01*
X71387555Y-56421499D01*
X71376180Y-56458995D01*
X71357708Y-56493554D01*
X71332847Y-56523847D01*
X71302554Y-56548708D01*
X71267995Y-56567180D01*
X71230499Y-56578555D01*
X71185362Y-56583000D01*
X70546638Y-56583000D01*
X70501501Y-56578555D01*
X70464005Y-56567180D01*
X70429446Y-56548708D01*
X70399153Y-56523847D01*
X70374292Y-56493554D01*
X70355820Y-56458995D01*
X70344445Y-56421499D01*
X70340000Y-56376362D01*
X70340000Y-55637638D01*
X70344445Y-55592501D01*
X70355820Y-55555005D01*
X70374292Y-55520446D01*
X70399153Y-55490153D01*
X70429446Y-55465292D01*
X70464005Y-55446820D01*
X70501501Y-55435445D01*
X70546638Y-55431000D01*
X71185362Y-55431000D01*
X71230499Y-55435445D01*
G37*
G36*
X68690499Y-55435445D02*
G01*
X68727995Y-55446820D01*
X68762554Y-55465292D01*
X68792847Y-55490153D01*
X68817708Y-55520446D01*
X68836180Y-55555005D01*
X68847555Y-55592501D01*
X68852000Y-55637638D01*
X68852000Y-56376362D01*
X68847555Y-56421499D01*
X68836180Y-56458995D01*
X68817708Y-56493554D01*
X68792847Y-56523847D01*
X68762554Y-56548708D01*
X68727995Y-56567180D01*
X68690499Y-56578555D01*
X68645362Y-56583000D01*
X68006638Y-56583000D01*
X67961501Y-56578555D01*
X67924005Y-56567180D01*
X67889446Y-56548708D01*
X67859153Y-56523847D01*
X67834292Y-56493554D01*
X67815820Y-56458995D01*
X67804445Y-56421499D01*
X67800000Y-56376362D01*
X67800000Y-55637638D01*
X67804445Y-55592501D01*
X67815820Y-55555005D01*
X67834292Y-55520446D01*
X67859153Y-55490153D01*
X67889446Y-55465292D01*
X67924005Y-55446820D01*
X67961501Y-55435445D01*
X68006638Y-55431000D01*
X68645362Y-55431000D01*
X68690499Y-55435445D01*
G37*
G36*
X66150499Y-55435445D02*
G01*
X66187995Y-55446820D01*
X66222554Y-55465292D01*
X66252847Y-55490153D01*
X66277708Y-55520446D01*
X66296180Y-55555005D01*
X66307555Y-55592501D01*
X66312000Y-55637638D01*
X66312000Y-56376362D01*
X66307555Y-56421499D01*
X66296180Y-56458995D01*
X66277708Y-56493554D01*
X66252847Y-56523847D01*
X66222554Y-56548708D01*
X66187995Y-56567180D01*
X66150499Y-56578555D01*
X66105362Y-56583000D01*
X65466638Y-56583000D01*
X65421501Y-56578555D01*
X65384005Y-56567180D01*
X65349446Y-56548708D01*
X65319153Y-56523847D01*
X65294292Y-56493554D01*
X65275820Y-56458995D01*
X65264445Y-56421499D01*
X65260000Y-56376362D01*
X65260000Y-55637638D01*
X65264445Y-55592501D01*
X65275820Y-55555005D01*
X65294292Y-55520446D01*
X65319153Y-55490153D01*
X65349446Y-55465292D01*
X65384005Y-55446820D01*
X65421501Y-55435445D01*
X65466638Y-55431000D01*
X66105362Y-55431000D01*
X66150499Y-55435445D01*
G37*
G36*
X57281000Y-56397000D02*
G01*
X56379000Y-56397000D01*
X56379000Y-55395000D01*
X57281000Y-55395000D01*
X57281000Y-56397000D01*
G37*
G36*
X55381000Y-56397000D02*
G01*
X54479000Y-56397000D01*
X54479000Y-55395000D01*
X55381000Y-55395000D01*
X55381000Y-56397000D01*
G37*
G36*
X47441000Y-54730000D02*
G01*
X46539000Y-54730000D01*
X46539000Y-53728000D01*
X47441000Y-53728000D01*
X47441000Y-54730000D01*
G37*
G36*
X87827000Y-54730000D02*
G01*
X86925000Y-54730000D01*
X86925000Y-53728000D01*
X87827000Y-53728000D01*
X87827000Y-54730000D01*
G37*
G36*
X62493000Y-54730000D02*
G01*
X61591000Y-54730000D01*
X61591000Y-53728000D01*
X62493000Y-53728000D01*
X62493000Y-54730000D01*
G37*
G36*
X58490000Y-54730000D02*
G01*
X57588000Y-54730000D01*
X57588000Y-53728000D01*
X58490000Y-53728000D01*
X58490000Y-54730000D01*
G37*
G36*
X75127000Y-54714000D02*
G01*
X74225000Y-54714000D01*
X74225000Y-53712000D01*
X75127000Y-53712000D01*
X75127000Y-54714000D01*
G37*
G36*
X92312499Y-53530445D02*
G01*
X92349995Y-53541820D01*
X92384554Y-53560292D01*
X92414847Y-53585153D01*
X92439708Y-53615446D01*
X92458180Y-53650005D01*
X92469555Y-53687501D01*
X92474000Y-53732638D01*
X92474000Y-54471362D01*
X92469555Y-54516499D01*
X92458180Y-54553995D01*
X92439708Y-54588554D01*
X92414847Y-54618847D01*
X92384554Y-54643708D01*
X92349995Y-54662180D01*
X92312499Y-54673555D01*
X92267362Y-54678000D01*
X91628638Y-54678000D01*
X91583501Y-54673555D01*
X91546005Y-54662180D01*
X91511446Y-54643708D01*
X91481153Y-54618847D01*
X91456292Y-54588554D01*
X91437820Y-54553995D01*
X91426445Y-54516499D01*
X91422000Y-54471362D01*
X91422000Y-53732638D01*
X91426445Y-53687501D01*
X91437820Y-53650005D01*
X91456292Y-53615446D01*
X91481153Y-53585153D01*
X91511446Y-53560292D01*
X91546005Y-53541820D01*
X91583501Y-53530445D01*
X91628638Y-53526000D01*
X92267362Y-53526000D01*
X92312499Y-53530445D01*
G37*
G36*
X90534499Y-53530445D02*
G01*
X90571995Y-53541820D01*
X90606554Y-53560292D01*
X90636847Y-53585153D01*
X90661708Y-53615446D01*
X90680180Y-53650005D01*
X90691555Y-53687501D01*
X90696000Y-53732638D01*
X90696000Y-54471362D01*
X90691555Y-54516499D01*
X90680180Y-54553995D01*
X90661708Y-54588554D01*
X90636847Y-54618847D01*
X90606554Y-54643708D01*
X90571995Y-54662180D01*
X90534499Y-54673555D01*
X90489362Y-54678000D01*
X89850638Y-54678000D01*
X89805501Y-54673555D01*
X89768005Y-54662180D01*
X89733446Y-54643708D01*
X89703153Y-54618847D01*
X89678292Y-54588554D01*
X89659820Y-54553995D01*
X89648445Y-54516499D01*
X89644000Y-54471362D01*
X89644000Y-53732638D01*
X89648445Y-53687501D01*
X89659820Y-53650005D01*
X89678292Y-53615446D01*
X89703153Y-53585153D01*
X89733446Y-53560292D01*
X89768005Y-53541820D01*
X89805501Y-53530445D01*
X89850638Y-53526000D01*
X90489362Y-53526000D01*
X90534499Y-53530445D01*
G37*
G36*
X83930499Y-53530445D02*
G01*
X83967995Y-53541820D01*
X84002554Y-53560292D01*
X84032847Y-53585153D01*
X84057708Y-53615446D01*
X84076180Y-53650005D01*
X84087555Y-53687501D01*
X84092000Y-53732638D01*
X84092000Y-54471362D01*
X84087555Y-54516499D01*
X84076180Y-54553995D01*
X84057708Y-54588554D01*
X84032847Y-54618847D01*
X84002554Y-54643708D01*
X83967995Y-54662180D01*
X83930499Y-54673555D01*
X83885362Y-54678000D01*
X83246638Y-54678000D01*
X83201501Y-54673555D01*
X83164005Y-54662180D01*
X83129446Y-54643708D01*
X83099153Y-54618847D01*
X83074292Y-54588554D01*
X83055820Y-54553995D01*
X83044445Y-54516499D01*
X83040000Y-54471362D01*
X83040000Y-53732638D01*
X83044445Y-53687501D01*
X83055820Y-53650005D01*
X83074292Y-53615446D01*
X83099153Y-53585153D01*
X83129446Y-53560292D01*
X83164005Y-53541820D01*
X83201501Y-53530445D01*
X83246638Y-53526000D01*
X83885362Y-53526000D01*
X83930499Y-53530445D01*
G37*
G36*
X94090499Y-53530445D02*
G01*
X94127995Y-53541820D01*
X94162554Y-53560292D01*
X94192847Y-53585153D01*
X94217708Y-53615446D01*
X94236180Y-53650005D01*
X94247555Y-53687501D01*
X94252000Y-53732638D01*
X94252000Y-54471362D01*
X94247555Y-54516499D01*
X94236180Y-54553995D01*
X94217708Y-54588554D01*
X94192847Y-54618847D01*
X94162554Y-54643708D01*
X94127995Y-54662180D01*
X94090499Y-54673555D01*
X94045362Y-54678000D01*
X93406638Y-54678000D01*
X93361501Y-54673555D01*
X93324005Y-54662180D01*
X93289446Y-54643708D01*
X93259153Y-54618847D01*
X93234292Y-54588554D01*
X93215820Y-54553995D01*
X93204445Y-54516499D01*
X93200000Y-54471362D01*
X93200000Y-53732638D01*
X93204445Y-53687501D01*
X93215820Y-53650005D01*
X93234292Y-53615446D01*
X93259153Y-53585153D01*
X93289446Y-53560292D01*
X93324005Y-53541820D01*
X93361501Y-53530445D01*
X93406638Y-53526000D01*
X94045362Y-53526000D01*
X94090499Y-53530445D01*
G37*
G36*
X81390499Y-53530445D02*
G01*
X81427995Y-53541820D01*
X81462554Y-53560292D01*
X81492847Y-53585153D01*
X81517708Y-53615446D01*
X81536180Y-53650005D01*
X81547555Y-53687501D01*
X81552000Y-53732638D01*
X81552000Y-54471362D01*
X81547555Y-54516499D01*
X81536180Y-54553995D01*
X81517708Y-54588554D01*
X81492847Y-54618847D01*
X81462554Y-54643708D01*
X81427995Y-54662180D01*
X81390499Y-54673555D01*
X81345362Y-54678000D01*
X80706638Y-54678000D01*
X80661501Y-54673555D01*
X80624005Y-54662180D01*
X80589446Y-54643708D01*
X80559153Y-54618847D01*
X80534292Y-54588554D01*
X80515820Y-54553995D01*
X80504445Y-54516499D01*
X80500000Y-54471362D01*
X80500000Y-53732638D01*
X80504445Y-53687501D01*
X80515820Y-53650005D01*
X80534292Y-53615446D01*
X80559153Y-53585153D01*
X80589446Y-53560292D01*
X80624005Y-53541820D01*
X80661501Y-53530445D01*
X80706638Y-53526000D01*
X81345362Y-53526000D01*
X81390499Y-53530445D01*
G37*
G36*
X71230499Y-53530445D02*
G01*
X71267995Y-53541820D01*
X71302554Y-53560292D01*
X71332847Y-53585153D01*
X71357708Y-53615446D01*
X71376180Y-53650005D01*
X71387555Y-53687501D01*
X71392000Y-53732638D01*
X71392000Y-54471362D01*
X71387555Y-54516499D01*
X71376180Y-54553995D01*
X71357708Y-54588554D01*
X71332847Y-54618847D01*
X71302554Y-54643708D01*
X71267995Y-54662180D01*
X71230499Y-54673555D01*
X71185362Y-54678000D01*
X70546638Y-54678000D01*
X70501501Y-54673555D01*
X70464005Y-54662180D01*
X70429446Y-54643708D01*
X70399153Y-54618847D01*
X70374292Y-54588554D01*
X70355820Y-54553995D01*
X70344445Y-54516499D01*
X70340000Y-54471362D01*
X70340000Y-53732638D01*
X70344445Y-53687501D01*
X70355820Y-53650005D01*
X70374292Y-53615446D01*
X70399153Y-53585153D01*
X70429446Y-53560292D01*
X70464005Y-53541820D01*
X70501501Y-53530445D01*
X70546638Y-53526000D01*
X71185362Y-53526000D01*
X71230499Y-53530445D01*
G37*
G36*
X68690499Y-53530445D02*
G01*
X68727995Y-53541820D01*
X68762554Y-53560292D01*
X68792847Y-53585153D01*
X68817708Y-53615446D01*
X68836180Y-53650005D01*
X68847555Y-53687501D01*
X68852000Y-53732638D01*
X68852000Y-54471362D01*
X68847555Y-54516499D01*
X68836180Y-54553995D01*
X68817708Y-54588554D01*
X68792847Y-54618847D01*
X68762554Y-54643708D01*
X68727995Y-54662180D01*
X68690499Y-54673555D01*
X68645362Y-54678000D01*
X68006638Y-54678000D01*
X67961501Y-54673555D01*
X67924005Y-54662180D01*
X67889446Y-54643708D01*
X67859153Y-54618847D01*
X67834292Y-54588554D01*
X67815820Y-54553995D01*
X67804445Y-54516499D01*
X67800000Y-54471362D01*
X67800000Y-53732638D01*
X67804445Y-53687501D01*
X67815820Y-53650005D01*
X67834292Y-53615446D01*
X67859153Y-53585153D01*
X67889446Y-53560292D01*
X67924005Y-53541820D01*
X67961501Y-53530445D01*
X68006638Y-53526000D01*
X68645362Y-53526000D01*
X68690499Y-53530445D01*
G37*
G36*
X66912499Y-53530445D02*
G01*
X66949995Y-53541820D01*
X66984554Y-53560292D01*
X67014847Y-53585153D01*
X67039708Y-53615446D01*
X67058180Y-53650005D01*
X67069555Y-53687501D01*
X67074000Y-53732638D01*
X67074000Y-54471362D01*
X67069555Y-54516499D01*
X67058180Y-54553995D01*
X67039708Y-54588554D01*
X67014847Y-54618847D01*
X66984554Y-54643708D01*
X66949995Y-54662180D01*
X66912499Y-54673555D01*
X66867362Y-54678000D01*
X66228638Y-54678000D01*
X66183501Y-54673555D01*
X66146005Y-54662180D01*
X66111446Y-54643708D01*
X66081153Y-54618847D01*
X66056292Y-54588554D01*
X66037820Y-54553995D01*
X66026445Y-54516499D01*
X66022000Y-54471362D01*
X66022000Y-53732638D01*
X66026445Y-53687501D01*
X66037820Y-53650005D01*
X66056292Y-53615446D01*
X66081153Y-53585153D01*
X66111446Y-53560292D01*
X66146005Y-53541820D01*
X66183501Y-53530445D01*
X66228638Y-53526000D01*
X66867362Y-53526000D01*
X66912499Y-53530445D01*
G37*
G36*
X51926499Y-53530445D02*
G01*
X51963995Y-53541820D01*
X51998554Y-53560292D01*
X52028847Y-53585153D01*
X52053708Y-53615446D01*
X52072180Y-53650005D01*
X52083555Y-53687501D01*
X52088000Y-53732638D01*
X52088000Y-54471362D01*
X52083555Y-54516499D01*
X52072180Y-54553995D01*
X52053708Y-54588554D01*
X52028847Y-54618847D01*
X51998554Y-54643708D01*
X51963995Y-54662180D01*
X51926499Y-54673555D01*
X51881362Y-54678000D01*
X51242638Y-54678000D01*
X51197501Y-54673555D01*
X51160005Y-54662180D01*
X51125446Y-54643708D01*
X51095153Y-54618847D01*
X51070292Y-54588554D01*
X51051820Y-54553995D01*
X51040445Y-54516499D01*
X51036000Y-54471362D01*
X51036000Y-53732638D01*
X51040445Y-53687501D01*
X51051820Y-53650005D01*
X51070292Y-53615446D01*
X51095153Y-53585153D01*
X51125446Y-53560292D01*
X51160005Y-53541820D01*
X51197501Y-53530445D01*
X51242638Y-53526000D01*
X51881362Y-53526000D01*
X51926499Y-53530445D01*
G37*
G36*
X50021499Y-53530445D02*
G01*
X50058995Y-53541820D01*
X50093554Y-53560292D01*
X50123847Y-53585153D01*
X50148708Y-53615446D01*
X50167180Y-53650005D01*
X50178555Y-53687501D01*
X50183000Y-53732638D01*
X50183000Y-54471362D01*
X50178555Y-54516499D01*
X50167180Y-54553995D01*
X50148708Y-54588554D01*
X50123847Y-54618847D01*
X50093554Y-54643708D01*
X50058995Y-54662180D01*
X50021499Y-54673555D01*
X49976362Y-54678000D01*
X49337638Y-54678000D01*
X49292501Y-54673555D01*
X49255005Y-54662180D01*
X49220446Y-54643708D01*
X49190153Y-54618847D01*
X49165292Y-54588554D01*
X49146820Y-54553995D01*
X49135445Y-54516499D01*
X49131000Y-54471362D01*
X49131000Y-53732638D01*
X49135445Y-53687501D01*
X49146820Y-53650005D01*
X49165292Y-53615446D01*
X49190153Y-53585153D01*
X49220446Y-53560292D01*
X49255005Y-53541820D01*
X49292501Y-53530445D01*
X49337638Y-53526000D01*
X49976362Y-53526000D01*
X50021499Y-53530445D01*
G37*
G36*
X79612499Y-53530445D02*
G01*
X79649995Y-53541820D01*
X79684554Y-53560292D01*
X79714847Y-53585153D01*
X79739708Y-53615446D01*
X79758180Y-53650005D01*
X79769555Y-53687501D01*
X79774000Y-53732638D01*
X79774000Y-54471362D01*
X79769555Y-54516499D01*
X79758180Y-54553995D01*
X79739708Y-54588554D01*
X79714847Y-54618847D01*
X79684554Y-54643708D01*
X79649995Y-54662180D01*
X79612499Y-54673555D01*
X79567362Y-54678000D01*
X78928638Y-54678000D01*
X78883501Y-54673555D01*
X78846005Y-54662180D01*
X78811446Y-54643708D01*
X78781153Y-54618847D01*
X78756292Y-54588554D01*
X78737820Y-54553995D01*
X78726445Y-54516499D01*
X78722000Y-54471362D01*
X78722000Y-53732638D01*
X78726445Y-53687501D01*
X78737820Y-53650005D01*
X78756292Y-53615446D01*
X78781153Y-53585153D01*
X78811446Y-53560292D01*
X78846005Y-53541820D01*
X78883501Y-53530445D01*
X78928638Y-53526000D01*
X79567362Y-53526000D01*
X79612499Y-53530445D01*
G37*
G36*
X65134499Y-53516445D02*
G01*
X65171995Y-53527820D01*
X65206554Y-53546292D01*
X65236847Y-53571153D01*
X65261708Y-53601446D01*
X65280180Y-53636005D01*
X65291555Y-53673501D01*
X65296000Y-53718638D01*
X65296000Y-54457362D01*
X65291555Y-54502499D01*
X65280180Y-54539995D01*
X65261708Y-54574554D01*
X65236847Y-54604847D01*
X65206554Y-54629708D01*
X65171995Y-54648180D01*
X65134499Y-54659555D01*
X65089362Y-54664000D01*
X64450638Y-54664000D01*
X64405501Y-54659555D01*
X64368005Y-54648180D01*
X64333446Y-54629708D01*
X64303153Y-54604847D01*
X64278292Y-54574554D01*
X64259820Y-54539995D01*
X64248445Y-54502499D01*
X64244000Y-54457362D01*
X64244000Y-53718638D01*
X64248445Y-53673501D01*
X64259820Y-53636005D01*
X64278292Y-53601446D01*
X64303153Y-53571153D01*
X64333446Y-53546292D01*
X64368005Y-53527820D01*
X64405501Y-53516445D01*
X64450638Y-53512000D01*
X65089362Y-53512000D01*
X65134499Y-53516445D01*
G37*
G36*
X44687499Y-53516445D02*
G01*
X44724995Y-53527820D01*
X44759554Y-53546292D01*
X44789847Y-53571153D01*
X44814708Y-53601446D01*
X44833180Y-53636005D01*
X44844555Y-53673501D01*
X44849000Y-53718638D01*
X44849000Y-54457362D01*
X44844555Y-54502499D01*
X44833180Y-54539995D01*
X44814708Y-54574554D01*
X44789847Y-54604847D01*
X44759554Y-54629708D01*
X44724995Y-54648180D01*
X44687499Y-54659555D01*
X44642362Y-54664000D01*
X44003638Y-54664000D01*
X43958501Y-54659555D01*
X43921005Y-54648180D01*
X43886446Y-54629708D01*
X43856153Y-54604847D01*
X43831292Y-54574554D01*
X43812820Y-54539995D01*
X43801445Y-54502499D01*
X43797000Y-54457362D01*
X43797000Y-53718638D01*
X43801445Y-53673501D01*
X43812820Y-53636005D01*
X43831292Y-53601446D01*
X43856153Y-53571153D01*
X43886446Y-53546292D01*
X43921005Y-53527820D01*
X43958501Y-53516445D01*
X44003638Y-53512000D01*
X44642362Y-53512000D01*
X44687499Y-53516445D01*
G37*
G36*
X96630499Y-53502445D02*
G01*
X96667995Y-53513820D01*
X96702554Y-53532292D01*
X96732847Y-53557153D01*
X96757708Y-53587446D01*
X96776180Y-53622005D01*
X96787555Y-53659501D01*
X96792000Y-53704638D01*
X96792000Y-54443362D01*
X96787555Y-54488499D01*
X96776180Y-54525995D01*
X96757708Y-54560554D01*
X96732847Y-54590847D01*
X96702554Y-54615708D01*
X96667995Y-54634180D01*
X96630499Y-54645555D01*
X96585362Y-54650000D01*
X95946638Y-54650000D01*
X95901501Y-54645555D01*
X95864005Y-54634180D01*
X95829446Y-54615708D01*
X95799153Y-54590847D01*
X95774292Y-54560554D01*
X95755820Y-54525995D01*
X95744445Y-54488499D01*
X95740000Y-54443362D01*
X95740000Y-53704638D01*
X95744445Y-53659501D01*
X95755820Y-53622005D01*
X95774292Y-53587446D01*
X95799153Y-53557153D01*
X95829446Y-53532292D01*
X95864005Y-53513820D01*
X95901501Y-53502445D01*
X95946638Y-53498000D01*
X96585362Y-53498000D01*
X96630499Y-53502445D01*
G37*
G36*
X77834499Y-53502445D02*
G01*
X77871995Y-53513820D01*
X77906554Y-53532292D01*
X77936847Y-53557153D01*
X77961708Y-53587446D01*
X77980180Y-53622005D01*
X77991555Y-53659501D01*
X77996000Y-53704638D01*
X77996000Y-54443362D01*
X77991555Y-54488499D01*
X77980180Y-54525995D01*
X77961708Y-54560554D01*
X77936847Y-54590847D01*
X77906554Y-54615708D01*
X77871995Y-54634180D01*
X77834499Y-54645555D01*
X77789362Y-54650000D01*
X77150638Y-54650000D01*
X77105501Y-54645555D01*
X77068005Y-54634180D01*
X77033446Y-54615708D01*
X77003153Y-54590847D01*
X76978292Y-54560554D01*
X76959820Y-54525995D01*
X76948445Y-54488499D01*
X76944000Y-54443362D01*
X76944000Y-53704638D01*
X76948445Y-53659501D01*
X76959820Y-53622005D01*
X76978292Y-53587446D01*
X77003153Y-53557153D01*
X77033446Y-53532292D01*
X77068005Y-53513820D01*
X77105501Y-53502445D01*
X77150638Y-53498000D01*
X77789362Y-53498000D01*
X77834499Y-53502445D01*
G37*
G36*
X55482499Y-53502445D02*
G01*
X55519995Y-53513820D01*
X55554554Y-53532292D01*
X55584847Y-53557153D01*
X55609708Y-53587446D01*
X55628180Y-53622005D01*
X55639555Y-53659501D01*
X55644000Y-53704638D01*
X55644000Y-54443362D01*
X55639555Y-54488499D01*
X55628180Y-54525995D01*
X55609708Y-54560554D01*
X55584847Y-54590847D01*
X55554554Y-54615708D01*
X55519995Y-54634180D01*
X55482499Y-54645555D01*
X55437362Y-54650000D01*
X54798638Y-54650000D01*
X54753501Y-54645555D01*
X54716005Y-54634180D01*
X54681446Y-54615708D01*
X54651153Y-54590847D01*
X54626292Y-54560554D01*
X54607820Y-54525995D01*
X54596445Y-54488499D01*
X54592000Y-54443362D01*
X54592000Y-53704638D01*
X54596445Y-53659501D01*
X54607820Y-53622005D01*
X54626292Y-53587446D01*
X54651153Y-53557153D01*
X54681446Y-53532292D01*
X54716005Y-53513820D01*
X54753501Y-53502445D01*
X54798638Y-53498000D01*
X55437362Y-53498000D01*
X55482499Y-53502445D01*
G37*
G36*
X53704499Y-53502445D02*
G01*
X53741995Y-53513820D01*
X53776554Y-53532292D01*
X53806847Y-53557153D01*
X53831708Y-53587446D01*
X53850180Y-53622005D01*
X53861555Y-53659501D01*
X53866000Y-53704638D01*
X53866000Y-54443362D01*
X53861555Y-54488499D01*
X53850180Y-54525995D01*
X53831708Y-54560554D01*
X53806847Y-54590847D01*
X53776554Y-54615708D01*
X53741995Y-54634180D01*
X53704499Y-54645555D01*
X53659362Y-54650000D01*
X53020638Y-54650000D01*
X52975501Y-54645555D01*
X52938005Y-54634180D01*
X52903446Y-54615708D01*
X52873153Y-54590847D01*
X52848292Y-54560554D01*
X52829820Y-54525995D01*
X52818445Y-54488499D01*
X52814000Y-54443362D01*
X52814000Y-53704638D01*
X52818445Y-53659501D01*
X52829820Y-53622005D01*
X52848292Y-53587446D01*
X52873153Y-53557153D01*
X52903446Y-53532292D01*
X52938005Y-53513820D01*
X52975501Y-53502445D01*
X53020638Y-53498000D01*
X53659362Y-53498000D01*
X53704499Y-53502445D01*
G37*
G36*
X71230499Y-51780445D02*
G01*
X71267995Y-51791820D01*
X71302554Y-51810292D01*
X71332847Y-51835153D01*
X71357708Y-51865446D01*
X71376180Y-51900005D01*
X71387555Y-51937501D01*
X71392000Y-51982638D01*
X71392000Y-52721362D01*
X71387555Y-52766499D01*
X71376180Y-52803995D01*
X71357708Y-52838554D01*
X71332847Y-52868847D01*
X71302554Y-52893708D01*
X71267995Y-52912180D01*
X71230499Y-52923555D01*
X71185362Y-52928000D01*
X70546638Y-52928000D01*
X70501501Y-52923555D01*
X70464005Y-52912180D01*
X70429446Y-52893708D01*
X70399153Y-52868847D01*
X70374292Y-52838554D01*
X70355820Y-52803995D01*
X70344445Y-52766499D01*
X70340000Y-52721362D01*
X70340000Y-51982638D01*
X70344445Y-51937501D01*
X70355820Y-51900005D01*
X70374292Y-51865446D01*
X70399153Y-51835153D01*
X70429446Y-51810292D01*
X70464005Y-51791820D01*
X70501501Y-51780445D01*
X70546638Y-51776000D01*
X71185362Y-51776000D01*
X71230499Y-51780445D01*
G37*
G36*
X79612499Y-51780445D02*
G01*
X79649995Y-51791820D01*
X79684554Y-51810292D01*
X79714847Y-51835153D01*
X79739708Y-51865446D01*
X79758180Y-51900005D01*
X79769555Y-51937501D01*
X79774000Y-51982638D01*
X79774000Y-52721362D01*
X79769555Y-52766499D01*
X79758180Y-52803995D01*
X79739708Y-52838554D01*
X79714847Y-52868847D01*
X79684554Y-52893708D01*
X79649995Y-52912180D01*
X79612499Y-52923555D01*
X79567362Y-52928000D01*
X78928638Y-52928000D01*
X78883501Y-52923555D01*
X78846005Y-52912180D01*
X78811446Y-52893708D01*
X78781153Y-52868847D01*
X78756292Y-52838554D01*
X78737820Y-52803995D01*
X78726445Y-52766499D01*
X78722000Y-52721362D01*
X78722000Y-51982638D01*
X78726445Y-51937501D01*
X78737820Y-51900005D01*
X78756292Y-51865446D01*
X78781153Y-51835153D01*
X78811446Y-51810292D01*
X78846005Y-51791820D01*
X78883501Y-51780445D01*
X78928638Y-51776000D01*
X79567362Y-51776000D01*
X79612499Y-51780445D01*
G37*
G36*
X81390499Y-51780445D02*
G01*
X81427995Y-51791820D01*
X81462554Y-51810292D01*
X81492847Y-51835153D01*
X81517708Y-51865446D01*
X81536180Y-51900005D01*
X81547555Y-51937501D01*
X81552000Y-51982638D01*
X81552000Y-52721362D01*
X81547555Y-52766499D01*
X81536180Y-52803995D01*
X81517708Y-52838554D01*
X81492847Y-52868847D01*
X81462554Y-52893708D01*
X81427995Y-52912180D01*
X81390499Y-52923555D01*
X81345362Y-52928000D01*
X80706638Y-52928000D01*
X80661501Y-52923555D01*
X80624005Y-52912180D01*
X80589446Y-52893708D01*
X80559153Y-52868847D01*
X80534292Y-52838554D01*
X80515820Y-52803995D01*
X80504445Y-52766499D01*
X80500000Y-52721362D01*
X80500000Y-51982638D01*
X80504445Y-51937501D01*
X80515820Y-51900005D01*
X80534292Y-51865446D01*
X80559153Y-51835153D01*
X80589446Y-51810292D01*
X80624005Y-51791820D01*
X80661501Y-51780445D01*
X80706638Y-51776000D01*
X81345362Y-51776000D01*
X81390499Y-51780445D01*
G37*
G36*
X83930499Y-51780445D02*
G01*
X83967995Y-51791820D01*
X84002554Y-51810292D01*
X84032847Y-51835153D01*
X84057708Y-51865446D01*
X84076180Y-51900005D01*
X84087555Y-51937501D01*
X84092000Y-51982638D01*
X84092000Y-52721362D01*
X84087555Y-52766499D01*
X84076180Y-52803995D01*
X84057708Y-52838554D01*
X84032847Y-52868847D01*
X84002554Y-52893708D01*
X83967995Y-52912180D01*
X83930499Y-52923555D01*
X83885362Y-52928000D01*
X83246638Y-52928000D01*
X83201501Y-52923555D01*
X83164005Y-52912180D01*
X83129446Y-52893708D01*
X83099153Y-52868847D01*
X83074292Y-52838554D01*
X83055820Y-52803995D01*
X83044445Y-52766499D01*
X83040000Y-52721362D01*
X83040000Y-51982638D01*
X83044445Y-51937501D01*
X83055820Y-51900005D01*
X83074292Y-51865446D01*
X83099153Y-51835153D01*
X83129446Y-51810292D01*
X83164005Y-51791820D01*
X83201501Y-51780445D01*
X83246638Y-51776000D01*
X83885362Y-51776000D01*
X83930499Y-51780445D01*
G37*
G36*
X90534499Y-51780445D02*
G01*
X90571995Y-51791820D01*
X90606554Y-51810292D01*
X90636847Y-51835153D01*
X90661708Y-51865446D01*
X90680180Y-51900005D01*
X90691555Y-51937501D01*
X90696000Y-51982638D01*
X90696000Y-52721362D01*
X90691555Y-52766499D01*
X90680180Y-52803995D01*
X90661708Y-52838554D01*
X90636847Y-52868847D01*
X90606554Y-52893708D01*
X90571995Y-52912180D01*
X90534499Y-52923555D01*
X90489362Y-52928000D01*
X89850638Y-52928000D01*
X89805501Y-52923555D01*
X89768005Y-52912180D01*
X89733446Y-52893708D01*
X89703153Y-52868847D01*
X89678292Y-52838554D01*
X89659820Y-52803995D01*
X89648445Y-52766499D01*
X89644000Y-52721362D01*
X89644000Y-51982638D01*
X89648445Y-51937501D01*
X89659820Y-51900005D01*
X89678292Y-51865446D01*
X89703153Y-51835153D01*
X89733446Y-51810292D01*
X89768005Y-51791820D01*
X89805501Y-51780445D01*
X89850638Y-51776000D01*
X90489362Y-51776000D01*
X90534499Y-51780445D01*
G37*
G36*
X92312499Y-51780445D02*
G01*
X92349995Y-51791820D01*
X92384554Y-51810292D01*
X92414847Y-51835153D01*
X92439708Y-51865446D01*
X92458180Y-51900005D01*
X92469555Y-51937501D01*
X92474000Y-51982638D01*
X92474000Y-52721362D01*
X92469555Y-52766499D01*
X92458180Y-52803995D01*
X92439708Y-52838554D01*
X92414847Y-52868847D01*
X92384554Y-52893708D01*
X92349995Y-52912180D01*
X92312499Y-52923555D01*
X92267362Y-52928000D01*
X91628638Y-52928000D01*
X91583501Y-52923555D01*
X91546005Y-52912180D01*
X91511446Y-52893708D01*
X91481153Y-52868847D01*
X91456292Y-52838554D01*
X91437820Y-52803995D01*
X91426445Y-52766499D01*
X91422000Y-52721362D01*
X91422000Y-51982638D01*
X91426445Y-51937501D01*
X91437820Y-51900005D01*
X91456292Y-51865446D01*
X91481153Y-51835153D01*
X91511446Y-51810292D01*
X91546005Y-51791820D01*
X91583501Y-51780445D01*
X91628638Y-51776000D01*
X92267362Y-51776000D01*
X92312499Y-51780445D01*
G37*
G36*
X68690499Y-51780445D02*
G01*
X68727995Y-51791820D01*
X68762554Y-51810292D01*
X68792847Y-51835153D01*
X68817708Y-51865446D01*
X68836180Y-51900005D01*
X68847555Y-51937501D01*
X68852000Y-51982638D01*
X68852000Y-52721362D01*
X68847555Y-52766499D01*
X68836180Y-52803995D01*
X68817708Y-52838554D01*
X68792847Y-52868847D01*
X68762554Y-52893708D01*
X68727995Y-52912180D01*
X68690499Y-52923555D01*
X68645362Y-52928000D01*
X68006638Y-52928000D01*
X67961501Y-52923555D01*
X67924005Y-52912180D01*
X67889446Y-52893708D01*
X67859153Y-52868847D01*
X67834292Y-52838554D01*
X67815820Y-52803995D01*
X67804445Y-52766499D01*
X67800000Y-52721362D01*
X67800000Y-51982638D01*
X67804445Y-51937501D01*
X67815820Y-51900005D01*
X67834292Y-51865446D01*
X67859153Y-51835153D01*
X67889446Y-51810292D01*
X67924005Y-51791820D01*
X67961501Y-51780445D01*
X68006638Y-51776000D01*
X68645362Y-51776000D01*
X68690499Y-51780445D01*
G37*
G36*
X66912499Y-51780445D02*
G01*
X66949995Y-51791820D01*
X66984554Y-51810292D01*
X67014847Y-51835153D01*
X67039708Y-51865446D01*
X67058180Y-51900005D01*
X67069555Y-51937501D01*
X67074000Y-51982638D01*
X67074000Y-52721362D01*
X67069555Y-52766499D01*
X67058180Y-52803995D01*
X67039708Y-52838554D01*
X67014847Y-52868847D01*
X66984554Y-52893708D01*
X66949995Y-52912180D01*
X66912499Y-52923555D01*
X66867362Y-52928000D01*
X66228638Y-52928000D01*
X66183501Y-52923555D01*
X66146005Y-52912180D01*
X66111446Y-52893708D01*
X66081153Y-52868847D01*
X66056292Y-52838554D01*
X66037820Y-52803995D01*
X66026445Y-52766499D01*
X66022000Y-52721362D01*
X66022000Y-51982638D01*
X66026445Y-51937501D01*
X66037820Y-51900005D01*
X66056292Y-51865446D01*
X66081153Y-51835153D01*
X66111446Y-51810292D01*
X66146005Y-51791820D01*
X66183501Y-51780445D01*
X66228638Y-51776000D01*
X66867362Y-51776000D01*
X66912499Y-51780445D01*
G37*
G36*
X94090499Y-51780445D02*
G01*
X94127995Y-51791820D01*
X94162554Y-51810292D01*
X94192847Y-51835153D01*
X94217708Y-51865446D01*
X94236180Y-51900005D01*
X94247555Y-51937501D01*
X94252000Y-51982638D01*
X94252000Y-52721362D01*
X94247555Y-52766499D01*
X94236180Y-52803995D01*
X94217708Y-52838554D01*
X94192847Y-52868847D01*
X94162554Y-52893708D01*
X94127995Y-52912180D01*
X94090499Y-52923555D01*
X94045362Y-52928000D01*
X93406638Y-52928000D01*
X93361501Y-52923555D01*
X93324005Y-52912180D01*
X93289446Y-52893708D01*
X93259153Y-52868847D01*
X93234292Y-52838554D01*
X93215820Y-52803995D01*
X93204445Y-52766499D01*
X93200000Y-52721362D01*
X93200000Y-51982638D01*
X93204445Y-51937501D01*
X93215820Y-51900005D01*
X93234292Y-51865446D01*
X93259153Y-51835153D01*
X93289446Y-51810292D01*
X93324005Y-51791820D01*
X93361501Y-51780445D01*
X93406638Y-51776000D01*
X94045362Y-51776000D01*
X94090499Y-51780445D01*
G37*
G36*
X51926499Y-51780445D02*
G01*
X51963995Y-51791820D01*
X51998554Y-51810292D01*
X52028847Y-51835153D01*
X52053708Y-51865446D01*
X52072180Y-51900005D01*
X52083555Y-51937501D01*
X52088000Y-51982638D01*
X52088000Y-52721362D01*
X52083555Y-52766499D01*
X52072180Y-52803995D01*
X52053708Y-52838554D01*
X52028847Y-52868847D01*
X51998554Y-52893708D01*
X51963995Y-52912180D01*
X51926499Y-52923555D01*
X51881362Y-52928000D01*
X51242638Y-52928000D01*
X51197501Y-52923555D01*
X51160005Y-52912180D01*
X51125446Y-52893708D01*
X51095153Y-52868847D01*
X51070292Y-52838554D01*
X51051820Y-52803995D01*
X51040445Y-52766499D01*
X51036000Y-52721362D01*
X51036000Y-51982638D01*
X51040445Y-51937501D01*
X51051820Y-51900005D01*
X51070292Y-51865446D01*
X51095153Y-51835153D01*
X51125446Y-51810292D01*
X51160005Y-51791820D01*
X51197501Y-51780445D01*
X51242638Y-51776000D01*
X51881362Y-51776000D01*
X51926499Y-51780445D01*
G37*
G36*
X50021499Y-51780445D02*
G01*
X50058995Y-51791820D01*
X50093554Y-51810292D01*
X50123847Y-51835153D01*
X50148708Y-51865446D01*
X50167180Y-51900005D01*
X50178555Y-51937501D01*
X50183000Y-51982638D01*
X50183000Y-52721362D01*
X50178555Y-52766499D01*
X50167180Y-52803995D01*
X50148708Y-52838554D01*
X50123847Y-52868847D01*
X50093554Y-52893708D01*
X50058995Y-52912180D01*
X50021499Y-52923555D01*
X49976362Y-52928000D01*
X49337638Y-52928000D01*
X49292501Y-52923555D01*
X49255005Y-52912180D01*
X49220446Y-52893708D01*
X49190153Y-52868847D01*
X49165292Y-52838554D01*
X49146820Y-52803995D01*
X49135445Y-52766499D01*
X49131000Y-52721362D01*
X49131000Y-51982638D01*
X49135445Y-51937501D01*
X49146820Y-51900005D01*
X49165292Y-51865446D01*
X49190153Y-51835153D01*
X49220446Y-51810292D01*
X49255005Y-51791820D01*
X49292501Y-51780445D01*
X49337638Y-51776000D01*
X49976362Y-51776000D01*
X50021499Y-51780445D01*
G37*
G36*
X65134499Y-51766445D02*
G01*
X65171995Y-51777820D01*
X65206554Y-51796292D01*
X65236847Y-51821153D01*
X65261708Y-51851446D01*
X65280180Y-51886005D01*
X65291555Y-51923501D01*
X65296000Y-51968638D01*
X65296000Y-52707362D01*
X65291555Y-52752499D01*
X65280180Y-52789995D01*
X65261708Y-52824554D01*
X65236847Y-52854847D01*
X65206554Y-52879708D01*
X65171995Y-52898180D01*
X65134499Y-52909555D01*
X65089362Y-52914000D01*
X64450638Y-52914000D01*
X64405501Y-52909555D01*
X64368005Y-52898180D01*
X64333446Y-52879708D01*
X64303153Y-52854847D01*
X64278292Y-52824554D01*
X64259820Y-52789995D01*
X64248445Y-52752499D01*
X64244000Y-52707362D01*
X64244000Y-51968638D01*
X64248445Y-51923501D01*
X64259820Y-51886005D01*
X64278292Y-51851446D01*
X64303153Y-51821153D01*
X64333446Y-51796292D01*
X64368005Y-51777820D01*
X64405501Y-51766445D01*
X64450638Y-51762000D01*
X65089362Y-51762000D01*
X65134499Y-51766445D01*
G37*
G36*
X44687499Y-51766445D02*
G01*
X44724995Y-51777820D01*
X44759554Y-51796292D01*
X44789847Y-51821153D01*
X44814708Y-51851446D01*
X44833180Y-51886005D01*
X44844555Y-51923501D01*
X44849000Y-51968638D01*
X44849000Y-52707362D01*
X44844555Y-52752499D01*
X44833180Y-52789995D01*
X44814708Y-52824554D01*
X44789847Y-52854847D01*
X44759554Y-52879708D01*
X44724995Y-52898180D01*
X44687499Y-52909555D01*
X44642362Y-52914000D01*
X44003638Y-52914000D01*
X43958501Y-52909555D01*
X43921005Y-52898180D01*
X43886446Y-52879708D01*
X43856153Y-52854847D01*
X43831292Y-52824554D01*
X43812820Y-52789995D01*
X43801445Y-52752499D01*
X43797000Y-52707362D01*
X43797000Y-51968638D01*
X43801445Y-51923501D01*
X43812820Y-51886005D01*
X43831292Y-51851446D01*
X43856153Y-51821153D01*
X43886446Y-51796292D01*
X43921005Y-51777820D01*
X43958501Y-51766445D01*
X44003638Y-51762000D01*
X44642362Y-51762000D01*
X44687499Y-51766445D01*
G37*
G36*
X53704499Y-51752445D02*
G01*
X53741995Y-51763820D01*
X53776554Y-51782292D01*
X53806847Y-51807153D01*
X53831708Y-51837446D01*
X53850180Y-51872005D01*
X53861555Y-51909501D01*
X53866000Y-51954638D01*
X53866000Y-52693362D01*
X53861555Y-52738499D01*
X53850180Y-52775995D01*
X53831708Y-52810554D01*
X53806847Y-52840847D01*
X53776554Y-52865708D01*
X53741995Y-52884180D01*
X53704499Y-52895555D01*
X53659362Y-52900000D01*
X53020638Y-52900000D01*
X52975501Y-52895555D01*
X52938005Y-52884180D01*
X52903446Y-52865708D01*
X52873153Y-52840847D01*
X52848292Y-52810554D01*
X52829820Y-52775995D01*
X52818445Y-52738499D01*
X52814000Y-52693362D01*
X52814000Y-51954638D01*
X52818445Y-51909501D01*
X52829820Y-51872005D01*
X52848292Y-51837446D01*
X52873153Y-51807153D01*
X52903446Y-51782292D01*
X52938005Y-51763820D01*
X52975501Y-51752445D01*
X53020638Y-51748000D01*
X53659362Y-51748000D01*
X53704499Y-51752445D01*
G37*
G36*
X55482499Y-51752445D02*
G01*
X55519995Y-51763820D01*
X55554554Y-51782292D01*
X55584847Y-51807153D01*
X55609708Y-51837446D01*
X55628180Y-51872005D01*
X55639555Y-51909501D01*
X55644000Y-51954638D01*
X55644000Y-52693362D01*
X55639555Y-52738499D01*
X55628180Y-52775995D01*
X55609708Y-52810554D01*
X55584847Y-52840847D01*
X55554554Y-52865708D01*
X55519995Y-52884180D01*
X55482499Y-52895555D01*
X55437362Y-52900000D01*
X54798638Y-52900000D01*
X54753501Y-52895555D01*
X54716005Y-52884180D01*
X54681446Y-52865708D01*
X54651153Y-52840847D01*
X54626292Y-52810554D01*
X54607820Y-52775995D01*
X54596445Y-52738499D01*
X54592000Y-52693362D01*
X54592000Y-51954638D01*
X54596445Y-51909501D01*
X54607820Y-51872005D01*
X54626292Y-51837446D01*
X54651153Y-51807153D01*
X54681446Y-51782292D01*
X54716005Y-51763820D01*
X54753501Y-51752445D01*
X54798638Y-51748000D01*
X55437362Y-51748000D01*
X55482499Y-51752445D01*
G37*
G36*
X77834499Y-51752445D02*
G01*
X77871995Y-51763820D01*
X77906554Y-51782292D01*
X77936847Y-51807153D01*
X77961708Y-51837446D01*
X77980180Y-51872005D01*
X77991555Y-51909501D01*
X77996000Y-51954638D01*
X77996000Y-52693362D01*
X77991555Y-52738499D01*
X77980180Y-52775995D01*
X77961708Y-52810554D01*
X77936847Y-52840847D01*
X77906554Y-52865708D01*
X77871995Y-52884180D01*
X77834499Y-52895555D01*
X77789362Y-52900000D01*
X77150638Y-52900000D01*
X77105501Y-52895555D01*
X77068005Y-52884180D01*
X77033446Y-52865708D01*
X77003153Y-52840847D01*
X76978292Y-52810554D01*
X76959820Y-52775995D01*
X76948445Y-52738499D01*
X76944000Y-52693362D01*
X76944000Y-51954638D01*
X76948445Y-51909501D01*
X76959820Y-51872005D01*
X76978292Y-51837446D01*
X77003153Y-51807153D01*
X77033446Y-51782292D01*
X77068005Y-51763820D01*
X77105501Y-51752445D01*
X77150638Y-51748000D01*
X77789362Y-51748000D01*
X77834499Y-51752445D01*
G37*
G36*
X96630499Y-51752445D02*
G01*
X96667995Y-51763820D01*
X96702554Y-51782292D01*
X96732847Y-51807153D01*
X96757708Y-51837446D01*
X96776180Y-51872005D01*
X96787555Y-51909501D01*
X96792000Y-51954638D01*
X96792000Y-52693362D01*
X96787555Y-52738499D01*
X96776180Y-52775995D01*
X96757708Y-52810554D01*
X96732847Y-52840847D01*
X96702554Y-52865708D01*
X96667995Y-52884180D01*
X96630499Y-52895555D01*
X96585362Y-52900000D01*
X95946638Y-52900000D01*
X95901501Y-52895555D01*
X95864005Y-52884180D01*
X95829446Y-52865708D01*
X95799153Y-52840847D01*
X95774292Y-52810554D01*
X95755820Y-52775995D01*
X95744445Y-52738499D01*
X95740000Y-52693362D01*
X95740000Y-51954638D01*
X95744445Y-51909501D01*
X95755820Y-51872005D01*
X95774292Y-51837446D01*
X95799153Y-51807153D01*
X95829446Y-51782292D01*
X95864005Y-51763820D01*
X95901501Y-51752445D01*
X95946638Y-51748000D01*
X96585362Y-51748000D01*
X96630499Y-51752445D01*
G37*
G36*
X63443000Y-52730000D02*
G01*
X62541000Y-52730000D01*
X62541000Y-51728000D01*
X63443000Y-51728000D01*
X63443000Y-52730000D01*
G37*
G36*
X59440000Y-52730000D02*
G01*
X58538000Y-52730000D01*
X58538000Y-51728000D01*
X59440000Y-51728000D01*
X59440000Y-52730000D01*
G37*
G36*
X57540000Y-52730000D02*
G01*
X56638000Y-52730000D01*
X56638000Y-51728000D01*
X57540000Y-51728000D01*
X57540000Y-52730000D01*
G37*
G36*
X61543000Y-52730000D02*
G01*
X60641000Y-52730000D01*
X60641000Y-51728000D01*
X61543000Y-51728000D01*
X61543000Y-52730000D01*
G37*
G36*
X86877000Y-52730000D02*
G01*
X85975000Y-52730000D01*
X85975000Y-51728000D01*
X86877000Y-51728000D01*
X86877000Y-52730000D01*
G37*
G36*
X88777000Y-52730000D02*
G01*
X87875000Y-52730000D01*
X87875000Y-51728000D01*
X88777000Y-51728000D01*
X88777000Y-52730000D01*
G37*
G36*
X46491000Y-52730000D02*
G01*
X45589000Y-52730000D01*
X45589000Y-51728000D01*
X46491000Y-51728000D01*
X46491000Y-52730000D01*
G37*
G36*
X48391000Y-52730000D02*
G01*
X47489000Y-52730000D01*
X47489000Y-51728000D01*
X48391000Y-51728000D01*
X48391000Y-52730000D01*
G37*
G36*
X74177000Y-52714000D02*
G01*
X73275000Y-52714000D01*
X73275000Y-51712000D01*
X74177000Y-51712000D01*
X74177000Y-52714000D01*
G37*
G36*
X76077000Y-52714000D02*
G01*
X75175000Y-52714000D01*
X75175000Y-51712000D01*
X76077000Y-51712000D01*
X76077000Y-52714000D01*
G37*
M02*
