G04 #@! TF.GenerationSoftware,KiCad,Pcbnew,(5.1.6-0)*
G04 #@! TF.CreationDate,2023-03-04T09:46:59+01:00*
G04 #@! TF.ProjectId,Vidiot,56696469-6f74-42e6-9b69-6361645f7063,rev?*
G04 #@! TF.SameCoordinates,Original*
G04 #@! TF.FileFunction,Copper,L2,Bot*
G04 #@! TF.FilePolarity,Positive*
%FSLAX46Y46*%
G04 Gerber Fmt 4.6, Leading zero omitted, Abs format (unit mm)*
G04 Created by KiCad (PCBNEW (5.1.6-0)) date 2023-03-04 09:46:59*
%MOMM*%
%LPD*%
G01*
G04 APERTURE LIST*
G04 #@! TA.AperFunction,ComponentPad*
%ADD10O,1.700000X1.700000*%
G04 #@! TD*
G04 #@! TA.AperFunction,ComponentPad*
%ADD11R,1.700000X1.700000*%
G04 #@! TD*
G04 #@! TA.AperFunction,ViaPad*
%ADD12C,0.800000*%
G04 #@! TD*
G04 #@! TA.AperFunction,Conductor*
%ADD13C,0.250000*%
G04 #@! TD*
G04 #@! TA.AperFunction,Conductor*
%ADD14C,1.270000*%
G04 #@! TD*
G04 #@! TA.AperFunction,Conductor*
%ADD15C,0.254000*%
G04 #@! TD*
G04 APERTURE END LIST*
G04 #@! TA.AperFunction,SMDPad,CuDef*
G36*
G01*
X49132500Y-53484000D02*
X48657500Y-53484000D01*
G75*
G02*
X48420000Y-53246500I0J237500D01*
G01*
X48420000Y-52671500D01*
G75*
G02*
X48657500Y-52434000I237500J0D01*
G01*
X49132500Y-52434000D01*
G75*
G02*
X49370000Y-52671500I0J-237500D01*
G01*
X49370000Y-53246500D01*
G75*
G02*
X49132500Y-53484000I-237500J0D01*
G01*
G37*
G04 #@! TD.AperFunction*
G04 #@! TA.AperFunction,SMDPad,CuDef*
G36*
G01*
X49132500Y-55234000D02*
X48657500Y-55234000D01*
G75*
G02*
X48420000Y-54996500I0J237500D01*
G01*
X48420000Y-54421500D01*
G75*
G02*
X48657500Y-54184000I237500J0D01*
G01*
X49132500Y-54184000D01*
G75*
G02*
X49370000Y-54421500I0J-237500D01*
G01*
X49370000Y-54996500D01*
G75*
G02*
X49132500Y-55234000I-237500J0D01*
G01*
G37*
G04 #@! TD.AperFunction*
G04 #@! TA.AperFunction,SMDPad,CuDef*
G36*
G01*
X54085500Y-53512000D02*
X53610500Y-53512000D01*
G75*
G02*
X53373000Y-53274500I0J237500D01*
G01*
X53373000Y-52699500D01*
G75*
G02*
X53610500Y-52462000I237500J0D01*
G01*
X54085500Y-52462000D01*
G75*
G02*
X54323000Y-52699500I0J-237500D01*
G01*
X54323000Y-53274500D01*
G75*
G02*
X54085500Y-53512000I-237500J0D01*
G01*
G37*
G04 #@! TD.AperFunction*
G04 #@! TA.AperFunction,SMDPad,CuDef*
G36*
G01*
X54085500Y-55262000D02*
X53610500Y-55262000D01*
G75*
G02*
X53373000Y-55024500I0J237500D01*
G01*
X53373000Y-54449500D01*
G75*
G02*
X53610500Y-54212000I237500J0D01*
G01*
X54085500Y-54212000D01*
G75*
G02*
X54323000Y-54449500I0J-237500D01*
G01*
X54323000Y-55024500D01*
G75*
G02*
X54085500Y-55262000I-237500J0D01*
G01*
G37*
G04 #@! TD.AperFunction*
D10*
X44196000Y-60452000D03*
X46736000Y-60452000D03*
X49276000Y-60452000D03*
X51816000Y-60452000D03*
X54356000Y-60452000D03*
X56896000Y-60452000D03*
X59436000Y-60452000D03*
X61976000Y-60452000D03*
X64516000Y-60452000D03*
X67056000Y-60452000D03*
X69596000Y-60452000D03*
X72136000Y-60452000D03*
X74676000Y-60452000D03*
X77216000Y-60452000D03*
X79756000Y-60452000D03*
X82296000Y-60452000D03*
X84836000Y-60452000D03*
X87376000Y-60452000D03*
X89916000Y-60452000D03*
X92456000Y-60452000D03*
X94996000Y-60452000D03*
D11*
X97536000Y-60452000D03*
G04 #@! TA.AperFunction,SMDPad,CuDef*
G36*
G01*
X63356500Y-53385000D02*
X62881500Y-53385000D01*
G75*
G02*
X62644000Y-53147500I0J237500D01*
G01*
X62644000Y-52572500D01*
G75*
G02*
X62881500Y-52335000I237500J0D01*
G01*
X63356500Y-52335000D01*
G75*
G02*
X63594000Y-52572500I0J-237500D01*
G01*
X63594000Y-53147500D01*
G75*
G02*
X63356500Y-53385000I-237500J0D01*
G01*
G37*
G04 #@! TD.AperFunction*
G04 #@! TA.AperFunction,SMDPad,CuDef*
G36*
G01*
X63356500Y-55135000D02*
X62881500Y-55135000D01*
G75*
G02*
X62644000Y-54897500I0J237500D01*
G01*
X62644000Y-54322500D01*
G75*
G02*
X62881500Y-54085000I237500J0D01*
G01*
X63356500Y-54085000D01*
G75*
G02*
X63594000Y-54322500I0J-237500D01*
G01*
X63594000Y-54897500D01*
G75*
G02*
X63356500Y-55135000I-237500J0D01*
G01*
G37*
G04 #@! TD.AperFunction*
G04 #@! TA.AperFunction,SMDPad,CuDef*
G36*
G01*
X76056500Y-53385000D02*
X75581500Y-53385000D01*
G75*
G02*
X75344000Y-53147500I0J237500D01*
G01*
X75344000Y-52572500D01*
G75*
G02*
X75581500Y-52335000I237500J0D01*
G01*
X76056500Y-52335000D01*
G75*
G02*
X76294000Y-52572500I0J-237500D01*
G01*
X76294000Y-53147500D01*
G75*
G02*
X76056500Y-53385000I-237500J0D01*
G01*
G37*
G04 #@! TD.AperFunction*
G04 #@! TA.AperFunction,SMDPad,CuDef*
G36*
G01*
X76056500Y-55135000D02*
X75581500Y-55135000D01*
G75*
G02*
X75344000Y-54897500I0J237500D01*
G01*
X75344000Y-54322500D01*
G75*
G02*
X75581500Y-54085000I237500J0D01*
G01*
X76056500Y-54085000D01*
G75*
G02*
X76294000Y-54322500I0J-237500D01*
G01*
X76294000Y-54897500D01*
G75*
G02*
X76056500Y-55135000I-237500J0D01*
G01*
G37*
G04 #@! TD.AperFunction*
G04 #@! TA.AperFunction,SMDPad,CuDef*
G36*
G01*
X88629500Y-53385000D02*
X88154500Y-53385000D01*
G75*
G02*
X87917000Y-53147500I0J237500D01*
G01*
X87917000Y-52572500D01*
G75*
G02*
X88154500Y-52335000I237500J0D01*
G01*
X88629500Y-52335000D01*
G75*
G02*
X88867000Y-52572500I0J-237500D01*
G01*
X88867000Y-53147500D01*
G75*
G02*
X88629500Y-53385000I-237500J0D01*
G01*
G37*
G04 #@! TD.AperFunction*
G04 #@! TA.AperFunction,SMDPad,CuDef*
G36*
G01*
X88629500Y-55135000D02*
X88154500Y-55135000D01*
G75*
G02*
X87917000Y-54897500I0J237500D01*
G01*
X87917000Y-54322500D01*
G75*
G02*
X88154500Y-54085000I237500J0D01*
G01*
X88629500Y-54085000D01*
G75*
G02*
X88867000Y-54322500I0J-237500D01*
G01*
X88867000Y-54897500D01*
G75*
G02*
X88629500Y-55135000I-237500J0D01*
G01*
G37*
G04 #@! TD.AperFunction*
D12*
X94869000Y-52324000D03*
X82169000Y-52324000D03*
X69469000Y-52324000D03*
X56261000Y-54199010D03*
X84836000Y-52324000D03*
X84836000Y-57785000D03*
X72263000Y-52324000D03*
X72263000Y-57785000D03*
X87376000Y-55372000D03*
X74676000Y-55372000D03*
X61976000Y-55372000D03*
X55753000Y-55245000D03*
D13*
X63119000Y-52324000D02*
X63119000Y-52860000D01*
X69469000Y-52324000D02*
X64643000Y-52324000D01*
X64643000Y-52324000D02*
X63119000Y-52324000D01*
X74808000Y-52324000D02*
X74676000Y-52324000D01*
X75344000Y-52860000D02*
X74808000Y-52324000D01*
X75819000Y-52860000D02*
X75344000Y-52860000D01*
X74676000Y-52324000D02*
X82169000Y-52324000D01*
X62108000Y-52324000D02*
X61849000Y-52324000D01*
X63119000Y-52860000D02*
X62644000Y-52860000D01*
X62644000Y-52860000D02*
X62108000Y-52324000D01*
X64643000Y-52324000D02*
X61849000Y-52324000D01*
X87917000Y-52860000D02*
X87381000Y-52324000D01*
X87381000Y-52324000D02*
X87249000Y-52324000D01*
X88392000Y-52860000D02*
X87917000Y-52860000D01*
X87249000Y-52324000D02*
X94869000Y-52324000D01*
X82169000Y-52324000D02*
X84836000Y-52324000D01*
X55861001Y-52342999D02*
X55880000Y-52324000D01*
X55861001Y-53799011D02*
X55861001Y-52342999D01*
X56261000Y-54199010D02*
X55861001Y-53799011D01*
X61849000Y-52324000D02*
X55880000Y-52324000D01*
X53710000Y-52324000D02*
X53467000Y-52324000D01*
X53848000Y-52462000D02*
X53710000Y-52324000D01*
X53848000Y-52987000D02*
X53848000Y-52462000D01*
X55880000Y-52324000D02*
X53467000Y-52324000D01*
X97536000Y-53721000D02*
X96139000Y-52324000D01*
X97536000Y-60452000D02*
X97536000Y-53721000D01*
X96139000Y-52324000D02*
X94869000Y-52324000D01*
X53467000Y-52324000D02*
X51816000Y-52324000D01*
X51816000Y-52324000D02*
X50673000Y-52324000D01*
X44196000Y-55118000D02*
X44196000Y-60452000D01*
X46990000Y-52324000D02*
X44196000Y-55118000D01*
X49005000Y-52324000D02*
X49022000Y-52324000D01*
X48895000Y-52434000D02*
X49005000Y-52324000D01*
X48895000Y-52959000D02*
X48895000Y-52434000D01*
X49022000Y-52324000D02*
X46990000Y-52324000D01*
X51816000Y-52324000D02*
X49022000Y-52324000D01*
X84836000Y-52324000D02*
X87249000Y-52324000D01*
X72136000Y-52324000D02*
X72009000Y-52324000D01*
X69469000Y-52324000D02*
X72136000Y-52324000D01*
X72136000Y-52324000D02*
X74676000Y-52324000D01*
X72263000Y-57785000D02*
X84836000Y-57785000D01*
X75438000Y-54610000D02*
X74676000Y-55372000D01*
X75819000Y-54610000D02*
X75438000Y-54610000D01*
X88138000Y-54610000D02*
X87376000Y-55372000D01*
X88392000Y-54610000D02*
X88138000Y-54610000D01*
X62738000Y-54610000D02*
X61976000Y-55372000D01*
X63119000Y-54610000D02*
X62738000Y-54610000D01*
X48895000Y-55234000D02*
X48895000Y-55372000D01*
X48895000Y-54709000D02*
X48895000Y-55234000D01*
D14*
X46736000Y-60452000D02*
X46736000Y-57023000D01*
X46736000Y-57023000D02*
X47752000Y-56007000D01*
X93472000Y-56007000D02*
X94996000Y-57531000D01*
D13*
X94996000Y-57023000D02*
X94996000Y-57531000D01*
D14*
X94996000Y-57531000D02*
X94996000Y-60452000D01*
D13*
X53848000Y-54737000D02*
X53848000Y-56007000D01*
D14*
X47752000Y-56007000D02*
X53848000Y-56007000D01*
D13*
X55626000Y-55937685D02*
X55626000Y-56007000D01*
X55753000Y-55245000D02*
X55753000Y-55810685D01*
X55753000Y-55810685D02*
X55626000Y-55937685D01*
D14*
X53848000Y-56007000D02*
X55626000Y-56007000D01*
D13*
X62992000Y-55822315D02*
X62992000Y-56007000D01*
X62541685Y-55372000D02*
X62992000Y-55822315D01*
X61976000Y-55372000D02*
X62541685Y-55372000D01*
D14*
X55626000Y-56007000D02*
X62992000Y-56007000D01*
D13*
X74676000Y-55372000D02*
X75241685Y-55372000D01*
X75692000Y-55822315D02*
X75692000Y-56007000D01*
D14*
X75692000Y-56007000D02*
X93472000Y-56007000D01*
D13*
X75241685Y-55372000D02*
X75692000Y-55822315D01*
D14*
X62992000Y-56007000D02*
X75692000Y-56007000D01*
D15*
G36*
X98375001Y-58963988D02*
G01*
X97821750Y-58967000D01*
X97663000Y-59125750D01*
X97663000Y-60325000D01*
X97683000Y-60325000D01*
X97683000Y-60579000D01*
X97663000Y-60579000D01*
X97663000Y-60599000D01*
X97409000Y-60599000D01*
X97409000Y-60579000D01*
X97389000Y-60579000D01*
X97389000Y-60325000D01*
X97409000Y-60325000D01*
X97409000Y-59125750D01*
X97250250Y-58967000D01*
X96686000Y-58963928D01*
X96561518Y-58976188D01*
X96441820Y-59012498D01*
X96331506Y-59071463D01*
X96266000Y-59125222D01*
X96266000Y-57593372D01*
X96272143Y-57530999D01*
X96266000Y-57468626D01*
X96266000Y-57468620D01*
X96247623Y-57282037D01*
X96240521Y-57258623D01*
X96175003Y-57042642D01*
X96175003Y-57042641D01*
X96057075Y-56822012D01*
X95898370Y-56628630D01*
X95849915Y-56588864D01*
X94414141Y-55153091D01*
X94374370Y-55104630D01*
X94180988Y-54945925D01*
X93960359Y-54827997D01*
X93720963Y-54755377D01*
X93534380Y-54737000D01*
X93534373Y-54737000D01*
X93472000Y-54730857D01*
X93409627Y-54737000D01*
X89505072Y-54737000D01*
X89505072Y-54322500D01*
X89488248Y-54151684D01*
X89438423Y-53987433D01*
X89357512Y-53836058D01*
X89337901Y-53812161D01*
X89397537Y-53739494D01*
X89456502Y-53629180D01*
X89492812Y-53509482D01*
X89505072Y-53385000D01*
X89502000Y-53145750D01*
X89343250Y-52987000D01*
X88519000Y-52987000D01*
X88519000Y-53007000D01*
X88265000Y-53007000D01*
X88265000Y-52987000D01*
X87440750Y-52987000D01*
X87282000Y-53145750D01*
X87278928Y-53385000D01*
X87291188Y-53509482D01*
X87327498Y-53629180D01*
X87386463Y-53739494D01*
X87446099Y-53812161D01*
X87426488Y-53836058D01*
X87345577Y-53987433D01*
X87295752Y-54151684D01*
X87278928Y-54322500D01*
X87278928Y-54337000D01*
X87274061Y-54337000D01*
X87074102Y-54376774D01*
X86885744Y-54454795D01*
X86716226Y-54568063D01*
X86572063Y-54712226D01*
X86555510Y-54737000D01*
X76932072Y-54737000D01*
X76932072Y-54322500D01*
X76915248Y-54151684D01*
X76865423Y-53987433D01*
X76784512Y-53836058D01*
X76764901Y-53812161D01*
X76824537Y-53739494D01*
X76883502Y-53629180D01*
X76919812Y-53509482D01*
X76932072Y-53385000D01*
X76929000Y-53145750D01*
X76770250Y-52987000D01*
X75946000Y-52987000D01*
X75946000Y-53007000D01*
X75692000Y-53007000D01*
X75692000Y-52987000D01*
X74867750Y-52987000D01*
X74709000Y-53145750D01*
X74705928Y-53385000D01*
X74718188Y-53509482D01*
X74754498Y-53629180D01*
X74813463Y-53739494D01*
X74873099Y-53812161D01*
X74853488Y-53836058D01*
X74772577Y-53987433D01*
X74722752Y-54151684D01*
X74711962Y-54261236D01*
X74636198Y-54337000D01*
X74574061Y-54337000D01*
X74374102Y-54376774D01*
X74185744Y-54454795D01*
X74016226Y-54568063D01*
X73872063Y-54712226D01*
X73855510Y-54737000D01*
X64232072Y-54737000D01*
X64232072Y-54322500D01*
X64215248Y-54151684D01*
X64165423Y-53987433D01*
X64084512Y-53836058D01*
X64064901Y-53812161D01*
X64124537Y-53739494D01*
X64183502Y-53629180D01*
X64219812Y-53509482D01*
X64232072Y-53385000D01*
X64229000Y-53145750D01*
X64070250Y-52987000D01*
X63246000Y-52987000D01*
X63246000Y-53007000D01*
X62992000Y-53007000D01*
X62992000Y-52987000D01*
X62167750Y-52987000D01*
X62009000Y-53145750D01*
X62005928Y-53385000D01*
X62018188Y-53509482D01*
X62054498Y-53629180D01*
X62113463Y-53739494D01*
X62173099Y-53812161D01*
X62153488Y-53836058D01*
X62072577Y-53987433D01*
X62022752Y-54151684D01*
X62011962Y-54261236D01*
X61936198Y-54337000D01*
X61874061Y-54337000D01*
X61674102Y-54376774D01*
X61485744Y-54454795D01*
X61316226Y-54568063D01*
X61172063Y-54712226D01*
X61155510Y-54737000D01*
X56658349Y-54737000D01*
X56556937Y-54585226D01*
X56412774Y-54441063D01*
X56243256Y-54327795D01*
X56054898Y-54249774D01*
X55854939Y-54210000D01*
X55651061Y-54210000D01*
X55451102Y-54249774D01*
X55262744Y-54327795D01*
X55093226Y-54441063D01*
X54961072Y-54573217D01*
X54961072Y-54449500D01*
X54944248Y-54278684D01*
X54894423Y-54114433D01*
X54813512Y-53963058D01*
X54793901Y-53939161D01*
X54853537Y-53866494D01*
X54912502Y-53756180D01*
X54948812Y-53636482D01*
X54961072Y-53512000D01*
X54958000Y-53272750D01*
X54799250Y-53114000D01*
X53975000Y-53114000D01*
X53975000Y-53134000D01*
X53721000Y-53134000D01*
X53721000Y-53114000D01*
X52896750Y-53114000D01*
X52738000Y-53272750D01*
X52734928Y-53512000D01*
X52747188Y-53636482D01*
X52783498Y-53756180D01*
X52842463Y-53866494D01*
X52902099Y-53939161D01*
X52882488Y-53963058D01*
X52801577Y-54114433D01*
X52751752Y-54278684D01*
X52734928Y-54449500D01*
X52734928Y-54737000D01*
X50008072Y-54737000D01*
X50008072Y-54421500D01*
X49991248Y-54250684D01*
X49941423Y-54086433D01*
X49860512Y-53935058D01*
X49840901Y-53911161D01*
X49900537Y-53838494D01*
X49959502Y-53728180D01*
X49995812Y-53608482D01*
X50008072Y-53484000D01*
X50005000Y-53244750D01*
X49846250Y-53086000D01*
X49022000Y-53086000D01*
X49022000Y-53106000D01*
X48768000Y-53106000D01*
X48768000Y-53086000D01*
X47943750Y-53086000D01*
X47785000Y-53244750D01*
X47781928Y-53484000D01*
X47794188Y-53608482D01*
X47830498Y-53728180D01*
X47889463Y-53838494D01*
X47949099Y-53911161D01*
X47929488Y-53935058D01*
X47848577Y-54086433D01*
X47798752Y-54250684D01*
X47781928Y-54421500D01*
X47781928Y-54733805D01*
X47752000Y-54730857D01*
X47689627Y-54737000D01*
X47689620Y-54737000D01*
X47526347Y-54753081D01*
X47503036Y-54755377D01*
X47430416Y-54777406D01*
X47263641Y-54827997D01*
X47043012Y-54945925D01*
X46849630Y-55104630D01*
X46809863Y-55153086D01*
X45882086Y-56080864D01*
X45833631Y-56120630D01*
X45674926Y-56314012D01*
X45604560Y-56445659D01*
X45556998Y-56534641D01*
X45484377Y-56774037D01*
X45459857Y-57023000D01*
X45466001Y-57085383D01*
X45466000Y-59679760D01*
X45460805Y-59687534D01*
X45391178Y-59570645D01*
X45196269Y-59354412D01*
X44962920Y-59180359D01*
X44700099Y-59055175D01*
X44552890Y-59010524D01*
X44323000Y-59131845D01*
X44323000Y-60325000D01*
X44343000Y-60325000D01*
X44343000Y-60579000D01*
X44323000Y-60579000D01*
X44323000Y-60599000D01*
X44069000Y-60599000D01*
X44069000Y-60579000D01*
X44049000Y-60579000D01*
X44049000Y-60325000D01*
X44069000Y-60325000D01*
X44069000Y-59131845D01*
X43839110Y-59010524D01*
X43691901Y-59055175D01*
X43429080Y-59180359D01*
X43230000Y-59328851D01*
X43230000Y-52434000D01*
X47781928Y-52434000D01*
X47785000Y-52673250D01*
X47943750Y-52832000D01*
X48768000Y-52832000D01*
X48768000Y-51957750D01*
X49022000Y-51957750D01*
X49022000Y-52832000D01*
X49846250Y-52832000D01*
X50005000Y-52673250D01*
X50007712Y-52462000D01*
X52734928Y-52462000D01*
X52738000Y-52701250D01*
X52896750Y-52860000D01*
X53721000Y-52860000D01*
X53721000Y-51985750D01*
X53975000Y-51985750D01*
X53975000Y-52860000D01*
X54799250Y-52860000D01*
X54958000Y-52701250D01*
X54961072Y-52462000D01*
X54948812Y-52337518D01*
X54948049Y-52335000D01*
X62005928Y-52335000D01*
X62009000Y-52574250D01*
X62167750Y-52733000D01*
X62992000Y-52733000D01*
X62992000Y-51858750D01*
X63246000Y-51858750D01*
X63246000Y-52733000D01*
X64070250Y-52733000D01*
X64229000Y-52574250D01*
X64232072Y-52335000D01*
X74705928Y-52335000D01*
X74709000Y-52574250D01*
X74867750Y-52733000D01*
X75692000Y-52733000D01*
X75692000Y-51858750D01*
X75946000Y-51858750D01*
X75946000Y-52733000D01*
X76770250Y-52733000D01*
X76929000Y-52574250D01*
X76932072Y-52335000D01*
X87278928Y-52335000D01*
X87282000Y-52574250D01*
X87440750Y-52733000D01*
X88265000Y-52733000D01*
X88265000Y-51858750D01*
X88519000Y-51858750D01*
X88519000Y-52733000D01*
X89343250Y-52733000D01*
X89502000Y-52574250D01*
X89505072Y-52335000D01*
X89492812Y-52210518D01*
X89456502Y-52090820D01*
X89397537Y-51980506D01*
X89318185Y-51883815D01*
X89221494Y-51804463D01*
X89111180Y-51745498D01*
X88991482Y-51709188D01*
X88867000Y-51696928D01*
X88677750Y-51700000D01*
X88519000Y-51858750D01*
X88265000Y-51858750D01*
X88106250Y-51700000D01*
X87917000Y-51696928D01*
X87792518Y-51709188D01*
X87672820Y-51745498D01*
X87562506Y-51804463D01*
X87465815Y-51883815D01*
X87386463Y-51980506D01*
X87327498Y-52090820D01*
X87291188Y-52210518D01*
X87278928Y-52335000D01*
X76932072Y-52335000D01*
X76919812Y-52210518D01*
X76883502Y-52090820D01*
X76824537Y-51980506D01*
X76745185Y-51883815D01*
X76648494Y-51804463D01*
X76538180Y-51745498D01*
X76418482Y-51709188D01*
X76294000Y-51696928D01*
X76104750Y-51700000D01*
X75946000Y-51858750D01*
X75692000Y-51858750D01*
X75533250Y-51700000D01*
X75344000Y-51696928D01*
X75219518Y-51709188D01*
X75099820Y-51745498D01*
X74989506Y-51804463D01*
X74892815Y-51883815D01*
X74813463Y-51980506D01*
X74754498Y-52090820D01*
X74718188Y-52210518D01*
X74705928Y-52335000D01*
X64232072Y-52335000D01*
X64219812Y-52210518D01*
X64183502Y-52090820D01*
X64124537Y-51980506D01*
X64045185Y-51883815D01*
X63948494Y-51804463D01*
X63838180Y-51745498D01*
X63718482Y-51709188D01*
X63594000Y-51696928D01*
X63404750Y-51700000D01*
X63246000Y-51858750D01*
X62992000Y-51858750D01*
X62833250Y-51700000D01*
X62644000Y-51696928D01*
X62519518Y-51709188D01*
X62399820Y-51745498D01*
X62289506Y-51804463D01*
X62192815Y-51883815D01*
X62113463Y-51980506D01*
X62054498Y-52090820D01*
X62018188Y-52210518D01*
X62005928Y-52335000D01*
X54948049Y-52335000D01*
X54912502Y-52217820D01*
X54853537Y-52107506D01*
X54774185Y-52010815D01*
X54677494Y-51931463D01*
X54567180Y-51872498D01*
X54447482Y-51836188D01*
X54323000Y-51823928D01*
X54133750Y-51827000D01*
X53975000Y-51985750D01*
X53721000Y-51985750D01*
X53562250Y-51827000D01*
X53373000Y-51823928D01*
X53248518Y-51836188D01*
X53128820Y-51872498D01*
X53018506Y-51931463D01*
X52921815Y-52010815D01*
X52842463Y-52107506D01*
X52783498Y-52217820D01*
X52747188Y-52337518D01*
X52734928Y-52462000D01*
X50007712Y-52462000D01*
X50008072Y-52434000D01*
X49995812Y-52309518D01*
X49959502Y-52189820D01*
X49900537Y-52079506D01*
X49821185Y-51982815D01*
X49724494Y-51903463D01*
X49614180Y-51844498D01*
X49494482Y-51808188D01*
X49370000Y-51795928D01*
X49180750Y-51799000D01*
X49022000Y-51957750D01*
X48768000Y-51957750D01*
X48609250Y-51799000D01*
X48420000Y-51795928D01*
X48295518Y-51808188D01*
X48175820Y-51844498D01*
X48065506Y-51903463D01*
X47968815Y-51982815D01*
X47889463Y-52079506D01*
X47830498Y-52189820D01*
X47794188Y-52309518D01*
X47781928Y-52434000D01*
X43230000Y-52434000D01*
X43230000Y-51231000D01*
X98375000Y-51231000D01*
X98375001Y-58963988D01*
G37*
X98375001Y-58963988D02*
X97821750Y-58967000D01*
X97663000Y-59125750D01*
X97663000Y-60325000D01*
X97683000Y-60325000D01*
X97683000Y-60579000D01*
X97663000Y-60579000D01*
X97663000Y-60599000D01*
X97409000Y-60599000D01*
X97409000Y-60579000D01*
X97389000Y-60579000D01*
X97389000Y-60325000D01*
X97409000Y-60325000D01*
X97409000Y-59125750D01*
X97250250Y-58967000D01*
X96686000Y-58963928D01*
X96561518Y-58976188D01*
X96441820Y-59012498D01*
X96331506Y-59071463D01*
X96266000Y-59125222D01*
X96266000Y-57593372D01*
X96272143Y-57530999D01*
X96266000Y-57468626D01*
X96266000Y-57468620D01*
X96247623Y-57282037D01*
X96240521Y-57258623D01*
X96175003Y-57042642D01*
X96175003Y-57042641D01*
X96057075Y-56822012D01*
X95898370Y-56628630D01*
X95849915Y-56588864D01*
X94414141Y-55153091D01*
X94374370Y-55104630D01*
X94180988Y-54945925D01*
X93960359Y-54827997D01*
X93720963Y-54755377D01*
X93534380Y-54737000D01*
X93534373Y-54737000D01*
X93472000Y-54730857D01*
X93409627Y-54737000D01*
X89505072Y-54737000D01*
X89505072Y-54322500D01*
X89488248Y-54151684D01*
X89438423Y-53987433D01*
X89357512Y-53836058D01*
X89337901Y-53812161D01*
X89397537Y-53739494D01*
X89456502Y-53629180D01*
X89492812Y-53509482D01*
X89505072Y-53385000D01*
X89502000Y-53145750D01*
X89343250Y-52987000D01*
X88519000Y-52987000D01*
X88519000Y-53007000D01*
X88265000Y-53007000D01*
X88265000Y-52987000D01*
X87440750Y-52987000D01*
X87282000Y-53145750D01*
X87278928Y-53385000D01*
X87291188Y-53509482D01*
X87327498Y-53629180D01*
X87386463Y-53739494D01*
X87446099Y-53812161D01*
X87426488Y-53836058D01*
X87345577Y-53987433D01*
X87295752Y-54151684D01*
X87278928Y-54322500D01*
X87278928Y-54337000D01*
X87274061Y-54337000D01*
X87074102Y-54376774D01*
X86885744Y-54454795D01*
X86716226Y-54568063D01*
X86572063Y-54712226D01*
X86555510Y-54737000D01*
X76932072Y-54737000D01*
X76932072Y-54322500D01*
X76915248Y-54151684D01*
X76865423Y-53987433D01*
X76784512Y-53836058D01*
X76764901Y-53812161D01*
X76824537Y-53739494D01*
X76883502Y-53629180D01*
X76919812Y-53509482D01*
X76932072Y-53385000D01*
X76929000Y-53145750D01*
X76770250Y-52987000D01*
X75946000Y-52987000D01*
X75946000Y-53007000D01*
X75692000Y-53007000D01*
X75692000Y-52987000D01*
X74867750Y-52987000D01*
X74709000Y-53145750D01*
X74705928Y-53385000D01*
X74718188Y-53509482D01*
X74754498Y-53629180D01*
X74813463Y-53739494D01*
X74873099Y-53812161D01*
X74853488Y-53836058D01*
X74772577Y-53987433D01*
X74722752Y-54151684D01*
X74711962Y-54261236D01*
X74636198Y-54337000D01*
X74574061Y-54337000D01*
X74374102Y-54376774D01*
X74185744Y-54454795D01*
X74016226Y-54568063D01*
X73872063Y-54712226D01*
X73855510Y-54737000D01*
X64232072Y-54737000D01*
X64232072Y-54322500D01*
X64215248Y-54151684D01*
X64165423Y-53987433D01*
X64084512Y-53836058D01*
X64064901Y-53812161D01*
X64124537Y-53739494D01*
X64183502Y-53629180D01*
X64219812Y-53509482D01*
X64232072Y-53385000D01*
X64229000Y-53145750D01*
X64070250Y-52987000D01*
X63246000Y-52987000D01*
X63246000Y-53007000D01*
X62992000Y-53007000D01*
X62992000Y-52987000D01*
X62167750Y-52987000D01*
X62009000Y-53145750D01*
X62005928Y-53385000D01*
X62018188Y-53509482D01*
X62054498Y-53629180D01*
X62113463Y-53739494D01*
X62173099Y-53812161D01*
X62153488Y-53836058D01*
X62072577Y-53987433D01*
X62022752Y-54151684D01*
X62011962Y-54261236D01*
X61936198Y-54337000D01*
X61874061Y-54337000D01*
X61674102Y-54376774D01*
X61485744Y-54454795D01*
X61316226Y-54568063D01*
X61172063Y-54712226D01*
X61155510Y-54737000D01*
X56658349Y-54737000D01*
X56556937Y-54585226D01*
X56412774Y-54441063D01*
X56243256Y-54327795D01*
X56054898Y-54249774D01*
X55854939Y-54210000D01*
X55651061Y-54210000D01*
X55451102Y-54249774D01*
X55262744Y-54327795D01*
X55093226Y-54441063D01*
X54961072Y-54573217D01*
X54961072Y-54449500D01*
X54944248Y-54278684D01*
X54894423Y-54114433D01*
X54813512Y-53963058D01*
X54793901Y-53939161D01*
X54853537Y-53866494D01*
X54912502Y-53756180D01*
X54948812Y-53636482D01*
X54961072Y-53512000D01*
X54958000Y-53272750D01*
X54799250Y-53114000D01*
X53975000Y-53114000D01*
X53975000Y-53134000D01*
X53721000Y-53134000D01*
X53721000Y-53114000D01*
X52896750Y-53114000D01*
X52738000Y-53272750D01*
X52734928Y-53512000D01*
X52747188Y-53636482D01*
X52783498Y-53756180D01*
X52842463Y-53866494D01*
X52902099Y-53939161D01*
X52882488Y-53963058D01*
X52801577Y-54114433D01*
X52751752Y-54278684D01*
X52734928Y-54449500D01*
X52734928Y-54737000D01*
X50008072Y-54737000D01*
X50008072Y-54421500D01*
X49991248Y-54250684D01*
X49941423Y-54086433D01*
X49860512Y-53935058D01*
X49840901Y-53911161D01*
X49900537Y-53838494D01*
X49959502Y-53728180D01*
X49995812Y-53608482D01*
X50008072Y-53484000D01*
X50005000Y-53244750D01*
X49846250Y-53086000D01*
X49022000Y-53086000D01*
X49022000Y-53106000D01*
X48768000Y-53106000D01*
X48768000Y-53086000D01*
X47943750Y-53086000D01*
X47785000Y-53244750D01*
X47781928Y-53484000D01*
X47794188Y-53608482D01*
X47830498Y-53728180D01*
X47889463Y-53838494D01*
X47949099Y-53911161D01*
X47929488Y-53935058D01*
X47848577Y-54086433D01*
X47798752Y-54250684D01*
X47781928Y-54421500D01*
X47781928Y-54733805D01*
X47752000Y-54730857D01*
X47689627Y-54737000D01*
X47689620Y-54737000D01*
X47526347Y-54753081D01*
X47503036Y-54755377D01*
X47430416Y-54777406D01*
X47263641Y-54827997D01*
X47043012Y-54945925D01*
X46849630Y-55104630D01*
X46809863Y-55153086D01*
X45882086Y-56080864D01*
X45833631Y-56120630D01*
X45674926Y-56314012D01*
X45604560Y-56445659D01*
X45556998Y-56534641D01*
X45484377Y-56774037D01*
X45459857Y-57023000D01*
X45466001Y-57085383D01*
X45466000Y-59679760D01*
X45460805Y-59687534D01*
X45391178Y-59570645D01*
X45196269Y-59354412D01*
X44962920Y-59180359D01*
X44700099Y-59055175D01*
X44552890Y-59010524D01*
X44323000Y-59131845D01*
X44323000Y-60325000D01*
X44343000Y-60325000D01*
X44343000Y-60579000D01*
X44323000Y-60579000D01*
X44323000Y-60599000D01*
X44069000Y-60599000D01*
X44069000Y-60579000D01*
X44049000Y-60579000D01*
X44049000Y-60325000D01*
X44069000Y-60325000D01*
X44069000Y-59131845D01*
X43839110Y-59010524D01*
X43691901Y-59055175D01*
X43429080Y-59180359D01*
X43230000Y-59328851D01*
X43230000Y-52434000D01*
X47781928Y-52434000D01*
X47785000Y-52673250D01*
X47943750Y-52832000D01*
X48768000Y-52832000D01*
X48768000Y-51957750D01*
X49022000Y-51957750D01*
X49022000Y-52832000D01*
X49846250Y-52832000D01*
X50005000Y-52673250D01*
X50007712Y-52462000D01*
X52734928Y-52462000D01*
X52738000Y-52701250D01*
X52896750Y-52860000D01*
X53721000Y-52860000D01*
X53721000Y-51985750D01*
X53975000Y-51985750D01*
X53975000Y-52860000D01*
X54799250Y-52860000D01*
X54958000Y-52701250D01*
X54961072Y-52462000D01*
X54948812Y-52337518D01*
X54948049Y-52335000D01*
X62005928Y-52335000D01*
X62009000Y-52574250D01*
X62167750Y-52733000D01*
X62992000Y-52733000D01*
X62992000Y-51858750D01*
X63246000Y-51858750D01*
X63246000Y-52733000D01*
X64070250Y-52733000D01*
X64229000Y-52574250D01*
X64232072Y-52335000D01*
X74705928Y-52335000D01*
X74709000Y-52574250D01*
X74867750Y-52733000D01*
X75692000Y-52733000D01*
X75692000Y-51858750D01*
X75946000Y-51858750D01*
X75946000Y-52733000D01*
X76770250Y-52733000D01*
X76929000Y-52574250D01*
X76932072Y-52335000D01*
X87278928Y-52335000D01*
X87282000Y-52574250D01*
X87440750Y-52733000D01*
X88265000Y-52733000D01*
X88265000Y-51858750D01*
X88519000Y-51858750D01*
X88519000Y-52733000D01*
X89343250Y-52733000D01*
X89502000Y-52574250D01*
X89505072Y-52335000D01*
X89492812Y-52210518D01*
X89456502Y-52090820D01*
X89397537Y-51980506D01*
X89318185Y-51883815D01*
X89221494Y-51804463D01*
X89111180Y-51745498D01*
X88991482Y-51709188D01*
X88867000Y-51696928D01*
X88677750Y-51700000D01*
X88519000Y-51858750D01*
X88265000Y-51858750D01*
X88106250Y-51700000D01*
X87917000Y-51696928D01*
X87792518Y-51709188D01*
X87672820Y-51745498D01*
X87562506Y-51804463D01*
X87465815Y-51883815D01*
X87386463Y-51980506D01*
X87327498Y-52090820D01*
X87291188Y-52210518D01*
X87278928Y-52335000D01*
X76932072Y-52335000D01*
X76919812Y-52210518D01*
X76883502Y-52090820D01*
X76824537Y-51980506D01*
X76745185Y-51883815D01*
X76648494Y-51804463D01*
X76538180Y-51745498D01*
X76418482Y-51709188D01*
X76294000Y-51696928D01*
X76104750Y-51700000D01*
X75946000Y-51858750D01*
X75692000Y-51858750D01*
X75533250Y-51700000D01*
X75344000Y-51696928D01*
X75219518Y-51709188D01*
X75099820Y-51745498D01*
X74989506Y-51804463D01*
X74892815Y-51883815D01*
X74813463Y-51980506D01*
X74754498Y-52090820D01*
X74718188Y-52210518D01*
X74705928Y-52335000D01*
X64232072Y-52335000D01*
X64219812Y-52210518D01*
X64183502Y-52090820D01*
X64124537Y-51980506D01*
X64045185Y-51883815D01*
X63948494Y-51804463D01*
X63838180Y-51745498D01*
X63718482Y-51709188D01*
X63594000Y-51696928D01*
X63404750Y-51700000D01*
X63246000Y-51858750D01*
X62992000Y-51858750D01*
X62833250Y-51700000D01*
X62644000Y-51696928D01*
X62519518Y-51709188D01*
X62399820Y-51745498D01*
X62289506Y-51804463D01*
X62192815Y-51883815D01*
X62113463Y-51980506D01*
X62054498Y-52090820D01*
X62018188Y-52210518D01*
X62005928Y-52335000D01*
X54948049Y-52335000D01*
X54912502Y-52217820D01*
X54853537Y-52107506D01*
X54774185Y-52010815D01*
X54677494Y-51931463D01*
X54567180Y-51872498D01*
X54447482Y-51836188D01*
X54323000Y-51823928D01*
X54133750Y-51827000D01*
X53975000Y-51985750D01*
X53721000Y-51985750D01*
X53562250Y-51827000D01*
X53373000Y-51823928D01*
X53248518Y-51836188D01*
X53128820Y-51872498D01*
X53018506Y-51931463D01*
X52921815Y-52010815D01*
X52842463Y-52107506D01*
X52783498Y-52217820D01*
X52747188Y-52337518D01*
X52734928Y-52462000D01*
X50007712Y-52462000D01*
X50008072Y-52434000D01*
X49995812Y-52309518D01*
X49959502Y-52189820D01*
X49900537Y-52079506D01*
X49821185Y-51982815D01*
X49724494Y-51903463D01*
X49614180Y-51844498D01*
X49494482Y-51808188D01*
X49370000Y-51795928D01*
X49180750Y-51799000D01*
X49022000Y-51957750D01*
X48768000Y-51957750D01*
X48609250Y-51799000D01*
X48420000Y-51795928D01*
X48295518Y-51808188D01*
X48175820Y-51844498D01*
X48065506Y-51903463D01*
X47968815Y-51982815D01*
X47889463Y-52079506D01*
X47830498Y-52189820D01*
X47794188Y-52309518D01*
X47781928Y-52434000D01*
X43230000Y-52434000D01*
X43230000Y-51231000D01*
X98375000Y-51231000D01*
X98375001Y-58963988D01*
G36*
X93726000Y-58057051D02*
G01*
X93726001Y-59679759D01*
X93726000Y-59679760D01*
X93609475Y-59505368D01*
X93402632Y-59298525D01*
X93159411Y-59136010D01*
X92889158Y-59024068D01*
X92602260Y-58967000D01*
X92309740Y-58967000D01*
X92022842Y-59024068D01*
X91752589Y-59136010D01*
X91509368Y-59298525D01*
X91302525Y-59505368D01*
X91186000Y-59679760D01*
X91069475Y-59505368D01*
X90862632Y-59298525D01*
X90619411Y-59136010D01*
X90349158Y-59024068D01*
X90062260Y-58967000D01*
X89769740Y-58967000D01*
X89482842Y-59024068D01*
X89212589Y-59136010D01*
X88969368Y-59298525D01*
X88762525Y-59505368D01*
X88646000Y-59679760D01*
X88529475Y-59505368D01*
X88322632Y-59298525D01*
X88079411Y-59136010D01*
X87809158Y-59024068D01*
X87522260Y-58967000D01*
X87229740Y-58967000D01*
X86942842Y-59024068D01*
X86672589Y-59136010D01*
X86429368Y-59298525D01*
X86222525Y-59505368D01*
X86106000Y-59679760D01*
X85989475Y-59505368D01*
X85782632Y-59298525D01*
X85539411Y-59136010D01*
X85269158Y-59024068D01*
X84982260Y-58967000D01*
X84689740Y-58967000D01*
X84402842Y-59024068D01*
X84132589Y-59136010D01*
X83889368Y-59298525D01*
X83682525Y-59505368D01*
X83566000Y-59679760D01*
X83449475Y-59505368D01*
X83242632Y-59298525D01*
X82999411Y-59136010D01*
X82729158Y-59024068D01*
X82442260Y-58967000D01*
X82149740Y-58967000D01*
X81862842Y-59024068D01*
X81592589Y-59136010D01*
X81349368Y-59298525D01*
X81142525Y-59505368D01*
X81026000Y-59679760D01*
X80909475Y-59505368D01*
X80702632Y-59298525D01*
X80459411Y-59136010D01*
X80189158Y-59024068D01*
X79902260Y-58967000D01*
X79609740Y-58967000D01*
X79322842Y-59024068D01*
X79052589Y-59136010D01*
X78809368Y-59298525D01*
X78602525Y-59505368D01*
X78486000Y-59679760D01*
X78369475Y-59505368D01*
X78162632Y-59298525D01*
X77919411Y-59136010D01*
X77649158Y-59024068D01*
X77362260Y-58967000D01*
X77069740Y-58967000D01*
X76782842Y-59024068D01*
X76512589Y-59136010D01*
X76269368Y-59298525D01*
X76062525Y-59505368D01*
X75946000Y-59679760D01*
X75829475Y-59505368D01*
X75622632Y-59298525D01*
X75379411Y-59136010D01*
X75109158Y-59024068D01*
X74822260Y-58967000D01*
X74529740Y-58967000D01*
X74242842Y-59024068D01*
X73972589Y-59136010D01*
X73729368Y-59298525D01*
X73522525Y-59505368D01*
X73406000Y-59679760D01*
X73289475Y-59505368D01*
X73082632Y-59298525D01*
X72839411Y-59136010D01*
X72569158Y-59024068D01*
X72282260Y-58967000D01*
X71989740Y-58967000D01*
X71702842Y-59024068D01*
X71432589Y-59136010D01*
X71189368Y-59298525D01*
X70982525Y-59505368D01*
X70866000Y-59679760D01*
X70749475Y-59505368D01*
X70542632Y-59298525D01*
X70299411Y-59136010D01*
X70029158Y-59024068D01*
X69742260Y-58967000D01*
X69449740Y-58967000D01*
X69162842Y-59024068D01*
X68892589Y-59136010D01*
X68649368Y-59298525D01*
X68442525Y-59505368D01*
X68326000Y-59679760D01*
X68209475Y-59505368D01*
X68002632Y-59298525D01*
X67759411Y-59136010D01*
X67489158Y-59024068D01*
X67202260Y-58967000D01*
X66909740Y-58967000D01*
X66622842Y-59024068D01*
X66352589Y-59136010D01*
X66109368Y-59298525D01*
X65902525Y-59505368D01*
X65786000Y-59679760D01*
X65669475Y-59505368D01*
X65462632Y-59298525D01*
X65219411Y-59136010D01*
X64949158Y-59024068D01*
X64662260Y-58967000D01*
X64369740Y-58967000D01*
X64082842Y-59024068D01*
X63812589Y-59136010D01*
X63569368Y-59298525D01*
X63362525Y-59505368D01*
X63246000Y-59679760D01*
X63129475Y-59505368D01*
X62922632Y-59298525D01*
X62679411Y-59136010D01*
X62409158Y-59024068D01*
X62122260Y-58967000D01*
X61829740Y-58967000D01*
X61542842Y-59024068D01*
X61272589Y-59136010D01*
X61029368Y-59298525D01*
X60822525Y-59505368D01*
X60706000Y-59679760D01*
X60589475Y-59505368D01*
X60382632Y-59298525D01*
X60139411Y-59136010D01*
X59869158Y-59024068D01*
X59582260Y-58967000D01*
X59289740Y-58967000D01*
X59002842Y-59024068D01*
X58732589Y-59136010D01*
X58489368Y-59298525D01*
X58282525Y-59505368D01*
X58166000Y-59679760D01*
X58049475Y-59505368D01*
X57842632Y-59298525D01*
X57599411Y-59136010D01*
X57329158Y-59024068D01*
X57042260Y-58967000D01*
X56749740Y-58967000D01*
X56462842Y-59024068D01*
X56192589Y-59136010D01*
X55949368Y-59298525D01*
X55742525Y-59505368D01*
X55626000Y-59679760D01*
X55509475Y-59505368D01*
X55302632Y-59298525D01*
X55059411Y-59136010D01*
X54789158Y-59024068D01*
X54502260Y-58967000D01*
X54209740Y-58967000D01*
X53922842Y-59024068D01*
X53652589Y-59136010D01*
X53409368Y-59298525D01*
X53202525Y-59505368D01*
X53086000Y-59679760D01*
X52969475Y-59505368D01*
X52762632Y-59298525D01*
X52519411Y-59136010D01*
X52249158Y-59024068D01*
X51962260Y-58967000D01*
X51669740Y-58967000D01*
X51382842Y-59024068D01*
X51112589Y-59136010D01*
X50869368Y-59298525D01*
X50662525Y-59505368D01*
X50546000Y-59679760D01*
X50429475Y-59505368D01*
X50222632Y-59298525D01*
X49979411Y-59136010D01*
X49709158Y-59024068D01*
X49422260Y-58967000D01*
X49129740Y-58967000D01*
X48842842Y-59024068D01*
X48572589Y-59136010D01*
X48329368Y-59298525D01*
X48122525Y-59505368D01*
X48006000Y-59679760D01*
X48006000Y-57549050D01*
X48278051Y-57277000D01*
X92945950Y-57277000D01*
X93726000Y-58057051D01*
G37*
X93726000Y-58057051D02*
X93726001Y-59679759D01*
X93726000Y-59679760D01*
X93609475Y-59505368D01*
X93402632Y-59298525D01*
X93159411Y-59136010D01*
X92889158Y-59024068D01*
X92602260Y-58967000D01*
X92309740Y-58967000D01*
X92022842Y-59024068D01*
X91752589Y-59136010D01*
X91509368Y-59298525D01*
X91302525Y-59505368D01*
X91186000Y-59679760D01*
X91069475Y-59505368D01*
X90862632Y-59298525D01*
X90619411Y-59136010D01*
X90349158Y-59024068D01*
X90062260Y-58967000D01*
X89769740Y-58967000D01*
X89482842Y-59024068D01*
X89212589Y-59136010D01*
X88969368Y-59298525D01*
X88762525Y-59505368D01*
X88646000Y-59679760D01*
X88529475Y-59505368D01*
X88322632Y-59298525D01*
X88079411Y-59136010D01*
X87809158Y-59024068D01*
X87522260Y-58967000D01*
X87229740Y-58967000D01*
X86942842Y-59024068D01*
X86672589Y-59136010D01*
X86429368Y-59298525D01*
X86222525Y-59505368D01*
X86106000Y-59679760D01*
X85989475Y-59505368D01*
X85782632Y-59298525D01*
X85539411Y-59136010D01*
X85269158Y-59024068D01*
X84982260Y-58967000D01*
X84689740Y-58967000D01*
X84402842Y-59024068D01*
X84132589Y-59136010D01*
X83889368Y-59298525D01*
X83682525Y-59505368D01*
X83566000Y-59679760D01*
X83449475Y-59505368D01*
X83242632Y-59298525D01*
X82999411Y-59136010D01*
X82729158Y-59024068D01*
X82442260Y-58967000D01*
X82149740Y-58967000D01*
X81862842Y-59024068D01*
X81592589Y-59136010D01*
X81349368Y-59298525D01*
X81142525Y-59505368D01*
X81026000Y-59679760D01*
X80909475Y-59505368D01*
X80702632Y-59298525D01*
X80459411Y-59136010D01*
X80189158Y-59024068D01*
X79902260Y-58967000D01*
X79609740Y-58967000D01*
X79322842Y-59024068D01*
X79052589Y-59136010D01*
X78809368Y-59298525D01*
X78602525Y-59505368D01*
X78486000Y-59679760D01*
X78369475Y-59505368D01*
X78162632Y-59298525D01*
X77919411Y-59136010D01*
X77649158Y-59024068D01*
X77362260Y-58967000D01*
X77069740Y-58967000D01*
X76782842Y-59024068D01*
X76512589Y-59136010D01*
X76269368Y-59298525D01*
X76062525Y-59505368D01*
X75946000Y-59679760D01*
X75829475Y-59505368D01*
X75622632Y-59298525D01*
X75379411Y-59136010D01*
X75109158Y-59024068D01*
X74822260Y-58967000D01*
X74529740Y-58967000D01*
X74242842Y-59024068D01*
X73972589Y-59136010D01*
X73729368Y-59298525D01*
X73522525Y-59505368D01*
X73406000Y-59679760D01*
X73289475Y-59505368D01*
X73082632Y-59298525D01*
X72839411Y-59136010D01*
X72569158Y-59024068D01*
X72282260Y-58967000D01*
X71989740Y-58967000D01*
X71702842Y-59024068D01*
X71432589Y-59136010D01*
X71189368Y-59298525D01*
X70982525Y-59505368D01*
X70866000Y-59679760D01*
X70749475Y-59505368D01*
X70542632Y-59298525D01*
X70299411Y-59136010D01*
X70029158Y-59024068D01*
X69742260Y-58967000D01*
X69449740Y-58967000D01*
X69162842Y-59024068D01*
X68892589Y-59136010D01*
X68649368Y-59298525D01*
X68442525Y-59505368D01*
X68326000Y-59679760D01*
X68209475Y-59505368D01*
X68002632Y-59298525D01*
X67759411Y-59136010D01*
X67489158Y-59024068D01*
X67202260Y-58967000D01*
X66909740Y-58967000D01*
X66622842Y-59024068D01*
X66352589Y-59136010D01*
X66109368Y-59298525D01*
X65902525Y-59505368D01*
X65786000Y-59679760D01*
X65669475Y-59505368D01*
X65462632Y-59298525D01*
X65219411Y-59136010D01*
X64949158Y-59024068D01*
X64662260Y-58967000D01*
X64369740Y-58967000D01*
X64082842Y-59024068D01*
X63812589Y-59136010D01*
X63569368Y-59298525D01*
X63362525Y-59505368D01*
X63246000Y-59679760D01*
X63129475Y-59505368D01*
X62922632Y-59298525D01*
X62679411Y-59136010D01*
X62409158Y-59024068D01*
X62122260Y-58967000D01*
X61829740Y-58967000D01*
X61542842Y-59024068D01*
X61272589Y-59136010D01*
X61029368Y-59298525D01*
X60822525Y-59505368D01*
X60706000Y-59679760D01*
X60589475Y-59505368D01*
X60382632Y-59298525D01*
X60139411Y-59136010D01*
X59869158Y-59024068D01*
X59582260Y-58967000D01*
X59289740Y-58967000D01*
X59002842Y-59024068D01*
X58732589Y-59136010D01*
X58489368Y-59298525D01*
X58282525Y-59505368D01*
X58166000Y-59679760D01*
X58049475Y-59505368D01*
X57842632Y-59298525D01*
X57599411Y-59136010D01*
X57329158Y-59024068D01*
X57042260Y-58967000D01*
X56749740Y-58967000D01*
X56462842Y-59024068D01*
X56192589Y-59136010D01*
X55949368Y-59298525D01*
X55742525Y-59505368D01*
X55626000Y-59679760D01*
X55509475Y-59505368D01*
X55302632Y-59298525D01*
X55059411Y-59136010D01*
X54789158Y-59024068D01*
X54502260Y-58967000D01*
X54209740Y-58967000D01*
X53922842Y-59024068D01*
X53652589Y-59136010D01*
X53409368Y-59298525D01*
X53202525Y-59505368D01*
X53086000Y-59679760D01*
X52969475Y-59505368D01*
X52762632Y-59298525D01*
X52519411Y-59136010D01*
X52249158Y-59024068D01*
X51962260Y-58967000D01*
X51669740Y-58967000D01*
X51382842Y-59024068D01*
X51112589Y-59136010D01*
X50869368Y-59298525D01*
X50662525Y-59505368D01*
X50546000Y-59679760D01*
X50429475Y-59505368D01*
X50222632Y-59298525D01*
X49979411Y-59136010D01*
X49709158Y-59024068D01*
X49422260Y-58967000D01*
X49129740Y-58967000D01*
X48842842Y-59024068D01*
X48572589Y-59136010D01*
X48329368Y-59298525D01*
X48122525Y-59505368D01*
X48006000Y-59679760D01*
X48006000Y-57549050D01*
X48278051Y-57277000D01*
X92945950Y-57277000D01*
X93726000Y-58057051D01*
M02*
