G04 #@! TF.GenerationSoftware,KiCad,Pcbnew,(5.1.6-0)*
G04 #@! TF.CreationDate,2023-03-04T09:46:59+01:00*
G04 #@! TF.ProjectId,Vidiot,56696469-6f74-42e6-9b69-6361645f7063,rev?*
G04 #@! TF.SameCoordinates,Original*
G04 #@! TF.FileFunction,Soldermask,Bot*
G04 #@! TF.FilePolarity,Negative*
%FSLAX46Y46*%
G04 Gerber Fmt 4.6, Leading zero omitted, Abs format (unit mm)*
G04 Created by KiCad (PCBNEW (5.1.6-0)) date 2023-03-04 09:46:59*
%MOMM*%
%LPD*%
G01*
G04 APERTURE LIST*
%ADD10C,0.100000*%
G04 APERTURE END LIST*
D10*
G36*
X98437000Y-61353000D02*
G01*
X96635000Y-61353000D01*
X96635000Y-59551000D01*
X98437000Y-59551000D01*
X98437000Y-61353000D01*
G37*
G36*
X95109512Y-59555927D02*
G01*
X95258812Y-59585624D01*
X95422784Y-59653544D01*
X95570354Y-59752147D01*
X95695853Y-59877646D01*
X95794456Y-60025216D01*
X95862376Y-60189188D01*
X95897000Y-60363259D01*
X95897000Y-60540741D01*
X95862376Y-60714812D01*
X95794456Y-60878784D01*
X95695853Y-61026354D01*
X95570354Y-61151853D01*
X95422784Y-61250456D01*
X95258812Y-61318376D01*
X95109512Y-61348073D01*
X95084742Y-61353000D01*
X94907258Y-61353000D01*
X94882488Y-61348073D01*
X94733188Y-61318376D01*
X94569216Y-61250456D01*
X94421646Y-61151853D01*
X94296147Y-61026354D01*
X94197544Y-60878784D01*
X94129624Y-60714812D01*
X94095000Y-60540741D01*
X94095000Y-60363259D01*
X94129624Y-60189188D01*
X94197544Y-60025216D01*
X94296147Y-59877646D01*
X94421646Y-59752147D01*
X94569216Y-59653544D01*
X94733188Y-59585624D01*
X94882488Y-59555927D01*
X94907258Y-59551000D01*
X95084742Y-59551000D01*
X95109512Y-59555927D01*
G37*
G36*
X92569512Y-59555927D02*
G01*
X92718812Y-59585624D01*
X92882784Y-59653544D01*
X93030354Y-59752147D01*
X93155853Y-59877646D01*
X93254456Y-60025216D01*
X93322376Y-60189188D01*
X93357000Y-60363259D01*
X93357000Y-60540741D01*
X93322376Y-60714812D01*
X93254456Y-60878784D01*
X93155853Y-61026354D01*
X93030354Y-61151853D01*
X92882784Y-61250456D01*
X92718812Y-61318376D01*
X92569512Y-61348073D01*
X92544742Y-61353000D01*
X92367258Y-61353000D01*
X92342488Y-61348073D01*
X92193188Y-61318376D01*
X92029216Y-61250456D01*
X91881646Y-61151853D01*
X91756147Y-61026354D01*
X91657544Y-60878784D01*
X91589624Y-60714812D01*
X91555000Y-60540741D01*
X91555000Y-60363259D01*
X91589624Y-60189188D01*
X91657544Y-60025216D01*
X91756147Y-59877646D01*
X91881646Y-59752147D01*
X92029216Y-59653544D01*
X92193188Y-59585624D01*
X92342488Y-59555927D01*
X92367258Y-59551000D01*
X92544742Y-59551000D01*
X92569512Y-59555927D01*
G37*
G36*
X90029512Y-59555927D02*
G01*
X90178812Y-59585624D01*
X90342784Y-59653544D01*
X90490354Y-59752147D01*
X90615853Y-59877646D01*
X90714456Y-60025216D01*
X90782376Y-60189188D01*
X90817000Y-60363259D01*
X90817000Y-60540741D01*
X90782376Y-60714812D01*
X90714456Y-60878784D01*
X90615853Y-61026354D01*
X90490354Y-61151853D01*
X90342784Y-61250456D01*
X90178812Y-61318376D01*
X90029512Y-61348073D01*
X90004742Y-61353000D01*
X89827258Y-61353000D01*
X89802488Y-61348073D01*
X89653188Y-61318376D01*
X89489216Y-61250456D01*
X89341646Y-61151853D01*
X89216147Y-61026354D01*
X89117544Y-60878784D01*
X89049624Y-60714812D01*
X89015000Y-60540741D01*
X89015000Y-60363259D01*
X89049624Y-60189188D01*
X89117544Y-60025216D01*
X89216147Y-59877646D01*
X89341646Y-59752147D01*
X89489216Y-59653544D01*
X89653188Y-59585624D01*
X89802488Y-59555927D01*
X89827258Y-59551000D01*
X90004742Y-59551000D01*
X90029512Y-59555927D01*
G37*
G36*
X87489512Y-59555927D02*
G01*
X87638812Y-59585624D01*
X87802784Y-59653544D01*
X87950354Y-59752147D01*
X88075853Y-59877646D01*
X88174456Y-60025216D01*
X88242376Y-60189188D01*
X88277000Y-60363259D01*
X88277000Y-60540741D01*
X88242376Y-60714812D01*
X88174456Y-60878784D01*
X88075853Y-61026354D01*
X87950354Y-61151853D01*
X87802784Y-61250456D01*
X87638812Y-61318376D01*
X87489512Y-61348073D01*
X87464742Y-61353000D01*
X87287258Y-61353000D01*
X87262488Y-61348073D01*
X87113188Y-61318376D01*
X86949216Y-61250456D01*
X86801646Y-61151853D01*
X86676147Y-61026354D01*
X86577544Y-60878784D01*
X86509624Y-60714812D01*
X86475000Y-60540741D01*
X86475000Y-60363259D01*
X86509624Y-60189188D01*
X86577544Y-60025216D01*
X86676147Y-59877646D01*
X86801646Y-59752147D01*
X86949216Y-59653544D01*
X87113188Y-59585624D01*
X87262488Y-59555927D01*
X87287258Y-59551000D01*
X87464742Y-59551000D01*
X87489512Y-59555927D01*
G37*
G36*
X84949512Y-59555927D02*
G01*
X85098812Y-59585624D01*
X85262784Y-59653544D01*
X85410354Y-59752147D01*
X85535853Y-59877646D01*
X85634456Y-60025216D01*
X85702376Y-60189188D01*
X85737000Y-60363259D01*
X85737000Y-60540741D01*
X85702376Y-60714812D01*
X85634456Y-60878784D01*
X85535853Y-61026354D01*
X85410354Y-61151853D01*
X85262784Y-61250456D01*
X85098812Y-61318376D01*
X84949512Y-61348073D01*
X84924742Y-61353000D01*
X84747258Y-61353000D01*
X84722488Y-61348073D01*
X84573188Y-61318376D01*
X84409216Y-61250456D01*
X84261646Y-61151853D01*
X84136147Y-61026354D01*
X84037544Y-60878784D01*
X83969624Y-60714812D01*
X83935000Y-60540741D01*
X83935000Y-60363259D01*
X83969624Y-60189188D01*
X84037544Y-60025216D01*
X84136147Y-59877646D01*
X84261646Y-59752147D01*
X84409216Y-59653544D01*
X84573188Y-59585624D01*
X84722488Y-59555927D01*
X84747258Y-59551000D01*
X84924742Y-59551000D01*
X84949512Y-59555927D01*
G37*
G36*
X82409512Y-59555927D02*
G01*
X82558812Y-59585624D01*
X82722784Y-59653544D01*
X82870354Y-59752147D01*
X82995853Y-59877646D01*
X83094456Y-60025216D01*
X83162376Y-60189188D01*
X83197000Y-60363259D01*
X83197000Y-60540741D01*
X83162376Y-60714812D01*
X83094456Y-60878784D01*
X82995853Y-61026354D01*
X82870354Y-61151853D01*
X82722784Y-61250456D01*
X82558812Y-61318376D01*
X82409512Y-61348073D01*
X82384742Y-61353000D01*
X82207258Y-61353000D01*
X82182488Y-61348073D01*
X82033188Y-61318376D01*
X81869216Y-61250456D01*
X81721646Y-61151853D01*
X81596147Y-61026354D01*
X81497544Y-60878784D01*
X81429624Y-60714812D01*
X81395000Y-60540741D01*
X81395000Y-60363259D01*
X81429624Y-60189188D01*
X81497544Y-60025216D01*
X81596147Y-59877646D01*
X81721646Y-59752147D01*
X81869216Y-59653544D01*
X82033188Y-59585624D01*
X82182488Y-59555927D01*
X82207258Y-59551000D01*
X82384742Y-59551000D01*
X82409512Y-59555927D01*
G37*
G36*
X79869512Y-59555927D02*
G01*
X80018812Y-59585624D01*
X80182784Y-59653544D01*
X80330354Y-59752147D01*
X80455853Y-59877646D01*
X80554456Y-60025216D01*
X80622376Y-60189188D01*
X80657000Y-60363259D01*
X80657000Y-60540741D01*
X80622376Y-60714812D01*
X80554456Y-60878784D01*
X80455853Y-61026354D01*
X80330354Y-61151853D01*
X80182784Y-61250456D01*
X80018812Y-61318376D01*
X79869512Y-61348073D01*
X79844742Y-61353000D01*
X79667258Y-61353000D01*
X79642488Y-61348073D01*
X79493188Y-61318376D01*
X79329216Y-61250456D01*
X79181646Y-61151853D01*
X79056147Y-61026354D01*
X78957544Y-60878784D01*
X78889624Y-60714812D01*
X78855000Y-60540741D01*
X78855000Y-60363259D01*
X78889624Y-60189188D01*
X78957544Y-60025216D01*
X79056147Y-59877646D01*
X79181646Y-59752147D01*
X79329216Y-59653544D01*
X79493188Y-59585624D01*
X79642488Y-59555927D01*
X79667258Y-59551000D01*
X79844742Y-59551000D01*
X79869512Y-59555927D01*
G37*
G36*
X77329512Y-59555927D02*
G01*
X77478812Y-59585624D01*
X77642784Y-59653544D01*
X77790354Y-59752147D01*
X77915853Y-59877646D01*
X78014456Y-60025216D01*
X78082376Y-60189188D01*
X78117000Y-60363259D01*
X78117000Y-60540741D01*
X78082376Y-60714812D01*
X78014456Y-60878784D01*
X77915853Y-61026354D01*
X77790354Y-61151853D01*
X77642784Y-61250456D01*
X77478812Y-61318376D01*
X77329512Y-61348073D01*
X77304742Y-61353000D01*
X77127258Y-61353000D01*
X77102488Y-61348073D01*
X76953188Y-61318376D01*
X76789216Y-61250456D01*
X76641646Y-61151853D01*
X76516147Y-61026354D01*
X76417544Y-60878784D01*
X76349624Y-60714812D01*
X76315000Y-60540741D01*
X76315000Y-60363259D01*
X76349624Y-60189188D01*
X76417544Y-60025216D01*
X76516147Y-59877646D01*
X76641646Y-59752147D01*
X76789216Y-59653544D01*
X76953188Y-59585624D01*
X77102488Y-59555927D01*
X77127258Y-59551000D01*
X77304742Y-59551000D01*
X77329512Y-59555927D01*
G37*
G36*
X74789512Y-59555927D02*
G01*
X74938812Y-59585624D01*
X75102784Y-59653544D01*
X75250354Y-59752147D01*
X75375853Y-59877646D01*
X75474456Y-60025216D01*
X75542376Y-60189188D01*
X75577000Y-60363259D01*
X75577000Y-60540741D01*
X75542376Y-60714812D01*
X75474456Y-60878784D01*
X75375853Y-61026354D01*
X75250354Y-61151853D01*
X75102784Y-61250456D01*
X74938812Y-61318376D01*
X74789512Y-61348073D01*
X74764742Y-61353000D01*
X74587258Y-61353000D01*
X74562488Y-61348073D01*
X74413188Y-61318376D01*
X74249216Y-61250456D01*
X74101646Y-61151853D01*
X73976147Y-61026354D01*
X73877544Y-60878784D01*
X73809624Y-60714812D01*
X73775000Y-60540741D01*
X73775000Y-60363259D01*
X73809624Y-60189188D01*
X73877544Y-60025216D01*
X73976147Y-59877646D01*
X74101646Y-59752147D01*
X74249216Y-59653544D01*
X74413188Y-59585624D01*
X74562488Y-59555927D01*
X74587258Y-59551000D01*
X74764742Y-59551000D01*
X74789512Y-59555927D01*
G37*
G36*
X72249512Y-59555927D02*
G01*
X72398812Y-59585624D01*
X72562784Y-59653544D01*
X72710354Y-59752147D01*
X72835853Y-59877646D01*
X72934456Y-60025216D01*
X73002376Y-60189188D01*
X73037000Y-60363259D01*
X73037000Y-60540741D01*
X73002376Y-60714812D01*
X72934456Y-60878784D01*
X72835853Y-61026354D01*
X72710354Y-61151853D01*
X72562784Y-61250456D01*
X72398812Y-61318376D01*
X72249512Y-61348073D01*
X72224742Y-61353000D01*
X72047258Y-61353000D01*
X72022488Y-61348073D01*
X71873188Y-61318376D01*
X71709216Y-61250456D01*
X71561646Y-61151853D01*
X71436147Y-61026354D01*
X71337544Y-60878784D01*
X71269624Y-60714812D01*
X71235000Y-60540741D01*
X71235000Y-60363259D01*
X71269624Y-60189188D01*
X71337544Y-60025216D01*
X71436147Y-59877646D01*
X71561646Y-59752147D01*
X71709216Y-59653544D01*
X71873188Y-59585624D01*
X72022488Y-59555927D01*
X72047258Y-59551000D01*
X72224742Y-59551000D01*
X72249512Y-59555927D01*
G37*
G36*
X69709512Y-59555927D02*
G01*
X69858812Y-59585624D01*
X70022784Y-59653544D01*
X70170354Y-59752147D01*
X70295853Y-59877646D01*
X70394456Y-60025216D01*
X70462376Y-60189188D01*
X70497000Y-60363259D01*
X70497000Y-60540741D01*
X70462376Y-60714812D01*
X70394456Y-60878784D01*
X70295853Y-61026354D01*
X70170354Y-61151853D01*
X70022784Y-61250456D01*
X69858812Y-61318376D01*
X69709512Y-61348073D01*
X69684742Y-61353000D01*
X69507258Y-61353000D01*
X69482488Y-61348073D01*
X69333188Y-61318376D01*
X69169216Y-61250456D01*
X69021646Y-61151853D01*
X68896147Y-61026354D01*
X68797544Y-60878784D01*
X68729624Y-60714812D01*
X68695000Y-60540741D01*
X68695000Y-60363259D01*
X68729624Y-60189188D01*
X68797544Y-60025216D01*
X68896147Y-59877646D01*
X69021646Y-59752147D01*
X69169216Y-59653544D01*
X69333188Y-59585624D01*
X69482488Y-59555927D01*
X69507258Y-59551000D01*
X69684742Y-59551000D01*
X69709512Y-59555927D01*
G37*
G36*
X67169512Y-59555927D02*
G01*
X67318812Y-59585624D01*
X67482784Y-59653544D01*
X67630354Y-59752147D01*
X67755853Y-59877646D01*
X67854456Y-60025216D01*
X67922376Y-60189188D01*
X67957000Y-60363259D01*
X67957000Y-60540741D01*
X67922376Y-60714812D01*
X67854456Y-60878784D01*
X67755853Y-61026354D01*
X67630354Y-61151853D01*
X67482784Y-61250456D01*
X67318812Y-61318376D01*
X67169512Y-61348073D01*
X67144742Y-61353000D01*
X66967258Y-61353000D01*
X66942488Y-61348073D01*
X66793188Y-61318376D01*
X66629216Y-61250456D01*
X66481646Y-61151853D01*
X66356147Y-61026354D01*
X66257544Y-60878784D01*
X66189624Y-60714812D01*
X66155000Y-60540741D01*
X66155000Y-60363259D01*
X66189624Y-60189188D01*
X66257544Y-60025216D01*
X66356147Y-59877646D01*
X66481646Y-59752147D01*
X66629216Y-59653544D01*
X66793188Y-59585624D01*
X66942488Y-59555927D01*
X66967258Y-59551000D01*
X67144742Y-59551000D01*
X67169512Y-59555927D01*
G37*
G36*
X64629512Y-59555927D02*
G01*
X64778812Y-59585624D01*
X64942784Y-59653544D01*
X65090354Y-59752147D01*
X65215853Y-59877646D01*
X65314456Y-60025216D01*
X65382376Y-60189188D01*
X65417000Y-60363259D01*
X65417000Y-60540741D01*
X65382376Y-60714812D01*
X65314456Y-60878784D01*
X65215853Y-61026354D01*
X65090354Y-61151853D01*
X64942784Y-61250456D01*
X64778812Y-61318376D01*
X64629512Y-61348073D01*
X64604742Y-61353000D01*
X64427258Y-61353000D01*
X64402488Y-61348073D01*
X64253188Y-61318376D01*
X64089216Y-61250456D01*
X63941646Y-61151853D01*
X63816147Y-61026354D01*
X63717544Y-60878784D01*
X63649624Y-60714812D01*
X63615000Y-60540741D01*
X63615000Y-60363259D01*
X63649624Y-60189188D01*
X63717544Y-60025216D01*
X63816147Y-59877646D01*
X63941646Y-59752147D01*
X64089216Y-59653544D01*
X64253188Y-59585624D01*
X64402488Y-59555927D01*
X64427258Y-59551000D01*
X64604742Y-59551000D01*
X64629512Y-59555927D01*
G37*
G36*
X62089512Y-59555927D02*
G01*
X62238812Y-59585624D01*
X62402784Y-59653544D01*
X62550354Y-59752147D01*
X62675853Y-59877646D01*
X62774456Y-60025216D01*
X62842376Y-60189188D01*
X62877000Y-60363259D01*
X62877000Y-60540741D01*
X62842376Y-60714812D01*
X62774456Y-60878784D01*
X62675853Y-61026354D01*
X62550354Y-61151853D01*
X62402784Y-61250456D01*
X62238812Y-61318376D01*
X62089512Y-61348073D01*
X62064742Y-61353000D01*
X61887258Y-61353000D01*
X61862488Y-61348073D01*
X61713188Y-61318376D01*
X61549216Y-61250456D01*
X61401646Y-61151853D01*
X61276147Y-61026354D01*
X61177544Y-60878784D01*
X61109624Y-60714812D01*
X61075000Y-60540741D01*
X61075000Y-60363259D01*
X61109624Y-60189188D01*
X61177544Y-60025216D01*
X61276147Y-59877646D01*
X61401646Y-59752147D01*
X61549216Y-59653544D01*
X61713188Y-59585624D01*
X61862488Y-59555927D01*
X61887258Y-59551000D01*
X62064742Y-59551000D01*
X62089512Y-59555927D01*
G37*
G36*
X59549512Y-59555927D02*
G01*
X59698812Y-59585624D01*
X59862784Y-59653544D01*
X60010354Y-59752147D01*
X60135853Y-59877646D01*
X60234456Y-60025216D01*
X60302376Y-60189188D01*
X60337000Y-60363259D01*
X60337000Y-60540741D01*
X60302376Y-60714812D01*
X60234456Y-60878784D01*
X60135853Y-61026354D01*
X60010354Y-61151853D01*
X59862784Y-61250456D01*
X59698812Y-61318376D01*
X59549512Y-61348073D01*
X59524742Y-61353000D01*
X59347258Y-61353000D01*
X59322488Y-61348073D01*
X59173188Y-61318376D01*
X59009216Y-61250456D01*
X58861646Y-61151853D01*
X58736147Y-61026354D01*
X58637544Y-60878784D01*
X58569624Y-60714812D01*
X58535000Y-60540741D01*
X58535000Y-60363259D01*
X58569624Y-60189188D01*
X58637544Y-60025216D01*
X58736147Y-59877646D01*
X58861646Y-59752147D01*
X59009216Y-59653544D01*
X59173188Y-59585624D01*
X59322488Y-59555927D01*
X59347258Y-59551000D01*
X59524742Y-59551000D01*
X59549512Y-59555927D01*
G37*
G36*
X57009512Y-59555927D02*
G01*
X57158812Y-59585624D01*
X57322784Y-59653544D01*
X57470354Y-59752147D01*
X57595853Y-59877646D01*
X57694456Y-60025216D01*
X57762376Y-60189188D01*
X57797000Y-60363259D01*
X57797000Y-60540741D01*
X57762376Y-60714812D01*
X57694456Y-60878784D01*
X57595853Y-61026354D01*
X57470354Y-61151853D01*
X57322784Y-61250456D01*
X57158812Y-61318376D01*
X57009512Y-61348073D01*
X56984742Y-61353000D01*
X56807258Y-61353000D01*
X56782488Y-61348073D01*
X56633188Y-61318376D01*
X56469216Y-61250456D01*
X56321646Y-61151853D01*
X56196147Y-61026354D01*
X56097544Y-60878784D01*
X56029624Y-60714812D01*
X55995000Y-60540741D01*
X55995000Y-60363259D01*
X56029624Y-60189188D01*
X56097544Y-60025216D01*
X56196147Y-59877646D01*
X56321646Y-59752147D01*
X56469216Y-59653544D01*
X56633188Y-59585624D01*
X56782488Y-59555927D01*
X56807258Y-59551000D01*
X56984742Y-59551000D01*
X57009512Y-59555927D01*
G37*
G36*
X54469512Y-59555927D02*
G01*
X54618812Y-59585624D01*
X54782784Y-59653544D01*
X54930354Y-59752147D01*
X55055853Y-59877646D01*
X55154456Y-60025216D01*
X55222376Y-60189188D01*
X55257000Y-60363259D01*
X55257000Y-60540741D01*
X55222376Y-60714812D01*
X55154456Y-60878784D01*
X55055853Y-61026354D01*
X54930354Y-61151853D01*
X54782784Y-61250456D01*
X54618812Y-61318376D01*
X54469512Y-61348073D01*
X54444742Y-61353000D01*
X54267258Y-61353000D01*
X54242488Y-61348073D01*
X54093188Y-61318376D01*
X53929216Y-61250456D01*
X53781646Y-61151853D01*
X53656147Y-61026354D01*
X53557544Y-60878784D01*
X53489624Y-60714812D01*
X53455000Y-60540741D01*
X53455000Y-60363259D01*
X53489624Y-60189188D01*
X53557544Y-60025216D01*
X53656147Y-59877646D01*
X53781646Y-59752147D01*
X53929216Y-59653544D01*
X54093188Y-59585624D01*
X54242488Y-59555927D01*
X54267258Y-59551000D01*
X54444742Y-59551000D01*
X54469512Y-59555927D01*
G37*
G36*
X51929512Y-59555927D02*
G01*
X52078812Y-59585624D01*
X52242784Y-59653544D01*
X52390354Y-59752147D01*
X52515853Y-59877646D01*
X52614456Y-60025216D01*
X52682376Y-60189188D01*
X52717000Y-60363259D01*
X52717000Y-60540741D01*
X52682376Y-60714812D01*
X52614456Y-60878784D01*
X52515853Y-61026354D01*
X52390354Y-61151853D01*
X52242784Y-61250456D01*
X52078812Y-61318376D01*
X51929512Y-61348073D01*
X51904742Y-61353000D01*
X51727258Y-61353000D01*
X51702488Y-61348073D01*
X51553188Y-61318376D01*
X51389216Y-61250456D01*
X51241646Y-61151853D01*
X51116147Y-61026354D01*
X51017544Y-60878784D01*
X50949624Y-60714812D01*
X50915000Y-60540741D01*
X50915000Y-60363259D01*
X50949624Y-60189188D01*
X51017544Y-60025216D01*
X51116147Y-59877646D01*
X51241646Y-59752147D01*
X51389216Y-59653544D01*
X51553188Y-59585624D01*
X51702488Y-59555927D01*
X51727258Y-59551000D01*
X51904742Y-59551000D01*
X51929512Y-59555927D01*
G37*
G36*
X49389512Y-59555927D02*
G01*
X49538812Y-59585624D01*
X49702784Y-59653544D01*
X49850354Y-59752147D01*
X49975853Y-59877646D01*
X50074456Y-60025216D01*
X50142376Y-60189188D01*
X50177000Y-60363259D01*
X50177000Y-60540741D01*
X50142376Y-60714812D01*
X50074456Y-60878784D01*
X49975853Y-61026354D01*
X49850354Y-61151853D01*
X49702784Y-61250456D01*
X49538812Y-61318376D01*
X49389512Y-61348073D01*
X49364742Y-61353000D01*
X49187258Y-61353000D01*
X49162488Y-61348073D01*
X49013188Y-61318376D01*
X48849216Y-61250456D01*
X48701646Y-61151853D01*
X48576147Y-61026354D01*
X48477544Y-60878784D01*
X48409624Y-60714812D01*
X48375000Y-60540741D01*
X48375000Y-60363259D01*
X48409624Y-60189188D01*
X48477544Y-60025216D01*
X48576147Y-59877646D01*
X48701646Y-59752147D01*
X48849216Y-59653544D01*
X49013188Y-59585624D01*
X49162488Y-59555927D01*
X49187258Y-59551000D01*
X49364742Y-59551000D01*
X49389512Y-59555927D01*
G37*
G36*
X46849512Y-59555927D02*
G01*
X46998812Y-59585624D01*
X47162784Y-59653544D01*
X47310354Y-59752147D01*
X47435853Y-59877646D01*
X47534456Y-60025216D01*
X47602376Y-60189188D01*
X47637000Y-60363259D01*
X47637000Y-60540741D01*
X47602376Y-60714812D01*
X47534456Y-60878784D01*
X47435853Y-61026354D01*
X47310354Y-61151853D01*
X47162784Y-61250456D01*
X46998812Y-61318376D01*
X46849512Y-61348073D01*
X46824742Y-61353000D01*
X46647258Y-61353000D01*
X46622488Y-61348073D01*
X46473188Y-61318376D01*
X46309216Y-61250456D01*
X46161646Y-61151853D01*
X46036147Y-61026354D01*
X45937544Y-60878784D01*
X45869624Y-60714812D01*
X45835000Y-60540741D01*
X45835000Y-60363259D01*
X45869624Y-60189188D01*
X45937544Y-60025216D01*
X46036147Y-59877646D01*
X46161646Y-59752147D01*
X46309216Y-59653544D01*
X46473188Y-59585624D01*
X46622488Y-59555927D01*
X46647258Y-59551000D01*
X46824742Y-59551000D01*
X46849512Y-59555927D01*
G37*
G36*
X44309512Y-59555927D02*
G01*
X44458812Y-59585624D01*
X44622784Y-59653544D01*
X44770354Y-59752147D01*
X44895853Y-59877646D01*
X44994456Y-60025216D01*
X45062376Y-60189188D01*
X45097000Y-60363259D01*
X45097000Y-60540741D01*
X45062376Y-60714812D01*
X44994456Y-60878784D01*
X44895853Y-61026354D01*
X44770354Y-61151853D01*
X44622784Y-61250456D01*
X44458812Y-61318376D01*
X44309512Y-61348073D01*
X44284742Y-61353000D01*
X44107258Y-61353000D01*
X44082488Y-61348073D01*
X43933188Y-61318376D01*
X43769216Y-61250456D01*
X43621646Y-61151853D01*
X43496147Y-61026354D01*
X43397544Y-60878784D01*
X43329624Y-60714812D01*
X43295000Y-60540741D01*
X43295000Y-60363259D01*
X43329624Y-60189188D01*
X43397544Y-60025216D01*
X43496147Y-59877646D01*
X43621646Y-59752147D01*
X43769216Y-59653544D01*
X43933188Y-59585624D01*
X44082488Y-59555927D01*
X44107258Y-59551000D01*
X44284742Y-59551000D01*
X44309512Y-59555927D01*
G37*
G36*
X54212499Y-54165445D02*
G01*
X54249995Y-54176820D01*
X54284554Y-54195292D01*
X54314847Y-54220153D01*
X54339708Y-54250446D01*
X54358180Y-54285005D01*
X54369555Y-54322501D01*
X54374000Y-54367638D01*
X54374000Y-55106362D01*
X54369555Y-55151499D01*
X54358180Y-55188995D01*
X54339708Y-55223554D01*
X54314847Y-55253847D01*
X54284554Y-55278708D01*
X54249995Y-55297180D01*
X54212499Y-55308555D01*
X54167362Y-55313000D01*
X53528638Y-55313000D01*
X53483501Y-55308555D01*
X53446005Y-55297180D01*
X53411446Y-55278708D01*
X53381153Y-55253847D01*
X53356292Y-55223554D01*
X53337820Y-55188995D01*
X53326445Y-55151499D01*
X53322000Y-55106362D01*
X53322000Y-54367638D01*
X53326445Y-54322501D01*
X53337820Y-54285005D01*
X53356292Y-54250446D01*
X53381153Y-54220153D01*
X53411446Y-54195292D01*
X53446005Y-54176820D01*
X53483501Y-54165445D01*
X53528638Y-54161000D01*
X54167362Y-54161000D01*
X54212499Y-54165445D01*
G37*
G36*
X49259499Y-54137445D02*
G01*
X49296995Y-54148820D01*
X49331554Y-54167292D01*
X49361847Y-54192153D01*
X49386708Y-54222446D01*
X49405180Y-54257005D01*
X49416555Y-54294501D01*
X49421000Y-54339638D01*
X49421000Y-55078362D01*
X49416555Y-55123499D01*
X49405180Y-55160995D01*
X49386708Y-55195554D01*
X49361847Y-55225847D01*
X49331554Y-55250708D01*
X49296995Y-55269180D01*
X49259499Y-55280555D01*
X49214362Y-55285000D01*
X48575638Y-55285000D01*
X48530501Y-55280555D01*
X48493005Y-55269180D01*
X48458446Y-55250708D01*
X48428153Y-55225847D01*
X48403292Y-55195554D01*
X48384820Y-55160995D01*
X48373445Y-55123499D01*
X48369000Y-55078362D01*
X48369000Y-54339638D01*
X48373445Y-54294501D01*
X48384820Y-54257005D01*
X48403292Y-54222446D01*
X48428153Y-54192153D01*
X48458446Y-54167292D01*
X48493005Y-54148820D01*
X48530501Y-54137445D01*
X48575638Y-54133000D01*
X49214362Y-54133000D01*
X49259499Y-54137445D01*
G37*
G36*
X88756499Y-54038445D02*
G01*
X88793995Y-54049820D01*
X88828554Y-54068292D01*
X88858847Y-54093153D01*
X88883708Y-54123446D01*
X88902180Y-54158005D01*
X88913555Y-54195501D01*
X88918000Y-54240638D01*
X88918000Y-54979362D01*
X88913555Y-55024499D01*
X88902180Y-55061995D01*
X88883708Y-55096554D01*
X88858847Y-55126847D01*
X88828554Y-55151708D01*
X88793995Y-55170180D01*
X88756499Y-55181555D01*
X88711362Y-55186000D01*
X88072638Y-55186000D01*
X88027501Y-55181555D01*
X87990005Y-55170180D01*
X87955446Y-55151708D01*
X87925153Y-55126847D01*
X87900292Y-55096554D01*
X87881820Y-55061995D01*
X87870445Y-55024499D01*
X87866000Y-54979362D01*
X87866000Y-54240638D01*
X87870445Y-54195501D01*
X87881820Y-54158005D01*
X87900292Y-54123446D01*
X87925153Y-54093153D01*
X87955446Y-54068292D01*
X87990005Y-54049820D01*
X88027501Y-54038445D01*
X88072638Y-54034000D01*
X88711362Y-54034000D01*
X88756499Y-54038445D01*
G37*
G36*
X63483499Y-54038445D02*
G01*
X63520995Y-54049820D01*
X63555554Y-54068292D01*
X63585847Y-54093153D01*
X63610708Y-54123446D01*
X63629180Y-54158005D01*
X63640555Y-54195501D01*
X63645000Y-54240638D01*
X63645000Y-54979362D01*
X63640555Y-55024499D01*
X63629180Y-55061995D01*
X63610708Y-55096554D01*
X63585847Y-55126847D01*
X63555554Y-55151708D01*
X63520995Y-55170180D01*
X63483499Y-55181555D01*
X63438362Y-55186000D01*
X62799638Y-55186000D01*
X62754501Y-55181555D01*
X62717005Y-55170180D01*
X62682446Y-55151708D01*
X62652153Y-55126847D01*
X62627292Y-55096554D01*
X62608820Y-55061995D01*
X62597445Y-55024499D01*
X62593000Y-54979362D01*
X62593000Y-54240638D01*
X62597445Y-54195501D01*
X62608820Y-54158005D01*
X62627292Y-54123446D01*
X62652153Y-54093153D01*
X62682446Y-54068292D01*
X62717005Y-54049820D01*
X62754501Y-54038445D01*
X62799638Y-54034000D01*
X63438362Y-54034000D01*
X63483499Y-54038445D01*
G37*
G36*
X76183499Y-54038445D02*
G01*
X76220995Y-54049820D01*
X76255554Y-54068292D01*
X76285847Y-54093153D01*
X76310708Y-54123446D01*
X76329180Y-54158005D01*
X76340555Y-54195501D01*
X76345000Y-54240638D01*
X76345000Y-54979362D01*
X76340555Y-55024499D01*
X76329180Y-55061995D01*
X76310708Y-55096554D01*
X76285847Y-55126847D01*
X76255554Y-55151708D01*
X76220995Y-55170180D01*
X76183499Y-55181555D01*
X76138362Y-55186000D01*
X75499638Y-55186000D01*
X75454501Y-55181555D01*
X75417005Y-55170180D01*
X75382446Y-55151708D01*
X75352153Y-55126847D01*
X75327292Y-55096554D01*
X75308820Y-55061995D01*
X75297445Y-55024499D01*
X75293000Y-54979362D01*
X75293000Y-54240638D01*
X75297445Y-54195501D01*
X75308820Y-54158005D01*
X75327292Y-54123446D01*
X75352153Y-54093153D01*
X75382446Y-54068292D01*
X75417005Y-54049820D01*
X75454501Y-54038445D01*
X75499638Y-54034000D01*
X76138362Y-54034000D01*
X76183499Y-54038445D01*
G37*
G36*
X54212499Y-52415445D02*
G01*
X54249995Y-52426820D01*
X54284554Y-52445292D01*
X54314847Y-52470153D01*
X54339708Y-52500446D01*
X54358180Y-52535005D01*
X54369555Y-52572501D01*
X54374000Y-52617638D01*
X54374000Y-53356362D01*
X54369555Y-53401499D01*
X54358180Y-53438995D01*
X54339708Y-53473554D01*
X54314847Y-53503847D01*
X54284554Y-53528708D01*
X54249995Y-53547180D01*
X54212499Y-53558555D01*
X54167362Y-53563000D01*
X53528638Y-53563000D01*
X53483501Y-53558555D01*
X53446005Y-53547180D01*
X53411446Y-53528708D01*
X53381153Y-53503847D01*
X53356292Y-53473554D01*
X53337820Y-53438995D01*
X53326445Y-53401499D01*
X53322000Y-53356362D01*
X53322000Y-52617638D01*
X53326445Y-52572501D01*
X53337820Y-52535005D01*
X53356292Y-52500446D01*
X53381153Y-52470153D01*
X53411446Y-52445292D01*
X53446005Y-52426820D01*
X53483501Y-52415445D01*
X53528638Y-52411000D01*
X54167362Y-52411000D01*
X54212499Y-52415445D01*
G37*
G36*
X49259499Y-52387445D02*
G01*
X49296995Y-52398820D01*
X49331554Y-52417292D01*
X49361847Y-52442153D01*
X49386708Y-52472446D01*
X49405180Y-52507005D01*
X49416555Y-52544501D01*
X49421000Y-52589638D01*
X49421000Y-53328362D01*
X49416555Y-53373499D01*
X49405180Y-53410995D01*
X49386708Y-53445554D01*
X49361847Y-53475847D01*
X49331554Y-53500708D01*
X49296995Y-53519180D01*
X49259499Y-53530555D01*
X49214362Y-53535000D01*
X48575638Y-53535000D01*
X48530501Y-53530555D01*
X48493005Y-53519180D01*
X48458446Y-53500708D01*
X48428153Y-53475847D01*
X48403292Y-53445554D01*
X48384820Y-53410995D01*
X48373445Y-53373499D01*
X48369000Y-53328362D01*
X48369000Y-52589638D01*
X48373445Y-52544501D01*
X48384820Y-52507005D01*
X48403292Y-52472446D01*
X48428153Y-52442153D01*
X48458446Y-52417292D01*
X48493005Y-52398820D01*
X48530501Y-52387445D01*
X48575638Y-52383000D01*
X49214362Y-52383000D01*
X49259499Y-52387445D01*
G37*
G36*
X63483499Y-52288445D02*
G01*
X63520995Y-52299820D01*
X63555554Y-52318292D01*
X63585847Y-52343153D01*
X63610708Y-52373446D01*
X63629180Y-52408005D01*
X63640555Y-52445501D01*
X63645000Y-52490638D01*
X63645000Y-53229362D01*
X63640555Y-53274499D01*
X63629180Y-53311995D01*
X63610708Y-53346554D01*
X63585847Y-53376847D01*
X63555554Y-53401708D01*
X63520995Y-53420180D01*
X63483499Y-53431555D01*
X63438362Y-53436000D01*
X62799638Y-53436000D01*
X62754501Y-53431555D01*
X62717005Y-53420180D01*
X62682446Y-53401708D01*
X62652153Y-53376847D01*
X62627292Y-53346554D01*
X62608820Y-53311995D01*
X62597445Y-53274499D01*
X62593000Y-53229362D01*
X62593000Y-52490638D01*
X62597445Y-52445501D01*
X62608820Y-52408005D01*
X62627292Y-52373446D01*
X62652153Y-52343153D01*
X62682446Y-52318292D01*
X62717005Y-52299820D01*
X62754501Y-52288445D01*
X62799638Y-52284000D01*
X63438362Y-52284000D01*
X63483499Y-52288445D01*
G37*
G36*
X76183499Y-52288445D02*
G01*
X76220995Y-52299820D01*
X76255554Y-52318292D01*
X76285847Y-52343153D01*
X76310708Y-52373446D01*
X76329180Y-52408005D01*
X76340555Y-52445501D01*
X76345000Y-52490638D01*
X76345000Y-53229362D01*
X76340555Y-53274499D01*
X76329180Y-53311995D01*
X76310708Y-53346554D01*
X76285847Y-53376847D01*
X76255554Y-53401708D01*
X76220995Y-53420180D01*
X76183499Y-53431555D01*
X76138362Y-53436000D01*
X75499638Y-53436000D01*
X75454501Y-53431555D01*
X75417005Y-53420180D01*
X75382446Y-53401708D01*
X75352153Y-53376847D01*
X75327292Y-53346554D01*
X75308820Y-53311995D01*
X75297445Y-53274499D01*
X75293000Y-53229362D01*
X75293000Y-52490638D01*
X75297445Y-52445501D01*
X75308820Y-52408005D01*
X75327292Y-52373446D01*
X75352153Y-52343153D01*
X75382446Y-52318292D01*
X75417005Y-52299820D01*
X75454501Y-52288445D01*
X75499638Y-52284000D01*
X76138362Y-52284000D01*
X76183499Y-52288445D01*
G37*
G36*
X88756499Y-52288445D02*
G01*
X88793995Y-52299820D01*
X88828554Y-52318292D01*
X88858847Y-52343153D01*
X88883708Y-52373446D01*
X88902180Y-52408005D01*
X88913555Y-52445501D01*
X88918000Y-52490638D01*
X88918000Y-53229362D01*
X88913555Y-53274499D01*
X88902180Y-53311995D01*
X88883708Y-53346554D01*
X88858847Y-53376847D01*
X88828554Y-53401708D01*
X88793995Y-53420180D01*
X88756499Y-53431555D01*
X88711362Y-53436000D01*
X88072638Y-53436000D01*
X88027501Y-53431555D01*
X87990005Y-53420180D01*
X87955446Y-53401708D01*
X87925153Y-53376847D01*
X87900292Y-53346554D01*
X87881820Y-53311995D01*
X87870445Y-53274499D01*
X87866000Y-53229362D01*
X87866000Y-52490638D01*
X87870445Y-52445501D01*
X87881820Y-52408005D01*
X87900292Y-52373446D01*
X87925153Y-52343153D01*
X87955446Y-52318292D01*
X87990005Y-52299820D01*
X88027501Y-52288445D01*
X88072638Y-52284000D01*
X88711362Y-52284000D01*
X88756499Y-52288445D01*
G37*
M02*
