G04 #@! TF.GenerationSoftware,KiCad,Pcbnew,(5.1.6-0)*
G04 #@! TF.CreationDate,2023-03-04T09:46:59+01:00*
G04 #@! TF.ProjectId,Vidiot,56696469-6f74-42e6-9b69-6361645f7063,rev?*
G04 #@! TF.SameCoordinates,Original*
G04 #@! TF.FileFunction,Paste,Top*
G04 #@! TF.FilePolarity,Positive*
%FSLAX46Y46*%
G04 Gerber Fmt 4.6, Leading zero omitted, Abs format (unit mm)*
G04 Created by KiCad (PCBNEW (5.1.6-0)) date 2023-03-04 09:46:59*
%MOMM*%
%LPD*%
G01*
G04 APERTURE LIST*
%ADD10R,0.800000X0.900000*%
G04 APERTURE END LIST*
G36*
G01*
X46084500Y-56546000D02*
X45609500Y-56546000D01*
G75*
G02*
X45372000Y-56308500I0J237500D01*
G01*
X45372000Y-55733500D01*
G75*
G02*
X45609500Y-55496000I237500J0D01*
G01*
X46084500Y-55496000D01*
G75*
G02*
X46322000Y-55733500I0J-237500D01*
G01*
X46322000Y-56308500D01*
G75*
G02*
X46084500Y-56546000I-237500J0D01*
G01*
G37*
G36*
G01*
X46084500Y-58296000D02*
X45609500Y-58296000D01*
G75*
G02*
X45372000Y-58058500I0J237500D01*
G01*
X45372000Y-57483500D01*
G75*
G02*
X45609500Y-57246000I237500J0D01*
G01*
X46084500Y-57246000D01*
G75*
G02*
X46322000Y-57483500I0J-237500D01*
G01*
X46322000Y-58058500D01*
G75*
G02*
X46084500Y-58296000I-237500J0D01*
G01*
G37*
G36*
G01*
X47387500Y-57260000D02*
X47862500Y-57260000D01*
G75*
G02*
X48100000Y-57497500I0J-237500D01*
G01*
X48100000Y-58072500D01*
G75*
G02*
X47862500Y-58310000I-237500J0D01*
G01*
X47387500Y-58310000D01*
G75*
G02*
X47150000Y-58072500I0J237500D01*
G01*
X47150000Y-57497500D01*
G75*
G02*
X47387500Y-57260000I237500J0D01*
G01*
G37*
G36*
G01*
X47387500Y-55510000D02*
X47862500Y-55510000D01*
G75*
G02*
X48100000Y-55747500I0J-237500D01*
G01*
X48100000Y-56322500D01*
G75*
G02*
X47862500Y-56560000I-237500J0D01*
G01*
X47387500Y-56560000D01*
G75*
G02*
X47150000Y-56322500I0J237500D01*
G01*
X47150000Y-55747500D01*
G75*
G02*
X47387500Y-55510000I237500J0D01*
G01*
G37*
G36*
G01*
X44306500Y-56560000D02*
X43831500Y-56560000D01*
G75*
G02*
X43594000Y-56322500I0J237500D01*
G01*
X43594000Y-55747500D01*
G75*
G02*
X43831500Y-55510000I237500J0D01*
G01*
X44306500Y-55510000D01*
G75*
G02*
X44544000Y-55747500I0J-237500D01*
G01*
X44544000Y-56322500D01*
G75*
G02*
X44306500Y-56560000I-237500J0D01*
G01*
G37*
G36*
G01*
X44306500Y-58310000D02*
X43831500Y-58310000D01*
G75*
G02*
X43594000Y-58072500I0J237500D01*
G01*
X43594000Y-57497500D01*
G75*
G02*
X43831500Y-57260000I237500J0D01*
G01*
X44306500Y-57260000D01*
G75*
G02*
X44544000Y-57497500I0J-237500D01*
G01*
X44544000Y-58072500D01*
G75*
G02*
X44306500Y-58310000I-237500J0D01*
G01*
G37*
G36*
G01*
X50816500Y-57260000D02*
X51291500Y-57260000D01*
G75*
G02*
X51529000Y-57497500I0J-237500D01*
G01*
X51529000Y-58072500D01*
G75*
G02*
X51291500Y-58310000I-237500J0D01*
G01*
X50816500Y-58310000D01*
G75*
G02*
X50579000Y-58072500I0J237500D01*
G01*
X50579000Y-57497500D01*
G75*
G02*
X50816500Y-57260000I237500J0D01*
G01*
G37*
G36*
G01*
X50816500Y-55510000D02*
X51291500Y-55510000D01*
G75*
G02*
X51529000Y-55747500I0J-237500D01*
G01*
X51529000Y-56322500D01*
G75*
G02*
X51291500Y-56560000I-237500J0D01*
G01*
X50816500Y-56560000D01*
G75*
G02*
X50579000Y-56322500I0J237500D01*
G01*
X50579000Y-55747500D01*
G75*
G02*
X50816500Y-55510000I237500J0D01*
G01*
G37*
G36*
G01*
X44560500Y-52863000D02*
X44085500Y-52863000D01*
G75*
G02*
X43848000Y-52625500I0J237500D01*
G01*
X43848000Y-52050500D01*
G75*
G02*
X44085500Y-51813000I237500J0D01*
G01*
X44560500Y-51813000D01*
G75*
G02*
X44798000Y-52050500I0J-237500D01*
G01*
X44798000Y-52625500D01*
G75*
G02*
X44560500Y-52863000I-237500J0D01*
G01*
G37*
G36*
G01*
X44560500Y-54613000D02*
X44085500Y-54613000D01*
G75*
G02*
X43848000Y-54375500I0J237500D01*
G01*
X43848000Y-53800500D01*
G75*
G02*
X44085500Y-53563000I237500J0D01*
G01*
X44560500Y-53563000D01*
G75*
G02*
X44798000Y-53800500I0J-237500D01*
G01*
X44798000Y-54375500D01*
G75*
G02*
X44560500Y-54613000I-237500J0D01*
G01*
G37*
D10*
X46990000Y-54229000D03*
X46040000Y-52229000D03*
X47940000Y-52229000D03*
G36*
G01*
X49038500Y-57260000D02*
X49513500Y-57260000D01*
G75*
G02*
X49751000Y-57497500I0J-237500D01*
G01*
X49751000Y-58072500D01*
G75*
G02*
X49513500Y-58310000I-237500J0D01*
G01*
X49038500Y-58310000D01*
G75*
G02*
X48801000Y-58072500I0J237500D01*
G01*
X48801000Y-57497500D01*
G75*
G02*
X49038500Y-57260000I237500J0D01*
G01*
G37*
G36*
G01*
X49038500Y-55510000D02*
X49513500Y-55510000D01*
G75*
G02*
X49751000Y-55747500I0J-237500D01*
G01*
X49751000Y-56322500D01*
G75*
G02*
X49513500Y-56560000I-237500J0D01*
G01*
X49038500Y-56560000D01*
G75*
G02*
X48801000Y-56322500I0J237500D01*
G01*
X48801000Y-55747500D01*
G75*
G02*
X49038500Y-55510000I237500J0D01*
G01*
G37*
G36*
G01*
X53577500Y-52849000D02*
X53102500Y-52849000D01*
G75*
G02*
X52865000Y-52611500I0J237500D01*
G01*
X52865000Y-52036500D01*
G75*
G02*
X53102500Y-51799000I237500J0D01*
G01*
X53577500Y-51799000D01*
G75*
G02*
X53815000Y-52036500I0J-237500D01*
G01*
X53815000Y-52611500D01*
G75*
G02*
X53577500Y-52849000I-237500J0D01*
G01*
G37*
G36*
G01*
X53577500Y-54599000D02*
X53102500Y-54599000D01*
G75*
G02*
X52865000Y-54361500I0J237500D01*
G01*
X52865000Y-53786500D01*
G75*
G02*
X53102500Y-53549000I237500J0D01*
G01*
X53577500Y-53549000D01*
G75*
G02*
X53815000Y-53786500I0J-237500D01*
G01*
X53815000Y-54361500D01*
G75*
G02*
X53577500Y-54599000I-237500J0D01*
G01*
G37*
G36*
G01*
X49419500Y-53577000D02*
X49894500Y-53577000D01*
G75*
G02*
X50132000Y-53814500I0J-237500D01*
G01*
X50132000Y-54389500D01*
G75*
G02*
X49894500Y-54627000I-237500J0D01*
G01*
X49419500Y-54627000D01*
G75*
G02*
X49182000Y-54389500I0J237500D01*
G01*
X49182000Y-53814500D01*
G75*
G02*
X49419500Y-53577000I237500J0D01*
G01*
G37*
G36*
G01*
X49419500Y-51827000D02*
X49894500Y-51827000D01*
G75*
G02*
X50132000Y-52064500I0J-237500D01*
G01*
X50132000Y-52639500D01*
G75*
G02*
X49894500Y-52877000I-237500J0D01*
G01*
X49419500Y-52877000D01*
G75*
G02*
X49182000Y-52639500I0J237500D01*
G01*
X49182000Y-52064500D01*
G75*
G02*
X49419500Y-51827000I237500J0D01*
G01*
G37*
G36*
G01*
X53323500Y-56546000D02*
X52848500Y-56546000D01*
G75*
G02*
X52611000Y-56308500I0J237500D01*
G01*
X52611000Y-55733500D01*
G75*
G02*
X52848500Y-55496000I237500J0D01*
G01*
X53323500Y-55496000D01*
G75*
G02*
X53561000Y-55733500I0J-237500D01*
G01*
X53561000Y-56308500D01*
G75*
G02*
X53323500Y-56546000I-237500J0D01*
G01*
G37*
G36*
G01*
X53323500Y-58296000D02*
X52848500Y-58296000D01*
G75*
G02*
X52611000Y-58058500I0J237500D01*
G01*
X52611000Y-57483500D01*
G75*
G02*
X52848500Y-57246000I237500J0D01*
G01*
X53323500Y-57246000D01*
G75*
G02*
X53561000Y-57483500I0J-237500D01*
G01*
X53561000Y-58058500D01*
G75*
G02*
X53323500Y-58296000I-237500J0D01*
G01*
G37*
G36*
G01*
X55355500Y-52849000D02*
X54880500Y-52849000D01*
G75*
G02*
X54643000Y-52611500I0J237500D01*
G01*
X54643000Y-52036500D01*
G75*
G02*
X54880500Y-51799000I237500J0D01*
G01*
X55355500Y-51799000D01*
G75*
G02*
X55593000Y-52036500I0J-237500D01*
G01*
X55593000Y-52611500D01*
G75*
G02*
X55355500Y-52849000I-237500J0D01*
G01*
G37*
G36*
G01*
X55355500Y-54599000D02*
X54880500Y-54599000D01*
G75*
G02*
X54643000Y-54361500I0J237500D01*
G01*
X54643000Y-53786500D01*
G75*
G02*
X54880500Y-53549000I237500J0D01*
G01*
X55355500Y-53549000D01*
G75*
G02*
X55593000Y-53786500I0J-237500D01*
G01*
X55593000Y-54361500D01*
G75*
G02*
X55355500Y-54599000I-237500J0D01*
G01*
G37*
G36*
G01*
X51324500Y-53577000D02*
X51799500Y-53577000D01*
G75*
G02*
X52037000Y-53814500I0J-237500D01*
G01*
X52037000Y-54389500D01*
G75*
G02*
X51799500Y-54627000I-237500J0D01*
G01*
X51324500Y-54627000D01*
G75*
G02*
X51087000Y-54389500I0J237500D01*
G01*
X51087000Y-53814500D01*
G75*
G02*
X51324500Y-53577000I237500J0D01*
G01*
G37*
G36*
G01*
X51324500Y-51827000D02*
X51799500Y-51827000D01*
G75*
G02*
X52037000Y-52064500I0J-237500D01*
G01*
X52037000Y-52639500D01*
G75*
G02*
X51799500Y-52877000I-237500J0D01*
G01*
X51324500Y-52877000D01*
G75*
G02*
X51087000Y-52639500I0J237500D01*
G01*
X51087000Y-52064500D01*
G75*
G02*
X51324500Y-51827000I237500J0D01*
G01*
G37*
G36*
G01*
X70628500Y-53577000D02*
X71103500Y-53577000D01*
G75*
G02*
X71341000Y-53814500I0J-237500D01*
G01*
X71341000Y-54389500D01*
G75*
G02*
X71103500Y-54627000I-237500J0D01*
G01*
X70628500Y-54627000D01*
G75*
G02*
X70391000Y-54389500I0J237500D01*
G01*
X70391000Y-53814500D01*
G75*
G02*
X70628500Y-53577000I237500J0D01*
G01*
G37*
G36*
G01*
X70628500Y-51827000D02*
X71103500Y-51827000D01*
G75*
G02*
X71341000Y-52064500I0J-237500D01*
G01*
X71341000Y-52639500D01*
G75*
G02*
X71103500Y-52877000I-237500J0D01*
G01*
X70628500Y-52877000D01*
G75*
G02*
X70391000Y-52639500I0J237500D01*
G01*
X70391000Y-52064500D01*
G75*
G02*
X70628500Y-51827000I237500J0D01*
G01*
G37*
G36*
G01*
X83328500Y-53577000D02*
X83803500Y-53577000D01*
G75*
G02*
X84041000Y-53814500I0J-237500D01*
G01*
X84041000Y-54389500D01*
G75*
G02*
X83803500Y-54627000I-237500J0D01*
G01*
X83328500Y-54627000D01*
G75*
G02*
X83091000Y-54389500I0J237500D01*
G01*
X83091000Y-53814500D01*
G75*
G02*
X83328500Y-53577000I237500J0D01*
G01*
G37*
G36*
G01*
X83328500Y-51827000D02*
X83803500Y-51827000D01*
G75*
G02*
X84041000Y-52064500I0J-237500D01*
G01*
X84041000Y-52639500D01*
G75*
G02*
X83803500Y-52877000I-237500J0D01*
G01*
X83328500Y-52877000D01*
G75*
G02*
X83091000Y-52639500I0J237500D01*
G01*
X83091000Y-52064500D01*
G75*
G02*
X83328500Y-51827000I237500J0D01*
G01*
G37*
G36*
G01*
X96028500Y-53549000D02*
X96503500Y-53549000D01*
G75*
G02*
X96741000Y-53786500I0J-237500D01*
G01*
X96741000Y-54361500D01*
G75*
G02*
X96503500Y-54599000I-237500J0D01*
G01*
X96028500Y-54599000D01*
G75*
G02*
X95791000Y-54361500I0J237500D01*
G01*
X95791000Y-53786500D01*
G75*
G02*
X96028500Y-53549000I237500J0D01*
G01*
G37*
G36*
G01*
X96028500Y-51799000D02*
X96503500Y-51799000D01*
G75*
G02*
X96741000Y-52036500I0J-237500D01*
G01*
X96741000Y-52611500D01*
G75*
G02*
X96503500Y-52849000I-237500J0D01*
G01*
X96028500Y-52849000D01*
G75*
G02*
X95791000Y-52611500I0J237500D01*
G01*
X95791000Y-52036500D01*
G75*
G02*
X96028500Y-51799000I237500J0D01*
G01*
G37*
G36*
G01*
X58436500Y-57260000D02*
X58911500Y-57260000D01*
G75*
G02*
X59149000Y-57497500I0J-237500D01*
G01*
X59149000Y-58072500D01*
G75*
G02*
X58911500Y-58310000I-237500J0D01*
G01*
X58436500Y-58310000D01*
G75*
G02*
X58199000Y-58072500I0J237500D01*
G01*
X58199000Y-57497500D01*
G75*
G02*
X58436500Y-57260000I237500J0D01*
G01*
G37*
G36*
G01*
X58436500Y-55510000D02*
X58911500Y-55510000D01*
G75*
G02*
X59149000Y-55747500I0J-237500D01*
G01*
X59149000Y-56322500D01*
G75*
G02*
X58911500Y-56560000I-237500J0D01*
G01*
X58436500Y-56560000D01*
G75*
G02*
X58199000Y-56322500I0J237500D01*
G01*
X58199000Y-55747500D01*
G75*
G02*
X58436500Y-55510000I237500J0D01*
G01*
G37*
X58039000Y-54229000D03*
X57089000Y-52229000D03*
X58989000Y-52229000D03*
G36*
G01*
X60595500Y-57260000D02*
X61070500Y-57260000D01*
G75*
G02*
X61308000Y-57497500I0J-237500D01*
G01*
X61308000Y-58072500D01*
G75*
G02*
X61070500Y-58310000I-237500J0D01*
G01*
X60595500Y-58310000D01*
G75*
G02*
X60358000Y-58072500I0J237500D01*
G01*
X60358000Y-57497500D01*
G75*
G02*
X60595500Y-57260000I237500J0D01*
G01*
G37*
G36*
G01*
X60595500Y-55510000D02*
X61070500Y-55510000D01*
G75*
G02*
X61308000Y-55747500I0J-237500D01*
G01*
X61308000Y-56322500D01*
G75*
G02*
X61070500Y-56560000I-237500J0D01*
G01*
X60595500Y-56560000D01*
G75*
G02*
X60358000Y-56322500I0J237500D01*
G01*
X60358000Y-55747500D01*
G75*
G02*
X60595500Y-55510000I237500J0D01*
G01*
G37*
G36*
G01*
X66785500Y-52877000D02*
X66310500Y-52877000D01*
G75*
G02*
X66073000Y-52639500I0J237500D01*
G01*
X66073000Y-52064500D01*
G75*
G02*
X66310500Y-51827000I237500J0D01*
G01*
X66785500Y-51827000D01*
G75*
G02*
X67023000Y-52064500I0J-237500D01*
G01*
X67023000Y-52639500D01*
G75*
G02*
X66785500Y-52877000I-237500J0D01*
G01*
G37*
G36*
G01*
X66785500Y-54627000D02*
X66310500Y-54627000D01*
G75*
G02*
X66073000Y-54389500I0J237500D01*
G01*
X66073000Y-53814500D01*
G75*
G02*
X66310500Y-53577000I237500J0D01*
G01*
X66785500Y-53577000D01*
G75*
G02*
X67023000Y-53814500I0J-237500D01*
G01*
X67023000Y-54389500D01*
G75*
G02*
X66785500Y-54627000I-237500J0D01*
G01*
G37*
G36*
G01*
X68088500Y-53577000D02*
X68563500Y-53577000D01*
G75*
G02*
X68801000Y-53814500I0J-237500D01*
G01*
X68801000Y-54389500D01*
G75*
G02*
X68563500Y-54627000I-237500J0D01*
G01*
X68088500Y-54627000D01*
G75*
G02*
X67851000Y-54389500I0J237500D01*
G01*
X67851000Y-53814500D01*
G75*
G02*
X68088500Y-53577000I237500J0D01*
G01*
G37*
G36*
G01*
X68088500Y-51827000D02*
X68563500Y-51827000D01*
G75*
G02*
X68801000Y-52064500I0J-237500D01*
G01*
X68801000Y-52639500D01*
G75*
G02*
X68563500Y-52877000I-237500J0D01*
G01*
X68088500Y-52877000D01*
G75*
G02*
X67851000Y-52639500I0J237500D01*
G01*
X67851000Y-52064500D01*
G75*
G02*
X68088500Y-51827000I237500J0D01*
G01*
G37*
G36*
G01*
X64532500Y-53563000D02*
X65007500Y-53563000D01*
G75*
G02*
X65245000Y-53800500I0J-237500D01*
G01*
X65245000Y-54375500D01*
G75*
G02*
X65007500Y-54613000I-237500J0D01*
G01*
X64532500Y-54613000D01*
G75*
G02*
X64295000Y-54375500I0J237500D01*
G01*
X64295000Y-53800500D01*
G75*
G02*
X64532500Y-53563000I237500J0D01*
G01*
G37*
G36*
G01*
X64532500Y-51813000D02*
X65007500Y-51813000D01*
G75*
G02*
X65245000Y-52050500I0J-237500D01*
G01*
X65245000Y-52625500D01*
G75*
G02*
X65007500Y-52863000I-237500J0D01*
G01*
X64532500Y-52863000D01*
G75*
G02*
X64295000Y-52625500I0J237500D01*
G01*
X64295000Y-52050500D01*
G75*
G02*
X64532500Y-51813000I237500J0D01*
G01*
G37*
G36*
G01*
X63008500Y-57260000D02*
X63483500Y-57260000D01*
G75*
G02*
X63721000Y-57497500I0J-237500D01*
G01*
X63721000Y-58072500D01*
G75*
G02*
X63483500Y-58310000I-237500J0D01*
G01*
X63008500Y-58310000D01*
G75*
G02*
X62771000Y-58072500I0J237500D01*
G01*
X62771000Y-57497500D01*
G75*
G02*
X63008500Y-57260000I237500J0D01*
G01*
G37*
G36*
G01*
X63008500Y-55510000D02*
X63483500Y-55510000D01*
G75*
G02*
X63721000Y-55747500I0J-237500D01*
G01*
X63721000Y-56322500D01*
G75*
G02*
X63483500Y-56560000I-237500J0D01*
G01*
X63008500Y-56560000D01*
G75*
G02*
X62771000Y-56322500I0J237500D01*
G01*
X62771000Y-55747500D01*
G75*
G02*
X63008500Y-55510000I237500J0D01*
G01*
G37*
G36*
G01*
X65548500Y-57232000D02*
X66023500Y-57232000D01*
G75*
G02*
X66261000Y-57469500I0J-237500D01*
G01*
X66261000Y-58044500D01*
G75*
G02*
X66023500Y-58282000I-237500J0D01*
G01*
X65548500Y-58282000D01*
G75*
G02*
X65311000Y-58044500I0J237500D01*
G01*
X65311000Y-57469500D01*
G75*
G02*
X65548500Y-57232000I237500J0D01*
G01*
G37*
G36*
G01*
X65548500Y-55482000D02*
X66023500Y-55482000D01*
G75*
G02*
X66261000Y-55719500I0J-237500D01*
G01*
X66261000Y-56294500D01*
G75*
G02*
X66023500Y-56532000I-237500J0D01*
G01*
X65548500Y-56532000D01*
G75*
G02*
X65311000Y-56294500I0J237500D01*
G01*
X65311000Y-55719500D01*
G75*
G02*
X65548500Y-55482000I237500J0D01*
G01*
G37*
G36*
G01*
X68088500Y-57232000D02*
X68563500Y-57232000D01*
G75*
G02*
X68801000Y-57469500I0J-237500D01*
G01*
X68801000Y-58044500D01*
G75*
G02*
X68563500Y-58282000I-237500J0D01*
G01*
X68088500Y-58282000D01*
G75*
G02*
X67851000Y-58044500I0J237500D01*
G01*
X67851000Y-57469500D01*
G75*
G02*
X68088500Y-57232000I237500J0D01*
G01*
G37*
G36*
G01*
X68088500Y-55482000D02*
X68563500Y-55482000D01*
G75*
G02*
X68801000Y-55719500I0J-237500D01*
G01*
X68801000Y-56294500D01*
G75*
G02*
X68563500Y-56532000I-237500J0D01*
G01*
X68088500Y-56532000D01*
G75*
G02*
X67851000Y-56294500I0J237500D01*
G01*
X67851000Y-55719500D01*
G75*
G02*
X68088500Y-55482000I237500J0D01*
G01*
G37*
G36*
G01*
X70628500Y-57232000D02*
X71103500Y-57232000D01*
G75*
G02*
X71341000Y-57469500I0J-237500D01*
G01*
X71341000Y-58044500D01*
G75*
G02*
X71103500Y-58282000I-237500J0D01*
G01*
X70628500Y-58282000D01*
G75*
G02*
X70391000Y-58044500I0J237500D01*
G01*
X70391000Y-57469500D01*
G75*
G02*
X70628500Y-57232000I237500J0D01*
G01*
G37*
G36*
G01*
X70628500Y-55482000D02*
X71103500Y-55482000D01*
G75*
G02*
X71341000Y-55719500I0J-237500D01*
G01*
X71341000Y-56294500D01*
G75*
G02*
X71103500Y-56532000I-237500J0D01*
G01*
X70628500Y-56532000D01*
G75*
G02*
X70391000Y-56294500I0J237500D01*
G01*
X70391000Y-55719500D01*
G75*
G02*
X70628500Y-55482000I237500J0D01*
G01*
G37*
G36*
G01*
X73168500Y-57260000D02*
X73643500Y-57260000D01*
G75*
G02*
X73881000Y-57497500I0J-237500D01*
G01*
X73881000Y-58072500D01*
G75*
G02*
X73643500Y-58310000I-237500J0D01*
G01*
X73168500Y-58310000D01*
G75*
G02*
X72931000Y-58072500I0J237500D01*
G01*
X72931000Y-57497500D01*
G75*
G02*
X73168500Y-57260000I237500J0D01*
G01*
G37*
G36*
G01*
X73168500Y-55510000D02*
X73643500Y-55510000D01*
G75*
G02*
X73881000Y-55747500I0J-237500D01*
G01*
X73881000Y-56322500D01*
G75*
G02*
X73643500Y-56560000I-237500J0D01*
G01*
X73168500Y-56560000D01*
G75*
G02*
X72931000Y-56322500I0J237500D01*
G01*
X72931000Y-55747500D01*
G75*
G02*
X73168500Y-55510000I237500J0D01*
G01*
G37*
G36*
G01*
X79485500Y-52877000D02*
X79010500Y-52877000D01*
G75*
G02*
X78773000Y-52639500I0J237500D01*
G01*
X78773000Y-52064500D01*
G75*
G02*
X79010500Y-51827000I237500J0D01*
G01*
X79485500Y-51827000D01*
G75*
G02*
X79723000Y-52064500I0J-237500D01*
G01*
X79723000Y-52639500D01*
G75*
G02*
X79485500Y-52877000I-237500J0D01*
G01*
G37*
G36*
G01*
X79485500Y-54627000D02*
X79010500Y-54627000D01*
G75*
G02*
X78773000Y-54389500I0J237500D01*
G01*
X78773000Y-53814500D01*
G75*
G02*
X79010500Y-53577000I237500J0D01*
G01*
X79485500Y-53577000D01*
G75*
G02*
X79723000Y-53814500I0J-237500D01*
G01*
X79723000Y-54389500D01*
G75*
G02*
X79485500Y-54627000I-237500J0D01*
G01*
G37*
G36*
G01*
X80788500Y-53577000D02*
X81263500Y-53577000D01*
G75*
G02*
X81501000Y-53814500I0J-237500D01*
G01*
X81501000Y-54389500D01*
G75*
G02*
X81263500Y-54627000I-237500J0D01*
G01*
X80788500Y-54627000D01*
G75*
G02*
X80551000Y-54389500I0J237500D01*
G01*
X80551000Y-53814500D01*
G75*
G02*
X80788500Y-53577000I237500J0D01*
G01*
G37*
G36*
G01*
X80788500Y-51827000D02*
X81263500Y-51827000D01*
G75*
G02*
X81501000Y-52064500I0J-237500D01*
G01*
X81501000Y-52639500D01*
G75*
G02*
X81263500Y-52877000I-237500J0D01*
G01*
X80788500Y-52877000D01*
G75*
G02*
X80551000Y-52639500I0J237500D01*
G01*
X80551000Y-52064500D01*
G75*
G02*
X80788500Y-51827000I237500J0D01*
G01*
G37*
G36*
G01*
X77232500Y-53549000D02*
X77707500Y-53549000D01*
G75*
G02*
X77945000Y-53786500I0J-237500D01*
G01*
X77945000Y-54361500D01*
G75*
G02*
X77707500Y-54599000I-237500J0D01*
G01*
X77232500Y-54599000D01*
G75*
G02*
X76995000Y-54361500I0J237500D01*
G01*
X76995000Y-53786500D01*
G75*
G02*
X77232500Y-53549000I237500J0D01*
G01*
G37*
G36*
G01*
X77232500Y-51799000D02*
X77707500Y-51799000D01*
G75*
G02*
X77945000Y-52036500I0J-237500D01*
G01*
X77945000Y-52611500D01*
G75*
G02*
X77707500Y-52849000I-237500J0D01*
G01*
X77232500Y-52849000D01*
G75*
G02*
X76995000Y-52611500I0J237500D01*
G01*
X76995000Y-52036500D01*
G75*
G02*
X77232500Y-51799000I237500J0D01*
G01*
G37*
G36*
G01*
X75708500Y-57260000D02*
X76183500Y-57260000D01*
G75*
G02*
X76421000Y-57497500I0J-237500D01*
G01*
X76421000Y-58072500D01*
G75*
G02*
X76183500Y-58310000I-237500J0D01*
G01*
X75708500Y-58310000D01*
G75*
G02*
X75471000Y-58072500I0J237500D01*
G01*
X75471000Y-57497500D01*
G75*
G02*
X75708500Y-57260000I237500J0D01*
G01*
G37*
G36*
G01*
X75708500Y-55510000D02*
X76183500Y-55510000D01*
G75*
G02*
X76421000Y-55747500I0J-237500D01*
G01*
X76421000Y-56322500D01*
G75*
G02*
X76183500Y-56560000I-237500J0D01*
G01*
X75708500Y-56560000D01*
G75*
G02*
X75471000Y-56322500I0J237500D01*
G01*
X75471000Y-55747500D01*
G75*
G02*
X75708500Y-55510000I237500J0D01*
G01*
G37*
G36*
G01*
X78248500Y-57260000D02*
X78723500Y-57260000D01*
G75*
G02*
X78961000Y-57497500I0J-237500D01*
G01*
X78961000Y-58072500D01*
G75*
G02*
X78723500Y-58310000I-237500J0D01*
G01*
X78248500Y-58310000D01*
G75*
G02*
X78011000Y-58072500I0J237500D01*
G01*
X78011000Y-57497500D01*
G75*
G02*
X78248500Y-57260000I237500J0D01*
G01*
G37*
G36*
G01*
X78248500Y-55510000D02*
X78723500Y-55510000D01*
G75*
G02*
X78961000Y-55747500I0J-237500D01*
G01*
X78961000Y-56322500D01*
G75*
G02*
X78723500Y-56560000I-237500J0D01*
G01*
X78248500Y-56560000D01*
G75*
G02*
X78011000Y-56322500I0J237500D01*
G01*
X78011000Y-55747500D01*
G75*
G02*
X78248500Y-55510000I237500J0D01*
G01*
G37*
G36*
G01*
X80788500Y-57260000D02*
X81263500Y-57260000D01*
G75*
G02*
X81501000Y-57497500I0J-237500D01*
G01*
X81501000Y-58072500D01*
G75*
G02*
X81263500Y-58310000I-237500J0D01*
G01*
X80788500Y-58310000D01*
G75*
G02*
X80551000Y-58072500I0J237500D01*
G01*
X80551000Y-57497500D01*
G75*
G02*
X80788500Y-57260000I237500J0D01*
G01*
G37*
G36*
G01*
X80788500Y-55510000D02*
X81263500Y-55510000D01*
G75*
G02*
X81501000Y-55747500I0J-237500D01*
G01*
X81501000Y-56322500D01*
G75*
G02*
X81263500Y-56560000I-237500J0D01*
G01*
X80788500Y-56560000D01*
G75*
G02*
X80551000Y-56322500I0J237500D01*
G01*
X80551000Y-55747500D01*
G75*
G02*
X80788500Y-55510000I237500J0D01*
G01*
G37*
G36*
G01*
X83328500Y-57260000D02*
X83803500Y-57260000D01*
G75*
G02*
X84041000Y-57497500I0J-237500D01*
G01*
X84041000Y-58072500D01*
G75*
G02*
X83803500Y-58310000I-237500J0D01*
G01*
X83328500Y-58310000D01*
G75*
G02*
X83091000Y-58072500I0J237500D01*
G01*
X83091000Y-57497500D01*
G75*
G02*
X83328500Y-57260000I237500J0D01*
G01*
G37*
G36*
G01*
X83328500Y-55510000D02*
X83803500Y-55510000D01*
G75*
G02*
X84041000Y-55747500I0J-237500D01*
G01*
X84041000Y-56322500D01*
G75*
G02*
X83803500Y-56560000I-237500J0D01*
G01*
X83328500Y-56560000D01*
G75*
G02*
X83091000Y-56322500I0J237500D01*
G01*
X83091000Y-55747500D01*
G75*
G02*
X83328500Y-55510000I237500J0D01*
G01*
G37*
G36*
G01*
X85868500Y-57260000D02*
X86343500Y-57260000D01*
G75*
G02*
X86581000Y-57497500I0J-237500D01*
G01*
X86581000Y-58072500D01*
G75*
G02*
X86343500Y-58310000I-237500J0D01*
G01*
X85868500Y-58310000D01*
G75*
G02*
X85631000Y-58072500I0J237500D01*
G01*
X85631000Y-57497500D01*
G75*
G02*
X85868500Y-57260000I237500J0D01*
G01*
G37*
G36*
G01*
X85868500Y-55510000D02*
X86343500Y-55510000D01*
G75*
G02*
X86581000Y-55747500I0J-237500D01*
G01*
X86581000Y-56322500D01*
G75*
G02*
X86343500Y-56560000I-237500J0D01*
G01*
X85868500Y-56560000D01*
G75*
G02*
X85631000Y-56322500I0J237500D01*
G01*
X85631000Y-55747500D01*
G75*
G02*
X85868500Y-55510000I237500J0D01*
G01*
G37*
G36*
G01*
X92185500Y-52877000D02*
X91710500Y-52877000D01*
G75*
G02*
X91473000Y-52639500I0J237500D01*
G01*
X91473000Y-52064500D01*
G75*
G02*
X91710500Y-51827000I237500J0D01*
G01*
X92185500Y-51827000D01*
G75*
G02*
X92423000Y-52064500I0J-237500D01*
G01*
X92423000Y-52639500D01*
G75*
G02*
X92185500Y-52877000I-237500J0D01*
G01*
G37*
G36*
G01*
X92185500Y-54627000D02*
X91710500Y-54627000D01*
G75*
G02*
X91473000Y-54389500I0J237500D01*
G01*
X91473000Y-53814500D01*
G75*
G02*
X91710500Y-53577000I237500J0D01*
G01*
X92185500Y-53577000D01*
G75*
G02*
X92423000Y-53814500I0J-237500D01*
G01*
X92423000Y-54389500D01*
G75*
G02*
X92185500Y-54627000I-237500J0D01*
G01*
G37*
G36*
G01*
X93488500Y-53577000D02*
X93963500Y-53577000D01*
G75*
G02*
X94201000Y-53814500I0J-237500D01*
G01*
X94201000Y-54389500D01*
G75*
G02*
X93963500Y-54627000I-237500J0D01*
G01*
X93488500Y-54627000D01*
G75*
G02*
X93251000Y-54389500I0J237500D01*
G01*
X93251000Y-53814500D01*
G75*
G02*
X93488500Y-53577000I237500J0D01*
G01*
G37*
G36*
G01*
X93488500Y-51827000D02*
X93963500Y-51827000D01*
G75*
G02*
X94201000Y-52064500I0J-237500D01*
G01*
X94201000Y-52639500D01*
G75*
G02*
X93963500Y-52877000I-237500J0D01*
G01*
X93488500Y-52877000D01*
G75*
G02*
X93251000Y-52639500I0J237500D01*
G01*
X93251000Y-52064500D01*
G75*
G02*
X93488500Y-51827000I237500J0D01*
G01*
G37*
G36*
G01*
X89932500Y-53577000D02*
X90407500Y-53577000D01*
G75*
G02*
X90645000Y-53814500I0J-237500D01*
G01*
X90645000Y-54389500D01*
G75*
G02*
X90407500Y-54627000I-237500J0D01*
G01*
X89932500Y-54627000D01*
G75*
G02*
X89695000Y-54389500I0J237500D01*
G01*
X89695000Y-53814500D01*
G75*
G02*
X89932500Y-53577000I237500J0D01*
G01*
G37*
G36*
G01*
X89932500Y-51827000D02*
X90407500Y-51827000D01*
G75*
G02*
X90645000Y-52064500I0J-237500D01*
G01*
X90645000Y-52639500D01*
G75*
G02*
X90407500Y-52877000I-237500J0D01*
G01*
X89932500Y-52877000D01*
G75*
G02*
X89695000Y-52639500I0J237500D01*
G01*
X89695000Y-52064500D01*
G75*
G02*
X89932500Y-51827000I237500J0D01*
G01*
G37*
G36*
G01*
X88408500Y-57260000D02*
X88883500Y-57260000D01*
G75*
G02*
X89121000Y-57497500I0J-237500D01*
G01*
X89121000Y-58072500D01*
G75*
G02*
X88883500Y-58310000I-237500J0D01*
G01*
X88408500Y-58310000D01*
G75*
G02*
X88171000Y-58072500I0J237500D01*
G01*
X88171000Y-57497500D01*
G75*
G02*
X88408500Y-57260000I237500J0D01*
G01*
G37*
G36*
G01*
X88408500Y-55510000D02*
X88883500Y-55510000D01*
G75*
G02*
X89121000Y-55747500I0J-237500D01*
G01*
X89121000Y-56322500D01*
G75*
G02*
X88883500Y-56560000I-237500J0D01*
G01*
X88408500Y-56560000D01*
G75*
G02*
X88171000Y-56322500I0J237500D01*
G01*
X88171000Y-55747500D01*
G75*
G02*
X88408500Y-55510000I237500J0D01*
G01*
G37*
G36*
G01*
X90948500Y-57260000D02*
X91423500Y-57260000D01*
G75*
G02*
X91661000Y-57497500I0J-237500D01*
G01*
X91661000Y-58072500D01*
G75*
G02*
X91423500Y-58310000I-237500J0D01*
G01*
X90948500Y-58310000D01*
G75*
G02*
X90711000Y-58072500I0J237500D01*
G01*
X90711000Y-57497500D01*
G75*
G02*
X90948500Y-57260000I237500J0D01*
G01*
G37*
G36*
G01*
X90948500Y-55510000D02*
X91423500Y-55510000D01*
G75*
G02*
X91661000Y-55747500I0J-237500D01*
G01*
X91661000Y-56322500D01*
G75*
G02*
X91423500Y-56560000I-237500J0D01*
G01*
X90948500Y-56560000D01*
G75*
G02*
X90711000Y-56322500I0J237500D01*
G01*
X90711000Y-55747500D01*
G75*
G02*
X90948500Y-55510000I237500J0D01*
G01*
G37*
G36*
G01*
X93488500Y-57260000D02*
X93963500Y-57260000D01*
G75*
G02*
X94201000Y-57497500I0J-237500D01*
G01*
X94201000Y-58072500D01*
G75*
G02*
X93963500Y-58310000I-237500J0D01*
G01*
X93488500Y-58310000D01*
G75*
G02*
X93251000Y-58072500I0J237500D01*
G01*
X93251000Y-57497500D01*
G75*
G02*
X93488500Y-57260000I237500J0D01*
G01*
G37*
G36*
G01*
X93488500Y-55510000D02*
X93963500Y-55510000D01*
G75*
G02*
X94201000Y-55747500I0J-237500D01*
G01*
X94201000Y-56322500D01*
G75*
G02*
X93963500Y-56560000I-237500J0D01*
G01*
X93488500Y-56560000D01*
G75*
G02*
X93251000Y-56322500I0J237500D01*
G01*
X93251000Y-55747500D01*
G75*
G02*
X93488500Y-55510000I237500J0D01*
G01*
G37*
G36*
G01*
X96028500Y-57260000D02*
X96503500Y-57260000D01*
G75*
G02*
X96741000Y-57497500I0J-237500D01*
G01*
X96741000Y-58072500D01*
G75*
G02*
X96503500Y-58310000I-237500J0D01*
G01*
X96028500Y-58310000D01*
G75*
G02*
X95791000Y-58072500I0J237500D01*
G01*
X95791000Y-57497500D01*
G75*
G02*
X96028500Y-57260000I237500J0D01*
G01*
G37*
G36*
G01*
X96028500Y-55510000D02*
X96503500Y-55510000D01*
G75*
G02*
X96741000Y-55747500I0J-237500D01*
G01*
X96741000Y-56322500D01*
G75*
G02*
X96503500Y-56560000I-237500J0D01*
G01*
X96028500Y-56560000D01*
G75*
G02*
X95791000Y-56322500I0J237500D01*
G01*
X95791000Y-55747500D01*
G75*
G02*
X96028500Y-55510000I237500J0D01*
G01*
G37*
X55880000Y-57896000D03*
X54930000Y-55896000D03*
X56830000Y-55896000D03*
X62042000Y-54229000D03*
X61092000Y-52229000D03*
X62992000Y-52229000D03*
X74676000Y-54213000D03*
X73726000Y-52213000D03*
X75626000Y-52213000D03*
X87376000Y-54229000D03*
X86426000Y-52229000D03*
X88326000Y-52229000D03*
M02*
