G04 #@! TF.GenerationSoftware,KiCad,Pcbnew,(5.1.6-0)*
G04 #@! TF.CreationDate,2023-03-04T09:46:59+01:00*
G04 #@! TF.ProjectId,Vidiot,56696469-6f74-42e6-9b69-6361645f7063,rev?*
G04 #@! TF.SameCoordinates,Original*
G04 #@! TF.FileFunction,Copper,L1,Top*
G04 #@! TF.FilePolarity,Positive*
%FSLAX46Y46*%
G04 Gerber Fmt 4.6, Leading zero omitted, Abs format (unit mm)*
G04 Created by KiCad (PCBNEW (5.1.6-0)) date 2023-03-04 09:46:59*
%MOMM*%
%LPD*%
G01*
G04 APERTURE LIST*
G04 #@! TA.AperFunction,SMDPad,CuDef*
%ADD10R,0.800000X0.900000*%
G04 #@! TD*
G04 #@! TA.AperFunction,ComponentPad*
%ADD11O,1.700000X1.700000*%
G04 #@! TD*
G04 #@! TA.AperFunction,ComponentPad*
%ADD12R,1.700000X1.700000*%
G04 #@! TD*
G04 #@! TA.AperFunction,ViaPad*
%ADD13C,0.800000*%
G04 #@! TD*
G04 #@! TA.AperFunction,Conductor*
%ADD14C,0.250000*%
G04 #@! TD*
G04 #@! TA.AperFunction,Conductor*
%ADD15C,0.254000*%
G04 #@! TD*
G04 APERTURE END LIST*
G04 #@! TA.AperFunction,SMDPad,CuDef*
G36*
G01*
X46084500Y-56546000D02*
X45609500Y-56546000D01*
G75*
G02*
X45372000Y-56308500I0J237500D01*
G01*
X45372000Y-55733500D01*
G75*
G02*
X45609500Y-55496000I237500J0D01*
G01*
X46084500Y-55496000D01*
G75*
G02*
X46322000Y-55733500I0J-237500D01*
G01*
X46322000Y-56308500D01*
G75*
G02*
X46084500Y-56546000I-237500J0D01*
G01*
G37*
G04 #@! TD.AperFunction*
G04 #@! TA.AperFunction,SMDPad,CuDef*
G36*
G01*
X46084500Y-58296000D02*
X45609500Y-58296000D01*
G75*
G02*
X45372000Y-58058500I0J237500D01*
G01*
X45372000Y-57483500D01*
G75*
G02*
X45609500Y-57246000I237500J0D01*
G01*
X46084500Y-57246000D01*
G75*
G02*
X46322000Y-57483500I0J-237500D01*
G01*
X46322000Y-58058500D01*
G75*
G02*
X46084500Y-58296000I-237500J0D01*
G01*
G37*
G04 #@! TD.AperFunction*
G04 #@! TA.AperFunction,SMDPad,CuDef*
G36*
G01*
X47387500Y-57260000D02*
X47862500Y-57260000D01*
G75*
G02*
X48100000Y-57497500I0J-237500D01*
G01*
X48100000Y-58072500D01*
G75*
G02*
X47862500Y-58310000I-237500J0D01*
G01*
X47387500Y-58310000D01*
G75*
G02*
X47150000Y-58072500I0J237500D01*
G01*
X47150000Y-57497500D01*
G75*
G02*
X47387500Y-57260000I237500J0D01*
G01*
G37*
G04 #@! TD.AperFunction*
G04 #@! TA.AperFunction,SMDPad,CuDef*
G36*
G01*
X47387500Y-55510000D02*
X47862500Y-55510000D01*
G75*
G02*
X48100000Y-55747500I0J-237500D01*
G01*
X48100000Y-56322500D01*
G75*
G02*
X47862500Y-56560000I-237500J0D01*
G01*
X47387500Y-56560000D01*
G75*
G02*
X47150000Y-56322500I0J237500D01*
G01*
X47150000Y-55747500D01*
G75*
G02*
X47387500Y-55510000I237500J0D01*
G01*
G37*
G04 #@! TD.AperFunction*
G04 #@! TA.AperFunction,SMDPad,CuDef*
G36*
G01*
X44306500Y-56560000D02*
X43831500Y-56560000D01*
G75*
G02*
X43594000Y-56322500I0J237500D01*
G01*
X43594000Y-55747500D01*
G75*
G02*
X43831500Y-55510000I237500J0D01*
G01*
X44306500Y-55510000D01*
G75*
G02*
X44544000Y-55747500I0J-237500D01*
G01*
X44544000Y-56322500D01*
G75*
G02*
X44306500Y-56560000I-237500J0D01*
G01*
G37*
G04 #@! TD.AperFunction*
G04 #@! TA.AperFunction,SMDPad,CuDef*
G36*
G01*
X44306500Y-58310000D02*
X43831500Y-58310000D01*
G75*
G02*
X43594000Y-58072500I0J237500D01*
G01*
X43594000Y-57497500D01*
G75*
G02*
X43831500Y-57260000I237500J0D01*
G01*
X44306500Y-57260000D01*
G75*
G02*
X44544000Y-57497500I0J-237500D01*
G01*
X44544000Y-58072500D01*
G75*
G02*
X44306500Y-58310000I-237500J0D01*
G01*
G37*
G04 #@! TD.AperFunction*
G04 #@! TA.AperFunction,SMDPad,CuDef*
G36*
G01*
X50816500Y-57260000D02*
X51291500Y-57260000D01*
G75*
G02*
X51529000Y-57497500I0J-237500D01*
G01*
X51529000Y-58072500D01*
G75*
G02*
X51291500Y-58310000I-237500J0D01*
G01*
X50816500Y-58310000D01*
G75*
G02*
X50579000Y-58072500I0J237500D01*
G01*
X50579000Y-57497500D01*
G75*
G02*
X50816500Y-57260000I237500J0D01*
G01*
G37*
G04 #@! TD.AperFunction*
G04 #@! TA.AperFunction,SMDPad,CuDef*
G36*
G01*
X50816500Y-55510000D02*
X51291500Y-55510000D01*
G75*
G02*
X51529000Y-55747500I0J-237500D01*
G01*
X51529000Y-56322500D01*
G75*
G02*
X51291500Y-56560000I-237500J0D01*
G01*
X50816500Y-56560000D01*
G75*
G02*
X50579000Y-56322500I0J237500D01*
G01*
X50579000Y-55747500D01*
G75*
G02*
X50816500Y-55510000I237500J0D01*
G01*
G37*
G04 #@! TD.AperFunction*
G04 #@! TA.AperFunction,SMDPad,CuDef*
G36*
G01*
X44560500Y-52863000D02*
X44085500Y-52863000D01*
G75*
G02*
X43848000Y-52625500I0J237500D01*
G01*
X43848000Y-52050500D01*
G75*
G02*
X44085500Y-51813000I237500J0D01*
G01*
X44560500Y-51813000D01*
G75*
G02*
X44798000Y-52050500I0J-237500D01*
G01*
X44798000Y-52625500D01*
G75*
G02*
X44560500Y-52863000I-237500J0D01*
G01*
G37*
G04 #@! TD.AperFunction*
G04 #@! TA.AperFunction,SMDPad,CuDef*
G36*
G01*
X44560500Y-54613000D02*
X44085500Y-54613000D01*
G75*
G02*
X43848000Y-54375500I0J237500D01*
G01*
X43848000Y-53800500D01*
G75*
G02*
X44085500Y-53563000I237500J0D01*
G01*
X44560500Y-53563000D01*
G75*
G02*
X44798000Y-53800500I0J-237500D01*
G01*
X44798000Y-54375500D01*
G75*
G02*
X44560500Y-54613000I-237500J0D01*
G01*
G37*
G04 #@! TD.AperFunction*
D10*
X46990000Y-54229000D03*
X46040000Y-52229000D03*
X47940000Y-52229000D03*
G04 #@! TA.AperFunction,SMDPad,CuDef*
G36*
G01*
X49038500Y-57260000D02*
X49513500Y-57260000D01*
G75*
G02*
X49751000Y-57497500I0J-237500D01*
G01*
X49751000Y-58072500D01*
G75*
G02*
X49513500Y-58310000I-237500J0D01*
G01*
X49038500Y-58310000D01*
G75*
G02*
X48801000Y-58072500I0J237500D01*
G01*
X48801000Y-57497500D01*
G75*
G02*
X49038500Y-57260000I237500J0D01*
G01*
G37*
G04 #@! TD.AperFunction*
G04 #@! TA.AperFunction,SMDPad,CuDef*
G36*
G01*
X49038500Y-55510000D02*
X49513500Y-55510000D01*
G75*
G02*
X49751000Y-55747500I0J-237500D01*
G01*
X49751000Y-56322500D01*
G75*
G02*
X49513500Y-56560000I-237500J0D01*
G01*
X49038500Y-56560000D01*
G75*
G02*
X48801000Y-56322500I0J237500D01*
G01*
X48801000Y-55747500D01*
G75*
G02*
X49038500Y-55510000I237500J0D01*
G01*
G37*
G04 #@! TD.AperFunction*
G04 #@! TA.AperFunction,SMDPad,CuDef*
G36*
G01*
X53577500Y-52849000D02*
X53102500Y-52849000D01*
G75*
G02*
X52865000Y-52611500I0J237500D01*
G01*
X52865000Y-52036500D01*
G75*
G02*
X53102500Y-51799000I237500J0D01*
G01*
X53577500Y-51799000D01*
G75*
G02*
X53815000Y-52036500I0J-237500D01*
G01*
X53815000Y-52611500D01*
G75*
G02*
X53577500Y-52849000I-237500J0D01*
G01*
G37*
G04 #@! TD.AperFunction*
G04 #@! TA.AperFunction,SMDPad,CuDef*
G36*
G01*
X53577500Y-54599000D02*
X53102500Y-54599000D01*
G75*
G02*
X52865000Y-54361500I0J237500D01*
G01*
X52865000Y-53786500D01*
G75*
G02*
X53102500Y-53549000I237500J0D01*
G01*
X53577500Y-53549000D01*
G75*
G02*
X53815000Y-53786500I0J-237500D01*
G01*
X53815000Y-54361500D01*
G75*
G02*
X53577500Y-54599000I-237500J0D01*
G01*
G37*
G04 #@! TD.AperFunction*
G04 #@! TA.AperFunction,SMDPad,CuDef*
G36*
G01*
X49419500Y-53577000D02*
X49894500Y-53577000D01*
G75*
G02*
X50132000Y-53814500I0J-237500D01*
G01*
X50132000Y-54389500D01*
G75*
G02*
X49894500Y-54627000I-237500J0D01*
G01*
X49419500Y-54627000D01*
G75*
G02*
X49182000Y-54389500I0J237500D01*
G01*
X49182000Y-53814500D01*
G75*
G02*
X49419500Y-53577000I237500J0D01*
G01*
G37*
G04 #@! TD.AperFunction*
G04 #@! TA.AperFunction,SMDPad,CuDef*
G36*
G01*
X49419500Y-51827000D02*
X49894500Y-51827000D01*
G75*
G02*
X50132000Y-52064500I0J-237500D01*
G01*
X50132000Y-52639500D01*
G75*
G02*
X49894500Y-52877000I-237500J0D01*
G01*
X49419500Y-52877000D01*
G75*
G02*
X49182000Y-52639500I0J237500D01*
G01*
X49182000Y-52064500D01*
G75*
G02*
X49419500Y-51827000I237500J0D01*
G01*
G37*
G04 #@! TD.AperFunction*
G04 #@! TA.AperFunction,SMDPad,CuDef*
G36*
G01*
X53323500Y-56546000D02*
X52848500Y-56546000D01*
G75*
G02*
X52611000Y-56308500I0J237500D01*
G01*
X52611000Y-55733500D01*
G75*
G02*
X52848500Y-55496000I237500J0D01*
G01*
X53323500Y-55496000D01*
G75*
G02*
X53561000Y-55733500I0J-237500D01*
G01*
X53561000Y-56308500D01*
G75*
G02*
X53323500Y-56546000I-237500J0D01*
G01*
G37*
G04 #@! TD.AperFunction*
G04 #@! TA.AperFunction,SMDPad,CuDef*
G36*
G01*
X53323500Y-58296000D02*
X52848500Y-58296000D01*
G75*
G02*
X52611000Y-58058500I0J237500D01*
G01*
X52611000Y-57483500D01*
G75*
G02*
X52848500Y-57246000I237500J0D01*
G01*
X53323500Y-57246000D01*
G75*
G02*
X53561000Y-57483500I0J-237500D01*
G01*
X53561000Y-58058500D01*
G75*
G02*
X53323500Y-58296000I-237500J0D01*
G01*
G37*
G04 #@! TD.AperFunction*
G04 #@! TA.AperFunction,SMDPad,CuDef*
G36*
G01*
X55355500Y-52849000D02*
X54880500Y-52849000D01*
G75*
G02*
X54643000Y-52611500I0J237500D01*
G01*
X54643000Y-52036500D01*
G75*
G02*
X54880500Y-51799000I237500J0D01*
G01*
X55355500Y-51799000D01*
G75*
G02*
X55593000Y-52036500I0J-237500D01*
G01*
X55593000Y-52611500D01*
G75*
G02*
X55355500Y-52849000I-237500J0D01*
G01*
G37*
G04 #@! TD.AperFunction*
G04 #@! TA.AperFunction,SMDPad,CuDef*
G36*
G01*
X55355500Y-54599000D02*
X54880500Y-54599000D01*
G75*
G02*
X54643000Y-54361500I0J237500D01*
G01*
X54643000Y-53786500D01*
G75*
G02*
X54880500Y-53549000I237500J0D01*
G01*
X55355500Y-53549000D01*
G75*
G02*
X55593000Y-53786500I0J-237500D01*
G01*
X55593000Y-54361500D01*
G75*
G02*
X55355500Y-54599000I-237500J0D01*
G01*
G37*
G04 #@! TD.AperFunction*
G04 #@! TA.AperFunction,SMDPad,CuDef*
G36*
G01*
X51324500Y-53577000D02*
X51799500Y-53577000D01*
G75*
G02*
X52037000Y-53814500I0J-237500D01*
G01*
X52037000Y-54389500D01*
G75*
G02*
X51799500Y-54627000I-237500J0D01*
G01*
X51324500Y-54627000D01*
G75*
G02*
X51087000Y-54389500I0J237500D01*
G01*
X51087000Y-53814500D01*
G75*
G02*
X51324500Y-53577000I237500J0D01*
G01*
G37*
G04 #@! TD.AperFunction*
G04 #@! TA.AperFunction,SMDPad,CuDef*
G36*
G01*
X51324500Y-51827000D02*
X51799500Y-51827000D01*
G75*
G02*
X52037000Y-52064500I0J-237500D01*
G01*
X52037000Y-52639500D01*
G75*
G02*
X51799500Y-52877000I-237500J0D01*
G01*
X51324500Y-52877000D01*
G75*
G02*
X51087000Y-52639500I0J237500D01*
G01*
X51087000Y-52064500D01*
G75*
G02*
X51324500Y-51827000I237500J0D01*
G01*
G37*
G04 #@! TD.AperFunction*
G04 #@! TA.AperFunction,SMDPad,CuDef*
G36*
G01*
X70628500Y-53577000D02*
X71103500Y-53577000D01*
G75*
G02*
X71341000Y-53814500I0J-237500D01*
G01*
X71341000Y-54389500D01*
G75*
G02*
X71103500Y-54627000I-237500J0D01*
G01*
X70628500Y-54627000D01*
G75*
G02*
X70391000Y-54389500I0J237500D01*
G01*
X70391000Y-53814500D01*
G75*
G02*
X70628500Y-53577000I237500J0D01*
G01*
G37*
G04 #@! TD.AperFunction*
G04 #@! TA.AperFunction,SMDPad,CuDef*
G36*
G01*
X70628500Y-51827000D02*
X71103500Y-51827000D01*
G75*
G02*
X71341000Y-52064500I0J-237500D01*
G01*
X71341000Y-52639500D01*
G75*
G02*
X71103500Y-52877000I-237500J0D01*
G01*
X70628500Y-52877000D01*
G75*
G02*
X70391000Y-52639500I0J237500D01*
G01*
X70391000Y-52064500D01*
G75*
G02*
X70628500Y-51827000I237500J0D01*
G01*
G37*
G04 #@! TD.AperFunction*
G04 #@! TA.AperFunction,SMDPad,CuDef*
G36*
G01*
X83328500Y-53577000D02*
X83803500Y-53577000D01*
G75*
G02*
X84041000Y-53814500I0J-237500D01*
G01*
X84041000Y-54389500D01*
G75*
G02*
X83803500Y-54627000I-237500J0D01*
G01*
X83328500Y-54627000D01*
G75*
G02*
X83091000Y-54389500I0J237500D01*
G01*
X83091000Y-53814500D01*
G75*
G02*
X83328500Y-53577000I237500J0D01*
G01*
G37*
G04 #@! TD.AperFunction*
G04 #@! TA.AperFunction,SMDPad,CuDef*
G36*
G01*
X83328500Y-51827000D02*
X83803500Y-51827000D01*
G75*
G02*
X84041000Y-52064500I0J-237500D01*
G01*
X84041000Y-52639500D01*
G75*
G02*
X83803500Y-52877000I-237500J0D01*
G01*
X83328500Y-52877000D01*
G75*
G02*
X83091000Y-52639500I0J237500D01*
G01*
X83091000Y-52064500D01*
G75*
G02*
X83328500Y-51827000I237500J0D01*
G01*
G37*
G04 #@! TD.AperFunction*
G04 #@! TA.AperFunction,SMDPad,CuDef*
G36*
G01*
X96028500Y-53549000D02*
X96503500Y-53549000D01*
G75*
G02*
X96741000Y-53786500I0J-237500D01*
G01*
X96741000Y-54361500D01*
G75*
G02*
X96503500Y-54599000I-237500J0D01*
G01*
X96028500Y-54599000D01*
G75*
G02*
X95791000Y-54361500I0J237500D01*
G01*
X95791000Y-53786500D01*
G75*
G02*
X96028500Y-53549000I237500J0D01*
G01*
G37*
G04 #@! TD.AperFunction*
G04 #@! TA.AperFunction,SMDPad,CuDef*
G36*
G01*
X96028500Y-51799000D02*
X96503500Y-51799000D01*
G75*
G02*
X96741000Y-52036500I0J-237500D01*
G01*
X96741000Y-52611500D01*
G75*
G02*
X96503500Y-52849000I-237500J0D01*
G01*
X96028500Y-52849000D01*
G75*
G02*
X95791000Y-52611500I0J237500D01*
G01*
X95791000Y-52036500D01*
G75*
G02*
X96028500Y-51799000I237500J0D01*
G01*
G37*
G04 #@! TD.AperFunction*
G04 #@! TA.AperFunction,SMDPad,CuDef*
G36*
G01*
X58436500Y-57260000D02*
X58911500Y-57260000D01*
G75*
G02*
X59149000Y-57497500I0J-237500D01*
G01*
X59149000Y-58072500D01*
G75*
G02*
X58911500Y-58310000I-237500J0D01*
G01*
X58436500Y-58310000D01*
G75*
G02*
X58199000Y-58072500I0J237500D01*
G01*
X58199000Y-57497500D01*
G75*
G02*
X58436500Y-57260000I237500J0D01*
G01*
G37*
G04 #@! TD.AperFunction*
G04 #@! TA.AperFunction,SMDPad,CuDef*
G36*
G01*
X58436500Y-55510000D02*
X58911500Y-55510000D01*
G75*
G02*
X59149000Y-55747500I0J-237500D01*
G01*
X59149000Y-56322500D01*
G75*
G02*
X58911500Y-56560000I-237500J0D01*
G01*
X58436500Y-56560000D01*
G75*
G02*
X58199000Y-56322500I0J237500D01*
G01*
X58199000Y-55747500D01*
G75*
G02*
X58436500Y-55510000I237500J0D01*
G01*
G37*
G04 #@! TD.AperFunction*
X58039000Y-54229000D03*
X57089000Y-52229000D03*
X58989000Y-52229000D03*
G04 #@! TA.AperFunction,SMDPad,CuDef*
G36*
G01*
X60595500Y-57260000D02*
X61070500Y-57260000D01*
G75*
G02*
X61308000Y-57497500I0J-237500D01*
G01*
X61308000Y-58072500D01*
G75*
G02*
X61070500Y-58310000I-237500J0D01*
G01*
X60595500Y-58310000D01*
G75*
G02*
X60358000Y-58072500I0J237500D01*
G01*
X60358000Y-57497500D01*
G75*
G02*
X60595500Y-57260000I237500J0D01*
G01*
G37*
G04 #@! TD.AperFunction*
G04 #@! TA.AperFunction,SMDPad,CuDef*
G36*
G01*
X60595500Y-55510000D02*
X61070500Y-55510000D01*
G75*
G02*
X61308000Y-55747500I0J-237500D01*
G01*
X61308000Y-56322500D01*
G75*
G02*
X61070500Y-56560000I-237500J0D01*
G01*
X60595500Y-56560000D01*
G75*
G02*
X60358000Y-56322500I0J237500D01*
G01*
X60358000Y-55747500D01*
G75*
G02*
X60595500Y-55510000I237500J0D01*
G01*
G37*
G04 #@! TD.AperFunction*
G04 #@! TA.AperFunction,SMDPad,CuDef*
G36*
G01*
X66785500Y-52877000D02*
X66310500Y-52877000D01*
G75*
G02*
X66073000Y-52639500I0J237500D01*
G01*
X66073000Y-52064500D01*
G75*
G02*
X66310500Y-51827000I237500J0D01*
G01*
X66785500Y-51827000D01*
G75*
G02*
X67023000Y-52064500I0J-237500D01*
G01*
X67023000Y-52639500D01*
G75*
G02*
X66785500Y-52877000I-237500J0D01*
G01*
G37*
G04 #@! TD.AperFunction*
G04 #@! TA.AperFunction,SMDPad,CuDef*
G36*
G01*
X66785500Y-54627000D02*
X66310500Y-54627000D01*
G75*
G02*
X66073000Y-54389500I0J237500D01*
G01*
X66073000Y-53814500D01*
G75*
G02*
X66310500Y-53577000I237500J0D01*
G01*
X66785500Y-53577000D01*
G75*
G02*
X67023000Y-53814500I0J-237500D01*
G01*
X67023000Y-54389500D01*
G75*
G02*
X66785500Y-54627000I-237500J0D01*
G01*
G37*
G04 #@! TD.AperFunction*
G04 #@! TA.AperFunction,SMDPad,CuDef*
G36*
G01*
X68088500Y-53577000D02*
X68563500Y-53577000D01*
G75*
G02*
X68801000Y-53814500I0J-237500D01*
G01*
X68801000Y-54389500D01*
G75*
G02*
X68563500Y-54627000I-237500J0D01*
G01*
X68088500Y-54627000D01*
G75*
G02*
X67851000Y-54389500I0J237500D01*
G01*
X67851000Y-53814500D01*
G75*
G02*
X68088500Y-53577000I237500J0D01*
G01*
G37*
G04 #@! TD.AperFunction*
G04 #@! TA.AperFunction,SMDPad,CuDef*
G36*
G01*
X68088500Y-51827000D02*
X68563500Y-51827000D01*
G75*
G02*
X68801000Y-52064500I0J-237500D01*
G01*
X68801000Y-52639500D01*
G75*
G02*
X68563500Y-52877000I-237500J0D01*
G01*
X68088500Y-52877000D01*
G75*
G02*
X67851000Y-52639500I0J237500D01*
G01*
X67851000Y-52064500D01*
G75*
G02*
X68088500Y-51827000I237500J0D01*
G01*
G37*
G04 #@! TD.AperFunction*
G04 #@! TA.AperFunction,SMDPad,CuDef*
G36*
G01*
X64532500Y-53563000D02*
X65007500Y-53563000D01*
G75*
G02*
X65245000Y-53800500I0J-237500D01*
G01*
X65245000Y-54375500D01*
G75*
G02*
X65007500Y-54613000I-237500J0D01*
G01*
X64532500Y-54613000D01*
G75*
G02*
X64295000Y-54375500I0J237500D01*
G01*
X64295000Y-53800500D01*
G75*
G02*
X64532500Y-53563000I237500J0D01*
G01*
G37*
G04 #@! TD.AperFunction*
G04 #@! TA.AperFunction,SMDPad,CuDef*
G36*
G01*
X64532500Y-51813000D02*
X65007500Y-51813000D01*
G75*
G02*
X65245000Y-52050500I0J-237500D01*
G01*
X65245000Y-52625500D01*
G75*
G02*
X65007500Y-52863000I-237500J0D01*
G01*
X64532500Y-52863000D01*
G75*
G02*
X64295000Y-52625500I0J237500D01*
G01*
X64295000Y-52050500D01*
G75*
G02*
X64532500Y-51813000I237500J0D01*
G01*
G37*
G04 #@! TD.AperFunction*
G04 #@! TA.AperFunction,SMDPad,CuDef*
G36*
G01*
X63008500Y-57260000D02*
X63483500Y-57260000D01*
G75*
G02*
X63721000Y-57497500I0J-237500D01*
G01*
X63721000Y-58072500D01*
G75*
G02*
X63483500Y-58310000I-237500J0D01*
G01*
X63008500Y-58310000D01*
G75*
G02*
X62771000Y-58072500I0J237500D01*
G01*
X62771000Y-57497500D01*
G75*
G02*
X63008500Y-57260000I237500J0D01*
G01*
G37*
G04 #@! TD.AperFunction*
G04 #@! TA.AperFunction,SMDPad,CuDef*
G36*
G01*
X63008500Y-55510000D02*
X63483500Y-55510000D01*
G75*
G02*
X63721000Y-55747500I0J-237500D01*
G01*
X63721000Y-56322500D01*
G75*
G02*
X63483500Y-56560000I-237500J0D01*
G01*
X63008500Y-56560000D01*
G75*
G02*
X62771000Y-56322500I0J237500D01*
G01*
X62771000Y-55747500D01*
G75*
G02*
X63008500Y-55510000I237500J0D01*
G01*
G37*
G04 #@! TD.AperFunction*
G04 #@! TA.AperFunction,SMDPad,CuDef*
G36*
G01*
X65548500Y-57232000D02*
X66023500Y-57232000D01*
G75*
G02*
X66261000Y-57469500I0J-237500D01*
G01*
X66261000Y-58044500D01*
G75*
G02*
X66023500Y-58282000I-237500J0D01*
G01*
X65548500Y-58282000D01*
G75*
G02*
X65311000Y-58044500I0J237500D01*
G01*
X65311000Y-57469500D01*
G75*
G02*
X65548500Y-57232000I237500J0D01*
G01*
G37*
G04 #@! TD.AperFunction*
G04 #@! TA.AperFunction,SMDPad,CuDef*
G36*
G01*
X65548500Y-55482000D02*
X66023500Y-55482000D01*
G75*
G02*
X66261000Y-55719500I0J-237500D01*
G01*
X66261000Y-56294500D01*
G75*
G02*
X66023500Y-56532000I-237500J0D01*
G01*
X65548500Y-56532000D01*
G75*
G02*
X65311000Y-56294500I0J237500D01*
G01*
X65311000Y-55719500D01*
G75*
G02*
X65548500Y-55482000I237500J0D01*
G01*
G37*
G04 #@! TD.AperFunction*
G04 #@! TA.AperFunction,SMDPad,CuDef*
G36*
G01*
X68088500Y-57232000D02*
X68563500Y-57232000D01*
G75*
G02*
X68801000Y-57469500I0J-237500D01*
G01*
X68801000Y-58044500D01*
G75*
G02*
X68563500Y-58282000I-237500J0D01*
G01*
X68088500Y-58282000D01*
G75*
G02*
X67851000Y-58044500I0J237500D01*
G01*
X67851000Y-57469500D01*
G75*
G02*
X68088500Y-57232000I237500J0D01*
G01*
G37*
G04 #@! TD.AperFunction*
G04 #@! TA.AperFunction,SMDPad,CuDef*
G36*
G01*
X68088500Y-55482000D02*
X68563500Y-55482000D01*
G75*
G02*
X68801000Y-55719500I0J-237500D01*
G01*
X68801000Y-56294500D01*
G75*
G02*
X68563500Y-56532000I-237500J0D01*
G01*
X68088500Y-56532000D01*
G75*
G02*
X67851000Y-56294500I0J237500D01*
G01*
X67851000Y-55719500D01*
G75*
G02*
X68088500Y-55482000I237500J0D01*
G01*
G37*
G04 #@! TD.AperFunction*
G04 #@! TA.AperFunction,SMDPad,CuDef*
G36*
G01*
X70628500Y-57232000D02*
X71103500Y-57232000D01*
G75*
G02*
X71341000Y-57469500I0J-237500D01*
G01*
X71341000Y-58044500D01*
G75*
G02*
X71103500Y-58282000I-237500J0D01*
G01*
X70628500Y-58282000D01*
G75*
G02*
X70391000Y-58044500I0J237500D01*
G01*
X70391000Y-57469500D01*
G75*
G02*
X70628500Y-57232000I237500J0D01*
G01*
G37*
G04 #@! TD.AperFunction*
G04 #@! TA.AperFunction,SMDPad,CuDef*
G36*
G01*
X70628500Y-55482000D02*
X71103500Y-55482000D01*
G75*
G02*
X71341000Y-55719500I0J-237500D01*
G01*
X71341000Y-56294500D01*
G75*
G02*
X71103500Y-56532000I-237500J0D01*
G01*
X70628500Y-56532000D01*
G75*
G02*
X70391000Y-56294500I0J237500D01*
G01*
X70391000Y-55719500D01*
G75*
G02*
X70628500Y-55482000I237500J0D01*
G01*
G37*
G04 #@! TD.AperFunction*
G04 #@! TA.AperFunction,SMDPad,CuDef*
G36*
G01*
X73168500Y-57260000D02*
X73643500Y-57260000D01*
G75*
G02*
X73881000Y-57497500I0J-237500D01*
G01*
X73881000Y-58072500D01*
G75*
G02*
X73643500Y-58310000I-237500J0D01*
G01*
X73168500Y-58310000D01*
G75*
G02*
X72931000Y-58072500I0J237500D01*
G01*
X72931000Y-57497500D01*
G75*
G02*
X73168500Y-57260000I237500J0D01*
G01*
G37*
G04 #@! TD.AperFunction*
G04 #@! TA.AperFunction,SMDPad,CuDef*
G36*
G01*
X73168500Y-55510000D02*
X73643500Y-55510000D01*
G75*
G02*
X73881000Y-55747500I0J-237500D01*
G01*
X73881000Y-56322500D01*
G75*
G02*
X73643500Y-56560000I-237500J0D01*
G01*
X73168500Y-56560000D01*
G75*
G02*
X72931000Y-56322500I0J237500D01*
G01*
X72931000Y-55747500D01*
G75*
G02*
X73168500Y-55510000I237500J0D01*
G01*
G37*
G04 #@! TD.AperFunction*
G04 #@! TA.AperFunction,SMDPad,CuDef*
G36*
G01*
X79485500Y-52877000D02*
X79010500Y-52877000D01*
G75*
G02*
X78773000Y-52639500I0J237500D01*
G01*
X78773000Y-52064500D01*
G75*
G02*
X79010500Y-51827000I237500J0D01*
G01*
X79485500Y-51827000D01*
G75*
G02*
X79723000Y-52064500I0J-237500D01*
G01*
X79723000Y-52639500D01*
G75*
G02*
X79485500Y-52877000I-237500J0D01*
G01*
G37*
G04 #@! TD.AperFunction*
G04 #@! TA.AperFunction,SMDPad,CuDef*
G36*
G01*
X79485500Y-54627000D02*
X79010500Y-54627000D01*
G75*
G02*
X78773000Y-54389500I0J237500D01*
G01*
X78773000Y-53814500D01*
G75*
G02*
X79010500Y-53577000I237500J0D01*
G01*
X79485500Y-53577000D01*
G75*
G02*
X79723000Y-53814500I0J-237500D01*
G01*
X79723000Y-54389500D01*
G75*
G02*
X79485500Y-54627000I-237500J0D01*
G01*
G37*
G04 #@! TD.AperFunction*
G04 #@! TA.AperFunction,SMDPad,CuDef*
G36*
G01*
X80788500Y-53577000D02*
X81263500Y-53577000D01*
G75*
G02*
X81501000Y-53814500I0J-237500D01*
G01*
X81501000Y-54389500D01*
G75*
G02*
X81263500Y-54627000I-237500J0D01*
G01*
X80788500Y-54627000D01*
G75*
G02*
X80551000Y-54389500I0J237500D01*
G01*
X80551000Y-53814500D01*
G75*
G02*
X80788500Y-53577000I237500J0D01*
G01*
G37*
G04 #@! TD.AperFunction*
G04 #@! TA.AperFunction,SMDPad,CuDef*
G36*
G01*
X80788500Y-51827000D02*
X81263500Y-51827000D01*
G75*
G02*
X81501000Y-52064500I0J-237500D01*
G01*
X81501000Y-52639500D01*
G75*
G02*
X81263500Y-52877000I-237500J0D01*
G01*
X80788500Y-52877000D01*
G75*
G02*
X80551000Y-52639500I0J237500D01*
G01*
X80551000Y-52064500D01*
G75*
G02*
X80788500Y-51827000I237500J0D01*
G01*
G37*
G04 #@! TD.AperFunction*
G04 #@! TA.AperFunction,SMDPad,CuDef*
G36*
G01*
X77232500Y-53549000D02*
X77707500Y-53549000D01*
G75*
G02*
X77945000Y-53786500I0J-237500D01*
G01*
X77945000Y-54361500D01*
G75*
G02*
X77707500Y-54599000I-237500J0D01*
G01*
X77232500Y-54599000D01*
G75*
G02*
X76995000Y-54361500I0J237500D01*
G01*
X76995000Y-53786500D01*
G75*
G02*
X77232500Y-53549000I237500J0D01*
G01*
G37*
G04 #@! TD.AperFunction*
G04 #@! TA.AperFunction,SMDPad,CuDef*
G36*
G01*
X77232500Y-51799000D02*
X77707500Y-51799000D01*
G75*
G02*
X77945000Y-52036500I0J-237500D01*
G01*
X77945000Y-52611500D01*
G75*
G02*
X77707500Y-52849000I-237500J0D01*
G01*
X77232500Y-52849000D01*
G75*
G02*
X76995000Y-52611500I0J237500D01*
G01*
X76995000Y-52036500D01*
G75*
G02*
X77232500Y-51799000I237500J0D01*
G01*
G37*
G04 #@! TD.AperFunction*
G04 #@! TA.AperFunction,SMDPad,CuDef*
G36*
G01*
X75708500Y-57260000D02*
X76183500Y-57260000D01*
G75*
G02*
X76421000Y-57497500I0J-237500D01*
G01*
X76421000Y-58072500D01*
G75*
G02*
X76183500Y-58310000I-237500J0D01*
G01*
X75708500Y-58310000D01*
G75*
G02*
X75471000Y-58072500I0J237500D01*
G01*
X75471000Y-57497500D01*
G75*
G02*
X75708500Y-57260000I237500J0D01*
G01*
G37*
G04 #@! TD.AperFunction*
G04 #@! TA.AperFunction,SMDPad,CuDef*
G36*
G01*
X75708500Y-55510000D02*
X76183500Y-55510000D01*
G75*
G02*
X76421000Y-55747500I0J-237500D01*
G01*
X76421000Y-56322500D01*
G75*
G02*
X76183500Y-56560000I-237500J0D01*
G01*
X75708500Y-56560000D01*
G75*
G02*
X75471000Y-56322500I0J237500D01*
G01*
X75471000Y-55747500D01*
G75*
G02*
X75708500Y-55510000I237500J0D01*
G01*
G37*
G04 #@! TD.AperFunction*
G04 #@! TA.AperFunction,SMDPad,CuDef*
G36*
G01*
X78248500Y-57260000D02*
X78723500Y-57260000D01*
G75*
G02*
X78961000Y-57497500I0J-237500D01*
G01*
X78961000Y-58072500D01*
G75*
G02*
X78723500Y-58310000I-237500J0D01*
G01*
X78248500Y-58310000D01*
G75*
G02*
X78011000Y-58072500I0J237500D01*
G01*
X78011000Y-57497500D01*
G75*
G02*
X78248500Y-57260000I237500J0D01*
G01*
G37*
G04 #@! TD.AperFunction*
G04 #@! TA.AperFunction,SMDPad,CuDef*
G36*
G01*
X78248500Y-55510000D02*
X78723500Y-55510000D01*
G75*
G02*
X78961000Y-55747500I0J-237500D01*
G01*
X78961000Y-56322500D01*
G75*
G02*
X78723500Y-56560000I-237500J0D01*
G01*
X78248500Y-56560000D01*
G75*
G02*
X78011000Y-56322500I0J237500D01*
G01*
X78011000Y-55747500D01*
G75*
G02*
X78248500Y-55510000I237500J0D01*
G01*
G37*
G04 #@! TD.AperFunction*
G04 #@! TA.AperFunction,SMDPad,CuDef*
G36*
G01*
X80788500Y-57260000D02*
X81263500Y-57260000D01*
G75*
G02*
X81501000Y-57497500I0J-237500D01*
G01*
X81501000Y-58072500D01*
G75*
G02*
X81263500Y-58310000I-237500J0D01*
G01*
X80788500Y-58310000D01*
G75*
G02*
X80551000Y-58072500I0J237500D01*
G01*
X80551000Y-57497500D01*
G75*
G02*
X80788500Y-57260000I237500J0D01*
G01*
G37*
G04 #@! TD.AperFunction*
G04 #@! TA.AperFunction,SMDPad,CuDef*
G36*
G01*
X80788500Y-55510000D02*
X81263500Y-55510000D01*
G75*
G02*
X81501000Y-55747500I0J-237500D01*
G01*
X81501000Y-56322500D01*
G75*
G02*
X81263500Y-56560000I-237500J0D01*
G01*
X80788500Y-56560000D01*
G75*
G02*
X80551000Y-56322500I0J237500D01*
G01*
X80551000Y-55747500D01*
G75*
G02*
X80788500Y-55510000I237500J0D01*
G01*
G37*
G04 #@! TD.AperFunction*
G04 #@! TA.AperFunction,SMDPad,CuDef*
G36*
G01*
X83328500Y-57260000D02*
X83803500Y-57260000D01*
G75*
G02*
X84041000Y-57497500I0J-237500D01*
G01*
X84041000Y-58072500D01*
G75*
G02*
X83803500Y-58310000I-237500J0D01*
G01*
X83328500Y-58310000D01*
G75*
G02*
X83091000Y-58072500I0J237500D01*
G01*
X83091000Y-57497500D01*
G75*
G02*
X83328500Y-57260000I237500J0D01*
G01*
G37*
G04 #@! TD.AperFunction*
G04 #@! TA.AperFunction,SMDPad,CuDef*
G36*
G01*
X83328500Y-55510000D02*
X83803500Y-55510000D01*
G75*
G02*
X84041000Y-55747500I0J-237500D01*
G01*
X84041000Y-56322500D01*
G75*
G02*
X83803500Y-56560000I-237500J0D01*
G01*
X83328500Y-56560000D01*
G75*
G02*
X83091000Y-56322500I0J237500D01*
G01*
X83091000Y-55747500D01*
G75*
G02*
X83328500Y-55510000I237500J0D01*
G01*
G37*
G04 #@! TD.AperFunction*
G04 #@! TA.AperFunction,SMDPad,CuDef*
G36*
G01*
X85868500Y-57260000D02*
X86343500Y-57260000D01*
G75*
G02*
X86581000Y-57497500I0J-237500D01*
G01*
X86581000Y-58072500D01*
G75*
G02*
X86343500Y-58310000I-237500J0D01*
G01*
X85868500Y-58310000D01*
G75*
G02*
X85631000Y-58072500I0J237500D01*
G01*
X85631000Y-57497500D01*
G75*
G02*
X85868500Y-57260000I237500J0D01*
G01*
G37*
G04 #@! TD.AperFunction*
G04 #@! TA.AperFunction,SMDPad,CuDef*
G36*
G01*
X85868500Y-55510000D02*
X86343500Y-55510000D01*
G75*
G02*
X86581000Y-55747500I0J-237500D01*
G01*
X86581000Y-56322500D01*
G75*
G02*
X86343500Y-56560000I-237500J0D01*
G01*
X85868500Y-56560000D01*
G75*
G02*
X85631000Y-56322500I0J237500D01*
G01*
X85631000Y-55747500D01*
G75*
G02*
X85868500Y-55510000I237500J0D01*
G01*
G37*
G04 #@! TD.AperFunction*
G04 #@! TA.AperFunction,SMDPad,CuDef*
G36*
G01*
X92185500Y-52877000D02*
X91710500Y-52877000D01*
G75*
G02*
X91473000Y-52639500I0J237500D01*
G01*
X91473000Y-52064500D01*
G75*
G02*
X91710500Y-51827000I237500J0D01*
G01*
X92185500Y-51827000D01*
G75*
G02*
X92423000Y-52064500I0J-237500D01*
G01*
X92423000Y-52639500D01*
G75*
G02*
X92185500Y-52877000I-237500J0D01*
G01*
G37*
G04 #@! TD.AperFunction*
G04 #@! TA.AperFunction,SMDPad,CuDef*
G36*
G01*
X92185500Y-54627000D02*
X91710500Y-54627000D01*
G75*
G02*
X91473000Y-54389500I0J237500D01*
G01*
X91473000Y-53814500D01*
G75*
G02*
X91710500Y-53577000I237500J0D01*
G01*
X92185500Y-53577000D01*
G75*
G02*
X92423000Y-53814500I0J-237500D01*
G01*
X92423000Y-54389500D01*
G75*
G02*
X92185500Y-54627000I-237500J0D01*
G01*
G37*
G04 #@! TD.AperFunction*
G04 #@! TA.AperFunction,SMDPad,CuDef*
G36*
G01*
X93488500Y-53577000D02*
X93963500Y-53577000D01*
G75*
G02*
X94201000Y-53814500I0J-237500D01*
G01*
X94201000Y-54389500D01*
G75*
G02*
X93963500Y-54627000I-237500J0D01*
G01*
X93488500Y-54627000D01*
G75*
G02*
X93251000Y-54389500I0J237500D01*
G01*
X93251000Y-53814500D01*
G75*
G02*
X93488500Y-53577000I237500J0D01*
G01*
G37*
G04 #@! TD.AperFunction*
G04 #@! TA.AperFunction,SMDPad,CuDef*
G36*
G01*
X93488500Y-51827000D02*
X93963500Y-51827000D01*
G75*
G02*
X94201000Y-52064500I0J-237500D01*
G01*
X94201000Y-52639500D01*
G75*
G02*
X93963500Y-52877000I-237500J0D01*
G01*
X93488500Y-52877000D01*
G75*
G02*
X93251000Y-52639500I0J237500D01*
G01*
X93251000Y-52064500D01*
G75*
G02*
X93488500Y-51827000I237500J0D01*
G01*
G37*
G04 #@! TD.AperFunction*
G04 #@! TA.AperFunction,SMDPad,CuDef*
G36*
G01*
X89932500Y-53577000D02*
X90407500Y-53577000D01*
G75*
G02*
X90645000Y-53814500I0J-237500D01*
G01*
X90645000Y-54389500D01*
G75*
G02*
X90407500Y-54627000I-237500J0D01*
G01*
X89932500Y-54627000D01*
G75*
G02*
X89695000Y-54389500I0J237500D01*
G01*
X89695000Y-53814500D01*
G75*
G02*
X89932500Y-53577000I237500J0D01*
G01*
G37*
G04 #@! TD.AperFunction*
G04 #@! TA.AperFunction,SMDPad,CuDef*
G36*
G01*
X89932500Y-51827000D02*
X90407500Y-51827000D01*
G75*
G02*
X90645000Y-52064500I0J-237500D01*
G01*
X90645000Y-52639500D01*
G75*
G02*
X90407500Y-52877000I-237500J0D01*
G01*
X89932500Y-52877000D01*
G75*
G02*
X89695000Y-52639500I0J237500D01*
G01*
X89695000Y-52064500D01*
G75*
G02*
X89932500Y-51827000I237500J0D01*
G01*
G37*
G04 #@! TD.AperFunction*
G04 #@! TA.AperFunction,SMDPad,CuDef*
G36*
G01*
X88408500Y-57260000D02*
X88883500Y-57260000D01*
G75*
G02*
X89121000Y-57497500I0J-237500D01*
G01*
X89121000Y-58072500D01*
G75*
G02*
X88883500Y-58310000I-237500J0D01*
G01*
X88408500Y-58310000D01*
G75*
G02*
X88171000Y-58072500I0J237500D01*
G01*
X88171000Y-57497500D01*
G75*
G02*
X88408500Y-57260000I237500J0D01*
G01*
G37*
G04 #@! TD.AperFunction*
G04 #@! TA.AperFunction,SMDPad,CuDef*
G36*
G01*
X88408500Y-55510000D02*
X88883500Y-55510000D01*
G75*
G02*
X89121000Y-55747500I0J-237500D01*
G01*
X89121000Y-56322500D01*
G75*
G02*
X88883500Y-56560000I-237500J0D01*
G01*
X88408500Y-56560000D01*
G75*
G02*
X88171000Y-56322500I0J237500D01*
G01*
X88171000Y-55747500D01*
G75*
G02*
X88408500Y-55510000I237500J0D01*
G01*
G37*
G04 #@! TD.AperFunction*
G04 #@! TA.AperFunction,SMDPad,CuDef*
G36*
G01*
X90948500Y-57260000D02*
X91423500Y-57260000D01*
G75*
G02*
X91661000Y-57497500I0J-237500D01*
G01*
X91661000Y-58072500D01*
G75*
G02*
X91423500Y-58310000I-237500J0D01*
G01*
X90948500Y-58310000D01*
G75*
G02*
X90711000Y-58072500I0J237500D01*
G01*
X90711000Y-57497500D01*
G75*
G02*
X90948500Y-57260000I237500J0D01*
G01*
G37*
G04 #@! TD.AperFunction*
G04 #@! TA.AperFunction,SMDPad,CuDef*
G36*
G01*
X90948500Y-55510000D02*
X91423500Y-55510000D01*
G75*
G02*
X91661000Y-55747500I0J-237500D01*
G01*
X91661000Y-56322500D01*
G75*
G02*
X91423500Y-56560000I-237500J0D01*
G01*
X90948500Y-56560000D01*
G75*
G02*
X90711000Y-56322500I0J237500D01*
G01*
X90711000Y-55747500D01*
G75*
G02*
X90948500Y-55510000I237500J0D01*
G01*
G37*
G04 #@! TD.AperFunction*
G04 #@! TA.AperFunction,SMDPad,CuDef*
G36*
G01*
X93488500Y-57260000D02*
X93963500Y-57260000D01*
G75*
G02*
X94201000Y-57497500I0J-237500D01*
G01*
X94201000Y-58072500D01*
G75*
G02*
X93963500Y-58310000I-237500J0D01*
G01*
X93488500Y-58310000D01*
G75*
G02*
X93251000Y-58072500I0J237500D01*
G01*
X93251000Y-57497500D01*
G75*
G02*
X93488500Y-57260000I237500J0D01*
G01*
G37*
G04 #@! TD.AperFunction*
G04 #@! TA.AperFunction,SMDPad,CuDef*
G36*
G01*
X93488500Y-55510000D02*
X93963500Y-55510000D01*
G75*
G02*
X94201000Y-55747500I0J-237500D01*
G01*
X94201000Y-56322500D01*
G75*
G02*
X93963500Y-56560000I-237500J0D01*
G01*
X93488500Y-56560000D01*
G75*
G02*
X93251000Y-56322500I0J237500D01*
G01*
X93251000Y-55747500D01*
G75*
G02*
X93488500Y-55510000I237500J0D01*
G01*
G37*
G04 #@! TD.AperFunction*
G04 #@! TA.AperFunction,SMDPad,CuDef*
G36*
G01*
X96028500Y-57260000D02*
X96503500Y-57260000D01*
G75*
G02*
X96741000Y-57497500I0J-237500D01*
G01*
X96741000Y-58072500D01*
G75*
G02*
X96503500Y-58310000I-237500J0D01*
G01*
X96028500Y-58310000D01*
G75*
G02*
X95791000Y-58072500I0J237500D01*
G01*
X95791000Y-57497500D01*
G75*
G02*
X96028500Y-57260000I237500J0D01*
G01*
G37*
G04 #@! TD.AperFunction*
G04 #@! TA.AperFunction,SMDPad,CuDef*
G36*
G01*
X96028500Y-55510000D02*
X96503500Y-55510000D01*
G75*
G02*
X96741000Y-55747500I0J-237500D01*
G01*
X96741000Y-56322500D01*
G75*
G02*
X96503500Y-56560000I-237500J0D01*
G01*
X96028500Y-56560000D01*
G75*
G02*
X95791000Y-56322500I0J237500D01*
G01*
X95791000Y-55747500D01*
G75*
G02*
X96028500Y-55510000I237500J0D01*
G01*
G37*
G04 #@! TD.AperFunction*
X55880000Y-57896000D03*
X54930000Y-55896000D03*
X56830000Y-55896000D03*
X62042000Y-54229000D03*
X61092000Y-52229000D03*
X62992000Y-52229000D03*
X74676000Y-54213000D03*
X73726000Y-52213000D03*
X75626000Y-52213000D03*
X87376000Y-54229000D03*
X86426000Y-52229000D03*
X88326000Y-52229000D03*
D11*
X44196000Y-60452000D03*
X46736000Y-60452000D03*
X49276000Y-60452000D03*
X51816000Y-60452000D03*
X54356000Y-60452000D03*
X56896000Y-60452000D03*
X59436000Y-60452000D03*
X61976000Y-60452000D03*
X64516000Y-60452000D03*
X67056000Y-60452000D03*
X69596000Y-60452000D03*
X72136000Y-60452000D03*
X74676000Y-60452000D03*
X77216000Y-60452000D03*
X79756000Y-60452000D03*
X82296000Y-60452000D03*
X84836000Y-60452000D03*
X87376000Y-60452000D03*
X89916000Y-60452000D03*
X92456000Y-60452000D03*
X94996000Y-60452000D03*
D12*
X97536000Y-60452000D03*
D13*
X94869000Y-52324000D03*
X82169000Y-52324000D03*
X69469000Y-52324000D03*
X56261000Y-54199010D03*
X84836000Y-52324000D03*
X84836000Y-57785000D03*
X72263000Y-52324000D03*
X72263000Y-57785000D03*
X87376000Y-55372000D03*
X74676000Y-55372000D03*
X61976000Y-55372000D03*
X55753000Y-55245000D03*
D14*
X93251000Y-52352000D02*
X93726000Y-52352000D01*
X92925990Y-52677010D02*
X93251000Y-52352000D01*
X92925990Y-53599010D02*
X92925990Y-52677010D01*
X92423000Y-54102000D02*
X92925990Y-53599010D01*
X91948000Y-54102000D02*
X92423000Y-54102000D01*
X79723000Y-54102000D02*
X80137000Y-53688000D01*
X79248000Y-54102000D02*
X79723000Y-54102000D01*
X80551000Y-52352000D02*
X81026000Y-52352000D01*
X80137000Y-52766000D02*
X80551000Y-52352000D01*
X80137000Y-53688000D02*
X80137000Y-52766000D01*
X94841000Y-52352000D02*
X94869000Y-52324000D01*
X93726000Y-52352000D02*
X94841000Y-52352000D01*
X82141000Y-52352000D02*
X82169000Y-52324000D01*
X81026000Y-52352000D02*
X82141000Y-52352000D01*
X69441000Y-52352000D02*
X69469000Y-52324000D01*
X68326000Y-52352000D02*
X69441000Y-52352000D01*
X67023000Y-54102000D02*
X67310000Y-53815000D01*
X66548000Y-54102000D02*
X67023000Y-54102000D01*
X67851000Y-52352000D02*
X68326000Y-52352000D01*
X67310000Y-52893000D02*
X67851000Y-52352000D01*
X67310000Y-53815000D02*
X67310000Y-52893000D01*
X53340000Y-54074000D02*
X55118000Y-54074000D01*
X56135990Y-54074000D02*
X56261000Y-54199010D01*
X55118000Y-54074000D02*
X56135990Y-54074000D01*
X44083000Y-57771000D02*
X44069000Y-57785000D01*
X45847000Y-57771000D02*
X44083000Y-57771000D01*
X44069000Y-60325000D02*
X44196000Y-60452000D01*
X44069000Y-57785000D02*
X44069000Y-60325000D01*
X84836000Y-52324000D02*
X84836000Y-57785000D01*
X72263000Y-52324000D02*
X72263000Y-57785000D01*
X87376000Y-54229000D02*
X87376000Y-55372000D01*
X87503000Y-54102000D02*
X87376000Y-54229000D01*
X90170000Y-54102000D02*
X87503000Y-54102000D01*
X74676000Y-54213000D02*
X74676000Y-55372000D01*
X77331000Y-54213000D02*
X77470000Y-54074000D01*
X74676000Y-54213000D02*
X77331000Y-54213000D01*
X62042000Y-55306000D02*
X61976000Y-55372000D01*
X62042000Y-54229000D02*
X62042000Y-55306000D01*
X64629000Y-54229000D02*
X64770000Y-54088000D01*
X62042000Y-54229000D02*
X64629000Y-54229000D01*
X51236990Y-53251990D02*
X51562000Y-53577000D01*
X48983010Y-53251990D02*
X51236990Y-53251990D01*
X51562000Y-53577000D02*
X51562000Y-54102000D01*
X46990000Y-54229000D02*
X48006000Y-54229000D01*
X48768000Y-51621998D02*
X48768000Y-53467000D01*
X48600001Y-51453999D02*
X48768000Y-51621998D01*
X44682001Y-51453999D02*
X48600001Y-51453999D01*
X44323000Y-51813000D02*
X44682001Y-51453999D01*
X44323000Y-52338000D02*
X44323000Y-51813000D01*
X48768000Y-53467000D02*
X48983010Y-53251990D01*
X48006000Y-54229000D02*
X48768000Y-53467000D01*
X54925000Y-55896000D02*
X54925000Y-55946000D01*
X54930000Y-55846000D02*
X54930000Y-55896000D01*
X54202000Y-55118000D02*
X54930000Y-55846000D01*
X55753000Y-55245000D02*
X55581000Y-55245000D01*
X52578000Y-55118000D02*
X52070000Y-54610000D01*
X52070000Y-54610000D02*
X51562000Y-54102000D01*
X52832000Y-55118000D02*
X52578000Y-55118000D01*
X53086000Y-55118000D02*
X54202000Y-55118000D01*
X53086000Y-56021000D02*
X53086000Y-55118000D01*
X52832000Y-55118000D02*
X53086000Y-55118000D01*
X55581000Y-55245000D02*
X54930000Y-55896000D01*
X47625000Y-58310000D02*
X47625000Y-57785000D01*
X47989000Y-58674000D02*
X47625000Y-58310000D01*
X49276000Y-60452000D02*
X49276000Y-59249919D01*
X49276000Y-59249919D02*
X48700081Y-58674000D01*
X48700081Y-58674000D02*
X47989000Y-58674000D01*
X51816000Y-60452000D02*
X52616998Y-60452000D01*
X49276000Y-57912000D02*
X49276000Y-57785000D01*
X51816000Y-60452000D02*
X49276000Y-57912000D01*
X58674000Y-58310000D02*
X57929000Y-59055000D01*
X58674000Y-57785000D02*
X58674000Y-58310000D01*
X55753000Y-59055000D02*
X54356000Y-60452000D01*
X57929000Y-59055000D02*
X55753000Y-59055000D01*
X53213000Y-59309000D02*
X54356000Y-60452000D01*
X51308000Y-58420000D02*
X52197000Y-59309000D01*
X52197000Y-59309000D02*
X53213000Y-59309000D01*
X51308000Y-57757000D02*
X51308000Y-58420000D01*
X60706000Y-57785000D02*
X60706000Y-58310000D01*
X59739001Y-59276999D02*
X58871999Y-59276999D01*
X60706000Y-58310000D02*
X59739001Y-59276999D01*
X56896000Y-60452000D02*
X57658000Y-60452000D01*
X58293000Y-59817000D02*
X58331998Y-59817000D01*
X58331998Y-59817000D02*
X58629999Y-59518999D01*
X58629999Y-59518999D02*
X58260999Y-59887999D01*
X57658000Y-60452000D02*
X58293000Y-59817000D01*
X58871999Y-59276999D02*
X58629999Y-59518999D01*
X60833000Y-59055000D02*
X59436000Y-60452000D01*
X62738000Y-59055000D02*
X60833000Y-59055000D01*
X63246000Y-58547000D02*
X62738000Y-59055000D01*
X63246000Y-57785000D02*
X63246000Y-58547000D01*
X62357000Y-60452000D02*
X61976000Y-60452000D01*
X63627000Y-59182000D02*
X62357000Y-60452000D01*
X65786000Y-57757000D02*
X65786000Y-58282000D01*
X65267000Y-58801000D02*
X65267000Y-58812000D01*
X65786000Y-58282000D02*
X65267000Y-58801000D01*
X64897000Y-59182000D02*
X63627000Y-59182000D01*
X65267000Y-58812000D02*
X64897000Y-59182000D01*
X65691001Y-59276999D02*
X65365999Y-59602001D01*
X65365999Y-59602001D02*
X64516000Y-60452000D01*
X68326000Y-58545590D02*
X67594591Y-59276999D01*
X67594591Y-59276999D02*
X65691001Y-59276999D01*
X68326000Y-57757000D02*
X68326000Y-58545590D01*
X70866000Y-58282000D02*
X69871001Y-59276999D01*
X70866000Y-57757000D02*
X70866000Y-58282000D01*
X68231001Y-59276999D02*
X67056000Y-60452000D01*
X69871001Y-59276999D02*
X68231001Y-59276999D01*
X70771001Y-59276999D02*
X69596000Y-60452000D01*
X73406000Y-58310000D02*
X72439001Y-59276999D01*
X72439001Y-59276999D02*
X70771001Y-59276999D01*
X73406000Y-57785000D02*
X73406000Y-58310000D01*
X75946000Y-58310000D02*
X75328000Y-58928000D01*
X75946000Y-57785000D02*
X75946000Y-58310000D01*
X73660000Y-58928000D02*
X72136000Y-60452000D01*
X75328000Y-58928000D02*
X73660000Y-58928000D01*
X76073000Y-59055000D02*
X74676000Y-60452000D01*
X78486000Y-58310000D02*
X77741000Y-59055000D01*
X77741000Y-59055000D02*
X76073000Y-59055000D01*
X78486000Y-57785000D02*
X78486000Y-58310000D01*
X78391001Y-59276999D02*
X77216000Y-60452000D01*
X79661001Y-59276999D02*
X78391001Y-59276999D01*
X80154000Y-59182000D02*
X79756000Y-59182000D01*
X79756000Y-59182000D02*
X79661001Y-59276999D01*
X81026000Y-58310000D02*
X80154000Y-59182000D01*
X81026000Y-57785000D02*
X81026000Y-58310000D01*
X83566000Y-57785000D02*
X83566000Y-58801000D01*
X83566000Y-58801000D02*
X83090001Y-59276999D01*
X83090001Y-59276999D02*
X81566001Y-59276999D01*
X81566001Y-59276999D02*
X80899000Y-59944000D01*
X80264000Y-59944000D02*
X79756000Y-60452000D01*
X80899000Y-59944000D02*
X80264000Y-59944000D01*
X83058000Y-60452000D02*
X82296000Y-60452000D01*
X84233001Y-59276999D02*
X83058000Y-60452000D01*
X85122001Y-59276999D02*
X84233001Y-59276999D01*
X85471000Y-58945000D02*
X85454000Y-58945000D01*
X85454000Y-58945000D02*
X85122001Y-59276999D01*
X86106000Y-58310000D02*
X85471000Y-58945000D01*
X86106000Y-57785000D02*
X86106000Y-58310000D01*
X88646000Y-58310000D02*
X87774000Y-59182000D01*
X88646000Y-57785000D02*
X88646000Y-58310000D01*
X87774000Y-59182000D02*
X86741000Y-59182000D01*
X86741000Y-59182000D02*
X85979000Y-59944000D01*
X85344000Y-59944000D02*
X84836000Y-60452000D01*
X85979000Y-59944000D02*
X85344000Y-59944000D01*
X88773000Y-59055000D02*
X87376000Y-60452000D01*
X91186000Y-58310000D02*
X90441000Y-59055000D01*
X90441000Y-59055000D02*
X88773000Y-59055000D01*
X91186000Y-57785000D02*
X91186000Y-58310000D01*
X93726000Y-58310000D02*
X93108000Y-58928000D01*
X93726000Y-57785000D02*
X93726000Y-58310000D01*
X93108000Y-58928000D02*
X92075000Y-58928000D01*
X92075000Y-58928000D02*
X91059000Y-59944000D01*
X90424000Y-59944000D02*
X89916000Y-60452000D01*
X91059000Y-59944000D02*
X90424000Y-59944000D01*
X93980000Y-58928000D02*
X92456000Y-60452000D01*
X96266000Y-58310000D02*
X95648000Y-58928000D01*
X95648000Y-58928000D02*
X93980000Y-58928000D01*
X96266000Y-57785000D02*
X96266000Y-58310000D01*
X86106000Y-52549000D02*
X86426000Y-52229000D01*
X86106000Y-56035000D02*
X86106000Y-52549000D01*
X91948000Y-52352000D02*
X91948000Y-51631998D01*
X86426000Y-52179000D02*
X86426000Y-52229000D01*
X87151001Y-51453999D02*
X86426000Y-52179000D01*
X91770001Y-51453999D02*
X87151001Y-51453999D01*
X91948000Y-51631998D02*
X91770001Y-51453999D01*
X73406000Y-52533000D02*
X73726000Y-52213000D01*
X73406000Y-56035000D02*
X73406000Y-52533000D01*
X79248000Y-51827000D02*
X79248000Y-52352000D01*
X74451001Y-51437999D02*
X78858999Y-51437999D01*
X73726000Y-52163000D02*
X74451001Y-51437999D01*
X78858999Y-51437999D02*
X79248000Y-51827000D01*
X73726000Y-52213000D02*
X73726000Y-52163000D01*
X60706000Y-52615000D02*
X61092000Y-52229000D01*
X60706000Y-56035000D02*
X60706000Y-52615000D01*
X66174999Y-51453999D02*
X61817001Y-51453999D01*
X61092000Y-52179000D02*
X61092000Y-52229000D01*
X61817001Y-51453999D02*
X61092000Y-52179000D01*
X66548000Y-51827000D02*
X66174999Y-51453999D01*
X66548000Y-52352000D02*
X66548000Y-51827000D01*
X46040000Y-52263000D02*
X45990000Y-52263000D01*
X47346010Y-56920990D02*
X44429990Y-56920990D01*
X47625000Y-56642000D02*
X47346010Y-56920990D01*
X44069000Y-56560000D02*
X44069000Y-56035000D01*
X44429990Y-56920990D02*
X44069000Y-56560000D01*
X47625000Y-56035000D02*
X47625000Y-56642000D01*
X44069000Y-56035000D02*
X44069000Y-55912000D01*
X44069000Y-55510000D02*
X44069000Y-56035000D01*
X43307000Y-54748000D02*
X44069000Y-55510000D01*
X43458990Y-53188010D02*
X43307000Y-53340000D01*
X46040000Y-52229000D02*
X46040000Y-52279000D01*
X43307000Y-53340000D02*
X43307000Y-54748000D01*
X45130990Y-53188010D02*
X43458990Y-53188010D01*
X46040000Y-52279000D02*
X45130990Y-53188010D01*
X46854998Y-52929000D02*
X46264999Y-53518999D01*
X47290000Y-52929000D02*
X46854998Y-52929000D01*
X47940000Y-52279000D02*
X47290000Y-52929000D01*
X47940000Y-52229000D02*
X47940000Y-52279000D01*
X46352000Y-54991000D02*
X46355000Y-54991000D01*
X45847000Y-55496000D02*
X46352000Y-54991000D01*
X45847000Y-56021000D02*
X45847000Y-55496000D01*
X46264999Y-54939001D02*
X46355000Y-54991000D01*
X45706000Y-54088000D02*
X46228000Y-54610000D01*
X44323000Y-54088000D02*
X45706000Y-54088000D01*
X46228000Y-54610000D02*
X46264999Y-54939001D01*
X46264999Y-53518999D02*
X46228000Y-54610000D01*
X51054000Y-56560000D02*
X51054000Y-56035000D01*
X50728990Y-56885010D02*
X51054000Y-56560000D01*
X48503010Y-56885010D02*
X50728990Y-56885010D01*
X48425010Y-55283010D02*
X48425010Y-56807010D01*
X48260000Y-55118000D02*
X48425010Y-55283010D01*
X46443998Y-55118000D02*
X48260000Y-55118000D01*
X48425010Y-56807010D02*
X48503010Y-56885010D01*
X46355000Y-54991000D02*
X46443998Y-55118000D01*
X95791000Y-56035000D02*
X93726000Y-56035000D01*
X96266000Y-56035000D02*
X95791000Y-56035000D01*
X93726000Y-56035000D02*
X91186000Y-56035000D01*
X91186000Y-56035000D02*
X88646000Y-56035000D01*
X88646000Y-52549000D02*
X88326000Y-52229000D01*
X96266000Y-56035000D02*
X96266000Y-54229000D01*
X90970010Y-55294010D02*
X90970010Y-52677010D01*
X90970010Y-52677010D02*
X90645000Y-52352000D01*
X91186000Y-55510000D02*
X90970010Y-55294010D01*
X90645000Y-52352000D02*
X90170000Y-52352000D01*
X91186000Y-56035000D02*
X91186000Y-55510000D01*
X88449000Y-52352000D02*
X88326000Y-52229000D01*
X90170000Y-52352000D02*
X88449000Y-52352000D01*
X93726000Y-56035000D02*
X93726000Y-54102000D01*
X83091000Y-56035000D02*
X81026000Y-56035000D01*
X83566000Y-56035000D02*
X83091000Y-56035000D01*
X81026000Y-56035000D02*
X78486000Y-56035000D01*
X78486000Y-56035000D02*
X75946000Y-56035000D01*
X83566000Y-54102000D02*
X83566000Y-56035000D01*
X81026000Y-56035000D02*
X81026000Y-54102000D01*
X78270010Y-52649010D02*
X77945000Y-52324000D01*
X77945000Y-52324000D02*
X77470000Y-52324000D01*
X78270010Y-54394010D02*
X78270010Y-52649010D01*
X78486000Y-54610000D02*
X78270010Y-54394010D01*
X78486000Y-56035000D02*
X78486000Y-54610000D01*
X75737000Y-52324000D02*
X75626000Y-52213000D01*
X77470000Y-52324000D02*
X75737000Y-52324000D01*
X70866000Y-56007000D02*
X68326000Y-56007000D01*
X68326000Y-56007000D02*
X65786000Y-56007000D01*
X63274000Y-56007000D02*
X63246000Y-56035000D01*
X65786000Y-56007000D02*
X63274000Y-56007000D01*
X64661000Y-52229000D02*
X64770000Y-52338000D01*
X62992000Y-52229000D02*
X64661000Y-52229000D01*
X65786000Y-55482000D02*
X65659000Y-55355000D01*
X65786000Y-56007000D02*
X65786000Y-55482000D01*
X65245000Y-52338000D02*
X64770000Y-52338000D01*
X65659000Y-52752000D02*
X65245000Y-52338000D01*
X65659000Y-55355000D02*
X65659000Y-52752000D01*
X70866000Y-56007000D02*
X70866000Y-54102000D01*
X68326000Y-56007000D02*
X68326000Y-54102000D01*
X53340000Y-51799000D02*
X53340000Y-52324000D01*
X53665010Y-51473990D02*
X53340000Y-51799000D01*
X55683990Y-51473990D02*
X53665010Y-51473990D01*
X56439000Y-52229000D02*
X55683990Y-51473990D01*
X57089000Y-52229000D02*
X56439000Y-52229000D01*
X49657000Y-51827000D02*
X49657000Y-52352000D01*
X49982010Y-51501990D02*
X49657000Y-51827000D01*
X52042990Y-51501990D02*
X49982010Y-51501990D01*
X52865000Y-52324000D02*
X52042990Y-51501990D01*
X53340000Y-52324000D02*
X52865000Y-52324000D01*
X95470989Y-51003989D02*
X84389011Y-51003989D01*
X84389011Y-51003989D02*
X83566000Y-51827000D01*
X96266000Y-51799000D02*
X95470989Y-51003989D01*
X96266000Y-52324000D02*
X96266000Y-51799000D01*
X70866000Y-51827000D02*
X70866000Y-52352000D01*
X71705011Y-50987989D02*
X70866000Y-51827000D01*
X82726989Y-50987989D02*
X71705011Y-50987989D01*
X83566000Y-51827000D02*
X82726989Y-50987989D01*
X83566000Y-52352000D02*
X83566000Y-51827000D01*
X70042989Y-51003989D02*
X60502011Y-51003989D01*
X70866000Y-51827000D02*
X70042989Y-51003989D01*
X59817000Y-51689000D02*
X60502011Y-51003989D01*
X59817000Y-54418000D02*
X59817000Y-54737000D01*
X59817000Y-54737000D02*
X59817000Y-51689000D01*
X59817000Y-52051000D02*
X59817000Y-51689000D01*
X59639000Y-52229000D02*
X59817000Y-52051000D01*
X58989000Y-52229000D02*
X59639000Y-52229000D01*
X55273001Y-53004001D02*
X55118000Y-52849000D01*
X58989000Y-52279000D02*
X58263999Y-53004001D01*
X58263999Y-53004001D02*
X55273001Y-53004001D01*
X58989000Y-52229000D02*
X58989000Y-52279000D01*
X51562000Y-52877000D02*
X51562000Y-52352000D01*
X53807776Y-53174010D02*
X51859010Y-53174010D01*
X51859010Y-53174010D02*
X51562000Y-52877000D01*
X55118000Y-52849000D02*
X55118000Y-52324000D01*
X54792990Y-53174010D02*
X55118000Y-52849000D01*
X53807776Y-53174010D02*
X54792990Y-53174010D01*
X59281000Y-56035000D02*
X58674000Y-56035000D01*
X59817000Y-55499000D02*
X59281000Y-56035000D01*
X59817000Y-54737000D02*
X59817000Y-55499000D01*
X58039000Y-54229000D02*
X58039000Y-54279000D01*
X58039000Y-54687000D02*
X56830000Y-55896000D01*
X58039000Y-54229000D02*
X58039000Y-54687000D01*
X56830000Y-55946000D02*
X56830000Y-55896000D01*
X55365002Y-56896000D02*
X55880000Y-56896000D01*
X55880000Y-56896000D02*
X56830000Y-55946000D01*
X54490002Y-57771000D02*
X55365002Y-56896000D01*
X53086000Y-57771000D02*
X54490002Y-57771000D01*
X49276000Y-54483000D02*
X49657000Y-54102000D01*
X55230000Y-57896000D02*
X55880000Y-57896000D01*
X52070000Y-55246410D02*
X52070000Y-58420000D01*
X52271010Y-58621010D02*
X54504990Y-58621010D01*
X50148000Y-55118000D02*
X51941590Y-55118000D01*
X52070000Y-58420000D02*
X52271010Y-58621010D01*
X51941590Y-55118000D02*
X52070000Y-55246410D01*
X54504990Y-58621010D02*
X55230000Y-57896000D01*
X50148000Y-55118000D02*
X49276000Y-55118000D01*
X49276000Y-55118000D02*
X49276000Y-54483000D01*
X49276000Y-56035000D02*
X49276000Y-55118000D01*
D15*
G36*
X98375001Y-58963988D02*
G01*
X97821750Y-58967000D01*
X97663000Y-59125750D01*
X97663000Y-60325000D01*
X97683000Y-60325000D01*
X97683000Y-60579000D01*
X97663000Y-60579000D01*
X97663000Y-60599000D01*
X97409000Y-60599000D01*
X97409000Y-60579000D01*
X97389000Y-60579000D01*
X97389000Y-60325000D01*
X97409000Y-60325000D01*
X97409000Y-59125750D01*
X97250250Y-58967000D01*
X96686869Y-58963933D01*
X96739252Y-58911550D01*
X96838567Y-58881423D01*
X96989942Y-58800512D01*
X97122623Y-58691623D01*
X97231512Y-58558942D01*
X97312423Y-58407567D01*
X97362248Y-58243316D01*
X97379072Y-58072500D01*
X97379072Y-57497500D01*
X97362248Y-57326684D01*
X97312423Y-57162433D01*
X97231512Y-57011058D01*
X97148575Y-56910000D01*
X97231512Y-56808942D01*
X97312423Y-56657567D01*
X97362248Y-56493316D01*
X97379072Y-56322500D01*
X97379072Y-55747500D01*
X97362248Y-55576684D01*
X97312423Y-55412433D01*
X97231512Y-55261058D01*
X97122623Y-55128377D01*
X97032604Y-55054500D01*
X97122623Y-54980623D01*
X97231512Y-54847942D01*
X97312423Y-54696567D01*
X97362248Y-54532316D01*
X97379072Y-54361500D01*
X97379072Y-53786500D01*
X97362248Y-53615684D01*
X97312423Y-53451433D01*
X97231512Y-53300058D01*
X97148575Y-53199000D01*
X97231512Y-53097942D01*
X97312423Y-52946567D01*
X97362248Y-52782316D01*
X97379072Y-52611500D01*
X97379072Y-52036500D01*
X97362248Y-51865684D01*
X97312423Y-51701433D01*
X97231512Y-51550058D01*
X97122623Y-51417377D01*
X96989942Y-51308488D01*
X96844971Y-51231000D01*
X98375000Y-51231000D01*
X98375001Y-58963988D01*
G37*
X98375001Y-58963988D02*
X97821750Y-58967000D01*
X97663000Y-59125750D01*
X97663000Y-60325000D01*
X97683000Y-60325000D01*
X97683000Y-60579000D01*
X97663000Y-60579000D01*
X97663000Y-60599000D01*
X97409000Y-60599000D01*
X97409000Y-60579000D01*
X97389000Y-60579000D01*
X97389000Y-60325000D01*
X97409000Y-60325000D01*
X97409000Y-59125750D01*
X97250250Y-58967000D01*
X96686869Y-58963933D01*
X96739252Y-58911550D01*
X96838567Y-58881423D01*
X96989942Y-58800512D01*
X97122623Y-58691623D01*
X97231512Y-58558942D01*
X97312423Y-58407567D01*
X97362248Y-58243316D01*
X97379072Y-58072500D01*
X97379072Y-57497500D01*
X97362248Y-57326684D01*
X97312423Y-57162433D01*
X97231512Y-57011058D01*
X97148575Y-56910000D01*
X97231512Y-56808942D01*
X97312423Y-56657567D01*
X97362248Y-56493316D01*
X97379072Y-56322500D01*
X97379072Y-55747500D01*
X97362248Y-55576684D01*
X97312423Y-55412433D01*
X97231512Y-55261058D01*
X97122623Y-55128377D01*
X97032604Y-55054500D01*
X97122623Y-54980623D01*
X97231512Y-54847942D01*
X97312423Y-54696567D01*
X97362248Y-54532316D01*
X97379072Y-54361500D01*
X97379072Y-53786500D01*
X97362248Y-53615684D01*
X97312423Y-53451433D01*
X97231512Y-53300058D01*
X97148575Y-53199000D01*
X97231512Y-53097942D01*
X97312423Y-52946567D01*
X97362248Y-52782316D01*
X97379072Y-52611500D01*
X97379072Y-52036500D01*
X97362248Y-51865684D01*
X97312423Y-51701433D01*
X97231512Y-51550058D01*
X97122623Y-51417377D01*
X96989942Y-51308488D01*
X96844971Y-51231000D01*
X98375000Y-51231000D01*
X98375001Y-58963988D01*
G36*
X44196000Y-57644208D02*
G01*
X44196000Y-57658000D01*
X44241468Y-57658000D01*
X44281004Y-57669993D01*
X44392657Y-57680990D01*
X44392667Y-57680990D01*
X44429990Y-57684666D01*
X44467313Y-57680990D01*
X45994000Y-57680990D01*
X45994000Y-57898000D01*
X45974000Y-57898000D01*
X45974000Y-58772250D01*
X46132750Y-58931000D01*
X46322000Y-58934072D01*
X46446482Y-58921812D01*
X46566180Y-58885502D01*
X46676494Y-58826537D01*
X46773185Y-58747185D01*
X46798497Y-58716342D01*
X46901058Y-58800512D01*
X47052433Y-58881423D01*
X47151749Y-58911550D01*
X47331519Y-59091320D01*
X47169158Y-59024068D01*
X46882260Y-58967000D01*
X46589740Y-58967000D01*
X46302842Y-59024068D01*
X46032589Y-59136010D01*
X45789368Y-59298525D01*
X45582525Y-59505368D01*
X45460805Y-59687534D01*
X45391178Y-59570645D01*
X45196269Y-59354412D01*
X44962920Y-59180359D01*
X44700099Y-59055175D01*
X44552890Y-59010524D01*
X44323000Y-59131845D01*
X44323000Y-60325000D01*
X44343000Y-60325000D01*
X44343000Y-60579000D01*
X44323000Y-60579000D01*
X44323000Y-60599000D01*
X44069000Y-60599000D01*
X44069000Y-60579000D01*
X44049000Y-60579000D01*
X44049000Y-60325000D01*
X44069000Y-60325000D01*
X44069000Y-59131845D01*
X43839110Y-59010524D01*
X43691901Y-59055175D01*
X43429080Y-59180359D01*
X43230000Y-59328851D01*
X43230000Y-58832736D01*
X43239506Y-58840537D01*
X43349820Y-58899502D01*
X43469518Y-58935812D01*
X43594000Y-58948072D01*
X43783250Y-58945000D01*
X43942000Y-58786250D01*
X43942000Y-57912000D01*
X44196000Y-57912000D01*
X44196000Y-58786250D01*
X44354750Y-58945000D01*
X44544000Y-58948072D01*
X44668482Y-58935812D01*
X44788180Y-58899502D01*
X44898494Y-58840537D01*
X44966530Y-58784702D01*
X45017506Y-58826537D01*
X45127820Y-58885502D01*
X45247518Y-58921812D01*
X45372000Y-58934072D01*
X45561250Y-58931000D01*
X45720000Y-58772250D01*
X45720000Y-57898000D01*
X44895750Y-57898000D01*
X44881750Y-57912000D01*
X44196000Y-57912000D01*
X43942000Y-57912000D01*
X43922000Y-57912000D01*
X43922000Y-57658000D01*
X43942000Y-57658000D01*
X43942000Y-57638000D01*
X44175535Y-57638000D01*
X44196000Y-57644208D01*
G37*
X44196000Y-57644208D02*
X44196000Y-57658000D01*
X44241468Y-57658000D01*
X44281004Y-57669993D01*
X44392657Y-57680990D01*
X44392667Y-57680990D01*
X44429990Y-57684666D01*
X44467313Y-57680990D01*
X45994000Y-57680990D01*
X45994000Y-57898000D01*
X45974000Y-57898000D01*
X45974000Y-58772250D01*
X46132750Y-58931000D01*
X46322000Y-58934072D01*
X46446482Y-58921812D01*
X46566180Y-58885502D01*
X46676494Y-58826537D01*
X46773185Y-58747185D01*
X46798497Y-58716342D01*
X46901058Y-58800512D01*
X47052433Y-58881423D01*
X47151749Y-58911550D01*
X47331519Y-59091320D01*
X47169158Y-59024068D01*
X46882260Y-58967000D01*
X46589740Y-58967000D01*
X46302842Y-59024068D01*
X46032589Y-59136010D01*
X45789368Y-59298525D01*
X45582525Y-59505368D01*
X45460805Y-59687534D01*
X45391178Y-59570645D01*
X45196269Y-59354412D01*
X44962920Y-59180359D01*
X44700099Y-59055175D01*
X44552890Y-59010524D01*
X44323000Y-59131845D01*
X44323000Y-60325000D01*
X44343000Y-60325000D01*
X44343000Y-60579000D01*
X44323000Y-60579000D01*
X44323000Y-60599000D01*
X44069000Y-60599000D01*
X44069000Y-60579000D01*
X44049000Y-60579000D01*
X44049000Y-60325000D01*
X44069000Y-60325000D01*
X44069000Y-59131845D01*
X43839110Y-59010524D01*
X43691901Y-59055175D01*
X43429080Y-59180359D01*
X43230000Y-59328851D01*
X43230000Y-58832736D01*
X43239506Y-58840537D01*
X43349820Y-58899502D01*
X43469518Y-58935812D01*
X43594000Y-58948072D01*
X43783250Y-58945000D01*
X43942000Y-58786250D01*
X43942000Y-57912000D01*
X44196000Y-57912000D01*
X44196000Y-58786250D01*
X44354750Y-58945000D01*
X44544000Y-58948072D01*
X44668482Y-58935812D01*
X44788180Y-58899502D01*
X44898494Y-58840537D01*
X44966530Y-58784702D01*
X45017506Y-58826537D01*
X45127820Y-58885502D01*
X45247518Y-58921812D01*
X45372000Y-58934072D01*
X45561250Y-58931000D01*
X45720000Y-58772250D01*
X45720000Y-57898000D01*
X44895750Y-57898000D01*
X44881750Y-57912000D01*
X44196000Y-57912000D01*
X43942000Y-57912000D01*
X43922000Y-57912000D01*
X43922000Y-57658000D01*
X43942000Y-57658000D01*
X43942000Y-57638000D01*
X44175535Y-57638000D01*
X44196000Y-57644208D01*
G36*
X85387928Y-51779000D02*
G01*
X85387928Y-52298048D01*
X85378847Y-52327985D01*
X85356998Y-52400014D01*
X85346702Y-52504546D01*
X85342324Y-52549000D01*
X85346001Y-52586332D01*
X85346000Y-55049080D01*
X85249377Y-55128377D01*
X85140488Y-55261058D01*
X85059577Y-55412433D01*
X85009752Y-55576684D01*
X84992928Y-55747500D01*
X84992928Y-56322500D01*
X85009752Y-56493316D01*
X85059577Y-56657567D01*
X85140488Y-56808942D01*
X85223425Y-56910000D01*
X85140488Y-57011058D01*
X85059577Y-57162433D01*
X85009752Y-57326684D01*
X84992928Y-57497500D01*
X84992928Y-58072500D01*
X85009752Y-58243316D01*
X85029951Y-58309904D01*
X85029724Y-58310026D01*
X84913999Y-58404999D01*
X84890200Y-58433998D01*
X84807199Y-58516999D01*
X84553931Y-58516999D01*
X84612423Y-58407567D01*
X84662248Y-58243316D01*
X84679072Y-58072500D01*
X84679072Y-57497500D01*
X84662248Y-57326684D01*
X84612423Y-57162433D01*
X84531512Y-57011058D01*
X84448575Y-56910000D01*
X84531512Y-56808942D01*
X84612423Y-56657567D01*
X84662248Y-56493316D01*
X84679072Y-56322500D01*
X84679072Y-55747500D01*
X84662248Y-55576684D01*
X84612423Y-55412433D01*
X84531512Y-55261058D01*
X84422623Y-55128377D01*
X84349663Y-55068500D01*
X84422623Y-55008623D01*
X84531512Y-54875942D01*
X84612423Y-54724567D01*
X84662248Y-54560316D01*
X84679072Y-54389500D01*
X84679072Y-53814500D01*
X84662248Y-53643684D01*
X84612423Y-53479433D01*
X84531512Y-53328058D01*
X84448575Y-53227000D01*
X84531512Y-53125942D01*
X84612423Y-52974567D01*
X84662248Y-52810316D01*
X84679072Y-52639500D01*
X84679072Y-52064500D01*
X84662248Y-51893684D01*
X84641736Y-51826065D01*
X84703813Y-51763989D01*
X85389406Y-51763989D01*
X85387928Y-51779000D01*
G37*
X85387928Y-51779000D02*
X85387928Y-52298048D01*
X85378847Y-52327985D01*
X85356998Y-52400014D01*
X85346702Y-52504546D01*
X85342324Y-52549000D01*
X85346001Y-52586332D01*
X85346000Y-55049080D01*
X85249377Y-55128377D01*
X85140488Y-55261058D01*
X85059577Y-55412433D01*
X85009752Y-55576684D01*
X84992928Y-55747500D01*
X84992928Y-56322500D01*
X85009752Y-56493316D01*
X85059577Y-56657567D01*
X85140488Y-56808942D01*
X85223425Y-56910000D01*
X85140488Y-57011058D01*
X85059577Y-57162433D01*
X85009752Y-57326684D01*
X84992928Y-57497500D01*
X84992928Y-58072500D01*
X85009752Y-58243316D01*
X85029951Y-58309904D01*
X85029724Y-58310026D01*
X84913999Y-58404999D01*
X84890200Y-58433998D01*
X84807199Y-58516999D01*
X84553931Y-58516999D01*
X84612423Y-58407567D01*
X84662248Y-58243316D01*
X84679072Y-58072500D01*
X84679072Y-57497500D01*
X84662248Y-57326684D01*
X84612423Y-57162433D01*
X84531512Y-57011058D01*
X84448575Y-56910000D01*
X84531512Y-56808942D01*
X84612423Y-56657567D01*
X84662248Y-56493316D01*
X84679072Y-56322500D01*
X84679072Y-55747500D01*
X84662248Y-55576684D01*
X84612423Y-55412433D01*
X84531512Y-55261058D01*
X84422623Y-55128377D01*
X84349663Y-55068500D01*
X84422623Y-55008623D01*
X84531512Y-54875942D01*
X84612423Y-54724567D01*
X84662248Y-54560316D01*
X84679072Y-54389500D01*
X84679072Y-53814500D01*
X84662248Y-53643684D01*
X84612423Y-53479433D01*
X84531512Y-53328058D01*
X84448575Y-53227000D01*
X84531512Y-53125942D01*
X84612423Y-52974567D01*
X84662248Y-52810316D01*
X84679072Y-52639500D01*
X84679072Y-52064500D01*
X84662248Y-51893684D01*
X84641736Y-51826065D01*
X84703813Y-51763989D01*
X85389406Y-51763989D01*
X85387928Y-51779000D01*
G36*
X72687928Y-51763000D02*
G01*
X72687928Y-52282048D01*
X72678034Y-52314667D01*
X72656998Y-52384014D01*
X72648009Y-52475276D01*
X72642324Y-52533000D01*
X72646001Y-52570332D01*
X72646000Y-55049080D01*
X72549377Y-55128377D01*
X72440488Y-55261058D01*
X72359577Y-55412433D01*
X72309752Y-55576684D01*
X72292928Y-55747500D01*
X72292928Y-56322500D01*
X72309752Y-56493316D01*
X72359577Y-56657567D01*
X72440488Y-56808942D01*
X72523425Y-56910000D01*
X72440488Y-57011058D01*
X72359577Y-57162433D01*
X72309752Y-57326684D01*
X72292928Y-57497500D01*
X72292928Y-58072500D01*
X72309752Y-58243316D01*
X72330264Y-58310935D01*
X72124200Y-58516999D01*
X71838965Y-58516999D01*
X71912423Y-58379567D01*
X71962248Y-58215316D01*
X71979072Y-58044500D01*
X71979072Y-57469500D01*
X71962248Y-57298684D01*
X71912423Y-57134433D01*
X71831512Y-56983058D01*
X71748575Y-56882000D01*
X71831512Y-56780942D01*
X71912423Y-56629567D01*
X71962248Y-56465316D01*
X71979072Y-56294500D01*
X71979072Y-55719500D01*
X71962248Y-55548684D01*
X71912423Y-55384433D01*
X71831512Y-55233058D01*
X71722623Y-55100377D01*
X71666722Y-55054500D01*
X71722623Y-55008623D01*
X71831512Y-54875942D01*
X71912423Y-54724567D01*
X71962248Y-54560316D01*
X71979072Y-54389500D01*
X71979072Y-53814500D01*
X71962248Y-53643684D01*
X71912423Y-53479433D01*
X71831512Y-53328058D01*
X71748575Y-53227000D01*
X71831512Y-53125942D01*
X71912423Y-52974567D01*
X71962248Y-52810316D01*
X71979072Y-52639500D01*
X71979072Y-52064500D01*
X71962248Y-51893684D01*
X71941736Y-51826065D01*
X72019813Y-51747989D01*
X72689406Y-51747989D01*
X72687928Y-51763000D01*
G37*
X72687928Y-51763000D02*
X72687928Y-52282048D01*
X72678034Y-52314667D01*
X72656998Y-52384014D01*
X72648009Y-52475276D01*
X72642324Y-52533000D01*
X72646001Y-52570332D01*
X72646000Y-55049080D01*
X72549377Y-55128377D01*
X72440488Y-55261058D01*
X72359577Y-55412433D01*
X72309752Y-55576684D01*
X72292928Y-55747500D01*
X72292928Y-56322500D01*
X72309752Y-56493316D01*
X72359577Y-56657567D01*
X72440488Y-56808942D01*
X72523425Y-56910000D01*
X72440488Y-57011058D01*
X72359577Y-57162433D01*
X72309752Y-57326684D01*
X72292928Y-57497500D01*
X72292928Y-58072500D01*
X72309752Y-58243316D01*
X72330264Y-58310935D01*
X72124200Y-58516999D01*
X71838965Y-58516999D01*
X71912423Y-58379567D01*
X71962248Y-58215316D01*
X71979072Y-58044500D01*
X71979072Y-57469500D01*
X71962248Y-57298684D01*
X71912423Y-57134433D01*
X71831512Y-56983058D01*
X71748575Y-56882000D01*
X71831512Y-56780942D01*
X71912423Y-56629567D01*
X71962248Y-56465316D01*
X71979072Y-56294500D01*
X71979072Y-55719500D01*
X71962248Y-55548684D01*
X71912423Y-55384433D01*
X71831512Y-55233058D01*
X71722623Y-55100377D01*
X71666722Y-55054500D01*
X71722623Y-55008623D01*
X71831512Y-54875942D01*
X71912423Y-54724567D01*
X71962248Y-54560316D01*
X71979072Y-54389500D01*
X71979072Y-53814500D01*
X71962248Y-53643684D01*
X71912423Y-53479433D01*
X71831512Y-53328058D01*
X71748575Y-53227000D01*
X71831512Y-53125942D01*
X71912423Y-52974567D01*
X71962248Y-52810316D01*
X71979072Y-52639500D01*
X71979072Y-52064500D01*
X71962248Y-51893684D01*
X71941736Y-51826065D01*
X72019813Y-51747989D01*
X72689406Y-51747989D01*
X72687928Y-51763000D01*
G36*
X95190264Y-51798065D02*
G01*
X95169752Y-51865684D01*
X95152928Y-52036500D01*
X95152928Y-52611500D01*
X95169752Y-52782316D01*
X95219577Y-52946567D01*
X95300488Y-53097942D01*
X95383425Y-53199000D01*
X95300488Y-53300058D01*
X95219577Y-53451433D01*
X95169752Y-53615684D01*
X95152928Y-53786500D01*
X95152928Y-54361500D01*
X95169752Y-54532316D01*
X95219577Y-54696567D01*
X95300488Y-54847942D01*
X95409377Y-54980623D01*
X95499396Y-55054500D01*
X95409377Y-55128377D01*
X95300488Y-55261058D01*
X95293036Y-55275000D01*
X94698964Y-55275000D01*
X94691512Y-55261058D01*
X94582623Y-55128377D01*
X94509663Y-55068500D01*
X94582623Y-55008623D01*
X94691512Y-54875942D01*
X94772423Y-54724567D01*
X94822248Y-54560316D01*
X94839072Y-54389500D01*
X94839072Y-53814500D01*
X94822248Y-53643684D01*
X94772423Y-53479433D01*
X94691512Y-53328058D01*
X94671901Y-53304161D01*
X94731537Y-53231494D01*
X94790502Y-53121180D01*
X94826812Y-53001482D01*
X94839072Y-52877000D01*
X94836000Y-52637750D01*
X94677250Y-52479000D01*
X93853000Y-52479000D01*
X93853000Y-52499000D01*
X93599000Y-52499000D01*
X93599000Y-52479000D01*
X93579000Y-52479000D01*
X93579000Y-52225000D01*
X93599000Y-52225000D01*
X93599000Y-52205000D01*
X93853000Y-52205000D01*
X93853000Y-52225000D01*
X94677250Y-52225000D01*
X94836000Y-52066250D01*
X94839072Y-51827000D01*
X94832866Y-51763989D01*
X95156188Y-51763989D01*
X95190264Y-51798065D01*
G37*
X95190264Y-51798065D02*
X95169752Y-51865684D01*
X95152928Y-52036500D01*
X95152928Y-52611500D01*
X95169752Y-52782316D01*
X95219577Y-52946567D01*
X95300488Y-53097942D01*
X95383425Y-53199000D01*
X95300488Y-53300058D01*
X95219577Y-53451433D01*
X95169752Y-53615684D01*
X95152928Y-53786500D01*
X95152928Y-54361500D01*
X95169752Y-54532316D01*
X95219577Y-54696567D01*
X95300488Y-54847942D01*
X95409377Y-54980623D01*
X95499396Y-55054500D01*
X95409377Y-55128377D01*
X95300488Y-55261058D01*
X95293036Y-55275000D01*
X94698964Y-55275000D01*
X94691512Y-55261058D01*
X94582623Y-55128377D01*
X94509663Y-55068500D01*
X94582623Y-55008623D01*
X94691512Y-54875942D01*
X94772423Y-54724567D01*
X94822248Y-54560316D01*
X94839072Y-54389500D01*
X94839072Y-53814500D01*
X94822248Y-53643684D01*
X94772423Y-53479433D01*
X94691512Y-53328058D01*
X94671901Y-53304161D01*
X94731537Y-53231494D01*
X94790502Y-53121180D01*
X94826812Y-53001482D01*
X94839072Y-52877000D01*
X94836000Y-52637750D01*
X94677250Y-52479000D01*
X93853000Y-52479000D01*
X93853000Y-52499000D01*
X93599000Y-52499000D01*
X93599000Y-52479000D01*
X93579000Y-52479000D01*
X93579000Y-52225000D01*
X93599000Y-52225000D01*
X93599000Y-52205000D01*
X93853000Y-52205000D01*
X93853000Y-52225000D01*
X94677250Y-52225000D01*
X94836000Y-52066250D01*
X94839072Y-51827000D01*
X94832866Y-51763989D01*
X95156188Y-51763989D01*
X95190264Y-51798065D01*
G36*
X82490264Y-51826065D02*
G01*
X82469752Y-51893684D01*
X82452928Y-52064500D01*
X82452928Y-52639500D01*
X82469752Y-52810316D01*
X82519577Y-52974567D01*
X82600488Y-53125942D01*
X82683425Y-53227000D01*
X82600488Y-53328058D01*
X82519577Y-53479433D01*
X82469752Y-53643684D01*
X82452928Y-53814500D01*
X82452928Y-54389500D01*
X82469752Y-54560316D01*
X82519577Y-54724567D01*
X82600488Y-54875942D01*
X82709377Y-55008623D01*
X82782337Y-55068500D01*
X82709377Y-55128377D01*
X82600488Y-55261058D01*
X82593036Y-55275000D01*
X81998964Y-55275000D01*
X81991512Y-55261058D01*
X81882623Y-55128377D01*
X81809663Y-55068500D01*
X81882623Y-55008623D01*
X81991512Y-54875942D01*
X82072423Y-54724567D01*
X82122248Y-54560316D01*
X82139072Y-54389500D01*
X82139072Y-53814500D01*
X82122248Y-53643684D01*
X82072423Y-53479433D01*
X81991512Y-53328058D01*
X81971901Y-53304161D01*
X82031537Y-53231494D01*
X82090502Y-53121180D01*
X82126812Y-53001482D01*
X82139072Y-52877000D01*
X82136000Y-52637750D01*
X81977250Y-52479000D01*
X81153000Y-52479000D01*
X81153000Y-52499000D01*
X80899000Y-52499000D01*
X80899000Y-52479000D01*
X80879000Y-52479000D01*
X80879000Y-52225000D01*
X80899000Y-52225000D01*
X80899000Y-52205000D01*
X81153000Y-52205000D01*
X81153000Y-52225000D01*
X81977250Y-52225000D01*
X82136000Y-52066250D01*
X82139072Y-51827000D01*
X82131290Y-51747989D01*
X82412188Y-51747989D01*
X82490264Y-51826065D01*
G37*
X82490264Y-51826065D02*
X82469752Y-51893684D01*
X82452928Y-52064500D01*
X82452928Y-52639500D01*
X82469752Y-52810316D01*
X82519577Y-52974567D01*
X82600488Y-53125942D01*
X82683425Y-53227000D01*
X82600488Y-53328058D01*
X82519577Y-53479433D01*
X82469752Y-53643684D01*
X82452928Y-53814500D01*
X82452928Y-54389500D01*
X82469752Y-54560316D01*
X82519577Y-54724567D01*
X82600488Y-54875942D01*
X82709377Y-55008623D01*
X82782337Y-55068500D01*
X82709377Y-55128377D01*
X82600488Y-55261058D01*
X82593036Y-55275000D01*
X81998964Y-55275000D01*
X81991512Y-55261058D01*
X81882623Y-55128377D01*
X81809663Y-55068500D01*
X81882623Y-55008623D01*
X81991512Y-54875942D01*
X82072423Y-54724567D01*
X82122248Y-54560316D01*
X82139072Y-54389500D01*
X82139072Y-53814500D01*
X82122248Y-53643684D01*
X82072423Y-53479433D01*
X81991512Y-53328058D01*
X81971901Y-53304161D01*
X82031537Y-53231494D01*
X82090502Y-53121180D01*
X82126812Y-53001482D01*
X82139072Y-52877000D01*
X82136000Y-52637750D01*
X81977250Y-52479000D01*
X81153000Y-52479000D01*
X81153000Y-52499000D01*
X80899000Y-52499000D01*
X80899000Y-52479000D01*
X80879000Y-52479000D01*
X80879000Y-52225000D01*
X80899000Y-52225000D01*
X80899000Y-52205000D01*
X81153000Y-52205000D01*
X81153000Y-52225000D01*
X81977250Y-52225000D01*
X82136000Y-52066250D01*
X82139072Y-51827000D01*
X82131290Y-51747989D01*
X82412188Y-51747989D01*
X82490264Y-51826065D01*
G36*
X69790264Y-51826065D02*
G01*
X69769752Y-51893684D01*
X69752928Y-52064500D01*
X69752928Y-52639500D01*
X69769752Y-52810316D01*
X69819577Y-52974567D01*
X69900488Y-53125942D01*
X69983425Y-53227000D01*
X69900488Y-53328058D01*
X69819577Y-53479433D01*
X69769752Y-53643684D01*
X69752928Y-53814500D01*
X69752928Y-54389500D01*
X69769752Y-54560316D01*
X69819577Y-54724567D01*
X69900488Y-54875942D01*
X70009377Y-55008623D01*
X70065278Y-55054500D01*
X70009377Y-55100377D01*
X69900488Y-55233058D01*
X69893036Y-55247000D01*
X69298964Y-55247000D01*
X69291512Y-55233058D01*
X69182623Y-55100377D01*
X69126722Y-55054500D01*
X69182623Y-55008623D01*
X69291512Y-54875942D01*
X69372423Y-54724567D01*
X69422248Y-54560316D01*
X69439072Y-54389500D01*
X69439072Y-53814500D01*
X69422248Y-53643684D01*
X69372423Y-53479433D01*
X69291512Y-53328058D01*
X69271901Y-53304161D01*
X69331537Y-53231494D01*
X69390502Y-53121180D01*
X69426812Y-53001482D01*
X69439072Y-52877000D01*
X69436000Y-52637750D01*
X69277250Y-52479000D01*
X68453000Y-52479000D01*
X68453000Y-52499000D01*
X68199000Y-52499000D01*
X68199000Y-52479000D01*
X68179000Y-52479000D01*
X68179000Y-52225000D01*
X68199000Y-52225000D01*
X68199000Y-52205000D01*
X68453000Y-52205000D01*
X68453000Y-52225000D01*
X69277250Y-52225000D01*
X69436000Y-52066250D01*
X69439072Y-51827000D01*
X69432866Y-51763989D01*
X69728188Y-51763989D01*
X69790264Y-51826065D01*
G37*
X69790264Y-51826065D02*
X69769752Y-51893684D01*
X69752928Y-52064500D01*
X69752928Y-52639500D01*
X69769752Y-52810316D01*
X69819577Y-52974567D01*
X69900488Y-53125942D01*
X69983425Y-53227000D01*
X69900488Y-53328058D01*
X69819577Y-53479433D01*
X69769752Y-53643684D01*
X69752928Y-53814500D01*
X69752928Y-54389500D01*
X69769752Y-54560316D01*
X69819577Y-54724567D01*
X69900488Y-54875942D01*
X70009377Y-55008623D01*
X70065278Y-55054500D01*
X70009377Y-55100377D01*
X69900488Y-55233058D01*
X69893036Y-55247000D01*
X69298964Y-55247000D01*
X69291512Y-55233058D01*
X69182623Y-55100377D01*
X69126722Y-55054500D01*
X69182623Y-55008623D01*
X69291512Y-54875942D01*
X69372423Y-54724567D01*
X69422248Y-54560316D01*
X69439072Y-54389500D01*
X69439072Y-53814500D01*
X69422248Y-53643684D01*
X69372423Y-53479433D01*
X69291512Y-53328058D01*
X69271901Y-53304161D01*
X69331537Y-53231494D01*
X69390502Y-53121180D01*
X69426812Y-53001482D01*
X69439072Y-52877000D01*
X69436000Y-52637750D01*
X69277250Y-52479000D01*
X68453000Y-52479000D01*
X68453000Y-52499000D01*
X68199000Y-52499000D01*
X68199000Y-52479000D01*
X68179000Y-52479000D01*
X68179000Y-52225000D01*
X68199000Y-52225000D01*
X68199000Y-52205000D01*
X68453000Y-52205000D01*
X68453000Y-52225000D01*
X69277250Y-52225000D01*
X69436000Y-52066250D01*
X69439072Y-51827000D01*
X69432866Y-51763989D01*
X69728188Y-51763989D01*
X69790264Y-51826065D01*
G36*
X57000928Y-53779000D02*
G01*
X57000928Y-54650270D01*
X56843271Y-54807928D01*
X56692235Y-54807928D01*
X56670205Y-54754744D01*
X56556937Y-54585226D01*
X56412774Y-54441063D01*
X56243256Y-54327795D01*
X56162661Y-54294411D01*
X56069250Y-54201000D01*
X55245000Y-54201000D01*
X55245000Y-54221000D01*
X54991000Y-54221000D01*
X54991000Y-54201000D01*
X53467000Y-54201000D01*
X53467000Y-54221000D01*
X53213000Y-54221000D01*
X53213000Y-54201000D01*
X53193000Y-54201000D01*
X53193000Y-53947000D01*
X53213000Y-53947000D01*
X53213000Y-53934010D01*
X53467000Y-53934010D01*
X53467000Y-53947000D01*
X54991000Y-53947000D01*
X54991000Y-53927000D01*
X55245000Y-53927000D01*
X55245000Y-53947000D01*
X56069250Y-53947000D01*
X56228000Y-53788250D01*
X56228311Y-53764001D01*
X57002405Y-53764001D01*
X57000928Y-53779000D01*
G37*
X57000928Y-53779000D02*
X57000928Y-54650270D01*
X56843271Y-54807928D01*
X56692235Y-54807928D01*
X56670205Y-54754744D01*
X56556937Y-54585226D01*
X56412774Y-54441063D01*
X56243256Y-54327795D01*
X56162661Y-54294411D01*
X56069250Y-54201000D01*
X55245000Y-54201000D01*
X55245000Y-54221000D01*
X54991000Y-54221000D01*
X54991000Y-54201000D01*
X53467000Y-54201000D01*
X53467000Y-54221000D01*
X53213000Y-54221000D01*
X53213000Y-54201000D01*
X53193000Y-54201000D01*
X53193000Y-53947000D01*
X53213000Y-53947000D01*
X53213000Y-53934010D01*
X53467000Y-53934010D01*
X53467000Y-53947000D01*
X54991000Y-53947000D01*
X54991000Y-53927000D01*
X55245000Y-53927000D01*
X55245000Y-53947000D01*
X56069250Y-53947000D01*
X56228000Y-53788250D01*
X56228311Y-53764001D01*
X57002405Y-53764001D01*
X57000928Y-53779000D01*
G36*
X92075000Y-53975000D02*
G01*
X92095000Y-53975000D01*
X92095000Y-54229000D01*
X92075000Y-54229000D01*
X92075000Y-54249000D01*
X91821000Y-54249000D01*
X91821000Y-54229000D01*
X91801000Y-54229000D01*
X91801000Y-53975000D01*
X91821000Y-53975000D01*
X91821000Y-53955000D01*
X92075000Y-53955000D01*
X92075000Y-53975000D01*
G37*
X92075000Y-53975000D02*
X92095000Y-53975000D01*
X92095000Y-54229000D01*
X92075000Y-54229000D01*
X92075000Y-54249000D01*
X91821000Y-54249000D01*
X91821000Y-54229000D01*
X91801000Y-54229000D01*
X91801000Y-53975000D01*
X91821000Y-53975000D01*
X91821000Y-53955000D01*
X92075000Y-53955000D01*
X92075000Y-53975000D01*
G36*
X79375000Y-53975000D02*
G01*
X79395000Y-53975000D01*
X79395000Y-54229000D01*
X79375000Y-54229000D01*
X79375000Y-54249000D01*
X79154796Y-54249000D01*
X79120974Y-54185724D01*
X79101000Y-54161386D01*
X79101000Y-53975000D01*
X79121000Y-53975000D01*
X79121000Y-53955000D01*
X79375000Y-53955000D01*
X79375000Y-53975000D01*
G37*
X79375000Y-53975000D02*
X79395000Y-53975000D01*
X79395000Y-54229000D01*
X79375000Y-54229000D01*
X79375000Y-54249000D01*
X79154796Y-54249000D01*
X79120974Y-54185724D01*
X79101000Y-54161386D01*
X79101000Y-53975000D01*
X79121000Y-53975000D01*
X79121000Y-53955000D01*
X79375000Y-53955000D01*
X79375000Y-53975000D01*
G36*
X66675000Y-53975000D02*
G01*
X66695000Y-53975000D01*
X66695000Y-54229000D01*
X66675000Y-54229000D01*
X66675000Y-54249000D01*
X66421000Y-54249000D01*
X66421000Y-54229000D01*
X66419000Y-54229000D01*
X66419000Y-53975000D01*
X66421000Y-53975000D01*
X66421000Y-53955000D01*
X66675000Y-53955000D01*
X66675000Y-53975000D01*
G37*
X66675000Y-53975000D02*
X66695000Y-53975000D01*
X66695000Y-54229000D01*
X66675000Y-54229000D01*
X66675000Y-54249000D01*
X66421000Y-54249000D01*
X66421000Y-54229000D01*
X66419000Y-54229000D01*
X66419000Y-53975000D01*
X66421000Y-53975000D01*
X66421000Y-53955000D01*
X66675000Y-53955000D01*
X66675000Y-53975000D01*
M02*
