G04 #@! TF.GenerationSoftware,KiCad,Pcbnew,(5.1.6-0)*
G04 #@! TF.CreationDate,2023-03-04T21:55:24+01:00*
G04 #@! TF.ProjectId,PaulaAdapter,5061756c-6141-4646-9170-7465722e6b69,rev?*
G04 #@! TF.SameCoordinates,Original*
G04 #@! TF.FileFunction,Copper,L1,Top*
G04 #@! TF.FilePolarity,Positive*
%FSLAX46Y46*%
G04 Gerber Fmt 4.6, Leading zero omitted, Abs format (unit mm)*
G04 Created by KiCad (PCBNEW (5.1.6-0)) date 2023-03-04 21:55:24*
%MOMM*%
%LPD*%
G01*
G04 APERTURE LIST*
G04 #@! TA.AperFunction,ComponentPad*
%ADD10C,1.422400*%
G04 #@! TD*
G04 #@! TA.AperFunction,ComponentPad*
%ADD11R,1.422400X1.422400*%
G04 #@! TD*
G04 #@! TA.AperFunction,ComponentPad*
%ADD12O,1.600000X1.600000*%
G04 #@! TD*
G04 #@! TA.AperFunction,ComponentPad*
%ADD13R,1.600000X1.600000*%
G04 #@! TD*
G04 #@! TA.AperFunction,ViaPad*
%ADD14C,0.800000*%
G04 #@! TD*
G04 #@! TA.AperFunction,Conductor*
%ADD15C,0.250000*%
G04 #@! TD*
G04 #@! TA.AperFunction,Conductor*
%ADD16C,0.254000*%
G04 #@! TD*
G04 APERTURE END LIST*
D10*
X48704500Y-46863000D03*
X48704500Y-49403000D03*
X48704500Y-51943000D03*
X48704500Y-54483000D03*
X48704500Y-57023000D03*
X48704500Y-59563000D03*
X46164500Y-44323000D03*
X46164500Y-49403000D03*
X46164500Y-51943000D03*
X46164500Y-54483000D03*
X46164500Y-57023000D03*
X46164500Y-59563000D03*
X46164500Y-62103000D03*
X46164500Y-64643000D03*
X43624500Y-64643000D03*
X41084500Y-64643000D03*
X38544500Y-64643000D03*
X36004500Y-64643000D03*
X33464500Y-64643000D03*
X30924500Y-64643000D03*
X48704500Y-62103000D03*
X43624500Y-62103000D03*
X41084500Y-62103000D03*
X38544500Y-62103000D03*
X36004500Y-62103000D03*
X33464500Y-62103000D03*
X30924500Y-62103000D03*
X28384500Y-62103000D03*
X28384500Y-59563000D03*
X28384500Y-57023000D03*
X28384500Y-54483000D03*
X28384500Y-51943000D03*
X28384500Y-49403000D03*
X28384500Y-46863000D03*
X30924500Y-59563000D03*
X30924500Y-57023000D03*
X30924500Y-54483000D03*
X30924500Y-51943000D03*
X30924500Y-49403000D03*
X30924500Y-46863000D03*
X43624500Y-44323000D03*
X41084500Y-44323000D03*
X30924500Y-44323000D03*
X33464500Y-44323000D03*
X36004500Y-44323000D03*
D11*
X38544500Y-44323000D03*
D10*
X46164500Y-46863000D03*
X43624500Y-46863000D03*
X41084500Y-46863000D03*
X33464500Y-46863000D03*
X36004500Y-46863000D03*
X38544500Y-46863000D03*
D12*
X44894500Y-30353000D03*
X29654500Y-88773000D03*
X44894500Y-32893000D03*
X29654500Y-86233000D03*
X44894500Y-35433000D03*
X29654500Y-83693000D03*
X44894500Y-37973000D03*
X29654500Y-81153000D03*
X44894500Y-40513000D03*
X29654500Y-78613000D03*
X44894500Y-43053000D03*
X29654500Y-76073000D03*
X44894500Y-45593000D03*
X29654500Y-73533000D03*
X44894500Y-48133000D03*
X29654500Y-70993000D03*
X44894500Y-50673000D03*
X29654500Y-68453000D03*
X44894500Y-53213000D03*
X29654500Y-65913000D03*
X44894500Y-55753000D03*
X29654500Y-63373000D03*
X44894500Y-58293000D03*
X29654500Y-60833000D03*
X44894500Y-60833000D03*
X29654500Y-58293000D03*
X44894500Y-63373000D03*
X29654500Y-55753000D03*
X44894500Y-65913000D03*
X29654500Y-53213000D03*
X44894500Y-68453000D03*
X29654500Y-50673000D03*
X44894500Y-70993000D03*
X29654500Y-48133000D03*
X44894500Y-73533000D03*
X29654500Y-45593000D03*
X44894500Y-76073000D03*
X29654500Y-43053000D03*
X44894500Y-78613000D03*
X29654500Y-40513000D03*
X44894500Y-81153000D03*
X29654500Y-37973000D03*
X44894500Y-83693000D03*
X29654500Y-35433000D03*
X44894500Y-86233000D03*
X29654500Y-32893000D03*
X44894500Y-88773000D03*
D13*
X29654500Y-30353000D03*
D14*
X33661541Y-60051618D03*
X32685701Y-59833121D03*
X47434500Y-61023500D03*
X47879000Y-66865500D03*
X46446220Y-77535857D03*
X43556482Y-77425290D03*
X43688000Y-72326500D03*
X37211000Y-30924500D03*
X26797000Y-48133000D03*
X50546000Y-66611500D03*
X38417500Y-66865500D03*
X42164000Y-89408000D03*
X32131000Y-89471500D03*
X26416000Y-66611500D03*
X50546000Y-42291000D03*
X42106481Y-78232000D03*
D15*
X46428078Y-45593000D02*
X44894500Y-45593000D01*
X47200701Y-46365623D02*
X46428078Y-45593000D01*
X47200701Y-48366799D02*
X47200701Y-46365623D01*
X46164500Y-49403000D02*
X47200701Y-48366799D01*
X30779501Y-87647999D02*
X29654500Y-88773000D01*
X30779501Y-85744409D02*
X30779501Y-87647999D01*
X31435320Y-83185000D02*
X31374510Y-83245810D01*
X31856974Y-82824026D02*
X31496000Y-83185000D01*
X32129531Y-79255106D02*
X32129530Y-80587200D01*
X32579537Y-78805100D02*
X32129531Y-79255106D01*
X32129530Y-80587200D02*
X31856974Y-80859756D01*
X34210746Y-74698801D02*
X32579538Y-76330009D01*
X35851789Y-66129211D02*
X34210747Y-67770253D01*
X38174488Y-64643000D02*
X36688277Y-66129211D01*
X34210747Y-67770253D02*
X34210746Y-74698801D01*
X36688277Y-66129211D02*
X35851789Y-66129211D01*
X31374509Y-85149401D02*
X30779501Y-85744409D01*
X31374510Y-83245810D02*
X31374509Y-85149401D01*
X31856974Y-80859756D02*
X31856974Y-82824026D01*
X31496000Y-83185000D02*
X31435320Y-83185000D01*
X32579538Y-76330009D02*
X32579537Y-78805100D01*
X38544500Y-64643000D02*
X38174488Y-64643000D01*
X30924500Y-84963000D02*
X29654500Y-86233000D01*
X30924500Y-83059410D02*
X30924500Y-84963000D01*
X31406964Y-82576946D02*
X30924500Y-83059410D01*
X31406965Y-80673355D02*
X31406964Y-82576946D01*
X31679521Y-80400799D02*
X31406965Y-80673355D01*
X31679521Y-79068706D02*
X31679521Y-80400799D01*
X37040701Y-63139201D02*
X37040701Y-65140377D01*
X33760738Y-67533130D02*
X33760737Y-74512400D01*
X32129528Y-78618699D02*
X31679521Y-79068706D01*
X32129529Y-76143608D02*
X32129528Y-78618699D01*
X33760737Y-74512400D02*
X32129529Y-76143608D01*
X35614667Y-65679201D02*
X33760738Y-67533130D01*
X36501877Y-65679201D02*
X35614667Y-65679201D01*
X37040701Y-65140377D02*
X36501877Y-65679201D01*
X36004500Y-62103000D02*
X37040701Y-63139201D01*
X29654500Y-83693000D02*
X30956955Y-82390545D01*
X30956955Y-80486955D02*
X31229511Y-80214399D01*
X30956955Y-82390545D02*
X30956955Y-80486955D01*
X31229511Y-78882309D02*
X31679519Y-78432299D01*
X31229511Y-80214399D02*
X31229511Y-78882309D01*
X31679519Y-75957211D02*
X33310728Y-74326000D01*
X31679519Y-78432299D02*
X31679519Y-75957211D01*
X34163000Y-66494458D02*
X33310729Y-67346729D01*
X34163000Y-66484500D02*
X34163000Y-66494458D01*
X34163000Y-66484500D02*
X36004500Y-64643000D01*
X33310728Y-74326000D02*
X33310729Y-67346729D01*
X34500701Y-63139201D02*
X33464500Y-62103000D01*
X32860719Y-66780359D02*
X34500701Y-65140377D01*
X34500701Y-65140377D02*
X34500701Y-63139201D01*
X31229511Y-75770809D02*
X32860719Y-74139601D01*
X32860719Y-74139601D02*
X32860719Y-66780359D01*
X30779501Y-78695909D02*
X31229510Y-78245900D01*
X30779501Y-80027999D02*
X30779501Y-78695909D01*
X31229510Y-78245900D02*
X31229511Y-75770809D01*
X29654500Y-81153000D02*
X30779501Y-80027999D01*
X33464500Y-64833500D02*
X32410711Y-65887289D01*
X33464500Y-64643000D02*
X33464500Y-64833500D01*
X32410711Y-65887289D02*
X32410710Y-73953200D01*
X30779501Y-75584409D02*
X30779501Y-78059499D01*
X32410710Y-73953200D02*
X30779501Y-75584409D01*
X30226000Y-78613000D02*
X29654500Y-78613000D01*
X30779501Y-78059499D02*
X30226000Y-78613000D01*
X31960701Y-63139201D02*
X31960701Y-73766799D01*
X31960701Y-73766799D02*
X29654500Y-76073000D01*
X30924500Y-62103000D02*
X31960701Y-63139201D01*
X30924500Y-72263000D02*
X29654500Y-73533000D01*
X30924500Y-64643000D02*
X30924500Y-72263000D01*
X28529499Y-62247999D02*
X28384500Y-62103000D01*
X28529499Y-69867999D02*
X28529499Y-62247999D01*
X29654500Y-70993000D02*
X28529499Y-69867999D01*
X33661541Y-59735959D02*
X33661541Y-60051618D01*
X33033702Y-59108120D02*
X33661541Y-59735959D01*
X31379380Y-59108120D02*
X33033702Y-59108120D01*
X30924500Y-59563000D02*
X31379380Y-59108120D01*
X31685822Y-60833000D02*
X29654500Y-60833000D01*
X32685701Y-59833121D02*
X31685822Y-60833000D01*
X27348299Y-52979201D02*
X28384500Y-51943000D01*
X27348299Y-57520377D02*
X27348299Y-52979201D01*
X28120922Y-58293000D02*
X27348299Y-57520377D01*
X29654500Y-58293000D02*
X28120922Y-58293000D01*
X47434500Y-62366578D02*
X47434500Y-61023500D01*
X46428078Y-63373000D02*
X47434500Y-62366578D01*
X44894500Y-63373000D02*
X46428078Y-63373000D01*
X31188078Y-55753000D02*
X29654500Y-55753000D01*
X31960701Y-54980377D02*
X31188078Y-55753000D01*
X31960701Y-50439201D02*
X31960701Y-54980377D01*
X30924500Y-49403000D02*
X31960701Y-50439201D01*
X42588299Y-65140377D02*
X42588299Y-61474199D01*
X42588299Y-61474199D02*
X44499498Y-59563000D01*
X43360922Y-65913000D02*
X42588299Y-65140377D01*
X44499498Y-59563000D02*
X46164500Y-59563000D01*
X44894500Y-65913000D02*
X43360922Y-65913000D01*
X46446220Y-77535857D02*
X46673910Y-77308167D01*
X46673910Y-77308167D02*
X46673910Y-75566410D01*
X43624500Y-77357272D02*
X43624500Y-77104412D01*
X43556482Y-77425290D02*
X43624500Y-77357272D01*
X43556482Y-77036394D02*
X43319489Y-76799401D01*
X43556482Y-77425290D02*
X43556482Y-77036394D01*
X43319489Y-76799401D02*
X43319490Y-74471600D01*
X43688000Y-74103090D02*
X43688000Y-72326500D01*
X43319490Y-74471600D02*
X43688000Y-74103090D01*
X43769499Y-67038001D02*
X44894500Y-65913000D01*
X43769499Y-68879501D02*
X43769499Y-67038001D01*
X43688000Y-68961000D02*
X43769499Y-68879501D01*
X43688000Y-72326500D02*
X43688000Y-68961000D01*
X46446220Y-77535857D02*
X45733055Y-77535857D01*
X43556482Y-77425290D02*
X43945378Y-77425290D01*
X43688000Y-72326500D02*
X45656500Y-72326500D01*
X49154510Y-63186568D02*
X49154510Y-63882410D01*
X49740701Y-62600377D02*
X49154510Y-63186568D01*
X49154510Y-63882410D02*
X47064519Y-65972401D01*
X48810577Y-60675499D02*
X49740701Y-61605623D01*
X49740701Y-61605623D02*
X49740701Y-62600377D01*
X48159501Y-60675499D02*
X48810577Y-60675499D01*
X47047002Y-59563000D02*
X48159501Y-60675499D01*
X46164500Y-59563000D02*
X47047002Y-59563000D01*
X47180500Y-66865500D02*
X47064519Y-66981481D01*
X47879000Y-66865500D02*
X47180500Y-66865500D01*
X47064519Y-66981481D02*
X47064519Y-67194019D01*
X47064519Y-65972401D02*
X47064519Y-66981481D01*
X29654500Y-48133000D02*
X34226500Y-48133000D01*
X34861500Y-48768000D02*
X34861500Y-52070000D01*
X40132000Y-52070000D02*
X40386000Y-52324000D01*
X34861500Y-52070000D02*
X40132000Y-52070000D01*
X34861500Y-52070000D02*
X34861500Y-57213500D01*
X34861500Y-57213500D02*
X40386000Y-57213500D01*
X28067000Y-46863000D02*
X26797000Y-48133000D01*
X28384500Y-46863000D02*
X28067000Y-46863000D01*
X34500701Y-48407201D02*
X34798000Y-48704500D01*
X34500701Y-33634799D02*
X34500701Y-48407201D01*
X37211000Y-30924500D02*
X34500701Y-33634799D01*
X34798000Y-48704500D02*
X34861500Y-48768000D01*
X34226500Y-48133000D02*
X34798000Y-48704500D01*
X38417500Y-66865500D02*
X39814500Y-65468500D01*
X39814500Y-57785000D02*
X40386000Y-57213500D01*
X39814500Y-65468500D02*
X39814500Y-57785000D01*
X28079489Y-68189145D02*
X28079489Y-90118989D01*
X27396834Y-67506490D02*
X28079489Y-68189145D01*
X27247490Y-67506490D02*
X27396834Y-67506490D01*
X26416000Y-66675000D02*
X27247490Y-67506490D01*
X26416000Y-66611500D02*
X26416000Y-66675000D01*
X28079489Y-90118989D02*
X28321000Y-90360500D01*
X31242000Y-90360500D02*
X32131000Y-89471500D01*
X28321000Y-90360500D02*
X31242000Y-90360500D01*
X46614508Y-74989402D02*
X46614508Y-74110008D01*
X46019501Y-75584409D02*
X46614508Y-74989402D01*
X46019501Y-76613001D02*
X46019501Y-75584409D01*
X44354499Y-77198001D02*
X45434501Y-77198001D01*
X43769499Y-76613001D02*
X44354499Y-77198001D01*
X46614510Y-65716990D02*
X48704500Y-63627000D01*
X43769499Y-74658001D02*
X43769499Y-76613001D01*
X46614508Y-74110008D02*
X46614510Y-65716990D01*
X45434501Y-77198001D02*
X46019501Y-76613001D01*
X48704500Y-63627000D02*
X48704500Y-62103000D01*
X44894500Y-73533000D02*
X43769499Y-74658001D01*
X44894500Y-76073000D02*
X46164500Y-74803000D01*
X46164500Y-74803000D02*
X46164500Y-70548500D01*
X46164500Y-64643000D02*
X46164500Y-70548500D01*
X42487481Y-78613000D02*
X42106481Y-78232000D01*
X44894500Y-78613000D02*
X42487481Y-78613000D01*
D16*
G36*
X39891513Y-65280665D02*
G01*
X40038838Y-65501153D01*
X40226347Y-65688662D01*
X40446835Y-65835987D01*
X40691828Y-65937467D01*
X40951911Y-65989200D01*
X41217089Y-65989200D01*
X41477172Y-65937467D01*
X41722165Y-65835987D01*
X41942653Y-65688662D01*
X42004412Y-65626903D01*
X42048298Y-65680378D01*
X42077301Y-65704180D01*
X42797123Y-66424002D01*
X42820921Y-66453001D01*
X42849919Y-66476799D01*
X42936645Y-66547974D01*
X43029724Y-66597726D01*
X43068675Y-66618546D01*
X43123120Y-66635062D01*
X43063953Y-66745755D01*
X43036956Y-66834757D01*
X43023774Y-66878214D01*
X43020497Y-66889016D01*
X43005823Y-67038001D01*
X43009500Y-67075333D01*
X43009499Y-68618156D01*
X42982454Y-68668754D01*
X42938998Y-68812015D01*
X42924324Y-68961000D01*
X42928001Y-68998332D01*
X42928000Y-71622789D01*
X42884063Y-71666726D01*
X42770795Y-71836244D01*
X42692774Y-72024602D01*
X42653000Y-72224561D01*
X42653000Y-72428439D01*
X42692774Y-72628398D01*
X42770795Y-72816756D01*
X42884063Y-72986274D01*
X42928001Y-73030212D01*
X42928000Y-73788289D01*
X42808488Y-73907801D01*
X42779490Y-73931599D01*
X42755692Y-73960597D01*
X42755691Y-73960598D01*
X42684516Y-74047324D01*
X42613944Y-74179354D01*
X42588572Y-74262999D01*
X42570488Y-74322614D01*
X42563325Y-74395336D01*
X42555814Y-74471600D01*
X42559491Y-74508932D01*
X42559489Y-76762078D01*
X42555813Y-76799401D01*
X42559489Y-76836723D01*
X42559489Y-76836733D01*
X42570486Y-76948386D01*
X42597229Y-77036547D01*
X42561256Y-77123392D01*
X42528783Y-77286647D01*
X42408379Y-77236774D01*
X42208420Y-77197000D01*
X42004542Y-77197000D01*
X41804583Y-77236774D01*
X41616225Y-77314795D01*
X41446707Y-77428063D01*
X41302544Y-77572226D01*
X41189276Y-77741744D01*
X41111255Y-77930102D01*
X41071481Y-78130061D01*
X41071481Y-78333939D01*
X41111255Y-78533898D01*
X41189276Y-78722256D01*
X41302544Y-78891774D01*
X41446707Y-79035937D01*
X41616225Y-79149205D01*
X41804583Y-79227226D01*
X42004542Y-79267000D01*
X42098800Y-79267000D01*
X42195234Y-79318546D01*
X42338495Y-79362003D01*
X42450148Y-79373000D01*
X42450157Y-79373000D01*
X42487480Y-79376676D01*
X42524803Y-79373000D01*
X43676457Y-79373000D01*
X43779863Y-79527759D01*
X43979741Y-79727637D01*
X44212259Y-79883000D01*
X43979741Y-80038363D01*
X43779863Y-80238241D01*
X43622820Y-80473273D01*
X43514647Y-80734426D01*
X43459500Y-81011665D01*
X43459500Y-81294335D01*
X43514647Y-81571574D01*
X43622820Y-81832727D01*
X43779863Y-82067759D01*
X43979741Y-82267637D01*
X44212259Y-82423000D01*
X43979741Y-82578363D01*
X43779863Y-82778241D01*
X43622820Y-83013273D01*
X43514647Y-83274426D01*
X43459500Y-83551665D01*
X43459500Y-83834335D01*
X43514647Y-84111574D01*
X43622820Y-84372727D01*
X43779863Y-84607759D01*
X43979741Y-84807637D01*
X44212259Y-84963000D01*
X43979741Y-85118363D01*
X43779863Y-85318241D01*
X43622820Y-85553273D01*
X43514647Y-85814426D01*
X43459500Y-86091665D01*
X43459500Y-86374335D01*
X43514647Y-86651574D01*
X43622820Y-86912727D01*
X43779863Y-87147759D01*
X43979741Y-87347637D01*
X44212259Y-87503000D01*
X43979741Y-87658363D01*
X43779863Y-87858241D01*
X43622820Y-88093273D01*
X43514647Y-88354426D01*
X43459500Y-88631665D01*
X43459500Y-88914335D01*
X43514647Y-89191574D01*
X43622820Y-89452727D01*
X43779863Y-89687759D01*
X43979741Y-89887637D01*
X44214773Y-90044680D01*
X44475926Y-90152853D01*
X44753165Y-90208000D01*
X45035835Y-90208000D01*
X45313074Y-90152853D01*
X45574227Y-90044680D01*
X45809259Y-89887637D01*
X46009137Y-89687759D01*
X46166180Y-89452727D01*
X46274353Y-89191574D01*
X46329500Y-88914335D01*
X46329500Y-88631665D01*
X46274353Y-88354426D01*
X46166180Y-88093273D01*
X46009137Y-87858241D01*
X45809259Y-87658363D01*
X45576741Y-87503000D01*
X45809259Y-87347637D01*
X46009137Y-87147759D01*
X46166180Y-86912727D01*
X46274353Y-86651574D01*
X46329500Y-86374335D01*
X46329500Y-86091665D01*
X46274353Y-85814426D01*
X46166180Y-85553273D01*
X46009137Y-85318241D01*
X45809259Y-85118363D01*
X45576741Y-84963000D01*
X45809259Y-84807637D01*
X46009137Y-84607759D01*
X46166180Y-84372727D01*
X46274353Y-84111574D01*
X46329500Y-83834335D01*
X46329500Y-83551665D01*
X46274353Y-83274426D01*
X46166180Y-83013273D01*
X46009137Y-82778241D01*
X45809259Y-82578363D01*
X45576741Y-82423000D01*
X45809259Y-82267637D01*
X46009137Y-82067759D01*
X46166180Y-81832727D01*
X46274353Y-81571574D01*
X46329500Y-81294335D01*
X46329500Y-81011665D01*
X46274353Y-80734426D01*
X46166180Y-80473273D01*
X46009137Y-80238241D01*
X45809259Y-80038363D01*
X45576741Y-79883000D01*
X45809259Y-79727637D01*
X46009137Y-79527759D01*
X46166180Y-79292727D01*
X46274353Y-79031574D01*
X46329500Y-78754335D01*
X46329500Y-78567917D01*
X46344281Y-78570857D01*
X46432000Y-78570857D01*
X46432001Y-90755000D01*
X27926500Y-90755000D01*
X27926500Y-70331236D01*
X27989498Y-70408000D01*
X28018501Y-70431803D01*
X28255812Y-70669113D01*
X28219500Y-70851665D01*
X28219500Y-71134335D01*
X28274647Y-71411574D01*
X28382820Y-71672727D01*
X28539863Y-71907759D01*
X28739741Y-72107637D01*
X28972259Y-72263000D01*
X28739741Y-72418363D01*
X28539863Y-72618241D01*
X28382820Y-72853273D01*
X28274647Y-73114426D01*
X28219500Y-73391665D01*
X28219500Y-73674335D01*
X28274647Y-73951574D01*
X28382820Y-74212727D01*
X28539863Y-74447759D01*
X28739741Y-74647637D01*
X28972259Y-74803000D01*
X28739741Y-74958363D01*
X28539863Y-75158241D01*
X28382820Y-75393273D01*
X28274647Y-75654426D01*
X28219500Y-75931665D01*
X28219500Y-76214335D01*
X28274647Y-76491574D01*
X28382820Y-76752727D01*
X28539863Y-76987759D01*
X28739741Y-77187637D01*
X28972259Y-77343000D01*
X28739741Y-77498363D01*
X28539863Y-77698241D01*
X28382820Y-77933273D01*
X28274647Y-78194426D01*
X28219500Y-78471665D01*
X28219500Y-78754335D01*
X28274647Y-79031574D01*
X28382820Y-79292727D01*
X28539863Y-79527759D01*
X28739741Y-79727637D01*
X28972259Y-79883000D01*
X28739741Y-80038363D01*
X28539863Y-80238241D01*
X28382820Y-80473273D01*
X28274647Y-80734426D01*
X28219500Y-81011665D01*
X28219500Y-81294335D01*
X28274647Y-81571574D01*
X28382820Y-81832727D01*
X28539863Y-82067759D01*
X28739741Y-82267637D01*
X28972259Y-82423000D01*
X28739741Y-82578363D01*
X28539863Y-82778241D01*
X28382820Y-83013273D01*
X28274647Y-83274426D01*
X28219500Y-83551665D01*
X28219500Y-83834335D01*
X28274647Y-84111574D01*
X28382820Y-84372727D01*
X28539863Y-84607759D01*
X28739741Y-84807637D01*
X28972259Y-84963000D01*
X28739741Y-85118363D01*
X28539863Y-85318241D01*
X28382820Y-85553273D01*
X28274647Y-85814426D01*
X28219500Y-86091665D01*
X28219500Y-86374335D01*
X28274647Y-86651574D01*
X28382820Y-86912727D01*
X28539863Y-87147759D01*
X28739741Y-87347637D01*
X28972259Y-87503000D01*
X28739741Y-87658363D01*
X28539863Y-87858241D01*
X28382820Y-88093273D01*
X28274647Y-88354426D01*
X28219500Y-88631665D01*
X28219500Y-88914335D01*
X28274647Y-89191574D01*
X28382820Y-89452727D01*
X28539863Y-89687759D01*
X28739741Y-89887637D01*
X28974773Y-90044680D01*
X29235926Y-90152853D01*
X29513165Y-90208000D01*
X29795835Y-90208000D01*
X30073074Y-90152853D01*
X30334227Y-90044680D01*
X30569259Y-89887637D01*
X30769137Y-89687759D01*
X30926180Y-89452727D01*
X31034353Y-89191574D01*
X31089500Y-88914335D01*
X31089500Y-88631665D01*
X31053188Y-88449114D01*
X31290504Y-88211798D01*
X31319502Y-88188000D01*
X31414475Y-88072275D01*
X31485047Y-87940246D01*
X31528504Y-87796985D01*
X31539501Y-87685332D01*
X31539501Y-87685324D01*
X31543177Y-87647999D01*
X31539501Y-87610674D01*
X31539501Y-86059211D01*
X31885521Y-85713192D01*
X31914509Y-85689402D01*
X31938298Y-85660415D01*
X31938308Y-85660405D01*
X32009482Y-85573678D01*
X32080054Y-85441648D01*
X32123511Y-85298388D01*
X32138185Y-85149402D01*
X32134508Y-85112070D01*
X32134510Y-83621291D01*
X32367971Y-83387830D01*
X32396975Y-83364027D01*
X32491948Y-83248302D01*
X32562520Y-83116273D01*
X32605977Y-82973012D01*
X32616974Y-82861359D01*
X32616974Y-82861350D01*
X32620650Y-82824027D01*
X32616974Y-82786704D01*
X32616974Y-81174558D01*
X32640537Y-81150995D01*
X32669530Y-81127201D01*
X32693324Y-81098208D01*
X32693329Y-81098203D01*
X32764503Y-81011476D01*
X32790199Y-80963402D01*
X32835075Y-80879447D01*
X32878532Y-80736186D01*
X32888406Y-80635940D01*
X32893206Y-80587201D01*
X32889529Y-80549869D01*
X32889530Y-79569908D01*
X33090539Y-79368899D01*
X33119537Y-79345101D01*
X33143336Y-79316102D01*
X33214511Y-79229376D01*
X33285083Y-79097347D01*
X33328540Y-78954086D01*
X33343214Y-78805100D01*
X33339536Y-78767758D01*
X33339538Y-76644811D01*
X34721759Y-75262591D01*
X34750746Y-75238802D01*
X34774535Y-75209815D01*
X34774545Y-75209805D01*
X34845719Y-75123078D01*
X34916291Y-74991048D01*
X34959748Y-74847788D01*
X34974422Y-74698802D01*
X34970745Y-74661469D01*
X34970747Y-68085054D01*
X36166591Y-66889211D01*
X36650955Y-66889211D01*
X36688277Y-66892887D01*
X36725599Y-66889211D01*
X36725610Y-66889211D01*
X36837263Y-66878214D01*
X36980524Y-66834757D01*
X37112553Y-66764185D01*
X37228278Y-66669212D01*
X37252081Y-66640208D01*
X38012524Y-65879765D01*
X38151828Y-65937467D01*
X38411911Y-65989200D01*
X38677089Y-65989200D01*
X38937172Y-65937467D01*
X39182165Y-65835987D01*
X39402653Y-65688662D01*
X39590162Y-65501153D01*
X39737487Y-65280665D01*
X39814500Y-65094740D01*
X39891513Y-65280665D01*
G37*
X39891513Y-65280665D02*
X40038838Y-65501153D01*
X40226347Y-65688662D01*
X40446835Y-65835987D01*
X40691828Y-65937467D01*
X40951911Y-65989200D01*
X41217089Y-65989200D01*
X41477172Y-65937467D01*
X41722165Y-65835987D01*
X41942653Y-65688662D01*
X42004412Y-65626903D01*
X42048298Y-65680378D01*
X42077301Y-65704180D01*
X42797123Y-66424002D01*
X42820921Y-66453001D01*
X42849919Y-66476799D01*
X42936645Y-66547974D01*
X43029724Y-66597726D01*
X43068675Y-66618546D01*
X43123120Y-66635062D01*
X43063953Y-66745755D01*
X43036956Y-66834757D01*
X43023774Y-66878214D01*
X43020497Y-66889016D01*
X43005823Y-67038001D01*
X43009500Y-67075333D01*
X43009499Y-68618156D01*
X42982454Y-68668754D01*
X42938998Y-68812015D01*
X42924324Y-68961000D01*
X42928001Y-68998332D01*
X42928000Y-71622789D01*
X42884063Y-71666726D01*
X42770795Y-71836244D01*
X42692774Y-72024602D01*
X42653000Y-72224561D01*
X42653000Y-72428439D01*
X42692774Y-72628398D01*
X42770795Y-72816756D01*
X42884063Y-72986274D01*
X42928001Y-73030212D01*
X42928000Y-73788289D01*
X42808488Y-73907801D01*
X42779490Y-73931599D01*
X42755692Y-73960597D01*
X42755691Y-73960598D01*
X42684516Y-74047324D01*
X42613944Y-74179354D01*
X42588572Y-74262999D01*
X42570488Y-74322614D01*
X42563325Y-74395336D01*
X42555814Y-74471600D01*
X42559491Y-74508932D01*
X42559489Y-76762078D01*
X42555813Y-76799401D01*
X42559489Y-76836723D01*
X42559489Y-76836733D01*
X42570486Y-76948386D01*
X42597229Y-77036547D01*
X42561256Y-77123392D01*
X42528783Y-77286647D01*
X42408379Y-77236774D01*
X42208420Y-77197000D01*
X42004542Y-77197000D01*
X41804583Y-77236774D01*
X41616225Y-77314795D01*
X41446707Y-77428063D01*
X41302544Y-77572226D01*
X41189276Y-77741744D01*
X41111255Y-77930102D01*
X41071481Y-78130061D01*
X41071481Y-78333939D01*
X41111255Y-78533898D01*
X41189276Y-78722256D01*
X41302544Y-78891774D01*
X41446707Y-79035937D01*
X41616225Y-79149205D01*
X41804583Y-79227226D01*
X42004542Y-79267000D01*
X42098800Y-79267000D01*
X42195234Y-79318546D01*
X42338495Y-79362003D01*
X42450148Y-79373000D01*
X42450157Y-79373000D01*
X42487480Y-79376676D01*
X42524803Y-79373000D01*
X43676457Y-79373000D01*
X43779863Y-79527759D01*
X43979741Y-79727637D01*
X44212259Y-79883000D01*
X43979741Y-80038363D01*
X43779863Y-80238241D01*
X43622820Y-80473273D01*
X43514647Y-80734426D01*
X43459500Y-81011665D01*
X43459500Y-81294335D01*
X43514647Y-81571574D01*
X43622820Y-81832727D01*
X43779863Y-82067759D01*
X43979741Y-82267637D01*
X44212259Y-82423000D01*
X43979741Y-82578363D01*
X43779863Y-82778241D01*
X43622820Y-83013273D01*
X43514647Y-83274426D01*
X43459500Y-83551665D01*
X43459500Y-83834335D01*
X43514647Y-84111574D01*
X43622820Y-84372727D01*
X43779863Y-84607759D01*
X43979741Y-84807637D01*
X44212259Y-84963000D01*
X43979741Y-85118363D01*
X43779863Y-85318241D01*
X43622820Y-85553273D01*
X43514647Y-85814426D01*
X43459500Y-86091665D01*
X43459500Y-86374335D01*
X43514647Y-86651574D01*
X43622820Y-86912727D01*
X43779863Y-87147759D01*
X43979741Y-87347637D01*
X44212259Y-87503000D01*
X43979741Y-87658363D01*
X43779863Y-87858241D01*
X43622820Y-88093273D01*
X43514647Y-88354426D01*
X43459500Y-88631665D01*
X43459500Y-88914335D01*
X43514647Y-89191574D01*
X43622820Y-89452727D01*
X43779863Y-89687759D01*
X43979741Y-89887637D01*
X44214773Y-90044680D01*
X44475926Y-90152853D01*
X44753165Y-90208000D01*
X45035835Y-90208000D01*
X45313074Y-90152853D01*
X45574227Y-90044680D01*
X45809259Y-89887637D01*
X46009137Y-89687759D01*
X46166180Y-89452727D01*
X46274353Y-89191574D01*
X46329500Y-88914335D01*
X46329500Y-88631665D01*
X46274353Y-88354426D01*
X46166180Y-88093273D01*
X46009137Y-87858241D01*
X45809259Y-87658363D01*
X45576741Y-87503000D01*
X45809259Y-87347637D01*
X46009137Y-87147759D01*
X46166180Y-86912727D01*
X46274353Y-86651574D01*
X46329500Y-86374335D01*
X46329500Y-86091665D01*
X46274353Y-85814426D01*
X46166180Y-85553273D01*
X46009137Y-85318241D01*
X45809259Y-85118363D01*
X45576741Y-84963000D01*
X45809259Y-84807637D01*
X46009137Y-84607759D01*
X46166180Y-84372727D01*
X46274353Y-84111574D01*
X46329500Y-83834335D01*
X46329500Y-83551665D01*
X46274353Y-83274426D01*
X46166180Y-83013273D01*
X46009137Y-82778241D01*
X45809259Y-82578363D01*
X45576741Y-82423000D01*
X45809259Y-82267637D01*
X46009137Y-82067759D01*
X46166180Y-81832727D01*
X46274353Y-81571574D01*
X46329500Y-81294335D01*
X46329500Y-81011665D01*
X46274353Y-80734426D01*
X46166180Y-80473273D01*
X46009137Y-80238241D01*
X45809259Y-80038363D01*
X45576741Y-79883000D01*
X45809259Y-79727637D01*
X46009137Y-79527759D01*
X46166180Y-79292727D01*
X46274353Y-79031574D01*
X46329500Y-78754335D01*
X46329500Y-78567917D01*
X46344281Y-78570857D01*
X46432000Y-78570857D01*
X46432001Y-90755000D01*
X27926500Y-90755000D01*
X27926500Y-70331236D01*
X27989498Y-70408000D01*
X28018501Y-70431803D01*
X28255812Y-70669113D01*
X28219500Y-70851665D01*
X28219500Y-71134335D01*
X28274647Y-71411574D01*
X28382820Y-71672727D01*
X28539863Y-71907759D01*
X28739741Y-72107637D01*
X28972259Y-72263000D01*
X28739741Y-72418363D01*
X28539863Y-72618241D01*
X28382820Y-72853273D01*
X28274647Y-73114426D01*
X28219500Y-73391665D01*
X28219500Y-73674335D01*
X28274647Y-73951574D01*
X28382820Y-74212727D01*
X28539863Y-74447759D01*
X28739741Y-74647637D01*
X28972259Y-74803000D01*
X28739741Y-74958363D01*
X28539863Y-75158241D01*
X28382820Y-75393273D01*
X28274647Y-75654426D01*
X28219500Y-75931665D01*
X28219500Y-76214335D01*
X28274647Y-76491574D01*
X28382820Y-76752727D01*
X28539863Y-76987759D01*
X28739741Y-77187637D01*
X28972259Y-77343000D01*
X28739741Y-77498363D01*
X28539863Y-77698241D01*
X28382820Y-77933273D01*
X28274647Y-78194426D01*
X28219500Y-78471665D01*
X28219500Y-78754335D01*
X28274647Y-79031574D01*
X28382820Y-79292727D01*
X28539863Y-79527759D01*
X28739741Y-79727637D01*
X28972259Y-79883000D01*
X28739741Y-80038363D01*
X28539863Y-80238241D01*
X28382820Y-80473273D01*
X28274647Y-80734426D01*
X28219500Y-81011665D01*
X28219500Y-81294335D01*
X28274647Y-81571574D01*
X28382820Y-81832727D01*
X28539863Y-82067759D01*
X28739741Y-82267637D01*
X28972259Y-82423000D01*
X28739741Y-82578363D01*
X28539863Y-82778241D01*
X28382820Y-83013273D01*
X28274647Y-83274426D01*
X28219500Y-83551665D01*
X28219500Y-83834335D01*
X28274647Y-84111574D01*
X28382820Y-84372727D01*
X28539863Y-84607759D01*
X28739741Y-84807637D01*
X28972259Y-84963000D01*
X28739741Y-85118363D01*
X28539863Y-85318241D01*
X28382820Y-85553273D01*
X28274647Y-85814426D01*
X28219500Y-86091665D01*
X28219500Y-86374335D01*
X28274647Y-86651574D01*
X28382820Y-86912727D01*
X28539863Y-87147759D01*
X28739741Y-87347637D01*
X28972259Y-87503000D01*
X28739741Y-87658363D01*
X28539863Y-87858241D01*
X28382820Y-88093273D01*
X28274647Y-88354426D01*
X28219500Y-88631665D01*
X28219500Y-88914335D01*
X28274647Y-89191574D01*
X28382820Y-89452727D01*
X28539863Y-89687759D01*
X28739741Y-89887637D01*
X28974773Y-90044680D01*
X29235926Y-90152853D01*
X29513165Y-90208000D01*
X29795835Y-90208000D01*
X30073074Y-90152853D01*
X30334227Y-90044680D01*
X30569259Y-89887637D01*
X30769137Y-89687759D01*
X30926180Y-89452727D01*
X31034353Y-89191574D01*
X31089500Y-88914335D01*
X31089500Y-88631665D01*
X31053188Y-88449114D01*
X31290504Y-88211798D01*
X31319502Y-88188000D01*
X31414475Y-88072275D01*
X31485047Y-87940246D01*
X31528504Y-87796985D01*
X31539501Y-87685332D01*
X31539501Y-87685324D01*
X31543177Y-87647999D01*
X31539501Y-87610674D01*
X31539501Y-86059211D01*
X31885521Y-85713192D01*
X31914509Y-85689402D01*
X31938298Y-85660415D01*
X31938308Y-85660405D01*
X32009482Y-85573678D01*
X32080054Y-85441648D01*
X32123511Y-85298388D01*
X32138185Y-85149402D01*
X32134508Y-85112070D01*
X32134510Y-83621291D01*
X32367971Y-83387830D01*
X32396975Y-83364027D01*
X32491948Y-83248302D01*
X32562520Y-83116273D01*
X32605977Y-82973012D01*
X32616974Y-82861359D01*
X32616974Y-82861350D01*
X32620650Y-82824027D01*
X32616974Y-82786704D01*
X32616974Y-81174558D01*
X32640537Y-81150995D01*
X32669530Y-81127201D01*
X32693324Y-81098208D01*
X32693329Y-81098203D01*
X32764503Y-81011476D01*
X32790199Y-80963402D01*
X32835075Y-80879447D01*
X32878532Y-80736186D01*
X32888406Y-80635940D01*
X32893206Y-80587201D01*
X32889529Y-80549869D01*
X32889530Y-79569908D01*
X33090539Y-79368899D01*
X33119537Y-79345101D01*
X33143336Y-79316102D01*
X33214511Y-79229376D01*
X33285083Y-79097347D01*
X33328540Y-78954086D01*
X33343214Y-78805100D01*
X33339536Y-78767758D01*
X33339538Y-76644811D01*
X34721759Y-75262591D01*
X34750746Y-75238802D01*
X34774535Y-75209815D01*
X34774545Y-75209805D01*
X34845719Y-75123078D01*
X34916291Y-74991048D01*
X34959748Y-74847788D01*
X34974422Y-74698802D01*
X34970745Y-74661469D01*
X34970747Y-68085054D01*
X36166591Y-66889211D01*
X36650955Y-66889211D01*
X36688277Y-66892887D01*
X36725599Y-66889211D01*
X36725610Y-66889211D01*
X36837263Y-66878214D01*
X36980524Y-66834757D01*
X37112553Y-66764185D01*
X37228278Y-66669212D01*
X37252081Y-66640208D01*
X38012524Y-65879765D01*
X38151828Y-65937467D01*
X38411911Y-65989200D01*
X38677089Y-65989200D01*
X38937172Y-65937467D01*
X39182165Y-65835987D01*
X39402653Y-65688662D01*
X39590162Y-65501153D01*
X39737487Y-65280665D01*
X39814500Y-65094740D01*
X39891513Y-65280665D01*
G36*
X35069536Y-28814977D02*
G01*
X35093108Y-28869973D01*
X35115897Y-28925265D01*
X35120280Y-28933371D01*
X35281481Y-29226593D01*
X35315268Y-29275938D01*
X35348380Y-29325776D01*
X35354254Y-29332876D01*
X35569338Y-29589203D01*
X35612068Y-29631047D01*
X35654227Y-29673502D01*
X35661369Y-29679326D01*
X35922145Y-29888995D01*
X35972179Y-29921737D01*
X36021790Y-29955200D01*
X36029926Y-29959526D01*
X36326460Y-30114551D01*
X36381925Y-30136960D01*
X36437071Y-30160142D01*
X36445893Y-30162805D01*
X36766891Y-30257279D01*
X36825659Y-30268489D01*
X36884246Y-30280516D01*
X36893417Y-30281415D01*
X37226651Y-30311742D01*
X37286468Y-30311324D01*
X37346286Y-30311742D01*
X37355457Y-30310843D01*
X37688236Y-30275867D01*
X37746871Y-30263831D01*
X37805595Y-30252629D01*
X37814411Y-30249967D01*
X37814415Y-30249966D01*
X37814418Y-30249965D01*
X38134064Y-30151017D01*
X38189207Y-30127837D01*
X38244670Y-30105429D01*
X38252806Y-30101103D01*
X38547147Y-29941953D01*
X38596721Y-29908515D01*
X38646795Y-29875748D01*
X38653936Y-29869923D01*
X38911759Y-29656634D01*
X38953899Y-29614198D01*
X38996649Y-29572335D01*
X39002522Y-29565234D01*
X39214006Y-29305929D01*
X39247076Y-29256154D01*
X39280906Y-29206748D01*
X39285288Y-29198641D01*
X39442379Y-28903197D01*
X39465176Y-28847887D01*
X39488740Y-28792910D01*
X39491465Y-28784107D01*
X39539503Y-28625000D01*
X46432000Y-28625000D01*
X46432001Y-41050843D01*
X46428686Y-41084500D01*
X46441912Y-41218783D01*
X46481081Y-41347906D01*
X46544688Y-41466907D01*
X46630289Y-41571211D01*
X46734593Y-41656812D01*
X46853594Y-41720419D01*
X46982717Y-41759588D01*
X47083353Y-41769500D01*
X47117000Y-41772814D01*
X47150647Y-41769500D01*
X51258000Y-41769500D01*
X51258001Y-67196500D01*
X48862171Y-67196500D01*
X48874226Y-67167398D01*
X48914000Y-66967439D01*
X48914000Y-66763561D01*
X48874226Y-66563602D01*
X48796205Y-66375244D01*
X48682937Y-66205726D01*
X48538774Y-66061563D01*
X48369256Y-65948295D01*
X48223713Y-65888009D01*
X49665513Y-64446209D01*
X49694511Y-64422411D01*
X49789484Y-64306686D01*
X49860056Y-64174657D01*
X49903513Y-64031396D01*
X49914510Y-63919743D01*
X49918187Y-63882410D01*
X49914510Y-63845077D01*
X49914510Y-63501369D01*
X50251703Y-63164177D01*
X50280702Y-63140378D01*
X50375675Y-63024653D01*
X50446247Y-62892624D01*
X50489704Y-62749363D01*
X50500701Y-62637710D01*
X50500701Y-62637701D01*
X50504377Y-62600378D01*
X50500701Y-62563055D01*
X50500701Y-61642946D01*
X50504377Y-61605623D01*
X50500701Y-61568300D01*
X50500701Y-61568290D01*
X50489704Y-61456637D01*
X50446247Y-61313376D01*
X50444695Y-61310472D01*
X50375675Y-61181346D01*
X50304500Y-61094620D01*
X50280702Y-61065622D01*
X50251705Y-61041825D01*
X49690597Y-60480718D01*
X49750162Y-60421153D01*
X49897487Y-60200665D01*
X49998967Y-59955672D01*
X50050700Y-59695589D01*
X50050700Y-59430411D01*
X49998967Y-59170328D01*
X49897487Y-58925335D01*
X49750162Y-58704847D01*
X49562653Y-58517338D01*
X49342165Y-58370013D01*
X49156240Y-58293000D01*
X49342165Y-58215987D01*
X49562653Y-58068662D01*
X49750162Y-57881153D01*
X49897487Y-57660665D01*
X49998967Y-57415672D01*
X50050700Y-57155589D01*
X50050700Y-56890411D01*
X49998967Y-56630328D01*
X49897487Y-56385335D01*
X49750162Y-56164847D01*
X49562653Y-55977338D01*
X49342165Y-55830013D01*
X49156240Y-55753000D01*
X49342165Y-55675987D01*
X49562653Y-55528662D01*
X49750162Y-55341153D01*
X49897487Y-55120665D01*
X49998967Y-54875672D01*
X50050700Y-54615589D01*
X50050700Y-54350411D01*
X49998967Y-54090328D01*
X49897487Y-53845335D01*
X49750162Y-53624847D01*
X49562653Y-53437338D01*
X49342165Y-53290013D01*
X49156240Y-53213000D01*
X49342165Y-53135987D01*
X49562653Y-52988662D01*
X49750162Y-52801153D01*
X49897487Y-52580665D01*
X49998967Y-52335672D01*
X50050700Y-52075589D01*
X50050700Y-51810411D01*
X49998967Y-51550328D01*
X49897487Y-51305335D01*
X49750162Y-51084847D01*
X49562653Y-50897338D01*
X49342165Y-50750013D01*
X49156240Y-50673000D01*
X49342165Y-50595987D01*
X49562653Y-50448662D01*
X49750162Y-50261153D01*
X49897487Y-50040665D01*
X49998967Y-49795672D01*
X50050700Y-49535589D01*
X50050700Y-49270411D01*
X49998967Y-49010328D01*
X49897487Y-48765335D01*
X49750162Y-48544847D01*
X49562653Y-48357338D01*
X49342165Y-48210013D01*
X49156240Y-48133000D01*
X49342165Y-48055987D01*
X49562653Y-47908662D01*
X49750162Y-47721153D01*
X49897487Y-47500665D01*
X49998967Y-47255672D01*
X50050700Y-46995589D01*
X50050700Y-46730411D01*
X49998967Y-46470328D01*
X49897487Y-46225335D01*
X49750162Y-46004847D01*
X49562653Y-45817338D01*
X49342165Y-45670013D01*
X49097172Y-45568533D01*
X48837089Y-45516800D01*
X48571911Y-45516800D01*
X48311828Y-45568533D01*
X48066835Y-45670013D01*
X47846347Y-45817338D01*
X47784588Y-45879097D01*
X47764500Y-45854620D01*
X47740702Y-45825622D01*
X47711703Y-45801824D01*
X47150597Y-45240718D01*
X47210162Y-45181153D01*
X47357487Y-44960665D01*
X47458967Y-44715672D01*
X47510700Y-44455589D01*
X47510700Y-44190411D01*
X47458967Y-43930328D01*
X47357487Y-43685335D01*
X47210162Y-43464847D01*
X47022653Y-43277338D01*
X46802165Y-43130013D01*
X46557172Y-43028533D01*
X46329500Y-42983247D01*
X46329500Y-42911665D01*
X46274353Y-42634426D01*
X46166180Y-42373273D01*
X46009137Y-42138241D01*
X45809259Y-41938363D01*
X45576741Y-41783000D01*
X45809259Y-41627637D01*
X46009137Y-41427759D01*
X46166180Y-41192727D01*
X46274353Y-40931574D01*
X46329500Y-40654335D01*
X46329500Y-40371665D01*
X46274353Y-40094426D01*
X46166180Y-39833273D01*
X46009137Y-39598241D01*
X45809259Y-39398363D01*
X45576741Y-39243000D01*
X45809259Y-39087637D01*
X46009137Y-38887759D01*
X46166180Y-38652727D01*
X46274353Y-38391574D01*
X46329500Y-38114335D01*
X46329500Y-37831665D01*
X46274353Y-37554426D01*
X46166180Y-37293273D01*
X46009137Y-37058241D01*
X45809259Y-36858363D01*
X45576741Y-36703000D01*
X45809259Y-36547637D01*
X46009137Y-36347759D01*
X46166180Y-36112727D01*
X46274353Y-35851574D01*
X46329500Y-35574335D01*
X46329500Y-35291665D01*
X46274353Y-35014426D01*
X46166180Y-34753273D01*
X46009137Y-34518241D01*
X45809259Y-34318363D01*
X45576741Y-34163000D01*
X45809259Y-34007637D01*
X46009137Y-33807759D01*
X46166180Y-33572727D01*
X46274353Y-33311574D01*
X46329500Y-33034335D01*
X46329500Y-32751665D01*
X46274353Y-32474426D01*
X46166180Y-32213273D01*
X46009137Y-31978241D01*
X45809259Y-31778363D01*
X45576741Y-31623000D01*
X45809259Y-31467637D01*
X46009137Y-31267759D01*
X46166180Y-31032727D01*
X46274353Y-30771574D01*
X46329500Y-30494335D01*
X46329500Y-30211665D01*
X46274353Y-29934426D01*
X46166180Y-29673273D01*
X46009137Y-29438241D01*
X45809259Y-29238363D01*
X45574227Y-29081320D01*
X45313074Y-28973147D01*
X45035835Y-28918000D01*
X44753165Y-28918000D01*
X44475926Y-28973147D01*
X44214773Y-29081320D01*
X43979741Y-29238363D01*
X43779863Y-29438241D01*
X43622820Y-29673273D01*
X43514647Y-29934426D01*
X43459500Y-30211665D01*
X43459500Y-30494335D01*
X43514647Y-30771574D01*
X43622820Y-31032727D01*
X43779863Y-31267759D01*
X43979741Y-31467637D01*
X44212259Y-31623000D01*
X43979741Y-31778363D01*
X43779863Y-31978241D01*
X43622820Y-32213273D01*
X43514647Y-32474426D01*
X43459500Y-32751665D01*
X43459500Y-33034335D01*
X43514647Y-33311574D01*
X43622820Y-33572727D01*
X43779863Y-33807759D01*
X43979741Y-34007637D01*
X44212259Y-34163000D01*
X43979741Y-34318363D01*
X43779863Y-34518241D01*
X43622820Y-34753273D01*
X43514647Y-35014426D01*
X43459500Y-35291665D01*
X43459500Y-35574335D01*
X43514647Y-35851574D01*
X43622820Y-36112727D01*
X43779863Y-36347759D01*
X43979741Y-36547637D01*
X44212259Y-36703000D01*
X43979741Y-36858363D01*
X43779863Y-37058241D01*
X43622820Y-37293273D01*
X43514647Y-37554426D01*
X43459500Y-37831665D01*
X43459500Y-38114335D01*
X43514647Y-38391574D01*
X43622820Y-38652727D01*
X43779863Y-38887759D01*
X43979741Y-39087637D01*
X44212259Y-39243000D01*
X43979741Y-39398363D01*
X43779863Y-39598241D01*
X43622820Y-39833273D01*
X43514647Y-40094426D01*
X43459500Y-40371665D01*
X43459500Y-40654335D01*
X43514647Y-40931574D01*
X43622820Y-41192727D01*
X43779863Y-41427759D01*
X43979741Y-41627637D01*
X44212259Y-41783000D01*
X43979741Y-41938363D01*
X43779863Y-42138241D01*
X43622820Y-42373273D01*
X43514647Y-42634426D01*
X43459500Y-42911665D01*
X43459500Y-42983247D01*
X43231828Y-43028533D01*
X42986835Y-43130013D01*
X42766347Y-43277338D01*
X42578838Y-43464847D01*
X42431513Y-43685335D01*
X42354500Y-43871260D01*
X42277487Y-43685335D01*
X42130162Y-43464847D01*
X41942653Y-43277338D01*
X41722165Y-43130013D01*
X41477172Y-43028533D01*
X41217089Y-42976800D01*
X40951911Y-42976800D01*
X40691828Y-43028533D01*
X40446835Y-43130013D01*
X40226347Y-43277338D01*
X40038838Y-43464847D01*
X39893772Y-43681954D01*
X39893772Y-43611800D01*
X39881512Y-43487318D01*
X39845202Y-43367620D01*
X39786237Y-43257306D01*
X39706885Y-43160615D01*
X39610194Y-43081263D01*
X39499880Y-43022298D01*
X39380182Y-42985988D01*
X39255700Y-42973728D01*
X37833300Y-42973728D01*
X37708818Y-42985988D01*
X37589120Y-43022298D01*
X37478806Y-43081263D01*
X37382115Y-43160615D01*
X37302763Y-43257306D01*
X37243798Y-43367620D01*
X37207488Y-43487318D01*
X37195228Y-43611800D01*
X37195228Y-43681954D01*
X37050162Y-43464847D01*
X36862653Y-43277338D01*
X36642165Y-43130013D01*
X36397172Y-43028533D01*
X36137089Y-42976800D01*
X35871911Y-42976800D01*
X35611828Y-43028533D01*
X35366835Y-43130013D01*
X35146347Y-43277338D01*
X34958838Y-43464847D01*
X34811513Y-43685335D01*
X34734500Y-43871260D01*
X34657487Y-43685335D01*
X34510162Y-43464847D01*
X34322653Y-43277338D01*
X34102165Y-43130013D01*
X33857172Y-43028533D01*
X33597089Y-42976800D01*
X33331911Y-42976800D01*
X33071828Y-43028533D01*
X32826835Y-43130013D01*
X32606347Y-43277338D01*
X32418838Y-43464847D01*
X32271513Y-43685335D01*
X32194500Y-43871260D01*
X32117487Y-43685335D01*
X31970162Y-43464847D01*
X31782653Y-43277338D01*
X31562165Y-43130013D01*
X31317172Y-43028533D01*
X31089500Y-42983247D01*
X31089500Y-42911665D01*
X31034353Y-42634426D01*
X30926180Y-42373273D01*
X30769137Y-42138241D01*
X30569259Y-41938363D01*
X30336741Y-41783000D01*
X30569259Y-41627637D01*
X30769137Y-41427759D01*
X30926180Y-41192727D01*
X31034353Y-40931574D01*
X31089500Y-40654335D01*
X31089500Y-40371665D01*
X31034353Y-40094426D01*
X30926180Y-39833273D01*
X30769137Y-39598241D01*
X30569259Y-39398363D01*
X30336741Y-39243000D01*
X30569259Y-39087637D01*
X30769137Y-38887759D01*
X30926180Y-38652727D01*
X31034353Y-38391574D01*
X31089500Y-38114335D01*
X31089500Y-37831665D01*
X31034353Y-37554426D01*
X30926180Y-37293273D01*
X30769137Y-37058241D01*
X30569259Y-36858363D01*
X30336741Y-36703000D01*
X30569259Y-36547637D01*
X30769137Y-36347759D01*
X30926180Y-36112727D01*
X31034353Y-35851574D01*
X31089500Y-35574335D01*
X31089500Y-35291665D01*
X31034353Y-35014426D01*
X30926180Y-34753273D01*
X30769137Y-34518241D01*
X30569259Y-34318363D01*
X30336741Y-34163000D01*
X30569259Y-34007637D01*
X30769137Y-33807759D01*
X30926180Y-33572727D01*
X31034353Y-33311574D01*
X31089500Y-33034335D01*
X31089500Y-32751665D01*
X31034353Y-32474426D01*
X30926180Y-32213273D01*
X30769137Y-31978241D01*
X30570539Y-31779643D01*
X30578982Y-31778812D01*
X30698680Y-31742502D01*
X30808994Y-31683537D01*
X30905685Y-31604185D01*
X30985037Y-31507494D01*
X31044002Y-31397180D01*
X31080312Y-31277482D01*
X31092572Y-31153000D01*
X31092572Y-29553000D01*
X31080312Y-29428518D01*
X31044002Y-29308820D01*
X30985037Y-29198506D01*
X30905685Y-29101815D01*
X30808994Y-29022463D01*
X30698680Y-28963498D01*
X30578982Y-28927188D01*
X30454500Y-28914928D01*
X28854500Y-28914928D01*
X28730018Y-28927188D01*
X28610320Y-28963498D01*
X28500006Y-29022463D01*
X28403315Y-29101815D01*
X28323963Y-29198506D01*
X28264998Y-29308820D01*
X28228688Y-29428518D01*
X28216428Y-29553000D01*
X28216428Y-31153000D01*
X28228688Y-31277482D01*
X28264998Y-31397180D01*
X28323963Y-31507494D01*
X28403315Y-31604185D01*
X28500006Y-31683537D01*
X28610320Y-31742502D01*
X28730018Y-31778812D01*
X28738461Y-31779643D01*
X28539863Y-31978241D01*
X28382820Y-32213273D01*
X28274647Y-32474426D01*
X28219500Y-32751665D01*
X28219500Y-33034335D01*
X28274647Y-33311574D01*
X28382820Y-33572727D01*
X28539863Y-33807759D01*
X28739741Y-34007637D01*
X28972259Y-34163000D01*
X28739741Y-34318363D01*
X28539863Y-34518241D01*
X28382820Y-34753273D01*
X28274647Y-35014426D01*
X28219500Y-35291665D01*
X28219500Y-35574335D01*
X28274647Y-35851574D01*
X28382820Y-36112727D01*
X28539863Y-36347759D01*
X28739741Y-36547637D01*
X28972259Y-36703000D01*
X28739741Y-36858363D01*
X28539863Y-37058241D01*
X28382820Y-37293273D01*
X28274647Y-37554426D01*
X28219500Y-37831665D01*
X28219500Y-38114335D01*
X28274647Y-38391574D01*
X28382820Y-38652727D01*
X28539863Y-38887759D01*
X28739741Y-39087637D01*
X28972259Y-39243000D01*
X28739741Y-39398363D01*
X28539863Y-39598241D01*
X28382820Y-39833273D01*
X28274647Y-40094426D01*
X28219500Y-40371665D01*
X28219500Y-40654335D01*
X28274647Y-40931574D01*
X28382820Y-41192727D01*
X28539863Y-41427759D01*
X28739741Y-41627637D01*
X28972259Y-41783000D01*
X28739741Y-41938363D01*
X28539863Y-42138241D01*
X28382820Y-42373273D01*
X28274647Y-42634426D01*
X28219500Y-42911665D01*
X28219500Y-43194335D01*
X28274647Y-43471574D01*
X28382820Y-43732727D01*
X28539863Y-43967759D01*
X28739741Y-44167637D01*
X28972259Y-44323000D01*
X28739741Y-44478363D01*
X28539863Y-44678241D01*
X28382820Y-44913273D01*
X28274647Y-45174426D01*
X28219500Y-45451665D01*
X28219500Y-45526335D01*
X28048387Y-45552709D01*
X27799220Y-45643458D01*
X27695652Y-45698817D01*
X27634832Y-45933727D01*
X28384500Y-46683395D01*
X28398643Y-46669253D01*
X28578248Y-46848858D01*
X28564105Y-46863000D01*
X28578248Y-46877143D01*
X28398643Y-47056748D01*
X28384500Y-47042605D01*
X27634832Y-47792273D01*
X27695652Y-48027183D01*
X27927434Y-48135206D01*
X27746835Y-48210013D01*
X27526347Y-48357338D01*
X27338838Y-48544847D01*
X27191513Y-48765335D01*
X27090033Y-49010328D01*
X27038300Y-49270411D01*
X27038300Y-49535589D01*
X27090033Y-49795672D01*
X27191513Y-50040665D01*
X27338838Y-50261153D01*
X27526347Y-50448662D01*
X27746835Y-50595987D01*
X27932760Y-50673000D01*
X27746835Y-50750013D01*
X27526347Y-50897338D01*
X27338838Y-51084847D01*
X27191513Y-51305335D01*
X27090033Y-51550328D01*
X27038300Y-51810411D01*
X27038300Y-52075589D01*
X27061330Y-52191369D01*
X26837297Y-52415402D01*
X26808299Y-52439200D01*
X26784501Y-52468198D01*
X26784500Y-52468199D01*
X26713325Y-52554925D01*
X26642753Y-52686955D01*
X26599297Y-52830216D01*
X26584623Y-52979201D01*
X26588300Y-53016533D01*
X26588299Y-57483054D01*
X26584623Y-57520377D01*
X26588299Y-57557699D01*
X26588299Y-57557709D01*
X26599296Y-57669362D01*
X26624667Y-57752999D01*
X26642753Y-57812623D01*
X26713325Y-57944653D01*
X26753170Y-57993203D01*
X26808298Y-58060378D01*
X26837301Y-58084180D01*
X27398403Y-58645282D01*
X27338838Y-58704847D01*
X27191513Y-58925335D01*
X27090033Y-59170328D01*
X27038300Y-59430411D01*
X27038300Y-59695589D01*
X27090033Y-59955672D01*
X27191513Y-60200665D01*
X27338838Y-60421153D01*
X27526347Y-60608662D01*
X27746835Y-60755987D01*
X27932760Y-60833000D01*
X27746835Y-60910013D01*
X27526347Y-61057338D01*
X27338838Y-61244847D01*
X27191513Y-61465335D01*
X27090033Y-61710328D01*
X27038300Y-61970411D01*
X27038300Y-62235589D01*
X27090033Y-62495672D01*
X27191513Y-62740665D01*
X27338838Y-62961153D01*
X27526347Y-63148662D01*
X27746835Y-63295987D01*
X27769500Y-63305375D01*
X27769499Y-67445098D01*
X27728211Y-67394789D01*
X27623907Y-67309188D01*
X27504906Y-67245581D01*
X27375783Y-67206412D01*
X27275147Y-67196500D01*
X27241500Y-67193186D01*
X27207853Y-67196500D01*
X25831000Y-67196500D01*
X25831000Y-46937030D01*
X27033813Y-46937030D01*
X27074209Y-47199113D01*
X27164958Y-47448280D01*
X27220317Y-47551848D01*
X27455227Y-47612668D01*
X28204895Y-46863000D01*
X27455227Y-46113332D01*
X27220317Y-46174152D01*
X27108298Y-46414509D01*
X27045324Y-46672102D01*
X27033813Y-46937030D01*
X25831000Y-46937030D01*
X25831000Y-42711111D01*
X26817451Y-41769500D01*
X27461853Y-41769500D01*
X27495500Y-41772814D01*
X27529147Y-41769500D01*
X27629783Y-41759588D01*
X27758906Y-41720419D01*
X27877907Y-41656812D01*
X27982211Y-41571211D01*
X28067812Y-41466907D01*
X28131419Y-41347906D01*
X28170588Y-41218783D01*
X28183814Y-41084500D01*
X28180500Y-41050853D01*
X28180500Y-28625000D01*
X35009272Y-28625000D01*
X35069536Y-28814977D01*
G37*
X35069536Y-28814977D02*
X35093108Y-28869973D01*
X35115897Y-28925265D01*
X35120280Y-28933371D01*
X35281481Y-29226593D01*
X35315268Y-29275938D01*
X35348380Y-29325776D01*
X35354254Y-29332876D01*
X35569338Y-29589203D01*
X35612068Y-29631047D01*
X35654227Y-29673502D01*
X35661369Y-29679326D01*
X35922145Y-29888995D01*
X35972179Y-29921737D01*
X36021790Y-29955200D01*
X36029926Y-29959526D01*
X36326460Y-30114551D01*
X36381925Y-30136960D01*
X36437071Y-30160142D01*
X36445893Y-30162805D01*
X36766891Y-30257279D01*
X36825659Y-30268489D01*
X36884246Y-30280516D01*
X36893417Y-30281415D01*
X37226651Y-30311742D01*
X37286468Y-30311324D01*
X37346286Y-30311742D01*
X37355457Y-30310843D01*
X37688236Y-30275867D01*
X37746871Y-30263831D01*
X37805595Y-30252629D01*
X37814411Y-30249967D01*
X37814415Y-30249966D01*
X37814418Y-30249965D01*
X38134064Y-30151017D01*
X38189207Y-30127837D01*
X38244670Y-30105429D01*
X38252806Y-30101103D01*
X38547147Y-29941953D01*
X38596721Y-29908515D01*
X38646795Y-29875748D01*
X38653936Y-29869923D01*
X38911759Y-29656634D01*
X38953899Y-29614198D01*
X38996649Y-29572335D01*
X39002522Y-29565234D01*
X39214006Y-29305929D01*
X39247076Y-29256154D01*
X39280906Y-29206748D01*
X39285288Y-29198641D01*
X39442379Y-28903197D01*
X39465176Y-28847887D01*
X39488740Y-28792910D01*
X39491465Y-28784107D01*
X39539503Y-28625000D01*
X46432000Y-28625000D01*
X46432001Y-41050843D01*
X46428686Y-41084500D01*
X46441912Y-41218783D01*
X46481081Y-41347906D01*
X46544688Y-41466907D01*
X46630289Y-41571211D01*
X46734593Y-41656812D01*
X46853594Y-41720419D01*
X46982717Y-41759588D01*
X47083353Y-41769500D01*
X47117000Y-41772814D01*
X47150647Y-41769500D01*
X51258000Y-41769500D01*
X51258001Y-67196500D01*
X48862171Y-67196500D01*
X48874226Y-67167398D01*
X48914000Y-66967439D01*
X48914000Y-66763561D01*
X48874226Y-66563602D01*
X48796205Y-66375244D01*
X48682937Y-66205726D01*
X48538774Y-66061563D01*
X48369256Y-65948295D01*
X48223713Y-65888009D01*
X49665513Y-64446209D01*
X49694511Y-64422411D01*
X49789484Y-64306686D01*
X49860056Y-64174657D01*
X49903513Y-64031396D01*
X49914510Y-63919743D01*
X49918187Y-63882410D01*
X49914510Y-63845077D01*
X49914510Y-63501369D01*
X50251703Y-63164177D01*
X50280702Y-63140378D01*
X50375675Y-63024653D01*
X50446247Y-62892624D01*
X50489704Y-62749363D01*
X50500701Y-62637710D01*
X50500701Y-62637701D01*
X50504377Y-62600378D01*
X50500701Y-62563055D01*
X50500701Y-61642946D01*
X50504377Y-61605623D01*
X50500701Y-61568300D01*
X50500701Y-61568290D01*
X50489704Y-61456637D01*
X50446247Y-61313376D01*
X50444695Y-61310472D01*
X50375675Y-61181346D01*
X50304500Y-61094620D01*
X50280702Y-61065622D01*
X50251705Y-61041825D01*
X49690597Y-60480718D01*
X49750162Y-60421153D01*
X49897487Y-60200665D01*
X49998967Y-59955672D01*
X50050700Y-59695589D01*
X50050700Y-59430411D01*
X49998967Y-59170328D01*
X49897487Y-58925335D01*
X49750162Y-58704847D01*
X49562653Y-58517338D01*
X49342165Y-58370013D01*
X49156240Y-58293000D01*
X49342165Y-58215987D01*
X49562653Y-58068662D01*
X49750162Y-57881153D01*
X49897487Y-57660665D01*
X49998967Y-57415672D01*
X50050700Y-57155589D01*
X50050700Y-56890411D01*
X49998967Y-56630328D01*
X49897487Y-56385335D01*
X49750162Y-56164847D01*
X49562653Y-55977338D01*
X49342165Y-55830013D01*
X49156240Y-55753000D01*
X49342165Y-55675987D01*
X49562653Y-55528662D01*
X49750162Y-55341153D01*
X49897487Y-55120665D01*
X49998967Y-54875672D01*
X50050700Y-54615589D01*
X50050700Y-54350411D01*
X49998967Y-54090328D01*
X49897487Y-53845335D01*
X49750162Y-53624847D01*
X49562653Y-53437338D01*
X49342165Y-53290013D01*
X49156240Y-53213000D01*
X49342165Y-53135987D01*
X49562653Y-52988662D01*
X49750162Y-52801153D01*
X49897487Y-52580665D01*
X49998967Y-52335672D01*
X50050700Y-52075589D01*
X50050700Y-51810411D01*
X49998967Y-51550328D01*
X49897487Y-51305335D01*
X49750162Y-51084847D01*
X49562653Y-50897338D01*
X49342165Y-50750013D01*
X49156240Y-50673000D01*
X49342165Y-50595987D01*
X49562653Y-50448662D01*
X49750162Y-50261153D01*
X49897487Y-50040665D01*
X49998967Y-49795672D01*
X50050700Y-49535589D01*
X50050700Y-49270411D01*
X49998967Y-49010328D01*
X49897487Y-48765335D01*
X49750162Y-48544847D01*
X49562653Y-48357338D01*
X49342165Y-48210013D01*
X49156240Y-48133000D01*
X49342165Y-48055987D01*
X49562653Y-47908662D01*
X49750162Y-47721153D01*
X49897487Y-47500665D01*
X49998967Y-47255672D01*
X50050700Y-46995589D01*
X50050700Y-46730411D01*
X49998967Y-46470328D01*
X49897487Y-46225335D01*
X49750162Y-46004847D01*
X49562653Y-45817338D01*
X49342165Y-45670013D01*
X49097172Y-45568533D01*
X48837089Y-45516800D01*
X48571911Y-45516800D01*
X48311828Y-45568533D01*
X48066835Y-45670013D01*
X47846347Y-45817338D01*
X47784588Y-45879097D01*
X47764500Y-45854620D01*
X47740702Y-45825622D01*
X47711703Y-45801824D01*
X47150597Y-45240718D01*
X47210162Y-45181153D01*
X47357487Y-44960665D01*
X47458967Y-44715672D01*
X47510700Y-44455589D01*
X47510700Y-44190411D01*
X47458967Y-43930328D01*
X47357487Y-43685335D01*
X47210162Y-43464847D01*
X47022653Y-43277338D01*
X46802165Y-43130013D01*
X46557172Y-43028533D01*
X46329500Y-42983247D01*
X46329500Y-42911665D01*
X46274353Y-42634426D01*
X46166180Y-42373273D01*
X46009137Y-42138241D01*
X45809259Y-41938363D01*
X45576741Y-41783000D01*
X45809259Y-41627637D01*
X46009137Y-41427759D01*
X46166180Y-41192727D01*
X46274353Y-40931574D01*
X46329500Y-40654335D01*
X46329500Y-40371665D01*
X46274353Y-40094426D01*
X46166180Y-39833273D01*
X46009137Y-39598241D01*
X45809259Y-39398363D01*
X45576741Y-39243000D01*
X45809259Y-39087637D01*
X46009137Y-38887759D01*
X46166180Y-38652727D01*
X46274353Y-38391574D01*
X46329500Y-38114335D01*
X46329500Y-37831665D01*
X46274353Y-37554426D01*
X46166180Y-37293273D01*
X46009137Y-37058241D01*
X45809259Y-36858363D01*
X45576741Y-36703000D01*
X45809259Y-36547637D01*
X46009137Y-36347759D01*
X46166180Y-36112727D01*
X46274353Y-35851574D01*
X46329500Y-35574335D01*
X46329500Y-35291665D01*
X46274353Y-35014426D01*
X46166180Y-34753273D01*
X46009137Y-34518241D01*
X45809259Y-34318363D01*
X45576741Y-34163000D01*
X45809259Y-34007637D01*
X46009137Y-33807759D01*
X46166180Y-33572727D01*
X46274353Y-33311574D01*
X46329500Y-33034335D01*
X46329500Y-32751665D01*
X46274353Y-32474426D01*
X46166180Y-32213273D01*
X46009137Y-31978241D01*
X45809259Y-31778363D01*
X45576741Y-31623000D01*
X45809259Y-31467637D01*
X46009137Y-31267759D01*
X46166180Y-31032727D01*
X46274353Y-30771574D01*
X46329500Y-30494335D01*
X46329500Y-30211665D01*
X46274353Y-29934426D01*
X46166180Y-29673273D01*
X46009137Y-29438241D01*
X45809259Y-29238363D01*
X45574227Y-29081320D01*
X45313074Y-28973147D01*
X45035835Y-28918000D01*
X44753165Y-28918000D01*
X44475926Y-28973147D01*
X44214773Y-29081320D01*
X43979741Y-29238363D01*
X43779863Y-29438241D01*
X43622820Y-29673273D01*
X43514647Y-29934426D01*
X43459500Y-30211665D01*
X43459500Y-30494335D01*
X43514647Y-30771574D01*
X43622820Y-31032727D01*
X43779863Y-31267759D01*
X43979741Y-31467637D01*
X44212259Y-31623000D01*
X43979741Y-31778363D01*
X43779863Y-31978241D01*
X43622820Y-32213273D01*
X43514647Y-32474426D01*
X43459500Y-32751665D01*
X43459500Y-33034335D01*
X43514647Y-33311574D01*
X43622820Y-33572727D01*
X43779863Y-33807759D01*
X43979741Y-34007637D01*
X44212259Y-34163000D01*
X43979741Y-34318363D01*
X43779863Y-34518241D01*
X43622820Y-34753273D01*
X43514647Y-35014426D01*
X43459500Y-35291665D01*
X43459500Y-35574335D01*
X43514647Y-35851574D01*
X43622820Y-36112727D01*
X43779863Y-36347759D01*
X43979741Y-36547637D01*
X44212259Y-36703000D01*
X43979741Y-36858363D01*
X43779863Y-37058241D01*
X43622820Y-37293273D01*
X43514647Y-37554426D01*
X43459500Y-37831665D01*
X43459500Y-38114335D01*
X43514647Y-38391574D01*
X43622820Y-38652727D01*
X43779863Y-38887759D01*
X43979741Y-39087637D01*
X44212259Y-39243000D01*
X43979741Y-39398363D01*
X43779863Y-39598241D01*
X43622820Y-39833273D01*
X43514647Y-40094426D01*
X43459500Y-40371665D01*
X43459500Y-40654335D01*
X43514647Y-40931574D01*
X43622820Y-41192727D01*
X43779863Y-41427759D01*
X43979741Y-41627637D01*
X44212259Y-41783000D01*
X43979741Y-41938363D01*
X43779863Y-42138241D01*
X43622820Y-42373273D01*
X43514647Y-42634426D01*
X43459500Y-42911665D01*
X43459500Y-42983247D01*
X43231828Y-43028533D01*
X42986835Y-43130013D01*
X42766347Y-43277338D01*
X42578838Y-43464847D01*
X42431513Y-43685335D01*
X42354500Y-43871260D01*
X42277487Y-43685335D01*
X42130162Y-43464847D01*
X41942653Y-43277338D01*
X41722165Y-43130013D01*
X41477172Y-43028533D01*
X41217089Y-42976800D01*
X40951911Y-42976800D01*
X40691828Y-43028533D01*
X40446835Y-43130013D01*
X40226347Y-43277338D01*
X40038838Y-43464847D01*
X39893772Y-43681954D01*
X39893772Y-43611800D01*
X39881512Y-43487318D01*
X39845202Y-43367620D01*
X39786237Y-43257306D01*
X39706885Y-43160615D01*
X39610194Y-43081263D01*
X39499880Y-43022298D01*
X39380182Y-42985988D01*
X39255700Y-42973728D01*
X37833300Y-42973728D01*
X37708818Y-42985988D01*
X37589120Y-43022298D01*
X37478806Y-43081263D01*
X37382115Y-43160615D01*
X37302763Y-43257306D01*
X37243798Y-43367620D01*
X37207488Y-43487318D01*
X37195228Y-43611800D01*
X37195228Y-43681954D01*
X37050162Y-43464847D01*
X36862653Y-43277338D01*
X36642165Y-43130013D01*
X36397172Y-43028533D01*
X36137089Y-42976800D01*
X35871911Y-42976800D01*
X35611828Y-43028533D01*
X35366835Y-43130013D01*
X35146347Y-43277338D01*
X34958838Y-43464847D01*
X34811513Y-43685335D01*
X34734500Y-43871260D01*
X34657487Y-43685335D01*
X34510162Y-43464847D01*
X34322653Y-43277338D01*
X34102165Y-43130013D01*
X33857172Y-43028533D01*
X33597089Y-42976800D01*
X33331911Y-42976800D01*
X33071828Y-43028533D01*
X32826835Y-43130013D01*
X32606347Y-43277338D01*
X32418838Y-43464847D01*
X32271513Y-43685335D01*
X32194500Y-43871260D01*
X32117487Y-43685335D01*
X31970162Y-43464847D01*
X31782653Y-43277338D01*
X31562165Y-43130013D01*
X31317172Y-43028533D01*
X31089500Y-42983247D01*
X31089500Y-42911665D01*
X31034353Y-42634426D01*
X30926180Y-42373273D01*
X30769137Y-42138241D01*
X30569259Y-41938363D01*
X30336741Y-41783000D01*
X30569259Y-41627637D01*
X30769137Y-41427759D01*
X30926180Y-41192727D01*
X31034353Y-40931574D01*
X31089500Y-40654335D01*
X31089500Y-40371665D01*
X31034353Y-40094426D01*
X30926180Y-39833273D01*
X30769137Y-39598241D01*
X30569259Y-39398363D01*
X30336741Y-39243000D01*
X30569259Y-39087637D01*
X30769137Y-38887759D01*
X30926180Y-38652727D01*
X31034353Y-38391574D01*
X31089500Y-38114335D01*
X31089500Y-37831665D01*
X31034353Y-37554426D01*
X30926180Y-37293273D01*
X30769137Y-37058241D01*
X30569259Y-36858363D01*
X30336741Y-36703000D01*
X30569259Y-36547637D01*
X30769137Y-36347759D01*
X30926180Y-36112727D01*
X31034353Y-35851574D01*
X31089500Y-35574335D01*
X31089500Y-35291665D01*
X31034353Y-35014426D01*
X30926180Y-34753273D01*
X30769137Y-34518241D01*
X30569259Y-34318363D01*
X30336741Y-34163000D01*
X30569259Y-34007637D01*
X30769137Y-33807759D01*
X30926180Y-33572727D01*
X31034353Y-33311574D01*
X31089500Y-33034335D01*
X31089500Y-32751665D01*
X31034353Y-32474426D01*
X30926180Y-32213273D01*
X30769137Y-31978241D01*
X30570539Y-31779643D01*
X30578982Y-31778812D01*
X30698680Y-31742502D01*
X30808994Y-31683537D01*
X30905685Y-31604185D01*
X30985037Y-31507494D01*
X31044002Y-31397180D01*
X31080312Y-31277482D01*
X31092572Y-31153000D01*
X31092572Y-29553000D01*
X31080312Y-29428518D01*
X31044002Y-29308820D01*
X30985037Y-29198506D01*
X30905685Y-29101815D01*
X30808994Y-29022463D01*
X30698680Y-28963498D01*
X30578982Y-28927188D01*
X30454500Y-28914928D01*
X28854500Y-28914928D01*
X28730018Y-28927188D01*
X28610320Y-28963498D01*
X28500006Y-29022463D01*
X28403315Y-29101815D01*
X28323963Y-29198506D01*
X28264998Y-29308820D01*
X28228688Y-29428518D01*
X28216428Y-29553000D01*
X28216428Y-31153000D01*
X28228688Y-31277482D01*
X28264998Y-31397180D01*
X28323963Y-31507494D01*
X28403315Y-31604185D01*
X28500006Y-31683537D01*
X28610320Y-31742502D01*
X28730018Y-31778812D01*
X28738461Y-31779643D01*
X28539863Y-31978241D01*
X28382820Y-32213273D01*
X28274647Y-32474426D01*
X28219500Y-32751665D01*
X28219500Y-33034335D01*
X28274647Y-33311574D01*
X28382820Y-33572727D01*
X28539863Y-33807759D01*
X28739741Y-34007637D01*
X28972259Y-34163000D01*
X28739741Y-34318363D01*
X28539863Y-34518241D01*
X28382820Y-34753273D01*
X28274647Y-35014426D01*
X28219500Y-35291665D01*
X28219500Y-35574335D01*
X28274647Y-35851574D01*
X28382820Y-36112727D01*
X28539863Y-36347759D01*
X28739741Y-36547637D01*
X28972259Y-36703000D01*
X28739741Y-36858363D01*
X28539863Y-37058241D01*
X28382820Y-37293273D01*
X28274647Y-37554426D01*
X28219500Y-37831665D01*
X28219500Y-38114335D01*
X28274647Y-38391574D01*
X28382820Y-38652727D01*
X28539863Y-38887759D01*
X28739741Y-39087637D01*
X28972259Y-39243000D01*
X28739741Y-39398363D01*
X28539863Y-39598241D01*
X28382820Y-39833273D01*
X28274647Y-40094426D01*
X28219500Y-40371665D01*
X28219500Y-40654335D01*
X28274647Y-40931574D01*
X28382820Y-41192727D01*
X28539863Y-41427759D01*
X28739741Y-41627637D01*
X28972259Y-41783000D01*
X28739741Y-41938363D01*
X28539863Y-42138241D01*
X28382820Y-42373273D01*
X28274647Y-42634426D01*
X28219500Y-42911665D01*
X28219500Y-43194335D01*
X28274647Y-43471574D01*
X28382820Y-43732727D01*
X28539863Y-43967759D01*
X28739741Y-44167637D01*
X28972259Y-44323000D01*
X28739741Y-44478363D01*
X28539863Y-44678241D01*
X28382820Y-44913273D01*
X28274647Y-45174426D01*
X28219500Y-45451665D01*
X28219500Y-45526335D01*
X28048387Y-45552709D01*
X27799220Y-45643458D01*
X27695652Y-45698817D01*
X27634832Y-45933727D01*
X28384500Y-46683395D01*
X28398643Y-46669253D01*
X28578248Y-46848858D01*
X28564105Y-46863000D01*
X28578248Y-46877143D01*
X28398643Y-47056748D01*
X28384500Y-47042605D01*
X27634832Y-47792273D01*
X27695652Y-48027183D01*
X27927434Y-48135206D01*
X27746835Y-48210013D01*
X27526347Y-48357338D01*
X27338838Y-48544847D01*
X27191513Y-48765335D01*
X27090033Y-49010328D01*
X27038300Y-49270411D01*
X27038300Y-49535589D01*
X27090033Y-49795672D01*
X27191513Y-50040665D01*
X27338838Y-50261153D01*
X27526347Y-50448662D01*
X27746835Y-50595987D01*
X27932760Y-50673000D01*
X27746835Y-50750013D01*
X27526347Y-50897338D01*
X27338838Y-51084847D01*
X27191513Y-51305335D01*
X27090033Y-51550328D01*
X27038300Y-51810411D01*
X27038300Y-52075589D01*
X27061330Y-52191369D01*
X26837297Y-52415402D01*
X26808299Y-52439200D01*
X26784501Y-52468198D01*
X26784500Y-52468199D01*
X26713325Y-52554925D01*
X26642753Y-52686955D01*
X26599297Y-52830216D01*
X26584623Y-52979201D01*
X26588300Y-53016533D01*
X26588299Y-57483054D01*
X26584623Y-57520377D01*
X26588299Y-57557699D01*
X26588299Y-57557709D01*
X26599296Y-57669362D01*
X26624667Y-57752999D01*
X26642753Y-57812623D01*
X26713325Y-57944653D01*
X26753170Y-57993203D01*
X26808298Y-58060378D01*
X26837301Y-58084180D01*
X27398403Y-58645282D01*
X27338838Y-58704847D01*
X27191513Y-58925335D01*
X27090033Y-59170328D01*
X27038300Y-59430411D01*
X27038300Y-59695589D01*
X27090033Y-59955672D01*
X27191513Y-60200665D01*
X27338838Y-60421153D01*
X27526347Y-60608662D01*
X27746835Y-60755987D01*
X27932760Y-60833000D01*
X27746835Y-60910013D01*
X27526347Y-61057338D01*
X27338838Y-61244847D01*
X27191513Y-61465335D01*
X27090033Y-61710328D01*
X27038300Y-61970411D01*
X27038300Y-62235589D01*
X27090033Y-62495672D01*
X27191513Y-62740665D01*
X27338838Y-62961153D01*
X27526347Y-63148662D01*
X27746835Y-63295987D01*
X27769500Y-63305375D01*
X27769499Y-67445098D01*
X27728211Y-67394789D01*
X27623907Y-67309188D01*
X27504906Y-67245581D01*
X27375783Y-67206412D01*
X27275147Y-67196500D01*
X27241500Y-67193186D01*
X27207853Y-67196500D01*
X25831000Y-67196500D01*
X25831000Y-46937030D01*
X27033813Y-46937030D01*
X27074209Y-47199113D01*
X27164958Y-47448280D01*
X27220317Y-47551848D01*
X27455227Y-47612668D01*
X28204895Y-46863000D01*
X27455227Y-46113332D01*
X27220317Y-46174152D01*
X27108298Y-46414509D01*
X27045324Y-46672102D01*
X27033813Y-46937030D01*
X25831000Y-46937030D01*
X25831000Y-42711111D01*
X26817451Y-41769500D01*
X27461853Y-41769500D01*
X27495500Y-41772814D01*
X27529147Y-41769500D01*
X27629783Y-41759588D01*
X27758906Y-41720419D01*
X27877907Y-41656812D01*
X27982211Y-41571211D01*
X28067812Y-41466907D01*
X28131419Y-41347906D01*
X28170588Y-41218783D01*
X28183814Y-41084500D01*
X28180500Y-41050853D01*
X28180500Y-28625000D01*
X35009272Y-28625000D01*
X35069536Y-28814977D01*
G36*
X42431513Y-47500665D02*
G01*
X42578838Y-47721153D01*
X42766347Y-47908662D01*
X42986835Y-48055987D01*
X43231828Y-48157467D01*
X43459500Y-48202753D01*
X43459500Y-48274335D01*
X43514647Y-48551574D01*
X43622820Y-48812727D01*
X43779863Y-49047759D01*
X43979741Y-49247637D01*
X44212259Y-49403000D01*
X43979741Y-49558363D01*
X43779863Y-49758241D01*
X43622820Y-49993273D01*
X43514647Y-50254426D01*
X43459500Y-50531665D01*
X43459500Y-50814335D01*
X43514647Y-51091574D01*
X43622820Y-51352727D01*
X43779863Y-51587759D01*
X43979741Y-51787637D01*
X44212259Y-51943000D01*
X43979741Y-52098363D01*
X43779863Y-52298241D01*
X43622820Y-52533273D01*
X43514647Y-52794426D01*
X43459500Y-53071665D01*
X43459500Y-53354335D01*
X43514647Y-53631574D01*
X43622820Y-53892727D01*
X43779863Y-54127759D01*
X43979741Y-54327637D01*
X44212259Y-54483000D01*
X43979741Y-54638363D01*
X43779863Y-54838241D01*
X43622820Y-55073273D01*
X43514647Y-55334426D01*
X43459500Y-55611665D01*
X43459500Y-55894335D01*
X43514647Y-56171574D01*
X43622820Y-56432727D01*
X43779863Y-56667759D01*
X43979741Y-56867637D01*
X44212259Y-57023000D01*
X43979741Y-57178363D01*
X43779863Y-57378241D01*
X43622820Y-57613273D01*
X43514647Y-57874426D01*
X43459500Y-58151665D01*
X43459500Y-58434335D01*
X43514647Y-58711574D01*
X43622820Y-58972727D01*
X43779863Y-59207759D01*
X43779900Y-59207796D01*
X42077297Y-60910400D01*
X42048299Y-60934198D01*
X42024501Y-60963196D01*
X42024500Y-60963197D01*
X41953325Y-61049923D01*
X41947025Y-61061710D01*
X41942653Y-61057338D01*
X41722165Y-60910013D01*
X41477172Y-60808533D01*
X41217089Y-60756800D01*
X40951911Y-60756800D01*
X40691828Y-60808533D01*
X40446835Y-60910013D01*
X40226347Y-61057338D01*
X40038838Y-61244847D01*
X39891513Y-61465335D01*
X39814500Y-61651260D01*
X39737487Y-61465335D01*
X39590162Y-61244847D01*
X39402653Y-61057338D01*
X39182165Y-60910013D01*
X38937172Y-60808533D01*
X38677089Y-60756800D01*
X38411911Y-60756800D01*
X38151828Y-60808533D01*
X37906835Y-60910013D01*
X37686347Y-61057338D01*
X37498838Y-61244847D01*
X37351513Y-61465335D01*
X37274500Y-61651260D01*
X37197487Y-61465335D01*
X37050162Y-61244847D01*
X36862653Y-61057338D01*
X36642165Y-60910013D01*
X36397172Y-60808533D01*
X36137089Y-60756800D01*
X35871911Y-60756800D01*
X35611828Y-60808533D01*
X35366835Y-60910013D01*
X35146347Y-61057338D01*
X34958838Y-61244847D01*
X34811513Y-61465335D01*
X34734500Y-61651260D01*
X34657487Y-61465335D01*
X34510162Y-61244847D01*
X34322653Y-61057338D01*
X34170989Y-60955999D01*
X34321315Y-60855555D01*
X34465478Y-60711392D01*
X34578746Y-60541874D01*
X34656767Y-60353516D01*
X34696541Y-60153557D01*
X34696541Y-59949679D01*
X34656767Y-59749720D01*
X34578746Y-59561362D01*
X34465478Y-59391844D01*
X34321315Y-59247681D01*
X34151797Y-59134413D01*
X34122777Y-59122393D01*
X33769037Y-58768653D01*
X34565452Y-58768653D01*
X34721462Y-59084214D01*
X35096245Y-59275020D01*
X35501051Y-59389044D01*
X35920324Y-59421902D01*
X36337951Y-59372334D01*
X36737883Y-59242243D01*
X37033538Y-59084214D01*
X37189548Y-58768653D01*
X39962952Y-58768653D01*
X40118962Y-59084214D01*
X40493745Y-59275020D01*
X40898551Y-59389044D01*
X41317824Y-59421902D01*
X41735451Y-59372334D01*
X42135383Y-59242243D01*
X42431038Y-59084214D01*
X42587048Y-58768653D01*
X41275000Y-57456605D01*
X39962952Y-58768653D01*
X37189548Y-58768653D01*
X35877500Y-57456605D01*
X34565452Y-58768653D01*
X33769037Y-58768653D01*
X33597505Y-58597122D01*
X33573703Y-58568119D01*
X33457978Y-58473146D01*
X33325949Y-58402574D01*
X33182688Y-58359117D01*
X33071035Y-58348120D01*
X33071024Y-58348120D01*
X33033702Y-58344444D01*
X32996380Y-58348120D01*
X31509311Y-58348120D01*
X31376240Y-58293000D01*
X31562165Y-58215987D01*
X31782653Y-58068662D01*
X31970162Y-57881153D01*
X32117487Y-57660665D01*
X32218967Y-57415672D01*
X32238032Y-57319824D01*
X33732598Y-57319824D01*
X33782166Y-57737451D01*
X33912257Y-58137383D01*
X34070286Y-58433038D01*
X34385847Y-58589048D01*
X35697895Y-57277000D01*
X36057105Y-57277000D01*
X37369153Y-58589048D01*
X37684714Y-58433038D01*
X37875520Y-58058255D01*
X37989544Y-57653449D01*
X38015689Y-57319824D01*
X39130098Y-57319824D01*
X39179666Y-57737451D01*
X39309757Y-58137383D01*
X39467786Y-58433038D01*
X39783347Y-58589048D01*
X41095395Y-57277000D01*
X41454605Y-57277000D01*
X42766653Y-58589048D01*
X43082214Y-58433038D01*
X43273020Y-58058255D01*
X43387044Y-57653449D01*
X43419902Y-57234176D01*
X43370334Y-56816549D01*
X43240243Y-56416617D01*
X43082214Y-56120962D01*
X42766653Y-55964952D01*
X41454605Y-57277000D01*
X41095395Y-57277000D01*
X39783347Y-55964952D01*
X39467786Y-56120962D01*
X39276980Y-56495745D01*
X39162956Y-56900551D01*
X39130098Y-57319824D01*
X38015689Y-57319824D01*
X38022402Y-57234176D01*
X37972834Y-56816549D01*
X37842743Y-56416617D01*
X37684714Y-56120962D01*
X37369153Y-55964952D01*
X36057105Y-57277000D01*
X35697895Y-57277000D01*
X34385847Y-55964952D01*
X34070286Y-56120962D01*
X33879480Y-56495745D01*
X33765456Y-56900551D01*
X33732598Y-57319824D01*
X32238032Y-57319824D01*
X32270700Y-57155589D01*
X32270700Y-56890411D01*
X32218967Y-56630328D01*
X32117487Y-56385335D01*
X31970162Y-56164847D01*
X31910597Y-56105282D01*
X32230532Y-55785347D01*
X34565452Y-55785347D01*
X35877500Y-57097395D01*
X37189548Y-55785347D01*
X39962952Y-55785347D01*
X41275000Y-57097395D01*
X42587048Y-55785347D01*
X42431038Y-55469786D01*
X42056255Y-55278980D01*
X41651449Y-55164956D01*
X41232176Y-55132098D01*
X40814549Y-55181666D01*
X40414617Y-55311757D01*
X40118962Y-55469786D01*
X39962952Y-55785347D01*
X37189548Y-55785347D01*
X37033538Y-55469786D01*
X36658755Y-55278980D01*
X36253949Y-55164956D01*
X35834676Y-55132098D01*
X35417049Y-55181666D01*
X35017117Y-55311757D01*
X34721462Y-55469786D01*
X34565452Y-55785347D01*
X32230532Y-55785347D01*
X32471703Y-55544176D01*
X32500702Y-55520378D01*
X32549635Y-55460753D01*
X32595675Y-55404654D01*
X32666247Y-55272624D01*
X32675537Y-55241998D01*
X32709704Y-55129363D01*
X32720701Y-55017710D01*
X32720701Y-55017700D01*
X32724377Y-54980377D01*
X32720701Y-54943054D01*
X32720701Y-53752153D01*
X34565452Y-53752153D01*
X34721462Y-54067714D01*
X35096245Y-54258520D01*
X35501051Y-54372544D01*
X35920324Y-54405402D01*
X36337951Y-54355834D01*
X36737883Y-54225743D01*
X37033538Y-54067714D01*
X37158154Y-53815653D01*
X39962952Y-53815653D01*
X40118962Y-54131214D01*
X40493745Y-54322020D01*
X40898551Y-54436044D01*
X41317824Y-54468902D01*
X41735451Y-54419334D01*
X42135383Y-54289243D01*
X42431038Y-54131214D01*
X42587048Y-53815653D01*
X41275000Y-52503605D01*
X39962952Y-53815653D01*
X37158154Y-53815653D01*
X37189548Y-53752153D01*
X35877500Y-52440105D01*
X34565452Y-53752153D01*
X32720701Y-53752153D01*
X32720701Y-52303324D01*
X33732598Y-52303324D01*
X33782166Y-52720951D01*
X33912257Y-53120883D01*
X34070286Y-53416538D01*
X34385847Y-53572548D01*
X35697895Y-52260500D01*
X36057105Y-52260500D01*
X37369153Y-53572548D01*
X37684714Y-53416538D01*
X37875520Y-53041755D01*
X37989544Y-52636949D01*
X38010713Y-52366824D01*
X39130098Y-52366824D01*
X39179666Y-52784451D01*
X39309757Y-53184383D01*
X39467786Y-53480038D01*
X39783347Y-53636048D01*
X41095395Y-52324000D01*
X41454605Y-52324000D01*
X42766653Y-53636048D01*
X43082214Y-53480038D01*
X43273020Y-53105255D01*
X43387044Y-52700449D01*
X43419902Y-52281176D01*
X43370334Y-51863549D01*
X43240243Y-51463617D01*
X43082214Y-51167962D01*
X42766653Y-51011952D01*
X41454605Y-52324000D01*
X41095395Y-52324000D01*
X39783347Y-51011952D01*
X39467786Y-51167962D01*
X39276980Y-51542745D01*
X39162956Y-51947551D01*
X39130098Y-52366824D01*
X38010713Y-52366824D01*
X38022402Y-52217676D01*
X37972834Y-51800049D01*
X37842743Y-51400117D01*
X37684714Y-51104462D01*
X37369153Y-50948452D01*
X36057105Y-52260500D01*
X35697895Y-52260500D01*
X34385847Y-50948452D01*
X34070286Y-51104462D01*
X33879480Y-51479245D01*
X33765456Y-51884051D01*
X33732598Y-52303324D01*
X32720701Y-52303324D01*
X32720701Y-50768847D01*
X34565452Y-50768847D01*
X35877500Y-52080895D01*
X37126048Y-50832347D01*
X39962952Y-50832347D01*
X41275000Y-52144395D01*
X42587048Y-50832347D01*
X42431038Y-50516786D01*
X42056255Y-50325980D01*
X41651449Y-50211956D01*
X41232176Y-50179098D01*
X40814549Y-50228666D01*
X40414617Y-50358757D01*
X40118962Y-50516786D01*
X39962952Y-50832347D01*
X37126048Y-50832347D01*
X37189548Y-50768847D01*
X37033538Y-50453286D01*
X36658755Y-50262480D01*
X36253949Y-50148456D01*
X35834676Y-50115598D01*
X35417049Y-50165166D01*
X35017117Y-50295257D01*
X34721462Y-50453286D01*
X34565452Y-50768847D01*
X32720701Y-50768847D01*
X32720701Y-50476534D01*
X32724378Y-50439201D01*
X32709704Y-50290215D01*
X32666247Y-50146954D01*
X32595675Y-50014925D01*
X32524500Y-49928198D01*
X32500702Y-49899200D01*
X32471705Y-49875403D01*
X32247670Y-49651369D01*
X32270700Y-49535589D01*
X32270700Y-49270411D01*
X32218967Y-49010328D01*
X32117487Y-48765335D01*
X31970162Y-48544847D01*
X31782653Y-48357338D01*
X31562165Y-48210013D01*
X31376240Y-48133000D01*
X31562165Y-48055987D01*
X31782653Y-47908662D01*
X31970162Y-47721153D01*
X32117487Y-47500665D01*
X32194500Y-47314740D01*
X32271513Y-47500665D01*
X32418838Y-47721153D01*
X32606347Y-47908662D01*
X32826835Y-48055987D01*
X33071828Y-48157467D01*
X33331911Y-48209200D01*
X33597089Y-48209200D01*
X33857172Y-48157467D01*
X34102165Y-48055987D01*
X34322653Y-47908662D01*
X34510162Y-47721153D01*
X34657487Y-47500665D01*
X34734500Y-47314740D01*
X34811513Y-47500665D01*
X34958838Y-47721153D01*
X35146347Y-47908662D01*
X35366835Y-48055987D01*
X35611828Y-48157467D01*
X35871911Y-48209200D01*
X36137089Y-48209200D01*
X36397172Y-48157467D01*
X36642165Y-48055987D01*
X36862653Y-47908662D01*
X37050162Y-47721153D01*
X37197487Y-47500665D01*
X37274500Y-47314740D01*
X37351513Y-47500665D01*
X37498838Y-47721153D01*
X37686347Y-47908662D01*
X37906835Y-48055987D01*
X38151828Y-48157467D01*
X38411911Y-48209200D01*
X38677089Y-48209200D01*
X38937172Y-48157467D01*
X39182165Y-48055987D01*
X39402653Y-47908662D01*
X39590162Y-47721153D01*
X39737487Y-47500665D01*
X39814500Y-47314740D01*
X39891513Y-47500665D01*
X40038838Y-47721153D01*
X40226347Y-47908662D01*
X40446835Y-48055987D01*
X40691828Y-48157467D01*
X40951911Y-48209200D01*
X41217089Y-48209200D01*
X41477172Y-48157467D01*
X41722165Y-48055987D01*
X41942653Y-47908662D01*
X42130162Y-47721153D01*
X42277487Y-47500665D01*
X42354500Y-47314740D01*
X42431513Y-47500665D01*
G37*
X42431513Y-47500665D02*
X42578838Y-47721153D01*
X42766347Y-47908662D01*
X42986835Y-48055987D01*
X43231828Y-48157467D01*
X43459500Y-48202753D01*
X43459500Y-48274335D01*
X43514647Y-48551574D01*
X43622820Y-48812727D01*
X43779863Y-49047759D01*
X43979741Y-49247637D01*
X44212259Y-49403000D01*
X43979741Y-49558363D01*
X43779863Y-49758241D01*
X43622820Y-49993273D01*
X43514647Y-50254426D01*
X43459500Y-50531665D01*
X43459500Y-50814335D01*
X43514647Y-51091574D01*
X43622820Y-51352727D01*
X43779863Y-51587759D01*
X43979741Y-51787637D01*
X44212259Y-51943000D01*
X43979741Y-52098363D01*
X43779863Y-52298241D01*
X43622820Y-52533273D01*
X43514647Y-52794426D01*
X43459500Y-53071665D01*
X43459500Y-53354335D01*
X43514647Y-53631574D01*
X43622820Y-53892727D01*
X43779863Y-54127759D01*
X43979741Y-54327637D01*
X44212259Y-54483000D01*
X43979741Y-54638363D01*
X43779863Y-54838241D01*
X43622820Y-55073273D01*
X43514647Y-55334426D01*
X43459500Y-55611665D01*
X43459500Y-55894335D01*
X43514647Y-56171574D01*
X43622820Y-56432727D01*
X43779863Y-56667759D01*
X43979741Y-56867637D01*
X44212259Y-57023000D01*
X43979741Y-57178363D01*
X43779863Y-57378241D01*
X43622820Y-57613273D01*
X43514647Y-57874426D01*
X43459500Y-58151665D01*
X43459500Y-58434335D01*
X43514647Y-58711574D01*
X43622820Y-58972727D01*
X43779863Y-59207759D01*
X43779900Y-59207796D01*
X42077297Y-60910400D01*
X42048299Y-60934198D01*
X42024501Y-60963196D01*
X42024500Y-60963197D01*
X41953325Y-61049923D01*
X41947025Y-61061710D01*
X41942653Y-61057338D01*
X41722165Y-60910013D01*
X41477172Y-60808533D01*
X41217089Y-60756800D01*
X40951911Y-60756800D01*
X40691828Y-60808533D01*
X40446835Y-60910013D01*
X40226347Y-61057338D01*
X40038838Y-61244847D01*
X39891513Y-61465335D01*
X39814500Y-61651260D01*
X39737487Y-61465335D01*
X39590162Y-61244847D01*
X39402653Y-61057338D01*
X39182165Y-60910013D01*
X38937172Y-60808533D01*
X38677089Y-60756800D01*
X38411911Y-60756800D01*
X38151828Y-60808533D01*
X37906835Y-60910013D01*
X37686347Y-61057338D01*
X37498838Y-61244847D01*
X37351513Y-61465335D01*
X37274500Y-61651260D01*
X37197487Y-61465335D01*
X37050162Y-61244847D01*
X36862653Y-61057338D01*
X36642165Y-60910013D01*
X36397172Y-60808533D01*
X36137089Y-60756800D01*
X35871911Y-60756800D01*
X35611828Y-60808533D01*
X35366835Y-60910013D01*
X35146347Y-61057338D01*
X34958838Y-61244847D01*
X34811513Y-61465335D01*
X34734500Y-61651260D01*
X34657487Y-61465335D01*
X34510162Y-61244847D01*
X34322653Y-61057338D01*
X34170989Y-60955999D01*
X34321315Y-60855555D01*
X34465478Y-60711392D01*
X34578746Y-60541874D01*
X34656767Y-60353516D01*
X34696541Y-60153557D01*
X34696541Y-59949679D01*
X34656767Y-59749720D01*
X34578746Y-59561362D01*
X34465478Y-59391844D01*
X34321315Y-59247681D01*
X34151797Y-59134413D01*
X34122777Y-59122393D01*
X33769037Y-58768653D01*
X34565452Y-58768653D01*
X34721462Y-59084214D01*
X35096245Y-59275020D01*
X35501051Y-59389044D01*
X35920324Y-59421902D01*
X36337951Y-59372334D01*
X36737883Y-59242243D01*
X37033538Y-59084214D01*
X37189548Y-58768653D01*
X39962952Y-58768653D01*
X40118962Y-59084214D01*
X40493745Y-59275020D01*
X40898551Y-59389044D01*
X41317824Y-59421902D01*
X41735451Y-59372334D01*
X42135383Y-59242243D01*
X42431038Y-59084214D01*
X42587048Y-58768653D01*
X41275000Y-57456605D01*
X39962952Y-58768653D01*
X37189548Y-58768653D01*
X35877500Y-57456605D01*
X34565452Y-58768653D01*
X33769037Y-58768653D01*
X33597505Y-58597122D01*
X33573703Y-58568119D01*
X33457978Y-58473146D01*
X33325949Y-58402574D01*
X33182688Y-58359117D01*
X33071035Y-58348120D01*
X33071024Y-58348120D01*
X33033702Y-58344444D01*
X32996380Y-58348120D01*
X31509311Y-58348120D01*
X31376240Y-58293000D01*
X31562165Y-58215987D01*
X31782653Y-58068662D01*
X31970162Y-57881153D01*
X32117487Y-57660665D01*
X32218967Y-57415672D01*
X32238032Y-57319824D01*
X33732598Y-57319824D01*
X33782166Y-57737451D01*
X33912257Y-58137383D01*
X34070286Y-58433038D01*
X34385847Y-58589048D01*
X35697895Y-57277000D01*
X36057105Y-57277000D01*
X37369153Y-58589048D01*
X37684714Y-58433038D01*
X37875520Y-58058255D01*
X37989544Y-57653449D01*
X38015689Y-57319824D01*
X39130098Y-57319824D01*
X39179666Y-57737451D01*
X39309757Y-58137383D01*
X39467786Y-58433038D01*
X39783347Y-58589048D01*
X41095395Y-57277000D01*
X41454605Y-57277000D01*
X42766653Y-58589048D01*
X43082214Y-58433038D01*
X43273020Y-58058255D01*
X43387044Y-57653449D01*
X43419902Y-57234176D01*
X43370334Y-56816549D01*
X43240243Y-56416617D01*
X43082214Y-56120962D01*
X42766653Y-55964952D01*
X41454605Y-57277000D01*
X41095395Y-57277000D01*
X39783347Y-55964952D01*
X39467786Y-56120962D01*
X39276980Y-56495745D01*
X39162956Y-56900551D01*
X39130098Y-57319824D01*
X38015689Y-57319824D01*
X38022402Y-57234176D01*
X37972834Y-56816549D01*
X37842743Y-56416617D01*
X37684714Y-56120962D01*
X37369153Y-55964952D01*
X36057105Y-57277000D01*
X35697895Y-57277000D01*
X34385847Y-55964952D01*
X34070286Y-56120962D01*
X33879480Y-56495745D01*
X33765456Y-56900551D01*
X33732598Y-57319824D01*
X32238032Y-57319824D01*
X32270700Y-57155589D01*
X32270700Y-56890411D01*
X32218967Y-56630328D01*
X32117487Y-56385335D01*
X31970162Y-56164847D01*
X31910597Y-56105282D01*
X32230532Y-55785347D01*
X34565452Y-55785347D01*
X35877500Y-57097395D01*
X37189548Y-55785347D01*
X39962952Y-55785347D01*
X41275000Y-57097395D01*
X42587048Y-55785347D01*
X42431038Y-55469786D01*
X42056255Y-55278980D01*
X41651449Y-55164956D01*
X41232176Y-55132098D01*
X40814549Y-55181666D01*
X40414617Y-55311757D01*
X40118962Y-55469786D01*
X39962952Y-55785347D01*
X37189548Y-55785347D01*
X37033538Y-55469786D01*
X36658755Y-55278980D01*
X36253949Y-55164956D01*
X35834676Y-55132098D01*
X35417049Y-55181666D01*
X35017117Y-55311757D01*
X34721462Y-55469786D01*
X34565452Y-55785347D01*
X32230532Y-55785347D01*
X32471703Y-55544176D01*
X32500702Y-55520378D01*
X32549635Y-55460753D01*
X32595675Y-55404654D01*
X32666247Y-55272624D01*
X32675537Y-55241998D01*
X32709704Y-55129363D01*
X32720701Y-55017710D01*
X32720701Y-55017700D01*
X32724377Y-54980377D01*
X32720701Y-54943054D01*
X32720701Y-53752153D01*
X34565452Y-53752153D01*
X34721462Y-54067714D01*
X35096245Y-54258520D01*
X35501051Y-54372544D01*
X35920324Y-54405402D01*
X36337951Y-54355834D01*
X36737883Y-54225743D01*
X37033538Y-54067714D01*
X37158154Y-53815653D01*
X39962952Y-53815653D01*
X40118962Y-54131214D01*
X40493745Y-54322020D01*
X40898551Y-54436044D01*
X41317824Y-54468902D01*
X41735451Y-54419334D01*
X42135383Y-54289243D01*
X42431038Y-54131214D01*
X42587048Y-53815653D01*
X41275000Y-52503605D01*
X39962952Y-53815653D01*
X37158154Y-53815653D01*
X37189548Y-53752153D01*
X35877500Y-52440105D01*
X34565452Y-53752153D01*
X32720701Y-53752153D01*
X32720701Y-52303324D01*
X33732598Y-52303324D01*
X33782166Y-52720951D01*
X33912257Y-53120883D01*
X34070286Y-53416538D01*
X34385847Y-53572548D01*
X35697895Y-52260500D01*
X36057105Y-52260500D01*
X37369153Y-53572548D01*
X37684714Y-53416538D01*
X37875520Y-53041755D01*
X37989544Y-52636949D01*
X38010713Y-52366824D01*
X39130098Y-52366824D01*
X39179666Y-52784451D01*
X39309757Y-53184383D01*
X39467786Y-53480038D01*
X39783347Y-53636048D01*
X41095395Y-52324000D01*
X41454605Y-52324000D01*
X42766653Y-53636048D01*
X43082214Y-53480038D01*
X43273020Y-53105255D01*
X43387044Y-52700449D01*
X43419902Y-52281176D01*
X43370334Y-51863549D01*
X43240243Y-51463617D01*
X43082214Y-51167962D01*
X42766653Y-51011952D01*
X41454605Y-52324000D01*
X41095395Y-52324000D01*
X39783347Y-51011952D01*
X39467786Y-51167962D01*
X39276980Y-51542745D01*
X39162956Y-51947551D01*
X39130098Y-52366824D01*
X38010713Y-52366824D01*
X38022402Y-52217676D01*
X37972834Y-51800049D01*
X37842743Y-51400117D01*
X37684714Y-51104462D01*
X37369153Y-50948452D01*
X36057105Y-52260500D01*
X35697895Y-52260500D01*
X34385847Y-50948452D01*
X34070286Y-51104462D01*
X33879480Y-51479245D01*
X33765456Y-51884051D01*
X33732598Y-52303324D01*
X32720701Y-52303324D01*
X32720701Y-50768847D01*
X34565452Y-50768847D01*
X35877500Y-52080895D01*
X37126048Y-50832347D01*
X39962952Y-50832347D01*
X41275000Y-52144395D01*
X42587048Y-50832347D01*
X42431038Y-50516786D01*
X42056255Y-50325980D01*
X41651449Y-50211956D01*
X41232176Y-50179098D01*
X40814549Y-50228666D01*
X40414617Y-50358757D01*
X40118962Y-50516786D01*
X39962952Y-50832347D01*
X37126048Y-50832347D01*
X37189548Y-50768847D01*
X37033538Y-50453286D01*
X36658755Y-50262480D01*
X36253949Y-50148456D01*
X35834676Y-50115598D01*
X35417049Y-50165166D01*
X35017117Y-50295257D01*
X34721462Y-50453286D01*
X34565452Y-50768847D01*
X32720701Y-50768847D01*
X32720701Y-50476534D01*
X32724378Y-50439201D01*
X32709704Y-50290215D01*
X32666247Y-50146954D01*
X32595675Y-50014925D01*
X32524500Y-49928198D01*
X32500702Y-49899200D01*
X32471705Y-49875403D01*
X32247670Y-49651369D01*
X32270700Y-49535589D01*
X32270700Y-49270411D01*
X32218967Y-49010328D01*
X32117487Y-48765335D01*
X31970162Y-48544847D01*
X31782653Y-48357338D01*
X31562165Y-48210013D01*
X31376240Y-48133000D01*
X31562165Y-48055987D01*
X31782653Y-47908662D01*
X31970162Y-47721153D01*
X32117487Y-47500665D01*
X32194500Y-47314740D01*
X32271513Y-47500665D01*
X32418838Y-47721153D01*
X32606347Y-47908662D01*
X32826835Y-48055987D01*
X33071828Y-48157467D01*
X33331911Y-48209200D01*
X33597089Y-48209200D01*
X33857172Y-48157467D01*
X34102165Y-48055987D01*
X34322653Y-47908662D01*
X34510162Y-47721153D01*
X34657487Y-47500665D01*
X34734500Y-47314740D01*
X34811513Y-47500665D01*
X34958838Y-47721153D01*
X35146347Y-47908662D01*
X35366835Y-48055987D01*
X35611828Y-48157467D01*
X35871911Y-48209200D01*
X36137089Y-48209200D01*
X36397172Y-48157467D01*
X36642165Y-48055987D01*
X36862653Y-47908662D01*
X37050162Y-47721153D01*
X37197487Y-47500665D01*
X37274500Y-47314740D01*
X37351513Y-47500665D01*
X37498838Y-47721153D01*
X37686347Y-47908662D01*
X37906835Y-48055987D01*
X38151828Y-48157467D01*
X38411911Y-48209200D01*
X38677089Y-48209200D01*
X38937172Y-48157467D01*
X39182165Y-48055987D01*
X39402653Y-47908662D01*
X39590162Y-47721153D01*
X39737487Y-47500665D01*
X39814500Y-47314740D01*
X39891513Y-47500665D01*
X40038838Y-47721153D01*
X40226347Y-47908662D01*
X40446835Y-48055987D01*
X40691828Y-48157467D01*
X40951911Y-48209200D01*
X41217089Y-48209200D01*
X41477172Y-48157467D01*
X41722165Y-48055987D01*
X41942653Y-47908662D01*
X42130162Y-47721153D01*
X42277487Y-47500665D01*
X42354500Y-47314740D01*
X42431513Y-47500665D01*
G36*
X29781500Y-48006000D02*
G01*
X29801500Y-48006000D01*
X29801500Y-48260000D01*
X29781500Y-48260000D01*
X29781500Y-48280000D01*
X29527500Y-48280000D01*
X29527500Y-48260000D01*
X29507500Y-48260000D01*
X29507500Y-48006000D01*
X29527500Y-48006000D01*
X29527500Y-47986000D01*
X29781500Y-47986000D01*
X29781500Y-48006000D01*
G37*
X29781500Y-48006000D02*
X29801500Y-48006000D01*
X29801500Y-48260000D01*
X29781500Y-48260000D01*
X29781500Y-48280000D01*
X29527500Y-48280000D01*
X29527500Y-48260000D01*
X29507500Y-48260000D01*
X29507500Y-48006000D01*
X29527500Y-48006000D01*
X29527500Y-47986000D01*
X29781500Y-47986000D01*
X29781500Y-48006000D01*
M02*
