G04 #@! TF.GenerationSoftware,KiCad,Pcbnew,(5.1.6-0)*
G04 #@! TF.CreationDate,2023-03-04T21:55:24+01:00*
G04 #@! TF.ProjectId,PaulaAdapter,5061756c-6141-4646-9170-7465722e6b69,rev?*
G04 #@! TF.SameCoordinates,Original*
G04 #@! TF.FileFunction,Soldermask,Bot*
G04 #@! TF.FilePolarity,Negative*
%FSLAX46Y46*%
G04 Gerber Fmt 4.6, Leading zero omitted, Abs format (unit mm)*
G04 Created by KiCad (PCBNEW (5.1.6-0)) date 2023-03-04 21:55:24*
%MOMM*%
%LPD*%
G01*
G04 APERTURE LIST*
%ADD10C,2.600000*%
%ADD11C,1.022400*%
%ADD12R,1.022400X1.022400*%
%ADD13O,1.200000X1.200000*%
%ADD14R,1.200000X1.200000*%
G04 APERTURE END LIST*
D10*
X35877500Y-57277000D03*
D11*
X48704500Y-46863000D03*
X48704500Y-49403000D03*
X48704500Y-51943000D03*
X48704500Y-54483000D03*
X48704500Y-57023000D03*
X48704500Y-59563000D03*
X46164500Y-44323000D03*
X46164500Y-49403000D03*
X46164500Y-51943000D03*
X46164500Y-54483000D03*
X46164500Y-57023000D03*
X46164500Y-59563000D03*
X46164500Y-62103000D03*
X46164500Y-64643000D03*
X43624500Y-64643000D03*
X41084500Y-64643000D03*
X38544500Y-64643000D03*
X36004500Y-64643000D03*
X33464500Y-64643000D03*
X30924500Y-64643000D03*
X48704500Y-62103000D03*
X43624500Y-62103000D03*
X41084500Y-62103000D03*
X38544500Y-62103000D03*
X36004500Y-62103000D03*
X33464500Y-62103000D03*
X30924500Y-62103000D03*
X28384500Y-62103000D03*
X28384500Y-59563000D03*
X28384500Y-57023000D03*
X28384500Y-54483000D03*
X28384500Y-51943000D03*
X28384500Y-49403000D03*
X28384500Y-46863000D03*
X30924500Y-59563000D03*
X30924500Y-57023000D03*
X30924500Y-54483000D03*
X30924500Y-51943000D03*
X30924500Y-49403000D03*
X30924500Y-46863000D03*
X43624500Y-44323000D03*
X41084500Y-44323000D03*
X30924500Y-44323000D03*
X33464500Y-44323000D03*
X36004500Y-44323000D03*
D12*
X38544500Y-44323000D03*
D11*
X46164500Y-46863000D03*
X43624500Y-46863000D03*
X41084500Y-46863000D03*
X33464500Y-46863000D03*
X36004500Y-46863000D03*
X38544500Y-46863000D03*
D13*
X44894500Y-30353000D03*
X29654500Y-88773000D03*
X44894500Y-32893000D03*
X29654500Y-86233000D03*
X44894500Y-35433000D03*
X29654500Y-83693000D03*
X44894500Y-37973000D03*
X29654500Y-81153000D03*
X44894500Y-40513000D03*
X29654500Y-78613000D03*
X44894500Y-43053000D03*
X29654500Y-76073000D03*
X44894500Y-45593000D03*
X29654500Y-73533000D03*
X44894500Y-48133000D03*
X29654500Y-70993000D03*
X44894500Y-50673000D03*
X29654500Y-68453000D03*
X44894500Y-53213000D03*
X29654500Y-65913000D03*
X44894500Y-55753000D03*
X29654500Y-63373000D03*
X44894500Y-58293000D03*
X29654500Y-60833000D03*
X44894500Y-60833000D03*
X29654500Y-58293000D03*
X44894500Y-63373000D03*
X29654500Y-55753000D03*
X44894500Y-65913000D03*
X29654500Y-53213000D03*
X44894500Y-68453000D03*
X29654500Y-50673000D03*
X44894500Y-70993000D03*
X29654500Y-48133000D03*
X44894500Y-73533000D03*
X29654500Y-45593000D03*
X44894500Y-76073000D03*
X29654500Y-43053000D03*
X44894500Y-78613000D03*
X29654500Y-40513000D03*
X44894500Y-81153000D03*
X29654500Y-37973000D03*
X44894500Y-83693000D03*
X29654500Y-35433000D03*
X44894500Y-86233000D03*
X29654500Y-32893000D03*
X44894500Y-88773000D03*
D14*
X29654500Y-30353000D03*
D10*
X35877500Y-52260500D03*
X41275000Y-57277000D03*
X41275000Y-52324000D03*
M02*
