G04 #@! TF.GenerationSoftware,KiCad,Pcbnew,(5.1.6-0)*
G04 #@! TF.CreationDate,2023-03-04T21:55:24+01:00*
G04 #@! TF.ProjectId,PaulaAdapter,5061756c-6141-4646-9170-7465722e6b69,rev?*
G04 #@! TF.SameCoordinates,Original*
G04 #@! TF.FileFunction,Legend,Bot*
G04 #@! TF.FilePolarity,Positive*
%FSLAX46Y46*%
G04 Gerber Fmt 4.6, Leading zero omitted, Abs format (unit mm)*
G04 Created by KiCad (PCBNEW (5.1.6-0)) date 2023-03-04 21:55:24*
%MOMM*%
%LPD*%
G01*
G04 APERTURE LIST*
%ADD10C,0.150000*%
%ADD11C,0.100000*%
G04 APERTURE END LIST*
D10*
X33345880Y-69144714D02*
X32345880Y-69144714D01*
X32345880Y-69525666D01*
X32393500Y-69620904D01*
X32441119Y-69668523D01*
X32536357Y-69716142D01*
X32679214Y-69716142D01*
X32774452Y-69668523D01*
X32822071Y-69620904D01*
X32869690Y-69525666D01*
X32869690Y-69144714D01*
X33345880Y-70573285D02*
X32822071Y-70573285D01*
X32726833Y-70525666D01*
X32679214Y-70430428D01*
X32679214Y-70239952D01*
X32726833Y-70144714D01*
X33298261Y-70573285D02*
X33345880Y-70478047D01*
X33345880Y-70239952D01*
X33298261Y-70144714D01*
X33203023Y-70097095D01*
X33107785Y-70097095D01*
X33012547Y-70144714D01*
X32964928Y-70239952D01*
X32964928Y-70478047D01*
X32917309Y-70573285D01*
X32679214Y-71478047D02*
X33345880Y-71478047D01*
X32679214Y-71049476D02*
X33203023Y-71049476D01*
X33298261Y-71097095D01*
X33345880Y-71192333D01*
X33345880Y-71335190D01*
X33298261Y-71430428D01*
X33250642Y-71478047D01*
X33345880Y-72097095D02*
X33298261Y-72001857D01*
X33203023Y-71954238D01*
X32345880Y-71954238D01*
X33345880Y-72906619D02*
X32822071Y-72906619D01*
X32726833Y-72859000D01*
X32679214Y-72763761D01*
X32679214Y-72573285D01*
X32726833Y-72478047D01*
X33298261Y-72906619D02*
X33345880Y-72811380D01*
X33345880Y-72573285D01*
X33298261Y-72478047D01*
X33203023Y-72430428D01*
X33107785Y-72430428D01*
X33012547Y-72478047D01*
X32964928Y-72573285D01*
X32964928Y-72811380D01*
X32917309Y-72906619D01*
X33345880Y-74144714D02*
X32345880Y-74144714D01*
X32345880Y-74525666D01*
X32393500Y-74620904D01*
X32441119Y-74668523D01*
X32536357Y-74716142D01*
X32679214Y-74716142D01*
X32774452Y-74668523D01*
X32822071Y-74620904D01*
X32869690Y-74525666D01*
X32869690Y-74144714D01*
X33345880Y-75620904D02*
X33345880Y-75144714D01*
X32345880Y-75144714D01*
X33250642Y-76525666D02*
X33298261Y-76478047D01*
X33345880Y-76335190D01*
X33345880Y-76239952D01*
X33298261Y-76097095D01*
X33203023Y-76001857D01*
X33107785Y-75954238D01*
X32917309Y-75906619D01*
X32774452Y-75906619D01*
X32583976Y-75954238D01*
X32488738Y-76001857D01*
X32393500Y-76097095D01*
X32345880Y-76239952D01*
X32345880Y-76335190D01*
X32393500Y-76478047D01*
X32441119Y-76525666D01*
X33250642Y-77525666D02*
X33298261Y-77478047D01*
X33345880Y-77335190D01*
X33345880Y-77239952D01*
X33298261Y-77097095D01*
X33203023Y-77001857D01*
X33107785Y-76954238D01*
X32917309Y-76906619D01*
X32774452Y-76906619D01*
X32583976Y-76954238D01*
X32488738Y-77001857D01*
X32393500Y-77097095D01*
X32345880Y-77239952D01*
X32345880Y-77335190D01*
X32393500Y-77478047D01*
X32441119Y-77525666D01*
X32964928Y-77954238D02*
X32964928Y-78716142D01*
X33345880Y-79192333D02*
X32345880Y-79192333D01*
X32345880Y-79430428D01*
X32393500Y-79573285D01*
X32488738Y-79668523D01*
X32583976Y-79716142D01*
X32774452Y-79763761D01*
X32917309Y-79763761D01*
X33107785Y-79716142D01*
X33203023Y-79668523D01*
X33298261Y-79573285D01*
X33345880Y-79430428D01*
X33345880Y-79192333D01*
X33345880Y-80192333D02*
X32345880Y-80192333D01*
X33345880Y-80668523D02*
X32345880Y-80668523D01*
X32345880Y-81049476D01*
X32393500Y-81144714D01*
X32441119Y-81192333D01*
X32536357Y-81239952D01*
X32679214Y-81239952D01*
X32774452Y-81192333D01*
X32822071Y-81144714D01*
X32869690Y-81049476D01*
X32869690Y-80668523D01*
X33060166Y-82382809D02*
X33060166Y-82859000D01*
X33345880Y-82287571D02*
X32345880Y-82620904D01*
X33345880Y-82954238D01*
X33345880Y-83716142D02*
X32345880Y-83716142D01*
X33298261Y-83716142D02*
X33345880Y-83620904D01*
X33345880Y-83430428D01*
X33298261Y-83335190D01*
X33250642Y-83287571D01*
X33155404Y-83239952D01*
X32869690Y-83239952D01*
X32774452Y-83287571D01*
X32726833Y-83335190D01*
X32679214Y-83430428D01*
X32679214Y-83620904D01*
X32726833Y-83716142D01*
X33345880Y-84620904D02*
X32822071Y-84620904D01*
X32726833Y-84573285D01*
X32679214Y-84478047D01*
X32679214Y-84287571D01*
X32726833Y-84192333D01*
X33298261Y-84620904D02*
X33345880Y-84525666D01*
X33345880Y-84287571D01*
X33298261Y-84192333D01*
X33203023Y-84144714D01*
X33107785Y-84144714D01*
X33012547Y-84192333D01*
X32964928Y-84287571D01*
X32964928Y-84525666D01*
X32917309Y-84620904D01*
X32679214Y-85097095D02*
X33679214Y-85097095D01*
X32726833Y-85097095D02*
X32679214Y-85192333D01*
X32679214Y-85382809D01*
X32726833Y-85478047D01*
X32774452Y-85525666D01*
X32869690Y-85573285D01*
X33155404Y-85573285D01*
X33250642Y-85525666D01*
X33298261Y-85478047D01*
X33345880Y-85382809D01*
X33345880Y-85192333D01*
X33298261Y-85097095D01*
X32679214Y-85859000D02*
X32679214Y-86239952D01*
X32345880Y-86001857D02*
X33203023Y-86001857D01*
X33298261Y-86049476D01*
X33345880Y-86144714D01*
X33345880Y-86239952D01*
X33298261Y-86954238D02*
X33345880Y-86859000D01*
X33345880Y-86668523D01*
X33298261Y-86573285D01*
X33203023Y-86525666D01*
X32822071Y-86525666D01*
X32726833Y-86573285D01*
X32679214Y-86668523D01*
X32679214Y-86859000D01*
X32726833Y-86954238D01*
X32822071Y-87001857D01*
X32917309Y-87001857D01*
X33012547Y-86525666D01*
X33345880Y-87430428D02*
X32679214Y-87430428D01*
X32869690Y-87430428D02*
X32774452Y-87478047D01*
X32726833Y-87525666D01*
X32679214Y-87620904D01*
X32679214Y-87716142D01*
X34900642Y-73525666D02*
X34948261Y-73478047D01*
X34995880Y-73335190D01*
X34995880Y-73239952D01*
X34948261Y-73097095D01*
X34853023Y-73001857D01*
X34757785Y-72954238D01*
X34567309Y-72906619D01*
X34424452Y-72906619D01*
X34233976Y-72954238D01*
X34138738Y-73001857D01*
X34043500Y-73097095D01*
X33995880Y-73239952D01*
X33995880Y-73335190D01*
X34043500Y-73478047D01*
X34091119Y-73525666D01*
X34948261Y-73906619D02*
X34995880Y-74049476D01*
X34995880Y-74287571D01*
X34948261Y-74382809D01*
X34900642Y-74430428D01*
X34805404Y-74478047D01*
X34710166Y-74478047D01*
X34614928Y-74430428D01*
X34567309Y-74382809D01*
X34519690Y-74287571D01*
X34472071Y-74097095D01*
X34424452Y-74001857D01*
X34376833Y-73954238D01*
X34281595Y-73906619D01*
X34186357Y-73906619D01*
X34091119Y-73954238D01*
X34043500Y-74001857D01*
X33995880Y-74097095D01*
X33995880Y-74335190D01*
X34043500Y-74478047D01*
X34043500Y-75430428D02*
X33995880Y-75335190D01*
X33995880Y-75192333D01*
X34043500Y-75049476D01*
X34138738Y-74954238D01*
X34233976Y-74906619D01*
X34424452Y-74859000D01*
X34567309Y-74859000D01*
X34757785Y-74906619D01*
X34853023Y-74954238D01*
X34948261Y-75049476D01*
X34995880Y-75192333D01*
X34995880Y-75287571D01*
X34948261Y-75430428D01*
X34900642Y-75478047D01*
X34567309Y-75478047D01*
X34567309Y-75287571D01*
X34424452Y-76811380D02*
X34376833Y-76716142D01*
X34329214Y-76668523D01*
X34233976Y-76620904D01*
X34186357Y-76620904D01*
X34091119Y-76668523D01*
X34043500Y-76716142D01*
X33995880Y-76811380D01*
X33995880Y-77001857D01*
X34043500Y-77097095D01*
X34091119Y-77144714D01*
X34186357Y-77192333D01*
X34233976Y-77192333D01*
X34329214Y-77144714D01*
X34376833Y-77097095D01*
X34424452Y-77001857D01*
X34424452Y-76811380D01*
X34472071Y-76716142D01*
X34519690Y-76668523D01*
X34614928Y-76620904D01*
X34805404Y-76620904D01*
X34900642Y-76668523D01*
X34948261Y-76716142D01*
X34995880Y-76811380D01*
X34995880Y-77001857D01*
X34948261Y-77097095D01*
X34900642Y-77144714D01*
X34805404Y-77192333D01*
X34614928Y-77192333D01*
X34519690Y-77144714D01*
X34472071Y-77097095D01*
X34424452Y-77001857D01*
X33995880Y-77525666D02*
X33995880Y-78144714D01*
X34376833Y-77811380D01*
X34376833Y-77954238D01*
X34424452Y-78049476D01*
X34472071Y-78097095D01*
X34567309Y-78144714D01*
X34805404Y-78144714D01*
X34900642Y-78097095D01*
X34948261Y-78049476D01*
X34995880Y-77954238D01*
X34995880Y-77668523D01*
X34948261Y-77573285D01*
X34900642Y-77525666D01*
X33995880Y-79001857D02*
X33995880Y-78811380D01*
X34043500Y-78716142D01*
X34091119Y-78668523D01*
X34233976Y-78573285D01*
X34424452Y-78525666D01*
X34805404Y-78525666D01*
X34900642Y-78573285D01*
X34948261Y-78620904D01*
X34995880Y-78716142D01*
X34995880Y-78906619D01*
X34948261Y-79001857D01*
X34900642Y-79049476D01*
X34805404Y-79097095D01*
X34567309Y-79097095D01*
X34472071Y-79049476D01*
X34424452Y-79001857D01*
X34376833Y-78906619D01*
X34376833Y-78716142D01*
X34424452Y-78620904D01*
X34472071Y-78573285D01*
X34567309Y-78525666D01*
X34329214Y-79954238D02*
X34995880Y-79954238D01*
X33948261Y-79716142D02*
X34662547Y-79478047D01*
X34662547Y-80097095D01*
X34995880Y-81049476D02*
X34519690Y-80716142D01*
X34995880Y-80478047D02*
X33995880Y-80478047D01*
X33995880Y-80859000D01*
X34043500Y-80954238D01*
X34091119Y-81001857D01*
X34186357Y-81049476D01*
X34329214Y-81049476D01*
X34424452Y-81001857D01*
X34472071Y-80954238D01*
X34519690Y-80859000D01*
X34519690Y-80478047D01*
X33995880Y-81382809D02*
X33995880Y-82049476D01*
X34995880Y-81620904D01*
X34995880Y-82430428D02*
X33995880Y-82430428D01*
X33995880Y-82811380D01*
X34043500Y-82906619D01*
X34091119Y-82954238D01*
X34186357Y-83001857D01*
X34329214Y-83001857D01*
X34424452Y-82954238D01*
X34472071Y-82906619D01*
X34519690Y-82811380D01*
X34519690Y-82430428D01*
X34995880Y-83906619D02*
X34995880Y-83430428D01*
X33995880Y-83430428D01*
X39378476Y-31180619D02*
X39330857Y-31085380D01*
X39330857Y-30894904D01*
X39378476Y-30799666D01*
X39473714Y-30704428D01*
X39568952Y-30656809D01*
X39759428Y-30656809D01*
X39854666Y-30704428D01*
X39949904Y-30799666D01*
X39997523Y-30894904D01*
X39997523Y-31085380D01*
X39949904Y-31180619D01*
X38997523Y-30990142D02*
X39045142Y-30752047D01*
X39188000Y-30513952D01*
X39426095Y-30371095D01*
X39664190Y-30323476D01*
X39902285Y-30371095D01*
X40140380Y-30513952D01*
X40283238Y-30752047D01*
X40330857Y-30990142D01*
X40283238Y-31228238D01*
X40140380Y-31466333D01*
X39902285Y-31609190D01*
X39664190Y-31656809D01*
X39426095Y-31609190D01*
X39188000Y-31466333D01*
X39045142Y-31228238D01*
X38997523Y-30990142D01*
X39235619Y-32799666D02*
X39188000Y-32847285D01*
X39140380Y-32942523D01*
X39140380Y-33180619D01*
X39188000Y-33275857D01*
X39235619Y-33323476D01*
X39330857Y-33371095D01*
X39426095Y-33371095D01*
X39568952Y-33323476D01*
X40140380Y-32752047D01*
X40140380Y-33371095D01*
X39140380Y-33990142D02*
X39140380Y-34085380D01*
X39188000Y-34180619D01*
X39235619Y-34228238D01*
X39330857Y-34275857D01*
X39521333Y-34323476D01*
X39759428Y-34323476D01*
X39949904Y-34275857D01*
X40045142Y-34228238D01*
X40092761Y-34180619D01*
X40140380Y-34085380D01*
X40140380Y-33990142D01*
X40092761Y-33894904D01*
X40045142Y-33847285D01*
X39949904Y-33799666D01*
X39759428Y-33752047D01*
X39521333Y-33752047D01*
X39330857Y-33799666D01*
X39235619Y-33847285D01*
X39188000Y-33894904D01*
X39140380Y-33990142D01*
X40140380Y-35275857D02*
X40140380Y-34704428D01*
X40140380Y-34990142D02*
X39140380Y-34990142D01*
X39283238Y-34894904D01*
X39378476Y-34799666D01*
X39426095Y-34704428D01*
X40140380Y-35752047D02*
X40140380Y-35942523D01*
X40092761Y-36037761D01*
X40045142Y-36085380D01*
X39902285Y-36180619D01*
X39711809Y-36228238D01*
X39330857Y-36228238D01*
X39235619Y-36180619D01*
X39188000Y-36133000D01*
X39140380Y-36037761D01*
X39140380Y-35847285D01*
X39188000Y-35752047D01*
X39235619Y-35704428D01*
X39330857Y-35656809D01*
X39568952Y-35656809D01*
X39664190Y-35704428D01*
X39711809Y-35752047D01*
X39759428Y-35847285D01*
X39759428Y-36037761D01*
X39711809Y-36133000D01*
X39664190Y-36180619D01*
X39568952Y-36228238D01*
X39759428Y-36656809D02*
X39759428Y-37418714D01*
X39235619Y-37847285D02*
X39188000Y-37894904D01*
X39140380Y-37990142D01*
X39140380Y-38228238D01*
X39188000Y-38323476D01*
X39235619Y-38371095D01*
X39330857Y-38418714D01*
X39426095Y-38418714D01*
X39568952Y-38371095D01*
X40140380Y-37799666D01*
X40140380Y-38418714D01*
X39140380Y-39037761D02*
X39140380Y-39133000D01*
X39188000Y-39228238D01*
X39235619Y-39275857D01*
X39330857Y-39323476D01*
X39521333Y-39371095D01*
X39759428Y-39371095D01*
X39949904Y-39323476D01*
X40045142Y-39275857D01*
X40092761Y-39228238D01*
X40140380Y-39133000D01*
X40140380Y-39037761D01*
X40092761Y-38942523D01*
X40045142Y-38894904D01*
X39949904Y-38847285D01*
X39759428Y-38799666D01*
X39521333Y-38799666D01*
X39330857Y-38847285D01*
X39235619Y-38894904D01*
X39188000Y-38942523D01*
X39140380Y-39037761D01*
X39235619Y-39752047D02*
X39188000Y-39799666D01*
X39140380Y-39894904D01*
X39140380Y-40133000D01*
X39188000Y-40228238D01*
X39235619Y-40275857D01*
X39330857Y-40323476D01*
X39426095Y-40323476D01*
X39568952Y-40275857D01*
X40140380Y-39704428D01*
X40140380Y-40323476D01*
X39140380Y-40656809D02*
X39140380Y-41275857D01*
X39521333Y-40942523D01*
X39521333Y-41085380D01*
X39568952Y-41180619D01*
X39616571Y-41228238D01*
X39711809Y-41275857D01*
X39949904Y-41275857D01*
X40045142Y-41228238D01*
X40092761Y-41180619D01*
X40140380Y-41085380D01*
X40140380Y-40799666D01*
X40092761Y-40704428D01*
X40045142Y-40656809D01*
X41790380Y-30371095D02*
X40790380Y-30371095D01*
X41266571Y-30371095D02*
X41266571Y-30942523D01*
X41790380Y-30942523D02*
X40790380Y-30942523D01*
X41695142Y-31418714D02*
X41742761Y-31466333D01*
X41790380Y-31418714D01*
X41742761Y-31371095D01*
X41695142Y-31418714D01*
X41790380Y-31418714D01*
X41790380Y-32466333D02*
X41314190Y-32133000D01*
X41790380Y-31894904D02*
X40790380Y-31894904D01*
X40790380Y-32275857D01*
X40838000Y-32371095D01*
X40885619Y-32418714D01*
X40980857Y-32466333D01*
X41123714Y-32466333D01*
X41218952Y-32418714D01*
X41266571Y-32371095D01*
X41314190Y-32275857D01*
X41314190Y-31894904D01*
X41790380Y-32894904D02*
X41123714Y-32894904D01*
X40790380Y-32894904D02*
X40838000Y-32847285D01*
X40885619Y-32894904D01*
X40838000Y-32942523D01*
X40790380Y-32894904D01*
X40885619Y-32894904D01*
X41742761Y-33799666D02*
X41790380Y-33704428D01*
X41790380Y-33513952D01*
X41742761Y-33418714D01*
X41695142Y-33371095D01*
X41599904Y-33323476D01*
X41314190Y-33323476D01*
X41218952Y-33371095D01*
X41171333Y-33418714D01*
X41123714Y-33513952D01*
X41123714Y-33704428D01*
X41171333Y-33799666D01*
X41790380Y-34228238D02*
X40790380Y-34228238D01*
X41790380Y-34656809D02*
X41266571Y-34656809D01*
X41171333Y-34609190D01*
X41123714Y-34513952D01*
X41123714Y-34371095D01*
X41171333Y-34275857D01*
X41218952Y-34228238D01*
X41123714Y-34990142D02*
X41123714Y-35371095D01*
X40790380Y-35133000D02*
X41647523Y-35133000D01*
X41742761Y-35180619D01*
X41790380Y-35275857D01*
X41790380Y-35371095D01*
X41742761Y-36085380D02*
X41790380Y-35990142D01*
X41790380Y-35799666D01*
X41742761Y-35704428D01*
X41647523Y-35656809D01*
X41266571Y-35656809D01*
X41171333Y-35704428D01*
X41123714Y-35799666D01*
X41123714Y-35990142D01*
X41171333Y-36085380D01*
X41266571Y-36132999D01*
X41361809Y-36132999D01*
X41457047Y-35656809D01*
X41790380Y-36561571D02*
X41123714Y-36561571D01*
X41314190Y-36561571D02*
X41218952Y-36609190D01*
X41171333Y-36656809D01*
X41123714Y-36752047D01*
X41123714Y-36847285D01*
D11*
G36*
X37338000Y-33274000D02*
G01*
X37973000Y-33274000D01*
X37973000Y-32004000D01*
X37338000Y-32004000D01*
X37338000Y-33274000D01*
G37*
X37338000Y-33274000D02*
X37973000Y-33274000D01*
X37973000Y-32004000D01*
X37338000Y-32004000D01*
X37338000Y-33274000D01*
G36*
X36703000Y-33274000D02*
G01*
X37338000Y-33274000D01*
X37338000Y-32639000D01*
X36703000Y-32639000D01*
X36703000Y-33274000D01*
G37*
X36703000Y-33274000D02*
X37338000Y-33274000D01*
X37338000Y-32639000D01*
X36703000Y-32639000D01*
X36703000Y-33274000D01*
G36*
X37338000Y-34544000D02*
G01*
X37338000Y-35179000D01*
X38608000Y-35179000D01*
X38608000Y-34544000D01*
X37338000Y-34544000D01*
G37*
X37338000Y-34544000D02*
X37338000Y-35179000D01*
X38608000Y-35179000D01*
X38608000Y-34544000D01*
X37338000Y-34544000D01*
G36*
X36703000Y-34544000D02*
G01*
X37973000Y-34544000D01*
X37973000Y-33909000D01*
X36703000Y-33909000D01*
X36703000Y-34544000D01*
G37*
X36703000Y-34544000D02*
X37973000Y-34544000D01*
X37973000Y-33909000D01*
X36703000Y-33909000D01*
X36703000Y-34544000D01*
G36*
X36068000Y-34544000D02*
G01*
X36703000Y-34544000D01*
X36703000Y-33274000D01*
X36068000Y-33274000D01*
X36068000Y-34544000D01*
G37*
X36068000Y-34544000D02*
X36703000Y-34544000D01*
X36703000Y-33274000D01*
X36068000Y-33274000D01*
X36068000Y-34544000D01*
G36*
X36068000Y-35179000D02*
G01*
X37338000Y-35179000D01*
X37338000Y-35814000D01*
X36068000Y-35814000D01*
X36068000Y-35179000D01*
G37*
X36068000Y-35179000D02*
X37338000Y-35179000D01*
X37338000Y-35814000D01*
X36068000Y-35814000D01*
X36068000Y-35179000D01*
G36*
X35433000Y-33274000D02*
G01*
X35433000Y-35179000D01*
X36068000Y-35179000D01*
X36068000Y-33274000D01*
X35433000Y-33274000D01*
G37*
X35433000Y-33274000D02*
X35433000Y-35179000D01*
X36068000Y-35179000D01*
X36068000Y-33274000D01*
X35433000Y-33274000D01*
G36*
X35433000Y-32639000D02*
G01*
X34163000Y-32639000D01*
X34163000Y-32004000D01*
X35433000Y-32004000D01*
X35433000Y-32639000D01*
G37*
X35433000Y-32639000D02*
X34163000Y-32639000D01*
X34163000Y-32004000D01*
X35433000Y-32004000D01*
X35433000Y-32639000D01*
G36*
X35433000Y-33274000D02*
G01*
X35433000Y-32639000D01*
X36068000Y-32639000D01*
X36068000Y-33274000D01*
X35433000Y-33274000D01*
G37*
X35433000Y-33274000D02*
X35433000Y-32639000D01*
X36068000Y-32639000D01*
X36068000Y-33274000D01*
X35433000Y-33274000D01*
G36*
X34798000Y-33909000D02*
G01*
X35433000Y-33909000D01*
X35433000Y-34544000D01*
X34798000Y-34544000D01*
X34798000Y-33909000D01*
G37*
X34798000Y-33909000D02*
X35433000Y-33909000D01*
X35433000Y-34544000D01*
X34798000Y-34544000D01*
X34798000Y-33909000D01*
G36*
X33528000Y-33274000D02*
G01*
X33528000Y-35179000D01*
X34798000Y-35179000D01*
X34798000Y-33274000D01*
X33528000Y-33274000D01*
G37*
X33528000Y-33274000D02*
X33528000Y-35179000D01*
X34798000Y-35179000D01*
X34798000Y-33274000D01*
X33528000Y-33274000D01*
M02*
