M48
; DRILL file {KiCad (5.1.6-0)} date Saturday, 04. March 2023 um 09:55:28 PM
; FORMAT={-:-/ absolute / metric / decimal}
; #@! TF.CreationDate,2023-03-04T21:55:28+01:00
; #@! TF.GenerationSoftware,Kicad,Pcbnew,(5.1.6-0)
FMAT,2
METRIC
T1C0.400
T2C0.800
T3C3.000
%
G90
G05
T1
X26.416Y-66.611
X26.797Y-48.133
X32.131Y-89.471
X32.686Y-59.833
X33.662Y-60.052
X37.211Y-30.924
X38.417Y-66.865
X42.106Y-78.232
X42.164Y-89.408
X43.556Y-77.425
X43.688Y-72.326
X46.446Y-77.536
X47.434Y-61.023
X47.879Y-66.865
X50.546Y-42.291
X50.546Y-66.611
T2
X29.654Y-30.353
X29.654Y-32.893
X29.654Y-35.433
X29.654Y-37.973
X29.654Y-40.513
X29.654Y-43.053
X29.654Y-45.593
X29.654Y-48.133
X29.654Y-50.673
X29.654Y-53.213
X29.654Y-55.753
X29.654Y-58.293
X29.654Y-60.833
X29.654Y-63.373
X29.654Y-65.913
X29.654Y-68.453
X29.654Y-70.993
X29.654Y-73.533
X29.654Y-76.073
X29.654Y-78.613
X29.654Y-81.153
X29.654Y-83.693
X29.654Y-86.233
X29.654Y-88.773
X44.895Y-30.353
X44.895Y-32.893
X44.895Y-35.433
X44.895Y-37.973
X44.895Y-40.513
X44.895Y-43.053
X44.895Y-45.593
X44.895Y-48.133
X44.895Y-50.673
X44.895Y-53.213
X44.895Y-55.753
X44.895Y-58.293
X44.895Y-60.833
X44.895Y-63.373
X44.895Y-65.913
X44.895Y-68.453
X44.895Y-70.993
X44.895Y-73.533
X44.895Y-76.073
X44.895Y-78.613
X44.895Y-81.153
X44.895Y-83.693
X44.895Y-86.233
X44.895Y-88.773
X28.384Y-46.863
X28.384Y-49.403
X28.384Y-51.943
X28.384Y-54.483
X28.384Y-57.023
X28.384Y-59.563
X28.384Y-62.103
X30.924Y-44.323
X30.924Y-46.863
X30.924Y-49.403
X30.924Y-51.943
X30.924Y-54.483
X30.924Y-57.023
X30.924Y-59.563
X30.924Y-62.103
X30.924Y-64.643
X33.465Y-44.323
X33.465Y-46.863
X33.465Y-62.103
X33.465Y-64.643
X36.005Y-44.323
X36.005Y-46.863
X36.005Y-62.103
X36.005Y-64.643
X38.544Y-44.323
X38.544Y-46.863
X38.544Y-62.103
X38.544Y-64.643
X41.084Y-44.323
X41.084Y-46.863
X41.084Y-62.103
X41.084Y-64.643
X43.624Y-44.323
X43.624Y-46.863
X43.624Y-62.103
X43.624Y-64.643
X46.164Y-44.323
X46.164Y-46.863
X46.164Y-49.403
X46.164Y-51.943
X46.164Y-54.483
X46.164Y-57.023
X46.164Y-59.563
X46.164Y-62.103
X46.164Y-64.643
X48.704Y-46.863
X48.704Y-49.403
X48.704Y-51.943
X48.704Y-54.483
X48.704Y-57.023
X48.704Y-59.563
X48.704Y-62.103
T3
X35.877Y-52.261
X41.275Y-52.324
X41.275Y-57.277
X35.877Y-57.277
T0
M30
