G04 #@! TF.GenerationSoftware,KiCad,Pcbnew,(5.1.6-0)*
G04 #@! TF.CreationDate,2023-03-04T21:55:24+01:00*
G04 #@! TF.ProjectId,PaulaAdapter,5061756c-6141-4646-9170-7465722e6b69,rev?*
G04 #@! TF.SameCoordinates,Original*
G04 #@! TF.FileFunction,Copper,L2,Bot*
G04 #@! TF.FilePolarity,Positive*
%FSLAX46Y46*%
G04 Gerber Fmt 4.6, Leading zero omitted, Abs format (unit mm)*
G04 Created by KiCad (PCBNEW (5.1.6-0)) date 2023-03-04 21:55:24*
%MOMM*%
%LPD*%
G01*
G04 APERTURE LIST*
G04 #@! TA.AperFunction,ComponentPad*
%ADD10C,1.422400*%
G04 #@! TD*
G04 #@! TA.AperFunction,ComponentPad*
%ADD11R,1.422400X1.422400*%
G04 #@! TD*
G04 #@! TA.AperFunction,ComponentPad*
%ADD12O,1.600000X1.600000*%
G04 #@! TD*
G04 #@! TA.AperFunction,ComponentPad*
%ADD13R,1.600000X1.600000*%
G04 #@! TD*
G04 #@! TA.AperFunction,ViaPad*
%ADD14C,0.800000*%
G04 #@! TD*
G04 #@! TA.AperFunction,Conductor*
%ADD15C,0.250000*%
G04 #@! TD*
G04 #@! TA.AperFunction,Conductor*
%ADD16C,0.254000*%
G04 #@! TD*
G04 APERTURE END LIST*
D10*
X48704500Y-46863000D03*
X48704500Y-49403000D03*
X48704500Y-51943000D03*
X48704500Y-54483000D03*
X48704500Y-57023000D03*
X48704500Y-59563000D03*
X46164500Y-44323000D03*
X46164500Y-49403000D03*
X46164500Y-51943000D03*
X46164500Y-54483000D03*
X46164500Y-57023000D03*
X46164500Y-59563000D03*
X46164500Y-62103000D03*
X46164500Y-64643000D03*
X43624500Y-64643000D03*
X41084500Y-64643000D03*
X38544500Y-64643000D03*
X36004500Y-64643000D03*
X33464500Y-64643000D03*
X30924500Y-64643000D03*
X48704500Y-62103000D03*
X43624500Y-62103000D03*
X41084500Y-62103000D03*
X38544500Y-62103000D03*
X36004500Y-62103000D03*
X33464500Y-62103000D03*
X30924500Y-62103000D03*
X28384500Y-62103000D03*
X28384500Y-59563000D03*
X28384500Y-57023000D03*
X28384500Y-54483000D03*
X28384500Y-51943000D03*
X28384500Y-49403000D03*
X28384500Y-46863000D03*
X30924500Y-59563000D03*
X30924500Y-57023000D03*
X30924500Y-54483000D03*
X30924500Y-51943000D03*
X30924500Y-49403000D03*
X30924500Y-46863000D03*
X43624500Y-44323000D03*
X41084500Y-44323000D03*
X30924500Y-44323000D03*
X33464500Y-44323000D03*
X36004500Y-44323000D03*
D11*
X38544500Y-44323000D03*
D10*
X46164500Y-46863000D03*
X43624500Y-46863000D03*
X41084500Y-46863000D03*
X33464500Y-46863000D03*
X36004500Y-46863000D03*
X38544500Y-46863000D03*
D12*
X44894500Y-30353000D03*
X29654500Y-88773000D03*
X44894500Y-32893000D03*
X29654500Y-86233000D03*
X44894500Y-35433000D03*
X29654500Y-83693000D03*
X44894500Y-37973000D03*
X29654500Y-81153000D03*
X44894500Y-40513000D03*
X29654500Y-78613000D03*
X44894500Y-43053000D03*
X29654500Y-76073000D03*
X44894500Y-45593000D03*
X29654500Y-73533000D03*
X44894500Y-48133000D03*
X29654500Y-70993000D03*
X44894500Y-50673000D03*
X29654500Y-68453000D03*
X44894500Y-53213000D03*
X29654500Y-65913000D03*
X44894500Y-55753000D03*
X29654500Y-63373000D03*
X44894500Y-58293000D03*
X29654500Y-60833000D03*
X44894500Y-60833000D03*
X29654500Y-58293000D03*
X44894500Y-63373000D03*
X29654500Y-55753000D03*
X44894500Y-65913000D03*
X29654500Y-53213000D03*
X44894500Y-68453000D03*
X29654500Y-50673000D03*
X44894500Y-70993000D03*
X29654500Y-48133000D03*
X44894500Y-73533000D03*
X29654500Y-45593000D03*
X44894500Y-76073000D03*
X29654500Y-43053000D03*
X44894500Y-78613000D03*
X29654500Y-40513000D03*
X44894500Y-81153000D03*
X29654500Y-37973000D03*
X44894500Y-83693000D03*
X29654500Y-35433000D03*
X44894500Y-86233000D03*
X29654500Y-32893000D03*
X44894500Y-88773000D03*
D13*
X29654500Y-30353000D03*
D14*
X33661541Y-60051618D03*
X32685701Y-59833121D03*
X47434500Y-61023500D03*
X47879000Y-66865500D03*
X46446220Y-77535857D03*
X43556482Y-77425290D03*
X43688000Y-72326500D03*
X37211000Y-30924500D03*
X26797000Y-48133000D03*
X50546000Y-66611500D03*
X38417500Y-66865500D03*
X42164000Y-89408000D03*
X32131000Y-89471500D03*
X26416000Y-66611500D03*
X50546000Y-42291000D03*
X42106481Y-78232000D03*
D15*
X38544500Y-46863000D02*
X38036500Y-46863000D01*
X37040701Y-45867201D02*
X37040701Y-43825623D01*
X37040701Y-43825623D02*
X36337476Y-43122398D01*
X38036500Y-46863000D02*
X37040701Y-45867201D01*
X35070296Y-43122398D02*
X34334677Y-42386779D01*
X36337476Y-43122398D02*
X35070296Y-43122398D01*
X34334677Y-42386779D02*
X33628009Y-42386779D01*
X32274528Y-41033298D02*
X32274527Y-40398297D01*
X33628009Y-42386779D02*
X32274528Y-41033298D01*
X31824518Y-39948288D02*
X31824518Y-37854198D01*
X32274527Y-40398297D02*
X31824518Y-39948288D01*
X31311010Y-37340690D02*
X31311009Y-35564099D01*
X31824518Y-37854198D02*
X31311010Y-37340690D01*
X31311009Y-35564099D02*
X30924500Y-35177590D01*
X30924500Y-35177590D02*
X30924500Y-33210500D01*
X30607000Y-32893000D02*
X29654500Y-32893000D01*
X30924500Y-33210500D02*
X30607000Y-32893000D01*
X29654500Y-30353000D02*
X30416500Y-30353000D01*
X30924500Y-30861000D02*
X30924500Y-32574090D01*
X30416500Y-30353000D02*
X30924500Y-30861000D01*
X30924500Y-32574090D02*
X31374510Y-33024100D01*
X31374510Y-34991190D02*
X31761018Y-35377700D01*
X31374510Y-33024100D02*
X31374510Y-34991190D01*
X31761018Y-37154288D02*
X32274528Y-37667798D01*
X31761018Y-35377700D02*
X31761018Y-37154288D01*
X32274528Y-39761888D02*
X32724536Y-40211898D01*
X32274528Y-37667798D02*
X32274528Y-39761888D01*
X32724536Y-40846896D02*
X33814409Y-41936769D01*
X32724536Y-40211898D02*
X32724536Y-40846896D01*
X33814409Y-41936769D02*
X34521078Y-41936770D01*
X35256696Y-42672388D02*
X36523877Y-42672389D01*
X36523877Y-42672389D02*
X37655500Y-43804012D01*
X34521078Y-41936770D02*
X35256696Y-42672388D01*
X38025512Y-43804012D02*
X38544500Y-44323000D01*
X37655500Y-43804012D02*
X38025512Y-43804012D01*
X40048299Y-43825623D02*
X40587123Y-43286799D01*
X40587123Y-43286799D02*
X41762799Y-43286799D01*
X40048299Y-45826799D02*
X40048299Y-43825623D01*
X41084500Y-46863000D02*
X40048299Y-45826799D01*
X41783000Y-43307000D02*
X41834102Y-43307000D01*
X41762799Y-43286799D02*
X41783000Y-43307000D01*
X42274472Y-38493300D02*
X42869479Y-37898293D01*
X42274472Y-42866630D02*
X42274472Y-38493300D01*
X41834102Y-43307000D02*
X42274472Y-42866630D01*
X42869479Y-37898293D02*
X42869480Y-35359700D01*
X42869480Y-35359700D02*
X43237990Y-34991190D01*
X43237990Y-34991190D02*
X43237991Y-33341599D01*
X43237991Y-33341599D02*
X43769499Y-32810091D01*
X44358998Y-30353000D02*
X43769499Y-30942499D01*
X44894500Y-30353000D02*
X44358998Y-30353000D01*
X43769499Y-32810091D02*
X43769499Y-30942499D01*
X44894500Y-32893000D02*
X44323000Y-32893000D01*
X43688000Y-33528000D02*
X43688000Y-35177590D01*
X44323000Y-32893000D02*
X43688000Y-33528000D01*
X43688000Y-35177590D02*
X43319489Y-35546101D01*
X43319489Y-38084691D02*
X42724482Y-38679700D01*
X43319489Y-35546101D02*
X43319489Y-38084691D01*
X41454512Y-44323000D02*
X41084500Y-44323000D01*
X42724482Y-43053030D02*
X41454512Y-44323000D01*
X42724482Y-38679700D02*
X42724482Y-43053030D01*
X42588299Y-43825623D02*
X43174490Y-43239432D01*
X42588299Y-44820377D02*
X42588299Y-43825623D01*
X43624500Y-45856578D02*
X42588299Y-44820377D01*
X43624500Y-46863000D02*
X43624500Y-45856578D01*
X43174490Y-43239432D02*
X43174491Y-38866099D01*
X43769499Y-38271091D02*
X43769499Y-35732501D01*
X43174491Y-38866099D02*
X43769499Y-38271091D01*
X44069000Y-35433000D02*
X44894500Y-35433000D01*
X43769499Y-35732501D02*
X44069000Y-35433000D01*
X43624500Y-44323000D02*
X43624500Y-39052500D01*
X44704000Y-37973000D02*
X44894500Y-37973000D01*
X43624500Y-39052500D02*
X44704000Y-37973000D01*
X49740701Y-45729213D02*
X46302488Y-42291000D01*
X49740701Y-47360377D02*
X49740701Y-45729213D01*
X48207123Y-47899201D02*
X49201877Y-47899201D01*
X47170922Y-46863000D02*
X48207123Y-47899201D01*
X49201877Y-47899201D02*
X49740701Y-47360377D01*
X46164500Y-46863000D02*
X47170922Y-46863000D01*
X46302488Y-42291000D02*
X46228000Y-42291000D01*
X44894500Y-40957500D02*
X44894500Y-40513000D01*
X46228000Y-42291000D02*
X44894500Y-40957500D01*
X48704500Y-45329422D02*
X48704500Y-46863000D01*
X46428078Y-43053000D02*
X48704500Y-45329422D01*
X44894500Y-43053000D02*
X46428078Y-43053000D01*
X43769499Y-83204409D02*
X43769499Y-85107999D01*
X43237990Y-81148900D02*
X43237990Y-82672900D01*
X40931471Y-78842381D02*
X43237990Y-81148900D01*
X43237990Y-82672900D02*
X43769499Y-83204409D01*
X40931470Y-68225030D02*
X40931471Y-78842381D01*
X41529000Y-65786000D02*
X41529000Y-67627500D01*
X41084500Y-65341500D02*
X41529000Y-65786000D01*
X43769499Y-85107999D02*
X44894500Y-86233000D01*
X41529000Y-67627500D02*
X40931470Y-68225030D01*
X41084500Y-64643000D02*
X41084500Y-65341500D01*
X44894500Y-88773000D02*
X43750795Y-87629295D01*
X43750795Y-85725705D02*
X43243500Y-85218410D01*
X43243500Y-85218410D02*
X43243500Y-83314820D01*
X43750795Y-87629295D02*
X43750795Y-85725705D01*
X43243500Y-83314820D02*
X42787980Y-82859300D01*
X42787980Y-82859300D02*
X42787980Y-81335300D01*
X40481462Y-79028780D02*
X40481462Y-67976538D01*
X42787980Y-81335300D02*
X40481462Y-79028780D01*
X40481462Y-67976538D02*
X40513000Y-67945000D01*
X40048299Y-65140377D02*
X40048299Y-63202701D01*
X40513000Y-65605078D02*
X40048299Y-65140377D01*
X40513000Y-67945000D02*
X40513000Y-65605078D01*
X38948598Y-62103000D02*
X38544500Y-62103000D01*
X40048299Y-63202701D02*
X38948598Y-62103000D01*
X42831481Y-79089981D02*
X44894500Y-81153000D01*
X42831481Y-72110017D02*
X42831481Y-79089981D01*
X43148250Y-71793248D02*
X42831481Y-72110017D01*
X43148250Y-66706750D02*
X43148250Y-71793248D01*
X43624500Y-66230500D02*
X43148250Y-66706750D01*
X43624500Y-64643000D02*
X43624500Y-66230500D01*
X28130500Y-53213000D02*
X29654500Y-53213000D01*
X27348299Y-52430799D02*
X28130500Y-53213000D01*
X27348299Y-50439201D02*
X27348299Y-52430799D01*
X28384500Y-49403000D02*
X27348299Y-50439201D01*
X31960701Y-49900377D02*
X31188078Y-50673000D01*
X31960701Y-47899201D02*
X31960701Y-49900377D01*
X31188078Y-50673000D02*
X29654500Y-50673000D01*
X30924500Y-46863000D02*
X31960701Y-47899201D01*
X29654500Y-45593000D02*
X30924500Y-44323000D01*
X33464500Y-46863000D02*
X33464500Y-45974000D01*
X31188078Y-43053000D02*
X29654500Y-43053000D01*
X31960701Y-43825623D02*
X31188078Y-43053000D01*
X31960701Y-44470201D02*
X31960701Y-43825623D01*
X33464500Y-45974000D02*
X31960701Y-44470201D01*
X33464500Y-44323000D02*
X33464500Y-44132500D01*
X33464500Y-44132500D02*
X30924500Y-41592500D01*
X30924500Y-41592500D02*
X30924500Y-40957500D01*
X30480000Y-40513000D02*
X29654500Y-40513000D01*
X30924500Y-40957500D02*
X30480000Y-40513000D01*
X31374509Y-40771099D02*
X30924500Y-40321090D01*
X30924500Y-40321090D02*
X30924500Y-38227000D01*
X33255209Y-43286799D02*
X31374510Y-41406100D01*
X33961877Y-43286799D02*
X33255209Y-43286799D01*
X31374510Y-41406100D02*
X31374509Y-40771099D01*
X34500701Y-43825623D02*
X33961877Y-43286799D01*
X30670500Y-37973000D02*
X29654500Y-37973000D01*
X35496500Y-46863000D02*
X34500701Y-45867201D01*
X34500701Y-45867201D02*
X34500701Y-43825623D01*
X30924500Y-38227000D02*
X30670500Y-37973000D01*
X36004500Y-46863000D02*
X35496500Y-46863000D01*
X34883896Y-43572408D02*
X34148277Y-42836789D01*
X35253908Y-43572408D02*
X34883896Y-43572408D01*
X36004500Y-44323000D02*
X35253908Y-43572408D01*
X34148277Y-42836789D02*
X33441609Y-42836789D01*
X31824518Y-41219698D02*
X31824518Y-40584698D01*
X33441609Y-42836789D02*
X31824518Y-41219698D01*
X31374510Y-40134690D02*
X31374509Y-38040599D01*
X31824518Y-40584698D02*
X31374510Y-40134690D01*
X31374509Y-38040599D02*
X30861000Y-37527090D01*
X30861000Y-37527090D02*
X30861000Y-35750500D01*
X30543500Y-35433000D02*
X29654500Y-35433000D01*
X30861000Y-35750500D02*
X30543500Y-35433000D01*
X47434500Y-48133000D02*
X48704500Y-49403000D01*
X44894500Y-48133000D02*
X47434500Y-48133000D01*
X46164500Y-51943000D02*
X44894500Y-50673000D01*
X33661541Y-60051618D02*
X33155037Y-60558122D01*
X32410711Y-65696789D02*
X29654500Y-68453000D01*
X32410711Y-60616789D02*
X32410711Y-65696789D01*
X32469378Y-60558122D02*
X32410711Y-60616789D01*
X33155037Y-60558122D02*
X32469378Y-60558122D01*
X47434500Y-53213000D02*
X48704500Y-51943000D01*
X44894500Y-53213000D02*
X47434500Y-53213000D01*
X31188078Y-65913000D02*
X29654500Y-65913000D01*
X31960701Y-65140377D02*
X31188078Y-65913000D01*
X31960701Y-55261701D02*
X31960701Y-65140377D01*
X31182000Y-54483000D02*
X31960701Y-55261701D01*
X30924500Y-54483000D02*
X31182000Y-54483000D01*
X44894500Y-55753000D02*
X46164500Y-54483000D01*
X28120922Y-63373000D02*
X29654500Y-63373000D01*
X27348299Y-62600377D02*
X28120922Y-63373000D01*
X27348299Y-55519201D02*
X27348299Y-62600377D01*
X28384500Y-54483000D02*
X27348299Y-55519201D01*
X47668299Y-55519201D02*
X48704500Y-54483000D01*
X47668299Y-57520377D02*
X47668299Y-55519201D01*
X46895676Y-58293000D02*
X47668299Y-57520377D01*
X44894500Y-58293000D02*
X46895676Y-58293000D01*
X30924500Y-51943000D02*
X32410711Y-53429211D01*
X32410711Y-59558131D02*
X32685701Y-59833121D01*
X32410711Y-53429211D02*
X32410711Y-59558131D01*
X43769499Y-59707999D02*
X44894500Y-60833000D01*
X43769499Y-57752999D02*
X43769499Y-59707999D01*
X44499498Y-57023000D02*
X43769499Y-57752999D01*
X46164500Y-57023000D02*
X44499498Y-57023000D01*
X48704500Y-58029422D02*
X48704500Y-57023000D01*
X47434500Y-59299422D02*
X48704500Y-58029422D01*
X47434500Y-61023500D02*
X47434500Y-59299422D01*
X46446220Y-72913308D02*
X46446220Y-77535857D01*
X43619191Y-77487999D02*
X43556482Y-77425290D01*
X46398362Y-77487999D02*
X43619191Y-77487999D01*
X46446220Y-77535857D02*
X46398362Y-77487999D01*
X46446220Y-68021936D02*
X46446220Y-72913308D01*
X47602656Y-66865500D02*
X46446220Y-68021936D01*
X47879000Y-66865500D02*
X47602656Y-66865500D01*
X49740701Y-60599201D02*
X48704500Y-59563000D01*
X49740701Y-63658209D02*
X49740701Y-60599201D01*
X45315491Y-67778009D02*
X45620902Y-67778008D01*
X44894500Y-68199000D02*
X45315491Y-67778009D01*
X45620902Y-67778008D02*
X49740701Y-63658209D01*
X44894500Y-68453000D02*
X44894500Y-68199000D01*
X43769499Y-67912999D02*
X43769499Y-69867999D01*
X44354499Y-67327999D02*
X43769499Y-67912999D01*
X45434501Y-67327999D02*
X44354499Y-67327999D01*
X43769499Y-69867999D02*
X44894500Y-70993000D01*
X47200701Y-65561799D02*
X45434501Y-67327999D01*
X47200701Y-63139201D02*
X47200701Y-65561799D01*
X46164500Y-62103000D02*
X47200701Y-63139201D01*
X28384500Y-46863000D02*
X29654500Y-48133000D01*
X43424422Y-62303078D02*
X43624500Y-62103000D01*
X43424422Y-63309500D02*
X43424422Y-62303078D01*
X42588299Y-65140377D02*
X42588299Y-64145623D01*
X42698240Y-65250318D02*
X42588299Y-65140377D01*
X42698240Y-71606848D02*
X42698240Y-65250318D01*
X42381472Y-71923616D02*
X42698240Y-71606848D01*
X42588299Y-64145623D02*
X43424422Y-63309500D01*
X42381471Y-77957010D02*
X42381472Y-71923616D01*
X42106481Y-78232000D02*
X42381471Y-77957010D01*
X42120701Y-63139201D02*
X41084500Y-62103000D01*
X42120701Y-71547977D02*
X42120701Y-63139201D01*
X41931461Y-77334018D02*
X41931461Y-71737217D01*
X41381480Y-77883999D02*
X41931461Y-77334018D01*
X41381480Y-78655980D02*
X41381480Y-77883999D01*
X43688000Y-80962500D02*
X41381480Y-78655980D01*
X43688000Y-82486500D02*
X43688000Y-80962500D01*
X41931461Y-71737217D02*
X42120701Y-71547977D01*
X44894500Y-83693000D02*
X43688000Y-82486500D01*
D16*
G36*
X35069536Y-28814977D02*
G01*
X35093108Y-28869973D01*
X35115897Y-28925265D01*
X35120280Y-28933371D01*
X35281481Y-29226593D01*
X35315268Y-29275938D01*
X35348380Y-29325776D01*
X35354254Y-29332876D01*
X35569338Y-29589203D01*
X35612068Y-29631047D01*
X35654227Y-29673502D01*
X35661369Y-29679326D01*
X35922145Y-29888995D01*
X35972179Y-29921737D01*
X36021790Y-29955200D01*
X36029926Y-29959526D01*
X36326460Y-30114551D01*
X36381925Y-30136960D01*
X36437071Y-30160142D01*
X36445893Y-30162805D01*
X36766891Y-30257279D01*
X36825659Y-30268489D01*
X36884246Y-30280516D01*
X36893417Y-30281415D01*
X37226651Y-30311742D01*
X37286468Y-30311324D01*
X37346286Y-30311742D01*
X37355457Y-30310843D01*
X37688236Y-30275867D01*
X37746871Y-30263831D01*
X37805595Y-30252629D01*
X37814411Y-30249967D01*
X37814415Y-30249966D01*
X37814418Y-30249965D01*
X38134064Y-30151017D01*
X38189207Y-30127837D01*
X38244670Y-30105429D01*
X38252806Y-30101103D01*
X38547147Y-29941953D01*
X38596721Y-29908515D01*
X38646795Y-29875748D01*
X38653936Y-29869923D01*
X38911759Y-29656634D01*
X38953899Y-29614198D01*
X38996649Y-29572335D01*
X39002522Y-29565234D01*
X39214006Y-29305929D01*
X39247076Y-29256154D01*
X39280906Y-29206748D01*
X39285288Y-29198641D01*
X39442379Y-28903197D01*
X39465176Y-28847887D01*
X39488740Y-28792910D01*
X39491465Y-28784107D01*
X39539503Y-28625000D01*
X46432000Y-28625000D01*
X46432001Y-41050843D01*
X46428686Y-41084500D01*
X46441912Y-41218783D01*
X46481081Y-41347906D01*
X46544688Y-41466907D01*
X46630289Y-41571211D01*
X46734593Y-41656812D01*
X46853594Y-41720419D01*
X46982717Y-41759588D01*
X47083353Y-41769500D01*
X47117000Y-41772814D01*
X47150647Y-41769500D01*
X51258000Y-41769500D01*
X51258001Y-67196500D01*
X48862171Y-67196500D01*
X48874226Y-67167398D01*
X48914000Y-66967439D01*
X48914000Y-66763561D01*
X48874226Y-66563602D01*
X48796205Y-66375244D01*
X48682937Y-66205726D01*
X48538774Y-66061563D01*
X48462868Y-66010844D01*
X50251705Y-64222007D01*
X50280702Y-64198210D01*
X50375675Y-64082485D01*
X50446247Y-63950456D01*
X50489704Y-63807195D01*
X50500701Y-63695542D01*
X50500701Y-63695541D01*
X50504378Y-63658209D01*
X50500701Y-63620876D01*
X50500701Y-60636534D01*
X50504378Y-60599201D01*
X50489704Y-60450215D01*
X50446247Y-60306954D01*
X50375675Y-60174925D01*
X50304500Y-60088198D01*
X50280702Y-60059200D01*
X50251704Y-60035402D01*
X50027670Y-59811369D01*
X50050700Y-59695589D01*
X50050700Y-59430411D01*
X49998967Y-59170328D01*
X49897487Y-58925335D01*
X49750162Y-58704847D01*
X49562653Y-58517338D01*
X49373142Y-58390711D01*
X49410046Y-58321669D01*
X49453503Y-58178408D01*
X49457384Y-58139000D01*
X49562653Y-58068662D01*
X49750162Y-57881153D01*
X49897487Y-57660665D01*
X49998967Y-57415672D01*
X50050700Y-57155589D01*
X50050700Y-56890411D01*
X49998967Y-56630328D01*
X49897487Y-56385335D01*
X49750162Y-56164847D01*
X49562653Y-55977338D01*
X49342165Y-55830013D01*
X49156240Y-55753000D01*
X49342165Y-55675987D01*
X49562653Y-55528662D01*
X49750162Y-55341153D01*
X49897487Y-55120665D01*
X49998967Y-54875672D01*
X50050700Y-54615589D01*
X50050700Y-54350411D01*
X49998967Y-54090328D01*
X49897487Y-53845335D01*
X49750162Y-53624847D01*
X49562653Y-53437338D01*
X49342165Y-53290013D01*
X49156240Y-53213000D01*
X49342165Y-53135987D01*
X49562653Y-52988662D01*
X49750162Y-52801153D01*
X49897487Y-52580665D01*
X49998967Y-52335672D01*
X50050700Y-52075589D01*
X50050700Y-51810411D01*
X49998967Y-51550328D01*
X49897487Y-51305335D01*
X49750162Y-51084847D01*
X49562653Y-50897338D01*
X49342165Y-50750013D01*
X49156240Y-50673000D01*
X49342165Y-50595987D01*
X49562653Y-50448662D01*
X49750162Y-50261153D01*
X49897487Y-50040665D01*
X49998967Y-49795672D01*
X50050700Y-49535589D01*
X50050700Y-49270411D01*
X49998967Y-49010328D01*
X49897487Y-48765335D01*
X49750162Y-48544847D01*
X49688403Y-48483088D01*
X49741878Y-48439202D01*
X49765680Y-48410199D01*
X50251704Y-47924175D01*
X50280702Y-47900378D01*
X50375675Y-47784653D01*
X50446247Y-47652624D01*
X50489704Y-47509363D01*
X50500701Y-47397710D01*
X50500701Y-47397701D01*
X50504377Y-47360378D01*
X50500701Y-47323055D01*
X50500701Y-45766535D01*
X50504377Y-45729212D01*
X50500701Y-45691889D01*
X50500701Y-45691880D01*
X50489704Y-45580227D01*
X50446247Y-45436966D01*
X50375675Y-45304937D01*
X50345734Y-45268454D01*
X50304500Y-45218209D01*
X50304496Y-45218205D01*
X50280702Y-45189212D01*
X50251709Y-45165418D01*
X46866292Y-41780003D01*
X46842489Y-41750999D01*
X46726764Y-41656026D01*
X46600151Y-41588349D01*
X46177412Y-41165610D01*
X46274353Y-40931574D01*
X46329500Y-40654335D01*
X46329500Y-40371665D01*
X46274353Y-40094426D01*
X46166180Y-39833273D01*
X46009137Y-39598241D01*
X45809259Y-39398363D01*
X45576741Y-39243000D01*
X45809259Y-39087637D01*
X46009137Y-38887759D01*
X46166180Y-38652727D01*
X46274353Y-38391574D01*
X46329500Y-38114335D01*
X46329500Y-37831665D01*
X46274353Y-37554426D01*
X46166180Y-37293273D01*
X46009137Y-37058241D01*
X45809259Y-36858363D01*
X45576741Y-36703000D01*
X45809259Y-36547637D01*
X46009137Y-36347759D01*
X46166180Y-36112727D01*
X46274353Y-35851574D01*
X46329500Y-35574335D01*
X46329500Y-35291665D01*
X46274353Y-35014426D01*
X46166180Y-34753273D01*
X46009137Y-34518241D01*
X45809259Y-34318363D01*
X45576741Y-34163000D01*
X45809259Y-34007637D01*
X46009137Y-33807759D01*
X46166180Y-33572727D01*
X46274353Y-33311574D01*
X46329500Y-33034335D01*
X46329500Y-32751665D01*
X46274353Y-32474426D01*
X46166180Y-32213273D01*
X46009137Y-31978241D01*
X45809259Y-31778363D01*
X45576741Y-31623000D01*
X45809259Y-31467637D01*
X46009137Y-31267759D01*
X46166180Y-31032727D01*
X46274353Y-30771574D01*
X46329500Y-30494335D01*
X46329500Y-30211665D01*
X46274353Y-29934426D01*
X46166180Y-29673273D01*
X46009137Y-29438241D01*
X45809259Y-29238363D01*
X45574227Y-29081320D01*
X45313074Y-28973147D01*
X45035835Y-28918000D01*
X44753165Y-28918000D01*
X44475926Y-28973147D01*
X44214773Y-29081320D01*
X43979741Y-29238363D01*
X43779863Y-29438241D01*
X43622820Y-29673273D01*
X43514647Y-29934426D01*
X43467935Y-30169261D01*
X43258496Y-30378701D01*
X43229499Y-30402498D01*
X43205701Y-30431496D01*
X43205700Y-30431497D01*
X43134525Y-30518223D01*
X43063953Y-30650253D01*
X43033679Y-30750057D01*
X43025423Y-30777276D01*
X43020497Y-30793514D01*
X43005823Y-30942499D01*
X43009500Y-30979831D01*
X43009499Y-32495289D01*
X42726989Y-32777800D01*
X42697991Y-32801598D01*
X42674193Y-32830596D01*
X42674192Y-32830597D01*
X42603017Y-32917323D01*
X42532445Y-33049353D01*
X42515952Y-33103725D01*
X42491224Y-33185247D01*
X42488989Y-33192614D01*
X42474315Y-33341599D01*
X42477992Y-33378931D01*
X42477990Y-34676389D01*
X42358478Y-34795901D01*
X42329480Y-34819699D01*
X42305682Y-34848697D01*
X42305681Y-34848698D01*
X42234506Y-34935424D01*
X42163934Y-35067454D01*
X42147441Y-35121826D01*
X42120478Y-35210714D01*
X42113258Y-35284015D01*
X42105804Y-35359700D01*
X42109481Y-35397032D01*
X42109479Y-37583491D01*
X41763470Y-37929501D01*
X41734472Y-37953299D01*
X41710674Y-37982297D01*
X41710673Y-37982298D01*
X41639498Y-38069024D01*
X41568926Y-38201054D01*
X41549454Y-38265247D01*
X41530996Y-38326099D01*
X41525470Y-38344315D01*
X41510796Y-38493300D01*
X41514473Y-38530632D01*
X41514472Y-42526799D01*
X40624445Y-42526799D01*
X40587122Y-42523123D01*
X40549799Y-42526799D01*
X40549790Y-42526799D01*
X40438137Y-42537796D01*
X40294876Y-42581253D01*
X40162847Y-42651825D01*
X40047122Y-42746798D01*
X40023324Y-42775796D01*
X39669328Y-43129793D01*
X39610194Y-43081263D01*
X39499880Y-43022298D01*
X39380182Y-42985988D01*
X39255700Y-42973728D01*
X37900018Y-42973728D01*
X37087674Y-42161385D01*
X37063878Y-42132389D01*
X37028679Y-42103502D01*
X36948153Y-42037415D01*
X36816123Y-41966843D01*
X36716319Y-41936569D01*
X36672863Y-41923387D01*
X36561210Y-41912390D01*
X36523877Y-41908713D01*
X36486546Y-41912390D01*
X35571498Y-41912389D01*
X35084875Y-41425766D01*
X35061079Y-41396770D01*
X35026855Y-41368683D01*
X34945354Y-41301796D01*
X34813324Y-41231224D01*
X34736749Y-41207996D01*
X34670065Y-41187768D01*
X34558412Y-41176771D01*
X34558411Y-41176771D01*
X34521078Y-41173094D01*
X34483747Y-41176771D01*
X34129212Y-41176770D01*
X33484536Y-40532095D01*
X33484536Y-40249222D01*
X33488212Y-40211899D01*
X33484536Y-40174574D01*
X33484536Y-40174565D01*
X33473539Y-40062912D01*
X33430082Y-39919651D01*
X33359510Y-39787622D01*
X33264537Y-39671897D01*
X33235536Y-39648096D01*
X33034528Y-39447088D01*
X33034528Y-37705121D01*
X33038204Y-37667798D01*
X33034528Y-37630475D01*
X33034528Y-37630465D01*
X33023531Y-37518812D01*
X32980074Y-37375551D01*
X32909502Y-37243522D01*
X32814529Y-37127797D01*
X32785531Y-37104000D01*
X32521018Y-36839487D01*
X32521018Y-35415024D01*
X32524694Y-35377701D01*
X32521018Y-35340376D01*
X32521018Y-35340367D01*
X32510021Y-35228714D01*
X32466564Y-35085453D01*
X32395992Y-34953424D01*
X32301019Y-34837699D01*
X32272018Y-34813899D01*
X32134510Y-34676390D01*
X32134510Y-33061422D01*
X32138186Y-33024099D01*
X32134510Y-32986776D01*
X32134510Y-32986767D01*
X32123513Y-32875114D01*
X32080056Y-32731853D01*
X32009484Y-32599824D01*
X31914511Y-32484099D01*
X31885508Y-32460297D01*
X31684500Y-32259289D01*
X31684500Y-30898322D01*
X31688176Y-30860999D01*
X31684500Y-30823676D01*
X31684500Y-30823667D01*
X31673503Y-30712014D01*
X31630046Y-30568753D01*
X31559474Y-30436724D01*
X31464501Y-30320999D01*
X31435503Y-30297202D01*
X31092572Y-29954271D01*
X31092572Y-29553000D01*
X31080312Y-29428518D01*
X31044002Y-29308820D01*
X30985037Y-29198506D01*
X30905685Y-29101815D01*
X30808994Y-29022463D01*
X30698680Y-28963498D01*
X30578982Y-28927188D01*
X30454500Y-28914928D01*
X28854500Y-28914928D01*
X28730018Y-28927188D01*
X28610320Y-28963498D01*
X28500006Y-29022463D01*
X28403315Y-29101815D01*
X28323963Y-29198506D01*
X28264998Y-29308820D01*
X28228688Y-29428518D01*
X28216428Y-29553000D01*
X28216428Y-31153000D01*
X28228688Y-31277482D01*
X28264998Y-31397180D01*
X28323963Y-31507494D01*
X28403315Y-31604185D01*
X28500006Y-31683537D01*
X28610320Y-31742502D01*
X28730018Y-31778812D01*
X28738461Y-31779643D01*
X28539863Y-31978241D01*
X28382820Y-32213273D01*
X28274647Y-32474426D01*
X28219500Y-32751665D01*
X28219500Y-33034335D01*
X28274647Y-33311574D01*
X28382820Y-33572727D01*
X28539863Y-33807759D01*
X28739741Y-34007637D01*
X28972259Y-34163000D01*
X28739741Y-34318363D01*
X28539863Y-34518241D01*
X28382820Y-34753273D01*
X28274647Y-35014426D01*
X28219500Y-35291665D01*
X28219500Y-35574335D01*
X28274647Y-35851574D01*
X28382820Y-36112727D01*
X28539863Y-36347759D01*
X28739741Y-36547637D01*
X28972259Y-36703000D01*
X28739741Y-36858363D01*
X28539863Y-37058241D01*
X28382820Y-37293273D01*
X28274647Y-37554426D01*
X28219500Y-37831665D01*
X28219500Y-38114335D01*
X28274647Y-38391574D01*
X28382820Y-38652727D01*
X28539863Y-38887759D01*
X28739741Y-39087637D01*
X28972259Y-39243000D01*
X28739741Y-39398363D01*
X28539863Y-39598241D01*
X28382820Y-39833273D01*
X28274647Y-40094426D01*
X28219500Y-40371665D01*
X28219500Y-40654335D01*
X28274647Y-40931574D01*
X28382820Y-41192727D01*
X28539863Y-41427759D01*
X28739741Y-41627637D01*
X28972259Y-41783000D01*
X28739741Y-41938363D01*
X28539863Y-42138241D01*
X28382820Y-42373273D01*
X28274647Y-42634426D01*
X28219500Y-42911665D01*
X28219500Y-43194335D01*
X28274647Y-43471574D01*
X28382820Y-43732727D01*
X28539863Y-43967759D01*
X28739741Y-44167637D01*
X28972259Y-44323000D01*
X28739741Y-44478363D01*
X28539863Y-44678241D01*
X28382820Y-44913273D01*
X28274647Y-45174426D01*
X28219500Y-45451665D01*
X28219500Y-45526335D01*
X28048387Y-45552709D01*
X27799220Y-45643458D01*
X27695652Y-45698817D01*
X27634832Y-45933727D01*
X28384500Y-46683395D01*
X28398643Y-46669253D01*
X28578248Y-46848858D01*
X28564105Y-46863000D01*
X28578248Y-46877143D01*
X28398643Y-47056748D01*
X28384500Y-47042605D01*
X27634832Y-47792273D01*
X27695652Y-48027183D01*
X27927434Y-48135206D01*
X27746835Y-48210013D01*
X27526347Y-48357338D01*
X27338838Y-48544847D01*
X27191513Y-48765335D01*
X27090033Y-49010328D01*
X27038300Y-49270411D01*
X27038300Y-49535589D01*
X27061330Y-49651369D01*
X26837301Y-49875397D01*
X26808298Y-49899200D01*
X26776694Y-49937710D01*
X26713325Y-50014925D01*
X26663283Y-50108546D01*
X26642753Y-50146955D01*
X26599296Y-50290216D01*
X26588299Y-50401869D01*
X26588299Y-50401879D01*
X26584623Y-50439201D01*
X26588299Y-50476524D01*
X26588300Y-52393467D01*
X26584623Y-52430799D01*
X26588300Y-52468132D01*
X26589765Y-52483001D01*
X26599297Y-52579784D01*
X26642753Y-52723045D01*
X26713325Y-52855075D01*
X26767227Y-52920754D01*
X26808299Y-52970800D01*
X26837297Y-52994598D01*
X27403192Y-53560493D01*
X27338838Y-53624847D01*
X27191513Y-53845335D01*
X27090033Y-54090328D01*
X27038300Y-54350411D01*
X27038300Y-54615589D01*
X27061330Y-54731369D01*
X26837301Y-54955397D01*
X26808298Y-54979200D01*
X26772352Y-55023001D01*
X26713325Y-55094925D01*
X26666961Y-55181666D01*
X26642753Y-55226955D01*
X26599296Y-55370216D01*
X26588299Y-55481869D01*
X26588299Y-55481879D01*
X26584623Y-55519201D01*
X26588299Y-55556524D01*
X26588300Y-62563045D01*
X26584623Y-62600377D01*
X26588300Y-62637710D01*
X26599297Y-62749363D01*
X26608113Y-62778425D01*
X26642753Y-62892623D01*
X26713325Y-63024653D01*
X26776695Y-63101869D01*
X26808299Y-63140378D01*
X26837297Y-63164176D01*
X27557123Y-63884002D01*
X27580921Y-63913001D01*
X27609919Y-63936799D01*
X27696645Y-64007974D01*
X27818630Y-64073177D01*
X27828675Y-64078546D01*
X27971936Y-64122003D01*
X28083589Y-64133000D01*
X28083599Y-64133000D01*
X28120922Y-64136676D01*
X28158245Y-64133000D01*
X28436457Y-64133000D01*
X28539863Y-64287759D01*
X28739741Y-64487637D01*
X28972259Y-64643000D01*
X28739741Y-64798363D01*
X28539863Y-64998241D01*
X28382820Y-65233273D01*
X28274647Y-65494426D01*
X28219500Y-65771665D01*
X28219500Y-66054335D01*
X28274647Y-66331574D01*
X28382820Y-66592727D01*
X28539863Y-66827759D01*
X28739741Y-67027637D01*
X28972259Y-67183000D01*
X28739741Y-67338363D01*
X28539863Y-67538241D01*
X28382820Y-67773273D01*
X28274647Y-68034426D01*
X28219500Y-68311665D01*
X28219500Y-68594335D01*
X28274647Y-68871574D01*
X28382820Y-69132727D01*
X28539863Y-69367759D01*
X28739741Y-69567637D01*
X28972259Y-69723000D01*
X28739741Y-69878363D01*
X28539863Y-70078241D01*
X28382820Y-70313273D01*
X28274647Y-70574426D01*
X28219500Y-70851665D01*
X28219500Y-71134335D01*
X28274647Y-71411574D01*
X28382820Y-71672727D01*
X28539863Y-71907759D01*
X28739741Y-72107637D01*
X28972259Y-72263000D01*
X28739741Y-72418363D01*
X28539863Y-72618241D01*
X28382820Y-72853273D01*
X28274647Y-73114426D01*
X28219500Y-73391665D01*
X28219500Y-73674335D01*
X28274647Y-73951574D01*
X28382820Y-74212727D01*
X28539863Y-74447759D01*
X28739741Y-74647637D01*
X28972259Y-74803000D01*
X28739741Y-74958363D01*
X28539863Y-75158241D01*
X28382820Y-75393273D01*
X28274647Y-75654426D01*
X28219500Y-75931665D01*
X28219500Y-76214335D01*
X28274647Y-76491574D01*
X28382820Y-76752727D01*
X28539863Y-76987759D01*
X28739741Y-77187637D01*
X28972259Y-77343000D01*
X28739741Y-77498363D01*
X28539863Y-77698241D01*
X28382820Y-77933273D01*
X28274647Y-78194426D01*
X28219500Y-78471665D01*
X28219500Y-78754335D01*
X28274647Y-79031574D01*
X28382820Y-79292727D01*
X28539863Y-79527759D01*
X28739741Y-79727637D01*
X28972259Y-79883000D01*
X28739741Y-80038363D01*
X28539863Y-80238241D01*
X28382820Y-80473273D01*
X28274647Y-80734426D01*
X28219500Y-81011665D01*
X28219500Y-81294335D01*
X28274647Y-81571574D01*
X28382820Y-81832727D01*
X28539863Y-82067759D01*
X28739741Y-82267637D01*
X28972259Y-82423000D01*
X28739741Y-82578363D01*
X28539863Y-82778241D01*
X28382820Y-83013273D01*
X28274647Y-83274426D01*
X28219500Y-83551665D01*
X28219500Y-83834335D01*
X28274647Y-84111574D01*
X28382820Y-84372727D01*
X28539863Y-84607759D01*
X28739741Y-84807637D01*
X28972259Y-84963000D01*
X28739741Y-85118363D01*
X28539863Y-85318241D01*
X28382820Y-85553273D01*
X28274647Y-85814426D01*
X28219500Y-86091665D01*
X28219500Y-86374335D01*
X28274647Y-86651574D01*
X28382820Y-86912727D01*
X28539863Y-87147759D01*
X28739741Y-87347637D01*
X28972259Y-87503000D01*
X28739741Y-87658363D01*
X28539863Y-87858241D01*
X28382820Y-88093273D01*
X28274647Y-88354426D01*
X28219500Y-88631665D01*
X28219500Y-88914335D01*
X28274647Y-89191574D01*
X28382820Y-89452727D01*
X28539863Y-89687759D01*
X28739741Y-89887637D01*
X28974773Y-90044680D01*
X29235926Y-90152853D01*
X29513165Y-90208000D01*
X29795835Y-90208000D01*
X30073074Y-90152853D01*
X30334227Y-90044680D01*
X30569259Y-89887637D01*
X30769137Y-89687759D01*
X30926180Y-89452727D01*
X31034353Y-89191574D01*
X31089500Y-88914335D01*
X31089500Y-88631665D01*
X31034353Y-88354426D01*
X30926180Y-88093273D01*
X30769137Y-87858241D01*
X30569259Y-87658363D01*
X30336741Y-87503000D01*
X30569259Y-87347637D01*
X30769137Y-87147759D01*
X30926180Y-86912727D01*
X31034353Y-86651574D01*
X31089500Y-86374335D01*
X31089500Y-86091665D01*
X31034353Y-85814426D01*
X30926180Y-85553273D01*
X30769137Y-85318241D01*
X30569259Y-85118363D01*
X30336741Y-84963000D01*
X30569259Y-84807637D01*
X30769137Y-84607759D01*
X30926180Y-84372727D01*
X31034353Y-84111574D01*
X31089500Y-83834335D01*
X31089500Y-83551665D01*
X31034353Y-83274426D01*
X30926180Y-83013273D01*
X30769137Y-82778241D01*
X30569259Y-82578363D01*
X30336741Y-82423000D01*
X30569259Y-82267637D01*
X30769137Y-82067759D01*
X30926180Y-81832727D01*
X31034353Y-81571574D01*
X31089500Y-81294335D01*
X31089500Y-81011665D01*
X31034353Y-80734426D01*
X30926180Y-80473273D01*
X30769137Y-80238241D01*
X30569259Y-80038363D01*
X30336741Y-79883000D01*
X30569259Y-79727637D01*
X30769137Y-79527759D01*
X30926180Y-79292727D01*
X31034353Y-79031574D01*
X31089500Y-78754335D01*
X31089500Y-78471665D01*
X31034353Y-78194426D01*
X30926180Y-77933273D01*
X30769137Y-77698241D01*
X30569259Y-77498363D01*
X30336741Y-77343000D01*
X30569259Y-77187637D01*
X30769137Y-76987759D01*
X30926180Y-76752727D01*
X31034353Y-76491574D01*
X31089500Y-76214335D01*
X31089500Y-75931665D01*
X31034353Y-75654426D01*
X30926180Y-75393273D01*
X30769137Y-75158241D01*
X30569259Y-74958363D01*
X30336741Y-74803000D01*
X30569259Y-74647637D01*
X30769137Y-74447759D01*
X30926180Y-74212727D01*
X31034353Y-73951574D01*
X31089500Y-73674335D01*
X31089500Y-73391665D01*
X31034353Y-73114426D01*
X30926180Y-72853273D01*
X30769137Y-72618241D01*
X30569259Y-72418363D01*
X30336741Y-72263000D01*
X30569259Y-72107637D01*
X30769137Y-71907759D01*
X30926180Y-71672727D01*
X31034353Y-71411574D01*
X31089500Y-71134335D01*
X31089500Y-70851665D01*
X31034353Y-70574426D01*
X30926180Y-70313273D01*
X30769137Y-70078241D01*
X30569259Y-69878363D01*
X30336741Y-69723000D01*
X30569259Y-69567637D01*
X30769137Y-69367759D01*
X30926180Y-69132727D01*
X31034353Y-68871574D01*
X31089500Y-68594335D01*
X31089500Y-68311665D01*
X31053188Y-68129114D01*
X32921714Y-66260588D01*
X32950712Y-66236790D01*
X33006447Y-66168877D01*
X33045685Y-66121066D01*
X33116257Y-65989036D01*
X33117155Y-65986075D01*
X33128482Y-65948736D01*
X33331911Y-65989200D01*
X33597089Y-65989200D01*
X33857172Y-65937467D01*
X34102165Y-65835987D01*
X34322653Y-65688662D01*
X34510162Y-65501153D01*
X34657487Y-65280665D01*
X34734500Y-65094740D01*
X34811513Y-65280665D01*
X34958838Y-65501153D01*
X35146347Y-65688662D01*
X35366835Y-65835987D01*
X35611828Y-65937467D01*
X35871911Y-65989200D01*
X36137089Y-65989200D01*
X36397172Y-65937467D01*
X36642165Y-65835987D01*
X36862653Y-65688662D01*
X37050162Y-65501153D01*
X37197487Y-65280665D01*
X37274500Y-65094740D01*
X37351513Y-65280665D01*
X37498838Y-65501153D01*
X37686347Y-65688662D01*
X37906835Y-65835987D01*
X38151828Y-65937467D01*
X38411911Y-65989200D01*
X38677089Y-65989200D01*
X38937172Y-65937467D01*
X39182165Y-65835987D01*
X39402653Y-65688662D01*
X39464412Y-65626903D01*
X39508298Y-65680378D01*
X39537301Y-65704180D01*
X39753001Y-65919880D01*
X39753000Y-67759839D01*
X39732460Y-67827552D01*
X39722665Y-67926997D01*
X39717786Y-67976538D01*
X39721463Y-68013870D01*
X39721462Y-78991457D01*
X39717786Y-79028780D01*
X39721462Y-79066102D01*
X39721462Y-79066112D01*
X39732459Y-79177765D01*
X39775916Y-79321026D01*
X39846488Y-79453055D01*
X39941461Y-79568781D01*
X39970464Y-79592583D01*
X42027981Y-81650103D01*
X42027980Y-82821977D01*
X42024304Y-82859300D01*
X42027980Y-82896622D01*
X42027980Y-82896632D01*
X42038977Y-83008285D01*
X42073312Y-83121474D01*
X42082434Y-83151546D01*
X42153006Y-83283576D01*
X42172947Y-83307874D01*
X42247979Y-83399301D01*
X42276983Y-83423104D01*
X42483501Y-83629622D01*
X42483500Y-85181087D01*
X42479824Y-85218410D01*
X42483500Y-85255732D01*
X42483500Y-85255742D01*
X42494497Y-85367395D01*
X42514537Y-85433458D01*
X42537954Y-85510656D01*
X42608526Y-85642686D01*
X42646020Y-85688372D01*
X42703499Y-85758411D01*
X42732502Y-85782213D01*
X42990796Y-86040507D01*
X42990795Y-87591972D01*
X42987119Y-87629295D01*
X42990795Y-87666617D01*
X42990795Y-87666627D01*
X43001792Y-87778280D01*
X43045249Y-87921541D01*
X43115821Y-88053571D01*
X43148404Y-88093273D01*
X43210794Y-88169296D01*
X43239797Y-88193099D01*
X43495812Y-88449113D01*
X43459500Y-88631665D01*
X43459500Y-88914335D01*
X43514647Y-89191574D01*
X43622820Y-89452727D01*
X43779863Y-89687759D01*
X43979741Y-89887637D01*
X44214773Y-90044680D01*
X44475926Y-90152853D01*
X44753165Y-90208000D01*
X45035835Y-90208000D01*
X45313074Y-90152853D01*
X45574227Y-90044680D01*
X45809259Y-89887637D01*
X46009137Y-89687759D01*
X46166180Y-89452727D01*
X46274353Y-89191574D01*
X46329500Y-88914335D01*
X46329500Y-88631665D01*
X46274353Y-88354426D01*
X46166180Y-88093273D01*
X46009137Y-87858241D01*
X45809259Y-87658363D01*
X45576741Y-87503000D01*
X45809259Y-87347637D01*
X46009137Y-87147759D01*
X46166180Y-86912727D01*
X46274353Y-86651574D01*
X46329500Y-86374335D01*
X46329500Y-86091665D01*
X46274353Y-85814426D01*
X46166180Y-85553273D01*
X46009137Y-85318241D01*
X45809259Y-85118363D01*
X45576741Y-84963000D01*
X45809259Y-84807637D01*
X46009137Y-84607759D01*
X46166180Y-84372727D01*
X46274353Y-84111574D01*
X46329500Y-83834335D01*
X46329500Y-83551665D01*
X46274353Y-83274426D01*
X46166180Y-83013273D01*
X46009137Y-82778241D01*
X45809259Y-82578363D01*
X45576741Y-82423000D01*
X45809259Y-82267637D01*
X46009137Y-82067759D01*
X46166180Y-81832727D01*
X46274353Y-81571574D01*
X46329500Y-81294335D01*
X46329500Y-81011665D01*
X46274353Y-80734426D01*
X46166180Y-80473273D01*
X46009137Y-80238241D01*
X45809259Y-80038363D01*
X45576741Y-79883000D01*
X45809259Y-79727637D01*
X46009137Y-79527759D01*
X46166180Y-79292727D01*
X46274353Y-79031574D01*
X46329500Y-78754335D01*
X46329500Y-78567917D01*
X46344281Y-78570857D01*
X46432000Y-78570857D01*
X46432001Y-90755000D01*
X27926500Y-90755000D01*
X27926500Y-67915146D01*
X27929814Y-67881500D01*
X27916588Y-67747217D01*
X27877419Y-67618094D01*
X27813812Y-67499093D01*
X27728211Y-67394789D01*
X27623907Y-67309188D01*
X27504906Y-67245581D01*
X27375783Y-67206412D01*
X27275147Y-67196500D01*
X27241500Y-67193186D01*
X27207853Y-67196500D01*
X25831000Y-67196500D01*
X25831000Y-46937030D01*
X27033813Y-46937030D01*
X27074209Y-47199113D01*
X27164958Y-47448280D01*
X27220317Y-47551848D01*
X27455227Y-47612668D01*
X28204895Y-46863000D01*
X27455227Y-46113332D01*
X27220317Y-46174152D01*
X27108298Y-46414509D01*
X27045324Y-46672102D01*
X27033813Y-46937030D01*
X25831000Y-46937030D01*
X25831000Y-42711111D01*
X26817451Y-41769500D01*
X27461853Y-41769500D01*
X27495500Y-41772814D01*
X27529147Y-41769500D01*
X27629783Y-41759588D01*
X27758906Y-41720419D01*
X27877907Y-41656812D01*
X27982211Y-41571211D01*
X28067812Y-41466907D01*
X28131419Y-41347906D01*
X28170588Y-41218783D01*
X28183814Y-41084500D01*
X28180500Y-41050853D01*
X28180500Y-28625000D01*
X35009272Y-28625000D01*
X35069536Y-28814977D01*
G37*
X35069536Y-28814977D02*
X35093108Y-28869973D01*
X35115897Y-28925265D01*
X35120280Y-28933371D01*
X35281481Y-29226593D01*
X35315268Y-29275938D01*
X35348380Y-29325776D01*
X35354254Y-29332876D01*
X35569338Y-29589203D01*
X35612068Y-29631047D01*
X35654227Y-29673502D01*
X35661369Y-29679326D01*
X35922145Y-29888995D01*
X35972179Y-29921737D01*
X36021790Y-29955200D01*
X36029926Y-29959526D01*
X36326460Y-30114551D01*
X36381925Y-30136960D01*
X36437071Y-30160142D01*
X36445893Y-30162805D01*
X36766891Y-30257279D01*
X36825659Y-30268489D01*
X36884246Y-30280516D01*
X36893417Y-30281415D01*
X37226651Y-30311742D01*
X37286468Y-30311324D01*
X37346286Y-30311742D01*
X37355457Y-30310843D01*
X37688236Y-30275867D01*
X37746871Y-30263831D01*
X37805595Y-30252629D01*
X37814411Y-30249967D01*
X37814415Y-30249966D01*
X37814418Y-30249965D01*
X38134064Y-30151017D01*
X38189207Y-30127837D01*
X38244670Y-30105429D01*
X38252806Y-30101103D01*
X38547147Y-29941953D01*
X38596721Y-29908515D01*
X38646795Y-29875748D01*
X38653936Y-29869923D01*
X38911759Y-29656634D01*
X38953899Y-29614198D01*
X38996649Y-29572335D01*
X39002522Y-29565234D01*
X39214006Y-29305929D01*
X39247076Y-29256154D01*
X39280906Y-29206748D01*
X39285288Y-29198641D01*
X39442379Y-28903197D01*
X39465176Y-28847887D01*
X39488740Y-28792910D01*
X39491465Y-28784107D01*
X39539503Y-28625000D01*
X46432000Y-28625000D01*
X46432001Y-41050843D01*
X46428686Y-41084500D01*
X46441912Y-41218783D01*
X46481081Y-41347906D01*
X46544688Y-41466907D01*
X46630289Y-41571211D01*
X46734593Y-41656812D01*
X46853594Y-41720419D01*
X46982717Y-41759588D01*
X47083353Y-41769500D01*
X47117000Y-41772814D01*
X47150647Y-41769500D01*
X51258000Y-41769500D01*
X51258001Y-67196500D01*
X48862171Y-67196500D01*
X48874226Y-67167398D01*
X48914000Y-66967439D01*
X48914000Y-66763561D01*
X48874226Y-66563602D01*
X48796205Y-66375244D01*
X48682937Y-66205726D01*
X48538774Y-66061563D01*
X48462868Y-66010844D01*
X50251705Y-64222007D01*
X50280702Y-64198210D01*
X50375675Y-64082485D01*
X50446247Y-63950456D01*
X50489704Y-63807195D01*
X50500701Y-63695542D01*
X50500701Y-63695541D01*
X50504378Y-63658209D01*
X50500701Y-63620876D01*
X50500701Y-60636534D01*
X50504378Y-60599201D01*
X50489704Y-60450215D01*
X50446247Y-60306954D01*
X50375675Y-60174925D01*
X50304500Y-60088198D01*
X50280702Y-60059200D01*
X50251704Y-60035402D01*
X50027670Y-59811369D01*
X50050700Y-59695589D01*
X50050700Y-59430411D01*
X49998967Y-59170328D01*
X49897487Y-58925335D01*
X49750162Y-58704847D01*
X49562653Y-58517338D01*
X49373142Y-58390711D01*
X49410046Y-58321669D01*
X49453503Y-58178408D01*
X49457384Y-58139000D01*
X49562653Y-58068662D01*
X49750162Y-57881153D01*
X49897487Y-57660665D01*
X49998967Y-57415672D01*
X50050700Y-57155589D01*
X50050700Y-56890411D01*
X49998967Y-56630328D01*
X49897487Y-56385335D01*
X49750162Y-56164847D01*
X49562653Y-55977338D01*
X49342165Y-55830013D01*
X49156240Y-55753000D01*
X49342165Y-55675987D01*
X49562653Y-55528662D01*
X49750162Y-55341153D01*
X49897487Y-55120665D01*
X49998967Y-54875672D01*
X50050700Y-54615589D01*
X50050700Y-54350411D01*
X49998967Y-54090328D01*
X49897487Y-53845335D01*
X49750162Y-53624847D01*
X49562653Y-53437338D01*
X49342165Y-53290013D01*
X49156240Y-53213000D01*
X49342165Y-53135987D01*
X49562653Y-52988662D01*
X49750162Y-52801153D01*
X49897487Y-52580665D01*
X49998967Y-52335672D01*
X50050700Y-52075589D01*
X50050700Y-51810411D01*
X49998967Y-51550328D01*
X49897487Y-51305335D01*
X49750162Y-51084847D01*
X49562653Y-50897338D01*
X49342165Y-50750013D01*
X49156240Y-50673000D01*
X49342165Y-50595987D01*
X49562653Y-50448662D01*
X49750162Y-50261153D01*
X49897487Y-50040665D01*
X49998967Y-49795672D01*
X50050700Y-49535589D01*
X50050700Y-49270411D01*
X49998967Y-49010328D01*
X49897487Y-48765335D01*
X49750162Y-48544847D01*
X49688403Y-48483088D01*
X49741878Y-48439202D01*
X49765680Y-48410199D01*
X50251704Y-47924175D01*
X50280702Y-47900378D01*
X50375675Y-47784653D01*
X50446247Y-47652624D01*
X50489704Y-47509363D01*
X50500701Y-47397710D01*
X50500701Y-47397701D01*
X50504377Y-47360378D01*
X50500701Y-47323055D01*
X50500701Y-45766535D01*
X50504377Y-45729212D01*
X50500701Y-45691889D01*
X50500701Y-45691880D01*
X50489704Y-45580227D01*
X50446247Y-45436966D01*
X50375675Y-45304937D01*
X50345734Y-45268454D01*
X50304500Y-45218209D01*
X50304496Y-45218205D01*
X50280702Y-45189212D01*
X50251709Y-45165418D01*
X46866292Y-41780003D01*
X46842489Y-41750999D01*
X46726764Y-41656026D01*
X46600151Y-41588349D01*
X46177412Y-41165610D01*
X46274353Y-40931574D01*
X46329500Y-40654335D01*
X46329500Y-40371665D01*
X46274353Y-40094426D01*
X46166180Y-39833273D01*
X46009137Y-39598241D01*
X45809259Y-39398363D01*
X45576741Y-39243000D01*
X45809259Y-39087637D01*
X46009137Y-38887759D01*
X46166180Y-38652727D01*
X46274353Y-38391574D01*
X46329500Y-38114335D01*
X46329500Y-37831665D01*
X46274353Y-37554426D01*
X46166180Y-37293273D01*
X46009137Y-37058241D01*
X45809259Y-36858363D01*
X45576741Y-36703000D01*
X45809259Y-36547637D01*
X46009137Y-36347759D01*
X46166180Y-36112727D01*
X46274353Y-35851574D01*
X46329500Y-35574335D01*
X46329500Y-35291665D01*
X46274353Y-35014426D01*
X46166180Y-34753273D01*
X46009137Y-34518241D01*
X45809259Y-34318363D01*
X45576741Y-34163000D01*
X45809259Y-34007637D01*
X46009137Y-33807759D01*
X46166180Y-33572727D01*
X46274353Y-33311574D01*
X46329500Y-33034335D01*
X46329500Y-32751665D01*
X46274353Y-32474426D01*
X46166180Y-32213273D01*
X46009137Y-31978241D01*
X45809259Y-31778363D01*
X45576741Y-31623000D01*
X45809259Y-31467637D01*
X46009137Y-31267759D01*
X46166180Y-31032727D01*
X46274353Y-30771574D01*
X46329500Y-30494335D01*
X46329500Y-30211665D01*
X46274353Y-29934426D01*
X46166180Y-29673273D01*
X46009137Y-29438241D01*
X45809259Y-29238363D01*
X45574227Y-29081320D01*
X45313074Y-28973147D01*
X45035835Y-28918000D01*
X44753165Y-28918000D01*
X44475926Y-28973147D01*
X44214773Y-29081320D01*
X43979741Y-29238363D01*
X43779863Y-29438241D01*
X43622820Y-29673273D01*
X43514647Y-29934426D01*
X43467935Y-30169261D01*
X43258496Y-30378701D01*
X43229499Y-30402498D01*
X43205701Y-30431496D01*
X43205700Y-30431497D01*
X43134525Y-30518223D01*
X43063953Y-30650253D01*
X43033679Y-30750057D01*
X43025423Y-30777276D01*
X43020497Y-30793514D01*
X43005823Y-30942499D01*
X43009500Y-30979831D01*
X43009499Y-32495289D01*
X42726989Y-32777800D01*
X42697991Y-32801598D01*
X42674193Y-32830596D01*
X42674192Y-32830597D01*
X42603017Y-32917323D01*
X42532445Y-33049353D01*
X42515952Y-33103725D01*
X42491224Y-33185247D01*
X42488989Y-33192614D01*
X42474315Y-33341599D01*
X42477992Y-33378931D01*
X42477990Y-34676389D01*
X42358478Y-34795901D01*
X42329480Y-34819699D01*
X42305682Y-34848697D01*
X42305681Y-34848698D01*
X42234506Y-34935424D01*
X42163934Y-35067454D01*
X42147441Y-35121826D01*
X42120478Y-35210714D01*
X42113258Y-35284015D01*
X42105804Y-35359700D01*
X42109481Y-35397032D01*
X42109479Y-37583491D01*
X41763470Y-37929501D01*
X41734472Y-37953299D01*
X41710674Y-37982297D01*
X41710673Y-37982298D01*
X41639498Y-38069024D01*
X41568926Y-38201054D01*
X41549454Y-38265247D01*
X41530996Y-38326099D01*
X41525470Y-38344315D01*
X41510796Y-38493300D01*
X41514473Y-38530632D01*
X41514472Y-42526799D01*
X40624445Y-42526799D01*
X40587122Y-42523123D01*
X40549799Y-42526799D01*
X40549790Y-42526799D01*
X40438137Y-42537796D01*
X40294876Y-42581253D01*
X40162847Y-42651825D01*
X40047122Y-42746798D01*
X40023324Y-42775796D01*
X39669328Y-43129793D01*
X39610194Y-43081263D01*
X39499880Y-43022298D01*
X39380182Y-42985988D01*
X39255700Y-42973728D01*
X37900018Y-42973728D01*
X37087674Y-42161385D01*
X37063878Y-42132389D01*
X37028679Y-42103502D01*
X36948153Y-42037415D01*
X36816123Y-41966843D01*
X36716319Y-41936569D01*
X36672863Y-41923387D01*
X36561210Y-41912390D01*
X36523877Y-41908713D01*
X36486546Y-41912390D01*
X35571498Y-41912389D01*
X35084875Y-41425766D01*
X35061079Y-41396770D01*
X35026855Y-41368683D01*
X34945354Y-41301796D01*
X34813324Y-41231224D01*
X34736749Y-41207996D01*
X34670065Y-41187768D01*
X34558412Y-41176771D01*
X34558411Y-41176771D01*
X34521078Y-41173094D01*
X34483747Y-41176771D01*
X34129212Y-41176770D01*
X33484536Y-40532095D01*
X33484536Y-40249222D01*
X33488212Y-40211899D01*
X33484536Y-40174574D01*
X33484536Y-40174565D01*
X33473539Y-40062912D01*
X33430082Y-39919651D01*
X33359510Y-39787622D01*
X33264537Y-39671897D01*
X33235536Y-39648096D01*
X33034528Y-39447088D01*
X33034528Y-37705121D01*
X33038204Y-37667798D01*
X33034528Y-37630475D01*
X33034528Y-37630465D01*
X33023531Y-37518812D01*
X32980074Y-37375551D01*
X32909502Y-37243522D01*
X32814529Y-37127797D01*
X32785531Y-37104000D01*
X32521018Y-36839487D01*
X32521018Y-35415024D01*
X32524694Y-35377701D01*
X32521018Y-35340376D01*
X32521018Y-35340367D01*
X32510021Y-35228714D01*
X32466564Y-35085453D01*
X32395992Y-34953424D01*
X32301019Y-34837699D01*
X32272018Y-34813899D01*
X32134510Y-34676390D01*
X32134510Y-33061422D01*
X32138186Y-33024099D01*
X32134510Y-32986776D01*
X32134510Y-32986767D01*
X32123513Y-32875114D01*
X32080056Y-32731853D01*
X32009484Y-32599824D01*
X31914511Y-32484099D01*
X31885508Y-32460297D01*
X31684500Y-32259289D01*
X31684500Y-30898322D01*
X31688176Y-30860999D01*
X31684500Y-30823676D01*
X31684500Y-30823667D01*
X31673503Y-30712014D01*
X31630046Y-30568753D01*
X31559474Y-30436724D01*
X31464501Y-30320999D01*
X31435503Y-30297202D01*
X31092572Y-29954271D01*
X31092572Y-29553000D01*
X31080312Y-29428518D01*
X31044002Y-29308820D01*
X30985037Y-29198506D01*
X30905685Y-29101815D01*
X30808994Y-29022463D01*
X30698680Y-28963498D01*
X30578982Y-28927188D01*
X30454500Y-28914928D01*
X28854500Y-28914928D01*
X28730018Y-28927188D01*
X28610320Y-28963498D01*
X28500006Y-29022463D01*
X28403315Y-29101815D01*
X28323963Y-29198506D01*
X28264998Y-29308820D01*
X28228688Y-29428518D01*
X28216428Y-29553000D01*
X28216428Y-31153000D01*
X28228688Y-31277482D01*
X28264998Y-31397180D01*
X28323963Y-31507494D01*
X28403315Y-31604185D01*
X28500006Y-31683537D01*
X28610320Y-31742502D01*
X28730018Y-31778812D01*
X28738461Y-31779643D01*
X28539863Y-31978241D01*
X28382820Y-32213273D01*
X28274647Y-32474426D01*
X28219500Y-32751665D01*
X28219500Y-33034335D01*
X28274647Y-33311574D01*
X28382820Y-33572727D01*
X28539863Y-33807759D01*
X28739741Y-34007637D01*
X28972259Y-34163000D01*
X28739741Y-34318363D01*
X28539863Y-34518241D01*
X28382820Y-34753273D01*
X28274647Y-35014426D01*
X28219500Y-35291665D01*
X28219500Y-35574335D01*
X28274647Y-35851574D01*
X28382820Y-36112727D01*
X28539863Y-36347759D01*
X28739741Y-36547637D01*
X28972259Y-36703000D01*
X28739741Y-36858363D01*
X28539863Y-37058241D01*
X28382820Y-37293273D01*
X28274647Y-37554426D01*
X28219500Y-37831665D01*
X28219500Y-38114335D01*
X28274647Y-38391574D01*
X28382820Y-38652727D01*
X28539863Y-38887759D01*
X28739741Y-39087637D01*
X28972259Y-39243000D01*
X28739741Y-39398363D01*
X28539863Y-39598241D01*
X28382820Y-39833273D01*
X28274647Y-40094426D01*
X28219500Y-40371665D01*
X28219500Y-40654335D01*
X28274647Y-40931574D01*
X28382820Y-41192727D01*
X28539863Y-41427759D01*
X28739741Y-41627637D01*
X28972259Y-41783000D01*
X28739741Y-41938363D01*
X28539863Y-42138241D01*
X28382820Y-42373273D01*
X28274647Y-42634426D01*
X28219500Y-42911665D01*
X28219500Y-43194335D01*
X28274647Y-43471574D01*
X28382820Y-43732727D01*
X28539863Y-43967759D01*
X28739741Y-44167637D01*
X28972259Y-44323000D01*
X28739741Y-44478363D01*
X28539863Y-44678241D01*
X28382820Y-44913273D01*
X28274647Y-45174426D01*
X28219500Y-45451665D01*
X28219500Y-45526335D01*
X28048387Y-45552709D01*
X27799220Y-45643458D01*
X27695652Y-45698817D01*
X27634832Y-45933727D01*
X28384500Y-46683395D01*
X28398643Y-46669253D01*
X28578248Y-46848858D01*
X28564105Y-46863000D01*
X28578248Y-46877143D01*
X28398643Y-47056748D01*
X28384500Y-47042605D01*
X27634832Y-47792273D01*
X27695652Y-48027183D01*
X27927434Y-48135206D01*
X27746835Y-48210013D01*
X27526347Y-48357338D01*
X27338838Y-48544847D01*
X27191513Y-48765335D01*
X27090033Y-49010328D01*
X27038300Y-49270411D01*
X27038300Y-49535589D01*
X27061330Y-49651369D01*
X26837301Y-49875397D01*
X26808298Y-49899200D01*
X26776694Y-49937710D01*
X26713325Y-50014925D01*
X26663283Y-50108546D01*
X26642753Y-50146955D01*
X26599296Y-50290216D01*
X26588299Y-50401869D01*
X26588299Y-50401879D01*
X26584623Y-50439201D01*
X26588299Y-50476524D01*
X26588300Y-52393467D01*
X26584623Y-52430799D01*
X26588300Y-52468132D01*
X26589765Y-52483001D01*
X26599297Y-52579784D01*
X26642753Y-52723045D01*
X26713325Y-52855075D01*
X26767227Y-52920754D01*
X26808299Y-52970800D01*
X26837297Y-52994598D01*
X27403192Y-53560493D01*
X27338838Y-53624847D01*
X27191513Y-53845335D01*
X27090033Y-54090328D01*
X27038300Y-54350411D01*
X27038300Y-54615589D01*
X27061330Y-54731369D01*
X26837301Y-54955397D01*
X26808298Y-54979200D01*
X26772352Y-55023001D01*
X26713325Y-55094925D01*
X26666961Y-55181666D01*
X26642753Y-55226955D01*
X26599296Y-55370216D01*
X26588299Y-55481869D01*
X26588299Y-55481879D01*
X26584623Y-55519201D01*
X26588299Y-55556524D01*
X26588300Y-62563045D01*
X26584623Y-62600377D01*
X26588300Y-62637710D01*
X26599297Y-62749363D01*
X26608113Y-62778425D01*
X26642753Y-62892623D01*
X26713325Y-63024653D01*
X26776695Y-63101869D01*
X26808299Y-63140378D01*
X26837297Y-63164176D01*
X27557123Y-63884002D01*
X27580921Y-63913001D01*
X27609919Y-63936799D01*
X27696645Y-64007974D01*
X27818630Y-64073177D01*
X27828675Y-64078546D01*
X27971936Y-64122003D01*
X28083589Y-64133000D01*
X28083599Y-64133000D01*
X28120922Y-64136676D01*
X28158245Y-64133000D01*
X28436457Y-64133000D01*
X28539863Y-64287759D01*
X28739741Y-64487637D01*
X28972259Y-64643000D01*
X28739741Y-64798363D01*
X28539863Y-64998241D01*
X28382820Y-65233273D01*
X28274647Y-65494426D01*
X28219500Y-65771665D01*
X28219500Y-66054335D01*
X28274647Y-66331574D01*
X28382820Y-66592727D01*
X28539863Y-66827759D01*
X28739741Y-67027637D01*
X28972259Y-67183000D01*
X28739741Y-67338363D01*
X28539863Y-67538241D01*
X28382820Y-67773273D01*
X28274647Y-68034426D01*
X28219500Y-68311665D01*
X28219500Y-68594335D01*
X28274647Y-68871574D01*
X28382820Y-69132727D01*
X28539863Y-69367759D01*
X28739741Y-69567637D01*
X28972259Y-69723000D01*
X28739741Y-69878363D01*
X28539863Y-70078241D01*
X28382820Y-70313273D01*
X28274647Y-70574426D01*
X28219500Y-70851665D01*
X28219500Y-71134335D01*
X28274647Y-71411574D01*
X28382820Y-71672727D01*
X28539863Y-71907759D01*
X28739741Y-72107637D01*
X28972259Y-72263000D01*
X28739741Y-72418363D01*
X28539863Y-72618241D01*
X28382820Y-72853273D01*
X28274647Y-73114426D01*
X28219500Y-73391665D01*
X28219500Y-73674335D01*
X28274647Y-73951574D01*
X28382820Y-74212727D01*
X28539863Y-74447759D01*
X28739741Y-74647637D01*
X28972259Y-74803000D01*
X28739741Y-74958363D01*
X28539863Y-75158241D01*
X28382820Y-75393273D01*
X28274647Y-75654426D01*
X28219500Y-75931665D01*
X28219500Y-76214335D01*
X28274647Y-76491574D01*
X28382820Y-76752727D01*
X28539863Y-76987759D01*
X28739741Y-77187637D01*
X28972259Y-77343000D01*
X28739741Y-77498363D01*
X28539863Y-77698241D01*
X28382820Y-77933273D01*
X28274647Y-78194426D01*
X28219500Y-78471665D01*
X28219500Y-78754335D01*
X28274647Y-79031574D01*
X28382820Y-79292727D01*
X28539863Y-79527759D01*
X28739741Y-79727637D01*
X28972259Y-79883000D01*
X28739741Y-80038363D01*
X28539863Y-80238241D01*
X28382820Y-80473273D01*
X28274647Y-80734426D01*
X28219500Y-81011665D01*
X28219500Y-81294335D01*
X28274647Y-81571574D01*
X28382820Y-81832727D01*
X28539863Y-82067759D01*
X28739741Y-82267637D01*
X28972259Y-82423000D01*
X28739741Y-82578363D01*
X28539863Y-82778241D01*
X28382820Y-83013273D01*
X28274647Y-83274426D01*
X28219500Y-83551665D01*
X28219500Y-83834335D01*
X28274647Y-84111574D01*
X28382820Y-84372727D01*
X28539863Y-84607759D01*
X28739741Y-84807637D01*
X28972259Y-84963000D01*
X28739741Y-85118363D01*
X28539863Y-85318241D01*
X28382820Y-85553273D01*
X28274647Y-85814426D01*
X28219500Y-86091665D01*
X28219500Y-86374335D01*
X28274647Y-86651574D01*
X28382820Y-86912727D01*
X28539863Y-87147759D01*
X28739741Y-87347637D01*
X28972259Y-87503000D01*
X28739741Y-87658363D01*
X28539863Y-87858241D01*
X28382820Y-88093273D01*
X28274647Y-88354426D01*
X28219500Y-88631665D01*
X28219500Y-88914335D01*
X28274647Y-89191574D01*
X28382820Y-89452727D01*
X28539863Y-89687759D01*
X28739741Y-89887637D01*
X28974773Y-90044680D01*
X29235926Y-90152853D01*
X29513165Y-90208000D01*
X29795835Y-90208000D01*
X30073074Y-90152853D01*
X30334227Y-90044680D01*
X30569259Y-89887637D01*
X30769137Y-89687759D01*
X30926180Y-89452727D01*
X31034353Y-89191574D01*
X31089500Y-88914335D01*
X31089500Y-88631665D01*
X31034353Y-88354426D01*
X30926180Y-88093273D01*
X30769137Y-87858241D01*
X30569259Y-87658363D01*
X30336741Y-87503000D01*
X30569259Y-87347637D01*
X30769137Y-87147759D01*
X30926180Y-86912727D01*
X31034353Y-86651574D01*
X31089500Y-86374335D01*
X31089500Y-86091665D01*
X31034353Y-85814426D01*
X30926180Y-85553273D01*
X30769137Y-85318241D01*
X30569259Y-85118363D01*
X30336741Y-84963000D01*
X30569259Y-84807637D01*
X30769137Y-84607759D01*
X30926180Y-84372727D01*
X31034353Y-84111574D01*
X31089500Y-83834335D01*
X31089500Y-83551665D01*
X31034353Y-83274426D01*
X30926180Y-83013273D01*
X30769137Y-82778241D01*
X30569259Y-82578363D01*
X30336741Y-82423000D01*
X30569259Y-82267637D01*
X30769137Y-82067759D01*
X30926180Y-81832727D01*
X31034353Y-81571574D01*
X31089500Y-81294335D01*
X31089500Y-81011665D01*
X31034353Y-80734426D01*
X30926180Y-80473273D01*
X30769137Y-80238241D01*
X30569259Y-80038363D01*
X30336741Y-79883000D01*
X30569259Y-79727637D01*
X30769137Y-79527759D01*
X30926180Y-79292727D01*
X31034353Y-79031574D01*
X31089500Y-78754335D01*
X31089500Y-78471665D01*
X31034353Y-78194426D01*
X30926180Y-77933273D01*
X30769137Y-77698241D01*
X30569259Y-77498363D01*
X30336741Y-77343000D01*
X30569259Y-77187637D01*
X30769137Y-76987759D01*
X30926180Y-76752727D01*
X31034353Y-76491574D01*
X31089500Y-76214335D01*
X31089500Y-75931665D01*
X31034353Y-75654426D01*
X30926180Y-75393273D01*
X30769137Y-75158241D01*
X30569259Y-74958363D01*
X30336741Y-74803000D01*
X30569259Y-74647637D01*
X30769137Y-74447759D01*
X30926180Y-74212727D01*
X31034353Y-73951574D01*
X31089500Y-73674335D01*
X31089500Y-73391665D01*
X31034353Y-73114426D01*
X30926180Y-72853273D01*
X30769137Y-72618241D01*
X30569259Y-72418363D01*
X30336741Y-72263000D01*
X30569259Y-72107637D01*
X30769137Y-71907759D01*
X30926180Y-71672727D01*
X31034353Y-71411574D01*
X31089500Y-71134335D01*
X31089500Y-70851665D01*
X31034353Y-70574426D01*
X30926180Y-70313273D01*
X30769137Y-70078241D01*
X30569259Y-69878363D01*
X30336741Y-69723000D01*
X30569259Y-69567637D01*
X30769137Y-69367759D01*
X30926180Y-69132727D01*
X31034353Y-68871574D01*
X31089500Y-68594335D01*
X31089500Y-68311665D01*
X31053188Y-68129114D01*
X32921714Y-66260588D01*
X32950712Y-66236790D01*
X33006447Y-66168877D01*
X33045685Y-66121066D01*
X33116257Y-65989036D01*
X33117155Y-65986075D01*
X33128482Y-65948736D01*
X33331911Y-65989200D01*
X33597089Y-65989200D01*
X33857172Y-65937467D01*
X34102165Y-65835987D01*
X34322653Y-65688662D01*
X34510162Y-65501153D01*
X34657487Y-65280665D01*
X34734500Y-65094740D01*
X34811513Y-65280665D01*
X34958838Y-65501153D01*
X35146347Y-65688662D01*
X35366835Y-65835987D01*
X35611828Y-65937467D01*
X35871911Y-65989200D01*
X36137089Y-65989200D01*
X36397172Y-65937467D01*
X36642165Y-65835987D01*
X36862653Y-65688662D01*
X37050162Y-65501153D01*
X37197487Y-65280665D01*
X37274500Y-65094740D01*
X37351513Y-65280665D01*
X37498838Y-65501153D01*
X37686347Y-65688662D01*
X37906835Y-65835987D01*
X38151828Y-65937467D01*
X38411911Y-65989200D01*
X38677089Y-65989200D01*
X38937172Y-65937467D01*
X39182165Y-65835987D01*
X39402653Y-65688662D01*
X39464412Y-65626903D01*
X39508298Y-65680378D01*
X39537301Y-65704180D01*
X39753001Y-65919880D01*
X39753000Y-67759839D01*
X39732460Y-67827552D01*
X39722665Y-67926997D01*
X39717786Y-67976538D01*
X39721463Y-68013870D01*
X39721462Y-78991457D01*
X39717786Y-79028780D01*
X39721462Y-79066102D01*
X39721462Y-79066112D01*
X39732459Y-79177765D01*
X39775916Y-79321026D01*
X39846488Y-79453055D01*
X39941461Y-79568781D01*
X39970464Y-79592583D01*
X42027981Y-81650103D01*
X42027980Y-82821977D01*
X42024304Y-82859300D01*
X42027980Y-82896622D01*
X42027980Y-82896632D01*
X42038977Y-83008285D01*
X42073312Y-83121474D01*
X42082434Y-83151546D01*
X42153006Y-83283576D01*
X42172947Y-83307874D01*
X42247979Y-83399301D01*
X42276983Y-83423104D01*
X42483501Y-83629622D01*
X42483500Y-85181087D01*
X42479824Y-85218410D01*
X42483500Y-85255732D01*
X42483500Y-85255742D01*
X42494497Y-85367395D01*
X42514537Y-85433458D01*
X42537954Y-85510656D01*
X42608526Y-85642686D01*
X42646020Y-85688372D01*
X42703499Y-85758411D01*
X42732502Y-85782213D01*
X42990796Y-86040507D01*
X42990795Y-87591972D01*
X42987119Y-87629295D01*
X42990795Y-87666617D01*
X42990795Y-87666627D01*
X43001792Y-87778280D01*
X43045249Y-87921541D01*
X43115821Y-88053571D01*
X43148404Y-88093273D01*
X43210794Y-88169296D01*
X43239797Y-88193099D01*
X43495812Y-88449113D01*
X43459500Y-88631665D01*
X43459500Y-88914335D01*
X43514647Y-89191574D01*
X43622820Y-89452727D01*
X43779863Y-89687759D01*
X43979741Y-89887637D01*
X44214773Y-90044680D01*
X44475926Y-90152853D01*
X44753165Y-90208000D01*
X45035835Y-90208000D01*
X45313074Y-90152853D01*
X45574227Y-90044680D01*
X45809259Y-89887637D01*
X46009137Y-89687759D01*
X46166180Y-89452727D01*
X46274353Y-89191574D01*
X46329500Y-88914335D01*
X46329500Y-88631665D01*
X46274353Y-88354426D01*
X46166180Y-88093273D01*
X46009137Y-87858241D01*
X45809259Y-87658363D01*
X45576741Y-87503000D01*
X45809259Y-87347637D01*
X46009137Y-87147759D01*
X46166180Y-86912727D01*
X46274353Y-86651574D01*
X46329500Y-86374335D01*
X46329500Y-86091665D01*
X46274353Y-85814426D01*
X46166180Y-85553273D01*
X46009137Y-85318241D01*
X45809259Y-85118363D01*
X45576741Y-84963000D01*
X45809259Y-84807637D01*
X46009137Y-84607759D01*
X46166180Y-84372727D01*
X46274353Y-84111574D01*
X46329500Y-83834335D01*
X46329500Y-83551665D01*
X46274353Y-83274426D01*
X46166180Y-83013273D01*
X46009137Y-82778241D01*
X45809259Y-82578363D01*
X45576741Y-82423000D01*
X45809259Y-82267637D01*
X46009137Y-82067759D01*
X46166180Y-81832727D01*
X46274353Y-81571574D01*
X46329500Y-81294335D01*
X46329500Y-81011665D01*
X46274353Y-80734426D01*
X46166180Y-80473273D01*
X46009137Y-80238241D01*
X45809259Y-80038363D01*
X45576741Y-79883000D01*
X45809259Y-79727637D01*
X46009137Y-79527759D01*
X46166180Y-79292727D01*
X46274353Y-79031574D01*
X46329500Y-78754335D01*
X46329500Y-78567917D01*
X46344281Y-78570857D01*
X46432000Y-78570857D01*
X46432001Y-90755000D01*
X27926500Y-90755000D01*
X27926500Y-67915146D01*
X27929814Y-67881500D01*
X27916588Y-67747217D01*
X27877419Y-67618094D01*
X27813812Y-67499093D01*
X27728211Y-67394789D01*
X27623907Y-67309188D01*
X27504906Y-67245581D01*
X27375783Y-67206412D01*
X27275147Y-67196500D01*
X27241500Y-67193186D01*
X27207853Y-67196500D01*
X25831000Y-67196500D01*
X25831000Y-46937030D01*
X27033813Y-46937030D01*
X27074209Y-47199113D01*
X27164958Y-47448280D01*
X27220317Y-47551848D01*
X27455227Y-47612668D01*
X28204895Y-46863000D01*
X27455227Y-46113332D01*
X27220317Y-46174152D01*
X27108298Y-46414509D01*
X27045324Y-46672102D01*
X27033813Y-46937030D01*
X25831000Y-46937030D01*
X25831000Y-42711111D01*
X26817451Y-41769500D01*
X27461853Y-41769500D01*
X27495500Y-41772814D01*
X27529147Y-41769500D01*
X27629783Y-41759588D01*
X27758906Y-41720419D01*
X27877907Y-41656812D01*
X27982211Y-41571211D01*
X28067812Y-41466907D01*
X28131419Y-41347906D01*
X28170588Y-41218783D01*
X28183814Y-41084500D01*
X28180500Y-41050853D01*
X28180500Y-28625000D01*
X35009272Y-28625000D01*
X35069536Y-28814977D01*
G36*
X29781500Y-48006000D02*
G01*
X29801500Y-48006000D01*
X29801500Y-48260000D01*
X29781500Y-48260000D01*
X29781500Y-48280000D01*
X29527500Y-48280000D01*
X29527500Y-48260000D01*
X29507500Y-48260000D01*
X29507500Y-48006000D01*
X29527500Y-48006000D01*
X29527500Y-47986000D01*
X29781500Y-47986000D01*
X29781500Y-48006000D01*
G37*
X29781500Y-48006000D02*
X29801500Y-48006000D01*
X29801500Y-48260000D01*
X29781500Y-48260000D01*
X29781500Y-48280000D01*
X29527500Y-48280000D01*
X29527500Y-48260000D01*
X29507500Y-48260000D01*
X29507500Y-48006000D01*
X29527500Y-48006000D01*
X29527500Y-47986000D01*
X29781500Y-47986000D01*
X29781500Y-48006000D01*
M02*
