G04 #@! TF.GenerationSoftware,KiCad,Pcbnew,(5.99.0-434-g6ad8b170c)*
G04 #@! TF.CreationDate,2019-12-25T22:45:19+01:00*
G04 #@! TF.ProjectId,DeniseAdapter,44656e69-7365-4416-9461-707465722e6b,rev?*
G04 #@! TF.SameCoordinates,Original*
G04 #@! TF.FileFunction,Copper,L2,Bot*
G04 #@! TF.FilePolarity,Positive*
%FSLAX46Y46*%
G04 Gerber Fmt 4.6, Leading zero omitted, Abs format (unit mm)*
G04 Created by KiCad (PCBNEW (5.99.0-434-g6ad8b170c)) date 2019-12-25 22:45:19*
%MOMM*%
%LPD*%
G04 APERTURE LIST*
%ADD10C,1.422400*%
%ADD11R,1.422400X1.422400*%
%ADD12O,1.600000X1.600000*%
%ADD13R,1.600000X1.600000*%
%ADD14C,0.800000*%
%ADD15C,0.250000*%
%ADD16C,0.254000*%
G04 APERTURE END LIST*
D10*
X46320000Y-52200000D03*
X46320000Y-54740000D03*
X46320000Y-57280000D03*
X46320000Y-59820000D03*
X46320000Y-62360000D03*
X46320000Y-64900000D03*
X43780000Y-49660000D03*
X43780000Y-54740000D03*
X43780000Y-57280000D03*
X43780000Y-59820000D03*
X43780000Y-62360000D03*
X43780000Y-64900000D03*
X43780000Y-67440000D03*
X43780000Y-69980000D03*
X41240000Y-69980000D03*
X38700000Y-69980000D03*
X36160000Y-69980000D03*
X33620000Y-69980000D03*
X31080000Y-69980000D03*
X28540000Y-69980000D03*
X46320000Y-67440000D03*
X41240000Y-67440000D03*
X38700000Y-67440000D03*
X36160000Y-67440000D03*
X33620000Y-67440000D03*
X31080000Y-67440000D03*
X28540000Y-67440000D03*
X26000000Y-67440000D03*
X26000000Y-64900000D03*
X26000000Y-62360000D03*
X26000000Y-59820000D03*
X26000000Y-57280000D03*
X26000000Y-54740000D03*
X26000000Y-52200000D03*
X28540000Y-64900000D03*
X28540000Y-62360000D03*
X28540000Y-59820000D03*
X28540000Y-57280000D03*
X28540000Y-54740000D03*
X28540000Y-52200000D03*
X41240000Y-49660000D03*
X38700000Y-49660000D03*
X28540000Y-49660000D03*
X31080000Y-49660000D03*
X33620000Y-49660000D03*
D11*
X36160000Y-49660000D03*
D10*
X43780000Y-52200000D03*
X41240000Y-52200000D03*
X38700000Y-52200000D03*
X31080000Y-52200000D03*
X33620000Y-52200000D03*
X36160000Y-52200000D03*
D12*
X45030000Y-30608000D03*
X29790000Y-89028000D03*
X45030000Y-33148000D03*
X29790000Y-86488000D03*
X45030000Y-35688000D03*
X29790000Y-83948000D03*
X45030000Y-38228000D03*
X29790000Y-81408000D03*
X45030000Y-40768000D03*
X29790000Y-78868000D03*
X45030000Y-43308000D03*
X29790000Y-76328000D03*
X45030000Y-45848000D03*
X29790000Y-73788000D03*
X45030000Y-48388000D03*
X29790000Y-71248000D03*
X45030000Y-50928000D03*
X29790000Y-68708000D03*
X45030000Y-53468000D03*
X29790000Y-66168000D03*
X45030000Y-56008000D03*
X29790000Y-63628000D03*
X45030000Y-58548000D03*
X29790000Y-61088000D03*
X45030000Y-61088000D03*
X29790000Y-58548000D03*
X45030000Y-63628000D03*
X29790000Y-56008000D03*
X45030000Y-66168000D03*
X29790000Y-53468000D03*
X45030000Y-68708000D03*
X29790000Y-50928000D03*
X45030000Y-71248000D03*
X29790000Y-48388000D03*
X45030000Y-73788000D03*
X29790000Y-45848000D03*
X45030000Y-76328000D03*
X29790000Y-43308000D03*
X45030000Y-78868000D03*
X29790000Y-40768000D03*
X45030000Y-81408000D03*
X29790000Y-38228000D03*
X45030000Y-83948000D03*
X29790000Y-35688000D03*
X45030000Y-86488000D03*
X29790000Y-33148000D03*
X45030000Y-89028000D03*
D13*
X29790000Y-30608000D03*
D14*
X35560000Y-73660000D03*
X48260000Y-61595000D03*
X37465000Y-45720000D03*
X43180000Y-47625000D03*
X36195000Y-59690000D03*
D15*
X45030000Y-58548000D02*
X48077000Y-61595000D01*
X48077000Y-61595000D02*
X48260000Y-61595000D01*
X37465000Y-45720000D02*
X34925000Y-48260000D01*
X34925000Y-48260000D02*
X34925000Y-55245000D01*
X34925000Y-55245000D02*
X33655000Y-56515000D01*
X33655000Y-56515000D02*
X33655000Y-62230000D01*
X41275000Y-55880000D02*
X41275000Y-59690000D01*
X41275000Y-59690000D02*
X38735000Y-62230000D01*
X39736201Y-54341201D02*
X41275000Y-55880000D01*
X37465000Y-46355000D02*
X39736201Y-48626201D01*
X39736201Y-48626201D02*
X39736201Y-54341201D01*
X37465000Y-45720000D02*
X37465000Y-46355000D01*
X32385000Y-53340000D02*
X33655000Y-54610000D01*
X33655000Y-54610000D02*
X33655000Y-57150000D01*
X32385000Y-49361422D02*
X32385000Y-53340000D01*
X37465000Y-45720000D02*
X36026422Y-45720000D01*
X36026422Y-45720000D02*
X32385000Y-49361422D01*
X43180000Y-47625000D02*
X43180000Y-42618000D01*
X43180000Y-42618000D02*
X45030000Y-40768000D01*
X46320000Y-54740000D02*
X47356201Y-53703799D01*
X47356201Y-53703799D02*
X47356201Y-50714201D01*
X47356201Y-50714201D02*
X45829999Y-49187999D01*
X45829999Y-49187999D02*
X45030000Y-48388000D01*
X43780000Y-57280000D02*
X42743799Y-56243799D01*
X42743799Y-51702623D02*
X43518422Y-50928000D01*
X42743799Y-56243799D02*
X42743799Y-51702623D01*
X43518422Y-50928000D02*
X45030000Y-50928000D01*
X45030000Y-58548000D02*
X40133000Y-58548000D01*
X40133000Y-58548000D02*
X38735000Y-57150000D01*
X29790000Y-73788000D02*
X32116201Y-71461799D01*
X32116201Y-71461799D02*
X32116201Y-66829199D01*
X30187002Y-64900000D02*
X28540000Y-64900000D01*
X32116201Y-66829199D02*
X30187002Y-64900000D01*
X29790000Y-78868000D02*
X27725711Y-76803711D01*
X27725711Y-70699289D02*
X27503799Y-70477377D01*
X27725711Y-76803711D02*
X27725711Y-70699289D01*
X27503799Y-70477377D02*
X27503799Y-68476201D01*
X27503799Y-68476201D02*
X27828801Y-68151199D01*
X27828801Y-68151199D02*
X28540000Y-67440000D01*
X28540000Y-69980000D02*
X28540000Y-75078000D01*
X28540000Y-75078000D02*
X29790000Y-76328000D01*
X29790000Y-50928000D02*
X28278422Y-50928000D01*
X28278422Y-50928000D02*
X27305000Y-51901422D01*
X26711199Y-54028801D02*
X26000000Y-54740000D01*
X27305000Y-51901422D02*
X27305000Y-53435000D01*
X27305000Y-53435000D02*
X26711199Y-54028801D01*
X34656201Y-72756201D02*
X34656201Y-66406201D01*
X35560000Y-73660000D02*
X34656201Y-72756201D01*
X34656201Y-66406201D02*
X31750000Y-63500000D01*
X31750000Y-63500000D02*
X31750000Y-59055000D01*
X31750000Y-59055000D02*
X33655000Y-57150000D01*
X35154999Y-63729999D02*
X33655000Y-62230000D01*
X37196201Y-65771201D02*
X35154999Y-63729999D01*
X37196201Y-72023799D02*
X37196201Y-65771201D01*
X35560000Y-73660000D02*
X37196201Y-72023799D01*
X38735000Y-64351320D02*
X38735000Y-62230000D01*
X39736201Y-65352521D02*
X38735000Y-64351320D01*
X39736201Y-70477377D02*
X39736201Y-65352521D01*
X36553578Y-73660000D02*
X39736201Y-70477377D01*
X35560000Y-73660000D02*
X36553578Y-73660000D01*
X35560000Y-73660000D02*
X39370000Y-73660000D01*
X39370000Y-73660000D02*
X42545000Y-70485000D01*
X42545000Y-70485000D02*
X42545000Y-66040000D01*
X42545000Y-66040000D02*
X41275000Y-64770000D01*
X41275000Y-64770000D02*
X41275000Y-59690000D01*
X41275000Y-59690000D02*
X38735000Y-57150000D01*
X38735000Y-57150000D02*
X36195000Y-59690000D01*
G36*
X47626001Y-44390887D02*
G01*
X47620085Y-44422453D01*
X47626001Y-44481876D01*
X47626001Y-44495446D01*
X47630432Y-44526388D01*
X47638074Y-44603164D01*
X47643271Y-44616034D01*
X47645237Y-44629768D01*
X47677172Y-44700004D01*
X47706060Y-44771560D01*
X47714657Y-44782452D01*
X47720402Y-44795087D01*
X47770758Y-44853527D01*
X47818818Y-44914414D01*
X47829962Y-44922236D01*
X47838948Y-44932665D01*
X47915642Y-44982375D01*
X47936837Y-44997252D01*
X47944524Y-45001095D01*
X47991338Y-45031439D01*
X48025861Y-45041764D01*
X50166000Y-46111833D01*
X50166001Y-73268167D01*
X48029340Y-74336497D01*
X47998461Y-74345322D01*
X47947956Y-74377189D01*
X47935820Y-74383256D01*
X47910141Y-74401048D01*
X47844874Y-74442228D01*
X47835683Y-74452635D01*
X47824279Y-74460535D01*
X47775745Y-74520501D01*
X47724658Y-74578346D01*
X47718758Y-74590911D01*
X47710028Y-74601698D01*
X47680279Y-74672869D01*
X47647311Y-74743092D01*
X47645299Y-74756553D01*
X47639991Y-74769252D01*
X47629829Y-74860068D01*
X47626000Y-74885687D01*
X47626000Y-74894289D01*
X47619796Y-74949729D01*
X47626000Y-74985221D01*
X47626001Y-90806000D01*
X27304000Y-90806000D01*
X27304000Y-77455386D01*
X28391249Y-78542636D01*
X28356000Y-78742541D01*
X28356000Y-78993459D01*
X28399571Y-79240564D01*
X28485391Y-79476349D01*
X28610850Y-79693651D01*
X28772136Y-79885864D01*
X28964349Y-80047150D01*
X29121706Y-80138000D01*
X28964349Y-80228850D01*
X28772136Y-80390136D01*
X28610850Y-80582349D01*
X28485391Y-80799651D01*
X28399571Y-81035436D01*
X28356000Y-81282541D01*
X28356000Y-81533459D01*
X28399571Y-81780564D01*
X28485391Y-82016349D01*
X28610850Y-82233651D01*
X28772136Y-82425864D01*
X28964349Y-82587150D01*
X29121706Y-82678000D01*
X28964349Y-82768850D01*
X28772136Y-82930136D01*
X28610850Y-83122349D01*
X28485391Y-83339651D01*
X28399571Y-83575436D01*
X28356000Y-83822541D01*
X28356000Y-84073459D01*
X28399571Y-84320564D01*
X28485391Y-84556349D01*
X28610850Y-84773651D01*
X28772136Y-84965864D01*
X28964349Y-85127150D01*
X29121706Y-85218000D01*
X28964349Y-85308850D01*
X28772136Y-85470136D01*
X28610850Y-85662349D01*
X28485391Y-85879651D01*
X28399571Y-86115436D01*
X28356000Y-86362541D01*
X28356000Y-86613459D01*
X28399571Y-86860564D01*
X28485391Y-87096349D01*
X28610850Y-87313651D01*
X28772136Y-87505864D01*
X28964349Y-87667150D01*
X29121706Y-87758000D01*
X28964349Y-87848850D01*
X28772136Y-88010136D01*
X28610850Y-88202349D01*
X28485391Y-88419651D01*
X28399571Y-88655436D01*
X28356000Y-88902541D01*
X28356000Y-89153459D01*
X28399571Y-89400564D01*
X28485391Y-89636349D01*
X28610850Y-89853651D01*
X28772136Y-90045864D01*
X28964349Y-90207150D01*
X29181651Y-90332609D01*
X29417436Y-90418429D01*
X29664541Y-90462000D01*
X29915459Y-90462000D01*
X30162564Y-90418429D01*
X30398349Y-90332609D01*
X30615651Y-90207150D01*
X30807864Y-90045864D01*
X30969150Y-89853651D01*
X31094609Y-89636349D01*
X31180429Y-89400564D01*
X31224000Y-89153459D01*
X31224000Y-88902541D01*
X31180429Y-88655436D01*
X31094609Y-88419651D01*
X30969150Y-88202349D01*
X30807864Y-88010136D01*
X30615651Y-87848850D01*
X30458294Y-87758000D01*
X30615651Y-87667150D01*
X30807864Y-87505864D01*
X30969150Y-87313651D01*
X31094609Y-87096349D01*
X31180429Y-86860564D01*
X31224000Y-86613459D01*
X31224000Y-86362541D01*
X31180429Y-86115436D01*
X31094609Y-85879651D01*
X30969150Y-85662349D01*
X30807864Y-85470136D01*
X30615651Y-85308850D01*
X30458294Y-85218000D01*
X30615651Y-85127150D01*
X30807864Y-84965864D01*
X30969150Y-84773651D01*
X31094609Y-84556349D01*
X31180429Y-84320564D01*
X31224000Y-84073459D01*
X31224000Y-83822541D01*
X31180429Y-83575436D01*
X31094609Y-83339651D01*
X30969150Y-83122349D01*
X30807864Y-82930136D01*
X30615651Y-82768850D01*
X30458294Y-82678000D01*
X30615651Y-82587150D01*
X30807864Y-82425864D01*
X30969150Y-82233651D01*
X31094609Y-82016349D01*
X31180429Y-81780564D01*
X31224000Y-81533459D01*
X31224000Y-81282541D01*
X31180429Y-81035436D01*
X31094609Y-80799651D01*
X30969150Y-80582349D01*
X30807864Y-80390136D01*
X30615651Y-80228850D01*
X30458294Y-80138000D01*
X30615651Y-80047150D01*
X30807864Y-79885864D01*
X30969150Y-79693651D01*
X31094609Y-79476349D01*
X31180429Y-79240564D01*
X31224000Y-78993459D01*
X31224000Y-78742541D01*
X31180429Y-78495436D01*
X31094609Y-78259651D01*
X30969150Y-78042349D01*
X30807864Y-77850136D01*
X30615651Y-77688850D01*
X30458294Y-77598000D01*
X30615651Y-77507150D01*
X30807864Y-77345864D01*
X30969150Y-77153651D01*
X31094609Y-76936349D01*
X31180429Y-76700564D01*
X31224000Y-76453459D01*
X31224000Y-76202541D01*
X31180429Y-75955436D01*
X31094609Y-75719651D01*
X30969150Y-75502349D01*
X30807864Y-75310136D01*
X30615651Y-75148850D01*
X30458294Y-75058000D01*
X30615651Y-74967150D01*
X30807864Y-74805864D01*
X30969150Y-74613651D01*
X31094609Y-74396349D01*
X31180429Y-74160564D01*
X31224000Y-73913459D01*
X31224000Y-73662541D01*
X31188751Y-73462635D01*
X32688119Y-71963268D01*
X32737899Y-71913489D01*
X32765355Y-71859603D01*
X32800904Y-71810674D01*
X32819592Y-71753157D01*
X32847051Y-71699267D01*
X32856513Y-71639524D01*
X32875200Y-71582013D01*
X32875200Y-71522049D01*
X32875201Y-71522043D01*
X32875201Y-71101091D01*
X32938571Y-71146126D01*
X33155844Y-71248367D01*
X33387788Y-71310516D01*
X33627071Y-71330609D01*
X33866132Y-71308012D01*
X34097413Y-71243436D01*
X34313603Y-71138926D01*
X34507870Y-70997783D01*
X34674071Y-70824470D01*
X34806955Y-70624464D01*
X34889457Y-70433813D01*
X34979859Y-70636858D01*
X35114830Y-70835462D01*
X35282837Y-71007025D01*
X35478571Y-71146126D01*
X35695844Y-71248367D01*
X35927788Y-71310516D01*
X36167071Y-71330609D01*
X36406132Y-71308012D01*
X36637413Y-71243436D01*
X36853603Y-71138926D01*
X37047870Y-70997783D01*
X37214071Y-70824470D01*
X37346955Y-70624464D01*
X37429457Y-70433813D01*
X37519859Y-70636858D01*
X37654830Y-70835462D01*
X37822837Y-71007025D01*
X38018571Y-71146126D01*
X38235844Y-71248367D01*
X38467788Y-71310516D01*
X38707071Y-71330609D01*
X38946132Y-71308012D01*
X39177413Y-71243436D01*
X39393603Y-71138926D01*
X39587870Y-70997783D01*
X39754071Y-70824470D01*
X39886955Y-70624464D01*
X39969457Y-70433813D01*
X40059859Y-70636858D01*
X40194830Y-70835462D01*
X40362837Y-71007025D01*
X40558571Y-71146126D01*
X40775844Y-71248367D01*
X41007788Y-71310516D01*
X41247071Y-71330609D01*
X41486132Y-71308012D01*
X41717413Y-71243436D01*
X41933603Y-71138926D01*
X42127870Y-70997783D01*
X42294071Y-70824470D01*
X42426955Y-70624464D01*
X42509457Y-70433813D01*
X42599859Y-70636858D01*
X42734830Y-70835462D01*
X42902837Y-71007025D01*
X43098571Y-71146126D01*
X43315844Y-71248367D01*
X43547788Y-71310516D01*
X43596000Y-71314564D01*
X43596000Y-71373459D01*
X43639571Y-71620564D01*
X43725391Y-71856349D01*
X43850850Y-72073651D01*
X44012136Y-72265864D01*
X44204349Y-72427150D01*
X44361706Y-72518000D01*
X44204349Y-72608850D01*
X44012136Y-72770136D01*
X43850850Y-72962349D01*
X43725391Y-73179651D01*
X43639571Y-73415436D01*
X43596000Y-73662541D01*
X43596000Y-73913459D01*
X43639571Y-74160564D01*
X43725391Y-74396349D01*
X43850850Y-74613651D01*
X44012136Y-74805864D01*
X44204349Y-74967150D01*
X44361706Y-75058000D01*
X44204349Y-75148850D01*
X44012136Y-75310136D01*
X43850850Y-75502349D01*
X43725391Y-75719651D01*
X43639571Y-75955436D01*
X43596000Y-76202541D01*
X43596000Y-76453459D01*
X43639571Y-76700564D01*
X43725391Y-76936349D01*
X43850850Y-77153651D01*
X44012136Y-77345864D01*
X44204349Y-77507150D01*
X44361706Y-77598000D01*
X44204349Y-77688850D01*
X44012136Y-77850136D01*
X43850850Y-78042349D01*
X43725391Y-78259651D01*
X43639571Y-78495436D01*
X43596000Y-78742541D01*
X43596000Y-78993459D01*
X43639571Y-79240564D01*
X43725391Y-79476349D01*
X43850850Y-79693651D01*
X44012136Y-79885864D01*
X44204349Y-80047150D01*
X44361706Y-80138000D01*
X44204349Y-80228850D01*
X44012136Y-80390136D01*
X43850850Y-80582349D01*
X43725391Y-80799651D01*
X43639571Y-81035436D01*
X43596000Y-81282541D01*
X43596000Y-81533459D01*
X43639571Y-81780564D01*
X43725391Y-82016349D01*
X43850850Y-82233651D01*
X44012136Y-82425864D01*
X44204349Y-82587150D01*
X44361706Y-82678000D01*
X44204349Y-82768850D01*
X44012136Y-82930136D01*
X43850850Y-83122349D01*
X43725391Y-83339651D01*
X43639571Y-83575436D01*
X43596000Y-83822541D01*
X43596000Y-84073459D01*
X43639571Y-84320564D01*
X43725391Y-84556349D01*
X43850850Y-84773651D01*
X44012136Y-84965864D01*
X44204349Y-85127150D01*
X44361706Y-85218000D01*
X44204349Y-85308850D01*
X44012136Y-85470136D01*
X43850850Y-85662349D01*
X43725391Y-85879651D01*
X43639571Y-86115436D01*
X43596000Y-86362541D01*
X43596000Y-86613459D01*
X43639571Y-86860564D01*
X43725391Y-87096349D01*
X43850850Y-87313651D01*
X44012136Y-87505864D01*
X44204349Y-87667150D01*
X44361706Y-87758000D01*
X44204349Y-87848850D01*
X44012136Y-88010136D01*
X43850850Y-88202349D01*
X43725391Y-88419651D01*
X43639571Y-88655436D01*
X43596000Y-88902541D01*
X43596000Y-89153459D01*
X43639571Y-89400564D01*
X43725391Y-89636349D01*
X43850850Y-89853651D01*
X44012136Y-90045864D01*
X44204349Y-90207150D01*
X44421651Y-90332609D01*
X44657436Y-90418429D01*
X44904541Y-90462000D01*
X45155459Y-90462000D01*
X45402564Y-90418429D01*
X45638349Y-90332609D01*
X45855651Y-90207150D01*
X46047864Y-90045864D01*
X46209150Y-89853651D01*
X46334609Y-89636349D01*
X46420429Y-89400564D01*
X46464000Y-89153459D01*
X46464000Y-88902541D01*
X46420429Y-88655436D01*
X46334609Y-88419651D01*
X46209150Y-88202349D01*
X46047864Y-88010136D01*
X45855651Y-87848850D01*
X45698294Y-87758000D01*
X45855651Y-87667150D01*
X46047864Y-87505864D01*
X46209150Y-87313651D01*
X46334609Y-87096349D01*
X46420429Y-86860564D01*
X46464000Y-86613459D01*
X46464000Y-86362541D01*
X46420429Y-86115436D01*
X46334609Y-85879651D01*
X46209150Y-85662349D01*
X46047864Y-85470136D01*
X45855651Y-85308850D01*
X45698294Y-85218000D01*
X45855651Y-85127150D01*
X46047864Y-84965864D01*
X46209150Y-84773651D01*
X46334609Y-84556349D01*
X46420429Y-84320564D01*
X46464000Y-84073459D01*
X46464000Y-83822541D01*
X46420429Y-83575436D01*
X46334609Y-83339651D01*
X46209150Y-83122349D01*
X46047864Y-82930136D01*
X45855651Y-82768850D01*
X45698294Y-82678000D01*
X45855651Y-82587150D01*
X46047864Y-82425864D01*
X46209150Y-82233651D01*
X46334609Y-82016349D01*
X46420429Y-81780564D01*
X46464000Y-81533459D01*
X46464000Y-81282541D01*
X46420429Y-81035436D01*
X46334609Y-80799651D01*
X46209150Y-80582349D01*
X46047864Y-80390136D01*
X45855651Y-80228850D01*
X45698294Y-80138000D01*
X45855651Y-80047150D01*
X46047864Y-79885864D01*
X46209150Y-79693651D01*
X46334609Y-79476349D01*
X46420429Y-79240564D01*
X46464000Y-78993459D01*
X46464000Y-78742541D01*
X46420429Y-78495436D01*
X46334609Y-78259651D01*
X46209150Y-78042349D01*
X46047864Y-77850136D01*
X45855651Y-77688850D01*
X45698294Y-77598000D01*
X45855651Y-77507150D01*
X46047864Y-77345864D01*
X46209150Y-77153651D01*
X46334609Y-76936349D01*
X46420429Y-76700564D01*
X46464000Y-76453459D01*
X46464000Y-76202541D01*
X46420429Y-75955436D01*
X46334609Y-75719651D01*
X46209150Y-75502349D01*
X46047864Y-75310136D01*
X45855651Y-75148850D01*
X45698294Y-75058000D01*
X45855651Y-74967150D01*
X46047864Y-74805864D01*
X46209150Y-74613651D01*
X46334609Y-74396349D01*
X46420429Y-74160564D01*
X46464000Y-73913459D01*
X46464000Y-73662541D01*
X46420429Y-73415436D01*
X46334609Y-73179651D01*
X46209150Y-72962349D01*
X46047864Y-72770136D01*
X45855651Y-72608850D01*
X45698294Y-72518000D01*
X45855651Y-72427150D01*
X46047864Y-72265864D01*
X46209150Y-72073651D01*
X46334609Y-71856349D01*
X46420429Y-71620564D01*
X46464000Y-71373459D01*
X46464000Y-71122541D01*
X46420429Y-70875436D01*
X46334609Y-70639651D01*
X46209150Y-70422349D01*
X46047864Y-70230136D01*
X45855651Y-70068850D01*
X45698294Y-69978000D01*
X45855651Y-69887150D01*
X46047864Y-69725864D01*
X46209150Y-69533651D01*
X46334609Y-69316349D01*
X46420429Y-69080564D01*
X46464000Y-68833459D01*
X46464000Y-68777666D01*
X46566132Y-68768012D01*
X46797413Y-68703436D01*
X47013603Y-68598926D01*
X47207870Y-68457783D01*
X47374071Y-68284470D01*
X47506955Y-68084464D01*
X47602320Y-67864087D01*
X47657534Y-67628685D01*
X47665576Y-67321575D01*
X47622758Y-67083606D01*
X47539057Y-66858540D01*
X47416822Y-66651853D01*
X47259919Y-66470078D01*
X47073306Y-66318963D01*
X46862882Y-66203281D01*
X46768485Y-66171513D01*
X46797413Y-66163436D01*
X47013603Y-66058926D01*
X47207870Y-65917783D01*
X47374071Y-65744470D01*
X47506955Y-65544464D01*
X47602320Y-65324087D01*
X47657534Y-65088685D01*
X47665576Y-64781575D01*
X47622758Y-64543606D01*
X47539057Y-64318540D01*
X47416822Y-64111853D01*
X47259919Y-63930078D01*
X47073306Y-63778963D01*
X46862882Y-63663281D01*
X46768485Y-63631513D01*
X46797413Y-63623436D01*
X47013603Y-63518926D01*
X47207870Y-63377783D01*
X47374071Y-63204470D01*
X47506955Y-63004464D01*
X47602320Y-62784087D01*
X47657534Y-62548685D01*
X47665576Y-62241575D01*
X47622758Y-62003606D01*
X47539057Y-61778540D01*
X47416822Y-61571853D01*
X47259919Y-61390078D01*
X47073306Y-61238963D01*
X46862882Y-61123281D01*
X46768485Y-61091513D01*
X46797413Y-61083436D01*
X47013603Y-60978926D01*
X47178270Y-60859289D01*
X46138980Y-59820000D01*
X46501019Y-59820000D01*
X47362662Y-60681643D01*
X47506955Y-60464464D01*
X47602320Y-60244087D01*
X47657534Y-60008685D01*
X47665576Y-59701575D01*
X47622758Y-59463606D01*
X47539057Y-59238540D01*
X47369383Y-58951636D01*
X46501019Y-59820000D01*
X46138980Y-59820000D01*
X47193784Y-58765197D01*
X46862882Y-58583281D01*
X46768485Y-58551513D01*
X46797413Y-58543436D01*
X47013603Y-58438926D01*
X47207870Y-58297783D01*
X47374071Y-58124470D01*
X47506955Y-57924464D01*
X47602320Y-57704087D01*
X47657534Y-57468685D01*
X47665576Y-57161575D01*
X47622758Y-56923606D01*
X47539057Y-56698540D01*
X47416822Y-56491853D01*
X47259919Y-56310078D01*
X47073306Y-56158963D01*
X46862882Y-56043281D01*
X46768485Y-56011513D01*
X46797413Y-56003436D01*
X47013603Y-55898926D01*
X47207870Y-55757783D01*
X47374071Y-55584470D01*
X47506955Y-55384464D01*
X47602320Y-55164087D01*
X47657534Y-54928685D01*
X47665576Y-54621575D01*
X47642129Y-54491259D01*
X47939089Y-54194300D01*
X47939092Y-54194296D01*
X47977899Y-54155489D01*
X48005354Y-54101604D01*
X48040904Y-54052674D01*
X48059593Y-53995157D01*
X48087051Y-53941266D01*
X48096511Y-53881534D01*
X48115201Y-53824013D01*
X48115201Y-50593987D01*
X48096511Y-50536466D01*
X48087051Y-50476734D01*
X48059593Y-50422843D01*
X48040904Y-50365326D01*
X48005354Y-50316396D01*
X47977899Y-50262511D01*
X47934458Y-50219070D01*
X47934452Y-50219063D01*
X46428751Y-48713364D01*
X46464000Y-48513459D01*
X46464000Y-48262541D01*
X46420429Y-48015436D01*
X46334609Y-47779651D01*
X46209150Y-47562349D01*
X46047864Y-47370136D01*
X45855651Y-47208850D01*
X45698294Y-47118000D01*
X45855651Y-47027150D01*
X46047864Y-46865864D01*
X46209150Y-46673651D01*
X46334609Y-46456349D01*
X46420429Y-46220564D01*
X46464000Y-45973459D01*
X46464000Y-45722541D01*
X46420429Y-45475436D01*
X46334609Y-45239651D01*
X46209150Y-45022349D01*
X46047864Y-44830136D01*
X45855651Y-44668850D01*
X45698294Y-44578000D01*
X45855651Y-44487150D01*
X46047864Y-44325864D01*
X46209150Y-44133651D01*
X46334609Y-43916349D01*
X46420429Y-43680564D01*
X46464000Y-43433459D01*
X46464000Y-43182541D01*
X46420429Y-42935436D01*
X46334609Y-42699651D01*
X46209150Y-42482349D01*
X46047864Y-42290136D01*
X45855651Y-42128850D01*
X45698294Y-42038000D01*
X45855651Y-41947150D01*
X46047864Y-41785864D01*
X46209150Y-41593651D01*
X46334609Y-41376349D01*
X46420429Y-41140564D01*
X46464000Y-40893459D01*
X46464000Y-40642541D01*
X46420429Y-40395436D01*
X46334609Y-40159651D01*
X46209150Y-39942349D01*
X46047864Y-39750136D01*
X45855651Y-39588850D01*
X45698294Y-39498000D01*
X45855651Y-39407150D01*
X46047864Y-39245864D01*
X46209150Y-39053651D01*
X46334609Y-38836349D01*
X46420429Y-38600564D01*
X46464000Y-38353459D01*
X46464000Y-38102541D01*
X46420429Y-37855436D01*
X46334609Y-37619651D01*
X46209150Y-37402349D01*
X46047864Y-37210136D01*
X45855651Y-37048850D01*
X45698294Y-36958000D01*
X45855651Y-36867150D01*
X46047864Y-36705864D01*
X46209150Y-36513651D01*
X46334609Y-36296349D01*
X46420429Y-36060564D01*
X46464000Y-35813459D01*
X46464000Y-35562541D01*
X46420429Y-35315436D01*
X46334609Y-35079651D01*
X46209150Y-34862349D01*
X46047864Y-34670136D01*
X45855651Y-34508850D01*
X45698294Y-34418000D01*
X45855651Y-34327150D01*
X46047864Y-34165864D01*
X46209150Y-33973651D01*
X46334609Y-33756349D01*
X46420429Y-33520564D01*
X46464000Y-33273459D01*
X46464000Y-33022541D01*
X46420429Y-32775436D01*
X46334609Y-32539651D01*
X46209150Y-32322349D01*
X46047864Y-32130136D01*
X45855651Y-31968850D01*
X45698294Y-31878000D01*
X45855651Y-31787150D01*
X46047864Y-31625864D01*
X46209150Y-31433651D01*
X46334609Y-31216349D01*
X46420429Y-30980564D01*
X46464000Y-30733459D01*
X46464000Y-30482541D01*
X46420429Y-30235436D01*
X46334609Y-29999651D01*
X46209150Y-29782349D01*
X46047864Y-29590136D01*
X45855651Y-29428850D01*
X45638349Y-29303391D01*
X45402564Y-29217571D01*
X45155459Y-29174000D01*
X44904541Y-29174000D01*
X44657436Y-29217571D01*
X44421651Y-29303391D01*
X44204349Y-29428850D01*
X44012136Y-29590136D01*
X43850850Y-29782349D01*
X43725391Y-29999651D01*
X43639571Y-30235436D01*
X43596000Y-30482541D01*
X43596000Y-30733459D01*
X43639571Y-30980564D01*
X43725391Y-31216349D01*
X43850850Y-31433651D01*
X44012136Y-31625864D01*
X44204349Y-31787150D01*
X44361706Y-31878000D01*
X44204349Y-31968850D01*
X44012136Y-32130136D01*
X43850850Y-32322349D01*
X43725391Y-32539651D01*
X43639571Y-32775436D01*
X43596000Y-33022541D01*
X43596000Y-33273459D01*
X43639571Y-33520564D01*
X43725391Y-33756349D01*
X43850850Y-33973651D01*
X44012136Y-34165864D01*
X44204349Y-34327150D01*
X44361706Y-34418000D01*
X44204349Y-34508850D01*
X44012136Y-34670136D01*
X43850850Y-34862349D01*
X43725391Y-35079651D01*
X43639571Y-35315436D01*
X43596000Y-35562541D01*
X43596000Y-35813459D01*
X43639571Y-36060564D01*
X43725391Y-36296349D01*
X43850850Y-36513651D01*
X44012136Y-36705864D01*
X44204349Y-36867150D01*
X44361706Y-36958000D01*
X44204349Y-37048850D01*
X44012136Y-37210136D01*
X43850850Y-37402349D01*
X43725391Y-37619651D01*
X43639571Y-37855436D01*
X43596000Y-38102541D01*
X43596000Y-38353459D01*
X43639571Y-38600564D01*
X43725391Y-38836349D01*
X43850850Y-39053651D01*
X44012136Y-39245864D01*
X44204349Y-39407150D01*
X44361706Y-39498000D01*
X44204349Y-39588850D01*
X44012136Y-39750136D01*
X43850850Y-39942349D01*
X43725391Y-40159651D01*
X43639571Y-40395436D01*
X43596000Y-40642541D01*
X43596000Y-40893459D01*
X43631249Y-41093363D01*
X42714199Y-42010414D01*
X42558303Y-42166310D01*
X42530849Y-42220194D01*
X42495297Y-42269125D01*
X42476608Y-42326645D01*
X42449151Y-42380533D01*
X42439690Y-42440268D01*
X42421001Y-42497787D01*
X42421001Y-42568184D01*
X42421000Y-46921704D01*
X42352594Y-46990109D01*
X42216466Y-47225891D01*
X42146000Y-47488872D01*
X42146000Y-47761128D01*
X42216466Y-48024109D01*
X42352594Y-48259891D01*
X42545109Y-48452406D01*
X42780891Y-48588534D01*
X42917824Y-48625225D01*
X42781034Y-48751010D01*
X42635853Y-48942279D01*
X42526839Y-49156233D01*
X42509414Y-49213947D01*
X42459057Y-49078540D01*
X42336822Y-48871853D01*
X42179919Y-48690078D01*
X41993306Y-48538963D01*
X41782882Y-48423281D01*
X41555298Y-48346690D01*
X41317748Y-48311612D01*
X41077740Y-48319154D01*
X40842861Y-48369079D01*
X40620535Y-48459809D01*
X40417790Y-48588475D01*
X40241034Y-48751010D01*
X40095853Y-48942279D01*
X39986839Y-49156233D01*
X39969414Y-49213947D01*
X39919057Y-49078540D01*
X39796822Y-48871853D01*
X39639919Y-48690078D01*
X39453306Y-48538963D01*
X39242882Y-48423281D01*
X39015298Y-48346690D01*
X38777748Y-48311612D01*
X38537740Y-48319154D01*
X38302861Y-48369079D01*
X38080535Y-48459809D01*
X37877790Y-48588475D01*
X37701034Y-48751010D01*
X37555853Y-48942279D01*
X37513037Y-49026311D01*
X37513037Y-48932212D01*
X37432405Y-48631289D01*
X37285015Y-48455635D01*
X37091386Y-48343844D01*
X36882224Y-48306963D01*
X35432212Y-48306963D01*
X35131289Y-48387595D01*
X34955635Y-48534985D01*
X34843844Y-48728614D01*
X34806963Y-48937776D01*
X34806963Y-49024272D01*
X34716822Y-48871853D01*
X34559919Y-48690078D01*
X34373306Y-48538963D01*
X34162882Y-48423281D01*
X33935298Y-48346690D01*
X33697748Y-48311612D01*
X33457740Y-48319154D01*
X33222861Y-48369079D01*
X33000535Y-48459809D01*
X32797790Y-48588475D01*
X32621034Y-48751010D01*
X32475853Y-48942279D01*
X32366839Y-49156233D01*
X32349414Y-49213947D01*
X32299057Y-49078540D01*
X32176822Y-48871853D01*
X32019919Y-48690078D01*
X31833306Y-48538963D01*
X31622882Y-48423281D01*
X31395298Y-48346690D01*
X31224000Y-48321395D01*
X31224000Y-48262541D01*
X31180429Y-48015436D01*
X31094609Y-47779651D01*
X30969150Y-47562349D01*
X30807864Y-47370136D01*
X30615651Y-47208850D01*
X30458294Y-47118000D01*
X30615651Y-47027150D01*
X30807864Y-46865864D01*
X30969150Y-46673651D01*
X31094609Y-46456349D01*
X31180429Y-46220564D01*
X31224000Y-45973459D01*
X31224000Y-45722541D01*
X31180429Y-45475436D01*
X31094609Y-45239651D01*
X30969150Y-45022349D01*
X30807864Y-44830136D01*
X30615651Y-44668850D01*
X30458294Y-44578000D01*
X30615651Y-44487150D01*
X30807864Y-44325864D01*
X30969150Y-44133651D01*
X31094609Y-43916349D01*
X31180429Y-43680564D01*
X31224000Y-43433459D01*
X31224000Y-43182541D01*
X31180429Y-42935436D01*
X31094609Y-42699651D01*
X30969150Y-42482349D01*
X30807864Y-42290136D01*
X30615651Y-42128850D01*
X30458294Y-42038000D01*
X30615651Y-41947150D01*
X30807864Y-41785864D01*
X30969150Y-41593651D01*
X31094609Y-41376349D01*
X31180429Y-41140564D01*
X31224000Y-40893459D01*
X31224000Y-40642541D01*
X31180429Y-40395436D01*
X31094609Y-40159651D01*
X30969150Y-39942349D01*
X30807864Y-39750136D01*
X30615651Y-39588850D01*
X30458294Y-39498000D01*
X30615651Y-39407150D01*
X30807864Y-39245864D01*
X30969150Y-39053651D01*
X31094609Y-38836349D01*
X31180429Y-38600564D01*
X31224000Y-38353459D01*
X31224000Y-38102541D01*
X31180429Y-37855436D01*
X31094609Y-37619651D01*
X30969150Y-37402349D01*
X30807864Y-37210136D01*
X30615651Y-37048850D01*
X30458294Y-36958000D01*
X30615651Y-36867150D01*
X30807864Y-36705864D01*
X30969150Y-36513651D01*
X31094609Y-36296349D01*
X31180429Y-36060564D01*
X31224000Y-35813459D01*
X31224000Y-35562541D01*
X31180429Y-35315436D01*
X31094609Y-35079651D01*
X30969150Y-34862349D01*
X30807864Y-34670136D01*
X30615651Y-34508850D01*
X30458294Y-34418000D01*
X30615651Y-34327150D01*
X30807864Y-34165864D01*
X30969150Y-33973651D01*
X31094609Y-33756349D01*
X31180429Y-33520564D01*
X31224000Y-33273459D01*
X31224000Y-33022541D01*
X31180429Y-32775436D01*
X31094609Y-32539651D01*
X30969150Y-32322349D01*
X30807864Y-32130136D01*
X30686613Y-32028394D01*
X30907512Y-31969205D01*
X31083165Y-31821815D01*
X31194956Y-31628186D01*
X31231837Y-31419024D01*
X31231837Y-29791412D01*
X31151205Y-29490489D01*
X31003815Y-29314835D01*
X30810186Y-29203044D01*
X30601024Y-29166163D01*
X28973412Y-29166163D01*
X28672489Y-29246795D01*
X28496835Y-29394185D01*
X28385044Y-29587814D01*
X28348163Y-29796976D01*
X28348163Y-31424588D01*
X28428795Y-31725512D01*
X28576185Y-31901165D01*
X28769814Y-32012956D01*
X28887132Y-32033642D01*
X28772136Y-32130136D01*
X28610850Y-32322349D01*
X28485391Y-32539651D01*
X28399571Y-32775436D01*
X28356000Y-33022541D01*
X28356000Y-33273459D01*
X28399571Y-33520564D01*
X28485391Y-33756349D01*
X28610850Y-33973651D01*
X28772136Y-34165864D01*
X28964349Y-34327150D01*
X29121706Y-34418000D01*
X28964349Y-34508850D01*
X28772136Y-34670136D01*
X28610850Y-34862349D01*
X28485391Y-35079651D01*
X28399571Y-35315436D01*
X28356000Y-35562541D01*
X28356000Y-35813459D01*
X28399571Y-36060564D01*
X28485391Y-36296349D01*
X28610850Y-36513651D01*
X28772136Y-36705864D01*
X28964349Y-36867150D01*
X29121706Y-36958000D01*
X28964349Y-37048850D01*
X28772136Y-37210136D01*
X28610850Y-37402349D01*
X28485391Y-37619651D01*
X28399571Y-37855436D01*
X28356000Y-38102541D01*
X28356000Y-38353459D01*
X28399571Y-38600564D01*
X28485391Y-38836349D01*
X28610850Y-39053651D01*
X28772136Y-39245864D01*
X28964349Y-39407150D01*
X29121706Y-39498000D01*
X28964349Y-39588850D01*
X28772136Y-39750136D01*
X28610850Y-39942349D01*
X28485391Y-40159651D01*
X28399571Y-40395436D01*
X28356000Y-40642541D01*
X28356000Y-40893459D01*
X28399571Y-41140564D01*
X28485391Y-41376349D01*
X28610850Y-41593651D01*
X28772136Y-41785864D01*
X28964349Y-41947150D01*
X29121706Y-42038000D01*
X28964349Y-42128850D01*
X28772136Y-42290136D01*
X28610850Y-42482349D01*
X28485391Y-42699651D01*
X28399571Y-42935436D01*
X28356000Y-43182541D01*
X28356000Y-43433459D01*
X28399571Y-43680564D01*
X28485391Y-43916349D01*
X28610850Y-44133651D01*
X28772136Y-44325864D01*
X28964349Y-44487150D01*
X29121706Y-44578000D01*
X28964349Y-44668850D01*
X28772136Y-44830136D01*
X28610850Y-45022349D01*
X28485391Y-45239651D01*
X28399571Y-45475436D01*
X28356000Y-45722541D01*
X28356000Y-45973459D01*
X28399571Y-46220564D01*
X28485391Y-46456349D01*
X28610850Y-46673651D01*
X28772136Y-46865864D01*
X28964349Y-47027150D01*
X29121706Y-47118000D01*
X28964349Y-47208850D01*
X28772136Y-47370136D01*
X28610850Y-47562349D01*
X28485391Y-47779651D01*
X28399571Y-48015436D01*
X28356000Y-48262541D01*
X28356000Y-48323775D01*
X28142861Y-48369079D01*
X27920535Y-48459809D01*
X27717790Y-48588475D01*
X27541034Y-48751010D01*
X27395853Y-48942279D01*
X27286839Y-49156233D01*
X27217435Y-49386110D01*
X27189835Y-49624645D01*
X27204913Y-49864297D01*
X27262190Y-50097492D01*
X27359859Y-50316858D01*
X27494830Y-50515462D01*
X27555558Y-50577475D01*
X26919496Y-51213539D01*
X26753306Y-51078963D01*
X26542882Y-50963281D01*
X26315298Y-50886690D01*
X26077748Y-50851612D01*
X25837740Y-50859154D01*
X25602861Y-50909079D01*
X25380535Y-50999809D01*
X25177790Y-51128475D01*
X25001034Y-51291010D01*
X24855853Y-51482279D01*
X24746839Y-51696233D01*
X24677435Y-51926110D01*
X24649835Y-52164645D01*
X24664913Y-52404297D01*
X24722190Y-52637492D01*
X24819859Y-52856858D01*
X24954830Y-53055462D01*
X25122837Y-53227025D01*
X25318571Y-53366126D01*
X25535844Y-53468367D01*
X25547768Y-53471562D01*
X25380535Y-53539809D01*
X25177790Y-53668475D01*
X25001034Y-53831010D01*
X24855853Y-54022279D01*
X24746839Y-54236233D01*
X24677435Y-54466110D01*
X24649835Y-54704645D01*
X24664913Y-54944297D01*
X24722190Y-55177492D01*
X24819859Y-55396858D01*
X24954830Y-55595462D01*
X25122837Y-55767025D01*
X25318571Y-55906126D01*
X25535844Y-56008367D01*
X25547768Y-56011562D01*
X25380535Y-56079809D01*
X25177790Y-56208475D01*
X25001034Y-56371010D01*
X24855853Y-56562279D01*
X24746839Y-56776233D01*
X24677435Y-57006110D01*
X24649835Y-57244645D01*
X24664913Y-57484297D01*
X24722190Y-57717492D01*
X24819859Y-57936858D01*
X24954830Y-58135462D01*
X25122837Y-58307025D01*
X25318571Y-58446126D01*
X25535844Y-58548367D01*
X25547768Y-58551562D01*
X25380535Y-58619809D01*
X25177790Y-58748475D01*
X25001034Y-58911010D01*
X24855853Y-59102279D01*
X24746839Y-59316233D01*
X24677435Y-59546110D01*
X24649835Y-59784645D01*
X24664913Y-60024297D01*
X24722190Y-60257492D01*
X24819859Y-60476858D01*
X24954830Y-60675462D01*
X25122837Y-60847025D01*
X25318571Y-60986126D01*
X25535844Y-61088367D01*
X25547768Y-61091562D01*
X25380535Y-61159809D01*
X25177790Y-61288475D01*
X25001034Y-61451010D01*
X24855853Y-61642279D01*
X24746839Y-61856233D01*
X24677435Y-62086110D01*
X24649835Y-62324645D01*
X24664913Y-62564297D01*
X24722190Y-62797492D01*
X24819859Y-63016858D01*
X24954830Y-63215462D01*
X25122837Y-63387025D01*
X25318571Y-63526126D01*
X25535844Y-63628367D01*
X25547768Y-63631562D01*
X25380535Y-63699809D01*
X25177790Y-63828475D01*
X25001034Y-63991010D01*
X24855853Y-64182279D01*
X24746839Y-64396233D01*
X24677435Y-64626110D01*
X24649835Y-64864645D01*
X24664913Y-65104297D01*
X24722190Y-65337492D01*
X24819859Y-65556858D01*
X24954830Y-65755462D01*
X25122837Y-65927025D01*
X25318571Y-66066126D01*
X25535844Y-66168367D01*
X25547768Y-66171562D01*
X25380535Y-66239809D01*
X25177790Y-66368475D01*
X25001034Y-66531010D01*
X24855853Y-66722279D01*
X24746839Y-66936233D01*
X24677435Y-67166110D01*
X24649835Y-67404645D01*
X24664913Y-67644297D01*
X24722190Y-67877492D01*
X24819859Y-68096858D01*
X24954830Y-68295462D01*
X25122837Y-68467025D01*
X25318571Y-68606126D01*
X25535844Y-68708367D01*
X25767788Y-68770516D01*
X26007071Y-68790609D01*
X26246132Y-68768012D01*
X26477413Y-68703436D01*
X26693603Y-68598926D01*
X26744800Y-68561729D01*
X26744799Y-70537620D01*
X26744800Y-70537626D01*
X26744800Y-70597590D01*
X26763487Y-70655101D01*
X26772949Y-70714844D01*
X26800408Y-70768734D01*
X26819096Y-70826251D01*
X26854645Y-70875180D01*
X26882101Y-70929066D01*
X26966712Y-71013678D01*
X26966711Y-75636741D01*
X26938663Y-75618562D01*
X26904148Y-75608239D01*
X22224000Y-73268167D01*
X22224000Y-46111834D01*
X26900663Y-43773502D01*
X26931539Y-43764677D01*
X26982043Y-43732812D01*
X26994181Y-43726743D01*
X27019875Y-43708942D01*
X27085123Y-43667774D01*
X27094314Y-43657369D01*
X27105722Y-43649464D01*
X27154261Y-43589493D01*
X27205342Y-43531653D01*
X27211240Y-43519092D01*
X27219972Y-43508303D01*
X27249728Y-43437116D01*
X27282689Y-43366910D01*
X27284701Y-43353448D01*
X27290009Y-43340749D01*
X27300172Y-43249929D01*
X27304000Y-43224313D01*
X27304000Y-43215711D01*
X27310204Y-43160272D01*
X27304000Y-43124779D01*
X27304000Y-28574000D01*
X47626000Y-28574000D01*
X47626001Y-44390887D01*
G37*
D16*
X47626001Y-44390887D02*
X47620085Y-44422453D01*
X47626001Y-44481876D01*
X47626001Y-44495446D01*
X47630432Y-44526388D01*
X47638074Y-44603164D01*
X47643271Y-44616034D01*
X47645237Y-44629768D01*
X47677172Y-44700004D01*
X47706060Y-44771560D01*
X47714657Y-44782452D01*
X47720402Y-44795087D01*
X47770758Y-44853527D01*
X47818818Y-44914414D01*
X47829962Y-44922236D01*
X47838948Y-44932665D01*
X47915642Y-44982375D01*
X47936837Y-44997252D01*
X47944524Y-45001095D01*
X47991338Y-45031439D01*
X48025861Y-45041764D01*
X50166000Y-46111833D01*
X50166001Y-73268167D01*
X48029340Y-74336497D01*
X47998461Y-74345322D01*
X47947956Y-74377189D01*
X47935820Y-74383256D01*
X47910141Y-74401048D01*
X47844874Y-74442228D01*
X47835683Y-74452635D01*
X47824279Y-74460535D01*
X47775745Y-74520501D01*
X47724658Y-74578346D01*
X47718758Y-74590911D01*
X47710028Y-74601698D01*
X47680279Y-74672869D01*
X47647311Y-74743092D01*
X47645299Y-74756553D01*
X47639991Y-74769252D01*
X47629829Y-74860068D01*
X47626000Y-74885687D01*
X47626000Y-74894289D01*
X47619796Y-74949729D01*
X47626000Y-74985221D01*
X47626001Y-90806000D01*
X27304000Y-90806000D01*
X27304000Y-77455386D01*
X28391249Y-78542636D01*
X28356000Y-78742541D01*
X28356000Y-78993459D01*
X28399571Y-79240564D01*
X28485391Y-79476349D01*
X28610850Y-79693651D01*
X28772136Y-79885864D01*
X28964349Y-80047150D01*
X29121706Y-80138000D01*
X28964349Y-80228850D01*
X28772136Y-80390136D01*
X28610850Y-80582349D01*
X28485391Y-80799651D01*
X28399571Y-81035436D01*
X28356000Y-81282541D01*
X28356000Y-81533459D01*
X28399571Y-81780564D01*
X28485391Y-82016349D01*
X28610850Y-82233651D01*
X28772136Y-82425864D01*
X28964349Y-82587150D01*
X29121706Y-82678000D01*
X28964349Y-82768850D01*
X28772136Y-82930136D01*
X28610850Y-83122349D01*
X28485391Y-83339651D01*
X28399571Y-83575436D01*
X28356000Y-83822541D01*
X28356000Y-84073459D01*
X28399571Y-84320564D01*
X28485391Y-84556349D01*
X28610850Y-84773651D01*
X28772136Y-84965864D01*
X28964349Y-85127150D01*
X29121706Y-85218000D01*
X28964349Y-85308850D01*
X28772136Y-85470136D01*
X28610850Y-85662349D01*
X28485391Y-85879651D01*
X28399571Y-86115436D01*
X28356000Y-86362541D01*
X28356000Y-86613459D01*
X28399571Y-86860564D01*
X28485391Y-87096349D01*
X28610850Y-87313651D01*
X28772136Y-87505864D01*
X28964349Y-87667150D01*
X29121706Y-87758000D01*
X28964349Y-87848850D01*
X28772136Y-88010136D01*
X28610850Y-88202349D01*
X28485391Y-88419651D01*
X28399571Y-88655436D01*
X28356000Y-88902541D01*
X28356000Y-89153459D01*
X28399571Y-89400564D01*
X28485391Y-89636349D01*
X28610850Y-89853651D01*
X28772136Y-90045864D01*
X28964349Y-90207150D01*
X29181651Y-90332609D01*
X29417436Y-90418429D01*
X29664541Y-90462000D01*
X29915459Y-90462000D01*
X30162564Y-90418429D01*
X30398349Y-90332609D01*
X30615651Y-90207150D01*
X30807864Y-90045864D01*
X30969150Y-89853651D01*
X31094609Y-89636349D01*
X31180429Y-89400564D01*
X31224000Y-89153459D01*
X31224000Y-88902541D01*
X31180429Y-88655436D01*
X31094609Y-88419651D01*
X30969150Y-88202349D01*
X30807864Y-88010136D01*
X30615651Y-87848850D01*
X30458294Y-87758000D01*
X30615651Y-87667150D01*
X30807864Y-87505864D01*
X30969150Y-87313651D01*
X31094609Y-87096349D01*
X31180429Y-86860564D01*
X31224000Y-86613459D01*
X31224000Y-86362541D01*
X31180429Y-86115436D01*
X31094609Y-85879651D01*
X30969150Y-85662349D01*
X30807864Y-85470136D01*
X30615651Y-85308850D01*
X30458294Y-85218000D01*
X30615651Y-85127150D01*
X30807864Y-84965864D01*
X30969150Y-84773651D01*
X31094609Y-84556349D01*
X31180429Y-84320564D01*
X31224000Y-84073459D01*
X31224000Y-83822541D01*
X31180429Y-83575436D01*
X31094609Y-83339651D01*
X30969150Y-83122349D01*
X30807864Y-82930136D01*
X30615651Y-82768850D01*
X30458294Y-82678000D01*
X30615651Y-82587150D01*
X30807864Y-82425864D01*
X30969150Y-82233651D01*
X31094609Y-82016349D01*
X31180429Y-81780564D01*
X31224000Y-81533459D01*
X31224000Y-81282541D01*
X31180429Y-81035436D01*
X31094609Y-80799651D01*
X30969150Y-80582349D01*
X30807864Y-80390136D01*
X30615651Y-80228850D01*
X30458294Y-80138000D01*
X30615651Y-80047150D01*
X30807864Y-79885864D01*
X30969150Y-79693651D01*
X31094609Y-79476349D01*
X31180429Y-79240564D01*
X31224000Y-78993459D01*
X31224000Y-78742541D01*
X31180429Y-78495436D01*
X31094609Y-78259651D01*
X30969150Y-78042349D01*
X30807864Y-77850136D01*
X30615651Y-77688850D01*
X30458294Y-77598000D01*
X30615651Y-77507150D01*
X30807864Y-77345864D01*
X30969150Y-77153651D01*
X31094609Y-76936349D01*
X31180429Y-76700564D01*
X31224000Y-76453459D01*
X31224000Y-76202541D01*
X31180429Y-75955436D01*
X31094609Y-75719651D01*
X30969150Y-75502349D01*
X30807864Y-75310136D01*
X30615651Y-75148850D01*
X30458294Y-75058000D01*
X30615651Y-74967150D01*
X30807864Y-74805864D01*
X30969150Y-74613651D01*
X31094609Y-74396349D01*
X31180429Y-74160564D01*
X31224000Y-73913459D01*
X31224000Y-73662541D01*
X31188751Y-73462635D01*
X32688119Y-71963268D01*
X32737899Y-71913489D01*
X32765355Y-71859603D01*
X32800904Y-71810674D01*
X32819592Y-71753157D01*
X32847051Y-71699267D01*
X32856513Y-71639524D01*
X32875200Y-71582013D01*
X32875200Y-71522049D01*
X32875201Y-71522043D01*
X32875201Y-71101091D01*
X32938571Y-71146126D01*
X33155844Y-71248367D01*
X33387788Y-71310516D01*
X33627071Y-71330609D01*
X33866132Y-71308012D01*
X34097413Y-71243436D01*
X34313603Y-71138926D01*
X34507870Y-70997783D01*
X34674071Y-70824470D01*
X34806955Y-70624464D01*
X34889457Y-70433813D01*
X34979859Y-70636858D01*
X35114830Y-70835462D01*
X35282837Y-71007025D01*
X35478571Y-71146126D01*
X35695844Y-71248367D01*
X35927788Y-71310516D01*
X36167071Y-71330609D01*
X36406132Y-71308012D01*
X36637413Y-71243436D01*
X36853603Y-71138926D01*
X37047870Y-70997783D01*
X37214071Y-70824470D01*
X37346955Y-70624464D01*
X37429457Y-70433813D01*
X37519859Y-70636858D01*
X37654830Y-70835462D01*
X37822837Y-71007025D01*
X38018571Y-71146126D01*
X38235844Y-71248367D01*
X38467788Y-71310516D01*
X38707071Y-71330609D01*
X38946132Y-71308012D01*
X39177413Y-71243436D01*
X39393603Y-71138926D01*
X39587870Y-70997783D01*
X39754071Y-70824470D01*
X39886955Y-70624464D01*
X39969457Y-70433813D01*
X40059859Y-70636858D01*
X40194830Y-70835462D01*
X40362837Y-71007025D01*
X40558571Y-71146126D01*
X40775844Y-71248367D01*
X41007788Y-71310516D01*
X41247071Y-71330609D01*
X41486132Y-71308012D01*
X41717413Y-71243436D01*
X41933603Y-71138926D01*
X42127870Y-70997783D01*
X42294071Y-70824470D01*
X42426955Y-70624464D01*
X42509457Y-70433813D01*
X42599859Y-70636858D01*
X42734830Y-70835462D01*
X42902837Y-71007025D01*
X43098571Y-71146126D01*
X43315844Y-71248367D01*
X43547788Y-71310516D01*
X43596000Y-71314564D01*
X43596000Y-71373459D01*
X43639571Y-71620564D01*
X43725391Y-71856349D01*
X43850850Y-72073651D01*
X44012136Y-72265864D01*
X44204349Y-72427150D01*
X44361706Y-72518000D01*
X44204349Y-72608850D01*
X44012136Y-72770136D01*
X43850850Y-72962349D01*
X43725391Y-73179651D01*
X43639571Y-73415436D01*
X43596000Y-73662541D01*
X43596000Y-73913459D01*
X43639571Y-74160564D01*
X43725391Y-74396349D01*
X43850850Y-74613651D01*
X44012136Y-74805864D01*
X44204349Y-74967150D01*
X44361706Y-75058000D01*
X44204349Y-75148850D01*
X44012136Y-75310136D01*
X43850850Y-75502349D01*
X43725391Y-75719651D01*
X43639571Y-75955436D01*
X43596000Y-76202541D01*
X43596000Y-76453459D01*
X43639571Y-76700564D01*
X43725391Y-76936349D01*
X43850850Y-77153651D01*
X44012136Y-77345864D01*
X44204349Y-77507150D01*
X44361706Y-77598000D01*
X44204349Y-77688850D01*
X44012136Y-77850136D01*
X43850850Y-78042349D01*
X43725391Y-78259651D01*
X43639571Y-78495436D01*
X43596000Y-78742541D01*
X43596000Y-78993459D01*
X43639571Y-79240564D01*
X43725391Y-79476349D01*
X43850850Y-79693651D01*
X44012136Y-79885864D01*
X44204349Y-80047150D01*
X44361706Y-80138000D01*
X44204349Y-80228850D01*
X44012136Y-80390136D01*
X43850850Y-80582349D01*
X43725391Y-80799651D01*
X43639571Y-81035436D01*
X43596000Y-81282541D01*
X43596000Y-81533459D01*
X43639571Y-81780564D01*
X43725391Y-82016349D01*
X43850850Y-82233651D01*
X44012136Y-82425864D01*
X44204349Y-82587150D01*
X44361706Y-82678000D01*
X44204349Y-82768850D01*
X44012136Y-82930136D01*
X43850850Y-83122349D01*
X43725391Y-83339651D01*
X43639571Y-83575436D01*
X43596000Y-83822541D01*
X43596000Y-84073459D01*
X43639571Y-84320564D01*
X43725391Y-84556349D01*
X43850850Y-84773651D01*
X44012136Y-84965864D01*
X44204349Y-85127150D01*
X44361706Y-85218000D01*
X44204349Y-85308850D01*
X44012136Y-85470136D01*
X43850850Y-85662349D01*
X43725391Y-85879651D01*
X43639571Y-86115436D01*
X43596000Y-86362541D01*
X43596000Y-86613459D01*
X43639571Y-86860564D01*
X43725391Y-87096349D01*
X43850850Y-87313651D01*
X44012136Y-87505864D01*
X44204349Y-87667150D01*
X44361706Y-87758000D01*
X44204349Y-87848850D01*
X44012136Y-88010136D01*
X43850850Y-88202349D01*
X43725391Y-88419651D01*
X43639571Y-88655436D01*
X43596000Y-88902541D01*
X43596000Y-89153459D01*
X43639571Y-89400564D01*
X43725391Y-89636349D01*
X43850850Y-89853651D01*
X44012136Y-90045864D01*
X44204349Y-90207150D01*
X44421651Y-90332609D01*
X44657436Y-90418429D01*
X44904541Y-90462000D01*
X45155459Y-90462000D01*
X45402564Y-90418429D01*
X45638349Y-90332609D01*
X45855651Y-90207150D01*
X46047864Y-90045864D01*
X46209150Y-89853651D01*
X46334609Y-89636349D01*
X46420429Y-89400564D01*
X46464000Y-89153459D01*
X46464000Y-88902541D01*
X46420429Y-88655436D01*
X46334609Y-88419651D01*
X46209150Y-88202349D01*
X46047864Y-88010136D01*
X45855651Y-87848850D01*
X45698294Y-87758000D01*
X45855651Y-87667150D01*
X46047864Y-87505864D01*
X46209150Y-87313651D01*
X46334609Y-87096349D01*
X46420429Y-86860564D01*
X46464000Y-86613459D01*
X46464000Y-86362541D01*
X46420429Y-86115436D01*
X46334609Y-85879651D01*
X46209150Y-85662349D01*
X46047864Y-85470136D01*
X45855651Y-85308850D01*
X45698294Y-85218000D01*
X45855651Y-85127150D01*
X46047864Y-84965864D01*
X46209150Y-84773651D01*
X46334609Y-84556349D01*
X46420429Y-84320564D01*
X46464000Y-84073459D01*
X46464000Y-83822541D01*
X46420429Y-83575436D01*
X46334609Y-83339651D01*
X46209150Y-83122349D01*
X46047864Y-82930136D01*
X45855651Y-82768850D01*
X45698294Y-82678000D01*
X45855651Y-82587150D01*
X46047864Y-82425864D01*
X46209150Y-82233651D01*
X46334609Y-82016349D01*
X46420429Y-81780564D01*
X46464000Y-81533459D01*
X46464000Y-81282541D01*
X46420429Y-81035436D01*
X46334609Y-80799651D01*
X46209150Y-80582349D01*
X46047864Y-80390136D01*
X45855651Y-80228850D01*
X45698294Y-80138000D01*
X45855651Y-80047150D01*
X46047864Y-79885864D01*
X46209150Y-79693651D01*
X46334609Y-79476349D01*
X46420429Y-79240564D01*
X46464000Y-78993459D01*
X46464000Y-78742541D01*
X46420429Y-78495436D01*
X46334609Y-78259651D01*
X46209150Y-78042349D01*
X46047864Y-77850136D01*
X45855651Y-77688850D01*
X45698294Y-77598000D01*
X45855651Y-77507150D01*
X46047864Y-77345864D01*
X46209150Y-77153651D01*
X46334609Y-76936349D01*
X46420429Y-76700564D01*
X46464000Y-76453459D01*
X46464000Y-76202541D01*
X46420429Y-75955436D01*
X46334609Y-75719651D01*
X46209150Y-75502349D01*
X46047864Y-75310136D01*
X45855651Y-75148850D01*
X45698294Y-75058000D01*
X45855651Y-74967150D01*
X46047864Y-74805864D01*
X46209150Y-74613651D01*
X46334609Y-74396349D01*
X46420429Y-74160564D01*
X46464000Y-73913459D01*
X46464000Y-73662541D01*
X46420429Y-73415436D01*
X46334609Y-73179651D01*
X46209150Y-72962349D01*
X46047864Y-72770136D01*
X45855651Y-72608850D01*
X45698294Y-72518000D01*
X45855651Y-72427150D01*
X46047864Y-72265864D01*
X46209150Y-72073651D01*
X46334609Y-71856349D01*
X46420429Y-71620564D01*
X46464000Y-71373459D01*
X46464000Y-71122541D01*
X46420429Y-70875436D01*
X46334609Y-70639651D01*
X46209150Y-70422349D01*
X46047864Y-70230136D01*
X45855651Y-70068850D01*
X45698294Y-69978000D01*
X45855651Y-69887150D01*
X46047864Y-69725864D01*
X46209150Y-69533651D01*
X46334609Y-69316349D01*
X46420429Y-69080564D01*
X46464000Y-68833459D01*
X46464000Y-68777666D01*
X46566132Y-68768012D01*
X46797413Y-68703436D01*
X47013603Y-68598926D01*
X47207870Y-68457783D01*
X47374071Y-68284470D01*
X47506955Y-68084464D01*
X47602320Y-67864087D01*
X47657534Y-67628685D01*
X47665576Y-67321575D01*
X47622758Y-67083606D01*
X47539057Y-66858540D01*
X47416822Y-66651853D01*
X47259919Y-66470078D01*
X47073306Y-66318963D01*
X46862882Y-66203281D01*
X46768485Y-66171513D01*
X46797413Y-66163436D01*
X47013603Y-66058926D01*
X47207870Y-65917783D01*
X47374071Y-65744470D01*
X47506955Y-65544464D01*
X47602320Y-65324087D01*
X47657534Y-65088685D01*
X47665576Y-64781575D01*
X47622758Y-64543606D01*
X47539057Y-64318540D01*
X47416822Y-64111853D01*
X47259919Y-63930078D01*
X47073306Y-63778963D01*
X46862882Y-63663281D01*
X46768485Y-63631513D01*
X46797413Y-63623436D01*
X47013603Y-63518926D01*
X47207870Y-63377783D01*
X47374071Y-63204470D01*
X47506955Y-63004464D01*
X47602320Y-62784087D01*
X47657534Y-62548685D01*
X47665576Y-62241575D01*
X47622758Y-62003606D01*
X47539057Y-61778540D01*
X47416822Y-61571853D01*
X47259919Y-61390078D01*
X47073306Y-61238963D01*
X46862882Y-61123281D01*
X46768485Y-61091513D01*
X46797413Y-61083436D01*
X47013603Y-60978926D01*
X47178270Y-60859289D01*
X46138980Y-59820000D01*
X46501019Y-59820000D01*
X47362662Y-60681643D01*
X47506955Y-60464464D01*
X47602320Y-60244087D01*
X47657534Y-60008685D01*
X47665576Y-59701575D01*
X47622758Y-59463606D01*
X47539057Y-59238540D01*
X47369383Y-58951636D01*
X46501019Y-59820000D01*
X46138980Y-59820000D01*
X47193784Y-58765197D01*
X46862882Y-58583281D01*
X46768485Y-58551513D01*
X46797413Y-58543436D01*
X47013603Y-58438926D01*
X47207870Y-58297783D01*
X47374071Y-58124470D01*
X47506955Y-57924464D01*
X47602320Y-57704087D01*
X47657534Y-57468685D01*
X47665576Y-57161575D01*
X47622758Y-56923606D01*
X47539057Y-56698540D01*
X47416822Y-56491853D01*
X47259919Y-56310078D01*
X47073306Y-56158963D01*
X46862882Y-56043281D01*
X46768485Y-56011513D01*
X46797413Y-56003436D01*
X47013603Y-55898926D01*
X47207870Y-55757783D01*
X47374071Y-55584470D01*
X47506955Y-55384464D01*
X47602320Y-55164087D01*
X47657534Y-54928685D01*
X47665576Y-54621575D01*
X47642129Y-54491259D01*
X47939089Y-54194300D01*
X47939092Y-54194296D01*
X47977899Y-54155489D01*
X48005354Y-54101604D01*
X48040904Y-54052674D01*
X48059593Y-53995157D01*
X48087051Y-53941266D01*
X48096511Y-53881534D01*
X48115201Y-53824013D01*
X48115201Y-50593987D01*
X48096511Y-50536466D01*
X48087051Y-50476734D01*
X48059593Y-50422843D01*
X48040904Y-50365326D01*
X48005354Y-50316396D01*
X47977899Y-50262511D01*
X47934458Y-50219070D01*
X47934452Y-50219063D01*
X46428751Y-48713364D01*
X46464000Y-48513459D01*
X46464000Y-48262541D01*
X46420429Y-48015436D01*
X46334609Y-47779651D01*
X46209150Y-47562349D01*
X46047864Y-47370136D01*
X45855651Y-47208850D01*
X45698294Y-47118000D01*
X45855651Y-47027150D01*
X46047864Y-46865864D01*
X46209150Y-46673651D01*
X46334609Y-46456349D01*
X46420429Y-46220564D01*
X46464000Y-45973459D01*
X46464000Y-45722541D01*
X46420429Y-45475436D01*
X46334609Y-45239651D01*
X46209150Y-45022349D01*
X46047864Y-44830136D01*
X45855651Y-44668850D01*
X45698294Y-44578000D01*
X45855651Y-44487150D01*
X46047864Y-44325864D01*
X46209150Y-44133651D01*
X46334609Y-43916349D01*
X46420429Y-43680564D01*
X46464000Y-43433459D01*
X46464000Y-43182541D01*
X46420429Y-42935436D01*
X46334609Y-42699651D01*
X46209150Y-42482349D01*
X46047864Y-42290136D01*
X45855651Y-42128850D01*
X45698294Y-42038000D01*
X45855651Y-41947150D01*
X46047864Y-41785864D01*
X46209150Y-41593651D01*
X46334609Y-41376349D01*
X46420429Y-41140564D01*
X46464000Y-40893459D01*
X46464000Y-40642541D01*
X46420429Y-40395436D01*
X46334609Y-40159651D01*
X46209150Y-39942349D01*
X46047864Y-39750136D01*
X45855651Y-39588850D01*
X45698294Y-39498000D01*
X45855651Y-39407150D01*
X46047864Y-39245864D01*
X46209150Y-39053651D01*
X46334609Y-38836349D01*
X46420429Y-38600564D01*
X46464000Y-38353459D01*
X46464000Y-38102541D01*
X46420429Y-37855436D01*
X46334609Y-37619651D01*
X46209150Y-37402349D01*
X46047864Y-37210136D01*
X45855651Y-37048850D01*
X45698294Y-36958000D01*
X45855651Y-36867150D01*
X46047864Y-36705864D01*
X46209150Y-36513651D01*
X46334609Y-36296349D01*
X46420429Y-36060564D01*
X46464000Y-35813459D01*
X46464000Y-35562541D01*
X46420429Y-35315436D01*
X46334609Y-35079651D01*
X46209150Y-34862349D01*
X46047864Y-34670136D01*
X45855651Y-34508850D01*
X45698294Y-34418000D01*
X45855651Y-34327150D01*
X46047864Y-34165864D01*
X46209150Y-33973651D01*
X46334609Y-33756349D01*
X46420429Y-33520564D01*
X46464000Y-33273459D01*
X46464000Y-33022541D01*
X46420429Y-32775436D01*
X46334609Y-32539651D01*
X46209150Y-32322349D01*
X46047864Y-32130136D01*
X45855651Y-31968850D01*
X45698294Y-31878000D01*
X45855651Y-31787150D01*
X46047864Y-31625864D01*
X46209150Y-31433651D01*
X46334609Y-31216349D01*
X46420429Y-30980564D01*
X46464000Y-30733459D01*
X46464000Y-30482541D01*
X46420429Y-30235436D01*
X46334609Y-29999651D01*
X46209150Y-29782349D01*
X46047864Y-29590136D01*
X45855651Y-29428850D01*
X45638349Y-29303391D01*
X45402564Y-29217571D01*
X45155459Y-29174000D01*
X44904541Y-29174000D01*
X44657436Y-29217571D01*
X44421651Y-29303391D01*
X44204349Y-29428850D01*
X44012136Y-29590136D01*
X43850850Y-29782349D01*
X43725391Y-29999651D01*
X43639571Y-30235436D01*
X43596000Y-30482541D01*
X43596000Y-30733459D01*
X43639571Y-30980564D01*
X43725391Y-31216349D01*
X43850850Y-31433651D01*
X44012136Y-31625864D01*
X44204349Y-31787150D01*
X44361706Y-31878000D01*
X44204349Y-31968850D01*
X44012136Y-32130136D01*
X43850850Y-32322349D01*
X43725391Y-32539651D01*
X43639571Y-32775436D01*
X43596000Y-33022541D01*
X43596000Y-33273459D01*
X43639571Y-33520564D01*
X43725391Y-33756349D01*
X43850850Y-33973651D01*
X44012136Y-34165864D01*
X44204349Y-34327150D01*
X44361706Y-34418000D01*
X44204349Y-34508850D01*
X44012136Y-34670136D01*
X43850850Y-34862349D01*
X43725391Y-35079651D01*
X43639571Y-35315436D01*
X43596000Y-35562541D01*
X43596000Y-35813459D01*
X43639571Y-36060564D01*
X43725391Y-36296349D01*
X43850850Y-36513651D01*
X44012136Y-36705864D01*
X44204349Y-36867150D01*
X44361706Y-36958000D01*
X44204349Y-37048850D01*
X44012136Y-37210136D01*
X43850850Y-37402349D01*
X43725391Y-37619651D01*
X43639571Y-37855436D01*
X43596000Y-38102541D01*
X43596000Y-38353459D01*
X43639571Y-38600564D01*
X43725391Y-38836349D01*
X43850850Y-39053651D01*
X44012136Y-39245864D01*
X44204349Y-39407150D01*
X44361706Y-39498000D01*
X44204349Y-39588850D01*
X44012136Y-39750136D01*
X43850850Y-39942349D01*
X43725391Y-40159651D01*
X43639571Y-40395436D01*
X43596000Y-40642541D01*
X43596000Y-40893459D01*
X43631249Y-41093363D01*
X42714199Y-42010414D01*
X42558303Y-42166310D01*
X42530849Y-42220194D01*
X42495297Y-42269125D01*
X42476608Y-42326645D01*
X42449151Y-42380533D01*
X42439690Y-42440268D01*
X42421001Y-42497787D01*
X42421001Y-42568184D01*
X42421000Y-46921704D01*
X42352594Y-46990109D01*
X42216466Y-47225891D01*
X42146000Y-47488872D01*
X42146000Y-47761128D01*
X42216466Y-48024109D01*
X42352594Y-48259891D01*
X42545109Y-48452406D01*
X42780891Y-48588534D01*
X42917824Y-48625225D01*
X42781034Y-48751010D01*
X42635853Y-48942279D01*
X42526839Y-49156233D01*
X42509414Y-49213947D01*
X42459057Y-49078540D01*
X42336822Y-48871853D01*
X42179919Y-48690078D01*
X41993306Y-48538963D01*
X41782882Y-48423281D01*
X41555298Y-48346690D01*
X41317748Y-48311612D01*
X41077740Y-48319154D01*
X40842861Y-48369079D01*
X40620535Y-48459809D01*
X40417790Y-48588475D01*
X40241034Y-48751010D01*
X40095853Y-48942279D01*
X39986839Y-49156233D01*
X39969414Y-49213947D01*
X39919057Y-49078540D01*
X39796822Y-48871853D01*
X39639919Y-48690078D01*
X39453306Y-48538963D01*
X39242882Y-48423281D01*
X39015298Y-48346690D01*
X38777748Y-48311612D01*
X38537740Y-48319154D01*
X38302861Y-48369079D01*
X38080535Y-48459809D01*
X37877790Y-48588475D01*
X37701034Y-48751010D01*
X37555853Y-48942279D01*
X37513037Y-49026311D01*
X37513037Y-48932212D01*
X37432405Y-48631289D01*
X37285015Y-48455635D01*
X37091386Y-48343844D01*
X36882224Y-48306963D01*
X35432212Y-48306963D01*
X35131289Y-48387595D01*
X34955635Y-48534985D01*
X34843844Y-48728614D01*
X34806963Y-48937776D01*
X34806963Y-49024272D01*
X34716822Y-48871853D01*
X34559919Y-48690078D01*
X34373306Y-48538963D01*
X34162882Y-48423281D01*
X33935298Y-48346690D01*
X33697748Y-48311612D01*
X33457740Y-48319154D01*
X33222861Y-48369079D01*
X33000535Y-48459809D01*
X32797790Y-48588475D01*
X32621034Y-48751010D01*
X32475853Y-48942279D01*
X32366839Y-49156233D01*
X32349414Y-49213947D01*
X32299057Y-49078540D01*
X32176822Y-48871853D01*
X32019919Y-48690078D01*
X31833306Y-48538963D01*
X31622882Y-48423281D01*
X31395298Y-48346690D01*
X31224000Y-48321395D01*
X31224000Y-48262541D01*
X31180429Y-48015436D01*
X31094609Y-47779651D01*
X30969150Y-47562349D01*
X30807864Y-47370136D01*
X30615651Y-47208850D01*
X30458294Y-47118000D01*
X30615651Y-47027150D01*
X30807864Y-46865864D01*
X30969150Y-46673651D01*
X31094609Y-46456349D01*
X31180429Y-46220564D01*
X31224000Y-45973459D01*
X31224000Y-45722541D01*
X31180429Y-45475436D01*
X31094609Y-45239651D01*
X30969150Y-45022349D01*
X30807864Y-44830136D01*
X30615651Y-44668850D01*
X30458294Y-44578000D01*
X30615651Y-44487150D01*
X30807864Y-44325864D01*
X30969150Y-44133651D01*
X31094609Y-43916349D01*
X31180429Y-43680564D01*
X31224000Y-43433459D01*
X31224000Y-43182541D01*
X31180429Y-42935436D01*
X31094609Y-42699651D01*
X30969150Y-42482349D01*
X30807864Y-42290136D01*
X30615651Y-42128850D01*
X30458294Y-42038000D01*
X30615651Y-41947150D01*
X30807864Y-41785864D01*
X30969150Y-41593651D01*
X31094609Y-41376349D01*
X31180429Y-41140564D01*
X31224000Y-40893459D01*
X31224000Y-40642541D01*
X31180429Y-40395436D01*
X31094609Y-40159651D01*
X30969150Y-39942349D01*
X30807864Y-39750136D01*
X30615651Y-39588850D01*
X30458294Y-39498000D01*
X30615651Y-39407150D01*
X30807864Y-39245864D01*
X30969150Y-39053651D01*
X31094609Y-38836349D01*
X31180429Y-38600564D01*
X31224000Y-38353459D01*
X31224000Y-38102541D01*
X31180429Y-37855436D01*
X31094609Y-37619651D01*
X30969150Y-37402349D01*
X30807864Y-37210136D01*
X30615651Y-37048850D01*
X30458294Y-36958000D01*
X30615651Y-36867150D01*
X30807864Y-36705864D01*
X30969150Y-36513651D01*
X31094609Y-36296349D01*
X31180429Y-36060564D01*
X31224000Y-35813459D01*
X31224000Y-35562541D01*
X31180429Y-35315436D01*
X31094609Y-35079651D01*
X30969150Y-34862349D01*
X30807864Y-34670136D01*
X30615651Y-34508850D01*
X30458294Y-34418000D01*
X30615651Y-34327150D01*
X30807864Y-34165864D01*
X30969150Y-33973651D01*
X31094609Y-33756349D01*
X31180429Y-33520564D01*
X31224000Y-33273459D01*
X31224000Y-33022541D01*
X31180429Y-32775436D01*
X31094609Y-32539651D01*
X30969150Y-32322349D01*
X30807864Y-32130136D01*
X30686613Y-32028394D01*
X30907512Y-31969205D01*
X31083165Y-31821815D01*
X31194956Y-31628186D01*
X31231837Y-31419024D01*
X31231837Y-29791412D01*
X31151205Y-29490489D01*
X31003815Y-29314835D01*
X30810186Y-29203044D01*
X30601024Y-29166163D01*
X28973412Y-29166163D01*
X28672489Y-29246795D01*
X28496835Y-29394185D01*
X28385044Y-29587814D01*
X28348163Y-29796976D01*
X28348163Y-31424588D01*
X28428795Y-31725512D01*
X28576185Y-31901165D01*
X28769814Y-32012956D01*
X28887132Y-32033642D01*
X28772136Y-32130136D01*
X28610850Y-32322349D01*
X28485391Y-32539651D01*
X28399571Y-32775436D01*
X28356000Y-33022541D01*
X28356000Y-33273459D01*
X28399571Y-33520564D01*
X28485391Y-33756349D01*
X28610850Y-33973651D01*
X28772136Y-34165864D01*
X28964349Y-34327150D01*
X29121706Y-34418000D01*
X28964349Y-34508850D01*
X28772136Y-34670136D01*
X28610850Y-34862349D01*
X28485391Y-35079651D01*
X28399571Y-35315436D01*
X28356000Y-35562541D01*
X28356000Y-35813459D01*
X28399571Y-36060564D01*
X28485391Y-36296349D01*
X28610850Y-36513651D01*
X28772136Y-36705864D01*
X28964349Y-36867150D01*
X29121706Y-36958000D01*
X28964349Y-37048850D01*
X28772136Y-37210136D01*
X28610850Y-37402349D01*
X28485391Y-37619651D01*
X28399571Y-37855436D01*
X28356000Y-38102541D01*
X28356000Y-38353459D01*
X28399571Y-38600564D01*
X28485391Y-38836349D01*
X28610850Y-39053651D01*
X28772136Y-39245864D01*
X28964349Y-39407150D01*
X29121706Y-39498000D01*
X28964349Y-39588850D01*
X28772136Y-39750136D01*
X28610850Y-39942349D01*
X28485391Y-40159651D01*
X28399571Y-40395436D01*
X28356000Y-40642541D01*
X28356000Y-40893459D01*
X28399571Y-41140564D01*
X28485391Y-41376349D01*
X28610850Y-41593651D01*
X28772136Y-41785864D01*
X28964349Y-41947150D01*
X29121706Y-42038000D01*
X28964349Y-42128850D01*
X28772136Y-42290136D01*
X28610850Y-42482349D01*
X28485391Y-42699651D01*
X28399571Y-42935436D01*
X28356000Y-43182541D01*
X28356000Y-43433459D01*
X28399571Y-43680564D01*
X28485391Y-43916349D01*
X28610850Y-44133651D01*
X28772136Y-44325864D01*
X28964349Y-44487150D01*
X29121706Y-44578000D01*
X28964349Y-44668850D01*
X28772136Y-44830136D01*
X28610850Y-45022349D01*
X28485391Y-45239651D01*
X28399571Y-45475436D01*
X28356000Y-45722541D01*
X28356000Y-45973459D01*
X28399571Y-46220564D01*
X28485391Y-46456349D01*
X28610850Y-46673651D01*
X28772136Y-46865864D01*
X28964349Y-47027150D01*
X29121706Y-47118000D01*
X28964349Y-47208850D01*
X28772136Y-47370136D01*
X28610850Y-47562349D01*
X28485391Y-47779651D01*
X28399571Y-48015436D01*
X28356000Y-48262541D01*
X28356000Y-48323775D01*
X28142861Y-48369079D01*
X27920535Y-48459809D01*
X27717790Y-48588475D01*
X27541034Y-48751010D01*
X27395853Y-48942279D01*
X27286839Y-49156233D01*
X27217435Y-49386110D01*
X27189835Y-49624645D01*
X27204913Y-49864297D01*
X27262190Y-50097492D01*
X27359859Y-50316858D01*
X27494830Y-50515462D01*
X27555558Y-50577475D01*
X26919496Y-51213539D01*
X26753306Y-51078963D01*
X26542882Y-50963281D01*
X26315298Y-50886690D01*
X26077748Y-50851612D01*
X25837740Y-50859154D01*
X25602861Y-50909079D01*
X25380535Y-50999809D01*
X25177790Y-51128475D01*
X25001034Y-51291010D01*
X24855853Y-51482279D01*
X24746839Y-51696233D01*
X24677435Y-51926110D01*
X24649835Y-52164645D01*
X24664913Y-52404297D01*
X24722190Y-52637492D01*
X24819859Y-52856858D01*
X24954830Y-53055462D01*
X25122837Y-53227025D01*
X25318571Y-53366126D01*
X25535844Y-53468367D01*
X25547768Y-53471562D01*
X25380535Y-53539809D01*
X25177790Y-53668475D01*
X25001034Y-53831010D01*
X24855853Y-54022279D01*
X24746839Y-54236233D01*
X24677435Y-54466110D01*
X24649835Y-54704645D01*
X24664913Y-54944297D01*
X24722190Y-55177492D01*
X24819859Y-55396858D01*
X24954830Y-55595462D01*
X25122837Y-55767025D01*
X25318571Y-55906126D01*
X25535844Y-56008367D01*
X25547768Y-56011562D01*
X25380535Y-56079809D01*
X25177790Y-56208475D01*
X25001034Y-56371010D01*
X24855853Y-56562279D01*
X24746839Y-56776233D01*
X24677435Y-57006110D01*
X24649835Y-57244645D01*
X24664913Y-57484297D01*
X24722190Y-57717492D01*
X24819859Y-57936858D01*
X24954830Y-58135462D01*
X25122837Y-58307025D01*
X25318571Y-58446126D01*
X25535844Y-58548367D01*
X25547768Y-58551562D01*
X25380535Y-58619809D01*
X25177790Y-58748475D01*
X25001034Y-58911010D01*
X24855853Y-59102279D01*
X24746839Y-59316233D01*
X24677435Y-59546110D01*
X24649835Y-59784645D01*
X24664913Y-60024297D01*
X24722190Y-60257492D01*
X24819859Y-60476858D01*
X24954830Y-60675462D01*
X25122837Y-60847025D01*
X25318571Y-60986126D01*
X25535844Y-61088367D01*
X25547768Y-61091562D01*
X25380535Y-61159809D01*
X25177790Y-61288475D01*
X25001034Y-61451010D01*
X24855853Y-61642279D01*
X24746839Y-61856233D01*
X24677435Y-62086110D01*
X24649835Y-62324645D01*
X24664913Y-62564297D01*
X24722190Y-62797492D01*
X24819859Y-63016858D01*
X24954830Y-63215462D01*
X25122837Y-63387025D01*
X25318571Y-63526126D01*
X25535844Y-63628367D01*
X25547768Y-63631562D01*
X25380535Y-63699809D01*
X25177790Y-63828475D01*
X25001034Y-63991010D01*
X24855853Y-64182279D01*
X24746839Y-64396233D01*
X24677435Y-64626110D01*
X24649835Y-64864645D01*
X24664913Y-65104297D01*
X24722190Y-65337492D01*
X24819859Y-65556858D01*
X24954830Y-65755462D01*
X25122837Y-65927025D01*
X25318571Y-66066126D01*
X25535844Y-66168367D01*
X25547768Y-66171562D01*
X25380535Y-66239809D01*
X25177790Y-66368475D01*
X25001034Y-66531010D01*
X24855853Y-66722279D01*
X24746839Y-66936233D01*
X24677435Y-67166110D01*
X24649835Y-67404645D01*
X24664913Y-67644297D01*
X24722190Y-67877492D01*
X24819859Y-68096858D01*
X24954830Y-68295462D01*
X25122837Y-68467025D01*
X25318571Y-68606126D01*
X25535844Y-68708367D01*
X25767788Y-68770516D01*
X26007071Y-68790609D01*
X26246132Y-68768012D01*
X26477413Y-68703436D01*
X26693603Y-68598926D01*
X26744800Y-68561729D01*
X26744799Y-70537620D01*
X26744800Y-70537626D01*
X26744800Y-70597590D01*
X26763487Y-70655101D01*
X26772949Y-70714844D01*
X26800408Y-70768734D01*
X26819096Y-70826251D01*
X26854645Y-70875180D01*
X26882101Y-70929066D01*
X26966712Y-71013678D01*
X26966711Y-75636741D01*
X26938663Y-75618562D01*
X26904148Y-75608239D01*
X22224000Y-73268167D01*
X22224000Y-46111834D01*
X26900663Y-43773502D01*
X26931539Y-43764677D01*
X26982043Y-43732812D01*
X26994181Y-43726743D01*
X27019875Y-43708942D01*
X27085123Y-43667774D01*
X27094314Y-43657369D01*
X27105722Y-43649464D01*
X27154261Y-43589493D01*
X27205342Y-43531653D01*
X27211240Y-43519092D01*
X27219972Y-43508303D01*
X27249728Y-43437116D01*
X27282689Y-43366910D01*
X27284701Y-43353448D01*
X27290009Y-43340749D01*
X27300172Y-43249929D01*
X27304000Y-43224313D01*
X27304000Y-43215711D01*
X27310204Y-43160272D01*
X27304000Y-43124779D01*
X27304000Y-28574000D01*
X47626000Y-28574000D01*
X47626001Y-44390887D01*
G36*
X40059859Y-52856858D02*
G01*
X40194830Y-53055462D01*
X40362837Y-53227025D01*
X40558571Y-53366126D01*
X40775844Y-53468367D01*
X41007788Y-53530516D01*
X41247071Y-53550609D01*
X41486132Y-53528012D01*
X41717413Y-53463436D01*
X41933603Y-53358926D01*
X41984800Y-53321729D01*
X41984799Y-56304042D01*
X41984800Y-56304048D01*
X41984800Y-56364012D01*
X42003487Y-56421523D01*
X42012949Y-56481266D01*
X42040408Y-56535156D01*
X42059096Y-56592673D01*
X42094645Y-56641602D01*
X42122101Y-56695488D01*
X42292456Y-56865844D01*
X42292460Y-56865846D01*
X42454872Y-57028258D01*
X42429835Y-57244645D01*
X42444913Y-57484297D01*
X42502190Y-57717492D01*
X42599859Y-57936858D01*
X42734830Y-58135462D01*
X42902837Y-58307025D01*
X43098571Y-58446126D01*
X43315844Y-58548367D01*
X43327768Y-58551562D01*
X43160535Y-58619809D01*
X42957790Y-58748475D01*
X42781034Y-58911010D01*
X42635853Y-59102279D01*
X42526839Y-59316233D01*
X42457435Y-59546110D01*
X42429835Y-59784645D01*
X42444913Y-60024297D01*
X42502190Y-60257492D01*
X42599859Y-60476858D01*
X42734830Y-60675462D01*
X42902837Y-60847025D01*
X43098571Y-60986126D01*
X43315844Y-61088367D01*
X43327768Y-61091562D01*
X43160535Y-61159809D01*
X42957790Y-61288475D01*
X42781034Y-61451010D01*
X42635853Y-61642279D01*
X42526839Y-61856233D01*
X42457435Y-62086110D01*
X42429835Y-62324645D01*
X42444913Y-62564297D01*
X42502190Y-62797492D01*
X42599859Y-63016858D01*
X42734830Y-63215462D01*
X42902837Y-63387025D01*
X43098571Y-63526126D01*
X43315844Y-63628367D01*
X43327768Y-63631562D01*
X43160535Y-63699809D01*
X42957790Y-63828475D01*
X42781034Y-63991010D01*
X42635853Y-64182279D01*
X42526839Y-64396233D01*
X42457435Y-64626110D01*
X42429835Y-64864645D01*
X42444913Y-65104297D01*
X42502190Y-65337492D01*
X42599859Y-65556858D01*
X42734830Y-65755462D01*
X42902837Y-65927025D01*
X43098571Y-66066126D01*
X43315844Y-66168367D01*
X43327768Y-66171562D01*
X43160535Y-66239809D01*
X42957790Y-66368475D01*
X42781034Y-66531010D01*
X42635853Y-66722279D01*
X42526839Y-66936233D01*
X42509414Y-66993947D01*
X42459057Y-66858540D01*
X42336822Y-66651853D01*
X42179919Y-66470078D01*
X41993306Y-66318963D01*
X41782882Y-66203281D01*
X41555298Y-66126690D01*
X41317748Y-66091612D01*
X41077740Y-66099154D01*
X40842861Y-66149079D01*
X40620535Y-66239809D01*
X40417790Y-66368475D01*
X40241034Y-66531010D01*
X40095853Y-66722279D01*
X39986839Y-66936233D01*
X39969414Y-66993947D01*
X39919057Y-66858540D01*
X39796822Y-66651853D01*
X39639919Y-66470078D01*
X39453306Y-66318963D01*
X39242882Y-66203281D01*
X39015298Y-66126690D01*
X38777748Y-66091612D01*
X38537740Y-66099154D01*
X38302861Y-66149079D01*
X38080535Y-66239809D01*
X37877790Y-66368475D01*
X37701034Y-66531010D01*
X37555853Y-66722279D01*
X37446839Y-66936233D01*
X37429414Y-66993947D01*
X37379057Y-66858540D01*
X37256822Y-66651853D01*
X37099919Y-66470078D01*
X36913306Y-66318963D01*
X36702882Y-66203281D01*
X36475298Y-66126690D01*
X36237748Y-66091612D01*
X35997740Y-66099154D01*
X35762861Y-66149079D01*
X35540535Y-66239809D01*
X35337790Y-66368475D01*
X35161034Y-66531010D01*
X35015853Y-66722279D01*
X34906839Y-66936233D01*
X34889414Y-66993947D01*
X34839057Y-66858540D01*
X34716822Y-66651853D01*
X34559919Y-66470078D01*
X34373306Y-66318963D01*
X34162882Y-66203281D01*
X33935298Y-66126690D01*
X33697748Y-66091612D01*
X33457740Y-66099154D01*
X33222861Y-66149079D01*
X33000535Y-66239809D01*
X32797790Y-66368475D01*
X32753873Y-66408859D01*
X32737899Y-66377509D01*
X30898380Y-64537991D01*
X30969150Y-64453651D01*
X31094609Y-64236349D01*
X31180429Y-64000564D01*
X31210557Y-63829693D01*
X32236326Y-63829693D01*
X32458768Y-64003486D01*
X32717231Y-64152710D01*
X32993948Y-64264511D01*
X33283530Y-64336711D01*
X33580343Y-64367908D01*
X33878609Y-64357492D01*
X34172522Y-64305667D01*
X34456363Y-64213441D01*
X34724606Y-64082611D01*
X35084106Y-63840125D01*
X35073674Y-63829693D01*
X37316326Y-63829693D01*
X37538768Y-64003486D01*
X37797231Y-64152710D01*
X38073948Y-64264511D01*
X38363530Y-64336711D01*
X38660343Y-64367908D01*
X38958609Y-64357492D01*
X39252522Y-64305667D01*
X39536363Y-64213441D01*
X39804606Y-64082611D01*
X40164106Y-63840125D01*
X38735000Y-62411019D01*
X37316326Y-63829693D01*
X35073674Y-63829693D01*
X33655000Y-62411019D01*
X32236326Y-63829693D01*
X31210557Y-63829693D01*
X31224000Y-63753459D01*
X31224000Y-63502541D01*
X31180429Y-63255436D01*
X31094609Y-63019651D01*
X30969150Y-62802349D01*
X30807864Y-62610136D01*
X30615651Y-62448850D01*
X30458294Y-62358000D01*
X30615651Y-62267150D01*
X30659924Y-62230000D01*
X31515789Y-62230000D01*
X31536608Y-62527721D01*
X31598658Y-62819646D01*
X31700734Y-63100095D01*
X31840846Y-63363609D01*
X32051052Y-63652929D01*
X33473981Y-62230000D01*
X33836019Y-62230000D01*
X35252322Y-63646303D01*
X35385658Y-63487396D01*
X35543811Y-63234299D01*
X35665200Y-62961653D01*
X35747464Y-62674767D01*
X35789000Y-62379224D01*
X35789000Y-62230000D01*
X36595789Y-62230000D01*
X36616608Y-62527721D01*
X36678658Y-62819646D01*
X36780734Y-63100095D01*
X36920846Y-63363609D01*
X37131052Y-63652929D01*
X38553981Y-62230000D01*
X38916019Y-62230000D01*
X40332322Y-63646303D01*
X40465658Y-63487396D01*
X40623811Y-63234299D01*
X40745200Y-62961653D01*
X40827464Y-62674767D01*
X40869000Y-62379224D01*
X40869000Y-62080776D01*
X40827464Y-61785233D01*
X40745200Y-61498347D01*
X40623811Y-61225701D01*
X40465658Y-60972604D01*
X40332322Y-60813697D01*
X38916019Y-62230000D01*
X38553981Y-62230000D01*
X37131052Y-60807071D01*
X36920846Y-61096391D01*
X36780734Y-61359905D01*
X36678658Y-61640354D01*
X36616608Y-61932279D01*
X36595789Y-62230000D01*
X35789000Y-62230000D01*
X35789000Y-62080776D01*
X35747464Y-61785233D01*
X35665200Y-61498347D01*
X35543811Y-61225701D01*
X35385658Y-60972604D01*
X35252322Y-60813697D01*
X33836019Y-62230000D01*
X33473981Y-62230000D01*
X32051052Y-60807071D01*
X31840846Y-61096391D01*
X31700734Y-61359905D01*
X31598658Y-61640354D01*
X31536608Y-61932279D01*
X31515789Y-62230000D01*
X30659924Y-62230000D01*
X30807864Y-62105864D01*
X30969150Y-61913651D01*
X31094609Y-61696349D01*
X31180429Y-61460564D01*
X31224000Y-61213459D01*
X31224000Y-60962541D01*
X31180429Y-60715436D01*
X31149445Y-60630307D01*
X32236326Y-60630307D01*
X33655000Y-62048981D01*
X35073674Y-60630307D01*
X37316326Y-60630307D01*
X38735000Y-62048981D01*
X40164106Y-60619875D01*
X39804606Y-60377389D01*
X39536363Y-60246559D01*
X39252522Y-60154333D01*
X38958609Y-60102508D01*
X38660343Y-60092092D01*
X38363530Y-60123289D01*
X38073948Y-60195489D01*
X37797231Y-60307290D01*
X37538768Y-60456514D01*
X37316326Y-60630307D01*
X35073674Y-60630307D01*
X35084106Y-60619875D01*
X34724606Y-60377389D01*
X34456363Y-60246559D01*
X34172522Y-60154333D01*
X33878609Y-60102508D01*
X33580343Y-60092092D01*
X33283530Y-60123289D01*
X32993948Y-60195489D01*
X32717231Y-60307290D01*
X32458768Y-60456514D01*
X32236326Y-60630307D01*
X31149445Y-60630307D01*
X31094609Y-60479651D01*
X30969150Y-60262349D01*
X30807864Y-60070136D01*
X30615651Y-59908850D01*
X30458294Y-59818000D01*
X30615651Y-59727150D01*
X30807864Y-59565864D01*
X30969150Y-59373651D01*
X31094609Y-59156349D01*
X31180429Y-58920564D01*
X31210557Y-58749693D01*
X32236326Y-58749693D01*
X32458768Y-58923486D01*
X32717231Y-59072710D01*
X32993948Y-59184511D01*
X33283530Y-59256711D01*
X33580343Y-59287908D01*
X33878609Y-59277492D01*
X34172522Y-59225667D01*
X34456363Y-59133441D01*
X34724606Y-59002611D01*
X35084106Y-58760125D01*
X35073674Y-58749693D01*
X37316326Y-58749693D01*
X37538768Y-58923486D01*
X37797231Y-59072710D01*
X38073948Y-59184511D01*
X38363530Y-59256711D01*
X38660343Y-59287908D01*
X38958609Y-59277492D01*
X39252522Y-59225667D01*
X39536363Y-59133441D01*
X39804606Y-59002611D01*
X40164106Y-58760125D01*
X38735000Y-57331019D01*
X37316326Y-58749693D01*
X35073674Y-58749693D01*
X33655000Y-57331019D01*
X32236326Y-58749693D01*
X31210557Y-58749693D01*
X31224000Y-58673459D01*
X31224000Y-58422541D01*
X31180429Y-58175436D01*
X31094609Y-57939651D01*
X30969150Y-57722349D01*
X30807864Y-57530136D01*
X30615651Y-57368850D01*
X30458294Y-57278000D01*
X30615651Y-57187150D01*
X30659924Y-57150000D01*
X31515789Y-57150000D01*
X31536608Y-57447721D01*
X31598658Y-57739646D01*
X31700734Y-58020095D01*
X31840846Y-58283609D01*
X32051052Y-58572929D01*
X33473981Y-57150000D01*
X33836019Y-57150000D01*
X35252322Y-58566303D01*
X35385658Y-58407396D01*
X35543811Y-58154299D01*
X35665200Y-57881653D01*
X35747464Y-57594767D01*
X35789000Y-57299224D01*
X35789000Y-57150000D01*
X36595789Y-57150000D01*
X36616608Y-57447721D01*
X36678658Y-57739646D01*
X36780734Y-58020095D01*
X36920846Y-58283609D01*
X37131052Y-58572929D01*
X38553981Y-57150000D01*
X38916019Y-57150000D01*
X40332322Y-58566303D01*
X40465658Y-58407396D01*
X40623811Y-58154299D01*
X40745200Y-57881653D01*
X40827464Y-57594767D01*
X40869000Y-57299224D01*
X40869000Y-57000776D01*
X40827464Y-56705233D01*
X40745200Y-56418347D01*
X40623811Y-56145701D01*
X40465658Y-55892604D01*
X40332322Y-55733697D01*
X38916019Y-57150000D01*
X38553981Y-57150000D01*
X37131052Y-55727071D01*
X36920846Y-56016391D01*
X36780734Y-56279905D01*
X36678658Y-56560354D01*
X36616608Y-56852279D01*
X36595789Y-57150000D01*
X35789000Y-57150000D01*
X35789000Y-57000776D01*
X35747464Y-56705233D01*
X35665200Y-56418347D01*
X35543811Y-56145701D01*
X35385658Y-55892604D01*
X35252322Y-55733697D01*
X33836019Y-57150000D01*
X33473981Y-57150000D01*
X32051052Y-55727071D01*
X31840846Y-56016391D01*
X31700734Y-56279905D01*
X31598658Y-56560354D01*
X31536608Y-56852279D01*
X31515789Y-57150000D01*
X30659924Y-57150000D01*
X30807864Y-57025864D01*
X30969150Y-56833651D01*
X31094609Y-56616349D01*
X31180429Y-56380564D01*
X31224000Y-56133459D01*
X31224000Y-55882541D01*
X31180429Y-55635436D01*
X31149445Y-55550307D01*
X32236326Y-55550307D01*
X33655000Y-56968981D01*
X35073674Y-55550307D01*
X37316326Y-55550307D01*
X38735000Y-56968981D01*
X40164106Y-55539875D01*
X39804606Y-55297389D01*
X39536363Y-55166559D01*
X39252522Y-55074333D01*
X38958609Y-55022508D01*
X38660343Y-55012092D01*
X38363530Y-55043289D01*
X38073948Y-55115489D01*
X37797231Y-55227290D01*
X37538768Y-55376514D01*
X37316326Y-55550307D01*
X35073674Y-55550307D01*
X35084106Y-55539875D01*
X34724606Y-55297389D01*
X34456363Y-55166559D01*
X34172522Y-55074333D01*
X33878609Y-55022508D01*
X33580343Y-55012092D01*
X33283530Y-55043289D01*
X32993948Y-55115489D01*
X32717231Y-55227290D01*
X32458768Y-55376514D01*
X32236326Y-55550307D01*
X31149445Y-55550307D01*
X31094609Y-55399651D01*
X30969150Y-55182349D01*
X30807864Y-54990136D01*
X30615651Y-54828850D01*
X30458294Y-54738000D01*
X30615651Y-54647150D01*
X30807864Y-54485864D01*
X30969150Y-54293651D01*
X31094609Y-54076349D01*
X31180429Y-53840564D01*
X31224000Y-53593459D01*
X31224000Y-53537666D01*
X31326132Y-53528012D01*
X31557413Y-53463436D01*
X31773603Y-53358926D01*
X31967870Y-53217783D01*
X32134071Y-53044470D01*
X32266955Y-52844464D01*
X32349457Y-52653813D01*
X32439859Y-52856858D01*
X32574830Y-53055462D01*
X32742837Y-53227025D01*
X32938571Y-53366126D01*
X33155844Y-53468367D01*
X33387788Y-53530516D01*
X33627071Y-53550609D01*
X33866132Y-53528012D01*
X34097413Y-53463436D01*
X34313603Y-53358926D01*
X34507870Y-53217783D01*
X34674071Y-53044470D01*
X34806955Y-52844464D01*
X34889457Y-52653813D01*
X34979859Y-52856858D01*
X35114830Y-53055462D01*
X35282837Y-53227025D01*
X35478571Y-53366126D01*
X35695844Y-53468367D01*
X35927788Y-53530516D01*
X36167071Y-53550609D01*
X36406132Y-53528012D01*
X36637413Y-53463436D01*
X36853603Y-53358926D01*
X37047870Y-53217783D01*
X37214071Y-53044470D01*
X37346955Y-52844464D01*
X37429457Y-52653813D01*
X37519859Y-52856858D01*
X37654830Y-53055462D01*
X37822837Y-53227025D01*
X38018571Y-53366126D01*
X38235844Y-53468367D01*
X38467788Y-53530516D01*
X38707071Y-53550609D01*
X38946132Y-53528012D01*
X39177413Y-53463436D01*
X39393603Y-53358926D01*
X39587870Y-53217783D01*
X39754071Y-53044470D01*
X39886955Y-52844464D01*
X39969457Y-52653813D01*
X40059859Y-52856858D01*
G37*
X40059859Y-52856858D02*
X40194830Y-53055462D01*
X40362837Y-53227025D01*
X40558571Y-53366126D01*
X40775844Y-53468367D01*
X41007788Y-53530516D01*
X41247071Y-53550609D01*
X41486132Y-53528012D01*
X41717413Y-53463436D01*
X41933603Y-53358926D01*
X41984800Y-53321729D01*
X41984799Y-56304042D01*
X41984800Y-56304048D01*
X41984800Y-56364012D01*
X42003487Y-56421523D01*
X42012949Y-56481266D01*
X42040408Y-56535156D01*
X42059096Y-56592673D01*
X42094645Y-56641602D01*
X42122101Y-56695488D01*
X42292456Y-56865844D01*
X42292460Y-56865846D01*
X42454872Y-57028258D01*
X42429835Y-57244645D01*
X42444913Y-57484297D01*
X42502190Y-57717492D01*
X42599859Y-57936858D01*
X42734830Y-58135462D01*
X42902837Y-58307025D01*
X43098571Y-58446126D01*
X43315844Y-58548367D01*
X43327768Y-58551562D01*
X43160535Y-58619809D01*
X42957790Y-58748475D01*
X42781034Y-58911010D01*
X42635853Y-59102279D01*
X42526839Y-59316233D01*
X42457435Y-59546110D01*
X42429835Y-59784645D01*
X42444913Y-60024297D01*
X42502190Y-60257492D01*
X42599859Y-60476858D01*
X42734830Y-60675462D01*
X42902837Y-60847025D01*
X43098571Y-60986126D01*
X43315844Y-61088367D01*
X43327768Y-61091562D01*
X43160535Y-61159809D01*
X42957790Y-61288475D01*
X42781034Y-61451010D01*
X42635853Y-61642279D01*
X42526839Y-61856233D01*
X42457435Y-62086110D01*
X42429835Y-62324645D01*
X42444913Y-62564297D01*
X42502190Y-62797492D01*
X42599859Y-63016858D01*
X42734830Y-63215462D01*
X42902837Y-63387025D01*
X43098571Y-63526126D01*
X43315844Y-63628367D01*
X43327768Y-63631562D01*
X43160535Y-63699809D01*
X42957790Y-63828475D01*
X42781034Y-63991010D01*
X42635853Y-64182279D01*
X42526839Y-64396233D01*
X42457435Y-64626110D01*
X42429835Y-64864645D01*
X42444913Y-65104297D01*
X42502190Y-65337492D01*
X42599859Y-65556858D01*
X42734830Y-65755462D01*
X42902837Y-65927025D01*
X43098571Y-66066126D01*
X43315844Y-66168367D01*
X43327768Y-66171562D01*
X43160535Y-66239809D01*
X42957790Y-66368475D01*
X42781034Y-66531010D01*
X42635853Y-66722279D01*
X42526839Y-66936233D01*
X42509414Y-66993947D01*
X42459057Y-66858540D01*
X42336822Y-66651853D01*
X42179919Y-66470078D01*
X41993306Y-66318963D01*
X41782882Y-66203281D01*
X41555298Y-66126690D01*
X41317748Y-66091612D01*
X41077740Y-66099154D01*
X40842861Y-66149079D01*
X40620535Y-66239809D01*
X40417790Y-66368475D01*
X40241034Y-66531010D01*
X40095853Y-66722279D01*
X39986839Y-66936233D01*
X39969414Y-66993947D01*
X39919057Y-66858540D01*
X39796822Y-66651853D01*
X39639919Y-66470078D01*
X39453306Y-66318963D01*
X39242882Y-66203281D01*
X39015298Y-66126690D01*
X38777748Y-66091612D01*
X38537740Y-66099154D01*
X38302861Y-66149079D01*
X38080535Y-66239809D01*
X37877790Y-66368475D01*
X37701034Y-66531010D01*
X37555853Y-66722279D01*
X37446839Y-66936233D01*
X37429414Y-66993947D01*
X37379057Y-66858540D01*
X37256822Y-66651853D01*
X37099919Y-66470078D01*
X36913306Y-66318963D01*
X36702882Y-66203281D01*
X36475298Y-66126690D01*
X36237748Y-66091612D01*
X35997740Y-66099154D01*
X35762861Y-66149079D01*
X35540535Y-66239809D01*
X35337790Y-66368475D01*
X35161034Y-66531010D01*
X35015853Y-66722279D01*
X34906839Y-66936233D01*
X34889414Y-66993947D01*
X34839057Y-66858540D01*
X34716822Y-66651853D01*
X34559919Y-66470078D01*
X34373306Y-66318963D01*
X34162882Y-66203281D01*
X33935298Y-66126690D01*
X33697748Y-66091612D01*
X33457740Y-66099154D01*
X33222861Y-66149079D01*
X33000535Y-66239809D01*
X32797790Y-66368475D01*
X32753873Y-66408859D01*
X32737899Y-66377509D01*
X30898380Y-64537991D01*
X30969150Y-64453651D01*
X31094609Y-64236349D01*
X31180429Y-64000564D01*
X31210557Y-63829693D01*
X32236326Y-63829693D01*
X32458768Y-64003486D01*
X32717231Y-64152710D01*
X32993948Y-64264511D01*
X33283530Y-64336711D01*
X33580343Y-64367908D01*
X33878609Y-64357492D01*
X34172522Y-64305667D01*
X34456363Y-64213441D01*
X34724606Y-64082611D01*
X35084106Y-63840125D01*
X35073674Y-63829693D01*
X37316326Y-63829693D01*
X37538768Y-64003486D01*
X37797231Y-64152710D01*
X38073948Y-64264511D01*
X38363530Y-64336711D01*
X38660343Y-64367908D01*
X38958609Y-64357492D01*
X39252522Y-64305667D01*
X39536363Y-64213441D01*
X39804606Y-64082611D01*
X40164106Y-63840125D01*
X38735000Y-62411019D01*
X37316326Y-63829693D01*
X35073674Y-63829693D01*
X33655000Y-62411019D01*
X32236326Y-63829693D01*
X31210557Y-63829693D01*
X31224000Y-63753459D01*
X31224000Y-63502541D01*
X31180429Y-63255436D01*
X31094609Y-63019651D01*
X30969150Y-62802349D01*
X30807864Y-62610136D01*
X30615651Y-62448850D01*
X30458294Y-62358000D01*
X30615651Y-62267150D01*
X30659924Y-62230000D01*
X31515789Y-62230000D01*
X31536608Y-62527721D01*
X31598658Y-62819646D01*
X31700734Y-63100095D01*
X31840846Y-63363609D01*
X32051052Y-63652929D01*
X33473981Y-62230000D01*
X33836019Y-62230000D01*
X35252322Y-63646303D01*
X35385658Y-63487396D01*
X35543811Y-63234299D01*
X35665200Y-62961653D01*
X35747464Y-62674767D01*
X35789000Y-62379224D01*
X35789000Y-62230000D01*
X36595789Y-62230000D01*
X36616608Y-62527721D01*
X36678658Y-62819646D01*
X36780734Y-63100095D01*
X36920846Y-63363609D01*
X37131052Y-63652929D01*
X38553981Y-62230000D01*
X38916019Y-62230000D01*
X40332322Y-63646303D01*
X40465658Y-63487396D01*
X40623811Y-63234299D01*
X40745200Y-62961653D01*
X40827464Y-62674767D01*
X40869000Y-62379224D01*
X40869000Y-62080776D01*
X40827464Y-61785233D01*
X40745200Y-61498347D01*
X40623811Y-61225701D01*
X40465658Y-60972604D01*
X40332322Y-60813697D01*
X38916019Y-62230000D01*
X38553981Y-62230000D01*
X37131052Y-60807071D01*
X36920846Y-61096391D01*
X36780734Y-61359905D01*
X36678658Y-61640354D01*
X36616608Y-61932279D01*
X36595789Y-62230000D01*
X35789000Y-62230000D01*
X35789000Y-62080776D01*
X35747464Y-61785233D01*
X35665200Y-61498347D01*
X35543811Y-61225701D01*
X35385658Y-60972604D01*
X35252322Y-60813697D01*
X33836019Y-62230000D01*
X33473981Y-62230000D01*
X32051052Y-60807071D01*
X31840846Y-61096391D01*
X31700734Y-61359905D01*
X31598658Y-61640354D01*
X31536608Y-61932279D01*
X31515789Y-62230000D01*
X30659924Y-62230000D01*
X30807864Y-62105864D01*
X30969150Y-61913651D01*
X31094609Y-61696349D01*
X31180429Y-61460564D01*
X31224000Y-61213459D01*
X31224000Y-60962541D01*
X31180429Y-60715436D01*
X31149445Y-60630307D01*
X32236326Y-60630307D01*
X33655000Y-62048981D01*
X35073674Y-60630307D01*
X37316326Y-60630307D01*
X38735000Y-62048981D01*
X40164106Y-60619875D01*
X39804606Y-60377389D01*
X39536363Y-60246559D01*
X39252522Y-60154333D01*
X38958609Y-60102508D01*
X38660343Y-60092092D01*
X38363530Y-60123289D01*
X38073948Y-60195489D01*
X37797231Y-60307290D01*
X37538768Y-60456514D01*
X37316326Y-60630307D01*
X35073674Y-60630307D01*
X35084106Y-60619875D01*
X34724606Y-60377389D01*
X34456363Y-60246559D01*
X34172522Y-60154333D01*
X33878609Y-60102508D01*
X33580343Y-60092092D01*
X33283530Y-60123289D01*
X32993948Y-60195489D01*
X32717231Y-60307290D01*
X32458768Y-60456514D01*
X32236326Y-60630307D01*
X31149445Y-60630307D01*
X31094609Y-60479651D01*
X30969150Y-60262349D01*
X30807864Y-60070136D01*
X30615651Y-59908850D01*
X30458294Y-59818000D01*
X30615651Y-59727150D01*
X30807864Y-59565864D01*
X30969150Y-59373651D01*
X31094609Y-59156349D01*
X31180429Y-58920564D01*
X31210557Y-58749693D01*
X32236326Y-58749693D01*
X32458768Y-58923486D01*
X32717231Y-59072710D01*
X32993948Y-59184511D01*
X33283530Y-59256711D01*
X33580343Y-59287908D01*
X33878609Y-59277492D01*
X34172522Y-59225667D01*
X34456363Y-59133441D01*
X34724606Y-59002611D01*
X35084106Y-58760125D01*
X35073674Y-58749693D01*
X37316326Y-58749693D01*
X37538768Y-58923486D01*
X37797231Y-59072710D01*
X38073948Y-59184511D01*
X38363530Y-59256711D01*
X38660343Y-59287908D01*
X38958609Y-59277492D01*
X39252522Y-59225667D01*
X39536363Y-59133441D01*
X39804606Y-59002611D01*
X40164106Y-58760125D01*
X38735000Y-57331019D01*
X37316326Y-58749693D01*
X35073674Y-58749693D01*
X33655000Y-57331019D01*
X32236326Y-58749693D01*
X31210557Y-58749693D01*
X31224000Y-58673459D01*
X31224000Y-58422541D01*
X31180429Y-58175436D01*
X31094609Y-57939651D01*
X30969150Y-57722349D01*
X30807864Y-57530136D01*
X30615651Y-57368850D01*
X30458294Y-57278000D01*
X30615651Y-57187150D01*
X30659924Y-57150000D01*
X31515789Y-57150000D01*
X31536608Y-57447721D01*
X31598658Y-57739646D01*
X31700734Y-58020095D01*
X31840846Y-58283609D01*
X32051052Y-58572929D01*
X33473981Y-57150000D01*
X33836019Y-57150000D01*
X35252322Y-58566303D01*
X35385658Y-58407396D01*
X35543811Y-58154299D01*
X35665200Y-57881653D01*
X35747464Y-57594767D01*
X35789000Y-57299224D01*
X35789000Y-57150000D01*
X36595789Y-57150000D01*
X36616608Y-57447721D01*
X36678658Y-57739646D01*
X36780734Y-58020095D01*
X36920846Y-58283609D01*
X37131052Y-58572929D01*
X38553981Y-57150000D01*
X38916019Y-57150000D01*
X40332322Y-58566303D01*
X40465658Y-58407396D01*
X40623811Y-58154299D01*
X40745200Y-57881653D01*
X40827464Y-57594767D01*
X40869000Y-57299224D01*
X40869000Y-57000776D01*
X40827464Y-56705233D01*
X40745200Y-56418347D01*
X40623811Y-56145701D01*
X40465658Y-55892604D01*
X40332322Y-55733697D01*
X38916019Y-57150000D01*
X38553981Y-57150000D01*
X37131052Y-55727071D01*
X36920846Y-56016391D01*
X36780734Y-56279905D01*
X36678658Y-56560354D01*
X36616608Y-56852279D01*
X36595789Y-57150000D01*
X35789000Y-57150000D01*
X35789000Y-57000776D01*
X35747464Y-56705233D01*
X35665200Y-56418347D01*
X35543811Y-56145701D01*
X35385658Y-55892604D01*
X35252322Y-55733697D01*
X33836019Y-57150000D01*
X33473981Y-57150000D01*
X32051052Y-55727071D01*
X31840846Y-56016391D01*
X31700734Y-56279905D01*
X31598658Y-56560354D01*
X31536608Y-56852279D01*
X31515789Y-57150000D01*
X30659924Y-57150000D01*
X30807864Y-57025864D01*
X30969150Y-56833651D01*
X31094609Y-56616349D01*
X31180429Y-56380564D01*
X31224000Y-56133459D01*
X31224000Y-55882541D01*
X31180429Y-55635436D01*
X31149445Y-55550307D01*
X32236326Y-55550307D01*
X33655000Y-56968981D01*
X35073674Y-55550307D01*
X37316326Y-55550307D01*
X38735000Y-56968981D01*
X40164106Y-55539875D01*
X39804606Y-55297389D01*
X39536363Y-55166559D01*
X39252522Y-55074333D01*
X38958609Y-55022508D01*
X38660343Y-55012092D01*
X38363530Y-55043289D01*
X38073948Y-55115489D01*
X37797231Y-55227290D01*
X37538768Y-55376514D01*
X37316326Y-55550307D01*
X35073674Y-55550307D01*
X35084106Y-55539875D01*
X34724606Y-55297389D01*
X34456363Y-55166559D01*
X34172522Y-55074333D01*
X33878609Y-55022508D01*
X33580343Y-55012092D01*
X33283530Y-55043289D01*
X32993948Y-55115489D01*
X32717231Y-55227290D01*
X32458768Y-55376514D01*
X32236326Y-55550307D01*
X31149445Y-55550307D01*
X31094609Y-55399651D01*
X30969150Y-55182349D01*
X30807864Y-54990136D01*
X30615651Y-54828850D01*
X30458294Y-54738000D01*
X30615651Y-54647150D01*
X30807864Y-54485864D01*
X30969150Y-54293651D01*
X31094609Y-54076349D01*
X31180429Y-53840564D01*
X31224000Y-53593459D01*
X31224000Y-53537666D01*
X31326132Y-53528012D01*
X31557413Y-53463436D01*
X31773603Y-53358926D01*
X31967870Y-53217783D01*
X32134071Y-53044470D01*
X32266955Y-52844464D01*
X32349457Y-52653813D01*
X32439859Y-52856858D01*
X32574830Y-53055462D01*
X32742837Y-53227025D01*
X32938571Y-53366126D01*
X33155844Y-53468367D01*
X33387788Y-53530516D01*
X33627071Y-53550609D01*
X33866132Y-53528012D01*
X34097413Y-53463436D01*
X34313603Y-53358926D01*
X34507870Y-53217783D01*
X34674071Y-53044470D01*
X34806955Y-52844464D01*
X34889457Y-52653813D01*
X34979859Y-52856858D01*
X35114830Y-53055462D01*
X35282837Y-53227025D01*
X35478571Y-53366126D01*
X35695844Y-53468367D01*
X35927788Y-53530516D01*
X36167071Y-53550609D01*
X36406132Y-53528012D01*
X36637413Y-53463436D01*
X36853603Y-53358926D01*
X37047870Y-53217783D01*
X37214071Y-53044470D01*
X37346955Y-52844464D01*
X37429457Y-52653813D01*
X37519859Y-52856858D01*
X37654830Y-53055462D01*
X37822837Y-53227025D01*
X38018571Y-53366126D01*
X38235844Y-53468367D01*
X38467788Y-53530516D01*
X38707071Y-53550609D01*
X38946132Y-53528012D01*
X39177413Y-53463436D01*
X39393603Y-53358926D01*
X39587870Y-53217783D01*
X39754071Y-53044470D01*
X39886955Y-52844464D01*
X39969457Y-52653813D01*
X40059859Y-52856858D01*
M02*
