M48
METRIC,TZ
T1C0.400
T2C0.800
T3C3.000
%
G90
G05
T1
X35560Y-73660
X36195Y-59690
X37465Y-45720
X43180Y-47625
X48260Y-61595
T2
X29790Y-30608
X29790Y-33148
X29790Y-35688
X29790Y-38228
X29790Y-40768
X29790Y-43308
X29790Y-45848
X29790Y-48388
X29790Y-50928
X29790Y-53468
X29790Y-56008
X29790Y-58548
X29790Y-61088
X29790Y-63628
X29790Y-66168
X29790Y-68708
X29790Y-71248
X29790Y-73788
X29790Y-76328
X29790Y-78868
X29790Y-81408
X29790Y-83948
X29790Y-86488
X29790Y-89028
X45030Y-30608
X45030Y-33148
X45030Y-35688
X45030Y-38228
X45030Y-40768
X45030Y-43308
X45030Y-45848
X45030Y-48388
X45030Y-50928
X45030Y-53468
X45030Y-56008
X45030Y-58548
X45030Y-61088
X45030Y-63628
X45030Y-66168
X45030Y-68708
X45030Y-71248
X45030Y-73788
X45030Y-76328
X45030Y-78868
X45030Y-81408
X45030Y-83948
X45030Y-86488
X45030Y-89028
X26000Y-52200
X26000Y-54740
X26000Y-57280
X26000Y-59820
X26000Y-62360
X26000Y-64900
X26000Y-67440
X28540Y-49660
X28540Y-52200
X28540Y-54740
X28540Y-57280
X28540Y-59820
X28540Y-62360
X28540Y-64900
X28540Y-67440
X28540Y-69980
X31080Y-49660
X31080Y-52200
X31080Y-67440
X31080Y-69980
X33620Y-49660
X33620Y-52200
X33620Y-67440
X33620Y-69980
X36160Y-49660
X36160Y-52200
X36160Y-67440
X36160Y-69980
X38700Y-49660
X38700Y-52200
X38700Y-67440
X38700Y-69980
X41240Y-49660
X41240Y-52200
X41240Y-67440
X41240Y-69980
X43780Y-49660
X43780Y-52200
X43780Y-54740
X43780Y-57280
X43780Y-59820
X43780Y-62360
X43780Y-64900
X43780Y-67440
X43780Y-69980
X46320Y-52200
X46320Y-54740
X46320Y-57280
X46320Y-59820
X46320Y-62360
X46320Y-64900
X46320Y-67440
T3
X38735Y-62230
X33655Y-62230
X38735Y-57150
X33655Y-57150
T0
M30
