G04 #@! TF.GenerationSoftware,KiCad,Pcbnew,(5.99.0-434-g6ad8b170c)*
G04 #@! TF.CreationDate,2019-12-25T22:45:19+01:00*
G04 #@! TF.ProjectId,DeniseAdapter,44656e69-7365-4416-9461-707465722e6b,rev?*
G04 #@! TF.SameCoordinates,Original*
G04 #@! TF.FileFunction,Copper,L1,Top*
G04 #@! TF.FilePolarity,Positive*
%FSLAX46Y46*%
G04 Gerber Fmt 4.6, Leading zero omitted, Abs format (unit mm)*
G04 Created by KiCad (PCBNEW (5.99.0-434-g6ad8b170c)) date 2019-12-25 22:45:19*
%MOMM*%
%LPD*%
G04 APERTURE LIST*
%ADD10C,1.422400*%
%ADD11R,1.422400X1.422400*%
%ADD12O,1.600000X1.600000*%
%ADD13R,1.600000X1.600000*%
%ADD14C,0.800000*%
%ADD15C,0.250000*%
%ADD16C,0.254000*%
G04 APERTURE END LIST*
D10*
X46320000Y-52200000D03*
X46320000Y-54740000D03*
X46320000Y-57280000D03*
X46320000Y-59820000D03*
X46320000Y-62360000D03*
X46320000Y-64900000D03*
X43780000Y-49660000D03*
X43780000Y-54740000D03*
X43780000Y-57280000D03*
X43780000Y-59820000D03*
X43780000Y-62360000D03*
X43780000Y-64900000D03*
X43780000Y-67440000D03*
X43780000Y-69980000D03*
X41240000Y-69980000D03*
X38700000Y-69980000D03*
X36160000Y-69980000D03*
X33620000Y-69980000D03*
X31080000Y-69980000D03*
X28540000Y-69980000D03*
X46320000Y-67440000D03*
X41240000Y-67440000D03*
X38700000Y-67440000D03*
X36160000Y-67440000D03*
X33620000Y-67440000D03*
X31080000Y-67440000D03*
X28540000Y-67440000D03*
X26000000Y-67440000D03*
X26000000Y-64900000D03*
X26000000Y-62360000D03*
X26000000Y-59820000D03*
X26000000Y-57280000D03*
X26000000Y-54740000D03*
X26000000Y-52200000D03*
X28540000Y-64900000D03*
X28540000Y-62360000D03*
X28540000Y-59820000D03*
X28540000Y-57280000D03*
X28540000Y-54740000D03*
X28540000Y-52200000D03*
X41240000Y-49660000D03*
X38700000Y-49660000D03*
X28540000Y-49660000D03*
X31080000Y-49660000D03*
X33620000Y-49660000D03*
D11*
X36160000Y-49660000D03*
D10*
X43780000Y-52200000D03*
X41240000Y-52200000D03*
X38700000Y-52200000D03*
X31080000Y-52200000D03*
X33620000Y-52200000D03*
X36160000Y-52200000D03*
D12*
X45030000Y-30608000D03*
X29790000Y-89028000D03*
X45030000Y-33148000D03*
X29790000Y-86488000D03*
X45030000Y-35688000D03*
X29790000Y-83948000D03*
X45030000Y-38228000D03*
X29790000Y-81408000D03*
X45030000Y-40768000D03*
X29790000Y-78868000D03*
X45030000Y-43308000D03*
X29790000Y-76328000D03*
X45030000Y-45848000D03*
X29790000Y-73788000D03*
X45030000Y-48388000D03*
X29790000Y-71248000D03*
X45030000Y-50928000D03*
X29790000Y-68708000D03*
X45030000Y-53468000D03*
X29790000Y-66168000D03*
X45030000Y-56008000D03*
X29790000Y-63628000D03*
X45030000Y-58548000D03*
X29790000Y-61088000D03*
X45030000Y-61088000D03*
X29790000Y-58548000D03*
X45030000Y-63628000D03*
X29790000Y-56008000D03*
X45030000Y-66168000D03*
X29790000Y-53468000D03*
X45030000Y-68708000D03*
X29790000Y-50928000D03*
X45030000Y-71248000D03*
X29790000Y-48388000D03*
X45030000Y-73788000D03*
X29790000Y-45848000D03*
X45030000Y-76328000D03*
X29790000Y-43308000D03*
X45030000Y-78868000D03*
X29790000Y-40768000D03*
X45030000Y-81408000D03*
X29790000Y-38228000D03*
X45030000Y-83948000D03*
X29790000Y-35688000D03*
X45030000Y-86488000D03*
X29790000Y-33148000D03*
X45030000Y-89028000D03*
D13*
X29790000Y-30608000D03*
D14*
X35560000Y-73660000D03*
X48260000Y-61595000D03*
X37465000Y-45720000D03*
X43180000Y-47625000D03*
X36195000Y-59690000D03*
D15*
X45030000Y-58548000D02*
X45048000Y-58548000D01*
X45048000Y-58548000D02*
X46320000Y-59820000D01*
X38735000Y-57150000D02*
X33655000Y-57150000D01*
X38735000Y-62230000D02*
X38735000Y-57150000D01*
X33655000Y-62230000D02*
X38735000Y-62230000D01*
X33655000Y-57150000D02*
X33655000Y-62230000D01*
X41741422Y-45085000D02*
X41741422Y-33896578D01*
X41741422Y-33896578D02*
X45030000Y-30608000D01*
X38700000Y-52200000D02*
X38700000Y-51194212D01*
X38700000Y-51194212D02*
X37663799Y-50158011D01*
X37663799Y-50158011D02*
X37663799Y-49162623D01*
X37663799Y-49162623D02*
X41741422Y-45085000D01*
X38700000Y-49660000D02*
X39411199Y-48948801D01*
X42475569Y-45347199D02*
X42475569Y-35702431D01*
X39411199Y-48948801D02*
X39411199Y-48411569D01*
X42475569Y-35702431D02*
X45030000Y-33148000D01*
X39411199Y-48411569D02*
X42475569Y-45347199D01*
X41240000Y-52200000D02*
X41240000Y-51193578D01*
X40203799Y-49162623D02*
X40789990Y-48576432D01*
X40789991Y-47669187D02*
X42925578Y-45533600D01*
X40789990Y-48576432D02*
X40789991Y-47669187D01*
X41240000Y-51193578D02*
X40203799Y-50157377D01*
X40203799Y-50157377D02*
X40203799Y-49162623D01*
X42925578Y-45533600D02*
X42925579Y-37792421D01*
X42925579Y-37792421D02*
X45030000Y-35688000D01*
X43375588Y-45720000D02*
X43375588Y-39882412D01*
X43375588Y-39882412D02*
X45030000Y-38228000D01*
X41240000Y-49660000D02*
X41240000Y-47855588D01*
X41240000Y-47855588D02*
X43375588Y-45720000D01*
X43780000Y-54740000D02*
X43780000Y-53733578D01*
X42293790Y-47438208D02*
X43083999Y-46647999D01*
X43780000Y-53733578D02*
X42293790Y-52247368D01*
X42293790Y-52247368D02*
X42293790Y-47438208D01*
X44230001Y-46647999D02*
X45030000Y-45848000D01*
X43083999Y-46647999D02*
X44230001Y-46647999D01*
X43780000Y-52200000D02*
X42743799Y-51163799D01*
X42743799Y-48061201D02*
X43180000Y-47625000D01*
X42743799Y-51163799D02*
X42743799Y-48061201D01*
X46320000Y-52200000D02*
X46320000Y-44598000D01*
X46320000Y-44598000D02*
X45030000Y-43308000D01*
X41108590Y-73025000D02*
X41276410Y-73025000D01*
X42014964Y-73763554D02*
X42014964Y-75858604D01*
X41276410Y-73025000D02*
X42014964Y-73763554D01*
X41910000Y-80278636D02*
X43004979Y-81373615D01*
X43004979Y-81373615D02*
X43004979Y-87002979D01*
X43004979Y-87002979D02*
X44230001Y-88228001D01*
X44230001Y-88228001D02*
X45030000Y-89028000D01*
X41910000Y-76390050D02*
X41910000Y-80278636D01*
X41564954Y-76045004D02*
X41910000Y-76390050D01*
X41107180Y-73660000D02*
X41275000Y-73660000D01*
X41275000Y-73660000D02*
X41564954Y-73949954D01*
X41564954Y-73949954D02*
X41564954Y-76045004D01*
X38913391Y-71466211D02*
X41107180Y-73660000D01*
X37646211Y-71466211D02*
X38913391Y-71466211D01*
X36160000Y-69980000D02*
X37646211Y-71466211D01*
X36160000Y-68445788D02*
X37663799Y-69949587D01*
X38202623Y-71016201D02*
X39099791Y-71016201D01*
X37663799Y-69949587D02*
X37663799Y-70477377D01*
X43004981Y-80655801D02*
X43454989Y-81105809D01*
X37663799Y-70477377D02*
X38202623Y-71016201D01*
X42545000Y-78292230D02*
X43004981Y-78752211D01*
X36160000Y-67440000D02*
X36160000Y-68445788D01*
X42014964Y-75858604D02*
X42545000Y-76388640D01*
X39099791Y-71016201D02*
X41108590Y-73025000D01*
X43004981Y-78752211D02*
X43004981Y-80655801D01*
X42545000Y-76388640D02*
X42545000Y-78292230D01*
X43454989Y-81105809D02*
X43454989Y-84912989D01*
X44230001Y-85688001D02*
X45030000Y-86488000D01*
X43454989Y-84912989D02*
X44230001Y-85688001D01*
X41110000Y-72390000D02*
X41910000Y-72390000D01*
X42464972Y-72944972D02*
X42464973Y-75672203D01*
X38700000Y-69980000D02*
X41110000Y-72390000D01*
X42464973Y-75672203D02*
X43004979Y-76212209D01*
X43004980Y-78115800D02*
X43454989Y-78565809D01*
X43454989Y-78565809D02*
X43454990Y-80469400D01*
X43004979Y-76212209D02*
X43004980Y-78115800D01*
X43904999Y-80919409D02*
X43904999Y-82822999D01*
X41910000Y-72390000D02*
X42464972Y-72944972D01*
X43454990Y-80469400D02*
X43904999Y-80919409D01*
X43904999Y-82822999D02*
X44230001Y-83148001D01*
X44230001Y-83148001D02*
X45030000Y-83948000D01*
X43454989Y-77929399D02*
X43904999Y-78379409D01*
X43904999Y-78379409D02*
X43904999Y-80282999D01*
X43904999Y-80282999D02*
X44230001Y-80608001D01*
X44230001Y-80608001D02*
X45030000Y-81408000D01*
X42914982Y-75485802D02*
X43454989Y-76025809D01*
X43454989Y-76025809D02*
X43454989Y-77929399D01*
X42112192Y-71755000D02*
X42914982Y-72557790D01*
X42914982Y-72557790D02*
X42914982Y-75485802D01*
X41275000Y-71755000D02*
X42112192Y-71755000D01*
X40203799Y-70683799D02*
X41275000Y-71755000D01*
X38700000Y-67440000D02*
X40203799Y-68943799D01*
X40203799Y-68943799D02*
X40203799Y-70683799D01*
X43364991Y-75299401D02*
X43904999Y-75839409D01*
X44230001Y-78068001D02*
X45030000Y-78868000D01*
X43904999Y-75839409D02*
X43904999Y-77742999D01*
X43904999Y-77742999D02*
X44230001Y-78068001D01*
X42113602Y-71120000D02*
X43364990Y-72371388D01*
X43364990Y-72371388D02*
X43364991Y-75299401D01*
X41374212Y-71120000D02*
X42113602Y-71120000D01*
X41240000Y-69980000D02*
X41240000Y-70985788D01*
X41240000Y-70985788D02*
X41374212Y-71120000D01*
X43815000Y-72184988D02*
X42276201Y-70646189D01*
X41951199Y-68151199D02*
X41240000Y-67440000D01*
X42276201Y-70646189D02*
X42276201Y-68476201D01*
X42276201Y-68476201D02*
X41951199Y-68151199D01*
X43815000Y-75113000D02*
X43815000Y-72184988D01*
X45030000Y-76328000D02*
X43815000Y-75113000D01*
X45030000Y-71248000D02*
X43514422Y-71248000D01*
X42743799Y-70477377D02*
X42743799Y-68476201D01*
X43068801Y-68151199D02*
X43780000Y-67440000D01*
X43514422Y-71248000D02*
X42743799Y-70477377D01*
X42743799Y-68476201D02*
X43068801Y-68151199D01*
X43780000Y-69980000D02*
X45427002Y-69980000D01*
X46155001Y-70707999D02*
X46155001Y-72662999D01*
X45427002Y-69980000D02*
X46155001Y-70707999D01*
X46155001Y-72662999D02*
X45829999Y-72988001D01*
X45829999Y-72988001D02*
X45030000Y-73788000D01*
X45030000Y-68708000D02*
X46585578Y-68708000D01*
X46585578Y-68708000D02*
X47356201Y-67937377D01*
X47356201Y-65936201D02*
X47031199Y-65611199D01*
X47356201Y-67937377D02*
X47356201Y-65936201D01*
X47031199Y-65611199D02*
X46320000Y-64900000D01*
X43780000Y-64900000D02*
X43780000Y-64918000D01*
X43780000Y-64918000D02*
X45030000Y-66168000D01*
X45030000Y-63628000D02*
X45052000Y-63628000D01*
X45052000Y-63628000D02*
X46320000Y-62360000D01*
X45030000Y-61088000D02*
X45030000Y-61110000D01*
X45030000Y-61110000D02*
X43780000Y-62360000D01*
X45030000Y-56008000D02*
X43518422Y-56008000D01*
X43518422Y-56008000D02*
X42743799Y-56782623D01*
X42743799Y-56782623D02*
X42743799Y-58783799D01*
X42743799Y-58783799D02*
X43068801Y-59108801D01*
X43068801Y-59108801D02*
X43780000Y-59820000D01*
X46320000Y-57280000D02*
X47356201Y-56243799D01*
X47356201Y-54242623D02*
X46581578Y-53468000D01*
X46581578Y-53468000D02*
X45030000Y-53468000D01*
X47356201Y-56243799D02*
X47356201Y-54242623D01*
X32430030Y-71806380D02*
X32430030Y-86387970D01*
X32430030Y-86387970D02*
X29790000Y-89028000D01*
X33116410Y-71120000D02*
X32430030Y-71806380D01*
X33620000Y-67440000D02*
X34656201Y-68476201D01*
X34656201Y-68476201D02*
X34656201Y-70477377D01*
X34656201Y-70477377D02*
X34013578Y-71120000D01*
X34013578Y-71120000D02*
X33116410Y-71120000D01*
X31980020Y-71619980D02*
X31980020Y-84297980D01*
X31980020Y-84297980D02*
X29790000Y-86488000D01*
X33620000Y-69980000D02*
X31980020Y-71619980D01*
X32116201Y-70533809D02*
X31530010Y-71120000D01*
X31530010Y-71120000D02*
X31530010Y-82207990D01*
X31530010Y-82207990D02*
X30589999Y-83148001D01*
X30589999Y-83148001D02*
X29790000Y-83948000D01*
X31080000Y-67440000D02*
X32116201Y-68476201D01*
X32116201Y-68476201D02*
X32116201Y-70533809D01*
X31080000Y-69980000D02*
X31080000Y-80118000D01*
X31080000Y-80118000D02*
X29790000Y-81408000D01*
X28575000Y-71120000D02*
X28658630Y-71248000D01*
X26000000Y-64900000D02*
X26000000Y-65906422D01*
X26000000Y-65906422D02*
X27036201Y-66942623D01*
X27036201Y-66942623D02*
X27036201Y-70009779D01*
X27036201Y-70009779D02*
X28146422Y-71120000D01*
X28146422Y-71120000D02*
X28575000Y-71120000D01*
X29790000Y-68708000D02*
X28274422Y-68708000D01*
X26497377Y-63863799D02*
X25970221Y-63863799D01*
X26497377Y-61323799D02*
X27533578Y-62360000D01*
X27053789Y-65788789D02*
X27053789Y-64420211D01*
X27503799Y-66238799D02*
X27053789Y-65788789D01*
X27503799Y-67937377D02*
X27503799Y-66238799D01*
X28274422Y-68708000D02*
X27503799Y-67937377D01*
X27053789Y-64420211D02*
X26497377Y-63863799D01*
X25970221Y-63863799D02*
X24963799Y-62857377D01*
X25502623Y-61323799D02*
X26497377Y-61323799D01*
X24963799Y-61862623D02*
X25502623Y-61323799D01*
X24963799Y-62857377D02*
X24963799Y-61862623D01*
X27533578Y-62360000D02*
X28540000Y-62360000D01*
X28658630Y-71248000D02*
X29790000Y-71248000D01*
X26000000Y-62360000D02*
X27503799Y-63863799D01*
X27503799Y-63863799D02*
X27503799Y-65397377D01*
X27503799Y-65397377D02*
X28274422Y-66168000D01*
X28274422Y-66168000D02*
X28658630Y-66168000D01*
X28658630Y-66168000D02*
X29790000Y-66168000D01*
X28540000Y-59820000D02*
X30187002Y-59820000D01*
X30187002Y-59820000D02*
X30915001Y-60547999D01*
X30915001Y-60547999D02*
X30915001Y-62502999D01*
X30915001Y-62502999D02*
X30589999Y-62828001D01*
X30589999Y-62828001D02*
X29790000Y-63628000D01*
X29790000Y-61088000D02*
X27268000Y-61088000D01*
X27268000Y-61088000D02*
X26000000Y-59820000D01*
X28540000Y-57280000D02*
X28540000Y-57298000D01*
X28540000Y-57298000D02*
X29790000Y-58548000D01*
X29790000Y-56008000D02*
X27272000Y-56008000D01*
X27272000Y-56008000D02*
X26000000Y-57280000D01*
X29790000Y-53468000D02*
X29790000Y-53490000D01*
X29790000Y-53490000D02*
X28540000Y-54740000D01*
X28575000Y-47455012D02*
X28575000Y-47063000D01*
X28575000Y-47063000D02*
X29790000Y-45848000D01*
X26000000Y-52200000D02*
X26000000Y-50030012D01*
X26000000Y-50030012D02*
X28575000Y-47455012D01*
X29790000Y-48388000D02*
X28278422Y-48388000D01*
X28278422Y-48388000D02*
X27305000Y-49361422D01*
X27305000Y-50965000D02*
X27828801Y-51488801D01*
X27305000Y-49361422D02*
X27305000Y-50965000D01*
X27828801Y-51488801D02*
X28540000Y-52200000D01*
X36160000Y-49660000D02*
X36160000Y-48698800D01*
X34520018Y-40867198D02*
X33285020Y-39632200D01*
X34520018Y-47058818D02*
X34520018Y-40867198D01*
X36160000Y-48698800D02*
X34520018Y-47058818D01*
X30840000Y-30608000D02*
X29790000Y-30608000D01*
X33285020Y-39632200D02*
X33285020Y-33053020D01*
X33285020Y-33053020D02*
X30840000Y-30608000D01*
X32835010Y-39818600D02*
X32835010Y-36193010D01*
X32835010Y-36193010D02*
X30589999Y-33947999D01*
X30589999Y-33947999D02*
X29790000Y-33148000D01*
X34070009Y-41053599D02*
X32835010Y-39818600D01*
X35123799Y-49093799D02*
X34070010Y-48040010D01*
X34070010Y-48040010D02*
X34070009Y-41053599D01*
X36160000Y-52200000D02*
X35123799Y-51163799D01*
X35123799Y-51163799D02*
X35123799Y-49093799D01*
X32385000Y-40005000D02*
X32385000Y-38283000D01*
X32385000Y-38283000D02*
X29790000Y-35688000D01*
X33620000Y-41240000D02*
X32385000Y-40005000D01*
X33620000Y-49660000D02*
X33620000Y-41240000D01*
X33620000Y-52200000D02*
X33620000Y-51194212D01*
X33620000Y-51194212D02*
X32566211Y-50140423D01*
X32566211Y-50140423D02*
X32566211Y-41004211D01*
X32566211Y-41004211D02*
X30589999Y-39027999D01*
X30589999Y-39027999D02*
X29790000Y-38228000D01*
X31080000Y-52200000D02*
X31080000Y-51194212D01*
X31080000Y-51194212D02*
X32116201Y-50158011D01*
X32116201Y-50158011D02*
X32116201Y-41429199D01*
X30330001Y-39642999D02*
X29249999Y-39642999D01*
X32116201Y-41429199D02*
X30330001Y-39642999D01*
X29249999Y-39642999D02*
X28664999Y-40227999D01*
X28664999Y-40227999D02*
X28664999Y-42182999D01*
X28664999Y-42182999D02*
X28990001Y-42508001D01*
X28990001Y-42508001D02*
X29790000Y-43308000D01*
X31080000Y-49660000D02*
X31080000Y-42058000D01*
X31080000Y-42058000D02*
X29790000Y-40768000D01*
X37235001Y-55650001D02*
X38735000Y-57150000D01*
X37213789Y-55628789D02*
X37235001Y-55650001D01*
X37213789Y-48976223D02*
X37213789Y-55628789D01*
X37465000Y-48725012D02*
X37213789Y-48976223D01*
X37465000Y-45720000D02*
X37465000Y-48725012D01*
X36195000Y-59690000D02*
X33655000Y-57150000D01*
G36*
X47626001Y-44390887D02*
G01*
X47620085Y-44422453D01*
X47626001Y-44481876D01*
X47626001Y-44495446D01*
X47630432Y-44526388D01*
X47638074Y-44603164D01*
X47643271Y-44616034D01*
X47645237Y-44629768D01*
X47677172Y-44700004D01*
X47706060Y-44771560D01*
X47714657Y-44782452D01*
X47720402Y-44795087D01*
X47770758Y-44853527D01*
X47818818Y-44914414D01*
X47829962Y-44922236D01*
X47838948Y-44932665D01*
X47915642Y-44982375D01*
X47936837Y-44997252D01*
X47944524Y-45001095D01*
X47991338Y-45031439D01*
X48025861Y-45041764D01*
X50166000Y-46111833D01*
X50166001Y-73268167D01*
X48029340Y-74336497D01*
X47998461Y-74345322D01*
X47947956Y-74377189D01*
X47935820Y-74383256D01*
X47910141Y-74401048D01*
X47844874Y-74442228D01*
X47835683Y-74452635D01*
X47824279Y-74460535D01*
X47775745Y-74520501D01*
X47724658Y-74578346D01*
X47718758Y-74590911D01*
X47710028Y-74601698D01*
X47680279Y-74672869D01*
X47647311Y-74743092D01*
X47645299Y-74756553D01*
X47639991Y-74769252D01*
X47629829Y-74860068D01*
X47626000Y-74885687D01*
X47626000Y-74894289D01*
X47619796Y-74949729D01*
X47626000Y-74985221D01*
X47626001Y-90806000D01*
X27304000Y-90806000D01*
X27304000Y-76259113D01*
X27309916Y-76227547D01*
X27304000Y-76168125D01*
X27304000Y-76154553D01*
X27299569Y-76123614D01*
X27291926Y-76046839D01*
X27286731Y-76033971D01*
X27284763Y-76020229D01*
X27252816Y-75949965D01*
X27223939Y-75878437D01*
X27215343Y-75867548D01*
X27209600Y-75854915D01*
X27159224Y-75796450D01*
X27111182Y-75735585D01*
X27100039Y-75727763D01*
X27091054Y-75717336D01*
X27014377Y-75667637D01*
X26993172Y-75652752D01*
X26985474Y-75648902D01*
X26938663Y-75618562D01*
X26904148Y-75608239D01*
X22224000Y-73268167D01*
X22224000Y-62917620D01*
X24204799Y-62917620D01*
X24204800Y-62917626D01*
X24204800Y-62977590D01*
X24223487Y-63035101D01*
X24232949Y-63094844D01*
X24260408Y-63148734D01*
X24279096Y-63206251D01*
X24314645Y-63255180D01*
X24342101Y-63309066D01*
X24512456Y-63479422D01*
X24512458Y-63479423D01*
X25013021Y-63979987D01*
X25001034Y-63991010D01*
X24855853Y-64182279D01*
X24746839Y-64396233D01*
X24677435Y-64626110D01*
X24649835Y-64864645D01*
X24664913Y-65104297D01*
X24722190Y-65337492D01*
X24819859Y-65556858D01*
X24954830Y-65755462D01*
X25122837Y-65927025D01*
X25241001Y-66011000D01*
X25241001Y-66026635D01*
X25259690Y-66084154D01*
X25269151Y-66143889D01*
X25296608Y-66197777D01*
X25315297Y-66255297D01*
X25328183Y-66273033D01*
X25177790Y-66368475D01*
X25001034Y-66531010D01*
X24855853Y-66722279D01*
X24746839Y-66936233D01*
X24677435Y-67166110D01*
X24649835Y-67404645D01*
X24664913Y-67644297D01*
X24722190Y-67877492D01*
X24819859Y-68096858D01*
X24954830Y-68295462D01*
X25122837Y-68467025D01*
X25318571Y-68606126D01*
X25535844Y-68708367D01*
X25767788Y-68770516D01*
X26007071Y-68790609D01*
X26246132Y-68768012D01*
X26277202Y-68759337D01*
X26277202Y-70129992D01*
X26295891Y-70187511D01*
X26305352Y-70247246D01*
X26332809Y-70301134D01*
X26351498Y-70358654D01*
X26387050Y-70407585D01*
X26414504Y-70461469D01*
X26464283Y-70511247D01*
X27651284Y-71698251D01*
X27651291Y-71698257D01*
X27694732Y-71741698D01*
X27748617Y-71769153D01*
X27797547Y-71804703D01*
X27855064Y-71823392D01*
X27908955Y-71850850D01*
X27968687Y-71860310D01*
X28026208Y-71879000D01*
X28225196Y-71879000D01*
X28297293Y-71915736D01*
X28385231Y-71966181D01*
X28404037Y-71970124D01*
X28421161Y-71978849D01*
X28521322Y-71994714D01*
X28571329Y-72005198D01*
X28610850Y-72073651D01*
X28772136Y-72265864D01*
X28964349Y-72427150D01*
X29121706Y-72518000D01*
X28964349Y-72608850D01*
X28772136Y-72770136D01*
X28610850Y-72962349D01*
X28485391Y-73179651D01*
X28399571Y-73415436D01*
X28356000Y-73662541D01*
X28356000Y-73913459D01*
X28399571Y-74160564D01*
X28485391Y-74396349D01*
X28610850Y-74613651D01*
X28772136Y-74805864D01*
X28964349Y-74967150D01*
X29121706Y-75058000D01*
X28964349Y-75148850D01*
X28772136Y-75310136D01*
X28610850Y-75502349D01*
X28485391Y-75719651D01*
X28399571Y-75955436D01*
X28356000Y-76202541D01*
X28356000Y-76453459D01*
X28399571Y-76700564D01*
X28485391Y-76936349D01*
X28610850Y-77153651D01*
X28772136Y-77345864D01*
X28964349Y-77507150D01*
X29121706Y-77598000D01*
X28964349Y-77688850D01*
X28772136Y-77850136D01*
X28610850Y-78042349D01*
X28485391Y-78259651D01*
X28399571Y-78495436D01*
X28356000Y-78742541D01*
X28356000Y-78993459D01*
X28399571Y-79240564D01*
X28485391Y-79476349D01*
X28610850Y-79693651D01*
X28772136Y-79885864D01*
X28964349Y-80047150D01*
X29121706Y-80138000D01*
X28964349Y-80228850D01*
X28772136Y-80390136D01*
X28610850Y-80582349D01*
X28485391Y-80799651D01*
X28399571Y-81035436D01*
X28356000Y-81282541D01*
X28356000Y-81533459D01*
X28399571Y-81780564D01*
X28485391Y-82016349D01*
X28610850Y-82233651D01*
X28772136Y-82425864D01*
X28964349Y-82587150D01*
X29121706Y-82678000D01*
X28964349Y-82768850D01*
X28772136Y-82930136D01*
X28610850Y-83122349D01*
X28485391Y-83339651D01*
X28399571Y-83575436D01*
X28356000Y-83822541D01*
X28356000Y-84073459D01*
X28399571Y-84320564D01*
X28485391Y-84556349D01*
X28610850Y-84773651D01*
X28772136Y-84965864D01*
X28964349Y-85127150D01*
X29121706Y-85218000D01*
X28964349Y-85308850D01*
X28772136Y-85470136D01*
X28610850Y-85662349D01*
X28485391Y-85879651D01*
X28399571Y-86115436D01*
X28356000Y-86362541D01*
X28356000Y-86613459D01*
X28399571Y-86860564D01*
X28485391Y-87096349D01*
X28610850Y-87313651D01*
X28772136Y-87505864D01*
X28964349Y-87667150D01*
X29121706Y-87758000D01*
X28964349Y-87848850D01*
X28772136Y-88010136D01*
X28610850Y-88202349D01*
X28485391Y-88419651D01*
X28399571Y-88655436D01*
X28356000Y-88902541D01*
X28356000Y-89153459D01*
X28399571Y-89400564D01*
X28485391Y-89636349D01*
X28610850Y-89853651D01*
X28772136Y-90045864D01*
X28964349Y-90207150D01*
X29181651Y-90332609D01*
X29417436Y-90418429D01*
X29664541Y-90462000D01*
X29915459Y-90462000D01*
X30162564Y-90418429D01*
X30398349Y-90332609D01*
X30615651Y-90207150D01*
X30807864Y-90045864D01*
X30969150Y-89853651D01*
X31094609Y-89636349D01*
X31180429Y-89400564D01*
X31224000Y-89153459D01*
X31224000Y-88902541D01*
X31188751Y-88702635D01*
X33001948Y-86889439D01*
X33051728Y-86839660D01*
X33079184Y-86785774D01*
X33114733Y-86736845D01*
X33133421Y-86679328D01*
X33160880Y-86625438D01*
X33170342Y-86565695D01*
X33189029Y-86508184D01*
X33189029Y-86448220D01*
X33189030Y-86448214D01*
X33189030Y-72120767D01*
X33430798Y-71879000D01*
X34073822Y-71879000D01*
X34073828Y-71878999D01*
X34133791Y-71878999D01*
X34191304Y-71860312D01*
X34251046Y-71850850D01*
X34304937Y-71823390D01*
X34362451Y-71804704D01*
X34411379Y-71769156D01*
X34465268Y-71741697D01*
X34635623Y-71571343D01*
X34635624Y-71571341D01*
X35228119Y-70978847D01*
X35241823Y-70965143D01*
X35282837Y-71007025D01*
X35478571Y-71146126D01*
X35695844Y-71248367D01*
X35927788Y-71310516D01*
X36167071Y-71330609D01*
X36406132Y-71308012D01*
X36412771Y-71306158D01*
X37038624Y-71932012D01*
X37194521Y-72087909D01*
X37248407Y-72115365D01*
X37297335Y-72150914D01*
X37354859Y-72169605D01*
X37408745Y-72197061D01*
X37468478Y-72206522D01*
X37525997Y-72225211D01*
X38599005Y-72225211D01*
X40499594Y-74125801D01*
X40655490Y-74281698D01*
X40709376Y-74309154D01*
X40758305Y-74344703D01*
X40805954Y-74360185D01*
X40805955Y-75944747D01*
X40805955Y-76165217D01*
X40824644Y-76222736D01*
X40834105Y-76282471D01*
X40861562Y-76336359D01*
X40880251Y-76393879D01*
X40915803Y-76442810D01*
X40943257Y-76496694D01*
X40993036Y-76546472D01*
X41151000Y-76704437D01*
X41151001Y-80178379D01*
X41151001Y-80398849D01*
X41169690Y-80456368D01*
X41179151Y-80516103D01*
X41206608Y-80569991D01*
X41225297Y-80627511D01*
X41260849Y-80676442D01*
X41288303Y-80730326D01*
X41338082Y-80780104D01*
X42245979Y-81688002D01*
X42245980Y-86902722D01*
X42245980Y-87123192D01*
X42264669Y-87180711D01*
X42274130Y-87240446D01*
X42301587Y-87294334D01*
X42320276Y-87351854D01*
X42355828Y-87400785D01*
X42383282Y-87454669D01*
X42433061Y-87504447D01*
X43631249Y-88702637D01*
X43596000Y-88902541D01*
X43596000Y-89153459D01*
X43639571Y-89400564D01*
X43725391Y-89636349D01*
X43850850Y-89853651D01*
X44012136Y-90045864D01*
X44204349Y-90207150D01*
X44421651Y-90332609D01*
X44657436Y-90418429D01*
X44904541Y-90462000D01*
X45155459Y-90462000D01*
X45402564Y-90418429D01*
X45638349Y-90332609D01*
X45855651Y-90207150D01*
X46047864Y-90045864D01*
X46209150Y-89853651D01*
X46334609Y-89636349D01*
X46420429Y-89400564D01*
X46464000Y-89153459D01*
X46464000Y-88902541D01*
X46420429Y-88655436D01*
X46334609Y-88419651D01*
X46209150Y-88202349D01*
X46047864Y-88010136D01*
X45855651Y-87848850D01*
X45698294Y-87758000D01*
X45855651Y-87667150D01*
X46047864Y-87505864D01*
X46209150Y-87313651D01*
X46334609Y-87096349D01*
X46420429Y-86860564D01*
X46464000Y-86613459D01*
X46464000Y-86362541D01*
X46420429Y-86115436D01*
X46334609Y-85879651D01*
X46209150Y-85662349D01*
X46047864Y-85470136D01*
X45855651Y-85308850D01*
X45698294Y-85218000D01*
X45855651Y-85127150D01*
X46047864Y-84965864D01*
X46209150Y-84773651D01*
X46334609Y-84556349D01*
X46420429Y-84320564D01*
X46464000Y-84073459D01*
X46464000Y-83822541D01*
X46420429Y-83575436D01*
X46334609Y-83339651D01*
X46209150Y-83122349D01*
X46047864Y-82930136D01*
X45855651Y-82768850D01*
X45698294Y-82678000D01*
X45855651Y-82587150D01*
X46047864Y-82425864D01*
X46209150Y-82233651D01*
X46334609Y-82016349D01*
X46420429Y-81780564D01*
X46464000Y-81533459D01*
X46464000Y-81282541D01*
X46420429Y-81035436D01*
X46334609Y-80799651D01*
X46209150Y-80582349D01*
X46047864Y-80390136D01*
X45855651Y-80228850D01*
X45698294Y-80138000D01*
X45855651Y-80047150D01*
X46047864Y-79885864D01*
X46209150Y-79693651D01*
X46334609Y-79476349D01*
X46420429Y-79240564D01*
X46464000Y-78993459D01*
X46464000Y-78742541D01*
X46420429Y-78495436D01*
X46334609Y-78259651D01*
X46209150Y-78042349D01*
X46047864Y-77850136D01*
X45855651Y-77688850D01*
X45698294Y-77598000D01*
X45855651Y-77507150D01*
X46047864Y-77345864D01*
X46209150Y-77153651D01*
X46334609Y-76936349D01*
X46420429Y-76700564D01*
X46464000Y-76453459D01*
X46464000Y-76202541D01*
X46420429Y-75955436D01*
X46334609Y-75719651D01*
X46209150Y-75502349D01*
X46047864Y-75310136D01*
X45855651Y-75148850D01*
X45698294Y-75058000D01*
X45855651Y-74967150D01*
X46047864Y-74805864D01*
X46209150Y-74613651D01*
X46334609Y-74396349D01*
X46420429Y-74160564D01*
X46464000Y-73913459D01*
X46464000Y-73662541D01*
X46428751Y-73462635D01*
X46606340Y-73285046D01*
X46606344Y-73285044D01*
X46776698Y-73114689D01*
X46804156Y-73060802D01*
X46839704Y-73011874D01*
X46858392Y-72954357D01*
X46885851Y-72900467D01*
X46895313Y-72840724D01*
X46914000Y-72783213D01*
X46914000Y-72723249D01*
X46914001Y-72723243D01*
X46914001Y-70647755D01*
X46914000Y-70647749D01*
X46914000Y-70587785D01*
X46895313Y-70530274D01*
X46885851Y-70470531D01*
X46858392Y-70416641D01*
X46839704Y-70359124D01*
X46804155Y-70310195D01*
X46776699Y-70256309D01*
X46138380Y-69617991D01*
X46209150Y-69533651D01*
X46247631Y-69467000D01*
X46645822Y-69467000D01*
X46645828Y-69466999D01*
X46705791Y-69466999D01*
X46763304Y-69448312D01*
X46823046Y-69438850D01*
X46876937Y-69411390D01*
X46934451Y-69392704D01*
X46983379Y-69357156D01*
X47037268Y-69329697D01*
X47207623Y-69159343D01*
X47207624Y-69159341D01*
X47928119Y-68438847D01*
X47977899Y-68389067D01*
X48005355Y-68335181D01*
X48040904Y-68286252D01*
X48059592Y-68228735D01*
X48087051Y-68174845D01*
X48096513Y-68115102D01*
X48115200Y-68057591D01*
X48115200Y-67997627D01*
X48115201Y-67997621D01*
X48115201Y-65875957D01*
X48115200Y-65875951D01*
X48115200Y-65815987D01*
X48096513Y-65758476D01*
X48087051Y-65698733D01*
X48059592Y-65644843D01*
X48040904Y-65587326D01*
X48005356Y-65538398D01*
X47977898Y-65484511D01*
X47807544Y-65314156D01*
X47807540Y-65314154D01*
X47643197Y-65149811D01*
X47657534Y-65088684D01*
X47665576Y-64781575D01*
X47622758Y-64543606D01*
X47539057Y-64318540D01*
X47416822Y-64111853D01*
X47259919Y-63930078D01*
X47073306Y-63778963D01*
X46862882Y-63663281D01*
X46768485Y-63631513D01*
X46797413Y-63623436D01*
X47013603Y-63518926D01*
X47207870Y-63377783D01*
X47374071Y-63204470D01*
X47506955Y-63004464D01*
X47602320Y-62784087D01*
X47657534Y-62548685D01*
X47665576Y-62241575D01*
X47622758Y-62003606D01*
X47539057Y-61778540D01*
X47416822Y-61571853D01*
X47259919Y-61390078D01*
X47073306Y-61238963D01*
X46862882Y-61123281D01*
X46768485Y-61091513D01*
X46797413Y-61083436D01*
X47013603Y-60978926D01*
X47178270Y-60859289D01*
X46138980Y-59820000D01*
X46501019Y-59820000D01*
X47362662Y-60681643D01*
X47506955Y-60464464D01*
X47602320Y-60244087D01*
X47657534Y-60008685D01*
X47665576Y-59701575D01*
X47622758Y-59463606D01*
X47539057Y-59238540D01*
X47369383Y-58951636D01*
X46501019Y-59820000D01*
X46138980Y-59820000D01*
X47193784Y-58765197D01*
X46862882Y-58583281D01*
X46768485Y-58551513D01*
X46797413Y-58543436D01*
X47013603Y-58438926D01*
X47207870Y-58297783D01*
X47374071Y-58124470D01*
X47506955Y-57924464D01*
X47602320Y-57704087D01*
X47657534Y-57468685D01*
X47665576Y-57161575D01*
X47642129Y-57031259D01*
X47939089Y-56734300D01*
X47939092Y-56734296D01*
X47977899Y-56695489D01*
X48005354Y-56641604D01*
X48040904Y-56592674D01*
X48059593Y-56535157D01*
X48087051Y-56481266D01*
X48096511Y-56421534D01*
X48115201Y-56364013D01*
X48115201Y-54182379D01*
X48115200Y-54182373D01*
X48115200Y-54122409D01*
X48096513Y-54064898D01*
X48087051Y-54005155D01*
X48059592Y-53951265D01*
X48040904Y-53893748D01*
X48005355Y-53844819D01*
X47977899Y-53790933D01*
X47822002Y-53635037D01*
X47304247Y-53117283D01*
X47374071Y-53044470D01*
X47506955Y-52844464D01*
X47602320Y-52624087D01*
X47657534Y-52388685D01*
X47665576Y-52081575D01*
X47622758Y-51843606D01*
X47539057Y-51618540D01*
X47416822Y-51411853D01*
X47259919Y-51230078D01*
X47079000Y-51083574D01*
X47079000Y-44537756D01*
X47078999Y-44537750D01*
X47078999Y-44477786D01*
X47060312Y-44420275D01*
X47050850Y-44360532D01*
X47023391Y-44306642D01*
X47004703Y-44249125D01*
X46969154Y-44200196D01*
X46941698Y-44146310D01*
X46428751Y-43633364D01*
X46464000Y-43433459D01*
X46464000Y-43182541D01*
X46420429Y-42935436D01*
X46334609Y-42699651D01*
X46209150Y-42482349D01*
X46047864Y-42290136D01*
X45855651Y-42128850D01*
X45698294Y-42038000D01*
X45855651Y-41947150D01*
X46047864Y-41785864D01*
X46209150Y-41593651D01*
X46334609Y-41376349D01*
X46420429Y-41140564D01*
X46464000Y-40893459D01*
X46464000Y-40642541D01*
X46420429Y-40395436D01*
X46334609Y-40159651D01*
X46209150Y-39942349D01*
X46047864Y-39750136D01*
X45855651Y-39588850D01*
X45698294Y-39498000D01*
X45855651Y-39407150D01*
X46047864Y-39245864D01*
X46209150Y-39053651D01*
X46334609Y-38836349D01*
X46420429Y-38600564D01*
X46464000Y-38353459D01*
X46464000Y-38102541D01*
X46420429Y-37855436D01*
X46334609Y-37619651D01*
X46209150Y-37402349D01*
X46047864Y-37210136D01*
X45855651Y-37048850D01*
X45698294Y-36958000D01*
X45855651Y-36867150D01*
X46047864Y-36705864D01*
X46209150Y-36513651D01*
X46334609Y-36296349D01*
X46420429Y-36060564D01*
X46464000Y-35813459D01*
X46464000Y-35562541D01*
X46420429Y-35315436D01*
X46334609Y-35079651D01*
X46209150Y-34862349D01*
X46047864Y-34670136D01*
X45855651Y-34508850D01*
X45698294Y-34418000D01*
X45855651Y-34327150D01*
X46047864Y-34165864D01*
X46209150Y-33973651D01*
X46334609Y-33756349D01*
X46420429Y-33520564D01*
X46464000Y-33273459D01*
X46464000Y-33022541D01*
X46420429Y-32775436D01*
X46334609Y-32539651D01*
X46209150Y-32322349D01*
X46047864Y-32130136D01*
X45855651Y-31968850D01*
X45698294Y-31878000D01*
X45855651Y-31787150D01*
X46047864Y-31625864D01*
X46209150Y-31433651D01*
X46334609Y-31216349D01*
X46420429Y-30980564D01*
X46464000Y-30733459D01*
X46464000Y-30482541D01*
X46420429Y-30235436D01*
X46334609Y-29999651D01*
X46209150Y-29782349D01*
X46047864Y-29590136D01*
X45855651Y-29428850D01*
X45638349Y-29303391D01*
X45402564Y-29217571D01*
X45155459Y-29174000D01*
X44904541Y-29174000D01*
X44657436Y-29217571D01*
X44421651Y-29303391D01*
X44204349Y-29428850D01*
X44012136Y-29590136D01*
X43850850Y-29782349D01*
X43725391Y-29999651D01*
X43639571Y-30235436D01*
X43596000Y-30482541D01*
X43596000Y-30733459D01*
X43631249Y-30933364D01*
X41275622Y-33288992D01*
X41119725Y-33444888D01*
X41092271Y-33498772D01*
X41056719Y-33547703D01*
X41038030Y-33605223D01*
X41010573Y-33659111D01*
X41001112Y-33718846D01*
X40982423Y-33776365D01*
X40982423Y-33846762D01*
X40982422Y-44770612D01*
X37290666Y-48462370D01*
X37285015Y-48455635D01*
X37091386Y-48343844D01*
X36882224Y-48306963D01*
X36813490Y-48306963D01*
X36809154Y-48300996D01*
X36781698Y-48247110D01*
X36625801Y-48091214D01*
X35279018Y-46744432D01*
X35279018Y-40806954D01*
X35279017Y-40806948D01*
X35279017Y-40746984D01*
X35260330Y-40689473D01*
X35250868Y-40629730D01*
X35223409Y-40575840D01*
X35204721Y-40518323D01*
X35169172Y-40469394D01*
X35141716Y-40415508D01*
X34985819Y-40259612D01*
X34044020Y-39317814D01*
X34044020Y-32992776D01*
X34044019Y-32992770D01*
X34044019Y-32932806D01*
X34025332Y-32875295D01*
X34015870Y-32815552D01*
X33988411Y-32761662D01*
X33969723Y-32704145D01*
X33934174Y-32655216D01*
X33906718Y-32601330D01*
X33750821Y-32445434D01*
X31462047Y-30156661D01*
X31462045Y-30156657D01*
X31291690Y-29986303D01*
X31237801Y-29958844D01*
X31231837Y-29954511D01*
X31231837Y-29791412D01*
X31151205Y-29490489D01*
X31003815Y-29314835D01*
X30810186Y-29203044D01*
X30601024Y-29166163D01*
X28973412Y-29166163D01*
X28672489Y-29246795D01*
X28496835Y-29394185D01*
X28385044Y-29587814D01*
X28348163Y-29796976D01*
X28348163Y-31424588D01*
X28428795Y-31725512D01*
X28576185Y-31901165D01*
X28769814Y-32012956D01*
X28887132Y-32033642D01*
X28772136Y-32130136D01*
X28610850Y-32322349D01*
X28485391Y-32539651D01*
X28399571Y-32775436D01*
X28356000Y-33022541D01*
X28356000Y-33273459D01*
X28399571Y-33520564D01*
X28485391Y-33756349D01*
X28610850Y-33973651D01*
X28772136Y-34165864D01*
X28964349Y-34327150D01*
X29121706Y-34418000D01*
X28964349Y-34508850D01*
X28772136Y-34670136D01*
X28610850Y-34862349D01*
X28485391Y-35079651D01*
X28399571Y-35315436D01*
X28356000Y-35562541D01*
X28356000Y-35813459D01*
X28399571Y-36060564D01*
X28485391Y-36296349D01*
X28610850Y-36513651D01*
X28772136Y-36705864D01*
X28964349Y-36867150D01*
X29121706Y-36958000D01*
X28964349Y-37048850D01*
X28772136Y-37210136D01*
X28610850Y-37402349D01*
X28485391Y-37619651D01*
X28399571Y-37855436D01*
X28356000Y-38102541D01*
X28356000Y-38353459D01*
X28399571Y-38600564D01*
X28485391Y-38836349D01*
X28610850Y-39053651D01*
X28681620Y-39137991D01*
X28213660Y-39605952D01*
X28213656Y-39605954D01*
X28043301Y-39776310D01*
X28015845Y-39830196D01*
X27980296Y-39879125D01*
X27961608Y-39936642D01*
X27934149Y-39990532D01*
X27924687Y-40050275D01*
X27906000Y-40107786D01*
X27906000Y-40167750D01*
X27905999Y-40167756D01*
X27906000Y-42082742D01*
X27906000Y-42303212D01*
X27924689Y-42360731D01*
X27934150Y-42420466D01*
X27961607Y-42474354D01*
X27980296Y-42531874D01*
X28015848Y-42580805D01*
X28043302Y-42634689D01*
X28391249Y-42982635D01*
X28356000Y-43182541D01*
X28356000Y-43433459D01*
X28399571Y-43680564D01*
X28485391Y-43916349D01*
X28610850Y-44133651D01*
X28772136Y-44325864D01*
X28964349Y-44487150D01*
X29121706Y-44578000D01*
X28964349Y-44668850D01*
X28772136Y-44830136D01*
X28610850Y-45022349D01*
X28485391Y-45239651D01*
X28399571Y-45475436D01*
X28356000Y-45722541D01*
X28356000Y-45973459D01*
X28391249Y-46173365D01*
X27953303Y-46611310D01*
X27925845Y-46665199D01*
X27890297Y-46714125D01*
X27871608Y-46771642D01*
X27844150Y-46825533D01*
X27834688Y-46885274D01*
X27816001Y-46942787D01*
X27816001Y-47002750D01*
X27816000Y-47002756D01*
X27816000Y-47140625D01*
X25534200Y-49422426D01*
X25378303Y-49578322D01*
X25350849Y-49632206D01*
X25315297Y-49681137D01*
X25296608Y-49738657D01*
X25269151Y-49792545D01*
X25259690Y-49852280D01*
X25241001Y-49909799D01*
X25241001Y-49980196D01*
X25241000Y-51088361D01*
X25177790Y-51128475D01*
X25001034Y-51291010D01*
X24855853Y-51482279D01*
X24746839Y-51696233D01*
X24677435Y-51926110D01*
X24649835Y-52164645D01*
X24664913Y-52404297D01*
X24722190Y-52637492D01*
X24819859Y-52856858D01*
X24954830Y-53055462D01*
X25122837Y-53227025D01*
X25318571Y-53366126D01*
X25535844Y-53468367D01*
X25547768Y-53471562D01*
X25380535Y-53539809D01*
X25177790Y-53668475D01*
X25001034Y-53831010D01*
X24855853Y-54022279D01*
X24746839Y-54236233D01*
X24677435Y-54466110D01*
X24649835Y-54704645D01*
X24664913Y-54944297D01*
X24722190Y-55177492D01*
X24819859Y-55396858D01*
X24954830Y-55595462D01*
X25122837Y-55767025D01*
X25318571Y-55906126D01*
X25535844Y-56008367D01*
X25547768Y-56011562D01*
X25380535Y-56079809D01*
X25177790Y-56208475D01*
X25001034Y-56371010D01*
X24855853Y-56562279D01*
X24746839Y-56776233D01*
X24677435Y-57006110D01*
X24649835Y-57244645D01*
X24664913Y-57484297D01*
X24722190Y-57717492D01*
X24819859Y-57936858D01*
X24954830Y-58135462D01*
X25122837Y-58307025D01*
X25318571Y-58446126D01*
X25535844Y-58548367D01*
X25547768Y-58551562D01*
X25380535Y-58619809D01*
X25177790Y-58748475D01*
X25001034Y-58911010D01*
X24855853Y-59102279D01*
X24746839Y-59316233D01*
X24677435Y-59546110D01*
X24649835Y-59784645D01*
X24664913Y-60024297D01*
X24722190Y-60257492D01*
X24819859Y-60476858D01*
X24954830Y-60675462D01*
X25015559Y-60737476D01*
X25001154Y-60751881D01*
X24497999Y-61255037D01*
X24342102Y-61410933D01*
X24314648Y-61464817D01*
X24279096Y-61513748D01*
X24260407Y-61571268D01*
X24232950Y-61625156D01*
X24223489Y-61684891D01*
X24204800Y-61742410D01*
X24204800Y-61812807D01*
X24204799Y-62917620D01*
X22224000Y-62917620D01*
X22224000Y-46111834D01*
X26900663Y-43773502D01*
X26931539Y-43764677D01*
X26982043Y-43732812D01*
X26994181Y-43726743D01*
X27019875Y-43708942D01*
X27085123Y-43667774D01*
X27094314Y-43657369D01*
X27105722Y-43649464D01*
X27154261Y-43589493D01*
X27205342Y-43531653D01*
X27211240Y-43519092D01*
X27219972Y-43508303D01*
X27249728Y-43437116D01*
X27282689Y-43366910D01*
X27284701Y-43353448D01*
X27290009Y-43340749D01*
X27300172Y-43249929D01*
X27304000Y-43224313D01*
X27304000Y-43215711D01*
X27310204Y-43160272D01*
X27304000Y-43124779D01*
X27304000Y-28574000D01*
X47626000Y-28574000D01*
X47626001Y-44390887D01*
G37*
D16*
X47626001Y-44390887D02*
X47620085Y-44422453D01*
X47626001Y-44481876D01*
X47626001Y-44495446D01*
X47630432Y-44526388D01*
X47638074Y-44603164D01*
X47643271Y-44616034D01*
X47645237Y-44629768D01*
X47677172Y-44700004D01*
X47706060Y-44771560D01*
X47714657Y-44782452D01*
X47720402Y-44795087D01*
X47770758Y-44853527D01*
X47818818Y-44914414D01*
X47829962Y-44922236D01*
X47838948Y-44932665D01*
X47915642Y-44982375D01*
X47936837Y-44997252D01*
X47944524Y-45001095D01*
X47991338Y-45031439D01*
X48025861Y-45041764D01*
X50166000Y-46111833D01*
X50166001Y-73268167D01*
X48029340Y-74336497D01*
X47998461Y-74345322D01*
X47947956Y-74377189D01*
X47935820Y-74383256D01*
X47910141Y-74401048D01*
X47844874Y-74442228D01*
X47835683Y-74452635D01*
X47824279Y-74460535D01*
X47775745Y-74520501D01*
X47724658Y-74578346D01*
X47718758Y-74590911D01*
X47710028Y-74601698D01*
X47680279Y-74672869D01*
X47647311Y-74743092D01*
X47645299Y-74756553D01*
X47639991Y-74769252D01*
X47629829Y-74860068D01*
X47626000Y-74885687D01*
X47626000Y-74894289D01*
X47619796Y-74949729D01*
X47626000Y-74985221D01*
X47626001Y-90806000D01*
X27304000Y-90806000D01*
X27304000Y-76259113D01*
X27309916Y-76227547D01*
X27304000Y-76168125D01*
X27304000Y-76154553D01*
X27299569Y-76123614D01*
X27291926Y-76046839D01*
X27286731Y-76033971D01*
X27284763Y-76020229D01*
X27252816Y-75949965D01*
X27223939Y-75878437D01*
X27215343Y-75867548D01*
X27209600Y-75854915D01*
X27159224Y-75796450D01*
X27111182Y-75735585D01*
X27100039Y-75727763D01*
X27091054Y-75717336D01*
X27014377Y-75667637D01*
X26993172Y-75652752D01*
X26985474Y-75648902D01*
X26938663Y-75618562D01*
X26904148Y-75608239D01*
X22224000Y-73268167D01*
X22224000Y-62917620D01*
X24204799Y-62917620D01*
X24204800Y-62917626D01*
X24204800Y-62977590D01*
X24223487Y-63035101D01*
X24232949Y-63094844D01*
X24260408Y-63148734D01*
X24279096Y-63206251D01*
X24314645Y-63255180D01*
X24342101Y-63309066D01*
X24512456Y-63479422D01*
X24512458Y-63479423D01*
X25013021Y-63979987D01*
X25001034Y-63991010D01*
X24855853Y-64182279D01*
X24746839Y-64396233D01*
X24677435Y-64626110D01*
X24649835Y-64864645D01*
X24664913Y-65104297D01*
X24722190Y-65337492D01*
X24819859Y-65556858D01*
X24954830Y-65755462D01*
X25122837Y-65927025D01*
X25241001Y-66011000D01*
X25241001Y-66026635D01*
X25259690Y-66084154D01*
X25269151Y-66143889D01*
X25296608Y-66197777D01*
X25315297Y-66255297D01*
X25328183Y-66273033D01*
X25177790Y-66368475D01*
X25001034Y-66531010D01*
X24855853Y-66722279D01*
X24746839Y-66936233D01*
X24677435Y-67166110D01*
X24649835Y-67404645D01*
X24664913Y-67644297D01*
X24722190Y-67877492D01*
X24819859Y-68096858D01*
X24954830Y-68295462D01*
X25122837Y-68467025D01*
X25318571Y-68606126D01*
X25535844Y-68708367D01*
X25767788Y-68770516D01*
X26007071Y-68790609D01*
X26246132Y-68768012D01*
X26277202Y-68759337D01*
X26277202Y-70129992D01*
X26295891Y-70187511D01*
X26305352Y-70247246D01*
X26332809Y-70301134D01*
X26351498Y-70358654D01*
X26387050Y-70407585D01*
X26414504Y-70461469D01*
X26464283Y-70511247D01*
X27651284Y-71698251D01*
X27651291Y-71698257D01*
X27694732Y-71741698D01*
X27748617Y-71769153D01*
X27797547Y-71804703D01*
X27855064Y-71823392D01*
X27908955Y-71850850D01*
X27968687Y-71860310D01*
X28026208Y-71879000D01*
X28225196Y-71879000D01*
X28297293Y-71915736D01*
X28385231Y-71966181D01*
X28404037Y-71970124D01*
X28421161Y-71978849D01*
X28521322Y-71994714D01*
X28571329Y-72005198D01*
X28610850Y-72073651D01*
X28772136Y-72265864D01*
X28964349Y-72427150D01*
X29121706Y-72518000D01*
X28964349Y-72608850D01*
X28772136Y-72770136D01*
X28610850Y-72962349D01*
X28485391Y-73179651D01*
X28399571Y-73415436D01*
X28356000Y-73662541D01*
X28356000Y-73913459D01*
X28399571Y-74160564D01*
X28485391Y-74396349D01*
X28610850Y-74613651D01*
X28772136Y-74805864D01*
X28964349Y-74967150D01*
X29121706Y-75058000D01*
X28964349Y-75148850D01*
X28772136Y-75310136D01*
X28610850Y-75502349D01*
X28485391Y-75719651D01*
X28399571Y-75955436D01*
X28356000Y-76202541D01*
X28356000Y-76453459D01*
X28399571Y-76700564D01*
X28485391Y-76936349D01*
X28610850Y-77153651D01*
X28772136Y-77345864D01*
X28964349Y-77507150D01*
X29121706Y-77598000D01*
X28964349Y-77688850D01*
X28772136Y-77850136D01*
X28610850Y-78042349D01*
X28485391Y-78259651D01*
X28399571Y-78495436D01*
X28356000Y-78742541D01*
X28356000Y-78993459D01*
X28399571Y-79240564D01*
X28485391Y-79476349D01*
X28610850Y-79693651D01*
X28772136Y-79885864D01*
X28964349Y-80047150D01*
X29121706Y-80138000D01*
X28964349Y-80228850D01*
X28772136Y-80390136D01*
X28610850Y-80582349D01*
X28485391Y-80799651D01*
X28399571Y-81035436D01*
X28356000Y-81282541D01*
X28356000Y-81533459D01*
X28399571Y-81780564D01*
X28485391Y-82016349D01*
X28610850Y-82233651D01*
X28772136Y-82425864D01*
X28964349Y-82587150D01*
X29121706Y-82678000D01*
X28964349Y-82768850D01*
X28772136Y-82930136D01*
X28610850Y-83122349D01*
X28485391Y-83339651D01*
X28399571Y-83575436D01*
X28356000Y-83822541D01*
X28356000Y-84073459D01*
X28399571Y-84320564D01*
X28485391Y-84556349D01*
X28610850Y-84773651D01*
X28772136Y-84965864D01*
X28964349Y-85127150D01*
X29121706Y-85218000D01*
X28964349Y-85308850D01*
X28772136Y-85470136D01*
X28610850Y-85662349D01*
X28485391Y-85879651D01*
X28399571Y-86115436D01*
X28356000Y-86362541D01*
X28356000Y-86613459D01*
X28399571Y-86860564D01*
X28485391Y-87096349D01*
X28610850Y-87313651D01*
X28772136Y-87505864D01*
X28964349Y-87667150D01*
X29121706Y-87758000D01*
X28964349Y-87848850D01*
X28772136Y-88010136D01*
X28610850Y-88202349D01*
X28485391Y-88419651D01*
X28399571Y-88655436D01*
X28356000Y-88902541D01*
X28356000Y-89153459D01*
X28399571Y-89400564D01*
X28485391Y-89636349D01*
X28610850Y-89853651D01*
X28772136Y-90045864D01*
X28964349Y-90207150D01*
X29181651Y-90332609D01*
X29417436Y-90418429D01*
X29664541Y-90462000D01*
X29915459Y-90462000D01*
X30162564Y-90418429D01*
X30398349Y-90332609D01*
X30615651Y-90207150D01*
X30807864Y-90045864D01*
X30969150Y-89853651D01*
X31094609Y-89636349D01*
X31180429Y-89400564D01*
X31224000Y-89153459D01*
X31224000Y-88902541D01*
X31188751Y-88702635D01*
X33001948Y-86889439D01*
X33051728Y-86839660D01*
X33079184Y-86785774D01*
X33114733Y-86736845D01*
X33133421Y-86679328D01*
X33160880Y-86625438D01*
X33170342Y-86565695D01*
X33189029Y-86508184D01*
X33189029Y-86448220D01*
X33189030Y-86448214D01*
X33189030Y-72120767D01*
X33430798Y-71879000D01*
X34073822Y-71879000D01*
X34073828Y-71878999D01*
X34133791Y-71878999D01*
X34191304Y-71860312D01*
X34251046Y-71850850D01*
X34304937Y-71823390D01*
X34362451Y-71804704D01*
X34411379Y-71769156D01*
X34465268Y-71741697D01*
X34635623Y-71571343D01*
X34635624Y-71571341D01*
X35228119Y-70978847D01*
X35241823Y-70965143D01*
X35282837Y-71007025D01*
X35478571Y-71146126D01*
X35695844Y-71248367D01*
X35927788Y-71310516D01*
X36167071Y-71330609D01*
X36406132Y-71308012D01*
X36412771Y-71306158D01*
X37038624Y-71932012D01*
X37194521Y-72087909D01*
X37248407Y-72115365D01*
X37297335Y-72150914D01*
X37354859Y-72169605D01*
X37408745Y-72197061D01*
X37468478Y-72206522D01*
X37525997Y-72225211D01*
X38599005Y-72225211D01*
X40499594Y-74125801D01*
X40655490Y-74281698D01*
X40709376Y-74309154D01*
X40758305Y-74344703D01*
X40805954Y-74360185D01*
X40805955Y-75944747D01*
X40805955Y-76165217D01*
X40824644Y-76222736D01*
X40834105Y-76282471D01*
X40861562Y-76336359D01*
X40880251Y-76393879D01*
X40915803Y-76442810D01*
X40943257Y-76496694D01*
X40993036Y-76546472D01*
X41151000Y-76704437D01*
X41151001Y-80178379D01*
X41151001Y-80398849D01*
X41169690Y-80456368D01*
X41179151Y-80516103D01*
X41206608Y-80569991D01*
X41225297Y-80627511D01*
X41260849Y-80676442D01*
X41288303Y-80730326D01*
X41338082Y-80780104D01*
X42245979Y-81688002D01*
X42245980Y-86902722D01*
X42245980Y-87123192D01*
X42264669Y-87180711D01*
X42274130Y-87240446D01*
X42301587Y-87294334D01*
X42320276Y-87351854D01*
X42355828Y-87400785D01*
X42383282Y-87454669D01*
X42433061Y-87504447D01*
X43631249Y-88702637D01*
X43596000Y-88902541D01*
X43596000Y-89153459D01*
X43639571Y-89400564D01*
X43725391Y-89636349D01*
X43850850Y-89853651D01*
X44012136Y-90045864D01*
X44204349Y-90207150D01*
X44421651Y-90332609D01*
X44657436Y-90418429D01*
X44904541Y-90462000D01*
X45155459Y-90462000D01*
X45402564Y-90418429D01*
X45638349Y-90332609D01*
X45855651Y-90207150D01*
X46047864Y-90045864D01*
X46209150Y-89853651D01*
X46334609Y-89636349D01*
X46420429Y-89400564D01*
X46464000Y-89153459D01*
X46464000Y-88902541D01*
X46420429Y-88655436D01*
X46334609Y-88419651D01*
X46209150Y-88202349D01*
X46047864Y-88010136D01*
X45855651Y-87848850D01*
X45698294Y-87758000D01*
X45855651Y-87667150D01*
X46047864Y-87505864D01*
X46209150Y-87313651D01*
X46334609Y-87096349D01*
X46420429Y-86860564D01*
X46464000Y-86613459D01*
X46464000Y-86362541D01*
X46420429Y-86115436D01*
X46334609Y-85879651D01*
X46209150Y-85662349D01*
X46047864Y-85470136D01*
X45855651Y-85308850D01*
X45698294Y-85218000D01*
X45855651Y-85127150D01*
X46047864Y-84965864D01*
X46209150Y-84773651D01*
X46334609Y-84556349D01*
X46420429Y-84320564D01*
X46464000Y-84073459D01*
X46464000Y-83822541D01*
X46420429Y-83575436D01*
X46334609Y-83339651D01*
X46209150Y-83122349D01*
X46047864Y-82930136D01*
X45855651Y-82768850D01*
X45698294Y-82678000D01*
X45855651Y-82587150D01*
X46047864Y-82425864D01*
X46209150Y-82233651D01*
X46334609Y-82016349D01*
X46420429Y-81780564D01*
X46464000Y-81533459D01*
X46464000Y-81282541D01*
X46420429Y-81035436D01*
X46334609Y-80799651D01*
X46209150Y-80582349D01*
X46047864Y-80390136D01*
X45855651Y-80228850D01*
X45698294Y-80138000D01*
X45855651Y-80047150D01*
X46047864Y-79885864D01*
X46209150Y-79693651D01*
X46334609Y-79476349D01*
X46420429Y-79240564D01*
X46464000Y-78993459D01*
X46464000Y-78742541D01*
X46420429Y-78495436D01*
X46334609Y-78259651D01*
X46209150Y-78042349D01*
X46047864Y-77850136D01*
X45855651Y-77688850D01*
X45698294Y-77598000D01*
X45855651Y-77507150D01*
X46047864Y-77345864D01*
X46209150Y-77153651D01*
X46334609Y-76936349D01*
X46420429Y-76700564D01*
X46464000Y-76453459D01*
X46464000Y-76202541D01*
X46420429Y-75955436D01*
X46334609Y-75719651D01*
X46209150Y-75502349D01*
X46047864Y-75310136D01*
X45855651Y-75148850D01*
X45698294Y-75058000D01*
X45855651Y-74967150D01*
X46047864Y-74805864D01*
X46209150Y-74613651D01*
X46334609Y-74396349D01*
X46420429Y-74160564D01*
X46464000Y-73913459D01*
X46464000Y-73662541D01*
X46428751Y-73462635D01*
X46606340Y-73285046D01*
X46606344Y-73285044D01*
X46776698Y-73114689D01*
X46804156Y-73060802D01*
X46839704Y-73011874D01*
X46858392Y-72954357D01*
X46885851Y-72900467D01*
X46895313Y-72840724D01*
X46914000Y-72783213D01*
X46914000Y-72723249D01*
X46914001Y-72723243D01*
X46914001Y-70647755D01*
X46914000Y-70647749D01*
X46914000Y-70587785D01*
X46895313Y-70530274D01*
X46885851Y-70470531D01*
X46858392Y-70416641D01*
X46839704Y-70359124D01*
X46804155Y-70310195D01*
X46776699Y-70256309D01*
X46138380Y-69617991D01*
X46209150Y-69533651D01*
X46247631Y-69467000D01*
X46645822Y-69467000D01*
X46645828Y-69466999D01*
X46705791Y-69466999D01*
X46763304Y-69448312D01*
X46823046Y-69438850D01*
X46876937Y-69411390D01*
X46934451Y-69392704D01*
X46983379Y-69357156D01*
X47037268Y-69329697D01*
X47207623Y-69159343D01*
X47207624Y-69159341D01*
X47928119Y-68438847D01*
X47977899Y-68389067D01*
X48005355Y-68335181D01*
X48040904Y-68286252D01*
X48059592Y-68228735D01*
X48087051Y-68174845D01*
X48096513Y-68115102D01*
X48115200Y-68057591D01*
X48115200Y-67997627D01*
X48115201Y-67997621D01*
X48115201Y-65875957D01*
X48115200Y-65875951D01*
X48115200Y-65815987D01*
X48096513Y-65758476D01*
X48087051Y-65698733D01*
X48059592Y-65644843D01*
X48040904Y-65587326D01*
X48005356Y-65538398D01*
X47977898Y-65484511D01*
X47807544Y-65314156D01*
X47807540Y-65314154D01*
X47643197Y-65149811D01*
X47657534Y-65088684D01*
X47665576Y-64781575D01*
X47622758Y-64543606D01*
X47539057Y-64318540D01*
X47416822Y-64111853D01*
X47259919Y-63930078D01*
X47073306Y-63778963D01*
X46862882Y-63663281D01*
X46768485Y-63631513D01*
X46797413Y-63623436D01*
X47013603Y-63518926D01*
X47207870Y-63377783D01*
X47374071Y-63204470D01*
X47506955Y-63004464D01*
X47602320Y-62784087D01*
X47657534Y-62548685D01*
X47665576Y-62241575D01*
X47622758Y-62003606D01*
X47539057Y-61778540D01*
X47416822Y-61571853D01*
X47259919Y-61390078D01*
X47073306Y-61238963D01*
X46862882Y-61123281D01*
X46768485Y-61091513D01*
X46797413Y-61083436D01*
X47013603Y-60978926D01*
X47178270Y-60859289D01*
X46138980Y-59820000D01*
X46501019Y-59820000D01*
X47362662Y-60681643D01*
X47506955Y-60464464D01*
X47602320Y-60244087D01*
X47657534Y-60008685D01*
X47665576Y-59701575D01*
X47622758Y-59463606D01*
X47539057Y-59238540D01*
X47369383Y-58951636D01*
X46501019Y-59820000D01*
X46138980Y-59820000D01*
X47193784Y-58765197D01*
X46862882Y-58583281D01*
X46768485Y-58551513D01*
X46797413Y-58543436D01*
X47013603Y-58438926D01*
X47207870Y-58297783D01*
X47374071Y-58124470D01*
X47506955Y-57924464D01*
X47602320Y-57704087D01*
X47657534Y-57468685D01*
X47665576Y-57161575D01*
X47642129Y-57031259D01*
X47939089Y-56734300D01*
X47939092Y-56734296D01*
X47977899Y-56695489D01*
X48005354Y-56641604D01*
X48040904Y-56592674D01*
X48059593Y-56535157D01*
X48087051Y-56481266D01*
X48096511Y-56421534D01*
X48115201Y-56364013D01*
X48115201Y-54182379D01*
X48115200Y-54182373D01*
X48115200Y-54122409D01*
X48096513Y-54064898D01*
X48087051Y-54005155D01*
X48059592Y-53951265D01*
X48040904Y-53893748D01*
X48005355Y-53844819D01*
X47977899Y-53790933D01*
X47822002Y-53635037D01*
X47304247Y-53117283D01*
X47374071Y-53044470D01*
X47506955Y-52844464D01*
X47602320Y-52624087D01*
X47657534Y-52388685D01*
X47665576Y-52081575D01*
X47622758Y-51843606D01*
X47539057Y-51618540D01*
X47416822Y-51411853D01*
X47259919Y-51230078D01*
X47079000Y-51083574D01*
X47079000Y-44537756D01*
X47078999Y-44537750D01*
X47078999Y-44477786D01*
X47060312Y-44420275D01*
X47050850Y-44360532D01*
X47023391Y-44306642D01*
X47004703Y-44249125D01*
X46969154Y-44200196D01*
X46941698Y-44146310D01*
X46428751Y-43633364D01*
X46464000Y-43433459D01*
X46464000Y-43182541D01*
X46420429Y-42935436D01*
X46334609Y-42699651D01*
X46209150Y-42482349D01*
X46047864Y-42290136D01*
X45855651Y-42128850D01*
X45698294Y-42038000D01*
X45855651Y-41947150D01*
X46047864Y-41785864D01*
X46209150Y-41593651D01*
X46334609Y-41376349D01*
X46420429Y-41140564D01*
X46464000Y-40893459D01*
X46464000Y-40642541D01*
X46420429Y-40395436D01*
X46334609Y-40159651D01*
X46209150Y-39942349D01*
X46047864Y-39750136D01*
X45855651Y-39588850D01*
X45698294Y-39498000D01*
X45855651Y-39407150D01*
X46047864Y-39245864D01*
X46209150Y-39053651D01*
X46334609Y-38836349D01*
X46420429Y-38600564D01*
X46464000Y-38353459D01*
X46464000Y-38102541D01*
X46420429Y-37855436D01*
X46334609Y-37619651D01*
X46209150Y-37402349D01*
X46047864Y-37210136D01*
X45855651Y-37048850D01*
X45698294Y-36958000D01*
X45855651Y-36867150D01*
X46047864Y-36705864D01*
X46209150Y-36513651D01*
X46334609Y-36296349D01*
X46420429Y-36060564D01*
X46464000Y-35813459D01*
X46464000Y-35562541D01*
X46420429Y-35315436D01*
X46334609Y-35079651D01*
X46209150Y-34862349D01*
X46047864Y-34670136D01*
X45855651Y-34508850D01*
X45698294Y-34418000D01*
X45855651Y-34327150D01*
X46047864Y-34165864D01*
X46209150Y-33973651D01*
X46334609Y-33756349D01*
X46420429Y-33520564D01*
X46464000Y-33273459D01*
X46464000Y-33022541D01*
X46420429Y-32775436D01*
X46334609Y-32539651D01*
X46209150Y-32322349D01*
X46047864Y-32130136D01*
X45855651Y-31968850D01*
X45698294Y-31878000D01*
X45855651Y-31787150D01*
X46047864Y-31625864D01*
X46209150Y-31433651D01*
X46334609Y-31216349D01*
X46420429Y-30980564D01*
X46464000Y-30733459D01*
X46464000Y-30482541D01*
X46420429Y-30235436D01*
X46334609Y-29999651D01*
X46209150Y-29782349D01*
X46047864Y-29590136D01*
X45855651Y-29428850D01*
X45638349Y-29303391D01*
X45402564Y-29217571D01*
X45155459Y-29174000D01*
X44904541Y-29174000D01*
X44657436Y-29217571D01*
X44421651Y-29303391D01*
X44204349Y-29428850D01*
X44012136Y-29590136D01*
X43850850Y-29782349D01*
X43725391Y-29999651D01*
X43639571Y-30235436D01*
X43596000Y-30482541D01*
X43596000Y-30733459D01*
X43631249Y-30933364D01*
X41275622Y-33288992D01*
X41119725Y-33444888D01*
X41092271Y-33498772D01*
X41056719Y-33547703D01*
X41038030Y-33605223D01*
X41010573Y-33659111D01*
X41001112Y-33718846D01*
X40982423Y-33776365D01*
X40982423Y-33846762D01*
X40982422Y-44770612D01*
X37290666Y-48462370D01*
X37285015Y-48455635D01*
X37091386Y-48343844D01*
X36882224Y-48306963D01*
X36813490Y-48306963D01*
X36809154Y-48300996D01*
X36781698Y-48247110D01*
X36625801Y-48091214D01*
X35279018Y-46744432D01*
X35279018Y-40806954D01*
X35279017Y-40806948D01*
X35279017Y-40746984D01*
X35260330Y-40689473D01*
X35250868Y-40629730D01*
X35223409Y-40575840D01*
X35204721Y-40518323D01*
X35169172Y-40469394D01*
X35141716Y-40415508D01*
X34985819Y-40259612D01*
X34044020Y-39317814D01*
X34044020Y-32992776D01*
X34044019Y-32992770D01*
X34044019Y-32932806D01*
X34025332Y-32875295D01*
X34015870Y-32815552D01*
X33988411Y-32761662D01*
X33969723Y-32704145D01*
X33934174Y-32655216D01*
X33906718Y-32601330D01*
X33750821Y-32445434D01*
X31462047Y-30156661D01*
X31462045Y-30156657D01*
X31291690Y-29986303D01*
X31237801Y-29958844D01*
X31231837Y-29954511D01*
X31231837Y-29791412D01*
X31151205Y-29490489D01*
X31003815Y-29314835D01*
X30810186Y-29203044D01*
X30601024Y-29166163D01*
X28973412Y-29166163D01*
X28672489Y-29246795D01*
X28496835Y-29394185D01*
X28385044Y-29587814D01*
X28348163Y-29796976D01*
X28348163Y-31424588D01*
X28428795Y-31725512D01*
X28576185Y-31901165D01*
X28769814Y-32012956D01*
X28887132Y-32033642D01*
X28772136Y-32130136D01*
X28610850Y-32322349D01*
X28485391Y-32539651D01*
X28399571Y-32775436D01*
X28356000Y-33022541D01*
X28356000Y-33273459D01*
X28399571Y-33520564D01*
X28485391Y-33756349D01*
X28610850Y-33973651D01*
X28772136Y-34165864D01*
X28964349Y-34327150D01*
X29121706Y-34418000D01*
X28964349Y-34508850D01*
X28772136Y-34670136D01*
X28610850Y-34862349D01*
X28485391Y-35079651D01*
X28399571Y-35315436D01*
X28356000Y-35562541D01*
X28356000Y-35813459D01*
X28399571Y-36060564D01*
X28485391Y-36296349D01*
X28610850Y-36513651D01*
X28772136Y-36705864D01*
X28964349Y-36867150D01*
X29121706Y-36958000D01*
X28964349Y-37048850D01*
X28772136Y-37210136D01*
X28610850Y-37402349D01*
X28485391Y-37619651D01*
X28399571Y-37855436D01*
X28356000Y-38102541D01*
X28356000Y-38353459D01*
X28399571Y-38600564D01*
X28485391Y-38836349D01*
X28610850Y-39053651D01*
X28681620Y-39137991D01*
X28213660Y-39605952D01*
X28213656Y-39605954D01*
X28043301Y-39776310D01*
X28015845Y-39830196D01*
X27980296Y-39879125D01*
X27961608Y-39936642D01*
X27934149Y-39990532D01*
X27924687Y-40050275D01*
X27906000Y-40107786D01*
X27906000Y-40167750D01*
X27905999Y-40167756D01*
X27906000Y-42082742D01*
X27906000Y-42303212D01*
X27924689Y-42360731D01*
X27934150Y-42420466D01*
X27961607Y-42474354D01*
X27980296Y-42531874D01*
X28015848Y-42580805D01*
X28043302Y-42634689D01*
X28391249Y-42982635D01*
X28356000Y-43182541D01*
X28356000Y-43433459D01*
X28399571Y-43680564D01*
X28485391Y-43916349D01*
X28610850Y-44133651D01*
X28772136Y-44325864D01*
X28964349Y-44487150D01*
X29121706Y-44578000D01*
X28964349Y-44668850D01*
X28772136Y-44830136D01*
X28610850Y-45022349D01*
X28485391Y-45239651D01*
X28399571Y-45475436D01*
X28356000Y-45722541D01*
X28356000Y-45973459D01*
X28391249Y-46173365D01*
X27953303Y-46611310D01*
X27925845Y-46665199D01*
X27890297Y-46714125D01*
X27871608Y-46771642D01*
X27844150Y-46825533D01*
X27834688Y-46885274D01*
X27816001Y-46942787D01*
X27816001Y-47002750D01*
X27816000Y-47002756D01*
X27816000Y-47140625D01*
X25534200Y-49422426D01*
X25378303Y-49578322D01*
X25350849Y-49632206D01*
X25315297Y-49681137D01*
X25296608Y-49738657D01*
X25269151Y-49792545D01*
X25259690Y-49852280D01*
X25241001Y-49909799D01*
X25241001Y-49980196D01*
X25241000Y-51088361D01*
X25177790Y-51128475D01*
X25001034Y-51291010D01*
X24855853Y-51482279D01*
X24746839Y-51696233D01*
X24677435Y-51926110D01*
X24649835Y-52164645D01*
X24664913Y-52404297D01*
X24722190Y-52637492D01*
X24819859Y-52856858D01*
X24954830Y-53055462D01*
X25122837Y-53227025D01*
X25318571Y-53366126D01*
X25535844Y-53468367D01*
X25547768Y-53471562D01*
X25380535Y-53539809D01*
X25177790Y-53668475D01*
X25001034Y-53831010D01*
X24855853Y-54022279D01*
X24746839Y-54236233D01*
X24677435Y-54466110D01*
X24649835Y-54704645D01*
X24664913Y-54944297D01*
X24722190Y-55177492D01*
X24819859Y-55396858D01*
X24954830Y-55595462D01*
X25122837Y-55767025D01*
X25318571Y-55906126D01*
X25535844Y-56008367D01*
X25547768Y-56011562D01*
X25380535Y-56079809D01*
X25177790Y-56208475D01*
X25001034Y-56371010D01*
X24855853Y-56562279D01*
X24746839Y-56776233D01*
X24677435Y-57006110D01*
X24649835Y-57244645D01*
X24664913Y-57484297D01*
X24722190Y-57717492D01*
X24819859Y-57936858D01*
X24954830Y-58135462D01*
X25122837Y-58307025D01*
X25318571Y-58446126D01*
X25535844Y-58548367D01*
X25547768Y-58551562D01*
X25380535Y-58619809D01*
X25177790Y-58748475D01*
X25001034Y-58911010D01*
X24855853Y-59102279D01*
X24746839Y-59316233D01*
X24677435Y-59546110D01*
X24649835Y-59784645D01*
X24664913Y-60024297D01*
X24722190Y-60257492D01*
X24819859Y-60476858D01*
X24954830Y-60675462D01*
X25015559Y-60737476D01*
X25001154Y-60751881D01*
X24497999Y-61255037D01*
X24342102Y-61410933D01*
X24314648Y-61464817D01*
X24279096Y-61513748D01*
X24260407Y-61571268D01*
X24232950Y-61625156D01*
X24223489Y-61684891D01*
X24204800Y-61742410D01*
X24204800Y-61812807D01*
X24204799Y-62917620D01*
X22224000Y-62917620D01*
X22224000Y-46111834D01*
X26900663Y-43773502D01*
X26931539Y-43764677D01*
X26982043Y-43732812D01*
X26994181Y-43726743D01*
X27019875Y-43708942D01*
X27085123Y-43667774D01*
X27094314Y-43657369D01*
X27105722Y-43649464D01*
X27154261Y-43589493D01*
X27205342Y-43531653D01*
X27211240Y-43519092D01*
X27219972Y-43508303D01*
X27249728Y-43437116D01*
X27282689Y-43366910D01*
X27284701Y-43353448D01*
X27290009Y-43340749D01*
X27300172Y-43249929D01*
X27304000Y-43224313D01*
X27304000Y-43215711D01*
X27310204Y-43160272D01*
X27304000Y-43124779D01*
X27304000Y-28574000D01*
X47626000Y-28574000D01*
X47626001Y-44390887D01*
G36*
X40059859Y-52856858D02*
G01*
X40194830Y-53055462D01*
X40362837Y-53227025D01*
X40558571Y-53366126D01*
X40775844Y-53468367D01*
X41007788Y-53530516D01*
X41247071Y-53550609D01*
X41486132Y-53528012D01*
X41717413Y-53463436D01*
X41933603Y-53358926D01*
X42127869Y-53217783D01*
X42158684Y-53185649D01*
X42793021Y-53819987D01*
X42781034Y-53831010D01*
X42635853Y-54022279D01*
X42526839Y-54236233D01*
X42457435Y-54466110D01*
X42429835Y-54704645D01*
X42444913Y-54944297D01*
X42502190Y-55177492D01*
X42599859Y-55396858D01*
X42734829Y-55595462D01*
X42795558Y-55657476D01*
X42292458Y-56160577D01*
X42292456Y-56160578D01*
X42122101Y-56330934D01*
X42094645Y-56384820D01*
X42059096Y-56433749D01*
X42040408Y-56491266D01*
X42012949Y-56545156D01*
X42003487Y-56604899D01*
X41984800Y-56662410D01*
X41984800Y-56722374D01*
X41984799Y-56722380D01*
X41984800Y-58683542D01*
X41984800Y-58904012D01*
X42003489Y-58961531D01*
X42012950Y-59021266D01*
X42040407Y-59075154D01*
X42059096Y-59132674D01*
X42094648Y-59181605D01*
X42122102Y-59235489D01*
X42454872Y-59568258D01*
X42429835Y-59784645D01*
X42444913Y-60024297D01*
X42502190Y-60257492D01*
X42599859Y-60476858D01*
X42734830Y-60675462D01*
X42902837Y-60847025D01*
X43098571Y-60986126D01*
X43315844Y-61088367D01*
X43327768Y-61091562D01*
X43160535Y-61159809D01*
X42957790Y-61288475D01*
X42781034Y-61451010D01*
X42635853Y-61642279D01*
X42526839Y-61856233D01*
X42457435Y-62086110D01*
X42429835Y-62324645D01*
X42444913Y-62564297D01*
X42502190Y-62797492D01*
X42599859Y-63016858D01*
X42734830Y-63215462D01*
X42902837Y-63387025D01*
X43098571Y-63526126D01*
X43315844Y-63628367D01*
X43327768Y-63631562D01*
X43160535Y-63699809D01*
X42957790Y-63828475D01*
X42781034Y-63991010D01*
X42635853Y-64182279D01*
X42526839Y-64396233D01*
X42457435Y-64626110D01*
X42429835Y-64864645D01*
X42444913Y-65104297D01*
X42502190Y-65337492D01*
X42599859Y-65556858D01*
X42734830Y-65755462D01*
X42902837Y-65927025D01*
X43098571Y-66066126D01*
X43315844Y-66168367D01*
X43327768Y-66171562D01*
X43160535Y-66239809D01*
X42957790Y-66368475D01*
X42781034Y-66531010D01*
X42635853Y-66722279D01*
X42526839Y-66936233D01*
X42509414Y-66993947D01*
X42459057Y-66858540D01*
X42336822Y-66651853D01*
X42179919Y-66470078D01*
X41993306Y-66318963D01*
X41782882Y-66203281D01*
X41555298Y-66126690D01*
X41317748Y-66091612D01*
X41077740Y-66099154D01*
X40842861Y-66149079D01*
X40620535Y-66239809D01*
X40417790Y-66368475D01*
X40241034Y-66531010D01*
X40095853Y-66722279D01*
X39986839Y-66936233D01*
X39969414Y-66993947D01*
X39919057Y-66858540D01*
X39796822Y-66651853D01*
X39639919Y-66470078D01*
X39453306Y-66318963D01*
X39242882Y-66203281D01*
X39015298Y-66126690D01*
X38777748Y-66091612D01*
X38537740Y-66099154D01*
X38302861Y-66149079D01*
X38080535Y-66239809D01*
X37877790Y-66368475D01*
X37701034Y-66531010D01*
X37555853Y-66722279D01*
X37446839Y-66936233D01*
X37429414Y-66993947D01*
X37379057Y-66858540D01*
X37256822Y-66651853D01*
X37099919Y-66470078D01*
X36913306Y-66318963D01*
X36702882Y-66203281D01*
X36475298Y-66126690D01*
X36237748Y-66091612D01*
X35997740Y-66099154D01*
X35762861Y-66149079D01*
X35540535Y-66239809D01*
X35337790Y-66368475D01*
X35161034Y-66531010D01*
X35015853Y-66722279D01*
X34906839Y-66936233D01*
X34889414Y-66993947D01*
X34839057Y-66858540D01*
X34716822Y-66651853D01*
X34559919Y-66470078D01*
X34373306Y-66318963D01*
X34162882Y-66203281D01*
X33935298Y-66126690D01*
X33697748Y-66091612D01*
X33457740Y-66099154D01*
X33222861Y-66149079D01*
X33000535Y-66239809D01*
X32797790Y-66368475D01*
X32621034Y-66531010D01*
X32475853Y-66722279D01*
X32366839Y-66936233D01*
X32349414Y-66993947D01*
X32299057Y-66858540D01*
X32176822Y-66651853D01*
X32019919Y-66470078D01*
X31833306Y-66318963D01*
X31622882Y-66203281D01*
X31395298Y-66126690D01*
X31224000Y-66101395D01*
X31224000Y-66042541D01*
X31180429Y-65795436D01*
X31094609Y-65559651D01*
X30969150Y-65342349D01*
X30807864Y-65150136D01*
X30615651Y-64988850D01*
X30458294Y-64898000D01*
X30615651Y-64807150D01*
X30807864Y-64645864D01*
X30969150Y-64453651D01*
X31094609Y-64236349D01*
X31180429Y-64000564D01*
X31210557Y-63829693D01*
X32236326Y-63829693D01*
X32458768Y-64003486D01*
X32717231Y-64152710D01*
X32993948Y-64264511D01*
X33283530Y-64336711D01*
X33580343Y-64367908D01*
X33878609Y-64357492D01*
X34172522Y-64305667D01*
X34456363Y-64213441D01*
X34724606Y-64082611D01*
X35084106Y-63840125D01*
X35073674Y-63829693D01*
X37316326Y-63829693D01*
X37538768Y-64003486D01*
X37797231Y-64152710D01*
X38073948Y-64264511D01*
X38363530Y-64336711D01*
X38660343Y-64367908D01*
X38958609Y-64357492D01*
X39252522Y-64305667D01*
X39536363Y-64213441D01*
X39804606Y-64082611D01*
X40164106Y-63840125D01*
X38735000Y-62411019D01*
X37316326Y-63829693D01*
X35073674Y-63829693D01*
X33655000Y-62411019D01*
X32236326Y-63829693D01*
X31210557Y-63829693D01*
X31224000Y-63753459D01*
X31224000Y-63502541D01*
X31188751Y-63302635D01*
X31366340Y-63125046D01*
X31366344Y-63125044D01*
X31536698Y-62954689D01*
X31564156Y-62900802D01*
X31599704Y-62851874D01*
X31604743Y-62836365D01*
X31700734Y-63100095D01*
X31840846Y-63363609D01*
X32051052Y-63652929D01*
X33473981Y-62230000D01*
X33836019Y-62230000D01*
X35252322Y-63646303D01*
X35385658Y-63487396D01*
X35543811Y-63234299D01*
X35665200Y-62961653D01*
X35747464Y-62674767D01*
X35789000Y-62379224D01*
X35789000Y-62230000D01*
X36595789Y-62230000D01*
X36616608Y-62527721D01*
X36678658Y-62819646D01*
X36780734Y-63100095D01*
X36920846Y-63363609D01*
X37131052Y-63652929D01*
X38553981Y-62230000D01*
X38916019Y-62230000D01*
X40332322Y-63646303D01*
X40465658Y-63487396D01*
X40623811Y-63234299D01*
X40745200Y-62961653D01*
X40827464Y-62674767D01*
X40869000Y-62379224D01*
X40869000Y-62080776D01*
X40827464Y-61785233D01*
X40745200Y-61498347D01*
X40623811Y-61225701D01*
X40465658Y-60972604D01*
X40332322Y-60813697D01*
X38916019Y-62230000D01*
X38553981Y-62230000D01*
X37131052Y-60807071D01*
X36920846Y-61096391D01*
X36780734Y-61359905D01*
X36678658Y-61640354D01*
X36616608Y-61932279D01*
X36595789Y-62230000D01*
X35789000Y-62230000D01*
X35789000Y-62080776D01*
X35747464Y-61785233D01*
X35665200Y-61498347D01*
X35543811Y-61225701D01*
X35385658Y-60972604D01*
X35252322Y-60813697D01*
X33836019Y-62230000D01*
X33473981Y-62230000D01*
X32051052Y-60807071D01*
X31840846Y-61096391D01*
X31700734Y-61359905D01*
X31674001Y-61433353D01*
X31674001Y-60630307D01*
X32236326Y-60630307D01*
X33655000Y-62048981D01*
X35073674Y-60630307D01*
X37316326Y-60630307D01*
X38735000Y-62048981D01*
X40164106Y-60619875D01*
X39804606Y-60377389D01*
X39536363Y-60246559D01*
X39252522Y-60154333D01*
X38958609Y-60102508D01*
X38660343Y-60092092D01*
X38363530Y-60123289D01*
X38073948Y-60195489D01*
X37797231Y-60307290D01*
X37538768Y-60456514D01*
X37316326Y-60630307D01*
X35073674Y-60630307D01*
X35084106Y-60619875D01*
X34724606Y-60377389D01*
X34456363Y-60246559D01*
X34172522Y-60154333D01*
X33878609Y-60102508D01*
X33580343Y-60092092D01*
X33283530Y-60123289D01*
X32993948Y-60195489D01*
X32717231Y-60307290D01*
X32458768Y-60456514D01*
X32236326Y-60630307D01*
X31674001Y-60630307D01*
X31674001Y-60487755D01*
X31674000Y-60487749D01*
X31674000Y-60427785D01*
X31655313Y-60370274D01*
X31645851Y-60310531D01*
X31618392Y-60256641D01*
X31599704Y-60199124D01*
X31564155Y-60150195D01*
X31536699Y-60096309D01*
X30898380Y-59457991D01*
X30969150Y-59373651D01*
X31094609Y-59156349D01*
X31180429Y-58920564D01*
X31210557Y-58749693D01*
X32236326Y-58749693D01*
X32458768Y-58923486D01*
X32717231Y-59072710D01*
X32993948Y-59184511D01*
X33283530Y-59256711D01*
X33580343Y-59287908D01*
X33878609Y-59277492D01*
X34172522Y-59225667D01*
X34456363Y-59133441D01*
X34724606Y-59002611D01*
X35084106Y-58760125D01*
X35073674Y-58749693D01*
X37316326Y-58749693D01*
X37538768Y-58923486D01*
X37797231Y-59072710D01*
X38073948Y-59184511D01*
X38363530Y-59256711D01*
X38660343Y-59287908D01*
X38958609Y-59277492D01*
X39252522Y-59225667D01*
X39536363Y-59133441D01*
X39804606Y-59002611D01*
X40164106Y-58760125D01*
X38735000Y-57331019D01*
X37316326Y-58749693D01*
X35073674Y-58749693D01*
X33655000Y-57331019D01*
X32236326Y-58749693D01*
X31210557Y-58749693D01*
X31224000Y-58673459D01*
X31224000Y-58422541D01*
X31180429Y-58175436D01*
X31094609Y-57939651D01*
X30969150Y-57722349D01*
X30807864Y-57530136D01*
X30615651Y-57368850D01*
X30458294Y-57278000D01*
X30615651Y-57187150D01*
X30659924Y-57150000D01*
X31515789Y-57150000D01*
X31536608Y-57447721D01*
X31598658Y-57739646D01*
X31700734Y-58020095D01*
X31840846Y-58283609D01*
X32051052Y-58572929D01*
X33473981Y-57150000D01*
X33836019Y-57150000D01*
X35252322Y-58566303D01*
X35385658Y-58407396D01*
X35543811Y-58154299D01*
X35665200Y-57881653D01*
X35747464Y-57594767D01*
X35789000Y-57299224D01*
X35789000Y-57150000D01*
X36595789Y-57150000D01*
X36616608Y-57447721D01*
X36678658Y-57739646D01*
X36780734Y-58020095D01*
X36920846Y-58283609D01*
X37131052Y-58572929D01*
X38553981Y-57150000D01*
X38916019Y-57150000D01*
X40332322Y-58566303D01*
X40465658Y-58407396D01*
X40623811Y-58154299D01*
X40745200Y-57881653D01*
X40827464Y-57594767D01*
X40869000Y-57299224D01*
X40869000Y-57000776D01*
X40827464Y-56705233D01*
X40745200Y-56418347D01*
X40623811Y-56145701D01*
X40465658Y-55892604D01*
X40332322Y-55733697D01*
X38916019Y-57150000D01*
X38553981Y-57150000D01*
X37131052Y-55727071D01*
X36920846Y-56016391D01*
X36780734Y-56279905D01*
X36678658Y-56560354D01*
X36616608Y-56852279D01*
X36595789Y-57150000D01*
X35789000Y-57150000D01*
X35789000Y-57000776D01*
X35747464Y-56705233D01*
X35665200Y-56418347D01*
X35543811Y-56145701D01*
X35385658Y-55892604D01*
X35252322Y-55733697D01*
X33836019Y-57150000D01*
X33473981Y-57150000D01*
X32051052Y-55727071D01*
X31840846Y-56016391D01*
X31700734Y-56279905D01*
X31598658Y-56560354D01*
X31536608Y-56852279D01*
X31515789Y-57150000D01*
X30659924Y-57150000D01*
X30807864Y-57025864D01*
X30969150Y-56833651D01*
X31094609Y-56616349D01*
X31180429Y-56380564D01*
X31224000Y-56133459D01*
X31224000Y-55882541D01*
X31180429Y-55635436D01*
X31149445Y-55550307D01*
X32236326Y-55550307D01*
X33655000Y-56968981D01*
X35073674Y-55550307D01*
X37316326Y-55550307D01*
X38735000Y-56968981D01*
X40164106Y-55539875D01*
X39804606Y-55297389D01*
X39536363Y-55166559D01*
X39252522Y-55074333D01*
X38958609Y-55022508D01*
X38660343Y-55012092D01*
X38363530Y-55043289D01*
X38073948Y-55115489D01*
X37797231Y-55227290D01*
X37538768Y-55376514D01*
X37316326Y-55550307D01*
X35073674Y-55550307D01*
X35084106Y-55539875D01*
X34724606Y-55297389D01*
X34456363Y-55166559D01*
X34172522Y-55074333D01*
X33878609Y-55022508D01*
X33580343Y-55012092D01*
X33283530Y-55043289D01*
X32993948Y-55115489D01*
X32717231Y-55227290D01*
X32458768Y-55376514D01*
X32236326Y-55550307D01*
X31149445Y-55550307D01*
X31094609Y-55399651D01*
X30969150Y-55182349D01*
X30807864Y-54990136D01*
X30615651Y-54828850D01*
X30458294Y-54738000D01*
X30615651Y-54647150D01*
X30807864Y-54485864D01*
X30969150Y-54293651D01*
X31094609Y-54076349D01*
X31180429Y-53840564D01*
X31224000Y-53593459D01*
X31224000Y-53537666D01*
X31326132Y-53528012D01*
X31557413Y-53463436D01*
X31773603Y-53358926D01*
X31967870Y-53217783D01*
X32134071Y-53044470D01*
X32266955Y-52844464D01*
X32349457Y-52653813D01*
X32439859Y-52856858D01*
X32574830Y-53055462D01*
X32742837Y-53227025D01*
X32938571Y-53366126D01*
X33155844Y-53468367D01*
X33387788Y-53530516D01*
X33627071Y-53550609D01*
X33866132Y-53528012D01*
X34097413Y-53463436D01*
X34313603Y-53358926D01*
X34507870Y-53217783D01*
X34674071Y-53044470D01*
X34806955Y-52844464D01*
X34889457Y-52653813D01*
X34979859Y-52856858D01*
X35114830Y-53055462D01*
X35282837Y-53227025D01*
X35478571Y-53366126D01*
X35695844Y-53468367D01*
X35927788Y-53530516D01*
X36167071Y-53550609D01*
X36406132Y-53528012D01*
X36637413Y-53463436D01*
X36853603Y-53358926D01*
X37047870Y-53217783D01*
X37214071Y-53044470D01*
X37346955Y-52844464D01*
X37429457Y-52653813D01*
X37519859Y-52856858D01*
X37654830Y-53055462D01*
X37822837Y-53227025D01*
X38018571Y-53366126D01*
X38235844Y-53468367D01*
X38467788Y-53530516D01*
X38707071Y-53550609D01*
X38946132Y-53528012D01*
X39177413Y-53463436D01*
X39393603Y-53358926D01*
X39587870Y-53217783D01*
X39754071Y-53044470D01*
X39886955Y-52844464D01*
X39969457Y-52653813D01*
X40059859Y-52856858D01*
G37*
X40059859Y-52856858D02*
X40194830Y-53055462D01*
X40362837Y-53227025D01*
X40558571Y-53366126D01*
X40775844Y-53468367D01*
X41007788Y-53530516D01*
X41247071Y-53550609D01*
X41486132Y-53528012D01*
X41717413Y-53463436D01*
X41933603Y-53358926D01*
X42127869Y-53217783D01*
X42158684Y-53185649D01*
X42793021Y-53819987D01*
X42781034Y-53831010D01*
X42635853Y-54022279D01*
X42526839Y-54236233D01*
X42457435Y-54466110D01*
X42429835Y-54704645D01*
X42444913Y-54944297D01*
X42502190Y-55177492D01*
X42599859Y-55396858D01*
X42734829Y-55595462D01*
X42795558Y-55657476D01*
X42292458Y-56160577D01*
X42292456Y-56160578D01*
X42122101Y-56330934D01*
X42094645Y-56384820D01*
X42059096Y-56433749D01*
X42040408Y-56491266D01*
X42012949Y-56545156D01*
X42003487Y-56604899D01*
X41984800Y-56662410D01*
X41984800Y-56722374D01*
X41984799Y-56722380D01*
X41984800Y-58683542D01*
X41984800Y-58904012D01*
X42003489Y-58961531D01*
X42012950Y-59021266D01*
X42040407Y-59075154D01*
X42059096Y-59132674D01*
X42094648Y-59181605D01*
X42122102Y-59235489D01*
X42454872Y-59568258D01*
X42429835Y-59784645D01*
X42444913Y-60024297D01*
X42502190Y-60257492D01*
X42599859Y-60476858D01*
X42734830Y-60675462D01*
X42902837Y-60847025D01*
X43098571Y-60986126D01*
X43315844Y-61088367D01*
X43327768Y-61091562D01*
X43160535Y-61159809D01*
X42957790Y-61288475D01*
X42781034Y-61451010D01*
X42635853Y-61642279D01*
X42526839Y-61856233D01*
X42457435Y-62086110D01*
X42429835Y-62324645D01*
X42444913Y-62564297D01*
X42502190Y-62797492D01*
X42599859Y-63016858D01*
X42734830Y-63215462D01*
X42902837Y-63387025D01*
X43098571Y-63526126D01*
X43315844Y-63628367D01*
X43327768Y-63631562D01*
X43160535Y-63699809D01*
X42957790Y-63828475D01*
X42781034Y-63991010D01*
X42635853Y-64182279D01*
X42526839Y-64396233D01*
X42457435Y-64626110D01*
X42429835Y-64864645D01*
X42444913Y-65104297D01*
X42502190Y-65337492D01*
X42599859Y-65556858D01*
X42734830Y-65755462D01*
X42902837Y-65927025D01*
X43098571Y-66066126D01*
X43315844Y-66168367D01*
X43327768Y-66171562D01*
X43160535Y-66239809D01*
X42957790Y-66368475D01*
X42781034Y-66531010D01*
X42635853Y-66722279D01*
X42526839Y-66936233D01*
X42509414Y-66993947D01*
X42459057Y-66858540D01*
X42336822Y-66651853D01*
X42179919Y-66470078D01*
X41993306Y-66318963D01*
X41782882Y-66203281D01*
X41555298Y-66126690D01*
X41317748Y-66091612D01*
X41077740Y-66099154D01*
X40842861Y-66149079D01*
X40620535Y-66239809D01*
X40417790Y-66368475D01*
X40241034Y-66531010D01*
X40095853Y-66722279D01*
X39986839Y-66936233D01*
X39969414Y-66993947D01*
X39919057Y-66858540D01*
X39796822Y-66651853D01*
X39639919Y-66470078D01*
X39453306Y-66318963D01*
X39242882Y-66203281D01*
X39015298Y-66126690D01*
X38777748Y-66091612D01*
X38537740Y-66099154D01*
X38302861Y-66149079D01*
X38080535Y-66239809D01*
X37877790Y-66368475D01*
X37701034Y-66531010D01*
X37555853Y-66722279D01*
X37446839Y-66936233D01*
X37429414Y-66993947D01*
X37379057Y-66858540D01*
X37256822Y-66651853D01*
X37099919Y-66470078D01*
X36913306Y-66318963D01*
X36702882Y-66203281D01*
X36475298Y-66126690D01*
X36237748Y-66091612D01*
X35997740Y-66099154D01*
X35762861Y-66149079D01*
X35540535Y-66239809D01*
X35337790Y-66368475D01*
X35161034Y-66531010D01*
X35015853Y-66722279D01*
X34906839Y-66936233D01*
X34889414Y-66993947D01*
X34839057Y-66858540D01*
X34716822Y-66651853D01*
X34559919Y-66470078D01*
X34373306Y-66318963D01*
X34162882Y-66203281D01*
X33935298Y-66126690D01*
X33697748Y-66091612D01*
X33457740Y-66099154D01*
X33222861Y-66149079D01*
X33000535Y-66239809D01*
X32797790Y-66368475D01*
X32621034Y-66531010D01*
X32475853Y-66722279D01*
X32366839Y-66936233D01*
X32349414Y-66993947D01*
X32299057Y-66858540D01*
X32176822Y-66651853D01*
X32019919Y-66470078D01*
X31833306Y-66318963D01*
X31622882Y-66203281D01*
X31395298Y-66126690D01*
X31224000Y-66101395D01*
X31224000Y-66042541D01*
X31180429Y-65795436D01*
X31094609Y-65559651D01*
X30969150Y-65342349D01*
X30807864Y-65150136D01*
X30615651Y-64988850D01*
X30458294Y-64898000D01*
X30615651Y-64807150D01*
X30807864Y-64645864D01*
X30969150Y-64453651D01*
X31094609Y-64236349D01*
X31180429Y-64000564D01*
X31210557Y-63829693D01*
X32236326Y-63829693D01*
X32458768Y-64003486D01*
X32717231Y-64152710D01*
X32993948Y-64264511D01*
X33283530Y-64336711D01*
X33580343Y-64367908D01*
X33878609Y-64357492D01*
X34172522Y-64305667D01*
X34456363Y-64213441D01*
X34724606Y-64082611D01*
X35084106Y-63840125D01*
X35073674Y-63829693D01*
X37316326Y-63829693D01*
X37538768Y-64003486D01*
X37797231Y-64152710D01*
X38073948Y-64264511D01*
X38363530Y-64336711D01*
X38660343Y-64367908D01*
X38958609Y-64357492D01*
X39252522Y-64305667D01*
X39536363Y-64213441D01*
X39804606Y-64082611D01*
X40164106Y-63840125D01*
X38735000Y-62411019D01*
X37316326Y-63829693D01*
X35073674Y-63829693D01*
X33655000Y-62411019D01*
X32236326Y-63829693D01*
X31210557Y-63829693D01*
X31224000Y-63753459D01*
X31224000Y-63502541D01*
X31188751Y-63302635D01*
X31366340Y-63125046D01*
X31366344Y-63125044D01*
X31536698Y-62954689D01*
X31564156Y-62900802D01*
X31599704Y-62851874D01*
X31604743Y-62836365D01*
X31700734Y-63100095D01*
X31840846Y-63363609D01*
X32051052Y-63652929D01*
X33473981Y-62230000D01*
X33836019Y-62230000D01*
X35252322Y-63646303D01*
X35385658Y-63487396D01*
X35543811Y-63234299D01*
X35665200Y-62961653D01*
X35747464Y-62674767D01*
X35789000Y-62379224D01*
X35789000Y-62230000D01*
X36595789Y-62230000D01*
X36616608Y-62527721D01*
X36678658Y-62819646D01*
X36780734Y-63100095D01*
X36920846Y-63363609D01*
X37131052Y-63652929D01*
X38553981Y-62230000D01*
X38916019Y-62230000D01*
X40332322Y-63646303D01*
X40465658Y-63487396D01*
X40623811Y-63234299D01*
X40745200Y-62961653D01*
X40827464Y-62674767D01*
X40869000Y-62379224D01*
X40869000Y-62080776D01*
X40827464Y-61785233D01*
X40745200Y-61498347D01*
X40623811Y-61225701D01*
X40465658Y-60972604D01*
X40332322Y-60813697D01*
X38916019Y-62230000D01*
X38553981Y-62230000D01*
X37131052Y-60807071D01*
X36920846Y-61096391D01*
X36780734Y-61359905D01*
X36678658Y-61640354D01*
X36616608Y-61932279D01*
X36595789Y-62230000D01*
X35789000Y-62230000D01*
X35789000Y-62080776D01*
X35747464Y-61785233D01*
X35665200Y-61498347D01*
X35543811Y-61225701D01*
X35385658Y-60972604D01*
X35252322Y-60813697D01*
X33836019Y-62230000D01*
X33473981Y-62230000D01*
X32051052Y-60807071D01*
X31840846Y-61096391D01*
X31700734Y-61359905D01*
X31674001Y-61433353D01*
X31674001Y-60630307D01*
X32236326Y-60630307D01*
X33655000Y-62048981D01*
X35073674Y-60630307D01*
X37316326Y-60630307D01*
X38735000Y-62048981D01*
X40164106Y-60619875D01*
X39804606Y-60377389D01*
X39536363Y-60246559D01*
X39252522Y-60154333D01*
X38958609Y-60102508D01*
X38660343Y-60092092D01*
X38363530Y-60123289D01*
X38073948Y-60195489D01*
X37797231Y-60307290D01*
X37538768Y-60456514D01*
X37316326Y-60630307D01*
X35073674Y-60630307D01*
X35084106Y-60619875D01*
X34724606Y-60377389D01*
X34456363Y-60246559D01*
X34172522Y-60154333D01*
X33878609Y-60102508D01*
X33580343Y-60092092D01*
X33283530Y-60123289D01*
X32993948Y-60195489D01*
X32717231Y-60307290D01*
X32458768Y-60456514D01*
X32236326Y-60630307D01*
X31674001Y-60630307D01*
X31674001Y-60487755D01*
X31674000Y-60487749D01*
X31674000Y-60427785D01*
X31655313Y-60370274D01*
X31645851Y-60310531D01*
X31618392Y-60256641D01*
X31599704Y-60199124D01*
X31564155Y-60150195D01*
X31536699Y-60096309D01*
X30898380Y-59457991D01*
X30969150Y-59373651D01*
X31094609Y-59156349D01*
X31180429Y-58920564D01*
X31210557Y-58749693D01*
X32236326Y-58749693D01*
X32458768Y-58923486D01*
X32717231Y-59072710D01*
X32993948Y-59184511D01*
X33283530Y-59256711D01*
X33580343Y-59287908D01*
X33878609Y-59277492D01*
X34172522Y-59225667D01*
X34456363Y-59133441D01*
X34724606Y-59002611D01*
X35084106Y-58760125D01*
X35073674Y-58749693D01*
X37316326Y-58749693D01*
X37538768Y-58923486D01*
X37797231Y-59072710D01*
X38073948Y-59184511D01*
X38363530Y-59256711D01*
X38660343Y-59287908D01*
X38958609Y-59277492D01*
X39252522Y-59225667D01*
X39536363Y-59133441D01*
X39804606Y-59002611D01*
X40164106Y-58760125D01*
X38735000Y-57331019D01*
X37316326Y-58749693D01*
X35073674Y-58749693D01*
X33655000Y-57331019D01*
X32236326Y-58749693D01*
X31210557Y-58749693D01*
X31224000Y-58673459D01*
X31224000Y-58422541D01*
X31180429Y-58175436D01*
X31094609Y-57939651D01*
X30969150Y-57722349D01*
X30807864Y-57530136D01*
X30615651Y-57368850D01*
X30458294Y-57278000D01*
X30615651Y-57187150D01*
X30659924Y-57150000D01*
X31515789Y-57150000D01*
X31536608Y-57447721D01*
X31598658Y-57739646D01*
X31700734Y-58020095D01*
X31840846Y-58283609D01*
X32051052Y-58572929D01*
X33473981Y-57150000D01*
X33836019Y-57150000D01*
X35252322Y-58566303D01*
X35385658Y-58407396D01*
X35543811Y-58154299D01*
X35665200Y-57881653D01*
X35747464Y-57594767D01*
X35789000Y-57299224D01*
X35789000Y-57150000D01*
X36595789Y-57150000D01*
X36616608Y-57447721D01*
X36678658Y-57739646D01*
X36780734Y-58020095D01*
X36920846Y-58283609D01*
X37131052Y-58572929D01*
X38553981Y-57150000D01*
X38916019Y-57150000D01*
X40332322Y-58566303D01*
X40465658Y-58407396D01*
X40623811Y-58154299D01*
X40745200Y-57881653D01*
X40827464Y-57594767D01*
X40869000Y-57299224D01*
X40869000Y-57000776D01*
X40827464Y-56705233D01*
X40745200Y-56418347D01*
X40623811Y-56145701D01*
X40465658Y-55892604D01*
X40332322Y-55733697D01*
X38916019Y-57150000D01*
X38553981Y-57150000D01*
X37131052Y-55727071D01*
X36920846Y-56016391D01*
X36780734Y-56279905D01*
X36678658Y-56560354D01*
X36616608Y-56852279D01*
X36595789Y-57150000D01*
X35789000Y-57150000D01*
X35789000Y-57000776D01*
X35747464Y-56705233D01*
X35665200Y-56418347D01*
X35543811Y-56145701D01*
X35385658Y-55892604D01*
X35252322Y-55733697D01*
X33836019Y-57150000D01*
X33473981Y-57150000D01*
X32051052Y-55727071D01*
X31840846Y-56016391D01*
X31700734Y-56279905D01*
X31598658Y-56560354D01*
X31536608Y-56852279D01*
X31515789Y-57150000D01*
X30659924Y-57150000D01*
X30807864Y-57025864D01*
X30969150Y-56833651D01*
X31094609Y-56616349D01*
X31180429Y-56380564D01*
X31224000Y-56133459D01*
X31224000Y-55882541D01*
X31180429Y-55635436D01*
X31149445Y-55550307D01*
X32236326Y-55550307D01*
X33655000Y-56968981D01*
X35073674Y-55550307D01*
X37316326Y-55550307D01*
X38735000Y-56968981D01*
X40164106Y-55539875D01*
X39804606Y-55297389D01*
X39536363Y-55166559D01*
X39252522Y-55074333D01*
X38958609Y-55022508D01*
X38660343Y-55012092D01*
X38363530Y-55043289D01*
X38073948Y-55115489D01*
X37797231Y-55227290D01*
X37538768Y-55376514D01*
X37316326Y-55550307D01*
X35073674Y-55550307D01*
X35084106Y-55539875D01*
X34724606Y-55297389D01*
X34456363Y-55166559D01*
X34172522Y-55074333D01*
X33878609Y-55022508D01*
X33580343Y-55012092D01*
X33283530Y-55043289D01*
X32993948Y-55115489D01*
X32717231Y-55227290D01*
X32458768Y-55376514D01*
X32236326Y-55550307D01*
X31149445Y-55550307D01*
X31094609Y-55399651D01*
X30969150Y-55182349D01*
X30807864Y-54990136D01*
X30615651Y-54828850D01*
X30458294Y-54738000D01*
X30615651Y-54647150D01*
X30807864Y-54485864D01*
X30969150Y-54293651D01*
X31094609Y-54076349D01*
X31180429Y-53840564D01*
X31224000Y-53593459D01*
X31224000Y-53537666D01*
X31326132Y-53528012D01*
X31557413Y-53463436D01*
X31773603Y-53358926D01*
X31967870Y-53217783D01*
X32134071Y-53044470D01*
X32266955Y-52844464D01*
X32349457Y-52653813D01*
X32439859Y-52856858D01*
X32574830Y-53055462D01*
X32742837Y-53227025D01*
X32938571Y-53366126D01*
X33155844Y-53468367D01*
X33387788Y-53530516D01*
X33627071Y-53550609D01*
X33866132Y-53528012D01*
X34097413Y-53463436D01*
X34313603Y-53358926D01*
X34507870Y-53217783D01*
X34674071Y-53044470D01*
X34806955Y-52844464D01*
X34889457Y-52653813D01*
X34979859Y-52856858D01*
X35114830Y-53055462D01*
X35282837Y-53227025D01*
X35478571Y-53366126D01*
X35695844Y-53468367D01*
X35927788Y-53530516D01*
X36167071Y-53550609D01*
X36406132Y-53528012D01*
X36637413Y-53463436D01*
X36853603Y-53358926D01*
X37047870Y-53217783D01*
X37214071Y-53044470D01*
X37346955Y-52844464D01*
X37429457Y-52653813D01*
X37519859Y-52856858D01*
X37654830Y-53055462D01*
X37822837Y-53227025D01*
X38018571Y-53366126D01*
X38235844Y-53468367D01*
X38467788Y-53530516D01*
X38707071Y-53550609D01*
X38946132Y-53528012D01*
X39177413Y-53463436D01*
X39393603Y-53358926D01*
X39587870Y-53217783D01*
X39754071Y-53044470D01*
X39886955Y-52844464D01*
X39969457Y-52653813D01*
X40059859Y-52856858D01*
M02*
